G04 #@! TF.GenerationSoftware,KiCad,Pcbnew,5.0.2-bee76a0~70~ubuntu18.04.1*
G04 #@! TF.CreationDate,2019-04-15T14:09:08+02:00*
G04 #@! TF.ProjectId,top-board,746f702d-626f-4617-9264-2e6b69636164,rev?*
G04 #@! TF.SameCoordinates,PX47b3528PY2897428*
G04 #@! TF.FileFunction,Legend,Top*
G04 #@! TF.FilePolarity,Positive*
%FSLAX46Y46*%
G04 Gerber Fmt 4.6, Leading zero omitted, Abs format (unit mm)*
G04 Created by KiCad (PCBNEW 5.0.2-bee76a0~70~ubuntu18.04.1) date Mon 15 Apr 2019 02:09:08 PM CEST*
%MOMM*%
%LPD*%
G01*
G04 APERTURE LIST*
%ADD10C,0.300000*%
%ADD11C,0.150000*%
%ADD12C,0.100000*%
G04 APERTURE END LIST*
D10*
X106064342Y-20828971D02*
X106064342Y-19328971D01*
X106564342Y-20400400D01*
X107064342Y-19328971D01*
X107064342Y-20828971D01*
X108064342Y-19328971D02*
X108350057Y-19328971D01*
X108492914Y-19400400D01*
X108635771Y-19543257D01*
X108707200Y-19828971D01*
X108707200Y-20328971D01*
X108635771Y-20614685D01*
X108492914Y-20757542D01*
X108350057Y-20828971D01*
X108064342Y-20828971D01*
X107921485Y-20757542D01*
X107778628Y-20614685D01*
X107707200Y-20328971D01*
X107707200Y-19828971D01*
X107778628Y-19543257D01*
X107921485Y-19400400D01*
X108064342Y-19328971D01*
X109350057Y-20828971D02*
X109350057Y-19328971D01*
X109707200Y-19328971D01*
X109921485Y-19400400D01*
X110064342Y-19543257D01*
X110135771Y-19686114D01*
X110207200Y-19971828D01*
X110207200Y-20186114D01*
X110135771Y-20471828D01*
X110064342Y-20614685D01*
X109921485Y-20757542D01*
X109707200Y-20828971D01*
X109350057Y-20828971D01*
X111992914Y-20828971D02*
X111992914Y-19328971D01*
X112350057Y-19328971D01*
X112564342Y-19400400D01*
X112707200Y-19543257D01*
X112778628Y-19686114D01*
X112850057Y-19971828D01*
X112850057Y-20186114D01*
X112778628Y-20471828D01*
X112707200Y-20614685D01*
X112564342Y-20757542D01*
X112350057Y-20828971D01*
X111992914Y-20828971D01*
X114064342Y-20757542D02*
X113921485Y-20828971D01*
X113635771Y-20828971D01*
X113492914Y-20757542D01*
X113421485Y-20614685D01*
X113421485Y-20043257D01*
X113492914Y-19900400D01*
X113635771Y-19828971D01*
X113921485Y-19828971D01*
X114064342Y-19900400D01*
X114135771Y-20043257D01*
X114135771Y-20186114D01*
X113421485Y-20328971D01*
X114635771Y-19828971D02*
X114992914Y-20828971D01*
X115350057Y-19828971D01*
X115921485Y-20828971D02*
X115921485Y-19828971D01*
X115921485Y-19328971D02*
X115850057Y-19400400D01*
X115921485Y-19471828D01*
X115992914Y-19400400D01*
X115921485Y-19328971D01*
X115921485Y-19471828D01*
X117278628Y-20757542D02*
X117135771Y-20828971D01*
X116850057Y-20828971D01*
X116707200Y-20757542D01*
X116635771Y-20686114D01*
X116564342Y-20543257D01*
X116564342Y-20114685D01*
X116635771Y-19971828D01*
X116707200Y-19900400D01*
X116850057Y-19828971D01*
X117135771Y-19828971D01*
X117278628Y-19900400D01*
X118492914Y-20757542D02*
X118350057Y-20828971D01*
X118064342Y-20828971D01*
X117921485Y-20757542D01*
X117850057Y-20614685D01*
X117850057Y-20043257D01*
X117921485Y-19900400D01*
X118064342Y-19828971D01*
X118350057Y-19828971D01*
X118492914Y-19900400D01*
X118564342Y-20043257D01*
X118564342Y-20186114D01*
X117850057Y-20328971D01*
X119135771Y-20757542D02*
X119278628Y-20828971D01*
X119564342Y-20828971D01*
X119707200Y-20757542D01*
X119778628Y-20614685D01*
X119778628Y-20543257D01*
X119707200Y-20400400D01*
X119564342Y-20328971D01*
X119350057Y-20328971D01*
X119207200Y-20257542D01*
X119135771Y-20114685D01*
X119135771Y-20043257D01*
X119207200Y-19900400D01*
X119350057Y-19828971D01*
X119564342Y-19828971D01*
X119707200Y-19900400D01*
X122350057Y-19400400D02*
X122207200Y-19328971D01*
X121992914Y-19328971D01*
X121778628Y-19400400D01*
X121635771Y-19543257D01*
X121564342Y-19686114D01*
X121492914Y-19971828D01*
X121492914Y-20186114D01*
X121564342Y-20471828D01*
X121635771Y-20614685D01*
X121778628Y-20757542D01*
X121992914Y-20828971D01*
X122135771Y-20828971D01*
X122350057Y-20757542D01*
X122421485Y-20686114D01*
X122421485Y-20186114D01*
X122135771Y-20186114D01*
X123064342Y-20828971D02*
X123064342Y-19828971D01*
X123064342Y-19971828D02*
X123135771Y-19900400D01*
X123278628Y-19828971D01*
X123492914Y-19828971D01*
X123635771Y-19900400D01*
X123707200Y-20043257D01*
X123707200Y-20828971D01*
X123707200Y-20043257D02*
X123778628Y-19900400D01*
X123921485Y-19828971D01*
X124135771Y-19828971D01*
X124278628Y-19900400D01*
X124350057Y-20043257D01*
X124350057Y-20828971D01*
X125064342Y-20828971D02*
X125064342Y-19328971D01*
X125064342Y-19900400D02*
X125207200Y-19828971D01*
X125492914Y-19828971D01*
X125635771Y-19900400D01*
X125707200Y-19971828D01*
X125778628Y-20114685D01*
X125778628Y-20543257D01*
X125707200Y-20686114D01*
X125635771Y-20757542D01*
X125492914Y-20828971D01*
X125207200Y-20828971D01*
X125064342Y-20757542D01*
X126421485Y-20828971D02*
X126421485Y-19328971D01*
X126421485Y-20043257D02*
X127278628Y-20043257D01*
X127278628Y-20828971D02*
X127278628Y-19328971D01*
X106064342Y-23378971D02*
X106064342Y-21878971D01*
X106707200Y-23378971D02*
X106707200Y-22593257D01*
X106635771Y-22450400D01*
X106492914Y-22378971D01*
X106278628Y-22378971D01*
X106135771Y-22450400D01*
X106064342Y-22521828D01*
X107207200Y-22378971D02*
X107778628Y-22378971D01*
X107421485Y-21878971D02*
X107421485Y-23164685D01*
X107492914Y-23307542D01*
X107635771Y-23378971D01*
X107778628Y-23378971D01*
X108064342Y-22378971D02*
X108635771Y-22378971D01*
X108278628Y-21878971D02*
X108278628Y-23164685D01*
X108350057Y-23307542D01*
X108492914Y-23378971D01*
X108635771Y-23378971D01*
X109135771Y-22378971D02*
X109135771Y-23878971D01*
X109135771Y-22450400D02*
X109278628Y-22378971D01*
X109564342Y-22378971D01*
X109707200Y-22450400D01*
X109778628Y-22521828D01*
X109850057Y-22664685D01*
X109850057Y-23093257D01*
X109778628Y-23236114D01*
X109707200Y-23307542D01*
X109564342Y-23378971D01*
X109278628Y-23378971D01*
X109135771Y-23307542D01*
X110492914Y-23236114D02*
X110564342Y-23307542D01*
X110492914Y-23378971D01*
X110421485Y-23307542D01*
X110492914Y-23236114D01*
X110492914Y-23378971D01*
X110492914Y-22450400D02*
X110564342Y-22521828D01*
X110492914Y-22593257D01*
X110421485Y-22521828D01*
X110492914Y-22450400D01*
X110492914Y-22593257D01*
X112278628Y-21807542D02*
X110992914Y-23736114D01*
X113850057Y-21807542D02*
X112564342Y-23736114D01*
X114350057Y-23378971D02*
X114350057Y-22378971D01*
X114350057Y-22521828D02*
X114421485Y-22450400D01*
X114564342Y-22378971D01*
X114778628Y-22378971D01*
X114921485Y-22450400D01*
X114992914Y-22593257D01*
X114992914Y-23378971D01*
X114992914Y-22593257D02*
X115064342Y-22450400D01*
X115207200Y-22378971D01*
X115421485Y-22378971D01*
X115564342Y-22450400D01*
X115635771Y-22593257D01*
X115635771Y-23378971D01*
X116564342Y-23378971D02*
X116421485Y-23307542D01*
X116350057Y-23236114D01*
X116278628Y-23093257D01*
X116278628Y-22664685D01*
X116350057Y-22521828D01*
X116421485Y-22450400D01*
X116564342Y-22378971D01*
X116778628Y-22378971D01*
X116921485Y-22450400D01*
X116992914Y-22521828D01*
X117064342Y-22664685D01*
X117064342Y-23093257D01*
X116992914Y-23236114D01*
X116921485Y-23307542D01*
X116778628Y-23378971D01*
X116564342Y-23378971D01*
X118350057Y-23378971D02*
X118350057Y-21878971D01*
X118350057Y-23307542D02*
X118207200Y-23378971D01*
X117921485Y-23378971D01*
X117778628Y-23307542D01*
X117707200Y-23236114D01*
X117635771Y-23093257D01*
X117635771Y-22664685D01*
X117707200Y-22521828D01*
X117778628Y-22450400D01*
X117921485Y-22378971D01*
X118207200Y-22378971D01*
X118350057Y-22450400D01*
X119707200Y-23378971D02*
X119707200Y-21878971D01*
X119707200Y-23307542D02*
X119564342Y-23378971D01*
X119278628Y-23378971D01*
X119135771Y-23307542D01*
X119064342Y-23236114D01*
X118992914Y-23093257D01*
X118992914Y-22664685D01*
X119064342Y-22521828D01*
X119135771Y-22450400D01*
X119278628Y-22378971D01*
X119564342Y-22378971D01*
X119707200Y-22450400D01*
X120992914Y-23307542D02*
X120850057Y-23378971D01*
X120564342Y-23378971D01*
X120421485Y-23307542D01*
X120350057Y-23164685D01*
X120350057Y-22593257D01*
X120421485Y-22450400D01*
X120564342Y-22378971D01*
X120850057Y-22378971D01*
X120992914Y-22450400D01*
X121064342Y-22593257D01*
X121064342Y-22736114D01*
X120350057Y-22878971D01*
X121564342Y-22378971D02*
X121921485Y-23378971D01*
X122278628Y-22378971D01*
X122850057Y-23378971D02*
X122850057Y-22378971D01*
X122850057Y-21878971D02*
X122778628Y-21950400D01*
X122850057Y-22021828D01*
X122921485Y-21950400D01*
X122850057Y-21878971D01*
X122850057Y-22021828D01*
X124207200Y-23307542D02*
X124064342Y-23378971D01*
X123778628Y-23378971D01*
X123635771Y-23307542D01*
X123564342Y-23236114D01*
X123492914Y-23093257D01*
X123492914Y-22664685D01*
X123564342Y-22521828D01*
X123635771Y-22450400D01*
X123778628Y-22378971D01*
X124064342Y-22378971D01*
X124207200Y-22450400D01*
X125421485Y-23307542D02*
X125278628Y-23378971D01*
X124992914Y-23378971D01*
X124850057Y-23307542D01*
X124778628Y-23164685D01*
X124778628Y-22593257D01*
X124850057Y-22450400D01*
X124992914Y-22378971D01*
X125278628Y-22378971D01*
X125421485Y-22450400D01*
X125492914Y-22593257D01*
X125492914Y-22736114D01*
X124778628Y-22878971D01*
X126064342Y-23307542D02*
X126207200Y-23378971D01*
X126492914Y-23378971D01*
X126635771Y-23307542D01*
X126707200Y-23164685D01*
X126707200Y-23093257D01*
X126635771Y-22950400D01*
X126492914Y-22878971D01*
X126278628Y-22878971D01*
X126135771Y-22807542D01*
X126064342Y-22664685D01*
X126064342Y-22593257D01*
X126135771Y-22450400D01*
X126278628Y-22378971D01*
X126492914Y-22378971D01*
X126635771Y-22450400D01*
X127350057Y-23236114D02*
X127421485Y-23307542D01*
X127350057Y-23378971D01*
X127278628Y-23307542D01*
X127350057Y-23236114D01*
X127350057Y-23378971D01*
X128707200Y-23307542D02*
X128564342Y-23378971D01*
X128278628Y-23378971D01*
X128135771Y-23307542D01*
X128064342Y-23236114D01*
X127992914Y-23093257D01*
X127992914Y-22664685D01*
X128064342Y-22521828D01*
X128135771Y-22450400D01*
X128278628Y-22378971D01*
X128564342Y-22378971D01*
X128707200Y-22450400D01*
X129564342Y-23378971D02*
X129421485Y-23307542D01*
X129350057Y-23236114D01*
X129278628Y-23093257D01*
X129278628Y-22664685D01*
X129350057Y-22521828D01*
X129421485Y-22450400D01*
X129564342Y-22378971D01*
X129778628Y-22378971D01*
X129921485Y-22450400D01*
X129992914Y-22521828D01*
X130064342Y-22664685D01*
X130064342Y-23093257D01*
X129992914Y-23236114D01*
X129921485Y-23307542D01*
X129778628Y-23378971D01*
X129564342Y-23378971D01*
X130707200Y-23378971D02*
X130707200Y-22378971D01*
X130707200Y-22521828D02*
X130778628Y-22450400D01*
X130921485Y-22378971D01*
X131135771Y-22378971D01*
X131278628Y-22450400D01*
X131350057Y-22593257D01*
X131350057Y-23378971D01*
X131350057Y-22593257D02*
X131421485Y-22450400D01*
X131564342Y-22378971D01*
X131778628Y-22378971D01*
X131921485Y-22450400D01*
X131992914Y-22593257D01*
X131992914Y-23378971D01*
X106492914Y-28978971D02*
X106135771Y-28978971D01*
X106135771Y-26836114D01*
X106492914Y-26836114D01*
X107064342Y-28478971D02*
X107064342Y-26978971D01*
X107421485Y-26978971D01*
X107635771Y-27050400D01*
X107778628Y-27193257D01*
X107850057Y-27336114D01*
X107921485Y-27621828D01*
X107921485Y-27836114D01*
X107850057Y-28121828D01*
X107778628Y-28264685D01*
X107635771Y-28407542D01*
X107421485Y-28478971D01*
X107064342Y-28478971D01*
X108564342Y-26978971D02*
X108564342Y-28193257D01*
X108635771Y-28336114D01*
X108707200Y-28407542D01*
X108850057Y-28478971D01*
X109135771Y-28478971D01*
X109278628Y-28407542D01*
X109350057Y-28336114D01*
X109421485Y-28193257D01*
X109421485Y-26978971D01*
X110135771Y-27907542D02*
X111278628Y-27907542D01*
X111992914Y-27693257D02*
X112492914Y-27693257D01*
X112707200Y-28478971D02*
X111992914Y-28478971D01*
X111992914Y-26978971D01*
X112707200Y-26978971D01*
X114064342Y-28478971D02*
X113350057Y-28478971D01*
X113350057Y-26978971D01*
X114564342Y-27693257D02*
X115064342Y-27693257D01*
X115278628Y-28478971D02*
X114564342Y-28478971D01*
X114564342Y-26978971D01*
X115278628Y-26978971D01*
X115921485Y-27907542D02*
X117064342Y-27907542D01*
X118064342Y-26978971D02*
X118207200Y-26978971D01*
X118350057Y-27050400D01*
X118421485Y-27121828D01*
X118492914Y-27264685D01*
X118564342Y-27550400D01*
X118564342Y-27907542D01*
X118492914Y-28193257D01*
X118421485Y-28336114D01*
X118350057Y-28407542D01*
X118207200Y-28478971D01*
X118064342Y-28478971D01*
X117921485Y-28407542D01*
X117850057Y-28336114D01*
X117778628Y-28193257D01*
X117707200Y-27907542D01*
X117707200Y-27550400D01*
X117778628Y-27264685D01*
X117850057Y-27121828D01*
X117921485Y-27050400D01*
X118064342Y-26978971D01*
X119492914Y-26978971D02*
X119635771Y-26978971D01*
X119778628Y-27050400D01*
X119850057Y-27121828D01*
X119921485Y-27264685D01*
X119992914Y-27550400D01*
X119992914Y-27907542D01*
X119921485Y-28193257D01*
X119850057Y-28336114D01*
X119778628Y-28407542D01*
X119635771Y-28478971D01*
X119492914Y-28478971D01*
X119350057Y-28407542D01*
X119278628Y-28336114D01*
X119207200Y-28193257D01*
X119135771Y-27907542D01*
X119135771Y-27550400D01*
X119207200Y-27264685D01*
X119278628Y-27121828D01*
X119350057Y-27050400D01*
X119492914Y-26978971D01*
X120564342Y-27121828D02*
X120635771Y-27050400D01*
X120778628Y-26978971D01*
X121135771Y-26978971D01*
X121278628Y-27050400D01*
X121350057Y-27121828D01*
X121421485Y-27264685D01*
X121421485Y-27407542D01*
X121350057Y-27621828D01*
X120492914Y-28478971D01*
X121421485Y-28478971D01*
X121921485Y-28978971D02*
X122278628Y-28978971D01*
X122278628Y-26836114D01*
X121921485Y-26836114D01*
X106064342Y-31028971D02*
X106064342Y-29528971D01*
X106564342Y-30600400D01*
X107064342Y-29528971D01*
X107064342Y-31028971D01*
X108064342Y-29528971D02*
X108350057Y-29528971D01*
X108492914Y-29600400D01*
X108635771Y-29743257D01*
X108707200Y-30028971D01*
X108707200Y-30528971D01*
X108635771Y-30814685D01*
X108492914Y-30957542D01*
X108350057Y-31028971D01*
X108064342Y-31028971D01*
X107921485Y-30957542D01*
X107778628Y-30814685D01*
X107707200Y-30528971D01*
X107707200Y-30028971D01*
X107778628Y-29743257D01*
X107921485Y-29600400D01*
X108064342Y-29528971D01*
X109350057Y-31028971D02*
X109350057Y-29528971D01*
X109707200Y-29528971D01*
X109921485Y-29600400D01*
X110064342Y-29743257D01*
X110135771Y-29886114D01*
X110207200Y-30171828D01*
X110207200Y-30386114D01*
X110135771Y-30671828D01*
X110064342Y-30814685D01*
X109921485Y-30957542D01*
X109707200Y-31028971D01*
X109350057Y-31028971D01*
X111992914Y-31028971D02*
X111992914Y-29528971D01*
X112350057Y-29528971D01*
X112564342Y-29600400D01*
X112707200Y-29743257D01*
X112778628Y-29886114D01*
X112850057Y-30171828D01*
X112850057Y-30386114D01*
X112778628Y-30671828D01*
X112707200Y-30814685D01*
X112564342Y-30957542D01*
X112350057Y-31028971D01*
X111992914Y-31028971D01*
X114135771Y-30028971D02*
X114135771Y-31028971D01*
X113492914Y-30028971D02*
X113492914Y-30814685D01*
X113564342Y-30957542D01*
X113707200Y-31028971D01*
X113921485Y-31028971D01*
X114064342Y-30957542D01*
X114135771Y-30886114D01*
X115064342Y-31028971D02*
X114921485Y-30957542D01*
X114850057Y-30886114D01*
X114778628Y-30743257D01*
X114778628Y-30314685D01*
X114850057Y-30171828D01*
X114921485Y-30100400D01*
X115064342Y-30028971D01*
X115278628Y-30028971D01*
X115421485Y-30100400D01*
X115492914Y-30171828D01*
X115564342Y-30314685D01*
X115564342Y-30743257D01*
X115492914Y-30886114D01*
X115421485Y-30957542D01*
X115278628Y-31028971D01*
X115064342Y-31028971D01*
X117350057Y-30457542D02*
X118492914Y-30457542D01*
X121207200Y-30886114D02*
X121135771Y-30957542D01*
X120921485Y-31028971D01*
X120778628Y-31028971D01*
X120564342Y-30957542D01*
X120421485Y-30814685D01*
X120350057Y-30671828D01*
X120278628Y-30386114D01*
X120278628Y-30171828D01*
X120350057Y-29886114D01*
X120421485Y-29743257D01*
X120564342Y-29600400D01*
X120778628Y-29528971D01*
X120921485Y-29528971D01*
X121135771Y-29600400D01*
X121207200Y-29671828D01*
X122064342Y-31028971D02*
X121921485Y-30957542D01*
X121850057Y-30886114D01*
X121778628Y-30743257D01*
X121778628Y-30314685D01*
X121850057Y-30171828D01*
X121921485Y-30100400D01*
X122064342Y-30028971D01*
X122278628Y-30028971D01*
X122421485Y-30100400D01*
X122492914Y-30171828D01*
X122564342Y-30314685D01*
X122564342Y-30743257D01*
X122492914Y-30886114D01*
X122421485Y-30957542D01*
X122278628Y-31028971D01*
X122064342Y-31028971D01*
X123207200Y-30028971D02*
X123207200Y-31028971D01*
X123207200Y-30171828D02*
X123278628Y-30100400D01*
X123421485Y-30028971D01*
X123635771Y-30028971D01*
X123778628Y-30100400D01*
X123850057Y-30243257D01*
X123850057Y-31028971D01*
X124350057Y-30028971D02*
X124921485Y-30028971D01*
X124564342Y-29528971D02*
X124564342Y-30814685D01*
X124635771Y-30957542D01*
X124778628Y-31028971D01*
X124921485Y-31028971D01*
X125421485Y-31028971D02*
X125421485Y-30028971D01*
X125421485Y-30314685D02*
X125492914Y-30171828D01*
X125564342Y-30100400D01*
X125707200Y-30028971D01*
X125850057Y-30028971D01*
X126564342Y-31028971D02*
X126421485Y-30957542D01*
X126350057Y-30886114D01*
X126278628Y-30743257D01*
X126278628Y-30314685D01*
X126350057Y-30171828D01*
X126421485Y-30100400D01*
X126564342Y-30028971D01*
X126778628Y-30028971D01*
X126921485Y-30100400D01*
X126992914Y-30171828D01*
X127064342Y-30314685D01*
X127064342Y-30743257D01*
X126992914Y-30886114D01*
X126921485Y-30957542D01*
X126778628Y-31028971D01*
X126564342Y-31028971D01*
X127921485Y-31028971D02*
X127778628Y-30957542D01*
X127707200Y-30814685D01*
X127707200Y-29528971D01*
X128707200Y-31028971D02*
X128564342Y-30957542D01*
X128492914Y-30814685D01*
X128492914Y-29528971D01*
X129850057Y-30957542D02*
X129707200Y-31028971D01*
X129421485Y-31028971D01*
X129278628Y-30957542D01*
X129207200Y-30814685D01*
X129207200Y-30243257D01*
X129278628Y-30100400D01*
X129421485Y-30028971D01*
X129707200Y-30028971D01*
X129850057Y-30100400D01*
X129921485Y-30243257D01*
X129921485Y-30386114D01*
X129207200Y-30528971D01*
X130564342Y-31028971D02*
X130564342Y-30028971D01*
X130564342Y-30314685D02*
X130635771Y-30171828D01*
X130707200Y-30100400D01*
X130850057Y-30028971D01*
X130992914Y-30028971D01*
X133135771Y-30243257D02*
X133350057Y-30314685D01*
X133421485Y-30386114D01*
X133492914Y-30528971D01*
X133492914Y-30743257D01*
X133421485Y-30886114D01*
X133350057Y-30957542D01*
X133207200Y-31028971D01*
X132635771Y-31028971D01*
X132635771Y-29528971D01*
X133135771Y-29528971D01*
X133278628Y-29600400D01*
X133350057Y-29671828D01*
X133421485Y-29814685D01*
X133421485Y-29957542D01*
X133350057Y-30100400D01*
X133278628Y-30171828D01*
X133135771Y-30243257D01*
X132635771Y-30243257D01*
X134350057Y-31028971D02*
X134207200Y-30957542D01*
X134135771Y-30886114D01*
X134064342Y-30743257D01*
X134064342Y-30314685D01*
X134135771Y-30171828D01*
X134207200Y-30100400D01*
X134350057Y-30028971D01*
X134564342Y-30028971D01*
X134707200Y-30100400D01*
X134778628Y-30171828D01*
X134850057Y-30314685D01*
X134850057Y-30743257D01*
X134778628Y-30886114D01*
X134707200Y-30957542D01*
X134564342Y-31028971D01*
X134350057Y-31028971D01*
X136135771Y-31028971D02*
X136135771Y-30243257D01*
X136064342Y-30100400D01*
X135921485Y-30028971D01*
X135635771Y-30028971D01*
X135492914Y-30100400D01*
X136135771Y-30957542D02*
X135992914Y-31028971D01*
X135635771Y-31028971D01*
X135492914Y-30957542D01*
X135421485Y-30814685D01*
X135421485Y-30671828D01*
X135492914Y-30528971D01*
X135635771Y-30457542D01*
X135992914Y-30457542D01*
X136135771Y-30386114D01*
X136850057Y-31028971D02*
X136850057Y-30028971D01*
X136850057Y-30314685D02*
X136921485Y-30171828D01*
X136992914Y-30100400D01*
X137135771Y-30028971D01*
X137278628Y-30028971D01*
X138421485Y-31028971D02*
X138421485Y-29528971D01*
X138421485Y-30957542D02*
X138278628Y-31028971D01*
X137992914Y-31028971D01*
X137850057Y-30957542D01*
X137778628Y-30886114D01*
X137707200Y-30743257D01*
X137707200Y-30314685D01*
X137778628Y-30171828D01*
X137850057Y-30100400D01*
X137992914Y-30028971D01*
X138278628Y-30028971D01*
X138421485Y-30100400D01*
X106921485Y-33578971D02*
X106421485Y-32864685D01*
X106064342Y-33578971D02*
X106064342Y-32078971D01*
X106635771Y-32078971D01*
X106778628Y-32150400D01*
X106850057Y-32221828D01*
X106921485Y-32364685D01*
X106921485Y-32578971D01*
X106850057Y-32721828D01*
X106778628Y-32793257D01*
X106635771Y-32864685D01*
X106064342Y-32864685D01*
X108135771Y-33507542D02*
X107992914Y-33578971D01*
X107707200Y-33578971D01*
X107564342Y-33507542D01*
X107492914Y-33364685D01*
X107492914Y-32793257D01*
X107564342Y-32650400D01*
X107707200Y-32578971D01*
X107992914Y-32578971D01*
X108135771Y-32650400D01*
X108207200Y-32793257D01*
X108207200Y-32936114D01*
X107492914Y-33078971D01*
X108707200Y-32578971D02*
X109064342Y-33578971D01*
X109421485Y-32578971D01*
X109992914Y-33436114D02*
X110064342Y-33507542D01*
X109992914Y-33578971D01*
X109921485Y-33507542D01*
X109992914Y-33436114D01*
X109992914Y-33578971D01*
X110707200Y-33436114D02*
X110778628Y-33507542D01*
X110707200Y-33578971D01*
X110635771Y-33507542D01*
X110707200Y-33436114D01*
X110707200Y-33578971D01*
X110707200Y-32650400D02*
X110778628Y-32721828D01*
X110707200Y-32793257D01*
X110635771Y-32721828D01*
X110707200Y-32650400D01*
X110707200Y-32793257D01*
X112492914Y-32221828D02*
X112564342Y-32150400D01*
X112707200Y-32078971D01*
X113064342Y-32078971D01*
X113207200Y-32150400D01*
X113278628Y-32221828D01*
X113350057Y-32364685D01*
X113350057Y-32507542D01*
X113278628Y-32721828D01*
X112421485Y-33578971D01*
X113350057Y-33578971D01*
X114278628Y-32078971D02*
X114421485Y-32078971D01*
X114564342Y-32150400D01*
X114635771Y-32221828D01*
X114707200Y-32364685D01*
X114778628Y-32650400D01*
X114778628Y-33007542D01*
X114707200Y-33293257D01*
X114635771Y-33436114D01*
X114564342Y-33507542D01*
X114421485Y-33578971D01*
X114278628Y-33578971D01*
X114135771Y-33507542D01*
X114064342Y-33436114D01*
X113992914Y-33293257D01*
X113921485Y-33007542D01*
X113921485Y-32650400D01*
X113992914Y-32364685D01*
X114064342Y-32221828D01*
X114135771Y-32150400D01*
X114278628Y-32078971D01*
X116207200Y-33578971D02*
X115350057Y-33578971D01*
X115778628Y-33578971D02*
X115778628Y-32078971D01*
X115635771Y-32293257D01*
X115492914Y-32436114D01*
X115350057Y-32507542D01*
X116921485Y-33578971D02*
X117207200Y-33578971D01*
X117350057Y-33507542D01*
X117421485Y-33436114D01*
X117564342Y-33221828D01*
X117635771Y-32936114D01*
X117635771Y-32364685D01*
X117564342Y-32221828D01*
X117492914Y-32150400D01*
X117350057Y-32078971D01*
X117064342Y-32078971D01*
X116921485Y-32150400D01*
X116850057Y-32221828D01*
X116778628Y-32364685D01*
X116778628Y-32721828D01*
X116850057Y-32864685D01*
X116921485Y-32936114D01*
X117064342Y-33007542D01*
X117350057Y-33007542D01*
X117492914Y-32936114D01*
X117564342Y-32864685D01*
X117635771Y-32721828D01*
X118278628Y-33436114D02*
X118350057Y-33507542D01*
X118278628Y-33578971D01*
X118207200Y-33507542D01*
X118278628Y-33436114D01*
X118278628Y-33578971D01*
X119278628Y-32078971D02*
X119421485Y-32078971D01*
X119564342Y-32150400D01*
X119635771Y-32221828D01*
X119707200Y-32364685D01*
X119778628Y-32650400D01*
X119778628Y-33007542D01*
X119707200Y-33293257D01*
X119635771Y-33436114D01*
X119564342Y-33507542D01*
X119421485Y-33578971D01*
X119278628Y-33578971D01*
X119135771Y-33507542D01*
X119064342Y-33436114D01*
X118992914Y-33293257D01*
X118921485Y-33007542D01*
X118921485Y-32650400D01*
X118992914Y-32364685D01*
X119064342Y-32221828D01*
X119135771Y-32150400D01*
X119278628Y-32078971D01*
X121064342Y-32578971D02*
X121064342Y-33578971D01*
X120707200Y-32007542D02*
X120350057Y-33078971D01*
X121278628Y-33078971D01*
X121850057Y-33436114D02*
X121921485Y-33507542D01*
X121850057Y-33578971D01*
X121778628Y-33507542D01*
X121850057Y-33436114D01*
X121850057Y-33578971D01*
X123350057Y-33578971D02*
X122492914Y-33578971D01*
X122921485Y-33578971D02*
X122921485Y-32078971D01*
X122778628Y-32293257D01*
X122635771Y-32436114D01*
X122492914Y-32507542D01*
X124707200Y-32078971D02*
X123992914Y-32078971D01*
X123921485Y-32793257D01*
X123992914Y-32721828D01*
X124135771Y-32650400D01*
X124492914Y-32650400D01*
X124635771Y-32721828D01*
X124707200Y-32793257D01*
X124778628Y-32936114D01*
X124778628Y-33293257D01*
X124707200Y-33436114D01*
X124635771Y-33507542D01*
X124492914Y-33578971D01*
X124135771Y-33578971D01*
X123992914Y-33507542D01*
X123921485Y-33436114D01*
D11*
G04 #@! TO.C,C1*
X6002540Y-5140400D02*
X6702540Y-5140400D01*
X6702540Y-6340400D02*
X6002540Y-6340400D01*
G04 #@! TO.C,C3*
X24417100Y-6614900D02*
X23717100Y-6614900D01*
X23717100Y-5414900D02*
X24417100Y-5414900D01*
G04 #@! TO.C,C4*
X22225600Y-617400D02*
X22225600Y-2141400D01*
X22352600Y-2522400D02*
X22352600Y-236400D01*
X22479600Y17600D02*
X22479600Y-2776400D01*
X22606600Y-3030400D02*
X22606600Y271600D01*
X22733600Y398600D02*
X22733600Y-3157400D01*
X28194600Y-1379400D02*
G75*
G03X28194600Y-1379400I-3048000J0D01*
G01*
X21844600Y1922600D02*
X21844600Y-4681400D01*
X21844600Y-4681400D02*
X27686600Y-4681400D01*
X27686600Y-4681400D02*
X28448600Y-3919400D01*
X28448600Y-3919400D02*
X28448600Y1160600D01*
X28448600Y1160600D02*
X27686600Y1922600D01*
X27686600Y1922600D02*
X21844600Y1922600D01*
X27305600Y-1379400D02*
X26543600Y-1379400D01*
X26924600Y-998400D02*
X26924600Y-1760400D01*
G04 #@! TO.C,C21*
X116039600Y-54901900D02*
X116039600Y-53901900D01*
X114339600Y-53901900D02*
X114339600Y-54901900D01*
G04 #@! TO.C,C22*
X116498600Y-53901900D02*
X116498600Y-54901900D01*
X118198600Y-54901900D02*
X118198600Y-53901900D01*
G04 #@! TO.C,C37*
X129452600Y-53901900D02*
X129452600Y-54901900D01*
X131152600Y-54901900D02*
X131152600Y-53901900D01*
G04 #@! TO.C,C35*
X120816600Y-53901900D02*
X120816600Y-54901900D01*
X122516600Y-54901900D02*
X122516600Y-53901900D01*
G04 #@! TO.C,C23*
X118657600Y-53901900D02*
X118657600Y-54901900D01*
X120357600Y-54901900D02*
X120357600Y-53901900D01*
G04 #@! TO.C,C33*
X122975600Y-53901900D02*
X122975600Y-54901900D01*
X124675600Y-54901900D02*
X124675600Y-53901900D01*
G04 #@! TO.C,C31*
X125134600Y-53901900D02*
X125134600Y-54901900D01*
X126834600Y-54901900D02*
X126834600Y-53901900D01*
G04 #@! TO.C,C29*
X127293600Y-53901900D02*
X127293600Y-54901900D01*
X128993600Y-54901900D02*
X128993600Y-53901900D01*
G04 #@! TO.C,C27*
X112180600Y-53901900D02*
X112180600Y-54901900D01*
X113880600Y-54901900D02*
X113880600Y-53901900D01*
G04 #@! TO.C,C24*
X39839600Y-54901900D02*
X39839600Y-53901900D01*
X38139600Y-53901900D02*
X38139600Y-54901900D01*
G04 #@! TO.C,C25*
X40298600Y-53901900D02*
X40298600Y-54901900D01*
X41998600Y-54901900D02*
X41998600Y-53901900D01*
G04 #@! TO.C,C38*
X53252600Y-53901900D02*
X53252600Y-54901900D01*
X54952600Y-54901900D02*
X54952600Y-53901900D01*
G04 #@! TO.C,C36*
X44616600Y-53901900D02*
X44616600Y-54901900D01*
X46316600Y-54901900D02*
X46316600Y-53901900D01*
G04 #@! TO.C,C26*
X42457600Y-53901900D02*
X42457600Y-54901900D01*
X44157600Y-54901900D02*
X44157600Y-53901900D01*
G04 #@! TO.C,C34*
X46775600Y-53901900D02*
X46775600Y-54901900D01*
X48475600Y-54901900D02*
X48475600Y-53901900D01*
G04 #@! TO.C,C32*
X48934600Y-53901900D02*
X48934600Y-54901900D01*
X50634600Y-54901900D02*
X50634600Y-53901900D01*
G04 #@! TO.C,C30*
X51093600Y-53901900D02*
X51093600Y-54901900D01*
X52793600Y-54901900D02*
X52793600Y-53901900D01*
G04 #@! TO.C,C28*
X35980600Y-53901900D02*
X35980600Y-54901900D01*
X37680600Y-54901900D02*
X37680600Y-53901900D01*
G04 #@! TO.C,C9*
X76800600Y-31382400D02*
X76800600Y-32082400D01*
X75600600Y-32082400D02*
X75600600Y-31382400D01*
G04 #@! TO.C,C11*
X90697600Y-18686400D02*
X91397600Y-18686400D01*
X91397600Y-19886400D02*
X90697600Y-19886400D01*
G04 #@! TO.C,C12*
X77632600Y-12333900D02*
X77632600Y-11633900D01*
X78832600Y-11633900D02*
X78832600Y-12333900D01*
G04 #@! TO.C,C13*
X82345000Y-12321200D02*
X82345000Y-11621200D01*
X83545000Y-11621200D02*
X83545000Y-12321200D01*
G04 #@! TO.C,C14*
X83531600Y-30937900D02*
X83531600Y-31637900D01*
X82331600Y-31637900D02*
X82331600Y-30937900D01*
G04 #@! TO.C,C7*
X67402600Y-21666900D02*
X67402600Y-22366900D01*
X66202600Y-22366900D02*
X66202600Y-21666900D01*
G04 #@! TO.C,C8*
X66202600Y-30558400D02*
X66202600Y-29858400D01*
X67402600Y-29858400D02*
X67402600Y-30558400D01*
G04 #@! TO.C,C39*
X118018600Y-10390800D02*
X118018600Y-9690800D01*
X119218600Y-9690800D02*
X119218600Y-10390800D01*
G04 #@! TO.C,C41*
X41767800Y-10390800D02*
X41767800Y-9690800D01*
X42967800Y-9690800D02*
X42967800Y-10390800D01*
G04 #@! TO.C,C40*
X120025200Y-10390800D02*
X120025200Y-9690800D01*
X121225200Y-9690800D02*
X121225200Y-10390800D01*
G04 #@! TO.C,C42*
X43774400Y-10390800D02*
X43774400Y-9690800D01*
X44974400Y-9690800D02*
X44974400Y-10390800D01*
G04 #@! TO.C,P5*
X137994600Y-50510400D02*
X140444600Y-50510400D01*
X131844600Y-50510400D02*
X134294600Y-50510400D01*
X131844600Y-41910400D02*
X131844600Y-50510400D01*
X131844600Y-41910400D02*
X140444600Y-41910400D01*
X140444600Y-41910400D02*
X140444600Y-50510400D01*
G04 #@! TO.C,P6*
X61794600Y-50510400D02*
X64244600Y-50510400D01*
X55644600Y-50510400D02*
X58094600Y-50510400D01*
X55644600Y-41910400D02*
X55644600Y-50510400D01*
X55644600Y-41910400D02*
X64244600Y-41910400D01*
X64244600Y-41910400D02*
X64244600Y-50510400D01*
G04 #@! TO.C,P2*
X76048100Y-8495900D02*
X76048100Y-7695900D01*
X69398100Y-8495900D02*
X76048100Y-8495900D01*
X69398100Y-8495900D02*
X69398100Y-5545900D01*
X69398100Y-5545900D02*
X73948100Y-5545900D01*
X76048100Y-6895900D02*
X76048100Y-5545900D01*
X76048100Y-5545900D02*
X74748100Y-5545900D01*
G04 #@! TO.C,Q2*
X141362480Y-48668940D02*
X141410740Y-48668940D01*
X144161460Y-47967900D02*
X144161460Y-48668940D01*
X144161460Y-48668940D02*
X143912540Y-48668940D01*
X141362480Y-48668940D02*
X141161820Y-48668940D01*
X141161820Y-48668940D02*
X141161820Y-47967900D01*
G04 #@! TO.C,Q3*
X65175180Y-48681640D02*
X65223440Y-48681640D01*
X67974160Y-47980600D02*
X67974160Y-48681640D01*
X67974160Y-48681640D02*
X67725240Y-48681640D01*
X65175180Y-48681640D02*
X64974520Y-48681640D01*
X64974520Y-48681640D02*
X64974520Y-47980600D01*
G04 #@! TO.C,R13*
X143352140Y-46090200D02*
X142352140Y-46090200D01*
X142352140Y-44740200D02*
X143352140Y-44740200D01*
G04 #@! TO.C,R14*
X67164840Y-46090200D02*
X66164840Y-46090200D01*
X66164840Y-44740200D02*
X67164840Y-44740200D01*
G04 #@! TO.C,R12*
X97068600Y-25136400D02*
X97068600Y-26136400D01*
X95718600Y-26136400D02*
X95718600Y-25136400D01*
G04 #@! TO.C,R5*
X77129600Y-11674400D02*
X77129600Y-12674400D01*
X75779600Y-12674400D02*
X75779600Y-11674400D01*
G04 #@! TO.C,R7*
X75097600Y-11674400D02*
X75097600Y-12674400D01*
X73747600Y-12674400D02*
X73747600Y-11674400D01*
G04 #@! TO.C,R10*
X73129100Y-11674400D02*
X73129100Y-12674400D01*
X71779100Y-12674400D02*
X71779100Y-11674400D01*
G04 #@! TO.C,R8*
X70779600Y-11674400D02*
X70779600Y-12674400D01*
X69429600Y-12674400D02*
X69429600Y-11674400D01*
G04 #@! TO.C,R15*
X86210100Y-34978900D02*
X86210100Y-35978900D01*
X84860100Y-35978900D02*
X84860100Y-34978900D01*
G04 #@! TO.C,R17*
X113045200Y-117400D02*
X113045200Y-1117400D01*
X111695200Y-1117400D02*
X111695200Y-117400D01*
G04 #@! TO.C,R22*
X36794400Y-117400D02*
X36794400Y-1117400D01*
X35444400Y-1117400D02*
X35444400Y-117400D01*
G04 #@! TO.C,R18*
X116883400Y-9877600D02*
X115883400Y-9877600D01*
X115883400Y-8527600D02*
X116883400Y-8527600D01*
G04 #@! TO.C,R23*
X40632600Y-9877600D02*
X39632600Y-9877600D01*
X39632600Y-8527600D02*
X40632600Y-8527600D01*
G04 #@! TO.C,R20*
X115883400Y-10254800D02*
X116883400Y-10254800D01*
X116883400Y-11604800D02*
X115883400Y-11604800D01*
G04 #@! TO.C,R25*
X39632600Y-10254800D02*
X40632600Y-10254800D01*
X40632600Y-11604800D02*
X39632600Y-11604800D01*
G04 #@! TO.C,R16*
X84432100Y-34978900D02*
X84432100Y-35978900D01*
X83082100Y-35978900D02*
X83082100Y-34978900D01*
G04 #@! TO.C,R19*
X122360400Y-8527600D02*
X123360400Y-8527600D01*
X123360400Y-9877600D02*
X122360400Y-9877600D01*
G04 #@! TO.C,R24*
X46109600Y-8527600D02*
X47109600Y-8527600D01*
X47109600Y-9877600D02*
X46109600Y-9877600D01*
G04 #@! TO.C,R21*
X123360400Y-11604800D02*
X122360400Y-11604800D01*
X122360400Y-10254800D02*
X123360400Y-10254800D01*
G04 #@! TO.C,R26*
X47109600Y-11604800D02*
X46109600Y-11604800D01*
X46109600Y-10254800D02*
X47109600Y-10254800D01*
G04 #@! TO.C,SW1*
X63542600Y-24894400D02*
X63542600Y-27394400D01*
X63542600Y-27394400D02*
X62442600Y-27394400D01*
X62442600Y-27394400D02*
X62442600Y-24894400D01*
X62442600Y-24894400D02*
X63542600Y-24894400D01*
X62192600Y-24644400D02*
X62192600Y-27644400D01*
X63792600Y-24644400D02*
X63792600Y-27644400D01*
X63792600Y-27644400D02*
X62192600Y-27644400D01*
X63792600Y-24644400D02*
X62192600Y-24644400D01*
X61242600Y-23144400D02*
X61242600Y-29144400D01*
X64742600Y-23144400D02*
X64742600Y-29144400D01*
X64742600Y-23144400D02*
X61242600Y-23144400D01*
X64742600Y-29144400D02*
X61242600Y-29144400D01*
G04 #@! TO.C,U2*
X20765100Y-10459900D02*
X20765100Y-7284900D01*
X20765100Y-7284900D02*
X18987100Y-7284900D01*
X18987100Y-7284900D02*
X18987100Y-10459900D01*
X25337100Y-10459900D02*
X25337100Y-7284900D01*
X25337100Y-7284900D02*
X23559100Y-7284900D01*
X23559100Y-7284900D02*
X23559100Y-10459900D01*
X18733100Y-16555900D02*
X18733100Y-10459900D01*
X18733100Y-10459900D02*
X25591100Y-10459900D01*
X25591100Y-10459900D02*
X25591100Y-18333900D01*
X25591100Y-18460900D02*
X18733100Y-18460900D01*
X18733100Y-18333900D02*
X18733100Y-16555900D01*
G04 #@! TO.C,U4*
X75384200Y-15472800D02*
X75384200Y-16482800D01*
X87634200Y-15472800D02*
X87634200Y-16482800D01*
X87634200Y-27722800D02*
X87634200Y-26712800D01*
X75384200Y-27722800D02*
X75384200Y-26712800D01*
X75384200Y-15472800D02*
X76394200Y-15472800D01*
X75384200Y-27722800D02*
X76394200Y-27722800D01*
X87634200Y-27722800D02*
X86624200Y-27722800D01*
X87634200Y-15472800D02*
X86624200Y-15472800D01*
X75384200Y-16482800D02*
X73859200Y-16482800D01*
G04 #@! TO.C,U5*
X146800800Y-37901200D02*
X146800800Y-37576200D01*
X142150800Y-37901200D02*
X142150800Y-37576200D01*
X142150800Y-27951200D02*
X142150800Y-28276200D01*
X146800800Y-27951200D02*
X146800800Y-28276200D01*
X146800800Y-37901200D02*
X142150800Y-37901200D01*
X146800800Y-27951200D02*
X142150800Y-27951200D01*
X146800800Y-37576200D02*
X147875800Y-37576200D01*
G04 #@! TO.C,Y1*
X67846540Y-20231280D02*
X67846540Y-31930520D01*
X72845260Y-31930520D02*
X72845260Y-20231280D01*
X67846540Y-31930520D02*
X68694900Y-31930520D01*
X72845260Y-31930520D02*
X71996900Y-31930520D01*
X67846540Y-20231280D02*
X68694900Y-20231280D01*
X72845260Y-20231280D02*
X71996900Y-20231280D01*
G04 #@! TO.C,P7*
X93377100Y-36147400D02*
X91827100Y-36147400D01*
X93377100Y-37447400D02*
X93377100Y-36147400D01*
X91954100Y-41638400D02*
X91954100Y-47480400D01*
X91954100Y-47480400D02*
X91700100Y-47480400D01*
X91700100Y-47480400D02*
X91700100Y-41638400D01*
X91700100Y-41638400D02*
X91827100Y-41638400D01*
X91827100Y-41638400D02*
X91827100Y-47480400D01*
X92081100Y-38971400D02*
X92081100Y-38590400D01*
X91573100Y-38971400D02*
X91573100Y-38590400D01*
X89541100Y-38971400D02*
X89541100Y-38590400D01*
X89033100Y-38971400D02*
X89033100Y-38590400D01*
X93097100Y-38971400D02*
X93097100Y-41511400D01*
X90557100Y-38971400D02*
X90557100Y-41511400D01*
X90557100Y-38971400D02*
X88017100Y-38971400D01*
X88017100Y-38971400D02*
X88017100Y-41511400D01*
X89541100Y-41511400D02*
X89541100Y-47607400D01*
X89541100Y-47607400D02*
X89033100Y-47607400D01*
X89033100Y-47607400D02*
X89033100Y-41511400D01*
X88017100Y-41511400D02*
X90557100Y-41511400D01*
X90557100Y-41511400D02*
X93097100Y-41511400D01*
X91573100Y-47607400D02*
X91573100Y-41511400D01*
X92081100Y-47607400D02*
X91573100Y-47607400D01*
X92081100Y-41511400D02*
X92081100Y-47607400D01*
X90557100Y-38971400D02*
X90557100Y-41511400D01*
X93097100Y-38971400D02*
X90557100Y-38971400D01*
G04 #@! TO.C,P8*
X75216100Y-36147400D02*
X73666100Y-36147400D01*
X75216100Y-37447400D02*
X75216100Y-36147400D01*
X73793100Y-41638400D02*
X73793100Y-47480400D01*
X73793100Y-47480400D02*
X73539100Y-47480400D01*
X73539100Y-47480400D02*
X73539100Y-41638400D01*
X73539100Y-41638400D02*
X73666100Y-41638400D01*
X73666100Y-41638400D02*
X73666100Y-47480400D01*
X73920100Y-38971400D02*
X73920100Y-38590400D01*
X73412100Y-38971400D02*
X73412100Y-38590400D01*
X71380100Y-38971400D02*
X71380100Y-38590400D01*
X70872100Y-38971400D02*
X70872100Y-38590400D01*
X74936100Y-38971400D02*
X74936100Y-41511400D01*
X72396100Y-38971400D02*
X72396100Y-41511400D01*
X72396100Y-38971400D02*
X69856100Y-38971400D01*
X69856100Y-38971400D02*
X69856100Y-41511400D01*
X71380100Y-41511400D02*
X71380100Y-47607400D01*
X71380100Y-47607400D02*
X70872100Y-47607400D01*
X70872100Y-47607400D02*
X70872100Y-41511400D01*
X69856100Y-41511400D02*
X72396100Y-41511400D01*
X72396100Y-41511400D02*
X74936100Y-41511400D01*
X73412100Y-47607400D02*
X73412100Y-41511400D01*
X73920100Y-47607400D02*
X73412100Y-47607400D01*
X73920100Y-41511400D02*
X73920100Y-47607400D01*
X72396100Y-38971400D02*
X72396100Y-41511400D01*
X74936100Y-38971400D02*
X72396100Y-38971400D01*
G04 #@! TO.C,C2*
X19265340Y-5531600D02*
X19265340Y-4831600D01*
X20465340Y-4831600D02*
X20465340Y-5531600D01*
G04 #@! TO.C,C5*
X66620100Y-15754900D02*
X67620100Y-15754900D01*
X67620100Y-14054900D02*
X66620100Y-14054900D01*
G04 #@! TO.C,C6*
X66513600Y-25794400D02*
X66513600Y-26494400D01*
X65313600Y-26494400D02*
X65313600Y-25794400D01*
G04 #@! TO.C,D1*
X62996600Y-12872900D02*
X62746600Y-12872900D01*
X63496600Y-12872900D02*
X63746600Y-12872900D01*
X63496600Y-12872900D02*
X62996600Y-13222900D01*
X62996600Y-13222900D02*
X62996600Y-12522900D01*
X62996600Y-12522900D02*
X63496600Y-12872900D01*
X63496600Y-13222900D02*
X63496600Y-12522900D01*
X64546600Y-12072900D02*
X62146600Y-12072900D01*
X64546600Y-13672900D02*
X62146600Y-13672900D01*
G04 #@! TO.C,D2*
X70155400Y-16437600D02*
X70155400Y-16687600D01*
X70155400Y-15937600D02*
X70155400Y-15687600D01*
X70155400Y-15937600D02*
X70505400Y-16437600D01*
X70505400Y-16437600D02*
X69805400Y-16437600D01*
X69805400Y-16437600D02*
X70155400Y-15937600D01*
X70505400Y-15937600D02*
X69805400Y-15937600D01*
X69355400Y-14887600D02*
X69355400Y-17287600D01*
X70955400Y-14887600D02*
X70955400Y-17287600D01*
G04 #@! TO.C,D3*
X63250600Y-18841900D02*
X63000600Y-18841900D01*
X63750600Y-18841900D02*
X64000600Y-18841900D01*
X63750600Y-18841900D02*
X63250600Y-19191900D01*
X63250600Y-19191900D02*
X63250600Y-18491900D01*
X63250600Y-18491900D02*
X63750600Y-18841900D01*
X63750600Y-19191900D02*
X63750600Y-18491900D01*
X64800600Y-18041900D02*
X62400600Y-18041900D01*
X64800600Y-19641900D02*
X62400600Y-19641900D01*
G04 #@! TO.C,Q1*
X92873860Y-24972240D02*
X92873860Y-25020500D01*
X93574900Y-27771220D02*
X92873860Y-27771220D01*
X92873860Y-27771220D02*
X92873860Y-27522300D01*
X92873860Y-24972240D02*
X92873860Y-24771580D01*
X92873860Y-24771580D02*
X93574900Y-24771580D01*
G04 #@! TO.C,R1*
X66112100Y-12197900D02*
X67112100Y-12197900D01*
X67112100Y-13547900D02*
X66112100Y-13547900D01*
G04 #@! TO.C,R2*
X66112100Y-16261900D02*
X67112100Y-16261900D01*
X67112100Y-17611900D02*
X66112100Y-17611900D01*
G04 #@! TO.C,R3*
X67112100Y-19453400D02*
X66112100Y-19453400D01*
X66112100Y-18103400D02*
X67112100Y-18103400D01*
G04 #@! TO.C,R4*
X159616100Y-6467400D02*
X159616100Y-7467400D01*
X158266100Y-7467400D02*
X158266100Y-6467400D01*
G04 #@! TO.C,R6*
X157088800Y-6467400D02*
X157088800Y-7467400D01*
X155738800Y-7467400D02*
X155738800Y-6467400D01*
G04 #@! TO.C,R9*
X153939200Y-6467400D02*
X153939200Y-7467400D01*
X152589200Y-7467400D02*
X152589200Y-6467400D01*
G04 #@! TO.C,R11*
X60095100Y-18579900D02*
X60095100Y-17579900D01*
X61445100Y-17579900D02*
X61445100Y-18579900D01*
G04 #@! TO.C,U1*
X4953600Y-10459900D02*
X4953600Y-7284900D01*
X4953600Y-7284900D02*
X3175600Y-7284900D01*
X3175600Y-7284900D02*
X3175600Y-10459900D01*
X9525600Y-10459900D02*
X9525600Y-7284900D01*
X9525600Y-7284900D02*
X7747600Y-7284900D01*
X7747600Y-7284900D02*
X7747600Y-10459900D01*
X2921600Y-16555900D02*
X2921600Y-10459900D01*
X2921600Y-10459900D02*
X9779600Y-10459900D01*
X9779600Y-10459900D02*
X9779600Y-18333900D01*
X9779600Y-18460900D02*
X2921600Y-18460900D01*
X2921600Y-18333900D02*
X2921600Y-16555900D01*
G04 #@! TO.C,U3*
X61773600Y-16157400D02*
G75*
G03X61773600Y-16157400I-100000J0D01*
G01*
X61923600Y-15607400D02*
X61923600Y-16107400D01*
X64823600Y-15607400D02*
X61923600Y-15607400D01*
X64823600Y-16107400D02*
X64823600Y-15607400D01*
X61923600Y-16107400D02*
X64823600Y-16107400D01*
G04 #@! TO.C,P4*
X134562600Y-1760400D02*
X134562600Y-2268400D01*
X135070600Y-1760400D02*
X135070600Y-2268400D01*
X157930600Y-1760400D02*
X157930600Y-2268400D01*
X157422600Y-1760400D02*
X157422600Y-2268400D01*
X152342600Y-1760400D02*
X152342600Y-2268400D01*
X152850600Y-1760400D02*
X152850600Y-2268400D01*
X154882600Y-1760400D02*
X154882600Y-2268400D01*
X155390600Y-1760400D02*
X155390600Y-2268400D01*
X150310600Y-1760400D02*
X150310600Y-2268400D01*
X149802600Y-1760400D02*
X149802600Y-2268400D01*
X147770600Y-1760400D02*
X147770600Y-2268400D01*
X147262600Y-1760400D02*
X147262600Y-2268400D01*
X137102600Y-1760400D02*
X137102600Y-2268400D01*
X137610600Y-1760400D02*
X137610600Y-2268400D01*
X139642600Y-1760400D02*
X139642600Y-2268400D01*
X140150600Y-1760400D02*
X140150600Y-2268400D01*
X145230600Y-1760400D02*
X145230600Y-2268400D01*
X144722600Y-1760400D02*
X144722600Y-2268400D01*
X142690600Y-1760400D02*
X142690600Y-2268400D01*
X142182600Y-1760400D02*
X142182600Y-2268400D01*
X157930600Y779600D02*
X157930600Y271600D01*
X157422600Y779600D02*
X157422600Y271600D01*
X155390600Y779600D02*
X155390600Y271600D01*
X154882600Y779600D02*
X154882600Y271600D01*
X149802600Y779600D02*
X149802600Y271600D01*
X150310600Y779600D02*
X150310600Y271600D01*
X152342600Y779600D02*
X152342600Y271600D01*
X152850600Y779600D02*
X152850600Y271600D01*
X147770600Y779600D02*
X147770600Y271600D01*
X147262600Y779600D02*
X147262600Y271600D01*
X145230600Y779600D02*
X145230600Y271600D01*
X144722600Y779600D02*
X144722600Y271600D01*
X134562600Y779600D02*
X134562600Y271600D01*
X135070600Y779600D02*
X135070600Y271600D01*
X137102600Y779600D02*
X137102600Y271600D01*
X137610600Y779600D02*
X137610600Y271600D01*
X142690600Y779600D02*
X142690600Y271600D01*
X142182600Y779600D02*
X142182600Y271600D01*
X140150600Y779600D02*
X140150600Y271600D01*
X139642600Y779600D02*
X139642600Y271600D01*
X133266600Y-3284400D02*
X133266600Y-4434400D01*
X133266600Y-4434400D02*
X134816600Y-4434400D01*
X134689600Y3319600D02*
X134689600Y9288600D01*
X134689600Y9288600D02*
X134943600Y9288600D01*
X134943600Y9288600D02*
X134943600Y3446600D01*
X134943600Y3446600D02*
X134816600Y3446600D01*
X134816600Y3446600D02*
X134816600Y9288600D01*
X153866600Y779600D02*
X153866600Y3319600D01*
X153866600Y779600D02*
X156406600Y779600D01*
X156406600Y779600D02*
X156406600Y3319600D01*
X154882600Y3319600D02*
X154882600Y9415600D01*
X154882600Y9415600D02*
X155390600Y9415600D01*
X155390600Y9415600D02*
X155390600Y3319600D01*
X156406600Y3319600D02*
X153866600Y3319600D01*
X158946600Y3319600D02*
X156406600Y3319600D01*
X157930600Y9415600D02*
X157930600Y3319600D01*
X157422600Y9415600D02*
X157930600Y9415600D01*
X157422600Y3319600D02*
X157422600Y9415600D01*
X156406600Y779600D02*
X158946600Y779600D01*
X156406600Y779600D02*
X156406600Y3319600D01*
X158946600Y779600D02*
X158946600Y3319600D01*
X143706600Y779600D02*
X143706600Y3319600D01*
X143706600Y779600D02*
X146246600Y779600D01*
X146246600Y779600D02*
X146246600Y3319600D01*
X144722600Y3319600D02*
X144722600Y9415600D01*
X144722600Y9415600D02*
X145230600Y9415600D01*
X145230600Y9415600D02*
X145230600Y3319600D01*
X146246600Y3319600D02*
X143706600Y3319600D01*
X148786600Y3319600D02*
X146246600Y3319600D01*
X147770600Y9415600D02*
X147770600Y3319600D01*
X147262600Y9415600D02*
X147770600Y9415600D01*
X147262600Y3319600D02*
X147262600Y9415600D01*
X148786600Y779600D02*
X148786600Y3319600D01*
X146246600Y779600D02*
X148786600Y779600D01*
X146246600Y779600D02*
X146246600Y3319600D01*
X151326600Y779600D02*
X151326600Y3319600D01*
X151326600Y779600D02*
X153866600Y779600D01*
X153866600Y779600D02*
X153866600Y3319600D01*
X152342600Y3319600D02*
X152342600Y9415600D01*
X152342600Y9415600D02*
X152850600Y9415600D01*
X152850600Y9415600D02*
X152850600Y3319600D01*
X153866600Y3319600D02*
X151326600Y3319600D01*
X151326600Y3319600D02*
X148786600Y3319600D01*
X150310600Y9415600D02*
X150310600Y3319600D01*
X149802600Y9415600D02*
X150310600Y9415600D01*
X149802600Y3319600D02*
X149802600Y9415600D01*
X151326600Y779600D02*
X151326600Y3319600D01*
X148786600Y779600D02*
X151326600Y779600D01*
X148786600Y779600D02*
X148786600Y3319600D01*
X138626600Y779600D02*
X138626600Y3319600D01*
X138626600Y779600D02*
X141166600Y779600D01*
X141166600Y779600D02*
X141166600Y3319600D01*
X139642600Y3319600D02*
X139642600Y9415600D01*
X139642600Y9415600D02*
X140150600Y9415600D01*
X140150600Y9415600D02*
X140150600Y3319600D01*
X141166600Y3319600D02*
X138626600Y3319600D01*
X143706600Y3319600D02*
X141166600Y3319600D01*
X142690600Y9415600D02*
X142690600Y3319600D01*
X142182600Y9415600D02*
X142690600Y9415600D01*
X142182600Y3319600D02*
X142182600Y9415600D01*
X143706600Y779600D02*
X143706600Y3319600D01*
X141166600Y779600D02*
X143706600Y779600D01*
X141166600Y779600D02*
X141166600Y3319600D01*
X136086600Y779600D02*
X136086600Y3319600D01*
X136086600Y779600D02*
X138626600Y779600D01*
X138626600Y779600D02*
X138626600Y3319600D01*
X137102600Y3319600D02*
X137102600Y9415600D01*
X137102600Y9415600D02*
X137610600Y9415600D01*
X137610600Y9415600D02*
X137610600Y3319600D01*
X138626600Y3319600D02*
X136086600Y3319600D01*
X136086600Y3319600D02*
X133546600Y3319600D01*
X135070600Y9415600D02*
X135070600Y3319600D01*
X134562600Y9415600D02*
X135070600Y9415600D01*
X134562600Y3319600D02*
X134562600Y9415600D01*
X136086600Y779600D02*
X136086600Y3319600D01*
X133546600Y779600D02*
X136086600Y779600D01*
X133546600Y779600D02*
X133546600Y3319600D01*
G04 #@! TO.C,GLCD1*
X108634600Y-49499900D02*
X108634600Y-44499900D01*
X130634600Y-44499900D02*
X108634600Y-44499900D01*
X130634600Y-49499900D02*
X130634600Y-44499900D01*
X130634600Y-49499900D02*
X108634600Y-49499900D01*
G04 #@! TO.C,GLCD2*
X32434600Y-49499900D02*
X32434600Y-44499900D01*
X54434600Y-44499900D02*
X32434600Y-44499900D01*
X54434600Y-49499900D02*
X54434600Y-44499900D01*
X54434600Y-49499900D02*
X32434600Y-49499900D01*
G04 #@! TO.C,R45*
X133546540Y-52734200D02*
X138746540Y-52734200D01*
X138746540Y-56384200D02*
X133546540Y-56384200D01*
G04 #@! TO.C,R46*
X57346540Y-52734200D02*
X62546540Y-52734200D01*
X62546540Y-56384200D02*
X57346540Y-56384200D01*
G04 #@! TO.C,P1*
X10495740Y4628000D02*
X10495740Y-6872000D01*
X17895740Y-6872000D02*
X10495740Y-6872000D01*
X17895740Y4628000D02*
X17895740Y-6872000D01*
X17895740Y4628000D02*
X10495740Y4628000D01*
G04 #@! TO.C,R47*
X139154540Y-35145600D02*
X139154540Y-34145600D01*
X140504540Y-34145600D02*
X140504540Y-35145600D01*
D12*
G04 #@! TO.C,G\002A\002A\002A*
G36*
X44438361Y-27477276D02*
X44438340Y-27694599D01*
X44438359Y-28005794D01*
X44438084Y-28270294D01*
X44437019Y-28492204D01*
X44434664Y-28675631D01*
X44430523Y-28824679D01*
X44424099Y-28943452D01*
X44414893Y-29036058D01*
X44402407Y-29106599D01*
X44386145Y-29159183D01*
X44365609Y-29197913D01*
X44340301Y-29226895D01*
X44309723Y-29250234D01*
X44273378Y-29272036D01*
X44245195Y-29288032D01*
X44198995Y-29311714D01*
X44150739Y-29327735D01*
X44089472Y-29337528D01*
X44004238Y-29342527D01*
X43884082Y-29344164D01*
X43816040Y-29344187D01*
X43637124Y-29340614D01*
X43504865Y-29330694D01*
X43420953Y-29314569D01*
X43408380Y-29309872D01*
X43317017Y-29249259D01*
X43238497Y-29160622D01*
X43188265Y-29062707D01*
X43180905Y-29033702D01*
X43178179Y-28992960D01*
X43175898Y-28906522D01*
X43174091Y-28779492D01*
X43172783Y-28616971D01*
X43172002Y-28424063D01*
X43171774Y-28205870D01*
X43172125Y-27967494D01*
X43173083Y-27714039D01*
X43173544Y-27626591D01*
X43175256Y-27333176D01*
X43176915Y-27086281D01*
X43178705Y-26881626D01*
X43180810Y-26714932D01*
X43183414Y-26581919D01*
X43186699Y-26478306D01*
X43190850Y-26399816D01*
X43196050Y-26342167D01*
X43202483Y-26301080D01*
X43210332Y-26272276D01*
X43219781Y-26251475D01*
X43231013Y-26234397D01*
X43233409Y-26231160D01*
X43285234Y-26166364D01*
X43335232Y-26119720D01*
X43393075Y-26088047D01*
X43468432Y-26068164D01*
X43570976Y-26056888D01*
X43710377Y-26051040D01*
X43786051Y-26049362D01*
X43930279Y-26047146D01*
X44033897Y-26047716D01*
X44107066Y-26052196D01*
X44159948Y-26061711D01*
X44202706Y-26077384D01*
X44245195Y-26100162D01*
X44285746Y-26123663D01*
X44320188Y-26145828D01*
X44349021Y-26170769D01*
X44372742Y-26202597D01*
X44391849Y-26245423D01*
X44406840Y-26303358D01*
X44418213Y-26380513D01*
X44426466Y-26480998D01*
X44432097Y-26608926D01*
X44435604Y-26768406D01*
X44437485Y-26963551D01*
X44438238Y-27198471D01*
X44438361Y-27477276D01*
X44438361Y-27477276D01*
G37*
X44438361Y-27477276D02*
X44438340Y-27694599D01*
X44438359Y-28005794D01*
X44438084Y-28270294D01*
X44437019Y-28492204D01*
X44434664Y-28675631D01*
X44430523Y-28824679D01*
X44424099Y-28943452D01*
X44414893Y-29036058D01*
X44402407Y-29106599D01*
X44386145Y-29159183D01*
X44365609Y-29197913D01*
X44340301Y-29226895D01*
X44309723Y-29250234D01*
X44273378Y-29272036D01*
X44245195Y-29288032D01*
X44198995Y-29311714D01*
X44150739Y-29327735D01*
X44089472Y-29337528D01*
X44004238Y-29342527D01*
X43884082Y-29344164D01*
X43816040Y-29344187D01*
X43637124Y-29340614D01*
X43504865Y-29330694D01*
X43420953Y-29314569D01*
X43408380Y-29309872D01*
X43317017Y-29249259D01*
X43238497Y-29160622D01*
X43188265Y-29062707D01*
X43180905Y-29033702D01*
X43178179Y-28992960D01*
X43175898Y-28906522D01*
X43174091Y-28779492D01*
X43172783Y-28616971D01*
X43172002Y-28424063D01*
X43171774Y-28205870D01*
X43172125Y-27967494D01*
X43173083Y-27714039D01*
X43173544Y-27626591D01*
X43175256Y-27333176D01*
X43176915Y-27086281D01*
X43178705Y-26881626D01*
X43180810Y-26714932D01*
X43183414Y-26581919D01*
X43186699Y-26478306D01*
X43190850Y-26399816D01*
X43196050Y-26342167D01*
X43202483Y-26301080D01*
X43210332Y-26272276D01*
X43219781Y-26251475D01*
X43231013Y-26234397D01*
X43233409Y-26231160D01*
X43285234Y-26166364D01*
X43335232Y-26119720D01*
X43393075Y-26088047D01*
X43468432Y-26068164D01*
X43570976Y-26056888D01*
X43710377Y-26051040D01*
X43786051Y-26049362D01*
X43930279Y-26047146D01*
X44033897Y-26047716D01*
X44107066Y-26052196D01*
X44159948Y-26061711D01*
X44202706Y-26077384D01*
X44245195Y-26100162D01*
X44285746Y-26123663D01*
X44320188Y-26145828D01*
X44349021Y-26170769D01*
X44372742Y-26202597D01*
X44391849Y-26245423D01*
X44406840Y-26303358D01*
X44418213Y-26380513D01*
X44426466Y-26480998D01*
X44432097Y-26608926D01*
X44435604Y-26768406D01*
X44437485Y-26963551D01*
X44438238Y-27198471D01*
X44438361Y-27477276D01*
G36*
X47634928Y-21340088D02*
X47633646Y-21694899D01*
X47633049Y-21801800D01*
X47631146Y-22118882D01*
X47629207Y-22389543D01*
X47626776Y-22618160D01*
X47623399Y-22809111D01*
X47618620Y-22966771D01*
X47611985Y-23095519D01*
X47603036Y-23199731D01*
X47591321Y-23283784D01*
X47576382Y-23352057D01*
X47557765Y-23408925D01*
X47535014Y-23458765D01*
X47507675Y-23505956D01*
X47475292Y-23554874D01*
X47446331Y-23596910D01*
X47313512Y-23746017D01*
X47138142Y-23871413D01*
X47054445Y-23910373D01*
X47054445Y-21874161D01*
X47035794Y-21796129D01*
X46989277Y-21711548D01*
X46928720Y-21642885D01*
X46899672Y-21622679D01*
X46812939Y-21598192D01*
X46708449Y-21597909D01*
X46612444Y-21620645D01*
X46580446Y-21637112D01*
X46505336Y-21714474D01*
X46463656Y-21817367D01*
X46461444Y-21928537D01*
X46468314Y-21957457D01*
X46523364Y-22065409D01*
X46607725Y-22140287D01*
X46710778Y-22177657D01*
X46821907Y-22173084D01*
X46904160Y-22139466D01*
X46978299Y-22071134D01*
X47032776Y-21975644D01*
X47054437Y-21876219D01*
X47054445Y-21874161D01*
X47054445Y-23910373D01*
X46923480Y-23971337D01*
X46672786Y-24044030D01*
X46586325Y-24061105D01*
X46527500Y-24066720D01*
X46419103Y-24071645D01*
X46262355Y-24075863D01*
X46058478Y-24079361D01*
X45808696Y-24082125D01*
X45514230Y-24084138D01*
X45176303Y-24085388D01*
X44796138Y-24085858D01*
X44516225Y-24085729D01*
X44143311Y-24085173D01*
X43817767Y-24084323D01*
X43536161Y-24083114D01*
X43295062Y-24081484D01*
X43091041Y-24079369D01*
X42920667Y-24076705D01*
X42780508Y-24073429D01*
X42667136Y-24069477D01*
X42577118Y-24064787D01*
X42507025Y-24059295D01*
X42453425Y-24052937D01*
X42419040Y-24046964D01*
X42185915Y-23979672D01*
X41977107Y-23881051D01*
X41798912Y-23755427D01*
X41657629Y-23607124D01*
X41570151Y-23464105D01*
X41548615Y-23416254D01*
X41530234Y-23368547D01*
X41514782Y-23316761D01*
X41502034Y-23256674D01*
X41491764Y-23184064D01*
X41483748Y-23094708D01*
X41477760Y-22984383D01*
X41473574Y-22848869D01*
X41470965Y-22683942D01*
X41469709Y-22485379D01*
X41469580Y-22248960D01*
X41470352Y-21970460D01*
X41471800Y-21645658D01*
X41471912Y-21622907D01*
X41473479Y-21311176D01*
X41474972Y-21046036D01*
X41476558Y-20823278D01*
X41478409Y-20638692D01*
X41480691Y-20488071D01*
X41483575Y-20367205D01*
X41487229Y-20271886D01*
X41491821Y-20197905D01*
X41497521Y-20141052D01*
X41504498Y-20097120D01*
X41512920Y-20061900D01*
X41522956Y-20031182D01*
X41534776Y-20000757D01*
X41537237Y-19994663D01*
X41639317Y-19808915D01*
X41783792Y-19649323D01*
X41968431Y-19517766D01*
X42191006Y-19416125D01*
X42245255Y-19397834D01*
X42383297Y-19363442D01*
X42560272Y-19333959D01*
X42764442Y-19310686D01*
X42984068Y-19294923D01*
X43207412Y-19287971D01*
X43238190Y-19287776D01*
X43422340Y-19287200D01*
X43422340Y-20011100D01*
X43421857Y-20231670D01*
X43420281Y-20405850D01*
X43417419Y-20538043D01*
X43413077Y-20632652D01*
X43407063Y-20694078D01*
X43399183Y-20726724D01*
X43390590Y-20735141D01*
X43272954Y-20757768D01*
X43150753Y-20818229D01*
X43037484Y-20906879D01*
X42946647Y-21014072D01*
X42910927Y-21077900D01*
X42897140Y-21112699D01*
X42886362Y-21153648D01*
X42878233Y-21207100D01*
X42872391Y-21279408D01*
X42868474Y-21376926D01*
X42866120Y-21506008D01*
X42864968Y-21673007D01*
X42864655Y-21884278D01*
X42864655Y-21890700D01*
X42864950Y-22103263D01*
X42866074Y-22271382D01*
X42868391Y-22401410D01*
X42872260Y-22499703D01*
X42878046Y-22572612D01*
X42886108Y-22626492D01*
X42896808Y-22667697D01*
X42910510Y-22702580D01*
X42910927Y-22703500D01*
X42976971Y-22807575D01*
X43071014Y-22905248D01*
X43176865Y-22981950D01*
X43261792Y-23019168D01*
X43326699Y-23029402D01*
X43431232Y-23037120D01*
X43564277Y-23042320D01*
X43714722Y-23045003D01*
X43871454Y-23045169D01*
X44023361Y-23042817D01*
X44159330Y-23037948D01*
X44268250Y-23030562D01*
X44339006Y-23020658D01*
X44344887Y-23019168D01*
X44448269Y-22970813D01*
X44553235Y-22889440D01*
X44643592Y-22789617D01*
X44695752Y-22703500D01*
X44709539Y-22668700D01*
X44720317Y-22627751D01*
X44728446Y-22574299D01*
X44734288Y-22501991D01*
X44738205Y-22404473D01*
X44740559Y-22275391D01*
X44741711Y-22108392D01*
X44742024Y-21897121D01*
X44742024Y-21890700D01*
X44741729Y-21678136D01*
X44740605Y-21510017D01*
X44738288Y-21379989D01*
X44734419Y-21281696D01*
X44728633Y-21208787D01*
X44720571Y-21154907D01*
X44709871Y-21113702D01*
X44696169Y-21078819D01*
X44695752Y-21077900D01*
X44623150Y-20964586D01*
X44520639Y-20864472D01*
X44401719Y-20787204D01*
X44279887Y-20742427D01*
X44216090Y-20735141D01*
X44206435Y-20724110D01*
X44198806Y-20688181D01*
X44193012Y-20622961D01*
X44188861Y-20524055D01*
X44186161Y-20387068D01*
X44184719Y-20207607D01*
X44184340Y-20007974D01*
X44184340Y-19280949D01*
X45346390Y-19294466D01*
X45645311Y-19298185D01*
X45898576Y-19302183D01*
X46111326Y-19307008D01*
X46288702Y-19313208D01*
X46435848Y-19321333D01*
X46557905Y-19331930D01*
X46660015Y-19345548D01*
X46747321Y-19362734D01*
X46824965Y-19384039D01*
X46898088Y-19410010D01*
X46971833Y-19441195D01*
X47046349Y-19475769D01*
X47243746Y-19592995D01*
X47399168Y-19738202D01*
X47514293Y-19913614D01*
X47590797Y-20121453D01*
X47613217Y-20227000D01*
X47620387Y-20295685D01*
X47626122Y-20410009D01*
X47630434Y-20570792D01*
X47633332Y-20778854D01*
X47634826Y-21035013D01*
X47634928Y-21340088D01*
X47634928Y-21340088D01*
G37*
X47634928Y-21340088D02*
X47633646Y-21694899D01*
X47633049Y-21801800D01*
X47631146Y-22118882D01*
X47629207Y-22389543D01*
X47626776Y-22618160D01*
X47623399Y-22809111D01*
X47618620Y-22966771D01*
X47611985Y-23095519D01*
X47603036Y-23199731D01*
X47591321Y-23283784D01*
X47576382Y-23352057D01*
X47557765Y-23408925D01*
X47535014Y-23458765D01*
X47507675Y-23505956D01*
X47475292Y-23554874D01*
X47446331Y-23596910D01*
X47313512Y-23746017D01*
X47138142Y-23871413D01*
X47054445Y-23910373D01*
X47054445Y-21874161D01*
X47035794Y-21796129D01*
X46989277Y-21711548D01*
X46928720Y-21642885D01*
X46899672Y-21622679D01*
X46812939Y-21598192D01*
X46708449Y-21597909D01*
X46612444Y-21620645D01*
X46580446Y-21637112D01*
X46505336Y-21714474D01*
X46463656Y-21817367D01*
X46461444Y-21928537D01*
X46468314Y-21957457D01*
X46523364Y-22065409D01*
X46607725Y-22140287D01*
X46710778Y-22177657D01*
X46821907Y-22173084D01*
X46904160Y-22139466D01*
X46978299Y-22071134D01*
X47032776Y-21975644D01*
X47054437Y-21876219D01*
X47054445Y-21874161D01*
X47054445Y-23910373D01*
X46923480Y-23971337D01*
X46672786Y-24044030D01*
X46586325Y-24061105D01*
X46527500Y-24066720D01*
X46419103Y-24071645D01*
X46262355Y-24075863D01*
X46058478Y-24079361D01*
X45808696Y-24082125D01*
X45514230Y-24084138D01*
X45176303Y-24085388D01*
X44796138Y-24085858D01*
X44516225Y-24085729D01*
X44143311Y-24085173D01*
X43817767Y-24084323D01*
X43536161Y-24083114D01*
X43295062Y-24081484D01*
X43091041Y-24079369D01*
X42920667Y-24076705D01*
X42780508Y-24073429D01*
X42667136Y-24069477D01*
X42577118Y-24064787D01*
X42507025Y-24059295D01*
X42453425Y-24052937D01*
X42419040Y-24046964D01*
X42185915Y-23979672D01*
X41977107Y-23881051D01*
X41798912Y-23755427D01*
X41657629Y-23607124D01*
X41570151Y-23464105D01*
X41548615Y-23416254D01*
X41530234Y-23368547D01*
X41514782Y-23316761D01*
X41502034Y-23256674D01*
X41491764Y-23184064D01*
X41483748Y-23094708D01*
X41477760Y-22984383D01*
X41473574Y-22848869D01*
X41470965Y-22683942D01*
X41469709Y-22485379D01*
X41469580Y-22248960D01*
X41470352Y-21970460D01*
X41471800Y-21645658D01*
X41471912Y-21622907D01*
X41473479Y-21311176D01*
X41474972Y-21046036D01*
X41476558Y-20823278D01*
X41478409Y-20638692D01*
X41480691Y-20488071D01*
X41483575Y-20367205D01*
X41487229Y-20271886D01*
X41491821Y-20197905D01*
X41497521Y-20141052D01*
X41504498Y-20097120D01*
X41512920Y-20061900D01*
X41522956Y-20031182D01*
X41534776Y-20000757D01*
X41537237Y-19994663D01*
X41639317Y-19808915D01*
X41783792Y-19649323D01*
X41968431Y-19517766D01*
X42191006Y-19416125D01*
X42245255Y-19397834D01*
X42383297Y-19363442D01*
X42560272Y-19333959D01*
X42764442Y-19310686D01*
X42984068Y-19294923D01*
X43207412Y-19287971D01*
X43238190Y-19287776D01*
X43422340Y-19287200D01*
X43422340Y-20011100D01*
X43421857Y-20231670D01*
X43420281Y-20405850D01*
X43417419Y-20538043D01*
X43413077Y-20632652D01*
X43407063Y-20694078D01*
X43399183Y-20726724D01*
X43390590Y-20735141D01*
X43272954Y-20757768D01*
X43150753Y-20818229D01*
X43037484Y-20906879D01*
X42946647Y-21014072D01*
X42910927Y-21077900D01*
X42897140Y-21112699D01*
X42886362Y-21153648D01*
X42878233Y-21207100D01*
X42872391Y-21279408D01*
X42868474Y-21376926D01*
X42866120Y-21506008D01*
X42864968Y-21673007D01*
X42864655Y-21884278D01*
X42864655Y-21890700D01*
X42864950Y-22103263D01*
X42866074Y-22271382D01*
X42868391Y-22401410D01*
X42872260Y-22499703D01*
X42878046Y-22572612D01*
X42886108Y-22626492D01*
X42896808Y-22667697D01*
X42910510Y-22702580D01*
X42910927Y-22703500D01*
X42976971Y-22807575D01*
X43071014Y-22905248D01*
X43176865Y-22981950D01*
X43261792Y-23019168D01*
X43326699Y-23029402D01*
X43431232Y-23037120D01*
X43564277Y-23042320D01*
X43714722Y-23045003D01*
X43871454Y-23045169D01*
X44023361Y-23042817D01*
X44159330Y-23037948D01*
X44268250Y-23030562D01*
X44339006Y-23020658D01*
X44344887Y-23019168D01*
X44448269Y-22970813D01*
X44553235Y-22889440D01*
X44643592Y-22789617D01*
X44695752Y-22703500D01*
X44709539Y-22668700D01*
X44720317Y-22627751D01*
X44728446Y-22574299D01*
X44734288Y-22501991D01*
X44738205Y-22404473D01*
X44740559Y-22275391D01*
X44741711Y-22108392D01*
X44742024Y-21897121D01*
X44742024Y-21890700D01*
X44741729Y-21678136D01*
X44740605Y-21510017D01*
X44738288Y-21379989D01*
X44734419Y-21281696D01*
X44728633Y-21208787D01*
X44720571Y-21154907D01*
X44709871Y-21113702D01*
X44696169Y-21078819D01*
X44695752Y-21077900D01*
X44623150Y-20964586D01*
X44520639Y-20864472D01*
X44401719Y-20787204D01*
X44279887Y-20742427D01*
X44216090Y-20735141D01*
X44206435Y-20724110D01*
X44198806Y-20688181D01*
X44193012Y-20622961D01*
X44188861Y-20524055D01*
X44186161Y-20387068D01*
X44184719Y-20207607D01*
X44184340Y-20007974D01*
X44184340Y-19280949D01*
X45346390Y-19294466D01*
X45645311Y-19298185D01*
X45898576Y-19302183D01*
X46111326Y-19307008D01*
X46288702Y-19313208D01*
X46435848Y-19321333D01*
X46557905Y-19331930D01*
X46660015Y-19345548D01*
X46747321Y-19362734D01*
X46824965Y-19384039D01*
X46898088Y-19410010D01*
X46971833Y-19441195D01*
X47046349Y-19475769D01*
X47243746Y-19592995D01*
X47399168Y-19738202D01*
X47514293Y-19913614D01*
X47590797Y-20121453D01*
X47613217Y-20227000D01*
X47620387Y-20295685D01*
X47626122Y-20410009D01*
X47630434Y-20570792D01*
X47633332Y-20778854D01*
X47634826Y-21035013D01*
X47634928Y-21340088D01*
G36*
X48499220Y-26824181D02*
X48498976Y-27111115D01*
X48497889Y-27441636D01*
X48496393Y-27776665D01*
X48494667Y-28123514D01*
X48492950Y-28423329D01*
X48491137Y-28679875D01*
X48489120Y-28896918D01*
X48486793Y-29078225D01*
X48484049Y-29227560D01*
X48480781Y-29348690D01*
X48476883Y-29445380D01*
X48472249Y-29521396D01*
X48466771Y-29580503D01*
X48460343Y-29626468D01*
X48452859Y-29663056D01*
X48444211Y-29694032D01*
X48441902Y-29701200D01*
X48340484Y-29941575D01*
X48204744Y-30148049D01*
X48032608Y-30322451D01*
X47822004Y-30466615D01*
X47570860Y-30582372D01*
X47372040Y-30646866D01*
X47330587Y-30658418D01*
X47330587Y-26951780D01*
X47329924Y-26648358D01*
X47328242Y-26394633D01*
X47325538Y-26190239D01*
X47321807Y-26034811D01*
X47317046Y-25927986D01*
X47311251Y-25869398D01*
X47309639Y-25862239D01*
X47272426Y-25786485D01*
X47210131Y-25706467D01*
X47182406Y-25679104D01*
X47151692Y-25651086D01*
X47123211Y-25626319D01*
X47093803Y-25604613D01*
X47060309Y-25585776D01*
X47019571Y-25569617D01*
X46968429Y-25555946D01*
X46903725Y-25544570D01*
X46822300Y-25535299D01*
X46720994Y-25527942D01*
X46596649Y-25522307D01*
X46446105Y-25518203D01*
X46266204Y-25515440D01*
X46053787Y-25513826D01*
X45805694Y-25513170D01*
X45518767Y-25513281D01*
X45189847Y-25513967D01*
X44815775Y-25515038D01*
X44487193Y-25516027D01*
X42165040Y-25522900D01*
X42025678Y-25599100D01*
X41918814Y-25670150D01*
X41844792Y-25753102D01*
X41822478Y-25789600D01*
X41758640Y-25903900D01*
X41751415Y-27578409D01*
X41750123Y-27967822D01*
X41749836Y-28307670D01*
X41750568Y-28599180D01*
X41752332Y-28843576D01*
X41755143Y-29042085D01*
X41759015Y-29195932D01*
X41763962Y-29306344D01*
X41769999Y-29374545D01*
X41772318Y-29388413D01*
X41820609Y-29530162D01*
X41902376Y-29640550D01*
X42021775Y-29723263D01*
X42182959Y-29781984D01*
X42228540Y-29792965D01*
X42278016Y-29798276D01*
X42373649Y-29803181D01*
X42510799Y-29807671D01*
X42684824Y-29811737D01*
X42891084Y-29815368D01*
X43124937Y-29818556D01*
X43381743Y-29821291D01*
X43656860Y-29823562D01*
X43945648Y-29825362D01*
X44243465Y-29826680D01*
X44545671Y-29827506D01*
X44847624Y-29827832D01*
X45144684Y-29827647D01*
X45432209Y-29826942D01*
X45705559Y-29825707D01*
X45960092Y-29823933D01*
X46191167Y-29821611D01*
X46394144Y-29818731D01*
X46564382Y-29815283D01*
X46697239Y-29811257D01*
X46788075Y-29806645D01*
X46827935Y-29802421D01*
X47011667Y-29750128D01*
X47153927Y-29671119D01*
X47253065Y-29566643D01*
X47321240Y-29463640D01*
X47328872Y-27709170D01*
X47330236Y-27305262D01*
X47330587Y-26951780D01*
X47330587Y-30658418D01*
X47168840Y-30703494D01*
X44641540Y-30707713D01*
X44284088Y-30708084D01*
X43938662Y-30708004D01*
X43608951Y-30707497D01*
X43298642Y-30706589D01*
X43011425Y-30705306D01*
X42750987Y-30703671D01*
X42521019Y-30701711D01*
X42325207Y-30699449D01*
X42167240Y-30696913D01*
X42050808Y-30694125D01*
X41979599Y-30691113D01*
X41961840Y-30689491D01*
X41680192Y-30629598D01*
X41423455Y-30537999D01*
X41196345Y-30417590D01*
X41003582Y-30271265D01*
X40849884Y-30101917D01*
X40757775Y-29950897D01*
X40729481Y-29892391D01*
X40704885Y-29837417D01*
X40683727Y-29782116D01*
X40665749Y-29722632D01*
X40650692Y-29655105D01*
X40638296Y-29575678D01*
X40628305Y-29480494D01*
X40620457Y-29365695D01*
X40614495Y-29227422D01*
X40610159Y-29061818D01*
X40607192Y-28865026D01*
X40605333Y-28633187D01*
X40604324Y-28362444D01*
X40603907Y-28048938D01*
X40603822Y-27688813D01*
X40603822Y-27656500D01*
X40603978Y-27300003D01*
X40604493Y-26990651D01*
X40605437Y-26724789D01*
X40606880Y-26498762D01*
X40608893Y-26308915D01*
X40611546Y-26151594D01*
X40614909Y-26023143D01*
X40619052Y-25919909D01*
X40624045Y-25838236D01*
X40629959Y-25774470D01*
X40636864Y-25724956D01*
X40641390Y-25701143D01*
X40716073Y-25459265D01*
X40831586Y-25246762D01*
X40988211Y-25063383D01*
X41186234Y-24908881D01*
X41425937Y-24783008D01*
X41707606Y-24685514D01*
X41839920Y-24652650D01*
X41875837Y-24645356D01*
X41916292Y-24638905D01*
X41964445Y-24633247D01*
X42023457Y-24628330D01*
X42096488Y-24624103D01*
X42186697Y-24620514D01*
X42297247Y-24617514D01*
X42431297Y-24615050D01*
X42592008Y-24613071D01*
X42782540Y-24611526D01*
X43006053Y-24610364D01*
X43265708Y-24609534D01*
X43564666Y-24608984D01*
X43906086Y-24608663D01*
X44293130Y-24608521D01*
X44565340Y-24608500D01*
X47092640Y-24608500D01*
X47330013Y-24668335D01*
X47607587Y-24757251D01*
X47850751Y-24874455D01*
X48056446Y-25017777D01*
X48221611Y-25185044D01*
X48343185Y-25374084D01*
X48352738Y-25393911D01*
X48380533Y-25454982D01*
X48404728Y-25513920D01*
X48425553Y-25574535D01*
X48443238Y-25640637D01*
X48458012Y-25716036D01*
X48470104Y-25804541D01*
X48479746Y-25909964D01*
X48487165Y-26036114D01*
X48492593Y-26186801D01*
X48496258Y-26365834D01*
X48498390Y-26577024D01*
X48499220Y-26824181D01*
X48499220Y-26824181D01*
G37*
X48499220Y-26824181D02*
X48498976Y-27111115D01*
X48497889Y-27441636D01*
X48496393Y-27776665D01*
X48494667Y-28123514D01*
X48492950Y-28423329D01*
X48491137Y-28679875D01*
X48489120Y-28896918D01*
X48486793Y-29078225D01*
X48484049Y-29227560D01*
X48480781Y-29348690D01*
X48476883Y-29445380D01*
X48472249Y-29521396D01*
X48466771Y-29580503D01*
X48460343Y-29626468D01*
X48452859Y-29663056D01*
X48444211Y-29694032D01*
X48441902Y-29701200D01*
X48340484Y-29941575D01*
X48204744Y-30148049D01*
X48032608Y-30322451D01*
X47822004Y-30466615D01*
X47570860Y-30582372D01*
X47372040Y-30646866D01*
X47330587Y-30658418D01*
X47330587Y-26951780D01*
X47329924Y-26648358D01*
X47328242Y-26394633D01*
X47325538Y-26190239D01*
X47321807Y-26034811D01*
X47317046Y-25927986D01*
X47311251Y-25869398D01*
X47309639Y-25862239D01*
X47272426Y-25786485D01*
X47210131Y-25706467D01*
X47182406Y-25679104D01*
X47151692Y-25651086D01*
X47123211Y-25626319D01*
X47093803Y-25604613D01*
X47060309Y-25585776D01*
X47019571Y-25569617D01*
X46968429Y-25555946D01*
X46903725Y-25544570D01*
X46822300Y-25535299D01*
X46720994Y-25527942D01*
X46596649Y-25522307D01*
X46446105Y-25518203D01*
X46266204Y-25515440D01*
X46053787Y-25513826D01*
X45805694Y-25513170D01*
X45518767Y-25513281D01*
X45189847Y-25513967D01*
X44815775Y-25515038D01*
X44487193Y-25516027D01*
X42165040Y-25522900D01*
X42025678Y-25599100D01*
X41918814Y-25670150D01*
X41844792Y-25753102D01*
X41822478Y-25789600D01*
X41758640Y-25903900D01*
X41751415Y-27578409D01*
X41750123Y-27967822D01*
X41749836Y-28307670D01*
X41750568Y-28599180D01*
X41752332Y-28843576D01*
X41755143Y-29042085D01*
X41759015Y-29195932D01*
X41763962Y-29306344D01*
X41769999Y-29374545D01*
X41772318Y-29388413D01*
X41820609Y-29530162D01*
X41902376Y-29640550D01*
X42021775Y-29723263D01*
X42182959Y-29781984D01*
X42228540Y-29792965D01*
X42278016Y-29798276D01*
X42373649Y-29803181D01*
X42510799Y-29807671D01*
X42684824Y-29811737D01*
X42891084Y-29815368D01*
X43124937Y-29818556D01*
X43381743Y-29821291D01*
X43656860Y-29823562D01*
X43945648Y-29825362D01*
X44243465Y-29826680D01*
X44545671Y-29827506D01*
X44847624Y-29827832D01*
X45144684Y-29827647D01*
X45432209Y-29826942D01*
X45705559Y-29825707D01*
X45960092Y-29823933D01*
X46191167Y-29821611D01*
X46394144Y-29818731D01*
X46564382Y-29815283D01*
X46697239Y-29811257D01*
X46788075Y-29806645D01*
X46827935Y-29802421D01*
X47011667Y-29750128D01*
X47153927Y-29671119D01*
X47253065Y-29566643D01*
X47321240Y-29463640D01*
X47328872Y-27709170D01*
X47330236Y-27305262D01*
X47330587Y-26951780D01*
X47330587Y-30658418D01*
X47168840Y-30703494D01*
X44641540Y-30707713D01*
X44284088Y-30708084D01*
X43938662Y-30708004D01*
X43608951Y-30707497D01*
X43298642Y-30706589D01*
X43011425Y-30705306D01*
X42750987Y-30703671D01*
X42521019Y-30701711D01*
X42325207Y-30699449D01*
X42167240Y-30696913D01*
X42050808Y-30694125D01*
X41979599Y-30691113D01*
X41961840Y-30689491D01*
X41680192Y-30629598D01*
X41423455Y-30537999D01*
X41196345Y-30417590D01*
X41003582Y-30271265D01*
X40849884Y-30101917D01*
X40757775Y-29950897D01*
X40729481Y-29892391D01*
X40704885Y-29837417D01*
X40683727Y-29782116D01*
X40665749Y-29722632D01*
X40650692Y-29655105D01*
X40638296Y-29575678D01*
X40628305Y-29480494D01*
X40620457Y-29365695D01*
X40614495Y-29227422D01*
X40610159Y-29061818D01*
X40607192Y-28865026D01*
X40605333Y-28633187D01*
X40604324Y-28362444D01*
X40603907Y-28048938D01*
X40603822Y-27688813D01*
X40603822Y-27656500D01*
X40603978Y-27300003D01*
X40604493Y-26990651D01*
X40605437Y-26724789D01*
X40606880Y-26498762D01*
X40608893Y-26308915D01*
X40611546Y-26151594D01*
X40614909Y-26023143D01*
X40619052Y-25919909D01*
X40624045Y-25838236D01*
X40629959Y-25774470D01*
X40636864Y-25724956D01*
X40641390Y-25701143D01*
X40716073Y-25459265D01*
X40831586Y-25246762D01*
X40988211Y-25063383D01*
X41186234Y-24908881D01*
X41425937Y-24783008D01*
X41707606Y-24685514D01*
X41839920Y-24652650D01*
X41875837Y-24645356D01*
X41916292Y-24638905D01*
X41964445Y-24633247D01*
X42023457Y-24628330D01*
X42096488Y-24624103D01*
X42186697Y-24620514D01*
X42297247Y-24617514D01*
X42431297Y-24615050D01*
X42592008Y-24613071D01*
X42782540Y-24611526D01*
X43006053Y-24610364D01*
X43265708Y-24609534D01*
X43564666Y-24608984D01*
X43906086Y-24608663D01*
X44293130Y-24608521D01*
X44565340Y-24608500D01*
X47092640Y-24608500D01*
X47330013Y-24668335D01*
X47607587Y-24757251D01*
X47850751Y-24874455D01*
X48056446Y-25017777D01*
X48221611Y-25185044D01*
X48343185Y-25374084D01*
X48352738Y-25393911D01*
X48380533Y-25454982D01*
X48404728Y-25513920D01*
X48425553Y-25574535D01*
X48443238Y-25640637D01*
X48458012Y-25716036D01*
X48470104Y-25804541D01*
X48479746Y-25909964D01*
X48487165Y-26036114D01*
X48492593Y-26186801D01*
X48496258Y-26365834D01*
X48498390Y-26577024D01*
X48499220Y-26824181D01*
G36*
X53509055Y-25167300D02*
X53498410Y-25657245D01*
X53465895Y-26116441D01*
X53409548Y-26560873D01*
X53327406Y-27006526D01*
X53234755Y-27402500D01*
X53047435Y-28036816D01*
X52814604Y-28651178D01*
X52538275Y-29243576D01*
X52220463Y-29811996D01*
X52176537Y-29878685D01*
X52176537Y-25421300D01*
X52173502Y-24803420D01*
X52121535Y-24194628D01*
X52022059Y-23597292D01*
X51876494Y-23013779D01*
X51686264Y-22446458D01*
X51452790Y-21897697D01*
X51177495Y-21369864D01*
X50861799Y-20865326D01*
X50507126Y-20386453D01*
X50114897Y-19935612D01*
X49686533Y-19515170D01*
X49223458Y-19127497D01*
X48727093Y-18774960D01*
X48198860Y-18459928D01*
X47905440Y-18308476D01*
X47405650Y-18082621D01*
X46912593Y-17899255D01*
X46413865Y-17754759D01*
X45897064Y-17645514D01*
X45378140Y-17571096D01*
X45147985Y-17551626D01*
X44881742Y-17540406D01*
X44593033Y-17537171D01*
X44295483Y-17541657D01*
X44002714Y-17553597D01*
X43728351Y-17572726D01*
X43486018Y-17598779D01*
X43412007Y-17609374D01*
X42822478Y-17724001D01*
X42248702Y-17883805D01*
X41684644Y-18090705D01*
X41174440Y-18321665D01*
X40632540Y-18616687D01*
X40121494Y-18950582D01*
X39642752Y-19320928D01*
X39197766Y-19725306D01*
X38787986Y-20161294D01*
X38414862Y-20626471D01*
X38079844Y-21118416D01*
X37784384Y-21634708D01*
X37529933Y-22172927D01*
X37317939Y-22730652D01*
X37149855Y-23305461D01*
X37027131Y-23894934D01*
X36951217Y-24496650D01*
X36923564Y-25108188D01*
X36927999Y-25408600D01*
X36971575Y-26024335D01*
X37059793Y-26618387D01*
X37193802Y-27195322D01*
X37374752Y-27759707D01*
X37603792Y-28316106D01*
X37722187Y-28563758D01*
X37977397Y-29037429D01*
X38255277Y-29477000D01*
X38562977Y-29892186D01*
X38907649Y-30292701D01*
X39260583Y-30653700D01*
X39726912Y-31070824D01*
X40220006Y-31445096D01*
X40738640Y-31775802D01*
X41281590Y-32062227D01*
X41847631Y-32303658D01*
X42414793Y-32493365D01*
X42658114Y-32560773D01*
X42891644Y-32617423D01*
X43127107Y-32665446D01*
X43376226Y-32706971D01*
X43650724Y-32744128D01*
X43962325Y-32779046D01*
X44019240Y-32784854D01*
X44110695Y-32790025D01*
X44242868Y-32792085D01*
X44405793Y-32791347D01*
X44589505Y-32788127D01*
X44784036Y-32782739D01*
X44979421Y-32775497D01*
X45165693Y-32766716D01*
X45332888Y-32756711D01*
X45471037Y-32745796D01*
X45555940Y-32736348D01*
X46177460Y-32626077D01*
X46779745Y-32468911D01*
X47361679Y-32265413D01*
X47922149Y-32016145D01*
X48460040Y-31721671D01*
X48974238Y-31382554D01*
X49463628Y-30999356D01*
X49927096Y-30572640D01*
X50014535Y-30484225D01*
X50352444Y-30118192D01*
X50650278Y-29752874D01*
X50917020Y-29375806D01*
X51161655Y-28974520D01*
X51335602Y-28650995D01*
X51591976Y-28103804D01*
X51799872Y-27557913D01*
X51961001Y-27006756D01*
X52077072Y-26443767D01*
X52149795Y-25862379D01*
X52176537Y-25421300D01*
X52176537Y-29878685D01*
X51863182Y-30354425D01*
X51468446Y-30868853D01*
X51038270Y-31353266D01*
X50574668Y-31805652D01*
X50079654Y-32223999D01*
X49555244Y-32606295D01*
X49003451Y-32950527D01*
X48426289Y-33254683D01*
X47825774Y-33516751D01*
X47203919Y-33734719D01*
X46775140Y-33855389D01*
X46192737Y-33981449D01*
X45588870Y-34070457D01*
X44977570Y-34121060D01*
X44372866Y-34131908D01*
X44031645Y-34119507D01*
X43509385Y-34072431D01*
X42973470Y-33992055D01*
X42443874Y-33881925D01*
X41961840Y-33752074D01*
X41329119Y-33534162D01*
X40719640Y-33272252D01*
X40135200Y-32968318D01*
X39577597Y-32624333D01*
X39048627Y-32242272D01*
X38550087Y-31824108D01*
X38083775Y-31371814D01*
X37651487Y-30887365D01*
X37255021Y-30372735D01*
X36896173Y-29829896D01*
X36576741Y-29260823D01*
X36298522Y-28667489D01*
X36063313Y-28051868D01*
X35872910Y-27415935D01*
X35764312Y-26945300D01*
X35660065Y-26305312D01*
X35603110Y-25651922D01*
X35593390Y-24990140D01*
X35630851Y-24324976D01*
X35715437Y-23661438D01*
X35805793Y-23186100D01*
X35855970Y-22978415D01*
X35922199Y-22739214D01*
X35999741Y-22483332D01*
X36083859Y-22225602D01*
X36169813Y-21980860D01*
X36252863Y-21763939D01*
X36284542Y-21687500D01*
X36572104Y-21075330D01*
X36899031Y-20493464D01*
X37263213Y-19943090D01*
X37662536Y-19425395D01*
X38094890Y-18941566D01*
X38558161Y-18492791D01*
X39050239Y-18080256D01*
X39569010Y-17705150D01*
X40112364Y-17368660D01*
X40678187Y-17071973D01*
X41264369Y-16816276D01*
X41868796Y-16602758D01*
X42489357Y-16432604D01*
X43123941Y-16307004D01*
X43770434Y-16227143D01*
X44426725Y-16194210D01*
X45090701Y-16209391D01*
X45760252Y-16273875D01*
X45883186Y-16291101D01*
X46533779Y-16411810D01*
X47167417Y-16579172D01*
X47782200Y-16791324D01*
X48376232Y-17046402D01*
X48947614Y-17342542D01*
X49494448Y-17677880D01*
X50014836Y-18050553D01*
X50506880Y-18458697D01*
X50968682Y-18900449D01*
X51398344Y-19373944D01*
X51793968Y-19877319D01*
X52153656Y-20408710D01*
X52475510Y-20966254D01*
X52757631Y-21548087D01*
X52998122Y-22152344D01*
X53195085Y-22777163D01*
X53346622Y-23420680D01*
X53390758Y-23662913D01*
X53433460Y-23935638D01*
X53465311Y-24186212D01*
X53487536Y-24430212D01*
X53501360Y-24683212D01*
X53508006Y-24960788D01*
X53509055Y-25167300D01*
X53509055Y-25167300D01*
G37*
X53509055Y-25167300D02*
X53498410Y-25657245D01*
X53465895Y-26116441D01*
X53409548Y-26560873D01*
X53327406Y-27006526D01*
X53234755Y-27402500D01*
X53047435Y-28036816D01*
X52814604Y-28651178D01*
X52538275Y-29243576D01*
X52220463Y-29811996D01*
X52176537Y-29878685D01*
X52176537Y-25421300D01*
X52173502Y-24803420D01*
X52121535Y-24194628D01*
X52022059Y-23597292D01*
X51876494Y-23013779D01*
X51686264Y-22446458D01*
X51452790Y-21897697D01*
X51177495Y-21369864D01*
X50861799Y-20865326D01*
X50507126Y-20386453D01*
X50114897Y-19935612D01*
X49686533Y-19515170D01*
X49223458Y-19127497D01*
X48727093Y-18774960D01*
X48198860Y-18459928D01*
X47905440Y-18308476D01*
X47405650Y-18082621D01*
X46912593Y-17899255D01*
X46413865Y-17754759D01*
X45897064Y-17645514D01*
X45378140Y-17571096D01*
X45147985Y-17551626D01*
X44881742Y-17540406D01*
X44593033Y-17537171D01*
X44295483Y-17541657D01*
X44002714Y-17553597D01*
X43728351Y-17572726D01*
X43486018Y-17598779D01*
X43412007Y-17609374D01*
X42822478Y-17724001D01*
X42248702Y-17883805D01*
X41684644Y-18090705D01*
X41174440Y-18321665D01*
X40632540Y-18616687D01*
X40121494Y-18950582D01*
X39642752Y-19320928D01*
X39197766Y-19725306D01*
X38787986Y-20161294D01*
X38414862Y-20626471D01*
X38079844Y-21118416D01*
X37784384Y-21634708D01*
X37529933Y-22172927D01*
X37317939Y-22730652D01*
X37149855Y-23305461D01*
X37027131Y-23894934D01*
X36951217Y-24496650D01*
X36923564Y-25108188D01*
X36927999Y-25408600D01*
X36971575Y-26024335D01*
X37059793Y-26618387D01*
X37193802Y-27195322D01*
X37374752Y-27759707D01*
X37603792Y-28316106D01*
X37722187Y-28563758D01*
X37977397Y-29037429D01*
X38255277Y-29477000D01*
X38562977Y-29892186D01*
X38907649Y-30292701D01*
X39260583Y-30653700D01*
X39726912Y-31070824D01*
X40220006Y-31445096D01*
X40738640Y-31775802D01*
X41281590Y-32062227D01*
X41847631Y-32303658D01*
X42414793Y-32493365D01*
X42658114Y-32560773D01*
X42891644Y-32617423D01*
X43127107Y-32665446D01*
X43376226Y-32706971D01*
X43650724Y-32744128D01*
X43962325Y-32779046D01*
X44019240Y-32784854D01*
X44110695Y-32790025D01*
X44242868Y-32792085D01*
X44405793Y-32791347D01*
X44589505Y-32788127D01*
X44784036Y-32782739D01*
X44979421Y-32775497D01*
X45165693Y-32766716D01*
X45332888Y-32756711D01*
X45471037Y-32745796D01*
X45555940Y-32736348D01*
X46177460Y-32626077D01*
X46779745Y-32468911D01*
X47361679Y-32265413D01*
X47922149Y-32016145D01*
X48460040Y-31721671D01*
X48974238Y-31382554D01*
X49463628Y-30999356D01*
X49927096Y-30572640D01*
X50014535Y-30484225D01*
X50352444Y-30118192D01*
X50650278Y-29752874D01*
X50917020Y-29375806D01*
X51161655Y-28974520D01*
X51335602Y-28650995D01*
X51591976Y-28103804D01*
X51799872Y-27557913D01*
X51961001Y-27006756D01*
X52077072Y-26443767D01*
X52149795Y-25862379D01*
X52176537Y-25421300D01*
X52176537Y-29878685D01*
X51863182Y-30354425D01*
X51468446Y-30868853D01*
X51038270Y-31353266D01*
X50574668Y-31805652D01*
X50079654Y-32223999D01*
X49555244Y-32606295D01*
X49003451Y-32950527D01*
X48426289Y-33254683D01*
X47825774Y-33516751D01*
X47203919Y-33734719D01*
X46775140Y-33855389D01*
X46192737Y-33981449D01*
X45588870Y-34070457D01*
X44977570Y-34121060D01*
X44372866Y-34131908D01*
X44031645Y-34119507D01*
X43509385Y-34072431D01*
X42973470Y-33992055D01*
X42443874Y-33881925D01*
X41961840Y-33752074D01*
X41329119Y-33534162D01*
X40719640Y-33272252D01*
X40135200Y-32968318D01*
X39577597Y-32624333D01*
X39048627Y-32242272D01*
X38550087Y-31824108D01*
X38083775Y-31371814D01*
X37651487Y-30887365D01*
X37255021Y-30372735D01*
X36896173Y-29829896D01*
X36576741Y-29260823D01*
X36298522Y-28667489D01*
X36063313Y-28051868D01*
X35872910Y-27415935D01*
X35764312Y-26945300D01*
X35660065Y-26305312D01*
X35603110Y-25651922D01*
X35593390Y-24990140D01*
X35630851Y-24324976D01*
X35715437Y-23661438D01*
X35805793Y-23186100D01*
X35855970Y-22978415D01*
X35922199Y-22739214D01*
X35999741Y-22483332D01*
X36083859Y-22225602D01*
X36169813Y-21980860D01*
X36252863Y-21763939D01*
X36284542Y-21687500D01*
X36572104Y-21075330D01*
X36899031Y-20493464D01*
X37263213Y-19943090D01*
X37662536Y-19425395D01*
X38094890Y-18941566D01*
X38558161Y-18492791D01*
X39050239Y-18080256D01*
X39569010Y-17705150D01*
X40112364Y-17368660D01*
X40678187Y-17071973D01*
X41264369Y-16816276D01*
X41868796Y-16602758D01*
X42489357Y-16432604D01*
X43123941Y-16307004D01*
X43770434Y-16227143D01*
X44426725Y-16194210D01*
X45090701Y-16209391D01*
X45760252Y-16273875D01*
X45883186Y-16291101D01*
X46533779Y-16411810D01*
X47167417Y-16579172D01*
X47782200Y-16791324D01*
X48376232Y-17046402D01*
X48947614Y-17342542D01*
X49494448Y-17677880D01*
X50014836Y-18050553D01*
X50506880Y-18458697D01*
X50968682Y-18900449D01*
X51398344Y-19373944D01*
X51793968Y-19877319D01*
X52153656Y-20408710D01*
X52475510Y-20966254D01*
X52757631Y-21548087D01*
X52998122Y-22152344D01*
X53195085Y-22777163D01*
X53346622Y-23420680D01*
X53390758Y-23662913D01*
X53433460Y-23935638D01*
X53465311Y-24186212D01*
X53487536Y-24430212D01*
X53501360Y-24683212D01*
X53508006Y-24960788D01*
X53509055Y-25167300D01*
G36*
X54179240Y-37892700D02*
X54179062Y-38192598D01*
X54178265Y-38446475D01*
X54176451Y-38659108D01*
X54173221Y-38835274D01*
X54168180Y-38979751D01*
X54160928Y-39097317D01*
X54151069Y-39192750D01*
X54138205Y-39270827D01*
X54121938Y-39336326D01*
X54101871Y-39394025D01*
X54077606Y-39448700D01*
X54048746Y-39505131D01*
X54044388Y-39513310D01*
X53934070Y-39667903D01*
X53781104Y-39797930D01*
X53584649Y-39903928D01*
X53366440Y-39978698D01*
X53366440Y-37905400D01*
X53366354Y-37632312D01*
X53365968Y-37405282D01*
X53365092Y-37219566D01*
X53363532Y-37070420D01*
X53361098Y-36953101D01*
X53357598Y-36862868D01*
X53352840Y-36794975D01*
X53346632Y-36744680D01*
X53338783Y-36707241D01*
X53329101Y-36677914D01*
X53317394Y-36651956D01*
X53315640Y-36648435D01*
X53232854Y-36537369D01*
X53112961Y-36451383D01*
X53001127Y-36407207D01*
X52956088Y-36401912D01*
X52862412Y-36397158D01*
X52722257Y-36392976D01*
X52537785Y-36389396D01*
X52311154Y-36386448D01*
X52044525Y-36384163D01*
X51740056Y-36382571D01*
X51399909Y-36381703D01*
X51175690Y-36381541D01*
X49442140Y-36381400D01*
X49442140Y-37906534D01*
X49442140Y-39431669D01*
X51201090Y-39424184D01*
X52960040Y-39416700D01*
X53111267Y-39340500D01*
X53209439Y-39283821D01*
X53273534Y-39226125D01*
X53314467Y-39162700D01*
X53326731Y-39137016D01*
X53336899Y-39109106D01*
X53345166Y-39074224D01*
X53351729Y-39027627D01*
X53356785Y-38964570D01*
X53360529Y-38880309D01*
X53363157Y-38770101D01*
X53364866Y-38629200D01*
X53365852Y-38452863D01*
X53366310Y-38236346D01*
X53366437Y-37974905D01*
X53366440Y-37905400D01*
X53366440Y-39978698D01*
X53343860Y-39986436D01*
X53276488Y-40003491D01*
X53239855Y-40011399D01*
X53198453Y-40018371D01*
X53148895Y-40024482D01*
X53087796Y-40029810D01*
X53011770Y-40034428D01*
X52917433Y-40038414D01*
X52801397Y-40041842D01*
X52660278Y-40044789D01*
X52490690Y-40047330D01*
X52289247Y-40049541D01*
X52052563Y-40051498D01*
X51777253Y-40053276D01*
X51459931Y-40054952D01*
X51097211Y-40056601D01*
X50858190Y-40057601D01*
X48629340Y-40066722D01*
X48629340Y-37891605D01*
X48629340Y-35716489D01*
X50832790Y-35728352D01*
X51229174Y-35730599D01*
X51578011Y-35732849D01*
X51882552Y-35735172D01*
X52146048Y-35737637D01*
X52371752Y-35740315D01*
X52562916Y-35743273D01*
X52722791Y-35746581D01*
X52854629Y-35750310D01*
X52961683Y-35754527D01*
X53047204Y-35759303D01*
X53114444Y-35764707D01*
X53166654Y-35770808D01*
X53207088Y-35777676D01*
X53214040Y-35779146D01*
X53465097Y-35848042D01*
X53672108Y-35936638D01*
X53839042Y-36048047D01*
X53969870Y-36185382D01*
X54068559Y-36351755D01*
X54121871Y-36491038D01*
X54135073Y-36534263D01*
X54146077Y-36575804D01*
X54155083Y-36620548D01*
X54162292Y-36673382D01*
X54167902Y-36739191D01*
X54172115Y-36822863D01*
X54175130Y-36929283D01*
X54177147Y-37063339D01*
X54178367Y-37229916D01*
X54178988Y-37433902D01*
X54179212Y-37680183D01*
X54179240Y-37892700D01*
X54179240Y-37892700D01*
G37*
X54179240Y-37892700D02*
X54179062Y-38192598D01*
X54178265Y-38446475D01*
X54176451Y-38659108D01*
X54173221Y-38835274D01*
X54168180Y-38979751D01*
X54160928Y-39097317D01*
X54151069Y-39192750D01*
X54138205Y-39270827D01*
X54121938Y-39336326D01*
X54101871Y-39394025D01*
X54077606Y-39448700D01*
X54048746Y-39505131D01*
X54044388Y-39513310D01*
X53934070Y-39667903D01*
X53781104Y-39797930D01*
X53584649Y-39903928D01*
X53366440Y-39978698D01*
X53366440Y-37905400D01*
X53366354Y-37632312D01*
X53365968Y-37405282D01*
X53365092Y-37219566D01*
X53363532Y-37070420D01*
X53361098Y-36953101D01*
X53357598Y-36862868D01*
X53352840Y-36794975D01*
X53346632Y-36744680D01*
X53338783Y-36707241D01*
X53329101Y-36677914D01*
X53317394Y-36651956D01*
X53315640Y-36648435D01*
X53232854Y-36537369D01*
X53112961Y-36451383D01*
X53001127Y-36407207D01*
X52956088Y-36401912D01*
X52862412Y-36397158D01*
X52722257Y-36392976D01*
X52537785Y-36389396D01*
X52311154Y-36386448D01*
X52044525Y-36384163D01*
X51740056Y-36382571D01*
X51399909Y-36381703D01*
X51175690Y-36381541D01*
X49442140Y-36381400D01*
X49442140Y-37906534D01*
X49442140Y-39431669D01*
X51201090Y-39424184D01*
X52960040Y-39416700D01*
X53111267Y-39340500D01*
X53209439Y-39283821D01*
X53273534Y-39226125D01*
X53314467Y-39162700D01*
X53326731Y-39137016D01*
X53336899Y-39109106D01*
X53345166Y-39074224D01*
X53351729Y-39027627D01*
X53356785Y-38964570D01*
X53360529Y-38880309D01*
X53363157Y-38770101D01*
X53364866Y-38629200D01*
X53365852Y-38452863D01*
X53366310Y-38236346D01*
X53366437Y-37974905D01*
X53366440Y-37905400D01*
X53366440Y-39978698D01*
X53343860Y-39986436D01*
X53276488Y-40003491D01*
X53239855Y-40011399D01*
X53198453Y-40018371D01*
X53148895Y-40024482D01*
X53087796Y-40029810D01*
X53011770Y-40034428D01*
X52917433Y-40038414D01*
X52801397Y-40041842D01*
X52660278Y-40044789D01*
X52490690Y-40047330D01*
X52289247Y-40049541D01*
X52052563Y-40051498D01*
X51777253Y-40053276D01*
X51459931Y-40054952D01*
X51097211Y-40056601D01*
X50858190Y-40057601D01*
X48629340Y-40066722D01*
X48629340Y-37891605D01*
X48629340Y-35716489D01*
X50832790Y-35728352D01*
X51229174Y-35730599D01*
X51578011Y-35732849D01*
X51882552Y-35735172D01*
X52146048Y-35737637D01*
X52371752Y-35740315D01*
X52562916Y-35743273D01*
X52722791Y-35746581D01*
X52854629Y-35750310D01*
X52961683Y-35754527D01*
X53047204Y-35759303D01*
X53114444Y-35764707D01*
X53166654Y-35770808D01*
X53207088Y-35777676D01*
X53214040Y-35779146D01*
X53465097Y-35848042D01*
X53672108Y-35936638D01*
X53839042Y-36048047D01*
X53969870Y-36185382D01*
X54068559Y-36351755D01*
X54121871Y-36491038D01*
X54135073Y-36534263D01*
X54146077Y-36575804D01*
X54155083Y-36620548D01*
X54162292Y-36673382D01*
X54167902Y-36739191D01*
X54172115Y-36822863D01*
X54175130Y-36929283D01*
X54177147Y-37063339D01*
X54178367Y-37229916D01*
X54178988Y-37433902D01*
X54179212Y-37680183D01*
X54179240Y-37892700D01*
G36*
X47829240Y-37904865D02*
X47829202Y-38211122D01*
X47828991Y-38470808D01*
X47828455Y-38688154D01*
X47827447Y-38867388D01*
X47825817Y-39012741D01*
X47823414Y-39128441D01*
X47820091Y-39218720D01*
X47815697Y-39287806D01*
X47810084Y-39339929D01*
X47803102Y-39379318D01*
X47794601Y-39410203D01*
X47784432Y-39436815D01*
X47774353Y-39459262D01*
X47666256Y-39633118D01*
X47515173Y-39781346D01*
X47322655Y-39902753D01*
X47090251Y-39996150D01*
X47065641Y-40003676D01*
X47032597Y-40012508D01*
X47026405Y-40013746D01*
X47026405Y-38487615D01*
X47025538Y-38245961D01*
X47023970Y-37958927D01*
X47023469Y-37868899D01*
X47016440Y-36587902D01*
X46945327Y-36513693D01*
X46871473Y-36455764D01*
X46785968Y-36413244D01*
X46777280Y-36410442D01*
X46735997Y-36403859D01*
X46657986Y-36398187D01*
X46541424Y-36393395D01*
X46384489Y-36389454D01*
X46185359Y-36386331D01*
X45942211Y-36383998D01*
X45653223Y-36382423D01*
X45316572Y-36381576D01*
X45044025Y-36381400D01*
X43407703Y-36381400D01*
X43294371Y-36438550D01*
X43250021Y-36460930D01*
X43212679Y-36482483D01*
X43181742Y-36507525D01*
X43156609Y-36540371D01*
X43136678Y-36585337D01*
X43121345Y-36646738D01*
X43110008Y-36728892D01*
X43102065Y-36836113D01*
X43096914Y-36972717D01*
X43093953Y-37143020D01*
X43092578Y-37351339D01*
X43092187Y-37601988D01*
X43092179Y-37887165D01*
X43092279Y-38179421D01*
X43092856Y-38425302D01*
X43094293Y-38629231D01*
X43096974Y-38795635D01*
X43101280Y-38928937D01*
X43107595Y-39033562D01*
X43116303Y-39113934D01*
X43127787Y-39174478D01*
X43142429Y-39219620D01*
X43160614Y-39253782D01*
X43182723Y-39281390D01*
X43209140Y-39306869D01*
X43215618Y-39312672D01*
X43242391Y-39334870D01*
X43271772Y-39353989D01*
X43307525Y-39370244D01*
X43353416Y-39383850D01*
X43413208Y-39395022D01*
X43490664Y-39403975D01*
X43589549Y-39410924D01*
X43713627Y-39416086D01*
X43866662Y-39419675D01*
X44052418Y-39421905D01*
X44274659Y-39422993D01*
X44537148Y-39423154D01*
X44843651Y-39422602D01*
X45124140Y-39421790D01*
X46737040Y-39416700D01*
X46844466Y-39359300D01*
X46884816Y-39337931D01*
X46918881Y-39317663D01*
X46947169Y-39294272D01*
X46970188Y-39263530D01*
X46988445Y-39221214D01*
X47002447Y-39163098D01*
X47012703Y-39084955D01*
X47019719Y-38982561D01*
X47024003Y-38851690D01*
X47026063Y-38688117D01*
X47026405Y-38487615D01*
X47026405Y-40013746D01*
X46994428Y-40020143D01*
X46947312Y-40026684D01*
X46887426Y-40032230D01*
X46810947Y-40036883D01*
X46714052Y-40040745D01*
X46592919Y-40043917D01*
X46443724Y-40046499D01*
X46262645Y-40048592D01*
X46045859Y-40050299D01*
X45789543Y-40051720D01*
X45489874Y-40052957D01*
X45162240Y-40054050D01*
X44863975Y-40054641D01*
X44577318Y-40054567D01*
X44306850Y-40053868D01*
X44057148Y-40052587D01*
X43832792Y-40050765D01*
X43638362Y-40048444D01*
X43478437Y-40045665D01*
X43357596Y-40042470D01*
X43280417Y-40038900D01*
X43258021Y-40036759D01*
X42997089Y-39978914D01*
X42775699Y-39889576D01*
X42594016Y-39768857D01*
X42452207Y-39616867D01*
X42350436Y-39433717D01*
X42348674Y-39429400D01*
X42336393Y-39398236D01*
X42326030Y-39367407D01*
X42317422Y-39332535D01*
X42310405Y-39289241D01*
X42304817Y-39233145D01*
X42300496Y-39159869D01*
X42297279Y-39065034D01*
X42295002Y-38944262D01*
X42293504Y-38793173D01*
X42292621Y-38607389D01*
X42292192Y-38382531D01*
X42292052Y-38114221D01*
X42292040Y-37905400D01*
X42292032Y-37587044D01*
X42292369Y-37315171D01*
X42293589Y-37085462D01*
X42296233Y-36893601D01*
X42300839Y-36735270D01*
X42307947Y-36606151D01*
X42318097Y-36501928D01*
X42331827Y-36418282D01*
X42349678Y-36350896D01*
X42372188Y-36295452D01*
X42399898Y-36247635D01*
X42433345Y-36203125D01*
X42473071Y-36157605D01*
X42516303Y-36110384D01*
X42652645Y-35986518D01*
X42813976Y-35889411D01*
X43009529Y-35814167D01*
X43141840Y-35778714D01*
X43183197Y-35769833D01*
X43228748Y-35762194D01*
X43282430Y-35755704D01*
X43348180Y-35750274D01*
X43429931Y-35745811D01*
X43531620Y-35742225D01*
X43657182Y-35739425D01*
X43810554Y-35737320D01*
X43995670Y-35735818D01*
X44216467Y-35734828D01*
X44476879Y-35734260D01*
X44780843Y-35734022D01*
X45073340Y-35734011D01*
X45419119Y-35734185D01*
X45717977Y-35734632D01*
X45973790Y-35735438D01*
X46190437Y-35736689D01*
X46371796Y-35738471D01*
X46521743Y-35740870D01*
X46644158Y-35743972D01*
X46742917Y-35747862D01*
X46821898Y-35752627D01*
X46884979Y-35758352D01*
X46936039Y-35765124D01*
X46978954Y-35773029D01*
X46995037Y-35776604D01*
X47231373Y-35848127D01*
X47425455Y-35944047D01*
X47580866Y-36066857D01*
X47701188Y-36219055D01*
X47745623Y-36299382D01*
X47829240Y-36469231D01*
X47829240Y-37904865D01*
X47829240Y-37904865D01*
G37*
X47829240Y-37904865D02*
X47829202Y-38211122D01*
X47828991Y-38470808D01*
X47828455Y-38688154D01*
X47827447Y-38867388D01*
X47825817Y-39012741D01*
X47823414Y-39128441D01*
X47820091Y-39218720D01*
X47815697Y-39287806D01*
X47810084Y-39339929D01*
X47803102Y-39379318D01*
X47794601Y-39410203D01*
X47784432Y-39436815D01*
X47774353Y-39459262D01*
X47666256Y-39633118D01*
X47515173Y-39781346D01*
X47322655Y-39902753D01*
X47090251Y-39996150D01*
X47065641Y-40003676D01*
X47032597Y-40012508D01*
X47026405Y-40013746D01*
X47026405Y-38487615D01*
X47025538Y-38245961D01*
X47023970Y-37958927D01*
X47023469Y-37868899D01*
X47016440Y-36587902D01*
X46945327Y-36513693D01*
X46871473Y-36455764D01*
X46785968Y-36413244D01*
X46777280Y-36410442D01*
X46735997Y-36403859D01*
X46657986Y-36398187D01*
X46541424Y-36393395D01*
X46384489Y-36389454D01*
X46185359Y-36386331D01*
X45942211Y-36383998D01*
X45653223Y-36382423D01*
X45316572Y-36381576D01*
X45044025Y-36381400D01*
X43407703Y-36381400D01*
X43294371Y-36438550D01*
X43250021Y-36460930D01*
X43212679Y-36482483D01*
X43181742Y-36507525D01*
X43156609Y-36540371D01*
X43136678Y-36585337D01*
X43121345Y-36646738D01*
X43110008Y-36728892D01*
X43102065Y-36836113D01*
X43096914Y-36972717D01*
X43093953Y-37143020D01*
X43092578Y-37351339D01*
X43092187Y-37601988D01*
X43092179Y-37887165D01*
X43092279Y-38179421D01*
X43092856Y-38425302D01*
X43094293Y-38629231D01*
X43096974Y-38795635D01*
X43101280Y-38928937D01*
X43107595Y-39033562D01*
X43116303Y-39113934D01*
X43127787Y-39174478D01*
X43142429Y-39219620D01*
X43160614Y-39253782D01*
X43182723Y-39281390D01*
X43209140Y-39306869D01*
X43215618Y-39312672D01*
X43242391Y-39334870D01*
X43271772Y-39353989D01*
X43307525Y-39370244D01*
X43353416Y-39383850D01*
X43413208Y-39395022D01*
X43490664Y-39403975D01*
X43589549Y-39410924D01*
X43713627Y-39416086D01*
X43866662Y-39419675D01*
X44052418Y-39421905D01*
X44274659Y-39422993D01*
X44537148Y-39423154D01*
X44843651Y-39422602D01*
X45124140Y-39421790D01*
X46737040Y-39416700D01*
X46844466Y-39359300D01*
X46884816Y-39337931D01*
X46918881Y-39317663D01*
X46947169Y-39294272D01*
X46970188Y-39263530D01*
X46988445Y-39221214D01*
X47002447Y-39163098D01*
X47012703Y-39084955D01*
X47019719Y-38982561D01*
X47024003Y-38851690D01*
X47026063Y-38688117D01*
X47026405Y-38487615D01*
X47026405Y-40013746D01*
X46994428Y-40020143D01*
X46947312Y-40026684D01*
X46887426Y-40032230D01*
X46810947Y-40036883D01*
X46714052Y-40040745D01*
X46592919Y-40043917D01*
X46443724Y-40046499D01*
X46262645Y-40048592D01*
X46045859Y-40050299D01*
X45789543Y-40051720D01*
X45489874Y-40052957D01*
X45162240Y-40054050D01*
X44863975Y-40054641D01*
X44577318Y-40054567D01*
X44306850Y-40053868D01*
X44057148Y-40052587D01*
X43832792Y-40050765D01*
X43638362Y-40048444D01*
X43478437Y-40045665D01*
X43357596Y-40042470D01*
X43280417Y-40038900D01*
X43258021Y-40036759D01*
X42997089Y-39978914D01*
X42775699Y-39889576D01*
X42594016Y-39768857D01*
X42452207Y-39616867D01*
X42350436Y-39433717D01*
X42348674Y-39429400D01*
X42336393Y-39398236D01*
X42326030Y-39367407D01*
X42317422Y-39332535D01*
X42310405Y-39289241D01*
X42304817Y-39233145D01*
X42300496Y-39159869D01*
X42297279Y-39065034D01*
X42295002Y-38944262D01*
X42293504Y-38793173D01*
X42292621Y-38607389D01*
X42292192Y-38382531D01*
X42292052Y-38114221D01*
X42292040Y-37905400D01*
X42292032Y-37587044D01*
X42292369Y-37315171D01*
X42293589Y-37085462D01*
X42296233Y-36893601D01*
X42300839Y-36735270D01*
X42307947Y-36606151D01*
X42318097Y-36501928D01*
X42331827Y-36418282D01*
X42349678Y-36350896D01*
X42372188Y-36295452D01*
X42399898Y-36247635D01*
X42433345Y-36203125D01*
X42473071Y-36157605D01*
X42516303Y-36110384D01*
X42652645Y-35986518D01*
X42813976Y-35889411D01*
X43009529Y-35814167D01*
X43141840Y-35778714D01*
X43183197Y-35769833D01*
X43228748Y-35762194D01*
X43282430Y-35755704D01*
X43348180Y-35750274D01*
X43429931Y-35745811D01*
X43531620Y-35742225D01*
X43657182Y-35739425D01*
X43810554Y-35737320D01*
X43995670Y-35735818D01*
X44216467Y-35734828D01*
X44476879Y-35734260D01*
X44780843Y-35734022D01*
X45073340Y-35734011D01*
X45419119Y-35734185D01*
X45717977Y-35734632D01*
X45973790Y-35735438D01*
X46190437Y-35736689D01*
X46371796Y-35738471D01*
X46521743Y-35740870D01*
X46644158Y-35743972D01*
X46742917Y-35747862D01*
X46821898Y-35752627D01*
X46884979Y-35758352D01*
X46936039Y-35765124D01*
X46978954Y-35773029D01*
X46995037Y-35776604D01*
X47231373Y-35848127D01*
X47425455Y-35944047D01*
X47580866Y-36066857D01*
X47701188Y-36219055D01*
X47745623Y-36299382D01*
X47829240Y-36469231D01*
X47829240Y-37904865D01*
G36*
X41517625Y-40064400D02*
X41136682Y-40064400D01*
X40755739Y-40064400D01*
X40749189Y-38551496D01*
X40742640Y-37038593D01*
X39816249Y-38316546D01*
X39646902Y-38550091D01*
X39481845Y-38777586D01*
X39324280Y-38994628D01*
X39177407Y-39196814D01*
X39044428Y-39379739D01*
X38928545Y-39539001D01*
X38832957Y-39670196D01*
X38760866Y-39768920D01*
X38716449Y-39829450D01*
X38543040Y-40064400D01*
X38207740Y-40063041D01*
X37872440Y-40061682D01*
X36780240Y-38559372D01*
X35688040Y-37057062D01*
X35681488Y-38560731D01*
X35674937Y-40064400D01*
X35294138Y-40064400D01*
X34913340Y-40064400D01*
X34913340Y-37892700D01*
X34913340Y-35721000D01*
X35290039Y-35721000D01*
X35666739Y-35721000D01*
X36947389Y-37485538D01*
X37140308Y-37751089D01*
X37324801Y-38004535D01*
X37498682Y-38242898D01*
X37659760Y-38463204D01*
X37805849Y-38662474D01*
X37934758Y-38837732D01*
X38044301Y-38986002D01*
X38132287Y-39104307D01*
X38196530Y-39189670D01*
X38234839Y-39239114D01*
X38245262Y-39250838D01*
X38253259Y-39243678D01*
X38272347Y-39220802D01*
X38303774Y-39180499D01*
X38348790Y-39121058D01*
X38408643Y-39040766D01*
X38484580Y-38937912D01*
X38577852Y-38810785D01*
X38689706Y-38657672D01*
X38821390Y-38476862D01*
X38974154Y-38266643D01*
X39149246Y-38025305D01*
X39347915Y-37751134D01*
X39571408Y-37442419D01*
X39820976Y-37097449D01*
X40097865Y-36714513D01*
X40371259Y-36336268D01*
X40816895Y-35719636D01*
X41160767Y-35726668D01*
X41504640Y-35733700D01*
X41511132Y-37899050D01*
X41517625Y-40064400D01*
X41517625Y-40064400D01*
G37*
X41517625Y-40064400D02*
X41136682Y-40064400D01*
X40755739Y-40064400D01*
X40749189Y-38551496D01*
X40742640Y-37038593D01*
X39816249Y-38316546D01*
X39646902Y-38550091D01*
X39481845Y-38777586D01*
X39324280Y-38994628D01*
X39177407Y-39196814D01*
X39044428Y-39379739D01*
X38928545Y-39539001D01*
X38832957Y-39670196D01*
X38760866Y-39768920D01*
X38716449Y-39829450D01*
X38543040Y-40064400D01*
X38207740Y-40063041D01*
X37872440Y-40061682D01*
X36780240Y-38559372D01*
X35688040Y-37057062D01*
X35681488Y-38560731D01*
X35674937Y-40064400D01*
X35294138Y-40064400D01*
X34913340Y-40064400D01*
X34913340Y-37892700D01*
X34913340Y-35721000D01*
X35290039Y-35721000D01*
X35666739Y-35721000D01*
X36947389Y-37485538D01*
X37140308Y-37751089D01*
X37324801Y-38004535D01*
X37498682Y-38242898D01*
X37659760Y-38463204D01*
X37805849Y-38662474D01*
X37934758Y-38837732D01*
X38044301Y-38986002D01*
X38132287Y-39104307D01*
X38196530Y-39189670D01*
X38234839Y-39239114D01*
X38245262Y-39250838D01*
X38253259Y-39243678D01*
X38272347Y-39220802D01*
X38303774Y-39180499D01*
X38348790Y-39121058D01*
X38408643Y-39040766D01*
X38484580Y-38937912D01*
X38577852Y-38810785D01*
X38689706Y-38657672D01*
X38821390Y-38476862D01*
X38974154Y-38266643D01*
X39149246Y-38025305D01*
X39347915Y-37751134D01*
X39571408Y-37442419D01*
X39820976Y-37097449D01*
X40097865Y-36714513D01*
X40371259Y-36336268D01*
X40816895Y-35719636D01*
X41160767Y-35726668D01*
X41504640Y-35733700D01*
X41511132Y-37899050D01*
X41517625Y-40064400D01*
G04 #@! TO.C,C1*
X4562997Y-5865400D02*
X4598711Y-5901114D01*
X4634425Y-6008257D01*
X4634425Y-6079685D01*
X4598711Y-6186828D01*
X4527282Y-6258257D01*
X4455854Y-6293971D01*
X4312997Y-6329685D01*
X4205854Y-6329685D01*
X4062997Y-6293971D01*
X3991568Y-6258257D01*
X3920140Y-6186828D01*
X3884425Y-6079685D01*
X3884425Y-6008257D01*
X3920140Y-5901114D01*
X3955854Y-5865400D01*
X4634425Y-5151114D02*
X4634425Y-5579685D01*
X4634425Y-5365400D02*
X3884425Y-5365400D01*
X3991568Y-5436828D01*
X4062997Y-5508257D01*
X4098711Y-5579685D01*
G04 #@! TO.C,C3*
X22366457Y-6139900D02*
X22402171Y-6175614D01*
X22437885Y-6282757D01*
X22437885Y-6354185D01*
X22402171Y-6461328D01*
X22330742Y-6532757D01*
X22259314Y-6568471D01*
X22116457Y-6604185D01*
X22009314Y-6604185D01*
X21866457Y-6568471D01*
X21795028Y-6532757D01*
X21723600Y-6461328D01*
X21687885Y-6354185D01*
X21687885Y-6282757D01*
X21723600Y-6175614D01*
X21759314Y-6139900D01*
X21687885Y-5889900D02*
X21687885Y-5425614D01*
X21973600Y-5675614D01*
X21973600Y-5568471D01*
X22009314Y-5497042D01*
X22045028Y-5461328D01*
X22116457Y-5425614D01*
X22295028Y-5425614D01*
X22366457Y-5461328D01*
X22402171Y-5497042D01*
X22437885Y-5568471D01*
X22437885Y-5782757D01*
X22402171Y-5854185D01*
X22366457Y-5889900D01*
G04 #@! TO.C,C4*
X29212600Y-123257D02*
X29176885Y-158971D01*
X29069742Y-194685D01*
X28998314Y-194685D01*
X28891171Y-158971D01*
X28819742Y-87542D01*
X28784028Y-16114D01*
X28748314Y126743D01*
X28748314Y233886D01*
X28784028Y376743D01*
X28819742Y448172D01*
X28891171Y519600D01*
X28998314Y555315D01*
X29069742Y555315D01*
X29176885Y519600D01*
X29212600Y483886D01*
X29855457Y305315D02*
X29855457Y-194685D01*
X29676885Y591029D02*
X29498314Y55315D01*
X29962600Y55315D01*
G04 #@! TO.C,C21*
X115457457Y-57932042D02*
X115493171Y-57967757D01*
X115528885Y-58074900D01*
X115528885Y-58146328D01*
X115493171Y-58253471D01*
X115421742Y-58324900D01*
X115350314Y-58360614D01*
X115207457Y-58396328D01*
X115100314Y-58396328D01*
X114957457Y-58360614D01*
X114886028Y-58324900D01*
X114814600Y-58253471D01*
X114778885Y-58146328D01*
X114778885Y-58074900D01*
X114814600Y-57967757D01*
X114850314Y-57932042D01*
X114850314Y-57646328D02*
X114814600Y-57610614D01*
X114778885Y-57539185D01*
X114778885Y-57360614D01*
X114814600Y-57289185D01*
X114850314Y-57253471D01*
X114921742Y-57217757D01*
X114993171Y-57217757D01*
X115100314Y-57253471D01*
X115528885Y-57682042D01*
X115528885Y-57217757D01*
X115528885Y-56503471D02*
X115528885Y-56932042D01*
X115528885Y-56717757D02*
X114778885Y-56717757D01*
X114886028Y-56789185D01*
X114957457Y-56860614D01*
X114993171Y-56932042D01*
G04 #@! TO.C,C22*
X117616457Y-57932042D02*
X117652171Y-57967757D01*
X117687885Y-58074900D01*
X117687885Y-58146328D01*
X117652171Y-58253471D01*
X117580742Y-58324900D01*
X117509314Y-58360614D01*
X117366457Y-58396328D01*
X117259314Y-58396328D01*
X117116457Y-58360614D01*
X117045028Y-58324900D01*
X116973600Y-58253471D01*
X116937885Y-58146328D01*
X116937885Y-58074900D01*
X116973600Y-57967757D01*
X117009314Y-57932042D01*
X117009314Y-57646328D02*
X116973600Y-57610614D01*
X116937885Y-57539185D01*
X116937885Y-57360614D01*
X116973600Y-57289185D01*
X117009314Y-57253471D01*
X117080742Y-57217757D01*
X117152171Y-57217757D01*
X117259314Y-57253471D01*
X117687885Y-57682042D01*
X117687885Y-57217757D01*
X117009314Y-56932042D02*
X116973600Y-56896328D01*
X116937885Y-56824900D01*
X116937885Y-56646328D01*
X116973600Y-56574900D01*
X117009314Y-56539185D01*
X117080742Y-56503471D01*
X117152171Y-56503471D01*
X117259314Y-56539185D01*
X117687885Y-56967757D01*
X117687885Y-56503471D01*
G04 #@! TO.C,C37*
X130570457Y-57932042D02*
X130606171Y-57967757D01*
X130641885Y-58074900D01*
X130641885Y-58146328D01*
X130606171Y-58253471D01*
X130534742Y-58324900D01*
X130463314Y-58360614D01*
X130320457Y-58396328D01*
X130213314Y-58396328D01*
X130070457Y-58360614D01*
X129999028Y-58324900D01*
X129927600Y-58253471D01*
X129891885Y-58146328D01*
X129891885Y-58074900D01*
X129927600Y-57967757D01*
X129963314Y-57932042D01*
X129891885Y-57682042D02*
X129891885Y-57217757D01*
X130177600Y-57467757D01*
X130177600Y-57360614D01*
X130213314Y-57289185D01*
X130249028Y-57253471D01*
X130320457Y-57217757D01*
X130499028Y-57217757D01*
X130570457Y-57253471D01*
X130606171Y-57289185D01*
X130641885Y-57360614D01*
X130641885Y-57574900D01*
X130606171Y-57646328D01*
X130570457Y-57682042D01*
X129891885Y-56967757D02*
X129891885Y-56467757D01*
X130641885Y-56789185D01*
G04 #@! TO.C,C35*
X121934457Y-57932042D02*
X121970171Y-57967757D01*
X122005885Y-58074900D01*
X122005885Y-58146328D01*
X121970171Y-58253471D01*
X121898742Y-58324900D01*
X121827314Y-58360614D01*
X121684457Y-58396328D01*
X121577314Y-58396328D01*
X121434457Y-58360614D01*
X121363028Y-58324900D01*
X121291600Y-58253471D01*
X121255885Y-58146328D01*
X121255885Y-58074900D01*
X121291600Y-57967757D01*
X121327314Y-57932042D01*
X121255885Y-57682042D02*
X121255885Y-57217757D01*
X121541600Y-57467757D01*
X121541600Y-57360614D01*
X121577314Y-57289185D01*
X121613028Y-57253471D01*
X121684457Y-57217757D01*
X121863028Y-57217757D01*
X121934457Y-57253471D01*
X121970171Y-57289185D01*
X122005885Y-57360614D01*
X122005885Y-57574900D01*
X121970171Y-57646328D01*
X121934457Y-57682042D01*
X121255885Y-56539185D02*
X121255885Y-56896328D01*
X121613028Y-56932042D01*
X121577314Y-56896328D01*
X121541600Y-56824900D01*
X121541600Y-56646328D01*
X121577314Y-56574900D01*
X121613028Y-56539185D01*
X121684457Y-56503471D01*
X121863028Y-56503471D01*
X121934457Y-56539185D01*
X121970171Y-56574900D01*
X122005885Y-56646328D01*
X122005885Y-56824900D01*
X121970171Y-56896328D01*
X121934457Y-56932042D01*
G04 #@! TO.C,C23*
X119775457Y-57932042D02*
X119811171Y-57967757D01*
X119846885Y-58074900D01*
X119846885Y-58146328D01*
X119811171Y-58253471D01*
X119739742Y-58324900D01*
X119668314Y-58360614D01*
X119525457Y-58396328D01*
X119418314Y-58396328D01*
X119275457Y-58360614D01*
X119204028Y-58324900D01*
X119132600Y-58253471D01*
X119096885Y-58146328D01*
X119096885Y-58074900D01*
X119132600Y-57967757D01*
X119168314Y-57932042D01*
X119168314Y-57646328D02*
X119132600Y-57610614D01*
X119096885Y-57539185D01*
X119096885Y-57360614D01*
X119132600Y-57289185D01*
X119168314Y-57253471D01*
X119239742Y-57217757D01*
X119311171Y-57217757D01*
X119418314Y-57253471D01*
X119846885Y-57682042D01*
X119846885Y-57217757D01*
X119096885Y-56967757D02*
X119096885Y-56503471D01*
X119382600Y-56753471D01*
X119382600Y-56646328D01*
X119418314Y-56574900D01*
X119454028Y-56539185D01*
X119525457Y-56503471D01*
X119704028Y-56503471D01*
X119775457Y-56539185D01*
X119811171Y-56574900D01*
X119846885Y-56646328D01*
X119846885Y-56860614D01*
X119811171Y-56932042D01*
X119775457Y-56967757D01*
G04 #@! TO.C,C33*
X124106157Y-57932042D02*
X124141871Y-57967757D01*
X124177585Y-58074900D01*
X124177585Y-58146328D01*
X124141871Y-58253471D01*
X124070442Y-58324900D01*
X123999014Y-58360614D01*
X123856157Y-58396328D01*
X123749014Y-58396328D01*
X123606157Y-58360614D01*
X123534728Y-58324900D01*
X123463300Y-58253471D01*
X123427585Y-58146328D01*
X123427585Y-58074900D01*
X123463300Y-57967757D01*
X123499014Y-57932042D01*
X123427585Y-57682042D02*
X123427585Y-57217757D01*
X123713300Y-57467757D01*
X123713300Y-57360614D01*
X123749014Y-57289185D01*
X123784728Y-57253471D01*
X123856157Y-57217757D01*
X124034728Y-57217757D01*
X124106157Y-57253471D01*
X124141871Y-57289185D01*
X124177585Y-57360614D01*
X124177585Y-57574900D01*
X124141871Y-57646328D01*
X124106157Y-57682042D01*
X123427585Y-56967757D02*
X123427585Y-56503471D01*
X123713300Y-56753471D01*
X123713300Y-56646328D01*
X123749014Y-56574900D01*
X123784728Y-56539185D01*
X123856157Y-56503471D01*
X124034728Y-56503471D01*
X124106157Y-56539185D01*
X124141871Y-56574900D01*
X124177585Y-56646328D01*
X124177585Y-56860614D01*
X124141871Y-56932042D01*
X124106157Y-56967757D01*
G04 #@! TO.C,C31*
X126252457Y-57932042D02*
X126288171Y-57967757D01*
X126323885Y-58074900D01*
X126323885Y-58146328D01*
X126288171Y-58253471D01*
X126216742Y-58324900D01*
X126145314Y-58360614D01*
X126002457Y-58396328D01*
X125895314Y-58396328D01*
X125752457Y-58360614D01*
X125681028Y-58324900D01*
X125609600Y-58253471D01*
X125573885Y-58146328D01*
X125573885Y-58074900D01*
X125609600Y-57967757D01*
X125645314Y-57932042D01*
X125573885Y-57682042D02*
X125573885Y-57217757D01*
X125859600Y-57467757D01*
X125859600Y-57360614D01*
X125895314Y-57289185D01*
X125931028Y-57253471D01*
X126002457Y-57217757D01*
X126181028Y-57217757D01*
X126252457Y-57253471D01*
X126288171Y-57289185D01*
X126323885Y-57360614D01*
X126323885Y-57574900D01*
X126288171Y-57646328D01*
X126252457Y-57682042D01*
X126323885Y-56503471D02*
X126323885Y-56932042D01*
X126323885Y-56717757D02*
X125573885Y-56717757D01*
X125681028Y-56789185D01*
X125752457Y-56860614D01*
X125788171Y-56932042D01*
G04 #@! TO.C,C29*
X128411457Y-57932042D02*
X128447171Y-57967757D01*
X128482885Y-58074900D01*
X128482885Y-58146328D01*
X128447171Y-58253471D01*
X128375742Y-58324900D01*
X128304314Y-58360614D01*
X128161457Y-58396328D01*
X128054314Y-58396328D01*
X127911457Y-58360614D01*
X127840028Y-58324900D01*
X127768600Y-58253471D01*
X127732885Y-58146328D01*
X127732885Y-58074900D01*
X127768600Y-57967757D01*
X127804314Y-57932042D01*
X127804314Y-57646328D02*
X127768600Y-57610614D01*
X127732885Y-57539185D01*
X127732885Y-57360614D01*
X127768600Y-57289185D01*
X127804314Y-57253471D01*
X127875742Y-57217757D01*
X127947171Y-57217757D01*
X128054314Y-57253471D01*
X128482885Y-57682042D01*
X128482885Y-57217757D01*
X128482885Y-56860614D02*
X128482885Y-56717757D01*
X128447171Y-56646328D01*
X128411457Y-56610614D01*
X128304314Y-56539185D01*
X128161457Y-56503471D01*
X127875742Y-56503471D01*
X127804314Y-56539185D01*
X127768600Y-56574900D01*
X127732885Y-56646328D01*
X127732885Y-56789185D01*
X127768600Y-56860614D01*
X127804314Y-56896328D01*
X127875742Y-56932042D01*
X128054314Y-56932042D01*
X128125742Y-56896328D01*
X128161457Y-56860614D01*
X128197171Y-56789185D01*
X128197171Y-56646328D01*
X128161457Y-56574900D01*
X128125742Y-56539185D01*
X128054314Y-56503471D01*
G04 #@! TO.C,C27*
X113298457Y-57932042D02*
X113334171Y-57967757D01*
X113369885Y-58074900D01*
X113369885Y-58146328D01*
X113334171Y-58253471D01*
X113262742Y-58324900D01*
X113191314Y-58360614D01*
X113048457Y-58396328D01*
X112941314Y-58396328D01*
X112798457Y-58360614D01*
X112727028Y-58324900D01*
X112655600Y-58253471D01*
X112619885Y-58146328D01*
X112619885Y-58074900D01*
X112655600Y-57967757D01*
X112691314Y-57932042D01*
X112691314Y-57646328D02*
X112655600Y-57610614D01*
X112619885Y-57539185D01*
X112619885Y-57360614D01*
X112655600Y-57289185D01*
X112691314Y-57253471D01*
X112762742Y-57217757D01*
X112834171Y-57217757D01*
X112941314Y-57253471D01*
X113369885Y-57682042D01*
X113369885Y-57217757D01*
X112619885Y-56967757D02*
X112619885Y-56467757D01*
X113369885Y-56789185D01*
G04 #@! TO.C,C24*
X39257457Y-57932042D02*
X39293171Y-57967757D01*
X39328885Y-58074900D01*
X39328885Y-58146328D01*
X39293171Y-58253471D01*
X39221742Y-58324900D01*
X39150314Y-58360614D01*
X39007457Y-58396328D01*
X38900314Y-58396328D01*
X38757457Y-58360614D01*
X38686028Y-58324900D01*
X38614600Y-58253471D01*
X38578885Y-58146328D01*
X38578885Y-58074900D01*
X38614600Y-57967757D01*
X38650314Y-57932042D01*
X38650314Y-57646328D02*
X38614600Y-57610614D01*
X38578885Y-57539185D01*
X38578885Y-57360614D01*
X38614600Y-57289185D01*
X38650314Y-57253471D01*
X38721742Y-57217757D01*
X38793171Y-57217757D01*
X38900314Y-57253471D01*
X39328885Y-57682042D01*
X39328885Y-57217757D01*
X38828885Y-56574900D02*
X39328885Y-56574900D01*
X38543171Y-56753471D02*
X39078885Y-56932042D01*
X39078885Y-56467757D01*
G04 #@! TO.C,C25*
X41416457Y-57932042D02*
X41452171Y-57967757D01*
X41487885Y-58074900D01*
X41487885Y-58146328D01*
X41452171Y-58253471D01*
X41380742Y-58324900D01*
X41309314Y-58360614D01*
X41166457Y-58396328D01*
X41059314Y-58396328D01*
X40916457Y-58360614D01*
X40845028Y-58324900D01*
X40773600Y-58253471D01*
X40737885Y-58146328D01*
X40737885Y-58074900D01*
X40773600Y-57967757D01*
X40809314Y-57932042D01*
X40809314Y-57646328D02*
X40773600Y-57610614D01*
X40737885Y-57539185D01*
X40737885Y-57360614D01*
X40773600Y-57289185D01*
X40809314Y-57253471D01*
X40880742Y-57217757D01*
X40952171Y-57217757D01*
X41059314Y-57253471D01*
X41487885Y-57682042D01*
X41487885Y-57217757D01*
X40737885Y-56539185D02*
X40737885Y-56896328D01*
X41095028Y-56932042D01*
X41059314Y-56896328D01*
X41023600Y-56824900D01*
X41023600Y-56646328D01*
X41059314Y-56574900D01*
X41095028Y-56539185D01*
X41166457Y-56503471D01*
X41345028Y-56503471D01*
X41416457Y-56539185D01*
X41452171Y-56574900D01*
X41487885Y-56646328D01*
X41487885Y-56824900D01*
X41452171Y-56896328D01*
X41416457Y-56932042D01*
G04 #@! TO.C,C38*
X54370457Y-57932042D02*
X54406171Y-57967757D01*
X54441885Y-58074900D01*
X54441885Y-58146328D01*
X54406171Y-58253471D01*
X54334742Y-58324900D01*
X54263314Y-58360614D01*
X54120457Y-58396328D01*
X54013314Y-58396328D01*
X53870457Y-58360614D01*
X53799028Y-58324900D01*
X53727600Y-58253471D01*
X53691885Y-58146328D01*
X53691885Y-58074900D01*
X53727600Y-57967757D01*
X53763314Y-57932042D01*
X53691885Y-57682042D02*
X53691885Y-57217757D01*
X53977600Y-57467757D01*
X53977600Y-57360614D01*
X54013314Y-57289185D01*
X54049028Y-57253471D01*
X54120457Y-57217757D01*
X54299028Y-57217757D01*
X54370457Y-57253471D01*
X54406171Y-57289185D01*
X54441885Y-57360614D01*
X54441885Y-57574900D01*
X54406171Y-57646328D01*
X54370457Y-57682042D01*
X54013314Y-56789185D02*
X53977600Y-56860614D01*
X53941885Y-56896328D01*
X53870457Y-56932042D01*
X53834742Y-56932042D01*
X53763314Y-56896328D01*
X53727600Y-56860614D01*
X53691885Y-56789185D01*
X53691885Y-56646328D01*
X53727600Y-56574900D01*
X53763314Y-56539185D01*
X53834742Y-56503471D01*
X53870457Y-56503471D01*
X53941885Y-56539185D01*
X53977600Y-56574900D01*
X54013314Y-56646328D01*
X54013314Y-56789185D01*
X54049028Y-56860614D01*
X54084742Y-56896328D01*
X54156171Y-56932042D01*
X54299028Y-56932042D01*
X54370457Y-56896328D01*
X54406171Y-56860614D01*
X54441885Y-56789185D01*
X54441885Y-56646328D01*
X54406171Y-56574900D01*
X54370457Y-56539185D01*
X54299028Y-56503471D01*
X54156171Y-56503471D01*
X54084742Y-56539185D01*
X54049028Y-56574900D01*
X54013314Y-56646328D01*
G04 #@! TO.C,C36*
X45734457Y-57932042D02*
X45770171Y-57967757D01*
X45805885Y-58074900D01*
X45805885Y-58146328D01*
X45770171Y-58253471D01*
X45698742Y-58324900D01*
X45627314Y-58360614D01*
X45484457Y-58396328D01*
X45377314Y-58396328D01*
X45234457Y-58360614D01*
X45163028Y-58324900D01*
X45091600Y-58253471D01*
X45055885Y-58146328D01*
X45055885Y-58074900D01*
X45091600Y-57967757D01*
X45127314Y-57932042D01*
X45055885Y-57682042D02*
X45055885Y-57217757D01*
X45341600Y-57467757D01*
X45341600Y-57360614D01*
X45377314Y-57289185D01*
X45413028Y-57253471D01*
X45484457Y-57217757D01*
X45663028Y-57217757D01*
X45734457Y-57253471D01*
X45770171Y-57289185D01*
X45805885Y-57360614D01*
X45805885Y-57574900D01*
X45770171Y-57646328D01*
X45734457Y-57682042D01*
X45055885Y-56574900D02*
X45055885Y-56717757D01*
X45091600Y-56789185D01*
X45127314Y-56824900D01*
X45234457Y-56896328D01*
X45377314Y-56932042D01*
X45663028Y-56932042D01*
X45734457Y-56896328D01*
X45770171Y-56860614D01*
X45805885Y-56789185D01*
X45805885Y-56646328D01*
X45770171Y-56574900D01*
X45734457Y-56539185D01*
X45663028Y-56503471D01*
X45484457Y-56503471D01*
X45413028Y-56539185D01*
X45377314Y-56574900D01*
X45341600Y-56646328D01*
X45341600Y-56789185D01*
X45377314Y-56860614D01*
X45413028Y-56896328D01*
X45484457Y-56932042D01*
G04 #@! TO.C,C26*
X43575457Y-57932042D02*
X43611171Y-57967757D01*
X43646885Y-58074900D01*
X43646885Y-58146328D01*
X43611171Y-58253471D01*
X43539742Y-58324900D01*
X43468314Y-58360614D01*
X43325457Y-58396328D01*
X43218314Y-58396328D01*
X43075457Y-58360614D01*
X43004028Y-58324900D01*
X42932600Y-58253471D01*
X42896885Y-58146328D01*
X42896885Y-58074900D01*
X42932600Y-57967757D01*
X42968314Y-57932042D01*
X42968314Y-57646328D02*
X42932600Y-57610614D01*
X42896885Y-57539185D01*
X42896885Y-57360614D01*
X42932600Y-57289185D01*
X42968314Y-57253471D01*
X43039742Y-57217757D01*
X43111171Y-57217757D01*
X43218314Y-57253471D01*
X43646885Y-57682042D01*
X43646885Y-57217757D01*
X42896885Y-56574900D02*
X42896885Y-56717757D01*
X42932600Y-56789185D01*
X42968314Y-56824900D01*
X43075457Y-56896328D01*
X43218314Y-56932042D01*
X43504028Y-56932042D01*
X43575457Y-56896328D01*
X43611171Y-56860614D01*
X43646885Y-56789185D01*
X43646885Y-56646328D01*
X43611171Y-56574900D01*
X43575457Y-56539185D01*
X43504028Y-56503471D01*
X43325457Y-56503471D01*
X43254028Y-56539185D01*
X43218314Y-56574900D01*
X43182600Y-56646328D01*
X43182600Y-56789185D01*
X43218314Y-56860614D01*
X43254028Y-56896328D01*
X43325457Y-56932042D01*
G04 #@! TO.C,C34*
X47893457Y-57932042D02*
X47929171Y-57967757D01*
X47964885Y-58074900D01*
X47964885Y-58146328D01*
X47929171Y-58253471D01*
X47857742Y-58324900D01*
X47786314Y-58360614D01*
X47643457Y-58396328D01*
X47536314Y-58396328D01*
X47393457Y-58360614D01*
X47322028Y-58324900D01*
X47250600Y-58253471D01*
X47214885Y-58146328D01*
X47214885Y-58074900D01*
X47250600Y-57967757D01*
X47286314Y-57932042D01*
X47214885Y-57682042D02*
X47214885Y-57217757D01*
X47500600Y-57467757D01*
X47500600Y-57360614D01*
X47536314Y-57289185D01*
X47572028Y-57253471D01*
X47643457Y-57217757D01*
X47822028Y-57217757D01*
X47893457Y-57253471D01*
X47929171Y-57289185D01*
X47964885Y-57360614D01*
X47964885Y-57574900D01*
X47929171Y-57646328D01*
X47893457Y-57682042D01*
X47464885Y-56574900D02*
X47964885Y-56574900D01*
X47179171Y-56753471D02*
X47714885Y-56932042D01*
X47714885Y-56467757D01*
G04 #@! TO.C,C32*
X50052457Y-57932042D02*
X50088171Y-57967757D01*
X50123885Y-58074900D01*
X50123885Y-58146328D01*
X50088171Y-58253471D01*
X50016742Y-58324900D01*
X49945314Y-58360614D01*
X49802457Y-58396328D01*
X49695314Y-58396328D01*
X49552457Y-58360614D01*
X49481028Y-58324900D01*
X49409600Y-58253471D01*
X49373885Y-58146328D01*
X49373885Y-58074900D01*
X49409600Y-57967757D01*
X49445314Y-57932042D01*
X49373885Y-57682042D02*
X49373885Y-57217757D01*
X49659600Y-57467757D01*
X49659600Y-57360614D01*
X49695314Y-57289185D01*
X49731028Y-57253471D01*
X49802457Y-57217757D01*
X49981028Y-57217757D01*
X50052457Y-57253471D01*
X50088171Y-57289185D01*
X50123885Y-57360614D01*
X50123885Y-57574900D01*
X50088171Y-57646328D01*
X50052457Y-57682042D01*
X49445314Y-56932042D02*
X49409600Y-56896328D01*
X49373885Y-56824900D01*
X49373885Y-56646328D01*
X49409600Y-56574900D01*
X49445314Y-56539185D01*
X49516742Y-56503471D01*
X49588171Y-56503471D01*
X49695314Y-56539185D01*
X50123885Y-56967757D01*
X50123885Y-56503471D01*
G04 #@! TO.C,C30*
X52211457Y-57932042D02*
X52247171Y-57967757D01*
X52282885Y-58074900D01*
X52282885Y-58146328D01*
X52247171Y-58253471D01*
X52175742Y-58324900D01*
X52104314Y-58360614D01*
X51961457Y-58396328D01*
X51854314Y-58396328D01*
X51711457Y-58360614D01*
X51640028Y-58324900D01*
X51568600Y-58253471D01*
X51532885Y-58146328D01*
X51532885Y-58074900D01*
X51568600Y-57967757D01*
X51604314Y-57932042D01*
X51532885Y-57682042D02*
X51532885Y-57217757D01*
X51818600Y-57467757D01*
X51818600Y-57360614D01*
X51854314Y-57289185D01*
X51890028Y-57253471D01*
X51961457Y-57217757D01*
X52140028Y-57217757D01*
X52211457Y-57253471D01*
X52247171Y-57289185D01*
X52282885Y-57360614D01*
X52282885Y-57574900D01*
X52247171Y-57646328D01*
X52211457Y-57682042D01*
X51532885Y-56753471D02*
X51532885Y-56682042D01*
X51568600Y-56610614D01*
X51604314Y-56574900D01*
X51675742Y-56539185D01*
X51818600Y-56503471D01*
X51997171Y-56503471D01*
X52140028Y-56539185D01*
X52211457Y-56574900D01*
X52247171Y-56610614D01*
X52282885Y-56682042D01*
X52282885Y-56753471D01*
X52247171Y-56824900D01*
X52211457Y-56860614D01*
X52140028Y-56896328D01*
X51997171Y-56932042D01*
X51818600Y-56932042D01*
X51675742Y-56896328D01*
X51604314Y-56860614D01*
X51568600Y-56824900D01*
X51532885Y-56753471D01*
G04 #@! TO.C,C28*
X37098457Y-57932042D02*
X37134171Y-57967757D01*
X37169885Y-58074900D01*
X37169885Y-58146328D01*
X37134171Y-58253471D01*
X37062742Y-58324900D01*
X36991314Y-58360614D01*
X36848457Y-58396328D01*
X36741314Y-58396328D01*
X36598457Y-58360614D01*
X36527028Y-58324900D01*
X36455600Y-58253471D01*
X36419885Y-58146328D01*
X36419885Y-58074900D01*
X36455600Y-57967757D01*
X36491314Y-57932042D01*
X36491314Y-57646328D02*
X36455600Y-57610614D01*
X36419885Y-57539185D01*
X36419885Y-57360614D01*
X36455600Y-57289185D01*
X36491314Y-57253471D01*
X36562742Y-57217757D01*
X36634171Y-57217757D01*
X36741314Y-57253471D01*
X37169885Y-57682042D01*
X37169885Y-57217757D01*
X36741314Y-56789185D02*
X36705600Y-56860614D01*
X36669885Y-56896328D01*
X36598457Y-56932042D01*
X36562742Y-56932042D01*
X36491314Y-56896328D01*
X36455600Y-56860614D01*
X36419885Y-56789185D01*
X36419885Y-56646328D01*
X36455600Y-56574900D01*
X36491314Y-56539185D01*
X36562742Y-56503471D01*
X36598457Y-56503471D01*
X36669885Y-56539185D01*
X36705600Y-56574900D01*
X36741314Y-56646328D01*
X36741314Y-56789185D01*
X36777028Y-56860614D01*
X36812742Y-56896328D01*
X36884171Y-56932042D01*
X37027028Y-56932042D01*
X37098457Y-56896328D01*
X37134171Y-56860614D01*
X37169885Y-56789185D01*
X37169885Y-56646328D01*
X37134171Y-56574900D01*
X37098457Y-56539185D01*
X37027028Y-56503471D01*
X36884171Y-56503471D01*
X36812742Y-56539185D01*
X36777028Y-56574900D01*
X36741314Y-56646328D01*
G04 #@! TO.C,C9*
X75261957Y-31857400D02*
X75297671Y-31893114D01*
X75333385Y-32000257D01*
X75333385Y-32071685D01*
X75297671Y-32178828D01*
X75226242Y-32250257D01*
X75154814Y-32285971D01*
X75011957Y-32321685D01*
X74904814Y-32321685D01*
X74761957Y-32285971D01*
X74690528Y-32250257D01*
X74619100Y-32178828D01*
X74583385Y-32071685D01*
X74583385Y-32000257D01*
X74619100Y-31893114D01*
X74654814Y-31857400D01*
X75333385Y-31500257D02*
X75333385Y-31357400D01*
X75297671Y-31285971D01*
X75261957Y-31250257D01*
X75154814Y-31178828D01*
X75011957Y-31143114D01*
X74726242Y-31143114D01*
X74654814Y-31178828D01*
X74619100Y-31214542D01*
X74583385Y-31285971D01*
X74583385Y-31428828D01*
X74619100Y-31500257D01*
X74654814Y-31535971D01*
X74726242Y-31571685D01*
X74904814Y-31571685D01*
X74976242Y-31535971D01*
X75011957Y-31500257D01*
X75047671Y-31428828D01*
X75047671Y-31285971D01*
X75011957Y-31214542D01*
X74976242Y-31178828D01*
X74904814Y-31143114D01*
G04 #@! TO.C,C11*
X90565457Y-20760757D02*
X90529742Y-20796471D01*
X90422600Y-20832185D01*
X90351171Y-20832185D01*
X90244028Y-20796471D01*
X90172600Y-20725042D01*
X90136885Y-20653614D01*
X90101171Y-20510757D01*
X90101171Y-20403614D01*
X90136885Y-20260757D01*
X90172600Y-20189328D01*
X90244028Y-20117900D01*
X90351171Y-20082185D01*
X90422600Y-20082185D01*
X90529742Y-20117900D01*
X90565457Y-20153614D01*
X91279742Y-20832185D02*
X90851171Y-20832185D01*
X91065457Y-20832185D02*
X91065457Y-20082185D01*
X90994028Y-20189328D01*
X90922600Y-20260757D01*
X90851171Y-20296471D01*
X91994028Y-20832185D02*
X91565457Y-20832185D01*
X91779742Y-20832185D02*
X91779742Y-20082185D01*
X91708314Y-20189328D01*
X91636885Y-20260757D01*
X91565457Y-20296471D01*
G04 #@! TO.C,C12*
X79821257Y-12466042D02*
X79856971Y-12501757D01*
X79892685Y-12608900D01*
X79892685Y-12680328D01*
X79856971Y-12787471D01*
X79785542Y-12858900D01*
X79714114Y-12894614D01*
X79571257Y-12930328D01*
X79464114Y-12930328D01*
X79321257Y-12894614D01*
X79249828Y-12858900D01*
X79178400Y-12787471D01*
X79142685Y-12680328D01*
X79142685Y-12608900D01*
X79178400Y-12501757D01*
X79214114Y-12466042D01*
X79892685Y-11751757D02*
X79892685Y-12180328D01*
X79892685Y-11966042D02*
X79142685Y-11966042D01*
X79249828Y-12037471D01*
X79321257Y-12108900D01*
X79356971Y-12180328D01*
X79214114Y-11466042D02*
X79178400Y-11430328D01*
X79142685Y-11358900D01*
X79142685Y-11180328D01*
X79178400Y-11108900D01*
X79214114Y-11073185D01*
X79285542Y-11037471D01*
X79356971Y-11037471D01*
X79464114Y-11073185D01*
X79892685Y-11501757D01*
X79892685Y-11037471D01*
G04 #@! TO.C,C13*
X81981657Y-12478742D02*
X82017371Y-12514457D01*
X82053085Y-12621600D01*
X82053085Y-12693028D01*
X82017371Y-12800171D01*
X81945942Y-12871600D01*
X81874514Y-12907314D01*
X81731657Y-12943028D01*
X81624514Y-12943028D01*
X81481657Y-12907314D01*
X81410228Y-12871600D01*
X81338800Y-12800171D01*
X81303085Y-12693028D01*
X81303085Y-12621600D01*
X81338800Y-12514457D01*
X81374514Y-12478742D01*
X82053085Y-11764457D02*
X82053085Y-12193028D01*
X82053085Y-11978742D02*
X81303085Y-11978742D01*
X81410228Y-12050171D01*
X81481657Y-12121600D01*
X81517371Y-12193028D01*
X81303085Y-11514457D02*
X81303085Y-11050171D01*
X81588800Y-11300171D01*
X81588800Y-11193028D01*
X81624514Y-11121600D01*
X81660228Y-11085885D01*
X81731657Y-11050171D01*
X81910228Y-11050171D01*
X81981657Y-11085885D01*
X82017371Y-11121600D01*
X82053085Y-11193028D01*
X82053085Y-11407314D01*
X82017371Y-11478742D01*
X81981657Y-11514457D01*
G04 #@! TO.C,C14*
X84596457Y-31782742D02*
X84632171Y-31818457D01*
X84667885Y-31925600D01*
X84667885Y-31997028D01*
X84632171Y-32104171D01*
X84560742Y-32175600D01*
X84489314Y-32211314D01*
X84346457Y-32247028D01*
X84239314Y-32247028D01*
X84096457Y-32211314D01*
X84025028Y-32175600D01*
X83953600Y-32104171D01*
X83917885Y-31997028D01*
X83917885Y-31925600D01*
X83953600Y-31818457D01*
X83989314Y-31782742D01*
X84667885Y-31068457D02*
X84667885Y-31497028D01*
X84667885Y-31282742D02*
X83917885Y-31282742D01*
X84025028Y-31354171D01*
X84096457Y-31425600D01*
X84132171Y-31497028D01*
X84167885Y-30425600D02*
X84667885Y-30425600D01*
X83882171Y-30604171D02*
X84417885Y-30782742D01*
X84417885Y-30318457D01*
G04 #@! TO.C,C7*
X66677600Y-24316757D02*
X66641885Y-24352471D01*
X66534742Y-24388185D01*
X66463314Y-24388185D01*
X66356171Y-24352471D01*
X66284742Y-24281042D01*
X66249028Y-24209614D01*
X66213314Y-24066757D01*
X66213314Y-23959614D01*
X66249028Y-23816757D01*
X66284742Y-23745328D01*
X66356171Y-23673900D01*
X66463314Y-23638185D01*
X66534742Y-23638185D01*
X66641885Y-23673900D01*
X66677600Y-23709614D01*
X66927600Y-23638185D02*
X67427600Y-23638185D01*
X67106171Y-24388185D01*
G04 #@! TO.C,C8*
X66677600Y-28507757D02*
X66641885Y-28543471D01*
X66534742Y-28579185D01*
X66463314Y-28579185D01*
X66356171Y-28543471D01*
X66284742Y-28472042D01*
X66249028Y-28400614D01*
X66213314Y-28257757D01*
X66213314Y-28150614D01*
X66249028Y-28007757D01*
X66284742Y-27936328D01*
X66356171Y-27864900D01*
X66463314Y-27829185D01*
X66534742Y-27829185D01*
X66641885Y-27864900D01*
X66677600Y-27900614D01*
X67106171Y-28150614D02*
X67034742Y-28114900D01*
X66999028Y-28079185D01*
X66963314Y-28007757D01*
X66963314Y-27972042D01*
X66999028Y-27900614D01*
X67034742Y-27864900D01*
X67106171Y-27829185D01*
X67249028Y-27829185D01*
X67320457Y-27864900D01*
X67356171Y-27900614D01*
X67391885Y-27972042D01*
X67391885Y-28007757D01*
X67356171Y-28079185D01*
X67320457Y-28114900D01*
X67249028Y-28150614D01*
X67106171Y-28150614D01*
X67034742Y-28186328D01*
X66999028Y-28222042D01*
X66963314Y-28293471D01*
X66963314Y-28436328D01*
X66999028Y-28507757D01*
X67034742Y-28543471D01*
X67106171Y-28579185D01*
X67249028Y-28579185D01*
X67320457Y-28543471D01*
X67356171Y-28507757D01*
X67391885Y-28436328D01*
X67391885Y-28293471D01*
X67356171Y-28222042D01*
X67320457Y-28186328D01*
X67249028Y-28150614D01*
G04 #@! TO.C,C39*
X118886457Y-7627342D02*
X118922171Y-7663057D01*
X118957885Y-7770200D01*
X118957885Y-7841628D01*
X118922171Y-7948771D01*
X118850742Y-8020200D01*
X118779314Y-8055914D01*
X118636457Y-8091628D01*
X118529314Y-8091628D01*
X118386457Y-8055914D01*
X118315028Y-8020200D01*
X118243600Y-7948771D01*
X118207885Y-7841628D01*
X118207885Y-7770200D01*
X118243600Y-7663057D01*
X118279314Y-7627342D01*
X118207885Y-7377342D02*
X118207885Y-6913057D01*
X118493600Y-7163057D01*
X118493600Y-7055914D01*
X118529314Y-6984485D01*
X118565028Y-6948771D01*
X118636457Y-6913057D01*
X118815028Y-6913057D01*
X118886457Y-6948771D01*
X118922171Y-6984485D01*
X118957885Y-7055914D01*
X118957885Y-7270200D01*
X118922171Y-7341628D01*
X118886457Y-7377342D01*
X118957885Y-6555914D02*
X118957885Y-6413057D01*
X118922171Y-6341628D01*
X118886457Y-6305914D01*
X118779314Y-6234485D01*
X118636457Y-6198771D01*
X118350742Y-6198771D01*
X118279314Y-6234485D01*
X118243600Y-6270200D01*
X118207885Y-6341628D01*
X118207885Y-6484485D01*
X118243600Y-6555914D01*
X118279314Y-6591628D01*
X118350742Y-6627342D01*
X118529314Y-6627342D01*
X118600742Y-6591628D01*
X118636457Y-6555914D01*
X118672171Y-6484485D01*
X118672171Y-6341628D01*
X118636457Y-6270200D01*
X118600742Y-6234485D01*
X118529314Y-6198771D01*
G04 #@! TO.C,C41*
X42635657Y-7652742D02*
X42671371Y-7688457D01*
X42707085Y-7795600D01*
X42707085Y-7867028D01*
X42671371Y-7974171D01*
X42599942Y-8045600D01*
X42528514Y-8081314D01*
X42385657Y-8117028D01*
X42278514Y-8117028D01*
X42135657Y-8081314D01*
X42064228Y-8045600D01*
X41992800Y-7974171D01*
X41957085Y-7867028D01*
X41957085Y-7795600D01*
X41992800Y-7688457D01*
X42028514Y-7652742D01*
X42207085Y-7009885D02*
X42707085Y-7009885D01*
X41921371Y-7188457D02*
X42457085Y-7367028D01*
X42457085Y-6902742D01*
X42707085Y-6224171D02*
X42707085Y-6652742D01*
X42707085Y-6438457D02*
X41957085Y-6438457D01*
X42064228Y-6509885D01*
X42135657Y-6581314D01*
X42171371Y-6652742D01*
G04 #@! TO.C,C40*
X120893057Y-7627342D02*
X120928771Y-7663057D01*
X120964485Y-7770200D01*
X120964485Y-7841628D01*
X120928771Y-7948771D01*
X120857342Y-8020200D01*
X120785914Y-8055914D01*
X120643057Y-8091628D01*
X120535914Y-8091628D01*
X120393057Y-8055914D01*
X120321628Y-8020200D01*
X120250200Y-7948771D01*
X120214485Y-7841628D01*
X120214485Y-7770200D01*
X120250200Y-7663057D01*
X120285914Y-7627342D01*
X120464485Y-6984485D02*
X120964485Y-6984485D01*
X120178771Y-7163057D02*
X120714485Y-7341628D01*
X120714485Y-6877342D01*
X120214485Y-6448771D02*
X120214485Y-6377342D01*
X120250200Y-6305914D01*
X120285914Y-6270200D01*
X120357342Y-6234485D01*
X120500200Y-6198771D01*
X120678771Y-6198771D01*
X120821628Y-6234485D01*
X120893057Y-6270200D01*
X120928771Y-6305914D01*
X120964485Y-6377342D01*
X120964485Y-6448771D01*
X120928771Y-6520200D01*
X120893057Y-6555914D01*
X120821628Y-6591628D01*
X120678771Y-6627342D01*
X120500200Y-6627342D01*
X120357342Y-6591628D01*
X120285914Y-6555914D01*
X120250200Y-6520200D01*
X120214485Y-6448771D01*
G04 #@! TO.C,C42*
X44642257Y-7652742D02*
X44677971Y-7688457D01*
X44713685Y-7795600D01*
X44713685Y-7867028D01*
X44677971Y-7974171D01*
X44606542Y-8045600D01*
X44535114Y-8081314D01*
X44392257Y-8117028D01*
X44285114Y-8117028D01*
X44142257Y-8081314D01*
X44070828Y-8045600D01*
X43999400Y-7974171D01*
X43963685Y-7867028D01*
X43963685Y-7795600D01*
X43999400Y-7688457D01*
X44035114Y-7652742D01*
X44213685Y-7009885D02*
X44713685Y-7009885D01*
X43927971Y-7188457D02*
X44463685Y-7367028D01*
X44463685Y-6902742D01*
X44035114Y-6652742D02*
X43999400Y-6617028D01*
X43963685Y-6545600D01*
X43963685Y-6367028D01*
X43999400Y-6295600D01*
X44035114Y-6259885D01*
X44106542Y-6224171D01*
X44177971Y-6224171D01*
X44285114Y-6259885D01*
X44713685Y-6688457D01*
X44713685Y-6224171D01*
G04 #@! TO.C,P5*
X135591028Y-41199685D02*
X135591028Y-40449685D01*
X135876742Y-40449685D01*
X135948171Y-40485400D01*
X135983885Y-40521114D01*
X136019600Y-40592542D01*
X136019600Y-40699685D01*
X135983885Y-40771114D01*
X135948171Y-40806828D01*
X135876742Y-40842542D01*
X135591028Y-40842542D01*
X136698171Y-40449685D02*
X136341028Y-40449685D01*
X136305314Y-40806828D01*
X136341028Y-40771114D01*
X136412457Y-40735400D01*
X136591028Y-40735400D01*
X136662457Y-40771114D01*
X136698171Y-40806828D01*
X136733885Y-40878257D01*
X136733885Y-41056828D01*
X136698171Y-41128257D01*
X136662457Y-41163971D01*
X136591028Y-41199685D01*
X136412457Y-41199685D01*
X136341028Y-41163971D01*
X136305314Y-41128257D01*
G04 #@! TO.C,P6*
X59391028Y-41199685D02*
X59391028Y-40449685D01*
X59676742Y-40449685D01*
X59748171Y-40485400D01*
X59783885Y-40521114D01*
X59819600Y-40592542D01*
X59819600Y-40699685D01*
X59783885Y-40771114D01*
X59748171Y-40806828D01*
X59676742Y-40842542D01*
X59391028Y-40842542D01*
X60462457Y-40449685D02*
X60319600Y-40449685D01*
X60248171Y-40485400D01*
X60212457Y-40521114D01*
X60141028Y-40628257D01*
X60105314Y-40771114D01*
X60105314Y-41056828D01*
X60141028Y-41128257D01*
X60176742Y-41163971D01*
X60248171Y-41199685D01*
X60391028Y-41199685D01*
X60462457Y-41163971D01*
X60498171Y-41128257D01*
X60533885Y-41056828D01*
X60533885Y-40878257D01*
X60498171Y-40806828D01*
X60462457Y-40771114D01*
X60391028Y-40735400D01*
X60248171Y-40735400D01*
X60176742Y-40771114D01*
X60141028Y-40806828D01*
X60105314Y-40878257D01*
G04 #@! TO.C,P2*
X68983385Y-6822471D02*
X68233385Y-6822471D01*
X68233385Y-6536757D01*
X68269100Y-6465328D01*
X68304814Y-6429614D01*
X68376242Y-6393900D01*
X68483385Y-6393900D01*
X68554814Y-6429614D01*
X68590528Y-6465328D01*
X68626242Y-6536757D01*
X68626242Y-6822471D01*
X68304814Y-6108185D02*
X68269100Y-6072471D01*
X68233385Y-6001042D01*
X68233385Y-5822471D01*
X68269100Y-5751042D01*
X68304814Y-5715328D01*
X68376242Y-5679614D01*
X68447671Y-5679614D01*
X68554814Y-5715328D01*
X68983385Y-6143900D01*
X68983385Y-5679614D01*
G04 #@! TO.C,Q2*
X142590211Y-50702714D02*
X142518782Y-50667000D01*
X142447354Y-50595571D01*
X142340211Y-50488428D01*
X142268782Y-50452714D01*
X142197354Y-50452714D01*
X142233068Y-50631285D02*
X142161640Y-50595571D01*
X142090211Y-50524142D01*
X142054497Y-50381285D01*
X142054497Y-50131285D01*
X142090211Y-49988428D01*
X142161640Y-49917000D01*
X142233068Y-49881285D01*
X142375925Y-49881285D01*
X142447354Y-49917000D01*
X142518782Y-49988428D01*
X142554497Y-50131285D01*
X142554497Y-50381285D01*
X142518782Y-50524142D01*
X142447354Y-50595571D01*
X142375925Y-50631285D01*
X142233068Y-50631285D01*
X142840211Y-49952714D02*
X142875925Y-49917000D01*
X142947354Y-49881285D01*
X143125925Y-49881285D01*
X143197354Y-49917000D01*
X143233068Y-49952714D01*
X143268782Y-50024142D01*
X143268782Y-50095571D01*
X143233068Y-50202714D01*
X142804497Y-50631285D01*
X143268782Y-50631285D01*
G04 #@! TO.C,Q3*
X66402911Y-50715414D02*
X66331482Y-50679700D01*
X66260054Y-50608271D01*
X66152911Y-50501128D01*
X66081482Y-50465414D01*
X66010054Y-50465414D01*
X66045768Y-50643985D02*
X65974340Y-50608271D01*
X65902911Y-50536842D01*
X65867197Y-50393985D01*
X65867197Y-50143985D01*
X65902911Y-50001128D01*
X65974340Y-49929700D01*
X66045768Y-49893985D01*
X66188625Y-49893985D01*
X66260054Y-49929700D01*
X66331482Y-50001128D01*
X66367197Y-50143985D01*
X66367197Y-50393985D01*
X66331482Y-50536842D01*
X66260054Y-50608271D01*
X66188625Y-50643985D01*
X66045768Y-50643985D01*
X66617197Y-49893985D02*
X67081482Y-49893985D01*
X66831482Y-50179700D01*
X66938625Y-50179700D01*
X67010054Y-50215414D01*
X67045768Y-50251128D01*
X67081482Y-50322557D01*
X67081482Y-50501128D01*
X67045768Y-50572557D01*
X67010054Y-50608271D01*
X66938625Y-50643985D01*
X66724340Y-50643985D01*
X66652911Y-50608271D01*
X66617197Y-50572557D01*
G04 #@! TO.C,R13*
X142369997Y-44408285D02*
X142119997Y-44051142D01*
X141941425Y-44408285D02*
X141941425Y-43658285D01*
X142227140Y-43658285D01*
X142298568Y-43694000D01*
X142334282Y-43729714D01*
X142369997Y-43801142D01*
X142369997Y-43908285D01*
X142334282Y-43979714D01*
X142298568Y-44015428D01*
X142227140Y-44051142D01*
X141941425Y-44051142D01*
X143084282Y-44408285D02*
X142655711Y-44408285D01*
X142869997Y-44408285D02*
X142869997Y-43658285D01*
X142798568Y-43765428D01*
X142727140Y-43836857D01*
X142655711Y-43872571D01*
X143334282Y-43658285D02*
X143798568Y-43658285D01*
X143548568Y-43944000D01*
X143655711Y-43944000D01*
X143727140Y-43979714D01*
X143762854Y-44015428D01*
X143798568Y-44086857D01*
X143798568Y-44265428D01*
X143762854Y-44336857D01*
X143727140Y-44372571D01*
X143655711Y-44408285D01*
X143441425Y-44408285D01*
X143369997Y-44372571D01*
X143334282Y-44336857D01*
G04 #@! TO.C,R14*
X66182697Y-44484485D02*
X65932697Y-44127342D01*
X65754125Y-44484485D02*
X65754125Y-43734485D01*
X66039840Y-43734485D01*
X66111268Y-43770200D01*
X66146982Y-43805914D01*
X66182697Y-43877342D01*
X66182697Y-43984485D01*
X66146982Y-44055914D01*
X66111268Y-44091628D01*
X66039840Y-44127342D01*
X65754125Y-44127342D01*
X66896982Y-44484485D02*
X66468411Y-44484485D01*
X66682697Y-44484485D02*
X66682697Y-43734485D01*
X66611268Y-43841628D01*
X66539840Y-43913057D01*
X66468411Y-43948771D01*
X67539840Y-43984485D02*
X67539840Y-44484485D01*
X67361268Y-43698771D02*
X67182697Y-44234485D01*
X67646982Y-44234485D01*
G04 #@! TO.C,R15*
X85874385Y-38374042D02*
X85517242Y-38624042D01*
X85874385Y-38802614D02*
X85124385Y-38802614D01*
X85124385Y-38516900D01*
X85160100Y-38445471D01*
X85195814Y-38409757D01*
X85267242Y-38374042D01*
X85374385Y-38374042D01*
X85445814Y-38409757D01*
X85481528Y-38445471D01*
X85517242Y-38516900D01*
X85517242Y-38802614D01*
X85874385Y-37659757D02*
X85874385Y-38088328D01*
X85874385Y-37874042D02*
X85124385Y-37874042D01*
X85231528Y-37945471D01*
X85302957Y-38016900D01*
X85338671Y-38088328D01*
X85124385Y-36981185D02*
X85124385Y-37338328D01*
X85481528Y-37374042D01*
X85445814Y-37338328D01*
X85410100Y-37266900D01*
X85410100Y-37088328D01*
X85445814Y-37016900D01*
X85481528Y-36981185D01*
X85552957Y-36945471D01*
X85731528Y-36945471D01*
X85802957Y-36981185D01*
X85838671Y-37016900D01*
X85874385Y-37088328D01*
X85874385Y-37266900D01*
X85838671Y-37338328D01*
X85802957Y-37374042D01*
G04 #@! TO.C,R17*
X111888057Y872115D02*
X111638057Y1229258D01*
X111459485Y872115D02*
X111459485Y1622115D01*
X111745200Y1622115D01*
X111816628Y1586400D01*
X111852342Y1550686D01*
X111888057Y1479258D01*
X111888057Y1372115D01*
X111852342Y1300686D01*
X111816628Y1264972D01*
X111745200Y1229258D01*
X111459485Y1229258D01*
X112602342Y872115D02*
X112173771Y872115D01*
X112388057Y872115D02*
X112388057Y1622115D01*
X112316628Y1514972D01*
X112245200Y1443543D01*
X112173771Y1407829D01*
X112852342Y1622115D02*
X113352342Y1622115D01*
X113030914Y872115D01*
G04 #@! TO.C,R22*
X35637257Y821315D02*
X35387257Y1178458D01*
X35208685Y821315D02*
X35208685Y1571315D01*
X35494400Y1571315D01*
X35565828Y1535600D01*
X35601542Y1499886D01*
X35637257Y1428458D01*
X35637257Y1321315D01*
X35601542Y1249886D01*
X35565828Y1214172D01*
X35494400Y1178458D01*
X35208685Y1178458D01*
X35922971Y1499886D02*
X35958685Y1535600D01*
X36030114Y1571315D01*
X36208685Y1571315D01*
X36280114Y1535600D01*
X36315828Y1499886D01*
X36351542Y1428458D01*
X36351542Y1357029D01*
X36315828Y1249886D01*
X35887257Y821315D01*
X36351542Y821315D01*
X36637257Y1499886D02*
X36672971Y1535600D01*
X36744400Y1571315D01*
X36922971Y1571315D01*
X36994400Y1535600D01*
X37030114Y1499886D01*
X37065828Y1428458D01*
X37065828Y1357029D01*
X37030114Y1249886D01*
X36601542Y821315D01*
X37065828Y821315D01*
G04 #@! TO.C,R18*
X115901257Y-8081385D02*
X115651257Y-7724242D01*
X115472685Y-8081385D02*
X115472685Y-7331385D01*
X115758400Y-7331385D01*
X115829828Y-7367100D01*
X115865542Y-7402814D01*
X115901257Y-7474242D01*
X115901257Y-7581385D01*
X115865542Y-7652814D01*
X115829828Y-7688528D01*
X115758400Y-7724242D01*
X115472685Y-7724242D01*
X116615542Y-8081385D02*
X116186971Y-8081385D01*
X116401257Y-8081385D02*
X116401257Y-7331385D01*
X116329828Y-7438528D01*
X116258400Y-7509957D01*
X116186971Y-7545671D01*
X117044114Y-7652814D02*
X116972685Y-7617100D01*
X116936971Y-7581385D01*
X116901257Y-7509957D01*
X116901257Y-7474242D01*
X116936971Y-7402814D01*
X116972685Y-7367100D01*
X117044114Y-7331385D01*
X117186971Y-7331385D01*
X117258400Y-7367100D01*
X117294114Y-7402814D01*
X117329828Y-7474242D01*
X117329828Y-7509957D01*
X117294114Y-7581385D01*
X117258400Y-7617100D01*
X117186971Y-7652814D01*
X117044114Y-7652814D01*
X116972685Y-7688528D01*
X116936971Y-7724242D01*
X116901257Y-7795671D01*
X116901257Y-7938528D01*
X116936971Y-8009957D01*
X116972685Y-8045671D01*
X117044114Y-8081385D01*
X117186971Y-8081385D01*
X117258400Y-8045671D01*
X117294114Y-8009957D01*
X117329828Y-7938528D01*
X117329828Y-7795671D01*
X117294114Y-7724242D01*
X117258400Y-7688528D01*
X117186971Y-7652814D01*
G04 #@! TO.C,R23*
X36881857Y-9541885D02*
X36631857Y-9184742D01*
X36453285Y-9541885D02*
X36453285Y-8791885D01*
X36739000Y-8791885D01*
X36810428Y-8827600D01*
X36846142Y-8863314D01*
X36881857Y-8934742D01*
X36881857Y-9041885D01*
X36846142Y-9113314D01*
X36810428Y-9149028D01*
X36739000Y-9184742D01*
X36453285Y-9184742D01*
X37167571Y-8863314D02*
X37203285Y-8827600D01*
X37274714Y-8791885D01*
X37453285Y-8791885D01*
X37524714Y-8827600D01*
X37560428Y-8863314D01*
X37596142Y-8934742D01*
X37596142Y-9006171D01*
X37560428Y-9113314D01*
X37131857Y-9541885D01*
X37596142Y-9541885D01*
X37846142Y-8791885D02*
X38310428Y-8791885D01*
X38060428Y-9077600D01*
X38167571Y-9077600D01*
X38239000Y-9113314D01*
X38274714Y-9149028D01*
X38310428Y-9220457D01*
X38310428Y-9399028D01*
X38274714Y-9470457D01*
X38239000Y-9506171D01*
X38167571Y-9541885D01*
X37953285Y-9541885D01*
X37881857Y-9506171D01*
X37846142Y-9470457D01*
G04 #@! TO.C,R20*
X113081857Y-11269085D02*
X112831857Y-10911942D01*
X112653285Y-11269085D02*
X112653285Y-10519085D01*
X112939000Y-10519085D01*
X113010428Y-10554800D01*
X113046142Y-10590514D01*
X113081857Y-10661942D01*
X113081857Y-10769085D01*
X113046142Y-10840514D01*
X113010428Y-10876228D01*
X112939000Y-10911942D01*
X112653285Y-10911942D01*
X113367571Y-10590514D02*
X113403285Y-10554800D01*
X113474714Y-10519085D01*
X113653285Y-10519085D01*
X113724714Y-10554800D01*
X113760428Y-10590514D01*
X113796142Y-10661942D01*
X113796142Y-10733371D01*
X113760428Y-10840514D01*
X113331857Y-11269085D01*
X113796142Y-11269085D01*
X114260428Y-10519085D02*
X114331857Y-10519085D01*
X114403285Y-10554800D01*
X114439000Y-10590514D01*
X114474714Y-10661942D01*
X114510428Y-10804800D01*
X114510428Y-10983371D01*
X114474714Y-11126228D01*
X114439000Y-11197657D01*
X114403285Y-11233371D01*
X114331857Y-11269085D01*
X114260428Y-11269085D01*
X114189000Y-11233371D01*
X114153285Y-11197657D01*
X114117571Y-11126228D01*
X114081857Y-10983371D01*
X114081857Y-10804800D01*
X114117571Y-10661942D01*
X114153285Y-10590514D01*
X114189000Y-10554800D01*
X114260428Y-10519085D01*
G04 #@! TO.C,R25*
X36881857Y-11269085D02*
X36631857Y-10911942D01*
X36453285Y-11269085D02*
X36453285Y-10519085D01*
X36739000Y-10519085D01*
X36810428Y-10554800D01*
X36846142Y-10590514D01*
X36881857Y-10661942D01*
X36881857Y-10769085D01*
X36846142Y-10840514D01*
X36810428Y-10876228D01*
X36739000Y-10911942D01*
X36453285Y-10911942D01*
X37167571Y-10590514D02*
X37203285Y-10554800D01*
X37274714Y-10519085D01*
X37453285Y-10519085D01*
X37524714Y-10554800D01*
X37560428Y-10590514D01*
X37596142Y-10661942D01*
X37596142Y-10733371D01*
X37560428Y-10840514D01*
X37131857Y-11269085D01*
X37596142Y-11269085D01*
X38274714Y-10519085D02*
X37917571Y-10519085D01*
X37881857Y-10876228D01*
X37917571Y-10840514D01*
X37989000Y-10804800D01*
X38167571Y-10804800D01*
X38239000Y-10840514D01*
X38274714Y-10876228D01*
X38310428Y-10947657D01*
X38310428Y-11126228D01*
X38274714Y-11197657D01*
X38239000Y-11233371D01*
X38167571Y-11269085D01*
X37989000Y-11269085D01*
X37917571Y-11233371D01*
X37881857Y-11197657D01*
G04 #@! TO.C,R16*
X84096385Y-38374042D02*
X83739242Y-38624042D01*
X84096385Y-38802614D02*
X83346385Y-38802614D01*
X83346385Y-38516900D01*
X83382100Y-38445471D01*
X83417814Y-38409757D01*
X83489242Y-38374042D01*
X83596385Y-38374042D01*
X83667814Y-38409757D01*
X83703528Y-38445471D01*
X83739242Y-38516900D01*
X83739242Y-38802614D01*
X84096385Y-37659757D02*
X84096385Y-38088328D01*
X84096385Y-37874042D02*
X83346385Y-37874042D01*
X83453528Y-37945471D01*
X83524957Y-38016900D01*
X83560671Y-38088328D01*
X83346385Y-37016900D02*
X83346385Y-37159757D01*
X83382100Y-37231185D01*
X83417814Y-37266900D01*
X83524957Y-37338328D01*
X83667814Y-37374042D01*
X83953528Y-37374042D01*
X84024957Y-37338328D01*
X84060671Y-37302614D01*
X84096385Y-37231185D01*
X84096385Y-37088328D01*
X84060671Y-37016900D01*
X84024957Y-36981185D01*
X83953528Y-36945471D01*
X83774957Y-36945471D01*
X83703528Y-36981185D01*
X83667814Y-37016900D01*
X83632100Y-37088328D01*
X83632100Y-37231185D01*
X83667814Y-37302614D01*
X83703528Y-37338328D01*
X83774957Y-37374042D01*
G04 #@! TO.C,R19*
X122365557Y-8081385D02*
X122115557Y-7724242D01*
X121936985Y-8081385D02*
X121936985Y-7331385D01*
X122222700Y-7331385D01*
X122294128Y-7367100D01*
X122329842Y-7402814D01*
X122365557Y-7474242D01*
X122365557Y-7581385D01*
X122329842Y-7652814D01*
X122294128Y-7688528D01*
X122222700Y-7724242D01*
X121936985Y-7724242D01*
X123079842Y-8081385D02*
X122651271Y-8081385D01*
X122865557Y-8081385D02*
X122865557Y-7331385D01*
X122794128Y-7438528D01*
X122722700Y-7509957D01*
X122651271Y-7545671D01*
X123436985Y-8081385D02*
X123579842Y-8081385D01*
X123651271Y-8045671D01*
X123686985Y-8009957D01*
X123758414Y-7902814D01*
X123794128Y-7759957D01*
X123794128Y-7474242D01*
X123758414Y-7402814D01*
X123722700Y-7367100D01*
X123651271Y-7331385D01*
X123508414Y-7331385D01*
X123436985Y-7367100D01*
X123401271Y-7402814D01*
X123365557Y-7474242D01*
X123365557Y-7652814D01*
X123401271Y-7724242D01*
X123436985Y-7759957D01*
X123508414Y-7795671D01*
X123651271Y-7795671D01*
X123722700Y-7759957D01*
X123758414Y-7724242D01*
X123794128Y-7652814D01*
G04 #@! TO.C,R24*
X48819857Y-9541885D02*
X48569857Y-9184742D01*
X48391285Y-9541885D02*
X48391285Y-8791885D01*
X48677000Y-8791885D01*
X48748428Y-8827600D01*
X48784142Y-8863314D01*
X48819857Y-8934742D01*
X48819857Y-9041885D01*
X48784142Y-9113314D01*
X48748428Y-9149028D01*
X48677000Y-9184742D01*
X48391285Y-9184742D01*
X49105571Y-8863314D02*
X49141285Y-8827600D01*
X49212714Y-8791885D01*
X49391285Y-8791885D01*
X49462714Y-8827600D01*
X49498428Y-8863314D01*
X49534142Y-8934742D01*
X49534142Y-9006171D01*
X49498428Y-9113314D01*
X49069857Y-9541885D01*
X49534142Y-9541885D01*
X50177000Y-9041885D02*
X50177000Y-9541885D01*
X49998428Y-8756171D02*
X49819857Y-9291885D01*
X50284142Y-9291885D01*
G04 #@! TO.C,R21*
X125096057Y-11269085D02*
X124846057Y-10911942D01*
X124667485Y-11269085D02*
X124667485Y-10519085D01*
X124953200Y-10519085D01*
X125024628Y-10554800D01*
X125060342Y-10590514D01*
X125096057Y-10661942D01*
X125096057Y-10769085D01*
X125060342Y-10840514D01*
X125024628Y-10876228D01*
X124953200Y-10911942D01*
X124667485Y-10911942D01*
X125381771Y-10590514D02*
X125417485Y-10554800D01*
X125488914Y-10519085D01*
X125667485Y-10519085D01*
X125738914Y-10554800D01*
X125774628Y-10590514D01*
X125810342Y-10661942D01*
X125810342Y-10733371D01*
X125774628Y-10840514D01*
X125346057Y-11269085D01*
X125810342Y-11269085D01*
X126524628Y-11269085D02*
X126096057Y-11269085D01*
X126310342Y-11269085D02*
X126310342Y-10519085D01*
X126238914Y-10626228D01*
X126167485Y-10697657D01*
X126096057Y-10733371D01*
G04 #@! TO.C,R26*
X48819857Y-11269085D02*
X48569857Y-10911942D01*
X48391285Y-11269085D02*
X48391285Y-10519085D01*
X48677000Y-10519085D01*
X48748428Y-10554800D01*
X48784142Y-10590514D01*
X48819857Y-10661942D01*
X48819857Y-10769085D01*
X48784142Y-10840514D01*
X48748428Y-10876228D01*
X48677000Y-10911942D01*
X48391285Y-10911942D01*
X49105571Y-10590514D02*
X49141285Y-10554800D01*
X49212714Y-10519085D01*
X49391285Y-10519085D01*
X49462714Y-10554800D01*
X49498428Y-10590514D01*
X49534142Y-10661942D01*
X49534142Y-10733371D01*
X49498428Y-10840514D01*
X49069857Y-11269085D01*
X49534142Y-11269085D01*
X50177000Y-10519085D02*
X50034142Y-10519085D01*
X49962714Y-10554800D01*
X49927000Y-10590514D01*
X49855571Y-10697657D01*
X49819857Y-10840514D01*
X49819857Y-11126228D01*
X49855571Y-11197657D01*
X49891285Y-11233371D01*
X49962714Y-11269085D01*
X50105571Y-11269085D01*
X50177000Y-11233371D01*
X50212714Y-11197657D01*
X50248428Y-11126228D01*
X50248428Y-10947657D01*
X50212714Y-10876228D01*
X50177000Y-10840514D01*
X50105571Y-10804800D01*
X49962714Y-10804800D01*
X49891285Y-10840514D01*
X49855571Y-10876228D01*
X49819857Y-10947657D01*
G04 #@! TO.C,SW1*
X61454671Y-31716400D02*
X61490385Y-31609257D01*
X61490385Y-31430685D01*
X61454671Y-31359257D01*
X61418957Y-31323542D01*
X61347528Y-31287828D01*
X61276100Y-31287828D01*
X61204671Y-31323542D01*
X61168957Y-31359257D01*
X61133242Y-31430685D01*
X61097528Y-31573542D01*
X61061814Y-31644971D01*
X61026100Y-31680685D01*
X60954671Y-31716400D01*
X60883242Y-31716400D01*
X60811814Y-31680685D01*
X60776100Y-31644971D01*
X60740385Y-31573542D01*
X60740385Y-31394971D01*
X60776100Y-31287828D01*
X60740385Y-31037828D02*
X61490385Y-30859257D01*
X60954671Y-30716400D01*
X61490385Y-30573542D01*
X60740385Y-30394971D01*
X61490385Y-29716400D02*
X61490385Y-30144971D01*
X61490385Y-29930685D02*
X60740385Y-29930685D01*
X60847528Y-30002114D01*
X60918957Y-30073542D01*
X60954671Y-30144971D01*
G04 #@! TO.C,U2*
X21604071Y-8537885D02*
X21604071Y-9145028D01*
X21639785Y-9216457D01*
X21675500Y-9252171D01*
X21746928Y-9287885D01*
X21889785Y-9287885D01*
X21961214Y-9252171D01*
X21996928Y-9216457D01*
X22032642Y-9145028D01*
X22032642Y-8537885D01*
X22354071Y-8609314D02*
X22389785Y-8573600D01*
X22461214Y-8537885D01*
X22639785Y-8537885D01*
X22711214Y-8573600D01*
X22746928Y-8609314D01*
X22782642Y-8680742D01*
X22782642Y-8752171D01*
X22746928Y-8859314D01*
X22318357Y-9287885D01*
X22782642Y-9287885D01*
G04 #@! TO.C,U4*
X74164285Y-15819228D02*
X74771428Y-15819228D01*
X74842857Y-15783514D01*
X74878571Y-15747800D01*
X74914285Y-15676371D01*
X74914285Y-15533514D01*
X74878571Y-15462085D01*
X74842857Y-15426371D01*
X74771428Y-15390657D01*
X74164285Y-15390657D01*
X74414285Y-14712085D02*
X74914285Y-14712085D01*
X74128571Y-14890657D02*
X74664285Y-15069228D01*
X74664285Y-14604942D01*
G04 #@! TO.C,U5*
X143904371Y-38415485D02*
X143904371Y-39022628D01*
X143940085Y-39094057D01*
X143975800Y-39129771D01*
X144047228Y-39165485D01*
X144190085Y-39165485D01*
X144261514Y-39129771D01*
X144297228Y-39094057D01*
X144332942Y-39022628D01*
X144332942Y-38415485D01*
X145047228Y-38415485D02*
X144690085Y-38415485D01*
X144654371Y-38772628D01*
X144690085Y-38736914D01*
X144761514Y-38701200D01*
X144940085Y-38701200D01*
X145011514Y-38736914D01*
X145047228Y-38772628D01*
X145082942Y-38844057D01*
X145082942Y-39022628D01*
X145047228Y-39094057D01*
X145011514Y-39129771D01*
X144940085Y-39165485D01*
X144761514Y-39165485D01*
X144690085Y-39129771D01*
X144654371Y-39094057D01*
G04 #@! TO.C,Y1*
X68638942Y-26425342D02*
X68996085Y-26425342D01*
X68246085Y-26675342D02*
X68638942Y-26425342D01*
X68246085Y-26175342D01*
X68996085Y-25532485D02*
X68996085Y-25961057D01*
X68996085Y-25746771D02*
X68246085Y-25746771D01*
X68353228Y-25818200D01*
X68424657Y-25889628D01*
X68460371Y-25961057D01*
G04 #@! TO.C,P7*
X89998028Y-43184185D02*
X89998028Y-42434185D01*
X90283742Y-42434185D01*
X90355171Y-42469900D01*
X90390885Y-42505614D01*
X90426600Y-42577042D01*
X90426600Y-42684185D01*
X90390885Y-42755614D01*
X90355171Y-42791328D01*
X90283742Y-42827042D01*
X89998028Y-42827042D01*
X90676600Y-42434185D02*
X91176600Y-42434185D01*
X90855171Y-43184185D01*
G04 #@! TO.C,P8*
X71837028Y-43184185D02*
X71837028Y-42434185D01*
X72122742Y-42434185D01*
X72194171Y-42469900D01*
X72229885Y-42505614D01*
X72265600Y-42577042D01*
X72265600Y-42684185D01*
X72229885Y-42755614D01*
X72194171Y-42791328D01*
X72122742Y-42827042D01*
X71837028Y-42827042D01*
X72694171Y-42755614D02*
X72622742Y-42719900D01*
X72587028Y-42684185D01*
X72551314Y-42612757D01*
X72551314Y-42577042D01*
X72587028Y-42505614D01*
X72622742Y-42469900D01*
X72694171Y-42434185D01*
X72837028Y-42434185D01*
X72908457Y-42469900D01*
X72944171Y-42505614D01*
X72979885Y-42577042D01*
X72979885Y-42612757D01*
X72944171Y-42684185D01*
X72908457Y-42719900D01*
X72837028Y-42755614D01*
X72694171Y-42755614D01*
X72622742Y-42791328D01*
X72587028Y-42827042D01*
X72551314Y-42898471D01*
X72551314Y-43041328D01*
X72587028Y-43112757D01*
X72622742Y-43148471D01*
X72694171Y-43184185D01*
X72837028Y-43184185D01*
X72908457Y-43148471D01*
X72944171Y-43112757D01*
X72979885Y-43041328D01*
X72979885Y-42898471D01*
X72944171Y-42827042D01*
X72908457Y-42791328D01*
X72837028Y-42755614D01*
G04 #@! TO.C,C2*
X19740340Y-3480957D02*
X19704625Y-3516671D01*
X19597482Y-3552385D01*
X19526054Y-3552385D01*
X19418911Y-3516671D01*
X19347482Y-3445242D01*
X19311768Y-3373814D01*
X19276054Y-3230957D01*
X19276054Y-3123814D01*
X19311768Y-2980957D01*
X19347482Y-2909528D01*
X19418911Y-2838100D01*
X19526054Y-2802385D01*
X19597482Y-2802385D01*
X19704625Y-2838100D01*
X19740340Y-2873814D01*
X20026054Y-2873814D02*
X20061768Y-2838100D01*
X20133197Y-2802385D01*
X20311768Y-2802385D01*
X20383197Y-2838100D01*
X20418911Y-2873814D01*
X20454625Y-2945242D01*
X20454625Y-3016671D01*
X20418911Y-3123814D01*
X19990340Y-3552385D01*
X20454625Y-3552385D01*
G04 #@! TO.C,D1*
X61553885Y-13426471D02*
X60803885Y-13426471D01*
X60803885Y-13247900D01*
X60839600Y-13140757D01*
X60911028Y-13069328D01*
X60982457Y-13033614D01*
X61125314Y-12997900D01*
X61232457Y-12997900D01*
X61375314Y-13033614D01*
X61446742Y-13069328D01*
X61518171Y-13140757D01*
X61553885Y-13247900D01*
X61553885Y-13426471D01*
X61553885Y-12283614D02*
X61553885Y-12712185D01*
X61553885Y-12497900D02*
X60803885Y-12497900D01*
X60911028Y-12569328D01*
X60982457Y-12640757D01*
X61018171Y-12712185D01*
G04 #@! TO.C,D2*
X72233885Y-18646171D02*
X71483885Y-18646171D01*
X71483885Y-18467600D01*
X71519600Y-18360457D01*
X71591028Y-18289028D01*
X71662457Y-18253314D01*
X71805314Y-18217600D01*
X71912457Y-18217600D01*
X72055314Y-18253314D01*
X72126742Y-18289028D01*
X72198171Y-18360457D01*
X72233885Y-18467600D01*
X72233885Y-18646171D01*
X71555314Y-17931885D02*
X71519600Y-17896171D01*
X71483885Y-17824742D01*
X71483885Y-17646171D01*
X71519600Y-17574742D01*
X71555314Y-17539028D01*
X71626742Y-17503314D01*
X71698171Y-17503314D01*
X71805314Y-17539028D01*
X72233885Y-17967600D01*
X72233885Y-17503314D01*
G04 #@! TO.C,Q1*
X92601314Y-25009328D02*
X92565600Y-25080757D01*
X92494171Y-25152185D01*
X92387028Y-25259328D01*
X92351314Y-25330757D01*
X92351314Y-25402185D01*
X92529885Y-25366471D02*
X92494171Y-25437900D01*
X92422742Y-25509328D01*
X92279885Y-25545042D01*
X92029885Y-25545042D01*
X91887028Y-25509328D01*
X91815600Y-25437900D01*
X91779885Y-25366471D01*
X91779885Y-25223614D01*
X91815600Y-25152185D01*
X91887028Y-25080757D01*
X92029885Y-25045042D01*
X92279885Y-25045042D01*
X92422742Y-25080757D01*
X92494171Y-25152185D01*
X92529885Y-25223614D01*
X92529885Y-25366471D01*
X92529885Y-24330757D02*
X92529885Y-24759328D01*
X92529885Y-24545042D02*
X91779885Y-24545042D01*
X91887028Y-24616471D01*
X91958457Y-24687900D01*
X91994171Y-24759328D01*
G04 #@! TO.C,R1*
X65534600Y-11942185D02*
X65284600Y-11585042D01*
X65106028Y-11942185D02*
X65106028Y-11192185D01*
X65391742Y-11192185D01*
X65463171Y-11227900D01*
X65498885Y-11263614D01*
X65534600Y-11335042D01*
X65534600Y-11442185D01*
X65498885Y-11513614D01*
X65463171Y-11549328D01*
X65391742Y-11585042D01*
X65106028Y-11585042D01*
X66248885Y-11942185D02*
X65820314Y-11942185D01*
X66034600Y-11942185D02*
X66034600Y-11192185D01*
X65963171Y-11299328D01*
X65891742Y-11370757D01*
X65820314Y-11406471D01*
G04 #@! TO.C,R2*
X68729385Y-17125400D02*
X68372242Y-17375400D01*
X68729385Y-17553971D02*
X67979385Y-17553971D01*
X67979385Y-17268257D01*
X68015100Y-17196828D01*
X68050814Y-17161114D01*
X68122242Y-17125400D01*
X68229385Y-17125400D01*
X68300814Y-17161114D01*
X68336528Y-17196828D01*
X68372242Y-17268257D01*
X68372242Y-17553971D01*
X68050814Y-16839685D02*
X68015100Y-16803971D01*
X67979385Y-16732542D01*
X67979385Y-16553971D01*
X68015100Y-16482542D01*
X68050814Y-16446828D01*
X68122242Y-16411114D01*
X68193671Y-16411114D01*
X68300814Y-16446828D01*
X68729385Y-16875400D01*
X68729385Y-16411114D01*
G04 #@! TO.C,R3*
X68729385Y-18966900D02*
X68372242Y-19216900D01*
X68729385Y-19395471D02*
X67979385Y-19395471D01*
X67979385Y-19109757D01*
X68015100Y-19038328D01*
X68050814Y-19002614D01*
X68122242Y-18966900D01*
X68229385Y-18966900D01*
X68300814Y-19002614D01*
X68336528Y-19038328D01*
X68372242Y-19109757D01*
X68372242Y-19395471D01*
X67979385Y-18716900D02*
X67979385Y-18252614D01*
X68265100Y-18502614D01*
X68265100Y-18395471D01*
X68300814Y-18324042D01*
X68336528Y-18288328D01*
X68407957Y-18252614D01*
X68586528Y-18252614D01*
X68657957Y-18288328D01*
X68693671Y-18324042D01*
X68729385Y-18395471D01*
X68729385Y-18609757D01*
X68693671Y-18681185D01*
X68657957Y-18716900D01*
G04 #@! TO.C,R4*
X158816100Y-9135485D02*
X158566100Y-8778342D01*
X158387528Y-9135485D02*
X158387528Y-8385485D01*
X158673242Y-8385485D01*
X158744671Y-8421200D01*
X158780385Y-8456914D01*
X158816100Y-8528342D01*
X158816100Y-8635485D01*
X158780385Y-8706914D01*
X158744671Y-8742628D01*
X158673242Y-8778342D01*
X158387528Y-8778342D01*
X159458957Y-8635485D02*
X159458957Y-9135485D01*
X159280385Y-8349771D02*
X159101814Y-8885485D01*
X159566100Y-8885485D01*
G04 #@! TO.C,R6*
X156288800Y-9135485D02*
X156038800Y-8778342D01*
X155860228Y-9135485D02*
X155860228Y-8385485D01*
X156145942Y-8385485D01*
X156217371Y-8421200D01*
X156253085Y-8456914D01*
X156288800Y-8528342D01*
X156288800Y-8635485D01*
X156253085Y-8706914D01*
X156217371Y-8742628D01*
X156145942Y-8778342D01*
X155860228Y-8778342D01*
X156931657Y-8385485D02*
X156788800Y-8385485D01*
X156717371Y-8421200D01*
X156681657Y-8456914D01*
X156610228Y-8564057D01*
X156574514Y-8706914D01*
X156574514Y-8992628D01*
X156610228Y-9064057D01*
X156645942Y-9099771D01*
X156717371Y-9135485D01*
X156860228Y-9135485D01*
X156931657Y-9099771D01*
X156967371Y-9064057D01*
X157003085Y-8992628D01*
X157003085Y-8814057D01*
X156967371Y-8742628D01*
X156931657Y-8706914D01*
X156860228Y-8671200D01*
X156717371Y-8671200D01*
X156645942Y-8706914D01*
X156610228Y-8742628D01*
X156574514Y-8814057D01*
G04 #@! TO.C,R9*
X153139200Y-9135485D02*
X152889200Y-8778342D01*
X152710628Y-9135485D02*
X152710628Y-8385485D01*
X152996342Y-8385485D01*
X153067771Y-8421200D01*
X153103485Y-8456914D01*
X153139200Y-8528342D01*
X153139200Y-8635485D01*
X153103485Y-8706914D01*
X153067771Y-8742628D01*
X152996342Y-8778342D01*
X152710628Y-8778342D01*
X153496342Y-9135485D02*
X153639200Y-9135485D01*
X153710628Y-9099771D01*
X153746342Y-9064057D01*
X153817771Y-8956914D01*
X153853485Y-8814057D01*
X153853485Y-8528342D01*
X153817771Y-8456914D01*
X153782057Y-8421200D01*
X153710628Y-8385485D01*
X153567771Y-8385485D01*
X153496342Y-8421200D01*
X153460628Y-8456914D01*
X153424914Y-8528342D01*
X153424914Y-8706914D01*
X153460628Y-8778342D01*
X153496342Y-8814057D01*
X153567771Y-8849771D01*
X153710628Y-8849771D01*
X153782057Y-8814057D01*
X153817771Y-8778342D01*
X153853485Y-8706914D01*
G04 #@! TO.C,R11*
X59712385Y-18562042D02*
X59355242Y-18812042D01*
X59712385Y-18990614D02*
X58962385Y-18990614D01*
X58962385Y-18704900D01*
X58998100Y-18633471D01*
X59033814Y-18597757D01*
X59105242Y-18562042D01*
X59212385Y-18562042D01*
X59283814Y-18597757D01*
X59319528Y-18633471D01*
X59355242Y-18704900D01*
X59355242Y-18990614D01*
X59712385Y-17847757D02*
X59712385Y-18276328D01*
X59712385Y-18062042D02*
X58962385Y-18062042D01*
X59069528Y-18133471D01*
X59140957Y-18204900D01*
X59176671Y-18276328D01*
X59712385Y-17133471D02*
X59712385Y-17562042D01*
X59712385Y-17347757D02*
X58962385Y-17347757D01*
X59069528Y-17419185D01*
X59140957Y-17490614D01*
X59176671Y-17562042D01*
G04 #@! TO.C,U1*
X5792571Y-8537885D02*
X5792571Y-9145028D01*
X5828285Y-9216457D01*
X5864000Y-9252171D01*
X5935428Y-9287885D01*
X6078285Y-9287885D01*
X6149714Y-9252171D01*
X6185428Y-9216457D01*
X6221142Y-9145028D01*
X6221142Y-8537885D01*
X6971142Y-9287885D02*
X6542571Y-9287885D01*
X6756857Y-9287885D02*
X6756857Y-8537885D01*
X6685428Y-8645028D01*
X6614000Y-8716457D01*
X6542571Y-8752171D01*
G04 #@! TO.C,U3*
X60867385Y-15539828D02*
X61474528Y-15539828D01*
X61545957Y-15504114D01*
X61581671Y-15468400D01*
X61617385Y-15396971D01*
X61617385Y-15254114D01*
X61581671Y-15182685D01*
X61545957Y-15146971D01*
X61474528Y-15111257D01*
X60867385Y-15111257D01*
X60867385Y-14825542D02*
X60867385Y-14361257D01*
X61153100Y-14611257D01*
X61153100Y-14504114D01*
X61188814Y-14432685D01*
X61224528Y-14396971D01*
X61295957Y-14361257D01*
X61474528Y-14361257D01*
X61545957Y-14396971D01*
X61581671Y-14432685D01*
X61617385Y-14504114D01*
X61617385Y-14718400D01*
X61581671Y-14789828D01*
X61545957Y-14825542D01*
G04 #@! TO.C,P4*
X132641285Y1534129D02*
X131891285Y1534129D01*
X131891285Y1819843D01*
X131927000Y1891272D01*
X131962714Y1926986D01*
X132034142Y1962700D01*
X132141285Y1962700D01*
X132212714Y1926986D01*
X132248428Y1891272D01*
X132284142Y1819843D01*
X132284142Y1534129D01*
X132141285Y2605558D02*
X132641285Y2605558D01*
X131855571Y2426986D02*
X132391285Y2248415D01*
X132391285Y2712700D01*
G04 #@! TO.C,GLCD1*
X107346400Y-48651685D02*
X107310685Y-48723114D01*
X107310685Y-48830257D01*
X107346400Y-48937400D01*
X107417828Y-49008828D01*
X107489257Y-49044542D01*
X107632114Y-49080257D01*
X107739257Y-49080257D01*
X107882114Y-49044542D01*
X107953542Y-49008828D01*
X108024971Y-48937400D01*
X108060685Y-48830257D01*
X108060685Y-48758828D01*
X108024971Y-48651685D01*
X107989257Y-48615971D01*
X107739257Y-48615971D01*
X107739257Y-48758828D01*
X108060685Y-47937400D02*
X108060685Y-48294542D01*
X107310685Y-48294542D01*
X107989257Y-47258828D02*
X108024971Y-47294542D01*
X108060685Y-47401685D01*
X108060685Y-47473114D01*
X108024971Y-47580257D01*
X107953542Y-47651685D01*
X107882114Y-47687400D01*
X107739257Y-47723114D01*
X107632114Y-47723114D01*
X107489257Y-47687400D01*
X107417828Y-47651685D01*
X107346400Y-47580257D01*
X107310685Y-47473114D01*
X107310685Y-47401685D01*
X107346400Y-47294542D01*
X107382114Y-47258828D01*
X108060685Y-46937400D02*
X107310685Y-46937400D01*
X107310685Y-46758828D01*
X107346400Y-46651685D01*
X107417828Y-46580257D01*
X107489257Y-46544542D01*
X107632114Y-46508828D01*
X107739257Y-46508828D01*
X107882114Y-46544542D01*
X107953542Y-46580257D01*
X108024971Y-46651685D01*
X108060685Y-46758828D01*
X108060685Y-46937400D01*
X108060685Y-45794542D02*
X108060685Y-46223114D01*
X108060685Y-46008828D02*
X107310685Y-46008828D01*
X107417828Y-46080257D01*
X107489257Y-46151685D01*
X107524971Y-46223114D01*
G04 #@! TO.C,GLCD2*
X31197200Y-48651685D02*
X31161485Y-48723114D01*
X31161485Y-48830257D01*
X31197200Y-48937400D01*
X31268628Y-49008828D01*
X31340057Y-49044542D01*
X31482914Y-49080257D01*
X31590057Y-49080257D01*
X31732914Y-49044542D01*
X31804342Y-49008828D01*
X31875771Y-48937400D01*
X31911485Y-48830257D01*
X31911485Y-48758828D01*
X31875771Y-48651685D01*
X31840057Y-48615971D01*
X31590057Y-48615971D01*
X31590057Y-48758828D01*
X31911485Y-47937400D02*
X31911485Y-48294542D01*
X31161485Y-48294542D01*
X31840057Y-47258828D02*
X31875771Y-47294542D01*
X31911485Y-47401685D01*
X31911485Y-47473114D01*
X31875771Y-47580257D01*
X31804342Y-47651685D01*
X31732914Y-47687400D01*
X31590057Y-47723114D01*
X31482914Y-47723114D01*
X31340057Y-47687400D01*
X31268628Y-47651685D01*
X31197200Y-47580257D01*
X31161485Y-47473114D01*
X31161485Y-47401685D01*
X31197200Y-47294542D01*
X31232914Y-47258828D01*
X31911485Y-46937400D02*
X31161485Y-46937400D01*
X31161485Y-46758828D01*
X31197200Y-46651685D01*
X31268628Y-46580257D01*
X31340057Y-46544542D01*
X31482914Y-46508828D01*
X31590057Y-46508828D01*
X31732914Y-46544542D01*
X31804342Y-46580257D01*
X31875771Y-46651685D01*
X31911485Y-46758828D01*
X31911485Y-46937400D01*
X31232914Y-46223114D02*
X31197200Y-46187400D01*
X31161485Y-46115971D01*
X31161485Y-45937400D01*
X31197200Y-45865971D01*
X31232914Y-45830257D01*
X31304342Y-45794542D01*
X31375771Y-45794542D01*
X31482914Y-45830257D01*
X31911485Y-46258828D01*
X31911485Y-45794542D01*
G04 #@! TO.C,R45*
D11*
X135503682Y-55011580D02*
X135170349Y-54535390D01*
X134932254Y-55011580D02*
X134932254Y-54011580D01*
X135313206Y-54011580D01*
X135408444Y-54059200D01*
X135456063Y-54106819D01*
X135503682Y-54202057D01*
X135503682Y-54344914D01*
X135456063Y-54440152D01*
X135408444Y-54487771D01*
X135313206Y-54535390D01*
X134932254Y-54535390D01*
X136360825Y-54344914D02*
X136360825Y-55011580D01*
X136122730Y-53963961D02*
X135884635Y-54678247D01*
X136503682Y-54678247D01*
X137360825Y-54011580D02*
X136884635Y-54011580D01*
X136837016Y-54487771D01*
X136884635Y-54440152D01*
X136979873Y-54392533D01*
X137217968Y-54392533D01*
X137313206Y-54440152D01*
X137360825Y-54487771D01*
X137408444Y-54583009D01*
X137408444Y-54821104D01*
X137360825Y-54916342D01*
X137313206Y-54963961D01*
X137217968Y-55011580D01*
X136979873Y-55011580D01*
X136884635Y-54963961D01*
X136837016Y-54916342D01*
G04 #@! TO.C,R46*
X59303682Y-55011580D02*
X58970349Y-54535390D01*
X58732254Y-55011580D02*
X58732254Y-54011580D01*
X59113206Y-54011580D01*
X59208444Y-54059200D01*
X59256063Y-54106819D01*
X59303682Y-54202057D01*
X59303682Y-54344914D01*
X59256063Y-54440152D01*
X59208444Y-54487771D01*
X59113206Y-54535390D01*
X58732254Y-54535390D01*
X60160825Y-54344914D02*
X60160825Y-55011580D01*
X59922730Y-53963961D02*
X59684635Y-54678247D01*
X60303682Y-54678247D01*
X61113206Y-54011580D02*
X60922730Y-54011580D01*
X60827492Y-54059200D01*
X60779873Y-54106819D01*
X60684635Y-54249676D01*
X60637016Y-54440152D01*
X60637016Y-54821104D01*
X60684635Y-54916342D01*
X60732254Y-54963961D01*
X60827492Y-55011580D01*
X61017968Y-55011580D01*
X61113206Y-54963961D01*
X61160825Y-54916342D01*
X61208444Y-54821104D01*
X61208444Y-54583009D01*
X61160825Y-54487771D01*
X61113206Y-54440152D01*
X61017968Y-54392533D01*
X60827492Y-54392533D01*
X60732254Y-54440152D01*
X60684635Y-54487771D01*
X60637016Y-54583009D01*
G04 #@! TO.C,P1*
X13457644Y-8174380D02*
X13457644Y-7174380D01*
X13838597Y-7174380D01*
X13933835Y-7222000D01*
X13981454Y-7269619D01*
X14029073Y-7364857D01*
X14029073Y-7507714D01*
X13981454Y-7602952D01*
X13933835Y-7650571D01*
X13838597Y-7698190D01*
X13457644Y-7698190D01*
X14981454Y-8174380D02*
X14410025Y-8174380D01*
X14695740Y-8174380D02*
X14695740Y-7174380D01*
X14600501Y-7317238D01*
X14505263Y-7412476D01*
X14410025Y-7460095D01*
G04 #@! TO.C,R47*
D12*
X138797225Y-35127742D02*
X138440082Y-35377742D01*
X138797225Y-35556314D02*
X138047225Y-35556314D01*
X138047225Y-35270600D01*
X138082940Y-35199171D01*
X138118654Y-35163457D01*
X138190082Y-35127742D01*
X138297225Y-35127742D01*
X138368654Y-35163457D01*
X138404368Y-35199171D01*
X138440082Y-35270600D01*
X138440082Y-35556314D01*
X138297225Y-34484885D02*
X138797225Y-34484885D01*
X138011511Y-34663457D02*
X138547225Y-34842028D01*
X138547225Y-34377742D01*
X138047225Y-34163457D02*
X138047225Y-33663457D01*
X138797225Y-33984885D01*
G04 #@! TD*
M02*
