M48
;DRILL file {KiCad 5.0.2-bee76a0~70~ubuntu18.04.1} date Mon 15 Apr 2019 02:09:00 PM CEST
;FORMAT={-:-/ absolute / metric / decimal}
FMAT,2
METRIC,TZ
T1C0.300
T2C0.375
T3C0.450
T4C0.650
T5C0.675
T6C0.950
T7C1.000
T8C1.016
T9C1.800
T10C3.500
%
G90
G05
T1
X6.048Y-49.593
X6.048Y-50.686
X6.048Y-51.791
X6.2Y-29.54
X6.2Y-30.645
X6.2Y-31.737
X9.362Y-28.969
X9.362Y-30.645
X9.362Y-32.322
X9.362Y-48.997
X9.362Y-50.686
X9.362Y-52.362
X36.831Y-54.415
X39.688Y-46.274
X43.384Y-7.78
X44.895Y-47.417
X46.127Y-7.78
X64.453Y-21.509
X66.612Y-12.873
X68.225Y-13.419
X70.105Y-12.174
X72.454Y-12.174
X73.254Y-23.35
X73.305Y-14.283
X74.423Y-12.174
X75.998Y-18.143
X76.137Y-20.048
X76.137Y-21.699
X76.455Y-12.174
X76.633Y-18.842
X77.776Y-18.969
X78.487Y-33.536
X78.729Y-18.969
X79.82Y-20.81
X80.455Y-26.906
X80.773Y-25.001
X81.852Y-26.906
X82.106Y-23.414
X82.741Y-26.779
X82.906Y-33.536
X83.541Y-24.976
X83.541Y-26.856
X83.757Y-35.479
X84.329Y-26.779
X84.519Y-19.794
X84.646Y-23.414
X85.154Y-11.412
X85.154Y-12.365
X85.154Y-20.302
X85.522Y-35.492
X85.662Y-26.779
X85.726Y-20.81
X86.043Y-12.365
X86.043Y-13.254
X86.932Y-13.254
X87.047Y-14.524
X88.317Y-15.032
X88.393Y-27.478
X89.028Y-28.176
X89.27Y-15.032
X90.286Y-15.032
X90.298Y-16.302
X91.187Y-16.302
X91.568Y-26.398
X92.076Y-16.302
X93.588Y-25.319
X96.394Y-25.636
X96.902Y-14.206
X96.902Y-18.651
X97.791Y-18.651
X97.854Y-14.206
X112.37Y-0.617
X113.729Y-13.762
X114.745Y-13.762
X115.38Y-46.782
X115.621Y-6.866
X118.903Y-46.816
X123.597Y-6.866
X123.699Y-13.698
X127.638Y-48.59
X139.83Y-37.135
X142.685Y-33.904
X142.685Y-35.2
X146.254Y-29.065
X146.254Y-29.98
X146.254Y-30.894
X146.254Y-31.809
X146.254Y-32.774
X146.254Y-33.688
X148.605Y-37.16
X148.605Y-39.637
X149.736Y-29.997
X149.99Y-32.601
X150.485Y-30.658
X150.637Y-33.249
X151.285Y-33.896
X152.034Y-31.305
X153.264Y-6.967
X156.401Y-6.967
X158.041Y-33.198
X158.941Y-6.967
T2
X76.137Y-24.366
T3
X1.549Y-27.559
X1.549Y-34.823
X1.549Y-46.253
X13.691Y-46.253
X19.99Y-27.559
X19.99Y-34.823
X19.99Y-46.203
X27.457Y-27.559
X27.457Y-34.823
X27.457Y-46.253
X27.457Y-55.042
X31.168Y-3.378
X33.655Y-34.823
X34.443Y-1.379
X34.57Y-55.037
X37.617Y-18.009
X37.617Y-27.559
X49.454Y-18.009
X49.454Y-27.559
X57.328Y-18.009
X57.328Y-27.559
X59.411Y-30.759
X73.663Y-53.264
X73.99Y-3.531
X81.915Y-41.834
X82.931Y-9.83
X91.821Y-53.264
X92.431Y-3.531
X92.431Y-9.83
X101.117Y-53.264
X101.219Y-3.531
X101.219Y-9.83
X101.219Y-20.041
X101.219Y-26.34
X101.219Y-37.414
X111.379Y-18.009
X114.809Y-1.379
X118.186Y-26.34
X118.897Y-40.767
X129.413Y-18.009
X129.413Y-26.34
X129.413Y-40.767
X136.271Y-10.084
X136.271Y-13.183
X136.271Y-26.34
X139.878Y-6.477
X147.549Y-6.477
X147.549Y-13.183
X147.549Y-26.34
X153.264Y-11.082
T4
X70.168Y-6.396
X70.168Y-7.666
X71.438Y-6.396
X71.438Y-7.666
X72.708Y-6.396
X72.708Y-7.666
X73.978Y-6.396
X73.978Y-7.666
X75.248Y-6.396
X75.248Y-7.666
T5
X1.067Y-15.299
X1.067Y-17.381
X1.067Y-20.226
X1.067Y-22.36
X1.067Y-24.392
X3.709Y-19.21
X3.709Y-21.344
X3.709Y-23.376
X6.401Y-20.226
X6.401Y-22.36
X6.401Y-24.392
X8.891Y-23.376
X8.941Y-19.21
X8.941Y-21.344
X11.278Y-15.349
X11.278Y-17.381
X11.278Y-20.226
X11.278Y-22.36
X11.278Y-24.392
X16.866Y-15.299
X16.866Y-17.381
X16.866Y-20.226
X16.866Y-22.36
X16.866Y-24.392
X19.508Y-19.21
X19.508Y-21.344
X19.508Y-23.376
X22.2Y-20.226
X22.2Y-22.36
X22.2Y-24.392
X24.689Y-23.376
X24.74Y-19.21
X24.74Y-21.344
X27.077Y-15.349
X27.077Y-17.381
X27.077Y-20.226
X27.077Y-22.36
X27.077Y-24.392
T6
X12.946Y-4.572
X15.446Y-4.572
T7
X40.898Y1.284
X40.898Y-13.216
X43.398Y-13.216
X45.898Y1.284
X45.898Y-13.216
X117.124Y1.335
X117.124Y-13.165
X119.624Y-13.165
X122.124Y1.335
X122.124Y-13.165
T8
X89.287Y-37.447
X91.827Y-37.447
X134.817Y-0.744
X134.817Y-3.284
X137.357Y-0.744
X137.357Y-3.284
X139.897Y-0.744
X139.897Y-3.284
X142.437Y-0.744
X142.437Y-3.284
X144.977Y-0.744
X144.977Y-3.284
X147.517Y-0.744
X147.517Y-3.284
X150.057Y-0.744
X150.057Y-3.284
X152.597Y-0.744
X152.597Y-3.284
X155.137Y-0.744
X155.137Y-3.284
X157.677Y-0.744
X157.677Y-3.284
X71.126Y-37.447
X73.666Y-37.447
T10
X0.003Y-60.
X81.483Y-46.507
X162.992Y-60.
X0.Y0.
X162.992Y0.
T9
X36.798Y-6.116G85X36.798Y-5.316
G05
X49.998Y-6.116G85X49.998Y-5.316
G05
X113.024Y-6.065G85X113.024Y-5.265
G05
X126.224Y-6.065G85X126.224Y-5.265
G05
T0
M30
