G04 #@! TF.GenerationSoftware,KiCad,Pcbnew,5.0.2-bee76a0~70~ubuntu18.04.1*
G04 #@! TF.CreationDate,2019-04-15T14:09:08+02:00*
G04 #@! TF.ProjectId,top-board,746f702d-626f-4617-9264-2e6b69636164,rev?*
G04 #@! TF.SameCoordinates,PX47b3528PY2897428*
G04 #@! TF.FileFunction,Soldermask,Bot*
G04 #@! TF.FilePolarity,Negative*
%FSLAX46Y46*%
G04 Gerber Fmt 4.6, Leading zero omitted, Abs format (unit mm)*
G04 Created by KiCad (PCBNEW 5.0.2-bee76a0~70~ubuntu18.04.1) date Mon 15 Apr 2019 02:09:08 PM CEST*
%MOMM*%
%LPD*%
G01*
G04 APERTURE LIST*
%ADD10C,0.100000*%
G04 APERTURE END LIST*
D10*
G36*
X151614000Y-56516400D02*
X148614000Y-56516400D01*
X148614000Y-53516400D01*
X151614000Y-53516400D01*
X151614000Y-56516400D01*
X151614000Y-56516400D01*
G37*
G36*
X4827400Y-56516400D02*
X1827400Y-56516400D01*
X1827400Y-53516400D01*
X4827400Y-53516400D01*
X4827400Y-56516400D01*
X4827400Y-56516400D01*
G37*
G36*
X38716600Y-52958000D02*
X38016600Y-52958000D01*
X38016600Y-51858000D01*
X38716600Y-51858000D01*
X38716600Y-52958000D01*
X38716600Y-52958000D01*
G37*
G36*
X114942000Y-52958000D02*
X114242000Y-52958000D01*
X114242000Y-51858000D01*
X114942000Y-51858000D01*
X114942000Y-52958000D01*
X114942000Y-52958000D01*
G37*
G36*
X116442000Y-52958000D02*
X115742000Y-52958000D01*
X115742000Y-51858000D01*
X116442000Y-51858000D01*
X116442000Y-52958000D01*
X116442000Y-52958000D01*
G37*
G36*
X40216600Y-52958000D02*
X39516600Y-52958000D01*
X39516600Y-51858000D01*
X40216600Y-51858000D01*
X40216600Y-52958000D01*
X40216600Y-52958000D01*
G37*
G36*
X153132300Y-52907200D02*
X152432300Y-52907200D01*
X152432300Y-51807200D01*
X153132300Y-51807200D01*
X153132300Y-52907200D01*
X153132300Y-52907200D01*
G37*
G36*
X151632300Y-52907200D02*
X150932300Y-52907200D01*
X150932300Y-51807200D01*
X151632300Y-51807200D01*
X151632300Y-52907200D01*
X151632300Y-52907200D01*
G37*
G36*
X10560700Y-52907200D02*
X9860700Y-52907200D01*
X9860700Y-51807200D01*
X10560700Y-51807200D01*
X10560700Y-52907200D01*
X10560700Y-52907200D01*
G37*
G36*
X12060700Y-52907200D02*
X11360700Y-52907200D01*
X11360700Y-51807200D01*
X12060700Y-51807200D01*
X12060700Y-52907200D01*
X12060700Y-52907200D01*
G37*
G36*
X42583800Y-52256200D02*
X41083800Y-52256200D01*
X41083800Y-49156200D01*
X42583800Y-49156200D01*
X42583800Y-52256200D01*
X42583800Y-52256200D01*
G37*
G36*
X45683800Y-52256200D02*
X44183800Y-52256200D01*
X44183800Y-49156200D01*
X45683800Y-49156200D01*
X45683800Y-52256200D01*
X45683800Y-52256200D01*
G37*
G36*
X121896500Y-52256200D02*
X120396500Y-52256200D01*
X120396500Y-49156200D01*
X121896500Y-49156200D01*
X121896500Y-52256200D01*
X121896500Y-52256200D01*
G37*
G36*
X118796500Y-52256200D02*
X117296500Y-52256200D01*
X117296500Y-49156200D01*
X118796500Y-49156200D01*
X118796500Y-52256200D01*
X118796500Y-52256200D01*
G37*
G36*
X158790000Y-52243500D02*
X157290000Y-52243500D01*
X157290000Y-49143500D01*
X158790000Y-49143500D01*
X158790000Y-52243500D01*
X158790000Y-52243500D01*
G37*
G36*
X155690000Y-52243500D02*
X154190000Y-52243500D01*
X154190000Y-49143500D01*
X155690000Y-49143500D01*
X155690000Y-52243500D01*
X155690000Y-52243500D01*
G37*
G36*
X8790300Y-52243500D02*
X7290300Y-52243500D01*
X7290300Y-49143500D01*
X8790300Y-49143500D01*
X8790300Y-52243500D01*
X8790300Y-52243500D01*
G37*
G36*
X5690300Y-52243500D02*
X4190300Y-52243500D01*
X4190300Y-49143500D01*
X5690300Y-49143500D01*
X5690300Y-52243500D01*
X5690300Y-52243500D01*
G37*
G36*
X114942000Y-51256200D02*
X114242000Y-51256200D01*
X114242000Y-50156200D01*
X114942000Y-50156200D01*
X114942000Y-51256200D01*
X114942000Y-51256200D01*
G37*
G36*
X38716600Y-51256200D02*
X38016600Y-51256200D01*
X38016600Y-50156200D01*
X38716600Y-50156200D01*
X38716600Y-51256200D01*
X38716600Y-51256200D01*
G37*
G36*
X40216600Y-51256200D02*
X39516600Y-51256200D01*
X39516600Y-50156200D01*
X40216600Y-50156200D01*
X40216600Y-51256200D01*
X40216600Y-51256200D01*
G37*
G36*
X116442000Y-51256200D02*
X115742000Y-51256200D01*
X115742000Y-50156200D01*
X116442000Y-50156200D01*
X116442000Y-51256200D01*
X116442000Y-51256200D01*
G37*
G36*
X12060700Y-51230800D02*
X11360700Y-51230800D01*
X11360700Y-50130800D01*
X12060700Y-50130800D01*
X12060700Y-51230800D01*
X12060700Y-51230800D01*
G37*
G36*
X151632300Y-51230800D02*
X150932300Y-51230800D01*
X150932300Y-50130800D01*
X151632300Y-50130800D01*
X151632300Y-51230800D01*
X151632300Y-51230800D01*
G37*
G36*
X153132300Y-51230800D02*
X152432300Y-51230800D01*
X152432300Y-50130800D01*
X153132300Y-50130800D01*
X153132300Y-51230800D01*
X153132300Y-51230800D01*
G37*
G36*
X10560700Y-51230800D02*
X9860700Y-51230800D01*
X9860700Y-50130800D01*
X10560700Y-50130800D01*
X10560700Y-51230800D01*
X10560700Y-51230800D01*
G37*
G36*
X116442000Y-49579800D02*
X115742000Y-49579800D01*
X115742000Y-48479800D01*
X116442000Y-48479800D01*
X116442000Y-49579800D01*
X116442000Y-49579800D01*
G37*
G36*
X114942000Y-49579800D02*
X114242000Y-49579800D01*
X114242000Y-48479800D01*
X114942000Y-48479800D01*
X114942000Y-49579800D01*
X114942000Y-49579800D01*
G37*
G36*
X40216600Y-49554400D02*
X39516600Y-49554400D01*
X39516600Y-48454400D01*
X40216600Y-48454400D01*
X40216600Y-49554400D01*
X40216600Y-49554400D01*
G37*
G36*
X153132300Y-49554400D02*
X152432300Y-49554400D01*
X152432300Y-48454400D01*
X153132300Y-48454400D01*
X153132300Y-49554400D01*
X153132300Y-49554400D01*
G37*
G36*
X151632300Y-49554400D02*
X150932300Y-49554400D01*
X150932300Y-48454400D01*
X151632300Y-48454400D01*
X151632300Y-49554400D01*
X151632300Y-49554400D01*
G37*
G36*
X38716600Y-49554400D02*
X38016600Y-49554400D01*
X38016600Y-48454400D01*
X38716600Y-48454400D01*
X38716600Y-49554400D01*
X38716600Y-49554400D01*
G37*
G36*
X12060700Y-49554400D02*
X11360700Y-49554400D01*
X11360700Y-48454400D01*
X12060700Y-48454400D01*
X12060700Y-49554400D01*
X12060700Y-49554400D01*
G37*
G36*
X10560700Y-49554400D02*
X9860700Y-49554400D01*
X9860700Y-48454400D01*
X10560700Y-48454400D01*
X10560700Y-49554400D01*
X10560700Y-49554400D01*
G37*
G36*
X44380700Y-46892000D02*
X42930700Y-46892000D01*
X42930700Y-45692000D01*
X44380700Y-45692000D01*
X44380700Y-46892000D01*
X44380700Y-46892000D01*
G37*
G36*
X46353200Y-46796000D02*
X45403200Y-46796000D01*
X45403200Y-45796000D01*
X46353200Y-45796000D01*
X46353200Y-46796000D01*
X46353200Y-46796000D01*
G37*
G36*
X119628200Y-45812500D02*
X118178200Y-45812500D01*
X118178200Y-44612500D01*
X119628200Y-44612500D01*
X119628200Y-45812500D01*
X119628200Y-45812500D01*
G37*
G36*
X121600700Y-45780000D02*
X120650700Y-45780000D01*
X120650700Y-44780000D01*
X121600700Y-44780000D01*
X121600700Y-45780000D01*
X121600700Y-45780000D01*
G37*
G36*
X46353200Y-45296000D02*
X45403200Y-45296000D01*
X45403200Y-44296000D01*
X46353200Y-44296000D01*
X46353200Y-45296000D01*
X46353200Y-45296000D01*
G37*
G36*
X44380700Y-44892000D02*
X42930700Y-44892000D01*
X42930700Y-43692000D01*
X44380700Y-43692000D01*
X44380700Y-44892000D01*
X44380700Y-44892000D01*
G37*
G36*
X121600700Y-44280000D02*
X120650700Y-44280000D01*
X120650700Y-43280000D01*
X121600700Y-43280000D01*
X121600700Y-44280000D01*
X121600700Y-44280000D01*
G37*
G36*
X119628200Y-43812500D02*
X118178200Y-43812500D01*
X118178200Y-42612500D01*
X119628200Y-42612500D01*
X119628200Y-43812500D01*
X119628200Y-43812500D01*
G37*
G36*
X89374709Y-36334630D02*
X89505874Y-36347548D01*
X89716241Y-36411362D01*
X89764067Y-36436925D01*
X89910116Y-36514990D01*
X90080049Y-36654451D01*
X90219510Y-36824384D01*
X90297575Y-36970433D01*
X90323138Y-37018259D01*
X90386952Y-37228626D01*
X90408499Y-37447400D01*
X90386952Y-37666174D01*
X90323138Y-37876541D01*
X90323135Y-37876546D01*
X90219510Y-38070416D01*
X90080049Y-38240349D01*
X89910116Y-38379810D01*
X89764067Y-38457875D01*
X89716241Y-38483438D01*
X89505874Y-38547252D01*
X89374709Y-38560170D01*
X89341919Y-38563400D01*
X89232281Y-38563400D01*
X89199491Y-38560170D01*
X89068326Y-38547252D01*
X88857959Y-38483438D01*
X88810133Y-38457875D01*
X88664084Y-38379810D01*
X88494151Y-38240349D01*
X88354690Y-38070416D01*
X88251065Y-37876546D01*
X88251062Y-37876541D01*
X88187248Y-37666174D01*
X88165701Y-37447400D01*
X88187248Y-37228626D01*
X88251062Y-37018259D01*
X88276625Y-36970433D01*
X88354690Y-36824384D01*
X88494151Y-36654451D01*
X88664084Y-36514990D01*
X88810133Y-36436925D01*
X88857959Y-36411362D01*
X89068326Y-36347548D01*
X89199491Y-36334630D01*
X89232281Y-36331400D01*
X89341919Y-36331400D01*
X89374709Y-36334630D01*
X89374709Y-36334630D01*
G37*
G36*
X92943100Y-38563400D02*
X90711100Y-38563400D01*
X90711100Y-36331400D01*
X92943100Y-36331400D01*
X92943100Y-38563400D01*
X92943100Y-38563400D01*
G37*
G36*
X74782100Y-38563400D02*
X72550100Y-38563400D01*
X72550100Y-36331400D01*
X74782100Y-36331400D01*
X74782100Y-38563400D01*
X74782100Y-38563400D01*
G37*
G36*
X71213709Y-36334630D02*
X71344874Y-36347548D01*
X71555241Y-36411362D01*
X71603067Y-36436925D01*
X71749116Y-36514990D01*
X71919049Y-36654451D01*
X72058510Y-36824384D01*
X72136575Y-36970433D01*
X72162138Y-37018259D01*
X72225952Y-37228626D01*
X72247499Y-37447400D01*
X72225952Y-37666174D01*
X72162138Y-37876541D01*
X72162135Y-37876546D01*
X72058510Y-38070416D01*
X71919049Y-38240349D01*
X71749116Y-38379810D01*
X71603067Y-38457875D01*
X71555241Y-38483438D01*
X71344874Y-38547252D01*
X71213709Y-38560170D01*
X71180919Y-38563400D01*
X71071281Y-38563400D01*
X71038491Y-38560170D01*
X70907326Y-38547252D01*
X70696959Y-38483438D01*
X70649133Y-38457875D01*
X70503084Y-38379810D01*
X70333151Y-38240349D01*
X70193690Y-38070416D01*
X70090065Y-37876546D01*
X70090062Y-37876541D01*
X70026248Y-37666174D01*
X70004701Y-37447400D01*
X70026248Y-37228626D01*
X70090062Y-37018259D01*
X70115625Y-36970433D01*
X70193690Y-36824384D01*
X70333151Y-36654451D01*
X70503084Y-36514990D01*
X70649133Y-36436925D01*
X70696959Y-36411362D01*
X70907326Y-36347548D01*
X71038491Y-36334630D01*
X71071281Y-36331400D01*
X71180919Y-36331400D01*
X71213709Y-36334630D01*
X71213709Y-36334630D01*
G37*
G36*
X10560700Y-32866600D02*
X9860700Y-32866600D01*
X9860700Y-31766600D01*
X10560700Y-31766600D01*
X10560700Y-32866600D01*
X10560700Y-32866600D01*
G37*
G36*
X12060700Y-32866600D02*
X11360700Y-32866600D01*
X11360700Y-31766600D01*
X12060700Y-31766600D01*
X12060700Y-32866600D01*
X12060700Y-32866600D01*
G37*
G36*
X151632300Y-32866600D02*
X150932300Y-32866600D01*
X150932300Y-31766600D01*
X151632300Y-31766600D01*
X151632300Y-32866600D01*
X151632300Y-32866600D01*
G37*
G36*
X153132300Y-32866600D02*
X152432300Y-32866600D01*
X152432300Y-31766600D01*
X153132300Y-31766600D01*
X153132300Y-32866600D01*
X153132300Y-32866600D01*
G37*
G36*
X8803000Y-32190200D02*
X7303000Y-32190200D01*
X7303000Y-29090200D01*
X8803000Y-29090200D01*
X8803000Y-32190200D01*
X8803000Y-32190200D01*
G37*
G36*
X158790000Y-32190200D02*
X157290000Y-32190200D01*
X157290000Y-29090200D01*
X158790000Y-29090200D01*
X158790000Y-32190200D01*
X158790000Y-32190200D01*
G37*
G36*
X155690000Y-32190200D02*
X154190000Y-32190200D01*
X154190000Y-29090200D01*
X155690000Y-29090200D01*
X155690000Y-32190200D01*
X155690000Y-32190200D01*
G37*
G36*
X5703000Y-32190200D02*
X4203000Y-32190200D01*
X4203000Y-29090200D01*
X5703000Y-29090200D01*
X5703000Y-32190200D01*
X5703000Y-32190200D01*
G37*
G36*
X10560700Y-31190200D02*
X9860700Y-31190200D01*
X9860700Y-30090200D01*
X10560700Y-30090200D01*
X10560700Y-31190200D01*
X10560700Y-31190200D01*
G37*
G36*
X153132300Y-31190200D02*
X152432300Y-31190200D01*
X152432300Y-30090200D01*
X153132300Y-30090200D01*
X153132300Y-31190200D01*
X153132300Y-31190200D01*
G37*
G36*
X151632300Y-31190200D02*
X150932300Y-31190200D01*
X150932300Y-30090200D01*
X151632300Y-30090200D01*
X151632300Y-31190200D01*
X151632300Y-31190200D01*
G37*
G36*
X12060700Y-31190200D02*
X11360700Y-31190200D01*
X11360700Y-30090200D01*
X12060700Y-30090200D01*
X12060700Y-31190200D01*
X12060700Y-31190200D01*
G37*
G36*
X12060700Y-29513800D02*
X11360700Y-29513800D01*
X11360700Y-28413800D01*
X12060700Y-28413800D01*
X12060700Y-29513800D01*
X12060700Y-29513800D01*
G37*
G36*
X10560700Y-29513800D02*
X9860700Y-29513800D01*
X9860700Y-28413800D01*
X10560700Y-28413800D01*
X10560700Y-29513800D01*
X10560700Y-29513800D01*
G37*
G36*
X153132300Y-29513800D02*
X152432300Y-29513800D01*
X152432300Y-28413800D01*
X153132300Y-28413800D01*
X153132300Y-29513800D01*
X153132300Y-29513800D01*
G37*
G36*
X151632300Y-29513800D02*
X150932300Y-29513800D01*
X150932300Y-28413800D01*
X151632300Y-28413800D01*
X151632300Y-29513800D01*
X151632300Y-29513800D01*
G37*
G36*
X90963100Y-26886400D02*
X90013100Y-26886400D01*
X90013100Y-25886400D01*
X90963100Y-25886400D01*
X90963100Y-26886400D01*
X90963100Y-26886400D01*
G37*
G36*
X90963100Y-25386400D02*
X90013100Y-25386400D01*
X90013100Y-24386400D01*
X90963100Y-24386400D01*
X90963100Y-25386400D01*
X90963100Y-25386400D01*
G37*
G36*
X79101600Y-22174400D02*
X78101600Y-22174400D01*
X78101600Y-21224400D01*
X79101600Y-21224400D01*
X79101600Y-22174400D01*
X79101600Y-22174400D01*
G37*
G36*
X77601600Y-22174400D02*
X76601600Y-22174400D01*
X76601600Y-21224400D01*
X77601600Y-21224400D01*
X77601600Y-22174400D01*
X77601600Y-22174400D01*
G37*
G36*
X77601600Y-20523400D02*
X76601600Y-20523400D01*
X76601600Y-19573400D01*
X77601600Y-19573400D01*
X77601600Y-20523400D01*
X77601600Y-20523400D01*
G37*
G36*
X79101600Y-20523400D02*
X78101600Y-20523400D01*
X78101600Y-19573400D01*
X79101600Y-19573400D01*
X79101600Y-20523400D01*
X79101600Y-20523400D01*
G37*
G36*
X79086600Y-18454900D02*
X78386600Y-18454900D01*
X78386600Y-16434900D01*
X79086600Y-16434900D01*
X79086600Y-18454900D01*
X79086600Y-18454900D01*
G37*
G36*
X80086600Y-18454900D02*
X79386600Y-18454900D01*
X79386600Y-16434900D01*
X80086600Y-16434900D01*
X80086600Y-18454900D01*
X80086600Y-18454900D01*
G37*
G36*
X46160921Y-12350386D02*
X46324709Y-12418229D01*
X46472120Y-12516726D01*
X46597474Y-12642080D01*
X46695971Y-12789491D01*
X46763814Y-12953279D01*
X46798400Y-13127156D01*
X46798400Y-13304444D01*
X46763814Y-13478321D01*
X46695971Y-13642109D01*
X46597474Y-13789520D01*
X46472120Y-13914874D01*
X46324709Y-14013371D01*
X46160921Y-14081214D01*
X45987044Y-14115800D01*
X45809756Y-14115800D01*
X45635879Y-14081214D01*
X45472091Y-14013371D01*
X45324680Y-13914874D01*
X45199326Y-13789520D01*
X45100829Y-13642109D01*
X45032986Y-13478321D01*
X44998400Y-13304444D01*
X44998400Y-13127156D01*
X45032986Y-12953279D01*
X45100829Y-12789491D01*
X45199326Y-12642080D01*
X45324680Y-12516726D01*
X45472091Y-12418229D01*
X45635879Y-12350386D01*
X45809756Y-12315800D01*
X45987044Y-12315800D01*
X46160921Y-12350386D01*
X46160921Y-12350386D01*
G37*
G36*
X43660921Y-12350386D02*
X43824709Y-12418229D01*
X43972120Y-12516726D01*
X44097474Y-12642080D01*
X44195971Y-12789491D01*
X44263814Y-12953279D01*
X44298400Y-13127156D01*
X44298400Y-13304444D01*
X44263814Y-13478321D01*
X44195971Y-13642109D01*
X44097474Y-13789520D01*
X43972120Y-13914874D01*
X43824709Y-14013371D01*
X43660921Y-14081214D01*
X43487044Y-14115800D01*
X43309756Y-14115800D01*
X43135879Y-14081214D01*
X42972091Y-14013371D01*
X42824680Y-13914874D01*
X42699326Y-13789520D01*
X42600829Y-13642109D01*
X42532986Y-13478321D01*
X42498400Y-13304444D01*
X42498400Y-13127156D01*
X42532986Y-12953279D01*
X42600829Y-12789491D01*
X42699326Y-12642080D01*
X42824680Y-12516726D01*
X42972091Y-12418229D01*
X43135879Y-12350386D01*
X43309756Y-12315800D01*
X43487044Y-12315800D01*
X43660921Y-12350386D01*
X43660921Y-12350386D01*
G37*
G36*
X41160921Y-12350386D02*
X41324709Y-12418229D01*
X41472120Y-12516726D01*
X41597474Y-12642080D01*
X41695971Y-12789491D01*
X41763814Y-12953279D01*
X41798400Y-13127156D01*
X41798400Y-13304444D01*
X41763814Y-13478321D01*
X41695971Y-13642109D01*
X41597474Y-13789520D01*
X41472120Y-13914874D01*
X41324709Y-14013371D01*
X41160921Y-14081214D01*
X40987044Y-14115800D01*
X40809756Y-14115800D01*
X40635879Y-14081214D01*
X40472091Y-14013371D01*
X40324680Y-13914874D01*
X40199326Y-13789520D01*
X40100829Y-13642109D01*
X40032986Y-13478321D01*
X39998400Y-13304444D01*
X39998400Y-13127156D01*
X40032986Y-12953279D01*
X40100829Y-12789491D01*
X40199326Y-12642080D01*
X40324680Y-12516726D01*
X40472091Y-12418229D01*
X40635879Y-12350386D01*
X40809756Y-12315800D01*
X40987044Y-12315800D01*
X41160921Y-12350386D01*
X41160921Y-12350386D01*
G37*
G36*
X119886321Y-12299586D02*
X120050109Y-12367429D01*
X120197520Y-12465926D01*
X120322874Y-12591280D01*
X120421371Y-12738691D01*
X120489214Y-12902479D01*
X120523800Y-13076356D01*
X120523800Y-13253644D01*
X120489214Y-13427521D01*
X120421371Y-13591309D01*
X120322874Y-13738720D01*
X120197520Y-13864074D01*
X120050109Y-13962571D01*
X119886321Y-14030414D01*
X119712444Y-14065000D01*
X119535156Y-14065000D01*
X119361279Y-14030414D01*
X119197491Y-13962571D01*
X119050080Y-13864074D01*
X118924726Y-13738720D01*
X118826229Y-13591309D01*
X118758386Y-13427521D01*
X118723800Y-13253644D01*
X118723800Y-13076356D01*
X118758386Y-12902479D01*
X118826229Y-12738691D01*
X118924726Y-12591280D01*
X119050080Y-12465926D01*
X119197491Y-12367429D01*
X119361279Y-12299586D01*
X119535156Y-12265000D01*
X119712444Y-12265000D01*
X119886321Y-12299586D01*
X119886321Y-12299586D01*
G37*
G36*
X122386321Y-12299586D02*
X122550109Y-12367429D01*
X122697520Y-12465926D01*
X122822874Y-12591280D01*
X122921371Y-12738691D01*
X122989214Y-12902479D01*
X123023800Y-13076356D01*
X123023800Y-13253644D01*
X122989214Y-13427521D01*
X122921371Y-13591309D01*
X122822874Y-13738720D01*
X122697520Y-13864074D01*
X122550109Y-13962571D01*
X122386321Y-14030414D01*
X122212444Y-14065000D01*
X122035156Y-14065000D01*
X121861279Y-14030414D01*
X121697491Y-13962571D01*
X121550080Y-13864074D01*
X121424726Y-13738720D01*
X121326229Y-13591309D01*
X121258386Y-13427521D01*
X121223800Y-13253644D01*
X121223800Y-13076356D01*
X121258386Y-12902479D01*
X121326229Y-12738691D01*
X121424726Y-12591280D01*
X121550080Y-12465926D01*
X121697491Y-12367429D01*
X121861279Y-12299586D01*
X122035156Y-12265000D01*
X122212444Y-12265000D01*
X122386321Y-12299586D01*
X122386321Y-12299586D01*
G37*
G36*
X117386321Y-12299586D02*
X117550109Y-12367429D01*
X117697520Y-12465926D01*
X117822874Y-12591280D01*
X117921371Y-12738691D01*
X117989214Y-12902479D01*
X118023800Y-13076356D01*
X118023800Y-13253644D01*
X117989214Y-13427521D01*
X117921371Y-13591309D01*
X117822874Y-13738720D01*
X117697520Y-13864074D01*
X117550109Y-13962571D01*
X117386321Y-14030414D01*
X117212444Y-14065000D01*
X117035156Y-14065000D01*
X116861279Y-14030414D01*
X116697491Y-13962571D01*
X116550080Y-13864074D01*
X116424726Y-13738720D01*
X116326229Y-13591309D01*
X116258386Y-13427521D01*
X116223800Y-13253644D01*
X116223800Y-13076356D01*
X116258386Y-12902479D01*
X116326229Y-12738691D01*
X116424726Y-12591280D01*
X116550080Y-12465926D01*
X116697491Y-12367429D01*
X116861279Y-12299586D01*
X117035156Y-12265000D01*
X117212444Y-12265000D01*
X117386321Y-12299586D01*
X117386321Y-12299586D01*
G37*
G36*
X70350403Y-5794918D02*
X70350405Y-5794919D01*
X70350406Y-5794919D01*
X70464148Y-5842032D01*
X70464149Y-5842033D01*
X70566517Y-5910433D01*
X70653567Y-5997483D01*
X70699166Y-6065727D01*
X70714711Y-6084669D01*
X70733653Y-6100215D01*
X70755264Y-6111766D01*
X70778713Y-6118879D01*
X70803100Y-6121281D01*
X70827486Y-6118879D01*
X70850935Y-6111766D01*
X70872546Y-6100215D01*
X70891488Y-6084670D01*
X70907034Y-6065727D01*
X70952633Y-5997483D01*
X71039683Y-5910433D01*
X71142051Y-5842033D01*
X71142052Y-5842032D01*
X71255794Y-5794919D01*
X71255795Y-5794919D01*
X71255797Y-5794918D01*
X71376541Y-5770900D01*
X71499659Y-5770900D01*
X71620403Y-5794918D01*
X71620405Y-5794919D01*
X71620406Y-5794919D01*
X71734148Y-5842032D01*
X71734149Y-5842033D01*
X71836517Y-5910433D01*
X71923567Y-5997483D01*
X71969166Y-6065727D01*
X71984711Y-6084669D01*
X72003653Y-6100215D01*
X72025264Y-6111766D01*
X72048713Y-6118879D01*
X72073100Y-6121281D01*
X72097486Y-6118879D01*
X72120935Y-6111766D01*
X72142546Y-6100215D01*
X72161488Y-6084670D01*
X72177034Y-6065727D01*
X72222633Y-5997483D01*
X72309683Y-5910433D01*
X72412051Y-5842033D01*
X72412052Y-5842032D01*
X72525794Y-5794919D01*
X72525795Y-5794919D01*
X72525797Y-5794918D01*
X72646541Y-5770900D01*
X72769659Y-5770900D01*
X72890403Y-5794918D01*
X72890405Y-5794919D01*
X72890406Y-5794919D01*
X73004148Y-5842032D01*
X73004149Y-5842033D01*
X73106517Y-5910433D01*
X73193567Y-5997483D01*
X73239166Y-6065727D01*
X73254711Y-6084669D01*
X73273653Y-6100215D01*
X73295264Y-6111766D01*
X73318713Y-6118879D01*
X73343100Y-6121281D01*
X73367486Y-6118879D01*
X73390935Y-6111766D01*
X73412546Y-6100215D01*
X73431488Y-6084670D01*
X73447034Y-6065727D01*
X73492633Y-5997483D01*
X73579683Y-5910433D01*
X73682051Y-5842033D01*
X73682052Y-5842032D01*
X73795794Y-5794919D01*
X73795795Y-5794919D01*
X73795797Y-5794918D01*
X73916541Y-5770900D01*
X74039659Y-5770900D01*
X74160403Y-5794918D01*
X74160405Y-5794919D01*
X74160406Y-5794919D01*
X74274148Y-5842032D01*
X74274149Y-5842033D01*
X74376517Y-5910433D01*
X74409712Y-5943628D01*
X74428654Y-5959174D01*
X74450265Y-5970725D01*
X74473714Y-5977838D01*
X74498100Y-5980240D01*
X74522486Y-5977838D01*
X74545935Y-5970725D01*
X74567546Y-5959174D01*
X74586488Y-5943628D01*
X74602034Y-5924686D01*
X74613585Y-5903075D01*
X74620698Y-5879626D01*
X74623100Y-5855240D01*
X74623100Y-5770900D01*
X75873100Y-5770900D01*
X75873100Y-7020900D01*
X75788760Y-7020900D01*
X75764374Y-7023302D01*
X75740925Y-7030415D01*
X75719314Y-7041966D01*
X75700372Y-7057512D01*
X75684826Y-7076454D01*
X75673275Y-7098065D01*
X75666162Y-7121514D01*
X75663760Y-7145900D01*
X75666162Y-7170286D01*
X75673275Y-7193735D01*
X75684826Y-7215346D01*
X75700372Y-7234288D01*
X75733567Y-7267483D01*
X75733569Y-7267486D01*
X75801968Y-7369852D01*
X75849081Y-7483594D01*
X75873100Y-7604343D01*
X75873100Y-7727457D01*
X75849081Y-7848206D01*
X75801968Y-7961948D01*
X75791823Y-7977131D01*
X75733567Y-8064317D01*
X75646517Y-8151367D01*
X75646514Y-8151369D01*
X75544148Y-8219768D01*
X75430406Y-8266881D01*
X75430405Y-8266881D01*
X75430403Y-8266882D01*
X75309659Y-8290900D01*
X75186541Y-8290900D01*
X75065797Y-8266882D01*
X75065795Y-8266881D01*
X75065794Y-8266881D01*
X74952052Y-8219768D01*
X74849686Y-8151369D01*
X74849683Y-8151367D01*
X74762633Y-8064317D01*
X74717034Y-7996073D01*
X74701489Y-7977131D01*
X74682547Y-7961585D01*
X74660936Y-7950034D01*
X74637487Y-7942921D01*
X74613100Y-7940519D01*
X74588714Y-7942921D01*
X74565265Y-7950034D01*
X74543654Y-7961585D01*
X74524712Y-7977130D01*
X74509166Y-7996073D01*
X74463567Y-8064317D01*
X74376517Y-8151367D01*
X74376514Y-8151369D01*
X74274148Y-8219768D01*
X74160406Y-8266881D01*
X74160405Y-8266881D01*
X74160403Y-8266882D01*
X74039659Y-8290900D01*
X73916541Y-8290900D01*
X73795797Y-8266882D01*
X73795795Y-8266881D01*
X73795794Y-8266881D01*
X73682052Y-8219768D01*
X73579686Y-8151369D01*
X73579683Y-8151367D01*
X73492633Y-8064317D01*
X73447034Y-7996073D01*
X73431489Y-7977131D01*
X73412547Y-7961585D01*
X73390936Y-7950034D01*
X73367487Y-7942921D01*
X73343100Y-7940519D01*
X73318714Y-7942921D01*
X73295265Y-7950034D01*
X73273654Y-7961585D01*
X73254712Y-7977130D01*
X73239166Y-7996073D01*
X73193567Y-8064317D01*
X73106517Y-8151367D01*
X73106514Y-8151369D01*
X73004148Y-8219768D01*
X72890406Y-8266881D01*
X72890405Y-8266881D01*
X72890403Y-8266882D01*
X72769659Y-8290900D01*
X72646541Y-8290900D01*
X72525797Y-8266882D01*
X72525795Y-8266881D01*
X72525794Y-8266881D01*
X72412052Y-8219768D01*
X72309686Y-8151369D01*
X72309683Y-8151367D01*
X72222633Y-8064317D01*
X72177034Y-7996073D01*
X72161489Y-7977131D01*
X72142547Y-7961585D01*
X72120936Y-7950034D01*
X72097487Y-7942921D01*
X72073100Y-7940519D01*
X72048714Y-7942921D01*
X72025265Y-7950034D01*
X72003654Y-7961585D01*
X71984712Y-7977130D01*
X71969166Y-7996073D01*
X71923567Y-8064317D01*
X71836517Y-8151367D01*
X71836514Y-8151369D01*
X71734148Y-8219768D01*
X71620406Y-8266881D01*
X71620405Y-8266881D01*
X71620403Y-8266882D01*
X71499659Y-8290900D01*
X71376541Y-8290900D01*
X71255797Y-8266882D01*
X71255795Y-8266881D01*
X71255794Y-8266881D01*
X71142052Y-8219768D01*
X71039686Y-8151369D01*
X71039683Y-8151367D01*
X70952633Y-8064317D01*
X70907034Y-7996073D01*
X70891489Y-7977131D01*
X70872547Y-7961585D01*
X70850936Y-7950034D01*
X70827487Y-7942921D01*
X70803100Y-7940519D01*
X70778714Y-7942921D01*
X70755265Y-7950034D01*
X70733654Y-7961585D01*
X70714712Y-7977130D01*
X70699166Y-7996073D01*
X70653567Y-8064317D01*
X70566517Y-8151367D01*
X70566514Y-8151369D01*
X70464148Y-8219768D01*
X70350406Y-8266881D01*
X70350405Y-8266881D01*
X70350403Y-8266882D01*
X70229659Y-8290900D01*
X70106541Y-8290900D01*
X69985797Y-8266882D01*
X69985795Y-8266881D01*
X69985794Y-8266881D01*
X69872052Y-8219768D01*
X69769686Y-8151369D01*
X69769683Y-8151367D01*
X69682633Y-8064317D01*
X69624377Y-7977131D01*
X69614232Y-7961948D01*
X69567119Y-7848206D01*
X69543100Y-7727457D01*
X69543100Y-7604343D01*
X69567119Y-7483594D01*
X69614232Y-7369852D01*
X69682631Y-7267486D01*
X69682633Y-7267483D01*
X69769683Y-7180433D01*
X69837927Y-7134834D01*
X69856869Y-7119289D01*
X69872415Y-7100347D01*
X69883966Y-7078736D01*
X69891079Y-7055287D01*
X69893481Y-7030900D01*
X70442719Y-7030900D01*
X70445121Y-7055286D01*
X70452234Y-7078735D01*
X70463785Y-7100346D01*
X70479330Y-7119288D01*
X70498273Y-7134834D01*
X70566517Y-7180433D01*
X70653567Y-7267483D01*
X70699166Y-7335727D01*
X70714711Y-7354669D01*
X70733653Y-7370215D01*
X70755264Y-7381766D01*
X70778713Y-7388879D01*
X70803100Y-7391281D01*
X70827486Y-7388879D01*
X70850935Y-7381766D01*
X70872546Y-7370215D01*
X70891488Y-7354670D01*
X70907034Y-7335727D01*
X70952633Y-7267483D01*
X71039683Y-7180433D01*
X71107927Y-7134834D01*
X71126869Y-7119289D01*
X71142415Y-7100347D01*
X71153966Y-7078736D01*
X71161079Y-7055287D01*
X71163481Y-7030900D01*
X71712719Y-7030900D01*
X71715121Y-7055286D01*
X71722234Y-7078735D01*
X71733785Y-7100346D01*
X71749330Y-7119288D01*
X71768273Y-7134834D01*
X71836517Y-7180433D01*
X71923567Y-7267483D01*
X71969166Y-7335727D01*
X71984711Y-7354669D01*
X72003653Y-7370215D01*
X72025264Y-7381766D01*
X72048713Y-7388879D01*
X72073100Y-7391281D01*
X72097486Y-7388879D01*
X72120935Y-7381766D01*
X72142546Y-7370215D01*
X72161488Y-7354670D01*
X72177034Y-7335727D01*
X72222633Y-7267483D01*
X72309683Y-7180433D01*
X72377927Y-7134834D01*
X72396869Y-7119289D01*
X72412415Y-7100347D01*
X72423966Y-7078736D01*
X72431079Y-7055287D01*
X72433481Y-7030900D01*
X72982719Y-7030900D01*
X72985121Y-7055286D01*
X72992234Y-7078735D01*
X73003785Y-7100346D01*
X73019330Y-7119288D01*
X73038273Y-7134834D01*
X73106517Y-7180433D01*
X73193567Y-7267483D01*
X73239166Y-7335727D01*
X73254711Y-7354669D01*
X73273653Y-7370215D01*
X73295264Y-7381766D01*
X73318713Y-7388879D01*
X73343100Y-7391281D01*
X73367486Y-7388879D01*
X73390935Y-7381766D01*
X73412546Y-7370215D01*
X73431488Y-7354670D01*
X73447034Y-7335727D01*
X73492633Y-7267483D01*
X73579683Y-7180433D01*
X73647927Y-7134834D01*
X73666869Y-7119289D01*
X73682415Y-7100347D01*
X73693966Y-7078736D01*
X73701079Y-7055287D01*
X73703481Y-7030900D01*
X74252719Y-7030900D01*
X74255121Y-7055286D01*
X74262234Y-7078735D01*
X74273785Y-7100346D01*
X74289330Y-7119288D01*
X74308273Y-7134834D01*
X74376517Y-7180433D01*
X74409712Y-7213628D01*
X74421059Y-7222941D01*
X74430372Y-7234288D01*
X74463567Y-7267483D01*
X74509166Y-7335727D01*
X74524711Y-7354669D01*
X74543653Y-7370215D01*
X74565264Y-7381766D01*
X74588713Y-7388879D01*
X74613100Y-7391281D01*
X74637486Y-7388879D01*
X74660935Y-7381766D01*
X74682546Y-7370215D01*
X74701488Y-7354670D01*
X74717034Y-7335727D01*
X74762633Y-7267483D01*
X74795828Y-7234288D01*
X74811374Y-7215346D01*
X74822925Y-7193735D01*
X74830038Y-7170286D01*
X74832440Y-7145900D01*
X74830038Y-7121514D01*
X74822925Y-7098065D01*
X74811374Y-7076454D01*
X74795828Y-7057512D01*
X74776886Y-7041966D01*
X74755275Y-7030415D01*
X74731826Y-7023302D01*
X74707440Y-7020900D01*
X74623100Y-7020900D01*
X74623100Y-6936560D01*
X74620698Y-6912174D01*
X74613585Y-6888725D01*
X74602034Y-6867114D01*
X74586488Y-6848172D01*
X74567546Y-6832626D01*
X74545935Y-6821075D01*
X74522486Y-6813962D01*
X74498100Y-6811560D01*
X74473714Y-6813962D01*
X74450265Y-6821075D01*
X74428654Y-6832626D01*
X74409712Y-6848172D01*
X74376517Y-6881367D01*
X74308273Y-6926966D01*
X74289331Y-6942511D01*
X74273785Y-6961453D01*
X74262234Y-6983064D01*
X74255121Y-7006513D01*
X74252719Y-7030900D01*
X73703481Y-7030900D01*
X73701079Y-7006514D01*
X73693966Y-6983065D01*
X73682415Y-6961454D01*
X73666870Y-6942512D01*
X73647927Y-6926966D01*
X73579683Y-6881367D01*
X73492633Y-6794317D01*
X73447034Y-6726073D01*
X73431489Y-6707131D01*
X73412547Y-6691585D01*
X73390936Y-6680034D01*
X73367487Y-6672921D01*
X73343100Y-6670519D01*
X73318714Y-6672921D01*
X73295265Y-6680034D01*
X73273654Y-6691585D01*
X73254712Y-6707130D01*
X73239166Y-6726073D01*
X73193567Y-6794317D01*
X73106517Y-6881367D01*
X73038273Y-6926966D01*
X73019331Y-6942511D01*
X73003785Y-6961453D01*
X72992234Y-6983064D01*
X72985121Y-7006513D01*
X72982719Y-7030900D01*
X72433481Y-7030900D01*
X72431079Y-7006514D01*
X72423966Y-6983065D01*
X72412415Y-6961454D01*
X72396870Y-6942512D01*
X72377927Y-6926966D01*
X72309683Y-6881367D01*
X72222633Y-6794317D01*
X72177034Y-6726073D01*
X72161489Y-6707131D01*
X72142547Y-6691585D01*
X72120936Y-6680034D01*
X72097487Y-6672921D01*
X72073100Y-6670519D01*
X72048714Y-6672921D01*
X72025265Y-6680034D01*
X72003654Y-6691585D01*
X71984712Y-6707130D01*
X71969166Y-6726073D01*
X71923567Y-6794317D01*
X71836517Y-6881367D01*
X71768273Y-6926966D01*
X71749331Y-6942511D01*
X71733785Y-6961453D01*
X71722234Y-6983064D01*
X71715121Y-7006513D01*
X71712719Y-7030900D01*
X71163481Y-7030900D01*
X71161079Y-7006514D01*
X71153966Y-6983065D01*
X71142415Y-6961454D01*
X71126870Y-6942512D01*
X71107927Y-6926966D01*
X71039683Y-6881367D01*
X70952633Y-6794317D01*
X70907034Y-6726073D01*
X70891489Y-6707131D01*
X70872547Y-6691585D01*
X70850936Y-6680034D01*
X70827487Y-6672921D01*
X70803100Y-6670519D01*
X70778714Y-6672921D01*
X70755265Y-6680034D01*
X70733654Y-6691585D01*
X70714712Y-6707130D01*
X70699166Y-6726073D01*
X70653567Y-6794317D01*
X70566517Y-6881367D01*
X70498273Y-6926966D01*
X70479331Y-6942511D01*
X70463785Y-6961453D01*
X70452234Y-6983064D01*
X70445121Y-7006513D01*
X70442719Y-7030900D01*
X69893481Y-7030900D01*
X69891079Y-7006514D01*
X69883966Y-6983065D01*
X69872415Y-6961454D01*
X69856870Y-6942512D01*
X69837927Y-6926966D01*
X69769683Y-6881367D01*
X69682633Y-6794317D01*
X69624377Y-6707131D01*
X69614232Y-6691948D01*
X69567119Y-6578206D01*
X69543100Y-6457457D01*
X69543100Y-6334343D01*
X69567119Y-6213594D01*
X69614232Y-6099852D01*
X69682631Y-5997486D01*
X69682633Y-5997483D01*
X69769683Y-5910433D01*
X69872051Y-5842033D01*
X69872052Y-5842032D01*
X69985794Y-5794919D01*
X69985795Y-5794919D01*
X69985797Y-5794918D01*
X70106541Y-5770900D01*
X70229659Y-5770900D01*
X70350403Y-5794918D01*
X70350403Y-5794918D01*
G37*
G36*
X82983200Y-8231000D02*
X79983200Y-8231000D01*
X79983200Y-5231000D01*
X82983200Y-5231000D01*
X82983200Y-8231000D01*
X82983200Y-8231000D01*
G37*
G36*
X51498400Y-7615800D02*
X48498400Y-7615800D01*
X48498400Y-3815800D01*
X51498400Y-3815800D01*
X51498400Y-7615800D01*
X51498400Y-7615800D01*
G37*
G36*
X38298400Y-7615800D02*
X35298400Y-7615800D01*
X35298400Y-3815800D01*
X38298400Y-3815800D01*
X38298400Y-7615800D01*
X38298400Y-7615800D01*
G37*
G36*
X127723800Y-7565000D02*
X124723800Y-7565000D01*
X124723800Y-3765000D01*
X127723800Y-3765000D01*
X127723800Y-7565000D01*
X127723800Y-7565000D01*
G37*
G36*
X114523800Y-7565000D02*
X111523800Y-7565000D01*
X111523800Y-3765000D01*
X114523800Y-3765000D01*
X114523800Y-7565000D01*
X114523800Y-7565000D01*
G37*
G36*
X13141770Y-3586469D02*
X13141773Y-3586470D01*
X13141774Y-3586470D01*
X13330275Y-3643651D01*
X13330277Y-3643652D01*
X13504000Y-3736509D01*
X13656268Y-3861472D01*
X13781231Y-4013740D01*
X13781232Y-4013742D01*
X13874089Y-4187465D01*
X13892452Y-4248000D01*
X13931271Y-4375970D01*
X13950578Y-4572000D01*
X13931271Y-4768030D01*
X13874088Y-4956537D01*
X13781231Y-5130260D01*
X13656268Y-5282528D01*
X13504000Y-5407491D01*
X13503998Y-5407492D01*
X13330275Y-5500349D01*
X13141774Y-5557530D01*
X13141773Y-5557530D01*
X13141770Y-5557531D01*
X12994864Y-5572000D01*
X12896616Y-5572000D01*
X12749710Y-5557531D01*
X12749707Y-5557530D01*
X12749706Y-5557530D01*
X12561205Y-5500349D01*
X12387482Y-5407492D01*
X12387480Y-5407491D01*
X12235212Y-5282528D01*
X12110249Y-5130260D01*
X12017392Y-4956537D01*
X11960209Y-4768030D01*
X11940902Y-4572000D01*
X11960209Y-4375970D01*
X11999028Y-4248000D01*
X12017391Y-4187465D01*
X12110248Y-4013742D01*
X12110249Y-4013740D01*
X12235212Y-3861472D01*
X12387480Y-3736509D01*
X12561203Y-3643652D01*
X12561205Y-3643651D01*
X12749706Y-3586470D01*
X12749707Y-3586470D01*
X12749710Y-3586469D01*
X12896616Y-3572000D01*
X12994864Y-3572000D01*
X13141770Y-3586469D01*
X13141770Y-3586469D01*
G37*
G36*
X16445740Y-5572000D02*
X14445740Y-5572000D01*
X14445740Y-3572000D01*
X16445740Y-3572000D01*
X16445740Y-5572000D01*
X16445740Y-5572000D01*
G37*
G36*
X142625500Y-2334742D02*
X142807136Y-2389842D01*
X142974540Y-2479321D01*
X143121265Y-2599735D01*
X143241679Y-2746460D01*
X143331158Y-2913864D01*
X143386258Y-3095500D01*
X143404862Y-3284400D01*
X143386258Y-3473300D01*
X143331158Y-3654936D01*
X143241679Y-3822340D01*
X143121265Y-3969065D01*
X142974540Y-4089479D01*
X142807136Y-4178958D01*
X142625500Y-4234058D01*
X142483938Y-4248000D01*
X142389262Y-4248000D01*
X142247700Y-4234058D01*
X142066064Y-4178958D01*
X141898660Y-4089479D01*
X141751935Y-3969065D01*
X141631521Y-3822340D01*
X141542042Y-3654936D01*
X141486942Y-3473300D01*
X141468338Y-3284400D01*
X141486942Y-3095500D01*
X141542042Y-2913864D01*
X141631521Y-2746460D01*
X141751935Y-2599735D01*
X141898660Y-2479321D01*
X142066064Y-2389842D01*
X142247700Y-2334742D01*
X142389262Y-2320800D01*
X142483938Y-2320800D01*
X142625500Y-2334742D01*
X142625500Y-2334742D01*
G37*
G36*
X135780200Y-4248000D02*
X133853000Y-4248000D01*
X133853000Y-2320800D01*
X135780200Y-2320800D01*
X135780200Y-4248000D01*
X135780200Y-4248000D01*
G37*
G36*
X137545500Y-2334742D02*
X137727136Y-2389842D01*
X137894540Y-2479321D01*
X138041265Y-2599735D01*
X138161679Y-2746460D01*
X138251158Y-2913864D01*
X138306258Y-3095500D01*
X138324862Y-3284400D01*
X138306258Y-3473300D01*
X138251158Y-3654936D01*
X138161679Y-3822340D01*
X138041265Y-3969065D01*
X137894540Y-4089479D01*
X137727136Y-4178958D01*
X137545500Y-4234058D01*
X137403938Y-4248000D01*
X137309262Y-4248000D01*
X137167700Y-4234058D01*
X136986064Y-4178958D01*
X136818660Y-4089479D01*
X136671935Y-3969065D01*
X136551521Y-3822340D01*
X136462042Y-3654936D01*
X136406942Y-3473300D01*
X136388338Y-3284400D01*
X136406942Y-3095500D01*
X136462042Y-2913864D01*
X136551521Y-2746460D01*
X136671935Y-2599735D01*
X136818660Y-2479321D01*
X136986064Y-2389842D01*
X137167700Y-2334742D01*
X137309262Y-2320800D01*
X137403938Y-2320800D01*
X137545500Y-2334742D01*
X137545500Y-2334742D01*
G37*
G36*
X140085500Y-2334742D02*
X140267136Y-2389842D01*
X140434540Y-2479321D01*
X140581265Y-2599735D01*
X140701679Y-2746460D01*
X140791158Y-2913864D01*
X140846258Y-3095500D01*
X140864862Y-3284400D01*
X140846258Y-3473300D01*
X140791158Y-3654936D01*
X140701679Y-3822340D01*
X140581265Y-3969065D01*
X140434540Y-4089479D01*
X140267136Y-4178958D01*
X140085500Y-4234058D01*
X139943938Y-4248000D01*
X139849262Y-4248000D01*
X139707700Y-4234058D01*
X139526064Y-4178958D01*
X139358660Y-4089479D01*
X139211935Y-3969065D01*
X139091521Y-3822340D01*
X139002042Y-3654936D01*
X138946942Y-3473300D01*
X138928338Y-3284400D01*
X138946942Y-3095500D01*
X139002042Y-2913864D01*
X139091521Y-2746460D01*
X139211935Y-2599735D01*
X139358660Y-2479321D01*
X139526064Y-2389842D01*
X139707700Y-2334742D01*
X139849262Y-2320800D01*
X139943938Y-2320800D01*
X140085500Y-2334742D01*
X140085500Y-2334742D01*
G37*
G36*
X147705500Y-2334742D02*
X147887136Y-2389842D01*
X148054540Y-2479321D01*
X148201265Y-2599735D01*
X148321679Y-2746460D01*
X148411158Y-2913864D01*
X148466258Y-3095500D01*
X148484862Y-3284400D01*
X148466258Y-3473300D01*
X148411158Y-3654936D01*
X148321679Y-3822340D01*
X148201265Y-3969065D01*
X148054540Y-4089479D01*
X147887136Y-4178958D01*
X147705500Y-4234058D01*
X147563938Y-4248000D01*
X147469262Y-4248000D01*
X147327700Y-4234058D01*
X147146064Y-4178958D01*
X146978660Y-4089479D01*
X146831935Y-3969065D01*
X146711521Y-3822340D01*
X146622042Y-3654936D01*
X146566942Y-3473300D01*
X146548338Y-3284400D01*
X146566942Y-3095500D01*
X146622042Y-2913864D01*
X146711521Y-2746460D01*
X146831935Y-2599735D01*
X146978660Y-2479321D01*
X147146064Y-2389842D01*
X147327700Y-2334742D01*
X147469262Y-2320800D01*
X147563938Y-2320800D01*
X147705500Y-2334742D01*
X147705500Y-2334742D01*
G37*
G36*
X152785500Y-2334742D02*
X152967136Y-2389842D01*
X153134540Y-2479321D01*
X153281265Y-2599735D01*
X153401679Y-2746460D01*
X153491158Y-2913864D01*
X153546258Y-3095500D01*
X153564862Y-3284400D01*
X153546258Y-3473300D01*
X153491158Y-3654936D01*
X153401679Y-3822340D01*
X153281265Y-3969065D01*
X153134540Y-4089479D01*
X152967136Y-4178958D01*
X152785500Y-4234058D01*
X152643938Y-4248000D01*
X152549262Y-4248000D01*
X152407700Y-4234058D01*
X152226064Y-4178958D01*
X152058660Y-4089479D01*
X151911935Y-3969065D01*
X151791521Y-3822340D01*
X151702042Y-3654936D01*
X151646942Y-3473300D01*
X151628338Y-3284400D01*
X151646942Y-3095500D01*
X151702042Y-2913864D01*
X151791521Y-2746460D01*
X151911935Y-2599735D01*
X152058660Y-2479321D01*
X152226064Y-2389842D01*
X152407700Y-2334742D01*
X152549262Y-2320800D01*
X152643938Y-2320800D01*
X152785500Y-2334742D01*
X152785500Y-2334742D01*
G37*
G36*
X155325500Y-2334742D02*
X155507136Y-2389842D01*
X155674540Y-2479321D01*
X155821265Y-2599735D01*
X155941679Y-2746460D01*
X156031158Y-2913864D01*
X156086258Y-3095500D01*
X156104862Y-3284400D01*
X156086258Y-3473300D01*
X156031158Y-3654936D01*
X155941679Y-3822340D01*
X155821265Y-3969065D01*
X155674540Y-4089479D01*
X155507136Y-4178958D01*
X155325500Y-4234058D01*
X155183938Y-4248000D01*
X155089262Y-4248000D01*
X154947700Y-4234058D01*
X154766064Y-4178958D01*
X154598660Y-4089479D01*
X154451935Y-3969065D01*
X154331521Y-3822340D01*
X154242042Y-3654936D01*
X154186942Y-3473300D01*
X154168338Y-3284400D01*
X154186942Y-3095500D01*
X154242042Y-2913864D01*
X154331521Y-2746460D01*
X154451935Y-2599735D01*
X154598660Y-2479321D01*
X154766064Y-2389842D01*
X154947700Y-2334742D01*
X155089262Y-2320800D01*
X155183938Y-2320800D01*
X155325500Y-2334742D01*
X155325500Y-2334742D01*
G37*
G36*
X157865500Y-2334742D02*
X158047136Y-2389842D01*
X158214540Y-2479321D01*
X158361265Y-2599735D01*
X158481679Y-2746460D01*
X158571158Y-2913864D01*
X158626258Y-3095500D01*
X158644862Y-3284400D01*
X158626258Y-3473300D01*
X158571158Y-3654936D01*
X158481679Y-3822340D01*
X158361265Y-3969065D01*
X158214540Y-4089479D01*
X158047136Y-4178958D01*
X157865500Y-4234058D01*
X157723938Y-4248000D01*
X157629262Y-4248000D01*
X157487700Y-4234058D01*
X157306064Y-4178958D01*
X157138660Y-4089479D01*
X156991935Y-3969065D01*
X156871521Y-3822340D01*
X156782042Y-3654936D01*
X156726942Y-3473300D01*
X156708338Y-3284400D01*
X156726942Y-3095500D01*
X156782042Y-2913864D01*
X156871521Y-2746460D01*
X156991935Y-2599735D01*
X157138660Y-2479321D01*
X157306064Y-2389842D01*
X157487700Y-2334742D01*
X157629262Y-2320800D01*
X157723938Y-2320800D01*
X157865500Y-2334742D01*
X157865500Y-2334742D01*
G37*
G36*
X145165500Y-2334742D02*
X145347136Y-2389842D01*
X145514540Y-2479321D01*
X145661265Y-2599735D01*
X145781679Y-2746460D01*
X145871158Y-2913864D01*
X145926258Y-3095500D01*
X145944862Y-3284400D01*
X145926258Y-3473300D01*
X145871158Y-3654936D01*
X145781679Y-3822340D01*
X145661265Y-3969065D01*
X145514540Y-4089479D01*
X145347136Y-4178958D01*
X145165500Y-4234058D01*
X145023938Y-4248000D01*
X144929262Y-4248000D01*
X144787700Y-4234058D01*
X144606064Y-4178958D01*
X144438660Y-4089479D01*
X144291935Y-3969065D01*
X144171521Y-3822340D01*
X144082042Y-3654936D01*
X144026942Y-3473300D01*
X144008338Y-3284400D01*
X144026942Y-3095500D01*
X144082042Y-2913864D01*
X144171521Y-2746460D01*
X144291935Y-2599735D01*
X144438660Y-2479321D01*
X144606064Y-2389842D01*
X144787700Y-2334742D01*
X144929262Y-2320800D01*
X145023938Y-2320800D01*
X145165500Y-2334742D01*
X145165500Y-2334742D01*
G37*
G36*
X150245500Y-2334742D02*
X150427136Y-2389842D01*
X150594540Y-2479321D01*
X150741265Y-2599735D01*
X150861679Y-2746460D01*
X150951158Y-2913864D01*
X151006258Y-3095500D01*
X151024862Y-3284400D01*
X151006258Y-3473300D01*
X150951158Y-3654936D01*
X150861679Y-3822340D01*
X150741265Y-3969065D01*
X150594540Y-4089479D01*
X150427136Y-4178958D01*
X150245500Y-4234058D01*
X150103938Y-4248000D01*
X150009262Y-4248000D01*
X149867700Y-4234058D01*
X149686064Y-4178958D01*
X149518660Y-4089479D01*
X149371935Y-3969065D01*
X149251521Y-3822340D01*
X149162042Y-3654936D01*
X149106942Y-3473300D01*
X149088338Y-3284400D01*
X149106942Y-3095500D01*
X149162042Y-2913864D01*
X149251521Y-2746460D01*
X149371935Y-2599735D01*
X149518660Y-2479321D01*
X149686064Y-2389842D01*
X149867700Y-2334742D01*
X150009262Y-2320800D01*
X150103938Y-2320800D01*
X150245500Y-2334742D01*
X150245500Y-2334742D01*
G37*
G36*
X140085500Y205258D02*
X140267136Y150158D01*
X140434540Y60679D01*
X140581265Y-59735D01*
X140701679Y-206460D01*
X140791158Y-373864D01*
X140846258Y-555500D01*
X140864862Y-744400D01*
X140846258Y-933300D01*
X140791158Y-1114936D01*
X140701679Y-1282340D01*
X140581265Y-1429065D01*
X140434540Y-1549479D01*
X140267136Y-1638958D01*
X140085500Y-1694058D01*
X139943938Y-1708000D01*
X139849262Y-1708000D01*
X139707700Y-1694058D01*
X139526064Y-1638958D01*
X139358660Y-1549479D01*
X139211935Y-1429065D01*
X139091521Y-1282340D01*
X139002042Y-1114936D01*
X138946942Y-933300D01*
X138928338Y-744400D01*
X138946942Y-555500D01*
X139002042Y-373864D01*
X139091521Y-206460D01*
X139211935Y-59735D01*
X139358660Y60679D01*
X139526064Y150158D01*
X139707700Y205258D01*
X139849262Y219200D01*
X139943938Y219200D01*
X140085500Y205258D01*
X140085500Y205258D01*
G37*
G36*
X155325500Y205258D02*
X155507136Y150158D01*
X155674540Y60679D01*
X155821265Y-59735D01*
X155941679Y-206460D01*
X156031158Y-373864D01*
X156086258Y-555500D01*
X156104862Y-744400D01*
X156086258Y-933300D01*
X156031158Y-1114936D01*
X155941679Y-1282340D01*
X155821265Y-1429065D01*
X155674540Y-1549479D01*
X155507136Y-1638958D01*
X155325500Y-1694058D01*
X155183938Y-1708000D01*
X155089262Y-1708000D01*
X154947700Y-1694058D01*
X154766064Y-1638958D01*
X154598660Y-1549479D01*
X154451935Y-1429065D01*
X154331521Y-1282340D01*
X154242042Y-1114936D01*
X154186942Y-933300D01*
X154168338Y-744400D01*
X154186942Y-555500D01*
X154242042Y-373864D01*
X154331521Y-206460D01*
X154451935Y-59735D01*
X154598660Y60679D01*
X154766064Y150158D01*
X154947700Y205258D01*
X155089262Y219200D01*
X155183938Y219200D01*
X155325500Y205258D01*
X155325500Y205258D01*
G37*
G36*
X150245500Y205258D02*
X150427136Y150158D01*
X150594540Y60679D01*
X150741265Y-59735D01*
X150861679Y-206460D01*
X150951158Y-373864D01*
X151006258Y-555500D01*
X151024862Y-744400D01*
X151006258Y-933300D01*
X150951158Y-1114936D01*
X150861679Y-1282340D01*
X150741265Y-1429065D01*
X150594540Y-1549479D01*
X150427136Y-1638958D01*
X150245500Y-1694058D01*
X150103938Y-1708000D01*
X150009262Y-1708000D01*
X149867700Y-1694058D01*
X149686064Y-1638958D01*
X149518660Y-1549479D01*
X149371935Y-1429065D01*
X149251521Y-1282340D01*
X149162042Y-1114936D01*
X149106942Y-933300D01*
X149088338Y-744400D01*
X149106942Y-555500D01*
X149162042Y-373864D01*
X149251521Y-206460D01*
X149371935Y-59735D01*
X149518660Y60679D01*
X149686064Y150158D01*
X149867700Y205258D01*
X150009262Y219200D01*
X150103938Y219200D01*
X150245500Y205258D01*
X150245500Y205258D01*
G37*
G36*
X147705500Y205258D02*
X147887136Y150158D01*
X148054540Y60679D01*
X148201265Y-59735D01*
X148321679Y-206460D01*
X148411158Y-373864D01*
X148466258Y-555500D01*
X148484862Y-744400D01*
X148466258Y-933300D01*
X148411158Y-1114936D01*
X148321679Y-1282340D01*
X148201265Y-1429065D01*
X148054540Y-1549479D01*
X147887136Y-1638958D01*
X147705500Y-1694058D01*
X147563938Y-1708000D01*
X147469262Y-1708000D01*
X147327700Y-1694058D01*
X147146064Y-1638958D01*
X146978660Y-1549479D01*
X146831935Y-1429065D01*
X146711521Y-1282340D01*
X146622042Y-1114936D01*
X146566942Y-933300D01*
X146548338Y-744400D01*
X146566942Y-555500D01*
X146622042Y-373864D01*
X146711521Y-206460D01*
X146831935Y-59735D01*
X146978660Y60679D01*
X147146064Y150158D01*
X147327700Y205258D01*
X147469262Y219200D01*
X147563938Y219200D01*
X147705500Y205258D01*
X147705500Y205258D01*
G37*
G36*
X145165500Y205258D02*
X145347136Y150158D01*
X145514540Y60679D01*
X145661265Y-59735D01*
X145781679Y-206460D01*
X145871158Y-373864D01*
X145926258Y-555500D01*
X145944862Y-744400D01*
X145926258Y-933300D01*
X145871158Y-1114936D01*
X145781679Y-1282340D01*
X145661265Y-1429065D01*
X145514540Y-1549479D01*
X145347136Y-1638958D01*
X145165500Y-1694058D01*
X145023938Y-1708000D01*
X144929262Y-1708000D01*
X144787700Y-1694058D01*
X144606064Y-1638958D01*
X144438660Y-1549479D01*
X144291935Y-1429065D01*
X144171521Y-1282340D01*
X144082042Y-1114936D01*
X144026942Y-933300D01*
X144008338Y-744400D01*
X144026942Y-555500D01*
X144082042Y-373864D01*
X144171521Y-206460D01*
X144291935Y-59735D01*
X144438660Y60679D01*
X144606064Y150158D01*
X144787700Y205258D01*
X144929262Y219200D01*
X145023938Y219200D01*
X145165500Y205258D01*
X145165500Y205258D01*
G37*
G36*
X142625500Y205258D02*
X142807136Y150158D01*
X142974540Y60679D01*
X143121265Y-59735D01*
X143241679Y-206460D01*
X143331158Y-373864D01*
X143386258Y-555500D01*
X143404862Y-744400D01*
X143386258Y-933300D01*
X143331158Y-1114936D01*
X143241679Y-1282340D01*
X143121265Y-1429065D01*
X142974540Y-1549479D01*
X142807136Y-1638958D01*
X142625500Y-1694058D01*
X142483938Y-1708000D01*
X142389262Y-1708000D01*
X142247700Y-1694058D01*
X142066064Y-1638958D01*
X141898660Y-1549479D01*
X141751935Y-1429065D01*
X141631521Y-1282340D01*
X141542042Y-1114936D01*
X141486942Y-933300D01*
X141468338Y-744400D01*
X141486942Y-555500D01*
X141542042Y-373864D01*
X141631521Y-206460D01*
X141751935Y-59735D01*
X141898660Y60679D01*
X142066064Y150158D01*
X142247700Y205258D01*
X142389262Y219200D01*
X142483938Y219200D01*
X142625500Y205258D01*
X142625500Y205258D01*
G37*
G36*
X137545500Y205258D02*
X137727136Y150158D01*
X137894540Y60679D01*
X138041265Y-59735D01*
X138161679Y-206460D01*
X138251158Y-373864D01*
X138306258Y-555500D01*
X138324862Y-744400D01*
X138306258Y-933300D01*
X138251158Y-1114936D01*
X138161679Y-1282340D01*
X138041265Y-1429065D01*
X137894540Y-1549479D01*
X137727136Y-1638958D01*
X137545500Y-1694058D01*
X137403938Y-1708000D01*
X137309262Y-1708000D01*
X137167700Y-1694058D01*
X136986064Y-1638958D01*
X136818660Y-1549479D01*
X136671935Y-1429065D01*
X136551521Y-1282340D01*
X136462042Y-1114936D01*
X136406942Y-933300D01*
X136388338Y-744400D01*
X136406942Y-555500D01*
X136462042Y-373864D01*
X136551521Y-206460D01*
X136671935Y-59735D01*
X136818660Y60679D01*
X136986064Y150158D01*
X137167700Y205258D01*
X137309262Y219200D01*
X137403938Y219200D01*
X137545500Y205258D01*
X137545500Y205258D01*
G37*
G36*
X157865500Y205258D02*
X158047136Y150158D01*
X158214540Y60679D01*
X158361265Y-59735D01*
X158481679Y-206460D01*
X158571158Y-373864D01*
X158626258Y-555500D01*
X158644862Y-744400D01*
X158626258Y-933300D01*
X158571158Y-1114936D01*
X158481679Y-1282340D01*
X158361265Y-1429065D01*
X158214540Y-1549479D01*
X158047136Y-1638958D01*
X157865500Y-1694058D01*
X157723938Y-1708000D01*
X157629262Y-1708000D01*
X157487700Y-1694058D01*
X157306064Y-1638958D01*
X157138660Y-1549479D01*
X156991935Y-1429065D01*
X156871521Y-1282340D01*
X156782042Y-1114936D01*
X156726942Y-933300D01*
X156708338Y-744400D01*
X156726942Y-555500D01*
X156782042Y-373864D01*
X156871521Y-206460D01*
X156991935Y-59735D01*
X157138660Y60679D01*
X157306064Y150158D01*
X157487700Y205258D01*
X157629262Y219200D01*
X157723938Y219200D01*
X157865500Y205258D01*
X157865500Y205258D01*
G37*
G36*
X135005500Y205258D02*
X135187136Y150158D01*
X135354540Y60679D01*
X135501265Y-59735D01*
X135621679Y-206460D01*
X135711158Y-373864D01*
X135766258Y-555500D01*
X135784862Y-744400D01*
X135766258Y-933300D01*
X135711158Y-1114936D01*
X135621679Y-1282340D01*
X135501265Y-1429065D01*
X135354540Y-1549479D01*
X135187136Y-1638958D01*
X135005500Y-1694058D01*
X134863938Y-1708000D01*
X134769262Y-1708000D01*
X134627700Y-1694058D01*
X134446064Y-1638958D01*
X134278660Y-1549479D01*
X134131935Y-1429065D01*
X134011521Y-1282340D01*
X133922042Y-1114936D01*
X133866942Y-933300D01*
X133848338Y-744400D01*
X133866942Y-555500D01*
X133922042Y-373864D01*
X134011521Y-206460D01*
X134131935Y-59735D01*
X134278660Y60679D01*
X134446064Y150158D01*
X134627700Y205258D01*
X134769262Y219200D01*
X134863938Y219200D01*
X135005500Y205258D01*
X135005500Y205258D01*
G37*
G36*
X152785500Y205258D02*
X152967136Y150158D01*
X153134540Y60679D01*
X153281265Y-59735D01*
X153401679Y-206460D01*
X153491158Y-373864D01*
X153546258Y-555500D01*
X153564862Y-744400D01*
X153546258Y-933300D01*
X153491158Y-1114936D01*
X153401679Y-1282340D01*
X153281265Y-1429065D01*
X153134540Y-1549479D01*
X152967136Y-1638958D01*
X152785500Y-1694058D01*
X152643938Y-1708000D01*
X152549262Y-1708000D01*
X152407700Y-1694058D01*
X152226064Y-1638958D01*
X152058660Y-1549479D01*
X151911935Y-1429065D01*
X151791521Y-1282340D01*
X151702042Y-1114936D01*
X151646942Y-933300D01*
X151628338Y-744400D01*
X151646942Y-555500D01*
X151702042Y-373864D01*
X151791521Y-206460D01*
X151911935Y-59735D01*
X152058660Y60679D01*
X152226064Y150158D01*
X152407700Y205258D01*
X152549262Y219200D01*
X152643938Y219200D01*
X152785500Y205258D01*
X152785500Y205258D01*
G37*
G36*
X46160921Y2149614D02*
X46324709Y2081771D01*
X46472120Y1983274D01*
X46597474Y1857920D01*
X46695971Y1710509D01*
X46763814Y1546721D01*
X46798400Y1372844D01*
X46798400Y1195556D01*
X46763814Y1021679D01*
X46695971Y857891D01*
X46597474Y710480D01*
X46472120Y585126D01*
X46324709Y486629D01*
X46160921Y418786D01*
X45987044Y384200D01*
X45809756Y384200D01*
X45635879Y418786D01*
X45472091Y486629D01*
X45324680Y585126D01*
X45199326Y710480D01*
X45100829Y857891D01*
X45032986Y1021679D01*
X44998400Y1195556D01*
X44998400Y1372844D01*
X45032986Y1546721D01*
X45100829Y1710509D01*
X45199326Y1857920D01*
X45324680Y1983274D01*
X45472091Y2081771D01*
X45635879Y2149614D01*
X45809756Y2184200D01*
X45987044Y2184200D01*
X46160921Y2149614D01*
X46160921Y2149614D01*
G37*
G36*
X41160921Y2149614D02*
X41324709Y2081771D01*
X41472120Y1983274D01*
X41597474Y1857920D01*
X41695971Y1710509D01*
X41763814Y1546721D01*
X41798400Y1372844D01*
X41798400Y1195556D01*
X41763814Y1021679D01*
X41695971Y857891D01*
X41597474Y710480D01*
X41472120Y585126D01*
X41324709Y486629D01*
X41160921Y418786D01*
X40987044Y384200D01*
X40809756Y384200D01*
X40635879Y418786D01*
X40472091Y486629D01*
X40324680Y585126D01*
X40199326Y710480D01*
X40100829Y857891D01*
X40032986Y1021679D01*
X39998400Y1195556D01*
X39998400Y1372844D01*
X40032986Y1546721D01*
X40100829Y1710509D01*
X40199326Y1857920D01*
X40324680Y1983274D01*
X40472091Y2081771D01*
X40635879Y2149614D01*
X40809756Y2184200D01*
X40987044Y2184200D01*
X41160921Y2149614D01*
X41160921Y2149614D01*
G37*
G36*
X122386321Y2200414D02*
X122550109Y2132571D01*
X122697520Y2034074D01*
X122822874Y1908720D01*
X122921371Y1761309D01*
X122989214Y1597521D01*
X123023800Y1423644D01*
X123023800Y1246356D01*
X122989214Y1072479D01*
X122921371Y908691D01*
X122822874Y761280D01*
X122697520Y635926D01*
X122550109Y537429D01*
X122386321Y469586D01*
X122212444Y435000D01*
X122035156Y435000D01*
X121861279Y469586D01*
X121697491Y537429D01*
X121550080Y635926D01*
X121424726Y761280D01*
X121326229Y908691D01*
X121258386Y1072479D01*
X121223800Y1246356D01*
X121223800Y1423644D01*
X121258386Y1597521D01*
X121326229Y1761309D01*
X121424726Y1908720D01*
X121550080Y2034074D01*
X121697491Y2132571D01*
X121861279Y2200414D01*
X122035156Y2235000D01*
X122212444Y2235000D01*
X122386321Y2200414D01*
X122386321Y2200414D01*
G37*
G36*
X117386321Y2200414D02*
X117550109Y2132571D01*
X117697520Y2034074D01*
X117822874Y1908720D01*
X117921371Y1761309D01*
X117989214Y1597521D01*
X118023800Y1423644D01*
X118023800Y1246356D01*
X117989214Y1072479D01*
X117921371Y908691D01*
X117822874Y761280D01*
X117697520Y635926D01*
X117550109Y537429D01*
X117386321Y469586D01*
X117212444Y435000D01*
X117035156Y435000D01*
X116861279Y469586D01*
X116697491Y537429D01*
X116550080Y635926D01*
X116424726Y761280D01*
X116326229Y908691D01*
X116258386Y1072479D01*
X116223800Y1246356D01*
X116223800Y1423644D01*
X116258386Y1597521D01*
X116326229Y1761309D01*
X116424726Y1908720D01*
X116550080Y2034074D01*
X116697491Y2132571D01*
X116861279Y2200414D01*
X117035156Y2235000D01*
X117212444Y2235000D01*
X117386321Y2200414D01*
X117386321Y2200414D01*
G37*
M02*
