G04 #@! TF.GenerationSoftware,KiCad,Pcbnew,5.0.2-bee76a0~70~ubuntu18.04.1*
G04 #@! TF.CreationDate,2019-04-15T14:09:08+02:00*
G04 #@! TF.ProjectId,top-board,746f702d-626f-4617-9264-2e6b69636164,rev?*
G04 #@! TF.SameCoordinates,PX47b3528PY2897428*
G04 #@! TF.FileFunction,Soldermask,Top*
G04 #@! TF.FilePolarity,Negative*
%FSLAX46Y46*%
G04 Gerber Fmt 4.6, Leading zero omitted, Abs format (unit mm)*
G04 Created by KiCad (PCBNEW 5.0.2-bee76a0~70~ubuntu18.04.1) date Mon 15 Apr 2019 02:09:08 PM CEST*
%MOMM*%
%LPD*%
G01*
G04 APERTURE LIST*
%ADD10C,0.100000*%
G04 APERTURE END LIST*
D10*
G36*
X151614000Y-56516400D02*
X148614000Y-56516400D01*
X148614000Y-53516400D01*
X151614000Y-53516400D01*
X151614000Y-56516400D01*
X151614000Y-56516400D01*
G37*
G36*
X4827400Y-56516400D02*
X1827400Y-56516400D01*
X1827400Y-53516400D01*
X4827400Y-53516400D01*
X4827400Y-56516400D01*
X4827400Y-56516400D01*
G37*
G36*
X133646540Y-56259200D02*
X132446540Y-56259200D01*
X132446540Y-52859200D01*
X133646540Y-52859200D01*
X133646540Y-56259200D01*
X133646540Y-56259200D01*
G37*
G36*
X139846540Y-56259200D02*
X138646540Y-56259200D01*
X138646540Y-52859200D01*
X139846540Y-52859200D01*
X139846540Y-56259200D01*
X139846540Y-56259200D01*
G37*
G36*
X57446540Y-56259200D02*
X56246540Y-56259200D01*
X56246540Y-52859200D01*
X57446540Y-52859200D01*
X57446540Y-56259200D01*
X57446540Y-56259200D01*
G37*
G36*
X63646540Y-56259200D02*
X62446540Y-56259200D01*
X62446540Y-52859200D01*
X63646540Y-52859200D01*
X63646540Y-56259200D01*
X63646540Y-56259200D01*
G37*
G36*
X37555600Y-56001900D02*
X36105600Y-56001900D01*
X36105600Y-54801900D01*
X37555600Y-54801900D01*
X37555600Y-56001900D01*
X37555600Y-56001900D01*
G37*
G36*
X115914600Y-56001900D02*
X114464600Y-56001900D01*
X114464600Y-54801900D01*
X115914600Y-54801900D01*
X115914600Y-56001900D01*
X115914600Y-56001900D01*
G37*
G36*
X118073600Y-56001900D02*
X116623600Y-56001900D01*
X116623600Y-54801900D01*
X118073600Y-54801900D01*
X118073600Y-56001900D01*
X118073600Y-56001900D01*
G37*
G36*
X122391600Y-56001900D02*
X120941600Y-56001900D01*
X120941600Y-54801900D01*
X122391600Y-54801900D01*
X122391600Y-56001900D01*
X122391600Y-56001900D01*
G37*
G36*
X131027600Y-56001900D02*
X129577600Y-56001900D01*
X129577600Y-54801900D01*
X131027600Y-54801900D01*
X131027600Y-56001900D01*
X131027600Y-56001900D01*
G37*
G36*
X52668600Y-56001900D02*
X51218600Y-56001900D01*
X51218600Y-54801900D01*
X52668600Y-54801900D01*
X52668600Y-56001900D01*
X52668600Y-56001900D01*
G37*
G36*
X50509600Y-56001900D02*
X49059600Y-56001900D01*
X49059600Y-54801900D01*
X50509600Y-54801900D01*
X50509600Y-56001900D01*
X50509600Y-56001900D01*
G37*
G36*
X48350600Y-56001900D02*
X46900600Y-56001900D01*
X46900600Y-54801900D01*
X48350600Y-54801900D01*
X48350600Y-56001900D01*
X48350600Y-56001900D01*
G37*
G36*
X44032600Y-56001900D02*
X42582600Y-56001900D01*
X42582600Y-54801900D01*
X44032600Y-54801900D01*
X44032600Y-56001900D01*
X44032600Y-56001900D01*
G37*
G36*
X54827600Y-56001900D02*
X53377600Y-56001900D01*
X53377600Y-54801900D01*
X54827600Y-54801900D01*
X54827600Y-56001900D01*
X54827600Y-56001900D01*
G37*
G36*
X124550600Y-56001900D02*
X123100600Y-56001900D01*
X123100600Y-54801900D01*
X124550600Y-54801900D01*
X124550600Y-56001900D01*
X124550600Y-56001900D01*
G37*
G36*
X120232600Y-56001900D02*
X118782600Y-56001900D01*
X118782600Y-54801900D01*
X120232600Y-54801900D01*
X120232600Y-56001900D01*
X120232600Y-56001900D01*
G37*
G36*
X126709600Y-56001900D02*
X125259600Y-56001900D01*
X125259600Y-54801900D01*
X126709600Y-54801900D01*
X126709600Y-56001900D01*
X126709600Y-56001900D01*
G37*
G36*
X128868600Y-56001900D02*
X127418600Y-56001900D01*
X127418600Y-54801900D01*
X128868600Y-54801900D01*
X128868600Y-56001900D01*
X128868600Y-56001900D01*
G37*
G36*
X113755600Y-56001900D02*
X112305600Y-56001900D01*
X112305600Y-54801900D01*
X113755600Y-54801900D01*
X113755600Y-56001900D01*
X113755600Y-56001900D01*
G37*
G36*
X39714600Y-56001900D02*
X38264600Y-56001900D01*
X38264600Y-54801900D01*
X39714600Y-54801900D01*
X39714600Y-56001900D01*
X39714600Y-56001900D01*
G37*
G36*
X41873600Y-56001900D02*
X40423600Y-56001900D01*
X40423600Y-54801900D01*
X41873600Y-54801900D01*
X41873600Y-56001900D01*
X41873600Y-56001900D01*
G37*
G36*
X46191600Y-56001900D02*
X44741600Y-56001900D01*
X44741600Y-54801900D01*
X46191600Y-54801900D01*
X46191600Y-56001900D01*
X46191600Y-56001900D01*
G37*
G36*
X52668600Y-54001900D02*
X51218600Y-54001900D01*
X51218600Y-52801900D01*
X52668600Y-52801900D01*
X52668600Y-54001900D01*
X52668600Y-54001900D01*
G37*
G36*
X54827600Y-54001900D02*
X53377600Y-54001900D01*
X53377600Y-52801900D01*
X54827600Y-52801900D01*
X54827600Y-54001900D01*
X54827600Y-54001900D01*
G37*
G36*
X46191600Y-54001900D02*
X44741600Y-54001900D01*
X44741600Y-52801900D01*
X46191600Y-52801900D01*
X46191600Y-54001900D01*
X46191600Y-54001900D01*
G37*
G36*
X44032600Y-54001900D02*
X42582600Y-54001900D01*
X42582600Y-52801900D01*
X44032600Y-52801900D01*
X44032600Y-54001900D01*
X44032600Y-54001900D01*
G37*
G36*
X48350600Y-54001900D02*
X46900600Y-54001900D01*
X46900600Y-52801900D01*
X48350600Y-52801900D01*
X48350600Y-54001900D01*
X48350600Y-54001900D01*
G37*
G36*
X50509600Y-54001900D02*
X49059600Y-54001900D01*
X49059600Y-52801900D01*
X50509600Y-52801900D01*
X50509600Y-54001900D01*
X50509600Y-54001900D01*
G37*
G36*
X37555600Y-54001900D02*
X36105600Y-54001900D01*
X36105600Y-52801900D01*
X37555600Y-52801900D01*
X37555600Y-54001900D01*
X37555600Y-54001900D01*
G37*
G36*
X41873600Y-54001900D02*
X40423600Y-54001900D01*
X40423600Y-52801900D01*
X41873600Y-52801900D01*
X41873600Y-54001900D01*
X41873600Y-54001900D01*
G37*
G36*
X131027600Y-54001900D02*
X129577600Y-54001900D01*
X129577600Y-52801900D01*
X131027600Y-52801900D01*
X131027600Y-54001900D01*
X131027600Y-54001900D01*
G37*
G36*
X124550600Y-54001900D02*
X123100600Y-54001900D01*
X123100600Y-52801900D01*
X124550600Y-52801900D01*
X124550600Y-54001900D01*
X124550600Y-54001900D01*
G37*
G36*
X118073600Y-54001900D02*
X116623600Y-54001900D01*
X116623600Y-52801900D01*
X118073600Y-52801900D01*
X118073600Y-54001900D01*
X118073600Y-54001900D01*
G37*
G36*
X126709600Y-54001900D02*
X125259600Y-54001900D01*
X125259600Y-52801900D01*
X126709600Y-52801900D01*
X126709600Y-54001900D01*
X126709600Y-54001900D01*
G37*
G36*
X115914600Y-54001900D02*
X114464600Y-54001900D01*
X114464600Y-52801900D01*
X115914600Y-52801900D01*
X115914600Y-54001900D01*
X115914600Y-54001900D01*
G37*
G36*
X128868600Y-54001900D02*
X127418600Y-54001900D01*
X127418600Y-52801900D01*
X128868600Y-52801900D01*
X128868600Y-54001900D01*
X128868600Y-54001900D01*
G37*
G36*
X113755600Y-54001900D02*
X112305600Y-54001900D01*
X112305600Y-52801900D01*
X113755600Y-52801900D01*
X113755600Y-54001900D01*
X113755600Y-54001900D01*
G37*
G36*
X39714600Y-54001900D02*
X38264600Y-54001900D01*
X38264600Y-52801900D01*
X39714600Y-52801900D01*
X39714600Y-54001900D01*
X39714600Y-54001900D01*
G37*
G36*
X120232600Y-54001900D02*
X118782600Y-54001900D01*
X118782600Y-52801900D01*
X120232600Y-52801900D01*
X120232600Y-54001900D01*
X120232600Y-54001900D01*
G37*
G36*
X122391600Y-54001900D02*
X120941600Y-54001900D01*
X120941600Y-52801900D01*
X122391600Y-52801900D01*
X122391600Y-54001900D01*
X122391600Y-54001900D01*
G37*
G36*
X135744600Y-52035400D02*
X134544600Y-52035400D01*
X134544600Y-48985400D01*
X135744600Y-48985400D01*
X135744600Y-52035400D01*
X135744600Y-52035400D01*
G37*
G36*
X137744600Y-52035400D02*
X136544600Y-52035400D01*
X136544600Y-48985400D01*
X137744600Y-48985400D01*
X137744600Y-52035400D01*
X137744600Y-52035400D01*
G37*
G36*
X59544600Y-52035400D02*
X58344600Y-52035400D01*
X58344600Y-48985400D01*
X59544600Y-48985400D01*
X59544600Y-52035400D01*
X59544600Y-52035400D01*
G37*
G36*
X61544600Y-52035400D02*
X60344600Y-52035400D01*
X60344600Y-48985400D01*
X61544600Y-48985400D01*
X61544600Y-52035400D01*
X61544600Y-52035400D01*
G37*
G36*
X66974390Y-49529670D02*
X65974290Y-49529670D01*
X65974290Y-48529570D01*
X66974390Y-48529570D01*
X66974390Y-49529670D01*
X66974390Y-49529670D01*
G37*
G36*
X143161690Y-49516970D02*
X142161590Y-49516970D01*
X142161590Y-48516870D01*
X143161690Y-48516870D01*
X143161690Y-49516970D01*
X143161690Y-49516970D01*
G37*
G36*
X127134600Y-49324900D02*
X112134600Y-49324900D01*
X112134600Y-47874900D01*
X127134600Y-47874900D01*
X127134600Y-49324900D01*
X127134600Y-49324900D01*
G37*
G36*
X50934600Y-49324900D02*
X35934600Y-49324900D01*
X35934600Y-47874900D01*
X50934600Y-47874900D01*
X50934600Y-49324900D01*
X50934600Y-49324900D01*
G37*
G36*
X130524600Y-47874900D02*
X128324600Y-47874900D01*
X128324600Y-44674900D01*
X130524600Y-44674900D01*
X130524600Y-47874900D01*
X130524600Y-47874900D01*
G37*
G36*
X110944600Y-47874900D02*
X108744600Y-47874900D01*
X108744600Y-44674900D01*
X110944600Y-44674900D01*
X110944600Y-47874900D01*
X110944600Y-47874900D01*
G37*
G36*
X34744600Y-47874900D02*
X32544600Y-47874900D01*
X32544600Y-44674900D01*
X34744600Y-44674900D01*
X34744600Y-47874900D01*
X34744600Y-47874900D01*
G37*
G36*
X54324600Y-47874900D02*
X52124600Y-47874900D01*
X52124600Y-44674900D01*
X54324600Y-44674900D01*
X54324600Y-47874900D01*
X54324600Y-47874900D01*
G37*
G36*
X67924390Y-47530690D02*
X66924290Y-47530690D01*
X66924290Y-46530590D01*
X67924390Y-46530590D01*
X67924390Y-47530690D01*
X67924390Y-47530690D01*
G37*
G36*
X66024390Y-47530690D02*
X65024290Y-47530690D01*
X65024290Y-46530590D01*
X66024390Y-46530590D01*
X66024390Y-47530690D01*
X66024390Y-47530690D01*
G37*
G36*
X144111690Y-47517990D02*
X143111590Y-47517990D01*
X143111590Y-46517890D01*
X144111690Y-46517890D01*
X144111690Y-47517990D01*
X144111690Y-47517990D01*
G37*
G36*
X142211690Y-47517990D02*
X141211590Y-47517990D01*
X141211590Y-46517890D01*
X142211690Y-46517890D01*
X142211690Y-47517990D01*
X142211690Y-47517990D01*
G37*
G36*
X133694600Y-46135400D02*
X132094600Y-46135400D01*
X132094600Y-42135400D01*
X133694600Y-42135400D01*
X133694600Y-46135400D01*
X133694600Y-46135400D01*
G37*
G36*
X63994600Y-46135400D02*
X62394600Y-46135400D01*
X62394600Y-42135400D01*
X63994600Y-42135400D01*
X63994600Y-46135400D01*
X63994600Y-46135400D01*
G37*
G36*
X140194600Y-46135400D02*
X138594600Y-46135400D01*
X138594600Y-42135400D01*
X140194600Y-42135400D01*
X140194600Y-46135400D01*
X140194600Y-46135400D01*
G37*
G36*
X57494600Y-46135400D02*
X55894600Y-46135400D01*
X55894600Y-42135400D01*
X57494600Y-42135400D01*
X57494600Y-46135400D01*
X57494600Y-46135400D01*
G37*
G36*
X143952140Y-45965200D02*
X143252140Y-45965200D01*
X143252140Y-44865200D01*
X143952140Y-44865200D01*
X143952140Y-45965200D01*
X143952140Y-45965200D01*
G37*
G36*
X66264840Y-45965200D02*
X65564840Y-45965200D01*
X65564840Y-44865200D01*
X66264840Y-44865200D01*
X66264840Y-45965200D01*
X66264840Y-45965200D01*
G37*
G36*
X67764840Y-45965200D02*
X67064840Y-45965200D01*
X67064840Y-44865200D01*
X67764840Y-44865200D01*
X67764840Y-45965200D01*
X67764840Y-45965200D01*
G37*
G36*
X142452140Y-45965200D02*
X141752140Y-45965200D01*
X141752140Y-44865200D01*
X142452140Y-44865200D01*
X142452140Y-45965200D01*
X142452140Y-45965200D01*
G37*
G36*
X92943100Y-38563400D02*
X90711100Y-38563400D01*
X90711100Y-36331400D01*
X92943100Y-36331400D01*
X92943100Y-38563400D01*
X92943100Y-38563400D01*
G37*
G36*
X89374709Y-36334630D02*
X89505874Y-36347548D01*
X89716241Y-36411362D01*
X89764067Y-36436925D01*
X89910116Y-36514990D01*
X90080049Y-36654451D01*
X90219510Y-36824384D01*
X90233843Y-36851200D01*
X90323138Y-37018259D01*
X90386952Y-37228626D01*
X90408499Y-37447400D01*
X90386952Y-37666174D01*
X90323138Y-37876541D01*
X90323135Y-37876546D01*
X90219510Y-38070416D01*
X90080049Y-38240349D01*
X89910116Y-38379810D01*
X89764067Y-38457875D01*
X89716241Y-38483438D01*
X89505874Y-38547252D01*
X89374709Y-38560170D01*
X89341919Y-38563400D01*
X89232281Y-38563400D01*
X89199491Y-38560170D01*
X89068326Y-38547252D01*
X88857959Y-38483438D01*
X88810133Y-38457875D01*
X88664084Y-38379810D01*
X88494151Y-38240349D01*
X88354690Y-38070416D01*
X88251065Y-37876546D01*
X88251062Y-37876541D01*
X88187248Y-37666174D01*
X88165701Y-37447400D01*
X88187248Y-37228626D01*
X88251062Y-37018259D01*
X88340357Y-36851200D01*
X88354690Y-36824384D01*
X88494151Y-36654451D01*
X88664084Y-36514990D01*
X88810133Y-36436925D01*
X88857959Y-36411362D01*
X89068326Y-36347548D01*
X89199491Y-36334630D01*
X89232281Y-36331400D01*
X89341919Y-36331400D01*
X89374709Y-36334630D01*
X89374709Y-36334630D01*
G37*
G36*
X74782100Y-38563400D02*
X72550100Y-38563400D01*
X72550100Y-36331400D01*
X74782100Y-36331400D01*
X74782100Y-38563400D01*
X74782100Y-38563400D01*
G37*
G36*
X71213709Y-36334630D02*
X71344874Y-36347548D01*
X71555241Y-36411362D01*
X71603067Y-36436925D01*
X71749116Y-36514990D01*
X71919049Y-36654451D01*
X72058510Y-36824384D01*
X72072843Y-36851200D01*
X72162138Y-37018259D01*
X72225952Y-37228626D01*
X72247499Y-37447400D01*
X72225952Y-37666174D01*
X72162138Y-37876541D01*
X72162135Y-37876546D01*
X72058510Y-38070416D01*
X71919049Y-38240349D01*
X71749116Y-38379810D01*
X71603067Y-38457875D01*
X71555241Y-38483438D01*
X71344874Y-38547252D01*
X71213709Y-38560170D01*
X71180919Y-38563400D01*
X71071281Y-38563400D01*
X71038491Y-38560170D01*
X70907326Y-38547252D01*
X70696959Y-38483438D01*
X70649133Y-38457875D01*
X70503084Y-38379810D01*
X70333151Y-38240349D01*
X70193690Y-38070416D01*
X70090065Y-37876546D01*
X70090062Y-37876541D01*
X70026248Y-37666174D01*
X70004701Y-37447400D01*
X70026248Y-37228626D01*
X70090062Y-37018259D01*
X70179357Y-36851200D01*
X70193690Y-36824384D01*
X70333151Y-36654451D01*
X70503084Y-36514990D01*
X70649133Y-36436925D01*
X70696959Y-36411362D01*
X70907326Y-36347548D01*
X71038491Y-36334630D01*
X71071281Y-36331400D01*
X71180919Y-36331400D01*
X71213709Y-36334630D01*
X71213709Y-36334630D01*
G37*
G36*
X147975800Y-37451200D02*
X146675800Y-37451200D01*
X146675800Y-28401200D01*
X147975800Y-28401200D01*
X147975800Y-37451200D01*
X147975800Y-37451200D01*
G37*
G36*
X142275800Y-37451200D02*
X140975800Y-37451200D01*
X140975800Y-28401200D01*
X142275800Y-28401200D01*
X142275800Y-37451200D01*
X142275800Y-37451200D01*
G37*
G36*
X84307100Y-36578900D02*
X83207100Y-36578900D01*
X83207100Y-35878900D01*
X84307100Y-35878900D01*
X84307100Y-36578900D01*
X84307100Y-36578900D01*
G37*
G36*
X86085100Y-36578900D02*
X84985100Y-36578900D01*
X84985100Y-35878900D01*
X86085100Y-35878900D01*
X86085100Y-36578900D01*
X86085100Y-36578900D01*
G37*
G36*
X140379540Y-35745600D02*
X139279540Y-35745600D01*
X139279540Y-35045600D01*
X140379540Y-35045600D01*
X140379540Y-35745600D01*
X140379540Y-35745600D01*
G37*
G36*
X86085100Y-35078900D02*
X84985100Y-35078900D01*
X84985100Y-34378900D01*
X86085100Y-34378900D01*
X86085100Y-35078900D01*
X86085100Y-35078900D01*
G37*
G36*
X84307100Y-35078900D02*
X83207100Y-35078900D01*
X83207100Y-34378900D01*
X84307100Y-34378900D01*
X84307100Y-35078900D01*
X84307100Y-35078900D01*
G37*
G36*
X140379540Y-34245600D02*
X139279540Y-34245600D01*
X139279540Y-33545600D01*
X140379540Y-33545600D01*
X140379540Y-34245600D01*
X140379540Y-34245600D01*
G37*
G36*
X71496190Y-33830110D02*
X69195610Y-33830110D01*
X69195610Y-28029410D01*
X71496190Y-28029410D01*
X71496190Y-33830110D01*
X71496190Y-33830110D01*
G37*
G36*
X76675600Y-32982400D02*
X75725600Y-32982400D01*
X75725600Y-31982400D01*
X76675600Y-31982400D01*
X76675600Y-32982400D01*
X76675600Y-32982400D01*
G37*
G36*
X83406600Y-32537900D02*
X82456600Y-32537900D01*
X82456600Y-31537900D01*
X83406600Y-31537900D01*
X83406600Y-32537900D01*
X83406600Y-32537900D01*
G37*
G36*
X63890060Y-31926720D02*
X62090060Y-31926720D01*
X62090060Y-29546720D01*
X63890060Y-29546720D01*
X63890060Y-31926720D01*
X63890060Y-31926720D01*
G37*
G36*
X76675600Y-31482400D02*
X75725600Y-31482400D01*
X75725600Y-30482400D01*
X76675600Y-30482400D01*
X76675600Y-31482400D01*
X76675600Y-31482400D01*
G37*
G36*
X67277600Y-31458400D02*
X66327600Y-31458400D01*
X66327600Y-30458400D01*
X67277600Y-30458400D01*
X67277600Y-31458400D01*
X67277600Y-31458400D01*
G37*
G36*
X83406600Y-31037900D02*
X82456600Y-31037900D01*
X82456600Y-30037900D01*
X83406600Y-30037900D01*
X83406600Y-31037900D01*
X83406600Y-31037900D01*
G37*
G36*
X67277600Y-29958400D02*
X66327600Y-29958400D01*
X66327600Y-28958400D01*
X67277600Y-28958400D01*
X67277600Y-29958400D01*
X67277600Y-29958400D01*
G37*
G36*
X86499200Y-29347800D02*
X76519200Y-29347800D01*
X76519200Y-27647800D01*
X86499200Y-27647800D01*
X86499200Y-29347800D01*
X86499200Y-29347800D01*
G37*
G36*
X95024910Y-27721450D02*
X94024810Y-27721450D01*
X94024810Y-26721350D01*
X95024910Y-26721350D01*
X95024910Y-27721450D01*
X95024910Y-27721450D01*
G37*
G36*
X66388600Y-27394400D02*
X65438600Y-27394400D01*
X65438600Y-26394400D01*
X66388600Y-26394400D01*
X66388600Y-27394400D01*
X66388600Y-27394400D01*
G37*
G36*
X93025930Y-26771450D02*
X92025830Y-26771450D01*
X92025830Y-25771350D01*
X93025930Y-25771350D01*
X93025930Y-26771450D01*
X93025930Y-26771450D01*
G37*
G36*
X96943600Y-26736400D02*
X95843600Y-26736400D01*
X95843600Y-26036400D01*
X96943600Y-26036400D01*
X96943600Y-26736400D01*
X96943600Y-26736400D01*
G37*
G36*
X29665157Y-11064881D02*
X29821703Y-11106827D01*
X29821704Y-11106828D01*
X29837600Y-11111087D01*
X30020613Y-11294100D01*
X30087600Y-11544100D01*
X30087600Y-26101600D01*
X30020613Y-26351600D01*
X29837600Y-26534613D01*
X29821704Y-26538872D01*
X29821703Y-26538873D01*
X29665157Y-26580819D01*
X29587600Y-26601600D01*
X-1022700Y-26601600D01*
X-1100257Y-26580819D01*
X-1256803Y-26538873D01*
X-1256804Y-26538872D01*
X-1272700Y-26534613D01*
X-1455713Y-26351600D01*
X-1522700Y-26101600D01*
X-1522700Y-11544100D01*
X-1455713Y-11294100D01*
X-1272700Y-11111087D01*
X-1256804Y-11106828D01*
X-1256803Y-11106827D01*
X-1100257Y-11064881D01*
X-1022700Y-11044100D01*
X29587600Y-11044100D01*
X29665157Y-11064881D01*
X29665157Y-11064881D01*
G37*
G36*
X89259200Y-26587800D02*
X87559200Y-26587800D01*
X87559200Y-16607800D01*
X89259200Y-16607800D01*
X89259200Y-26587800D01*
X89259200Y-26587800D01*
G37*
G36*
X75459200Y-26587800D02*
X73759200Y-26587800D01*
X73759200Y-16607800D01*
X75459200Y-16607800D01*
X75459200Y-26587800D01*
X75459200Y-26587800D01*
G37*
G36*
X66388600Y-25894400D02*
X65438600Y-25894400D01*
X65438600Y-24894400D01*
X66388600Y-24894400D01*
X66388600Y-25894400D01*
X66388600Y-25894400D01*
G37*
G36*
X95024910Y-25821450D02*
X94024810Y-25821450D01*
X94024810Y-24821350D01*
X95024910Y-24821350D01*
X95024910Y-25821450D01*
X95024910Y-25821450D01*
G37*
G36*
X96943600Y-25236400D02*
X95843600Y-25236400D01*
X95843600Y-24536400D01*
X96943600Y-24536400D01*
X96943600Y-25236400D01*
X96943600Y-25236400D01*
G37*
G36*
X71496190Y-24132390D02*
X69195610Y-24132390D01*
X69195610Y-18331690D01*
X71496190Y-18331690D01*
X71496190Y-24132390D01*
X71496190Y-24132390D01*
G37*
G36*
X67277600Y-23266900D02*
X66327600Y-23266900D01*
X66327600Y-22266900D01*
X67277600Y-22266900D01*
X67277600Y-23266900D01*
X67277600Y-23266900D01*
G37*
G36*
X63894700Y-22721860D02*
X62094700Y-22721860D01*
X62094700Y-20341860D01*
X63894700Y-20341860D01*
X63894700Y-22721860D01*
X63894700Y-22721860D01*
G37*
G36*
X67277600Y-21766900D02*
X66327600Y-21766900D01*
X66327600Y-20766900D01*
X67277600Y-20766900D01*
X67277600Y-21766900D01*
X67277600Y-21766900D01*
G37*
G36*
X90797600Y-19761400D02*
X89797600Y-19761400D01*
X89797600Y-18811400D01*
X90797600Y-18811400D01*
X90797600Y-19761400D01*
X90797600Y-19761400D01*
G37*
G36*
X92297600Y-19761400D02*
X91297600Y-19761400D01*
X91297600Y-18811400D01*
X92297600Y-18811400D01*
X92297600Y-19761400D01*
X92297600Y-19761400D01*
G37*
G36*
X66212100Y-19328400D02*
X65512100Y-19328400D01*
X65512100Y-18228400D01*
X66212100Y-18228400D01*
X66212100Y-19328400D01*
X66212100Y-19328400D01*
G37*
G36*
X67712100Y-19328400D02*
X67012100Y-19328400D01*
X67012100Y-18228400D01*
X67712100Y-18228400D01*
X67712100Y-19328400D01*
X67712100Y-19328400D01*
G37*
G36*
X61320100Y-19179900D02*
X60220100Y-19179900D01*
X60220100Y-18479900D01*
X61320100Y-18479900D01*
X61320100Y-19179900D01*
X61320100Y-19179900D01*
G37*
G36*
X64950600Y-19166900D02*
X64160600Y-19166900D01*
X64160600Y-18516900D01*
X64950600Y-18516900D01*
X64950600Y-19166900D01*
X64950600Y-19166900D01*
G37*
G36*
X62840600Y-19166900D02*
X62050600Y-19166900D01*
X62050600Y-18516900D01*
X62840600Y-18516900D01*
X62840600Y-19166900D01*
X62840600Y-19166900D01*
G37*
G36*
X61320100Y-17679900D02*
X60220100Y-17679900D01*
X60220100Y-16979900D01*
X61320100Y-16979900D01*
X61320100Y-17679900D01*
X61320100Y-17679900D01*
G37*
G36*
X70480400Y-17637600D02*
X69830400Y-17637600D01*
X69830400Y-16847600D01*
X70480400Y-16847600D01*
X70480400Y-17637600D01*
X70480400Y-17637600D01*
G37*
G36*
X64748600Y-17587400D02*
X61998600Y-17587400D01*
X61998600Y-16327400D01*
X64748600Y-16327400D01*
X64748600Y-17587400D01*
X64748600Y-17587400D01*
G37*
G36*
X67712100Y-17486900D02*
X67012100Y-17486900D01*
X67012100Y-16386900D01*
X67712100Y-16386900D01*
X67712100Y-17486900D01*
X67712100Y-17486900D01*
G37*
G36*
X66212100Y-17486900D02*
X65512100Y-17486900D01*
X65512100Y-16386900D01*
X66212100Y-16386900D01*
X66212100Y-17486900D01*
X66212100Y-17486900D01*
G37*
G36*
X66720100Y-15629900D02*
X65520100Y-15629900D01*
X65520100Y-14179900D01*
X66720100Y-14179900D01*
X66720100Y-15629900D01*
X66720100Y-15629900D01*
G37*
G36*
X68720100Y-15629900D02*
X67520100Y-15629900D01*
X67520100Y-14179900D01*
X68720100Y-14179900D01*
X68720100Y-15629900D01*
X68720100Y-15629900D01*
G37*
G36*
X86499200Y-15547800D02*
X76519200Y-15547800D01*
X76519200Y-13847800D01*
X86499200Y-13847800D01*
X86499200Y-15547800D01*
X86499200Y-15547800D01*
G37*
G36*
X70480400Y-15527600D02*
X69830400Y-15527600D01*
X69830400Y-14737600D01*
X70480400Y-14737600D01*
X70480400Y-15527600D01*
X70480400Y-15527600D01*
G37*
G36*
X64748600Y-15387400D02*
X63898600Y-15387400D01*
X63898600Y-14127400D01*
X64748600Y-14127400D01*
X64748600Y-15387400D01*
X64748600Y-15387400D01*
G37*
G36*
X62848600Y-15387400D02*
X61998600Y-15387400D01*
X61998600Y-14127400D01*
X62848600Y-14127400D01*
X62848600Y-15387400D01*
X62848600Y-15387400D01*
G37*
G36*
X41160921Y-12350386D02*
X41324709Y-12418229D01*
X41472120Y-12516726D01*
X41597474Y-12642080D01*
X41695971Y-12789491D01*
X41763814Y-12953279D01*
X41798400Y-13127156D01*
X41798400Y-13304444D01*
X41763814Y-13478321D01*
X41695971Y-13642109D01*
X41597474Y-13789520D01*
X41472120Y-13914874D01*
X41324709Y-14013371D01*
X41160921Y-14081214D01*
X40987044Y-14115800D01*
X40809756Y-14115800D01*
X40635879Y-14081214D01*
X40472091Y-14013371D01*
X40324680Y-13914874D01*
X40199326Y-13789520D01*
X40100829Y-13642109D01*
X40032986Y-13478321D01*
X39998400Y-13304444D01*
X39998400Y-13127156D01*
X40032986Y-12953279D01*
X40100829Y-12789491D01*
X40199326Y-12642080D01*
X40324680Y-12516726D01*
X40472091Y-12418229D01*
X40635879Y-12350386D01*
X40809756Y-12315800D01*
X40987044Y-12315800D01*
X41160921Y-12350386D01*
X41160921Y-12350386D01*
G37*
G36*
X43660921Y-12350386D02*
X43824709Y-12418229D01*
X43972120Y-12516726D01*
X44097474Y-12642080D01*
X44195971Y-12789491D01*
X44263814Y-12953279D01*
X44298400Y-13127156D01*
X44298400Y-13304444D01*
X44263814Y-13478321D01*
X44195971Y-13642109D01*
X44097474Y-13789520D01*
X43972120Y-13914874D01*
X43824709Y-14013371D01*
X43660921Y-14081214D01*
X43487044Y-14115800D01*
X43309756Y-14115800D01*
X43135879Y-14081214D01*
X42972091Y-14013371D01*
X42824680Y-13914874D01*
X42699326Y-13789520D01*
X42600829Y-13642109D01*
X42532986Y-13478321D01*
X42498400Y-13304444D01*
X42498400Y-13127156D01*
X42532986Y-12953279D01*
X42600829Y-12789491D01*
X42699326Y-12642080D01*
X42824680Y-12516726D01*
X42972091Y-12418229D01*
X43135879Y-12350386D01*
X43309756Y-12315800D01*
X43487044Y-12315800D01*
X43660921Y-12350386D01*
X43660921Y-12350386D01*
G37*
G36*
X46160921Y-12350386D02*
X46324709Y-12418229D01*
X46472120Y-12516726D01*
X46597474Y-12642080D01*
X46695971Y-12789491D01*
X46763814Y-12953279D01*
X46798400Y-13127156D01*
X46798400Y-13304444D01*
X46763814Y-13478321D01*
X46695971Y-13642109D01*
X46597474Y-13789520D01*
X46472120Y-13914874D01*
X46324709Y-14013371D01*
X46160921Y-14081214D01*
X45987044Y-14115800D01*
X45809756Y-14115800D01*
X45635879Y-14081214D01*
X45472091Y-14013371D01*
X45324680Y-13914874D01*
X45199326Y-13789520D01*
X45100829Y-13642109D01*
X45032986Y-13478321D01*
X44998400Y-13304444D01*
X44998400Y-13127156D01*
X45032986Y-12953279D01*
X45100829Y-12789491D01*
X45199326Y-12642080D01*
X45324680Y-12516726D01*
X45472091Y-12418229D01*
X45635879Y-12350386D01*
X45809756Y-12315800D01*
X45987044Y-12315800D01*
X46160921Y-12350386D01*
X46160921Y-12350386D01*
G37*
G36*
X117386321Y-12299586D02*
X117550109Y-12367429D01*
X117697520Y-12465926D01*
X117822874Y-12591280D01*
X117921371Y-12738691D01*
X117989214Y-12902479D01*
X118023800Y-13076356D01*
X118023800Y-13253644D01*
X117989214Y-13427521D01*
X117921371Y-13591309D01*
X117822874Y-13738720D01*
X117697520Y-13864074D01*
X117550109Y-13962571D01*
X117386321Y-14030414D01*
X117212444Y-14065000D01*
X117035156Y-14065000D01*
X116861279Y-14030414D01*
X116697491Y-13962571D01*
X116550080Y-13864074D01*
X116424726Y-13738720D01*
X116326229Y-13591309D01*
X116258386Y-13427521D01*
X116223800Y-13253644D01*
X116223800Y-13076356D01*
X116258386Y-12902479D01*
X116326229Y-12738691D01*
X116424726Y-12591280D01*
X116550080Y-12465926D01*
X116697491Y-12367429D01*
X116861279Y-12299586D01*
X117035156Y-12265000D01*
X117212444Y-12265000D01*
X117386321Y-12299586D01*
X117386321Y-12299586D01*
G37*
G36*
X122386321Y-12299586D02*
X122550109Y-12367429D01*
X122697520Y-12465926D01*
X122822874Y-12591280D01*
X122921371Y-12738691D01*
X122989214Y-12902479D01*
X123023800Y-13076356D01*
X123023800Y-13253644D01*
X122989214Y-13427521D01*
X122921371Y-13591309D01*
X122822874Y-13738720D01*
X122697520Y-13864074D01*
X122550109Y-13962571D01*
X122386321Y-14030414D01*
X122212444Y-14065000D01*
X122035156Y-14065000D01*
X121861279Y-14030414D01*
X121697491Y-13962571D01*
X121550080Y-13864074D01*
X121424726Y-13738720D01*
X121326229Y-13591309D01*
X121258386Y-13427521D01*
X121223800Y-13253644D01*
X121223800Y-13076356D01*
X121258386Y-12902479D01*
X121326229Y-12738691D01*
X121424726Y-12591280D01*
X121550080Y-12465926D01*
X121697491Y-12367429D01*
X121861279Y-12299586D01*
X122035156Y-12265000D01*
X122212444Y-12265000D01*
X122386321Y-12299586D01*
X122386321Y-12299586D01*
G37*
G36*
X119886321Y-12299586D02*
X120050109Y-12367429D01*
X120197520Y-12465926D01*
X120322874Y-12591280D01*
X120421371Y-12738691D01*
X120489214Y-12902479D01*
X120523800Y-13076356D01*
X120523800Y-13253644D01*
X120489214Y-13427521D01*
X120421371Y-13591309D01*
X120322874Y-13738720D01*
X120197520Y-13864074D01*
X120050109Y-13962571D01*
X119886321Y-14030414D01*
X119712444Y-14065000D01*
X119535156Y-14065000D01*
X119361279Y-14030414D01*
X119197491Y-13962571D01*
X119050080Y-13864074D01*
X118924726Y-13738720D01*
X118826229Y-13591309D01*
X118758386Y-13427521D01*
X118723800Y-13253644D01*
X118723800Y-13076356D01*
X118758386Y-12902479D01*
X118826229Y-12738691D01*
X118924726Y-12591280D01*
X119050080Y-12465926D01*
X119197491Y-12367429D01*
X119361279Y-12299586D01*
X119535156Y-12265000D01*
X119712444Y-12265000D01*
X119886321Y-12299586D01*
X119886321Y-12299586D01*
G37*
G36*
X67712100Y-13422900D02*
X67012100Y-13422900D01*
X67012100Y-12322900D01*
X67712100Y-12322900D01*
X67712100Y-13422900D01*
X67712100Y-13422900D01*
G37*
G36*
X66212100Y-13422900D02*
X65512100Y-13422900D01*
X65512100Y-12322900D01*
X66212100Y-12322900D01*
X66212100Y-13422900D01*
X66212100Y-13422900D01*
G37*
G36*
X70654600Y-13274400D02*
X69554600Y-13274400D01*
X69554600Y-12574400D01*
X70654600Y-12574400D01*
X70654600Y-13274400D01*
X70654600Y-13274400D01*
G37*
G36*
X73004100Y-13274400D02*
X71904100Y-13274400D01*
X71904100Y-12574400D01*
X73004100Y-12574400D01*
X73004100Y-13274400D01*
X73004100Y-13274400D01*
G37*
G36*
X74972600Y-13274400D02*
X73872600Y-13274400D01*
X73872600Y-12574400D01*
X74972600Y-12574400D01*
X74972600Y-13274400D01*
X74972600Y-13274400D01*
G37*
G36*
X77004600Y-13274400D02*
X75904600Y-13274400D01*
X75904600Y-12574400D01*
X77004600Y-12574400D01*
X77004600Y-13274400D01*
X77004600Y-13274400D01*
G37*
G36*
X78707600Y-13233900D02*
X77757600Y-13233900D01*
X77757600Y-12233900D01*
X78707600Y-12233900D01*
X78707600Y-13233900D01*
X78707600Y-13233900D01*
G37*
G36*
X83420000Y-13221200D02*
X82470000Y-13221200D01*
X82470000Y-12221200D01*
X83420000Y-12221200D01*
X83420000Y-13221200D01*
X83420000Y-13221200D01*
G37*
G36*
X64696600Y-13197900D02*
X63906600Y-13197900D01*
X63906600Y-12547900D01*
X64696600Y-12547900D01*
X64696600Y-13197900D01*
X64696600Y-13197900D01*
G37*
G36*
X62586600Y-13197900D02*
X61796600Y-13197900D01*
X61796600Y-12547900D01*
X62586600Y-12547900D01*
X62586600Y-13197900D01*
X62586600Y-13197900D01*
G37*
G36*
X77004600Y-11774400D02*
X75904600Y-11774400D01*
X75904600Y-11074400D01*
X77004600Y-11074400D01*
X77004600Y-11774400D01*
X77004600Y-11774400D01*
G37*
G36*
X70654600Y-11774400D02*
X69554600Y-11774400D01*
X69554600Y-11074400D01*
X70654600Y-11074400D01*
X70654600Y-11774400D01*
X70654600Y-11774400D01*
G37*
G36*
X74972600Y-11774400D02*
X73872600Y-11774400D01*
X73872600Y-11074400D01*
X74972600Y-11074400D01*
X74972600Y-11774400D01*
X74972600Y-11774400D01*
G37*
G36*
X73004100Y-11774400D02*
X71904100Y-11774400D01*
X71904100Y-11074400D01*
X73004100Y-11074400D01*
X73004100Y-11774400D01*
X73004100Y-11774400D01*
G37*
G36*
X78707600Y-11733900D02*
X77757600Y-11733900D01*
X77757600Y-10733900D01*
X78707600Y-10733900D01*
X78707600Y-11733900D01*
X78707600Y-11733900D01*
G37*
G36*
X83420000Y-11721200D02*
X82470000Y-11721200D01*
X82470000Y-10721200D01*
X83420000Y-10721200D01*
X83420000Y-11721200D01*
X83420000Y-11721200D01*
G37*
G36*
X117483400Y-11479800D02*
X116783400Y-11479800D01*
X116783400Y-10379800D01*
X117483400Y-10379800D01*
X117483400Y-11479800D01*
X117483400Y-11479800D01*
G37*
G36*
X39732600Y-11479800D02*
X39032600Y-11479800D01*
X39032600Y-10379800D01*
X39732600Y-10379800D01*
X39732600Y-11479800D01*
X39732600Y-11479800D01*
G37*
G36*
X41232600Y-11479800D02*
X40532600Y-11479800D01*
X40532600Y-10379800D01*
X41232600Y-10379800D01*
X41232600Y-11479800D01*
X41232600Y-11479800D01*
G37*
G36*
X123960400Y-11479800D02*
X123260400Y-11479800D01*
X123260400Y-10379800D01*
X123960400Y-10379800D01*
X123960400Y-11479800D01*
X123960400Y-11479800D01*
G37*
G36*
X115983400Y-11479800D02*
X115283400Y-11479800D01*
X115283400Y-10379800D01*
X115983400Y-10379800D01*
X115983400Y-11479800D01*
X115983400Y-11479800D01*
G37*
G36*
X46209600Y-11479800D02*
X45509600Y-11479800D01*
X45509600Y-10379800D01*
X46209600Y-10379800D01*
X46209600Y-11479800D01*
X46209600Y-11479800D01*
G37*
G36*
X47709600Y-11479800D02*
X47009600Y-11479800D01*
X47009600Y-10379800D01*
X47709600Y-10379800D01*
X47709600Y-11479800D01*
X47709600Y-11479800D01*
G37*
G36*
X122460400Y-11479800D02*
X121760400Y-11479800D01*
X121760400Y-10379800D01*
X122460400Y-10379800D01*
X122460400Y-11479800D01*
X122460400Y-11479800D01*
G37*
G36*
X42842800Y-11290800D02*
X41892800Y-11290800D01*
X41892800Y-10290800D01*
X42842800Y-10290800D01*
X42842800Y-11290800D01*
X42842800Y-11290800D01*
G37*
G36*
X44849400Y-11290800D02*
X43899400Y-11290800D01*
X43899400Y-10290800D01*
X44849400Y-10290800D01*
X44849400Y-11290800D01*
X44849400Y-11290800D01*
G37*
G36*
X119093600Y-11290800D02*
X118143600Y-11290800D01*
X118143600Y-10290800D01*
X119093600Y-10290800D01*
X119093600Y-11290800D01*
X119093600Y-11290800D01*
G37*
G36*
X121100200Y-11290800D02*
X120150200Y-11290800D01*
X120150200Y-10290800D01*
X121100200Y-10290800D01*
X121100200Y-11290800D01*
X121100200Y-11290800D01*
G37*
G36*
X4990100Y-10559900D02*
X3139100Y-10559900D01*
X3139100Y-7311900D01*
X4990100Y-7311900D01*
X4990100Y-10559900D01*
X4990100Y-10559900D01*
G37*
G36*
X9562100Y-10559900D02*
X7711100Y-10559900D01*
X7711100Y-7311900D01*
X9562100Y-7311900D01*
X9562100Y-10559900D01*
X9562100Y-10559900D01*
G37*
G36*
X20801600Y-10559900D02*
X18950600Y-10559900D01*
X18950600Y-7311900D01*
X20801600Y-7311900D01*
X20801600Y-10559900D01*
X20801600Y-10559900D01*
G37*
G36*
X25373600Y-10559900D02*
X23522600Y-10559900D01*
X23522600Y-7311900D01*
X25373600Y-7311900D01*
X25373600Y-10559900D01*
X25373600Y-10559900D01*
G37*
G36*
X121100200Y-9790800D02*
X120150200Y-9790800D01*
X120150200Y-8790800D01*
X121100200Y-8790800D01*
X121100200Y-9790800D01*
X121100200Y-9790800D01*
G37*
G36*
X42842800Y-9790800D02*
X41892800Y-9790800D01*
X41892800Y-8790800D01*
X42842800Y-8790800D01*
X42842800Y-9790800D01*
X42842800Y-9790800D01*
G37*
G36*
X44849400Y-9790800D02*
X43899400Y-9790800D01*
X43899400Y-8790800D01*
X44849400Y-8790800D01*
X44849400Y-9790800D01*
X44849400Y-9790800D01*
G37*
G36*
X119093600Y-9790800D02*
X118143600Y-9790800D01*
X118143600Y-8790800D01*
X119093600Y-8790800D01*
X119093600Y-9790800D01*
X119093600Y-9790800D01*
G37*
G36*
X46209600Y-9752600D02*
X45509600Y-9752600D01*
X45509600Y-8652600D01*
X46209600Y-8652600D01*
X46209600Y-9752600D01*
X46209600Y-9752600D01*
G37*
G36*
X47709600Y-9752600D02*
X47009600Y-9752600D01*
X47009600Y-8652600D01*
X47709600Y-8652600D01*
X47709600Y-9752600D01*
X47709600Y-9752600D01*
G37*
G36*
X115983400Y-9752600D02*
X115283400Y-9752600D01*
X115283400Y-8652600D01*
X115983400Y-8652600D01*
X115983400Y-9752600D01*
X115983400Y-9752600D01*
G37*
G36*
X117483400Y-9752600D02*
X116783400Y-9752600D01*
X116783400Y-8652600D01*
X117483400Y-8652600D01*
X117483400Y-9752600D01*
X117483400Y-9752600D01*
G37*
G36*
X122460400Y-9752600D02*
X121760400Y-9752600D01*
X121760400Y-8652600D01*
X122460400Y-8652600D01*
X122460400Y-9752600D01*
X122460400Y-9752600D01*
G37*
G36*
X41232600Y-9752600D02*
X40532600Y-9752600D01*
X40532600Y-8652600D01*
X41232600Y-8652600D01*
X41232600Y-9752600D01*
X41232600Y-9752600D01*
G37*
G36*
X123960400Y-9752600D02*
X123260400Y-9752600D01*
X123260400Y-8652600D01*
X123960400Y-8652600D01*
X123960400Y-9752600D01*
X123960400Y-9752600D01*
G37*
G36*
X39732600Y-9752600D02*
X39032600Y-9752600D01*
X39032600Y-8652600D01*
X39732600Y-8652600D01*
X39732600Y-9752600D01*
X39732600Y-9752600D01*
G37*
G36*
X70350403Y-5794918D02*
X70350405Y-5794919D01*
X70350406Y-5794919D01*
X70464148Y-5842032D01*
X70520411Y-5879626D01*
X70566517Y-5910433D01*
X70653567Y-5997483D01*
X70699166Y-6065727D01*
X70714711Y-6084669D01*
X70733653Y-6100215D01*
X70755264Y-6111766D01*
X70778713Y-6118879D01*
X70803100Y-6121281D01*
X70827486Y-6118879D01*
X70850935Y-6111766D01*
X70872546Y-6100215D01*
X70891488Y-6084670D01*
X70907034Y-6065727D01*
X70952633Y-5997483D01*
X71039683Y-5910433D01*
X71085789Y-5879626D01*
X71142052Y-5842032D01*
X71255794Y-5794919D01*
X71255795Y-5794919D01*
X71255797Y-5794918D01*
X71376541Y-5770900D01*
X71499659Y-5770900D01*
X71620403Y-5794918D01*
X71620405Y-5794919D01*
X71620406Y-5794919D01*
X71734148Y-5842032D01*
X71790411Y-5879626D01*
X71836517Y-5910433D01*
X71923567Y-5997483D01*
X71969166Y-6065727D01*
X71984711Y-6084669D01*
X72003653Y-6100215D01*
X72025264Y-6111766D01*
X72048713Y-6118879D01*
X72073100Y-6121281D01*
X72097486Y-6118879D01*
X72120935Y-6111766D01*
X72142546Y-6100215D01*
X72161488Y-6084670D01*
X72177034Y-6065727D01*
X72222633Y-5997483D01*
X72309683Y-5910433D01*
X72355789Y-5879626D01*
X72412052Y-5842032D01*
X72525794Y-5794919D01*
X72525795Y-5794919D01*
X72525797Y-5794918D01*
X72646541Y-5770900D01*
X72769659Y-5770900D01*
X72890403Y-5794918D01*
X72890405Y-5794919D01*
X72890406Y-5794919D01*
X73004148Y-5842032D01*
X73060411Y-5879626D01*
X73106517Y-5910433D01*
X73193567Y-5997483D01*
X73239166Y-6065727D01*
X73254711Y-6084669D01*
X73273653Y-6100215D01*
X73295264Y-6111766D01*
X73318713Y-6118879D01*
X73343100Y-6121281D01*
X73367486Y-6118879D01*
X73390935Y-6111766D01*
X73412546Y-6100215D01*
X73431488Y-6084670D01*
X73447034Y-6065727D01*
X73492633Y-5997483D01*
X73579683Y-5910433D01*
X73625789Y-5879626D01*
X73682052Y-5842032D01*
X73795794Y-5794919D01*
X73795795Y-5794919D01*
X73795797Y-5794918D01*
X73916541Y-5770900D01*
X74039659Y-5770900D01*
X74160403Y-5794918D01*
X74160405Y-5794919D01*
X74160406Y-5794919D01*
X74274148Y-5842032D01*
X74330411Y-5879626D01*
X74376517Y-5910433D01*
X74409712Y-5943628D01*
X74428654Y-5959174D01*
X74450265Y-5970725D01*
X74473714Y-5977838D01*
X74498100Y-5980240D01*
X74522486Y-5977838D01*
X74545935Y-5970725D01*
X74567546Y-5959174D01*
X74586488Y-5943628D01*
X74602034Y-5924686D01*
X74613585Y-5903075D01*
X74620698Y-5879626D01*
X74623100Y-5855240D01*
X74623100Y-5770900D01*
X75873100Y-5770900D01*
X75873100Y-7020900D01*
X75788760Y-7020900D01*
X75764374Y-7023302D01*
X75740925Y-7030415D01*
X75719314Y-7041966D01*
X75700372Y-7057512D01*
X75684826Y-7076454D01*
X75673275Y-7098065D01*
X75666162Y-7121514D01*
X75663760Y-7145900D01*
X75666162Y-7170286D01*
X75673275Y-7193735D01*
X75684826Y-7215346D01*
X75700372Y-7234288D01*
X75733567Y-7267483D01*
X75733569Y-7267486D01*
X75801968Y-7369852D01*
X75849081Y-7483594D01*
X75873100Y-7604343D01*
X75873100Y-7727457D01*
X75849081Y-7848206D01*
X75801968Y-7961948D01*
X75791823Y-7977131D01*
X75733567Y-8064317D01*
X75646517Y-8151367D01*
X75646514Y-8151369D01*
X75544148Y-8219768D01*
X75430406Y-8266881D01*
X75430405Y-8266881D01*
X75430403Y-8266882D01*
X75309659Y-8290900D01*
X75186541Y-8290900D01*
X75065797Y-8266882D01*
X75065795Y-8266881D01*
X75065794Y-8266881D01*
X74952052Y-8219768D01*
X74849686Y-8151369D01*
X74849683Y-8151367D01*
X74762633Y-8064317D01*
X74717034Y-7996073D01*
X74701489Y-7977131D01*
X74682547Y-7961585D01*
X74660936Y-7950034D01*
X74637487Y-7942921D01*
X74613100Y-7940519D01*
X74588714Y-7942921D01*
X74565265Y-7950034D01*
X74543654Y-7961585D01*
X74524712Y-7977130D01*
X74509166Y-7996073D01*
X74463567Y-8064317D01*
X74376517Y-8151367D01*
X74376514Y-8151369D01*
X74274148Y-8219768D01*
X74160406Y-8266881D01*
X74160405Y-8266881D01*
X74160403Y-8266882D01*
X74039659Y-8290900D01*
X73916541Y-8290900D01*
X73795797Y-8266882D01*
X73795795Y-8266881D01*
X73795794Y-8266881D01*
X73682052Y-8219768D01*
X73579686Y-8151369D01*
X73579683Y-8151367D01*
X73492633Y-8064317D01*
X73447034Y-7996073D01*
X73431489Y-7977131D01*
X73412547Y-7961585D01*
X73390936Y-7950034D01*
X73367487Y-7942921D01*
X73343100Y-7940519D01*
X73318714Y-7942921D01*
X73295265Y-7950034D01*
X73273654Y-7961585D01*
X73254712Y-7977130D01*
X73239166Y-7996073D01*
X73193567Y-8064317D01*
X73106517Y-8151367D01*
X73106514Y-8151369D01*
X73004148Y-8219768D01*
X72890406Y-8266881D01*
X72890405Y-8266881D01*
X72890403Y-8266882D01*
X72769659Y-8290900D01*
X72646541Y-8290900D01*
X72525797Y-8266882D01*
X72525795Y-8266881D01*
X72525794Y-8266881D01*
X72412052Y-8219768D01*
X72309686Y-8151369D01*
X72309683Y-8151367D01*
X72222633Y-8064317D01*
X72177034Y-7996073D01*
X72161489Y-7977131D01*
X72142547Y-7961585D01*
X72120936Y-7950034D01*
X72097487Y-7942921D01*
X72073100Y-7940519D01*
X72048714Y-7942921D01*
X72025265Y-7950034D01*
X72003654Y-7961585D01*
X71984712Y-7977130D01*
X71969166Y-7996073D01*
X71923567Y-8064317D01*
X71836517Y-8151367D01*
X71836514Y-8151369D01*
X71734148Y-8219768D01*
X71620406Y-8266881D01*
X71620405Y-8266881D01*
X71620403Y-8266882D01*
X71499659Y-8290900D01*
X71376541Y-8290900D01*
X71255797Y-8266882D01*
X71255795Y-8266881D01*
X71255794Y-8266881D01*
X71142052Y-8219768D01*
X71039686Y-8151369D01*
X71039683Y-8151367D01*
X70952633Y-8064317D01*
X70907034Y-7996073D01*
X70891489Y-7977131D01*
X70872547Y-7961585D01*
X70850936Y-7950034D01*
X70827487Y-7942921D01*
X70803100Y-7940519D01*
X70778714Y-7942921D01*
X70755265Y-7950034D01*
X70733654Y-7961585D01*
X70714712Y-7977130D01*
X70699166Y-7996073D01*
X70653567Y-8064317D01*
X70566517Y-8151367D01*
X70566514Y-8151369D01*
X70464148Y-8219768D01*
X70350406Y-8266881D01*
X70350405Y-8266881D01*
X70350403Y-8266882D01*
X70229659Y-8290900D01*
X70106541Y-8290900D01*
X69985797Y-8266882D01*
X69985795Y-8266881D01*
X69985794Y-8266881D01*
X69872052Y-8219768D01*
X69769686Y-8151369D01*
X69769683Y-8151367D01*
X69682633Y-8064317D01*
X69624377Y-7977131D01*
X69614232Y-7961948D01*
X69567119Y-7848206D01*
X69543100Y-7727457D01*
X69543100Y-7604343D01*
X69567119Y-7483594D01*
X69614232Y-7369852D01*
X69682631Y-7267486D01*
X69682633Y-7267483D01*
X69769683Y-7180433D01*
X69837927Y-7134834D01*
X69856869Y-7119289D01*
X69872415Y-7100347D01*
X69883966Y-7078736D01*
X69891079Y-7055287D01*
X69893481Y-7030900D01*
X70442719Y-7030900D01*
X70445121Y-7055286D01*
X70452234Y-7078735D01*
X70463785Y-7100346D01*
X70479330Y-7119288D01*
X70498273Y-7134834D01*
X70566517Y-7180433D01*
X70653567Y-7267483D01*
X70653569Y-7267486D01*
X70683246Y-7311900D01*
X70699166Y-7335727D01*
X70714711Y-7354669D01*
X70733653Y-7370215D01*
X70755264Y-7381766D01*
X70778713Y-7388879D01*
X70803100Y-7391281D01*
X70827486Y-7388879D01*
X70850935Y-7381766D01*
X70872546Y-7370215D01*
X70891488Y-7354670D01*
X70907034Y-7335727D01*
X70922955Y-7311900D01*
X70952631Y-7267486D01*
X70952633Y-7267483D01*
X71039683Y-7180433D01*
X71107927Y-7134834D01*
X71126869Y-7119289D01*
X71142415Y-7100347D01*
X71153966Y-7078736D01*
X71161079Y-7055287D01*
X71163481Y-7030900D01*
X71712719Y-7030900D01*
X71715121Y-7055286D01*
X71722234Y-7078735D01*
X71733785Y-7100346D01*
X71749330Y-7119288D01*
X71768273Y-7134834D01*
X71836517Y-7180433D01*
X71923567Y-7267483D01*
X71923569Y-7267486D01*
X71953246Y-7311900D01*
X71969166Y-7335727D01*
X71984711Y-7354669D01*
X72003653Y-7370215D01*
X72025264Y-7381766D01*
X72048713Y-7388879D01*
X72073100Y-7391281D01*
X72097486Y-7388879D01*
X72120935Y-7381766D01*
X72142546Y-7370215D01*
X72161488Y-7354670D01*
X72177034Y-7335727D01*
X72192955Y-7311900D01*
X72222631Y-7267486D01*
X72222633Y-7267483D01*
X72309683Y-7180433D01*
X72377927Y-7134834D01*
X72396869Y-7119289D01*
X72412415Y-7100347D01*
X72423966Y-7078736D01*
X72431079Y-7055287D01*
X72433481Y-7030900D01*
X72982719Y-7030900D01*
X72985121Y-7055286D01*
X72992234Y-7078735D01*
X73003785Y-7100346D01*
X73019330Y-7119288D01*
X73038273Y-7134834D01*
X73106517Y-7180433D01*
X73193567Y-7267483D01*
X73193569Y-7267486D01*
X73223246Y-7311900D01*
X73239166Y-7335727D01*
X73254711Y-7354669D01*
X73273653Y-7370215D01*
X73295264Y-7381766D01*
X73318713Y-7388879D01*
X73343100Y-7391281D01*
X73367486Y-7388879D01*
X73390935Y-7381766D01*
X73412546Y-7370215D01*
X73431488Y-7354670D01*
X73447034Y-7335727D01*
X73462955Y-7311900D01*
X73492631Y-7267486D01*
X73492633Y-7267483D01*
X73579683Y-7180433D01*
X73647927Y-7134834D01*
X73666869Y-7119289D01*
X73682415Y-7100347D01*
X73693966Y-7078736D01*
X73701079Y-7055287D01*
X73703481Y-7030900D01*
X74252719Y-7030900D01*
X74255121Y-7055286D01*
X74262234Y-7078735D01*
X74273785Y-7100346D01*
X74289330Y-7119288D01*
X74308273Y-7134834D01*
X74376517Y-7180433D01*
X74409712Y-7213628D01*
X74421059Y-7222941D01*
X74430372Y-7234288D01*
X74463567Y-7267483D01*
X74463569Y-7267486D01*
X74493246Y-7311900D01*
X74509166Y-7335727D01*
X74524711Y-7354669D01*
X74543653Y-7370215D01*
X74565264Y-7381766D01*
X74588713Y-7388879D01*
X74613100Y-7391281D01*
X74637486Y-7388879D01*
X74660935Y-7381766D01*
X74682546Y-7370215D01*
X74701488Y-7354670D01*
X74717034Y-7335727D01*
X74732955Y-7311900D01*
X74762631Y-7267486D01*
X74762633Y-7267483D01*
X74795828Y-7234288D01*
X74811374Y-7215346D01*
X74822925Y-7193735D01*
X74830038Y-7170286D01*
X74832440Y-7145900D01*
X74830038Y-7121514D01*
X74822925Y-7098065D01*
X74811374Y-7076454D01*
X74795828Y-7057512D01*
X74776886Y-7041966D01*
X74755275Y-7030415D01*
X74731826Y-7023302D01*
X74707440Y-7020900D01*
X74623100Y-7020900D01*
X74623100Y-6936560D01*
X74620698Y-6912174D01*
X74613585Y-6888725D01*
X74602034Y-6867114D01*
X74586488Y-6848172D01*
X74567546Y-6832626D01*
X74545935Y-6821075D01*
X74522486Y-6813962D01*
X74498100Y-6811560D01*
X74473714Y-6813962D01*
X74450265Y-6821075D01*
X74428654Y-6832626D01*
X74409712Y-6848172D01*
X74376517Y-6881367D01*
X74308273Y-6926966D01*
X74289331Y-6942511D01*
X74273785Y-6961453D01*
X74262234Y-6983064D01*
X74255121Y-7006513D01*
X74252719Y-7030900D01*
X73703481Y-7030900D01*
X73701079Y-7006514D01*
X73693966Y-6983065D01*
X73682415Y-6961454D01*
X73666870Y-6942512D01*
X73647927Y-6926966D01*
X73579683Y-6881367D01*
X73492633Y-6794317D01*
X73447034Y-6726073D01*
X73431489Y-6707131D01*
X73412547Y-6691585D01*
X73390936Y-6680034D01*
X73367487Y-6672921D01*
X73343100Y-6670519D01*
X73318714Y-6672921D01*
X73295265Y-6680034D01*
X73273654Y-6691585D01*
X73254712Y-6707130D01*
X73239166Y-6726073D01*
X73193567Y-6794317D01*
X73106517Y-6881367D01*
X73038273Y-6926966D01*
X73019331Y-6942511D01*
X73003785Y-6961453D01*
X72992234Y-6983064D01*
X72985121Y-7006513D01*
X72982719Y-7030900D01*
X72433481Y-7030900D01*
X72431079Y-7006514D01*
X72423966Y-6983065D01*
X72412415Y-6961454D01*
X72396870Y-6942512D01*
X72377927Y-6926966D01*
X72309683Y-6881367D01*
X72222633Y-6794317D01*
X72177034Y-6726073D01*
X72161489Y-6707131D01*
X72142547Y-6691585D01*
X72120936Y-6680034D01*
X72097487Y-6672921D01*
X72073100Y-6670519D01*
X72048714Y-6672921D01*
X72025265Y-6680034D01*
X72003654Y-6691585D01*
X71984712Y-6707130D01*
X71969166Y-6726073D01*
X71923567Y-6794317D01*
X71836517Y-6881367D01*
X71768273Y-6926966D01*
X71749331Y-6942511D01*
X71733785Y-6961453D01*
X71722234Y-6983064D01*
X71715121Y-7006513D01*
X71712719Y-7030900D01*
X71163481Y-7030900D01*
X71161079Y-7006514D01*
X71153966Y-6983065D01*
X71142415Y-6961454D01*
X71126870Y-6942512D01*
X71107927Y-6926966D01*
X71039683Y-6881367D01*
X70952633Y-6794317D01*
X70907034Y-6726073D01*
X70891489Y-6707131D01*
X70872547Y-6691585D01*
X70850936Y-6680034D01*
X70827487Y-6672921D01*
X70803100Y-6670519D01*
X70778714Y-6672921D01*
X70755265Y-6680034D01*
X70733654Y-6691585D01*
X70714712Y-6707130D01*
X70699166Y-6726073D01*
X70653567Y-6794317D01*
X70566517Y-6881367D01*
X70498273Y-6926966D01*
X70479331Y-6942511D01*
X70463785Y-6961453D01*
X70452234Y-6983064D01*
X70445121Y-7006513D01*
X70442719Y-7030900D01*
X69893481Y-7030900D01*
X69891079Y-7006514D01*
X69883966Y-6983065D01*
X69872415Y-6961454D01*
X69856870Y-6942512D01*
X69837927Y-6926966D01*
X69769683Y-6881367D01*
X69682633Y-6794317D01*
X69624377Y-6707131D01*
X69614232Y-6691948D01*
X69567119Y-6578206D01*
X69564970Y-6567400D01*
X69543100Y-6457459D01*
X69543100Y-6334341D01*
X69567118Y-6213597D01*
X69573045Y-6199287D01*
X69614232Y-6099852D01*
X69682631Y-5997486D01*
X69682633Y-5997483D01*
X69769683Y-5910433D01*
X69815789Y-5879626D01*
X69872052Y-5842032D01*
X69985794Y-5794919D01*
X69985795Y-5794919D01*
X69985797Y-5794918D01*
X70106541Y-5770900D01*
X70229659Y-5770900D01*
X70350403Y-5794918D01*
X70350403Y-5794918D01*
G37*
G36*
X82983200Y-8231000D02*
X79983200Y-8231000D01*
X79983200Y-5231000D01*
X82983200Y-5231000D01*
X82983200Y-8231000D01*
X82983200Y-8231000D01*
G37*
G36*
X153814200Y-8067400D02*
X152714200Y-8067400D01*
X152714200Y-7367400D01*
X153814200Y-7367400D01*
X153814200Y-8067400D01*
X153814200Y-8067400D01*
G37*
G36*
X156963800Y-8067400D02*
X155863800Y-8067400D01*
X155863800Y-7367400D01*
X156963800Y-7367400D01*
X156963800Y-8067400D01*
X156963800Y-8067400D01*
G37*
G36*
X159491100Y-8067400D02*
X158391100Y-8067400D01*
X158391100Y-7367400D01*
X159491100Y-7367400D01*
X159491100Y-8067400D01*
X159491100Y-8067400D01*
G37*
G36*
X38298400Y-7615800D02*
X35298400Y-7615800D01*
X35298400Y-3815800D01*
X38298400Y-3815800D01*
X38298400Y-7615800D01*
X38298400Y-7615800D01*
G37*
G36*
X51498400Y-7615800D02*
X48498400Y-7615800D01*
X48498400Y-3815800D01*
X51498400Y-3815800D01*
X51498400Y-7615800D01*
X51498400Y-7615800D01*
G37*
G36*
X114523800Y-7565000D02*
X111523800Y-7565000D01*
X111523800Y-3765000D01*
X114523800Y-3765000D01*
X114523800Y-7565000D01*
X114523800Y-7565000D01*
G37*
G36*
X127723800Y-7565000D02*
X124723800Y-7565000D01*
X124723800Y-3765000D01*
X127723800Y-3765000D01*
X127723800Y-7565000D01*
X127723800Y-7565000D01*
G37*
G36*
X159491100Y-6567400D02*
X158391100Y-6567400D01*
X158391100Y-5867400D01*
X159491100Y-5867400D01*
X159491100Y-6567400D01*
X159491100Y-6567400D01*
G37*
G36*
X156963800Y-6567400D02*
X155863800Y-6567400D01*
X155863800Y-5867400D01*
X156963800Y-5867400D01*
X156963800Y-6567400D01*
X156963800Y-6567400D01*
G37*
G36*
X153814200Y-6567400D02*
X152714200Y-6567400D01*
X152714200Y-5867400D01*
X153814200Y-5867400D01*
X153814200Y-6567400D01*
X153814200Y-6567400D01*
G37*
G36*
X25317100Y-6489900D02*
X24317100Y-6489900D01*
X24317100Y-5539900D01*
X25317100Y-5539900D01*
X25317100Y-6489900D01*
X25317100Y-6489900D01*
G37*
G36*
X23817100Y-6489900D02*
X22817100Y-6489900D01*
X22817100Y-5539900D01*
X23817100Y-5539900D01*
X23817100Y-6489900D01*
X23817100Y-6489900D01*
G37*
G36*
X20340340Y-6431600D02*
X19390340Y-6431600D01*
X19390340Y-5431600D01*
X20340340Y-5431600D01*
X20340340Y-6431600D01*
X20340340Y-6431600D01*
G37*
G36*
X6102540Y-6215400D02*
X5102540Y-6215400D01*
X5102540Y-5265400D01*
X6102540Y-5265400D01*
X6102540Y-6215400D01*
X6102540Y-6215400D01*
G37*
G36*
X7602540Y-6215400D02*
X6602540Y-6215400D01*
X6602540Y-5265400D01*
X7602540Y-5265400D01*
X7602540Y-6215400D01*
X7602540Y-6215400D01*
G37*
G36*
X16445740Y-5572000D02*
X14445740Y-5572000D01*
X14445740Y-3572000D01*
X16445740Y-3572000D01*
X16445740Y-5572000D01*
X16445740Y-5572000D01*
G37*
G36*
X13141770Y-3586469D02*
X13141773Y-3586470D01*
X13141774Y-3586470D01*
X13330275Y-3643651D01*
X13330277Y-3643652D01*
X13504000Y-3736509D01*
X13656268Y-3861472D01*
X13781231Y-4013740D01*
X13781232Y-4013742D01*
X13874089Y-4187465D01*
X13892452Y-4248000D01*
X13931271Y-4375970D01*
X13950578Y-4572000D01*
X13931271Y-4768030D01*
X13874088Y-4956537D01*
X13781231Y-5130260D01*
X13656268Y-5282528D01*
X13504000Y-5407491D01*
X13503998Y-5407492D01*
X13330275Y-5500349D01*
X13141774Y-5557530D01*
X13141773Y-5557530D01*
X13141770Y-5557531D01*
X12994864Y-5572000D01*
X12896616Y-5572000D01*
X12749710Y-5557531D01*
X12749707Y-5557530D01*
X12749706Y-5557530D01*
X12561205Y-5500349D01*
X12387482Y-5407492D01*
X12387480Y-5407491D01*
X12235212Y-5282528D01*
X12110249Y-5130260D01*
X12017392Y-4956537D01*
X11960209Y-4768030D01*
X11940902Y-4572000D01*
X11960209Y-4375970D01*
X11999028Y-4248000D01*
X12017391Y-4187465D01*
X12110248Y-4013742D01*
X12110249Y-4013740D01*
X12235212Y-3861472D01*
X12387480Y-3736509D01*
X12561203Y-3643652D01*
X12561205Y-3643651D01*
X12749706Y-3586470D01*
X12749707Y-3586470D01*
X12749710Y-3586469D01*
X12896616Y-3572000D01*
X12994864Y-3572000D01*
X13141770Y-3586469D01*
X13141770Y-3586469D01*
G37*
G36*
X20340340Y-4931600D02*
X19390340Y-4931600D01*
X19390340Y-3931600D01*
X20340340Y-3931600D01*
X20340340Y-4931600D01*
X20340340Y-4931600D01*
G37*
G36*
X155325500Y-2334742D02*
X155507136Y-2389842D01*
X155674540Y-2479321D01*
X155821265Y-2599735D01*
X155941679Y-2746460D01*
X156031158Y-2913864D01*
X156086258Y-3095500D01*
X156104862Y-3284400D01*
X156086258Y-3473300D01*
X156031158Y-3654936D01*
X155941679Y-3822340D01*
X155821265Y-3969065D01*
X155674540Y-4089479D01*
X155507136Y-4178958D01*
X155325500Y-4234058D01*
X155183938Y-4248000D01*
X155089262Y-4248000D01*
X154947700Y-4234058D01*
X154766064Y-4178958D01*
X154598660Y-4089479D01*
X154451935Y-3969065D01*
X154331521Y-3822340D01*
X154242042Y-3654936D01*
X154186942Y-3473300D01*
X154168338Y-3284400D01*
X154186942Y-3095500D01*
X154242042Y-2913864D01*
X154331521Y-2746460D01*
X154451935Y-2599735D01*
X154598660Y-2479321D01*
X154766064Y-2389842D01*
X154947700Y-2334742D01*
X155089262Y-2320800D01*
X155183938Y-2320800D01*
X155325500Y-2334742D01*
X155325500Y-2334742D01*
G37*
G36*
X135780200Y-4248000D02*
X133853000Y-4248000D01*
X133853000Y-2320800D01*
X135780200Y-2320800D01*
X135780200Y-4248000D01*
X135780200Y-4248000D01*
G37*
G36*
X137545500Y-2334742D02*
X137727136Y-2389842D01*
X137894540Y-2479321D01*
X138041265Y-2599735D01*
X138161679Y-2746460D01*
X138251158Y-2913864D01*
X138306258Y-3095500D01*
X138324862Y-3284400D01*
X138306258Y-3473300D01*
X138251158Y-3654936D01*
X138161679Y-3822340D01*
X138041265Y-3969065D01*
X137894540Y-4089479D01*
X137727136Y-4178958D01*
X137545500Y-4234058D01*
X137403938Y-4248000D01*
X137309262Y-4248000D01*
X137167700Y-4234058D01*
X136986064Y-4178958D01*
X136818660Y-4089479D01*
X136671935Y-3969065D01*
X136551521Y-3822340D01*
X136462042Y-3654936D01*
X136406942Y-3473300D01*
X136388338Y-3284400D01*
X136406942Y-3095500D01*
X136462042Y-2913864D01*
X136551521Y-2746460D01*
X136671935Y-2599735D01*
X136818660Y-2479321D01*
X136986064Y-2389842D01*
X137167700Y-2334742D01*
X137309262Y-2320800D01*
X137403938Y-2320800D01*
X137545500Y-2334742D01*
X137545500Y-2334742D01*
G37*
G36*
X142625500Y-2334742D02*
X142807136Y-2389842D01*
X142974540Y-2479321D01*
X143121265Y-2599735D01*
X143241679Y-2746460D01*
X143331158Y-2913864D01*
X143386258Y-3095500D01*
X143404862Y-3284400D01*
X143386258Y-3473300D01*
X143331158Y-3654936D01*
X143241679Y-3822340D01*
X143121265Y-3969065D01*
X142974540Y-4089479D01*
X142807136Y-4178958D01*
X142625500Y-4234058D01*
X142483938Y-4248000D01*
X142389262Y-4248000D01*
X142247700Y-4234058D01*
X142066064Y-4178958D01*
X141898660Y-4089479D01*
X141751935Y-3969065D01*
X141631521Y-3822340D01*
X141542042Y-3654936D01*
X141486942Y-3473300D01*
X141468338Y-3284400D01*
X141486942Y-3095500D01*
X141542042Y-2913864D01*
X141631521Y-2746460D01*
X141751935Y-2599735D01*
X141898660Y-2479321D01*
X142066064Y-2389842D01*
X142247700Y-2334742D01*
X142389262Y-2320800D01*
X142483938Y-2320800D01*
X142625500Y-2334742D01*
X142625500Y-2334742D01*
G37*
G36*
X145165500Y-2334742D02*
X145347136Y-2389842D01*
X145514540Y-2479321D01*
X145661265Y-2599735D01*
X145781679Y-2746460D01*
X145871158Y-2913864D01*
X145926258Y-3095500D01*
X145944862Y-3284400D01*
X145926258Y-3473300D01*
X145871158Y-3654936D01*
X145781679Y-3822340D01*
X145661265Y-3969065D01*
X145514540Y-4089479D01*
X145347136Y-4178958D01*
X145165500Y-4234058D01*
X145023938Y-4248000D01*
X144929262Y-4248000D01*
X144787700Y-4234058D01*
X144606064Y-4178958D01*
X144438660Y-4089479D01*
X144291935Y-3969065D01*
X144171521Y-3822340D01*
X144082042Y-3654936D01*
X144026942Y-3473300D01*
X144008338Y-3284400D01*
X144026942Y-3095500D01*
X144082042Y-2913864D01*
X144171521Y-2746460D01*
X144291935Y-2599735D01*
X144438660Y-2479321D01*
X144606064Y-2389842D01*
X144787700Y-2334742D01*
X144929262Y-2320800D01*
X145023938Y-2320800D01*
X145165500Y-2334742D01*
X145165500Y-2334742D01*
G37*
G36*
X150245500Y-2334742D02*
X150427136Y-2389842D01*
X150594540Y-2479321D01*
X150741265Y-2599735D01*
X150861679Y-2746460D01*
X150951158Y-2913864D01*
X151006258Y-3095500D01*
X151024862Y-3284400D01*
X151006258Y-3473300D01*
X150951158Y-3654936D01*
X150861679Y-3822340D01*
X150741265Y-3969065D01*
X150594540Y-4089479D01*
X150427136Y-4178958D01*
X150245500Y-4234058D01*
X150103938Y-4248000D01*
X150009262Y-4248000D01*
X149867700Y-4234058D01*
X149686064Y-4178958D01*
X149518660Y-4089479D01*
X149371935Y-3969065D01*
X149251521Y-3822340D01*
X149162042Y-3654936D01*
X149106942Y-3473300D01*
X149088338Y-3284400D01*
X149106942Y-3095500D01*
X149162042Y-2913864D01*
X149251521Y-2746460D01*
X149371935Y-2599735D01*
X149518660Y-2479321D01*
X149686064Y-2389842D01*
X149867700Y-2334742D01*
X150009262Y-2320800D01*
X150103938Y-2320800D01*
X150245500Y-2334742D01*
X150245500Y-2334742D01*
G37*
G36*
X152785500Y-2334742D02*
X152967136Y-2389842D01*
X153134540Y-2479321D01*
X153281265Y-2599735D01*
X153401679Y-2746460D01*
X153491158Y-2913864D01*
X153546258Y-3095500D01*
X153564862Y-3284400D01*
X153546258Y-3473300D01*
X153491158Y-3654936D01*
X153401679Y-3822340D01*
X153281265Y-3969065D01*
X153134540Y-4089479D01*
X152967136Y-4178958D01*
X152785500Y-4234058D01*
X152643938Y-4248000D01*
X152549262Y-4248000D01*
X152407700Y-4234058D01*
X152226064Y-4178958D01*
X152058660Y-4089479D01*
X151911935Y-3969065D01*
X151791521Y-3822340D01*
X151702042Y-3654936D01*
X151646942Y-3473300D01*
X151628338Y-3284400D01*
X151646942Y-3095500D01*
X151702042Y-2913864D01*
X151791521Y-2746460D01*
X151911935Y-2599735D01*
X152058660Y-2479321D01*
X152226064Y-2389842D01*
X152407700Y-2334742D01*
X152549262Y-2320800D01*
X152643938Y-2320800D01*
X152785500Y-2334742D01*
X152785500Y-2334742D01*
G37*
G36*
X157865500Y-2334742D02*
X158047136Y-2389842D01*
X158214540Y-2479321D01*
X158361265Y-2599735D01*
X158481679Y-2746460D01*
X158571158Y-2913864D01*
X158626258Y-3095500D01*
X158644862Y-3284400D01*
X158626258Y-3473300D01*
X158571158Y-3654936D01*
X158481679Y-3822340D01*
X158361265Y-3969065D01*
X158214540Y-4089479D01*
X158047136Y-4178958D01*
X157865500Y-4234058D01*
X157723938Y-4248000D01*
X157629262Y-4248000D01*
X157487700Y-4234058D01*
X157306064Y-4178958D01*
X157138660Y-4089479D01*
X156991935Y-3969065D01*
X156871521Y-3822340D01*
X156782042Y-3654936D01*
X156726942Y-3473300D01*
X156708338Y-3284400D01*
X156726942Y-3095500D01*
X156782042Y-2913864D01*
X156871521Y-2746460D01*
X156991935Y-2599735D01*
X157138660Y-2479321D01*
X157306064Y-2389842D01*
X157487700Y-2334742D01*
X157629262Y-2320800D01*
X157723938Y-2320800D01*
X157865500Y-2334742D01*
X157865500Y-2334742D01*
G37*
G36*
X140085500Y-2334742D02*
X140267136Y-2389842D01*
X140434540Y-2479321D01*
X140581265Y-2599735D01*
X140701679Y-2746460D01*
X140791158Y-2913864D01*
X140846258Y-3095500D01*
X140864862Y-3284400D01*
X140846258Y-3473300D01*
X140791158Y-3654936D01*
X140701679Y-3822340D01*
X140581265Y-3969065D01*
X140434540Y-4089479D01*
X140267136Y-4178958D01*
X140085500Y-4234058D01*
X139943938Y-4248000D01*
X139849262Y-4248000D01*
X139707700Y-4234058D01*
X139526064Y-4178958D01*
X139358660Y-4089479D01*
X139211935Y-3969065D01*
X139091521Y-3822340D01*
X139002042Y-3654936D01*
X138946942Y-3473300D01*
X138928338Y-3284400D01*
X138946942Y-3095500D01*
X139002042Y-2913864D01*
X139091521Y-2746460D01*
X139211935Y-2599735D01*
X139358660Y-2479321D01*
X139526064Y-2389842D01*
X139707700Y-2334742D01*
X139849262Y-2320800D01*
X139943938Y-2320800D01*
X140085500Y-2334742D01*
X140085500Y-2334742D01*
G37*
G36*
X147705500Y-2334742D02*
X147887136Y-2389842D01*
X148054540Y-2479321D01*
X148201265Y-2599735D01*
X148321679Y-2746460D01*
X148411158Y-2913864D01*
X148466258Y-3095500D01*
X148484862Y-3284400D01*
X148466258Y-3473300D01*
X148411158Y-3654936D01*
X148321679Y-3822340D01*
X148201265Y-3969065D01*
X148054540Y-4089479D01*
X147887136Y-4178958D01*
X147705500Y-4234058D01*
X147563938Y-4248000D01*
X147469262Y-4248000D01*
X147327700Y-4234058D01*
X147146064Y-4178958D01*
X146978660Y-4089479D01*
X146831935Y-3969065D01*
X146711521Y-3822340D01*
X146622042Y-3654936D01*
X146566942Y-3473300D01*
X146548338Y-3284400D01*
X146566942Y-3095500D01*
X146622042Y-2913864D01*
X146711521Y-2746460D01*
X146831935Y-2599735D01*
X146978660Y-2479321D01*
X147146064Y-2389842D01*
X147327700Y-2334742D01*
X147469262Y-2320800D01*
X147563938Y-2320800D01*
X147705500Y-2334742D01*
X147705500Y-2334742D01*
G37*
G36*
X29797010Y-2279500D02*
X25997830Y-2279500D01*
X25997830Y-479300D01*
X29797010Y-479300D01*
X29797010Y-2279500D01*
X29797010Y-2279500D01*
G37*
G36*
X24295370Y-2279500D02*
X20496190Y-2279500D01*
X20496190Y-479300D01*
X24295370Y-479300D01*
X24295370Y-2279500D01*
X24295370Y-2279500D01*
G37*
G36*
X36669400Y-1717400D02*
X35569400Y-1717400D01*
X35569400Y-1017400D01*
X36669400Y-1017400D01*
X36669400Y-1717400D01*
X36669400Y-1717400D01*
G37*
G36*
X112920200Y-1717400D02*
X111820200Y-1717400D01*
X111820200Y-1017400D01*
X112920200Y-1017400D01*
X112920200Y-1717400D01*
X112920200Y-1717400D01*
G37*
G36*
X157865500Y205258D02*
X158047136Y150158D01*
X158214540Y60679D01*
X158361265Y-59735D01*
X158481679Y-206460D01*
X158571158Y-373864D01*
X158626258Y-555500D01*
X158644862Y-744400D01*
X158626258Y-933300D01*
X158571158Y-1114936D01*
X158481679Y-1282340D01*
X158361265Y-1429065D01*
X158214540Y-1549479D01*
X158047136Y-1638958D01*
X157865500Y-1694058D01*
X157723938Y-1708000D01*
X157629262Y-1708000D01*
X157487700Y-1694058D01*
X157306064Y-1638958D01*
X157138660Y-1549479D01*
X156991935Y-1429065D01*
X156871521Y-1282340D01*
X156782042Y-1114936D01*
X156726942Y-933300D01*
X156708338Y-744400D01*
X156726942Y-555500D01*
X156782042Y-373864D01*
X156871521Y-206460D01*
X156991935Y-59735D01*
X157138660Y60679D01*
X157306064Y150158D01*
X157487700Y205258D01*
X157629262Y219200D01*
X157723938Y219200D01*
X157865500Y205258D01*
X157865500Y205258D01*
G37*
G36*
X147705500Y205258D02*
X147887136Y150158D01*
X148054540Y60679D01*
X148201265Y-59735D01*
X148321679Y-206460D01*
X148411158Y-373864D01*
X148466258Y-555500D01*
X148484862Y-744400D01*
X148466258Y-933300D01*
X148411158Y-1114936D01*
X148321679Y-1282340D01*
X148201265Y-1429065D01*
X148054540Y-1549479D01*
X147887136Y-1638958D01*
X147705500Y-1694058D01*
X147563938Y-1708000D01*
X147469262Y-1708000D01*
X147327700Y-1694058D01*
X147146064Y-1638958D01*
X146978660Y-1549479D01*
X146831935Y-1429065D01*
X146711521Y-1282340D01*
X146622042Y-1114936D01*
X146566942Y-933300D01*
X146548338Y-744400D01*
X146566942Y-555500D01*
X146622042Y-373864D01*
X146711521Y-206460D01*
X146831935Y-59735D01*
X146978660Y60679D01*
X147146064Y150158D01*
X147327700Y205258D01*
X147469262Y219200D01*
X147563938Y219200D01*
X147705500Y205258D01*
X147705500Y205258D01*
G37*
G36*
X145165500Y205258D02*
X145347136Y150158D01*
X145514540Y60679D01*
X145661265Y-59735D01*
X145781679Y-206460D01*
X145871158Y-373864D01*
X145926258Y-555500D01*
X145944862Y-744400D01*
X145926258Y-933300D01*
X145871158Y-1114936D01*
X145781679Y-1282340D01*
X145661265Y-1429065D01*
X145514540Y-1549479D01*
X145347136Y-1638958D01*
X145165500Y-1694058D01*
X145023938Y-1708000D01*
X144929262Y-1708000D01*
X144787700Y-1694058D01*
X144606064Y-1638958D01*
X144438660Y-1549479D01*
X144291935Y-1429065D01*
X144171521Y-1282340D01*
X144082042Y-1114936D01*
X144026942Y-933300D01*
X144008338Y-744400D01*
X144026942Y-555500D01*
X144082042Y-373864D01*
X144171521Y-206460D01*
X144291935Y-59735D01*
X144438660Y60679D01*
X144606064Y150158D01*
X144787700Y205258D01*
X144929262Y219200D01*
X145023938Y219200D01*
X145165500Y205258D01*
X145165500Y205258D01*
G37*
G36*
X152785500Y205258D02*
X152967136Y150158D01*
X153134540Y60679D01*
X153281265Y-59735D01*
X153401679Y-206460D01*
X153491158Y-373864D01*
X153546258Y-555500D01*
X153564862Y-744400D01*
X153546258Y-933300D01*
X153491158Y-1114936D01*
X153401679Y-1282340D01*
X153281265Y-1429065D01*
X153134540Y-1549479D01*
X152967136Y-1638958D01*
X152785500Y-1694058D01*
X152643938Y-1708000D01*
X152549262Y-1708000D01*
X152407700Y-1694058D01*
X152226064Y-1638958D01*
X152058660Y-1549479D01*
X151911935Y-1429065D01*
X151791521Y-1282340D01*
X151702042Y-1114936D01*
X151646942Y-933300D01*
X151628338Y-744400D01*
X151646942Y-555500D01*
X151702042Y-373864D01*
X151791521Y-206460D01*
X151911935Y-59735D01*
X152058660Y60679D01*
X152226064Y150158D01*
X152407700Y205258D01*
X152549262Y219200D01*
X152643938Y219200D01*
X152785500Y205258D01*
X152785500Y205258D01*
G37*
G36*
X142625500Y205258D02*
X142807136Y150158D01*
X142974540Y60679D01*
X143121265Y-59735D01*
X143241679Y-206460D01*
X143331158Y-373864D01*
X143386258Y-555500D01*
X143404862Y-744400D01*
X143386258Y-933300D01*
X143331158Y-1114936D01*
X143241679Y-1282340D01*
X143121265Y-1429065D01*
X142974540Y-1549479D01*
X142807136Y-1638958D01*
X142625500Y-1694058D01*
X142483938Y-1708000D01*
X142389262Y-1708000D01*
X142247700Y-1694058D01*
X142066064Y-1638958D01*
X141898660Y-1549479D01*
X141751935Y-1429065D01*
X141631521Y-1282340D01*
X141542042Y-1114936D01*
X141486942Y-933300D01*
X141468338Y-744400D01*
X141486942Y-555500D01*
X141542042Y-373864D01*
X141631521Y-206460D01*
X141751935Y-59735D01*
X141898660Y60679D01*
X142066064Y150158D01*
X142247700Y205258D01*
X142389262Y219200D01*
X142483938Y219200D01*
X142625500Y205258D01*
X142625500Y205258D01*
G37*
G36*
X155325500Y205258D02*
X155507136Y150158D01*
X155674540Y60679D01*
X155821265Y-59735D01*
X155941679Y-206460D01*
X156031158Y-373864D01*
X156086258Y-555500D01*
X156104862Y-744400D01*
X156086258Y-933300D01*
X156031158Y-1114936D01*
X155941679Y-1282340D01*
X155821265Y-1429065D01*
X155674540Y-1549479D01*
X155507136Y-1638958D01*
X155325500Y-1694058D01*
X155183938Y-1708000D01*
X155089262Y-1708000D01*
X154947700Y-1694058D01*
X154766064Y-1638958D01*
X154598660Y-1549479D01*
X154451935Y-1429065D01*
X154331521Y-1282340D01*
X154242042Y-1114936D01*
X154186942Y-933300D01*
X154168338Y-744400D01*
X154186942Y-555500D01*
X154242042Y-373864D01*
X154331521Y-206460D01*
X154451935Y-59735D01*
X154598660Y60679D01*
X154766064Y150158D01*
X154947700Y205258D01*
X155089262Y219200D01*
X155183938Y219200D01*
X155325500Y205258D01*
X155325500Y205258D01*
G37*
G36*
X140085500Y205258D02*
X140267136Y150158D01*
X140434540Y60679D01*
X140581265Y-59735D01*
X140701679Y-206460D01*
X140791158Y-373864D01*
X140846258Y-555500D01*
X140864862Y-744400D01*
X140846258Y-933300D01*
X140791158Y-1114936D01*
X140701679Y-1282340D01*
X140581265Y-1429065D01*
X140434540Y-1549479D01*
X140267136Y-1638958D01*
X140085500Y-1694058D01*
X139943938Y-1708000D01*
X139849262Y-1708000D01*
X139707700Y-1694058D01*
X139526064Y-1638958D01*
X139358660Y-1549479D01*
X139211935Y-1429065D01*
X139091521Y-1282340D01*
X139002042Y-1114936D01*
X138946942Y-933300D01*
X138928338Y-744400D01*
X138946942Y-555500D01*
X139002042Y-373864D01*
X139091521Y-206460D01*
X139211935Y-59735D01*
X139358660Y60679D01*
X139526064Y150158D01*
X139707700Y205258D01*
X139849262Y219200D01*
X139943938Y219200D01*
X140085500Y205258D01*
X140085500Y205258D01*
G37*
G36*
X137545500Y205258D02*
X137727136Y150158D01*
X137894540Y60679D01*
X138041265Y-59735D01*
X138161679Y-206460D01*
X138251158Y-373864D01*
X138306258Y-555500D01*
X138324862Y-744400D01*
X138306258Y-933300D01*
X138251158Y-1114936D01*
X138161679Y-1282340D01*
X138041265Y-1429065D01*
X137894540Y-1549479D01*
X137727136Y-1638958D01*
X137545500Y-1694058D01*
X137403938Y-1708000D01*
X137309262Y-1708000D01*
X137167700Y-1694058D01*
X136986064Y-1638958D01*
X136818660Y-1549479D01*
X136671935Y-1429065D01*
X136551521Y-1282340D01*
X136462042Y-1114936D01*
X136406942Y-933300D01*
X136388338Y-744400D01*
X136406942Y-555500D01*
X136462042Y-373864D01*
X136551521Y-206460D01*
X136671935Y-59735D01*
X136818660Y60679D01*
X136986064Y150158D01*
X137167700Y205258D01*
X137309262Y219200D01*
X137403938Y219200D01*
X137545500Y205258D01*
X137545500Y205258D01*
G37*
G36*
X150245500Y205258D02*
X150427136Y150158D01*
X150594540Y60679D01*
X150741265Y-59735D01*
X150861679Y-206460D01*
X150951158Y-373864D01*
X151006258Y-555500D01*
X151024862Y-744400D01*
X151006258Y-933300D01*
X150951158Y-1114936D01*
X150861679Y-1282340D01*
X150741265Y-1429065D01*
X150594540Y-1549479D01*
X150427136Y-1638958D01*
X150245500Y-1694058D01*
X150103938Y-1708000D01*
X150009262Y-1708000D01*
X149867700Y-1694058D01*
X149686064Y-1638958D01*
X149518660Y-1549479D01*
X149371935Y-1429065D01*
X149251521Y-1282340D01*
X149162042Y-1114936D01*
X149106942Y-933300D01*
X149088338Y-744400D01*
X149106942Y-555500D01*
X149162042Y-373864D01*
X149251521Y-206460D01*
X149371935Y-59735D01*
X149518660Y60679D01*
X149686064Y150158D01*
X149867700Y205258D01*
X150009262Y219200D01*
X150103938Y219200D01*
X150245500Y205258D01*
X150245500Y205258D01*
G37*
G36*
X135005500Y205258D02*
X135187136Y150158D01*
X135354540Y60679D01*
X135501265Y-59735D01*
X135621679Y-206460D01*
X135711158Y-373864D01*
X135766258Y-555500D01*
X135784862Y-744400D01*
X135766258Y-933300D01*
X135711158Y-1114936D01*
X135621679Y-1282340D01*
X135501265Y-1429065D01*
X135354540Y-1549479D01*
X135187136Y-1638958D01*
X135005500Y-1694058D01*
X134863938Y-1708000D01*
X134769262Y-1708000D01*
X134627700Y-1694058D01*
X134446064Y-1638958D01*
X134278660Y-1549479D01*
X134131935Y-1429065D01*
X134011521Y-1282340D01*
X133922042Y-1114936D01*
X133866942Y-933300D01*
X133848338Y-744400D01*
X133866942Y-555500D01*
X133922042Y-373864D01*
X134011521Y-206460D01*
X134131935Y-59735D01*
X134278660Y60679D01*
X134446064Y150158D01*
X134627700Y205258D01*
X134769262Y219200D01*
X134863938Y219200D01*
X135005500Y205258D01*
X135005500Y205258D01*
G37*
G36*
X36669400Y-217400D02*
X35569400Y-217400D01*
X35569400Y482600D01*
X36669400Y482600D01*
X36669400Y-217400D01*
X36669400Y-217400D01*
G37*
G36*
X112920200Y-217400D02*
X111820200Y-217400D01*
X111820200Y482600D01*
X112920200Y482600D01*
X112920200Y-217400D01*
X112920200Y-217400D01*
G37*
G36*
X41160921Y2149614D02*
X41324709Y2081771D01*
X41472120Y1983274D01*
X41597474Y1857920D01*
X41695971Y1710509D01*
X41763814Y1546721D01*
X41798400Y1372844D01*
X41798400Y1195556D01*
X41763814Y1021679D01*
X41695971Y857891D01*
X41597474Y710480D01*
X41472120Y585126D01*
X41324709Y486629D01*
X41160921Y418786D01*
X40987044Y384200D01*
X40809756Y384200D01*
X40635879Y418786D01*
X40472091Y486629D01*
X40324680Y585126D01*
X40199326Y710480D01*
X40100829Y857891D01*
X40032986Y1021679D01*
X39998400Y1195556D01*
X39998400Y1372844D01*
X40032986Y1546721D01*
X40100829Y1710509D01*
X40199326Y1857920D01*
X40324680Y1983274D01*
X40472091Y2081771D01*
X40635879Y2149614D01*
X40809756Y2184200D01*
X40987044Y2184200D01*
X41160921Y2149614D01*
X41160921Y2149614D01*
G37*
G36*
X46160921Y2149614D02*
X46324709Y2081771D01*
X46472120Y1983274D01*
X46597474Y1857920D01*
X46695971Y1710509D01*
X46763814Y1546721D01*
X46798400Y1372844D01*
X46798400Y1195556D01*
X46763814Y1021679D01*
X46695971Y857891D01*
X46597474Y710480D01*
X46472120Y585126D01*
X46324709Y486629D01*
X46160921Y418786D01*
X45987044Y384200D01*
X45809756Y384200D01*
X45635879Y418786D01*
X45472091Y486629D01*
X45324680Y585126D01*
X45199326Y710480D01*
X45100829Y857891D01*
X45032986Y1021679D01*
X44998400Y1195556D01*
X44998400Y1372844D01*
X45032986Y1546721D01*
X45100829Y1710509D01*
X45199326Y1857920D01*
X45324680Y1983274D01*
X45472091Y2081771D01*
X45635879Y2149614D01*
X45809756Y2184200D01*
X45987044Y2184200D01*
X46160921Y2149614D01*
X46160921Y2149614D01*
G37*
G36*
X117386321Y2200414D02*
X117550109Y2132571D01*
X117697520Y2034074D01*
X117822874Y1908720D01*
X117921371Y1761309D01*
X117989214Y1597521D01*
X118023800Y1423644D01*
X118023800Y1246356D01*
X117989214Y1072479D01*
X117921371Y908691D01*
X117822874Y761280D01*
X117697520Y635926D01*
X117550109Y537429D01*
X117386321Y469586D01*
X117212444Y435000D01*
X117035156Y435000D01*
X116861279Y469586D01*
X116697491Y537429D01*
X116550080Y635926D01*
X116424726Y761280D01*
X116326229Y908691D01*
X116258386Y1072479D01*
X116223800Y1246356D01*
X116223800Y1423644D01*
X116258386Y1597521D01*
X116326229Y1761309D01*
X116424726Y1908720D01*
X116550080Y2034074D01*
X116697491Y2132571D01*
X116861279Y2200414D01*
X117035156Y2235000D01*
X117212444Y2235000D01*
X117386321Y2200414D01*
X117386321Y2200414D01*
G37*
G36*
X122386321Y2200414D02*
X122550109Y2132571D01*
X122697520Y2034074D01*
X122822874Y1908720D01*
X122921371Y1761309D01*
X122989214Y1597521D01*
X123023800Y1423644D01*
X123023800Y1246356D01*
X122989214Y1072479D01*
X122921371Y908691D01*
X122822874Y761280D01*
X122697520Y635926D01*
X122550109Y537429D01*
X122386321Y469586D01*
X122212444Y435000D01*
X122035156Y435000D01*
X121861279Y469586D01*
X121697491Y537429D01*
X121550080Y635926D01*
X121424726Y761280D01*
X121326229Y908691D01*
X121258386Y1072479D01*
X121223800Y1246356D01*
X121223800Y1423644D01*
X121258386Y1597521D01*
X121326229Y1761309D01*
X121424726Y1908720D01*
X121550080Y2034074D01*
X121697491Y2132571D01*
X121861279Y2200414D01*
X122035156Y2235000D01*
X122212444Y2235000D01*
X122386321Y2200414D01*
X122386321Y2200414D01*
G37*
M02*
