G04 #@! TF.GenerationSoftware,KiCad,Pcbnew,5.1.2-f72e74a~84~ubuntu18.04.1*
G04 #@! TF.CreationDate,2019-08-15T14:59:57+02:00*
G04 #@! TF.ProjectId,bottom-board,626f7474-6f6d-42d6-926f-6172642e6b69,rev?*
G04 #@! TF.SameCoordinates,Original*
G04 #@! TF.FileFunction,Legend,Top*
G04 #@! TF.FilePolarity,Positive*
%FSLAX46Y46*%
G04 Gerber Fmt 4.6, Leading zero omitted, Abs format (unit mm)*
G04 Created by KiCad (PCBNEW 5.1.2-f72e74a~84~ubuntu18.04.1) date 2019-08-15 14:59:57*
%MOMM*%
%LPD*%
G04 APERTURE LIST*
%ADD10C,0.150000*%
%ADD11C,0.300000*%
%ADD12C,0.100000*%
%ADD13C,0.120000*%
%ADD14C,0.105000*%
G04 APERTURE END LIST*
D10*
X142030797Y-132876896D02*
X141459368Y-132876664D01*
X141745082Y-132876780D02*
X141745489Y-131876780D01*
X141650193Y-132019599D01*
X141554916Y-132114798D01*
X141459659Y-132162378D01*
X142364537Y-131877032D02*
X143031204Y-131877303D01*
X142602225Y-132877129D01*
X143364498Y-131972677D02*
X143412137Y-131925077D01*
X143507394Y-131877497D01*
X143745489Y-131877594D01*
X143840708Y-131925252D01*
X143888308Y-131972890D01*
X143935888Y-132068148D01*
X143935849Y-132163386D01*
X143888172Y-132306224D01*
X143316511Y-132877420D01*
X143935558Y-132877671D01*
X144411768Y-132830246D02*
X144411749Y-132877865D01*
X144364091Y-132973084D01*
X144316453Y-133020684D01*
X145031203Y-131878117D02*
X145126441Y-131878156D01*
X145221660Y-131925814D01*
X145269260Y-131973452D01*
X145316840Y-132068710D01*
X145364382Y-132259205D01*
X145364285Y-132497300D01*
X145316588Y-132687757D01*
X145268930Y-132782976D01*
X145221292Y-132830576D01*
X145126035Y-132878156D01*
X145030796Y-132878117D01*
X144935578Y-132830459D01*
X144887978Y-132782821D01*
X144840398Y-132687563D01*
X144792856Y-132497068D01*
X144792953Y-132258973D01*
X144840650Y-132068516D01*
X144888307Y-131973297D01*
X144935946Y-131925697D01*
X145031203Y-131878117D01*
X145745450Y-131973646D02*
X145793089Y-131926046D01*
X145888346Y-131878466D01*
X146126441Y-131878563D01*
X146221660Y-131926221D01*
X146269260Y-131973859D01*
X146316840Y-132069117D01*
X146316801Y-132164355D01*
X146269124Y-132307192D01*
X145697463Y-132878388D01*
X146316511Y-132878640D01*
X146935965Y-131878892D02*
X147031203Y-131878931D01*
X147126422Y-131926589D01*
X147174022Y-131974227D01*
X147221602Y-132069485D01*
X147269143Y-132259980D01*
X147269047Y-132498076D01*
X147221350Y-132688532D01*
X147173692Y-132783751D01*
X147126054Y-132831351D01*
X147030796Y-132878931D01*
X146935558Y-132878892D01*
X146840339Y-132831234D01*
X146792740Y-132783596D01*
X146745160Y-132688339D01*
X146697618Y-132497843D01*
X146697715Y-132259748D01*
X146745411Y-132069291D01*
X146793069Y-131974072D01*
X146840708Y-131926473D01*
X146935965Y-131878892D01*
X148459368Y-132879512D02*
X148459639Y-132212846D01*
X148459600Y-132308084D02*
X148507239Y-132260484D01*
X148602496Y-132212904D01*
X148745353Y-132212962D01*
X148840572Y-132260620D01*
X148888152Y-132355877D01*
X148887939Y-132879687D01*
X148888152Y-132355877D02*
X148935810Y-132260659D01*
X149031067Y-132213078D01*
X149173925Y-132213136D01*
X149269143Y-132260794D01*
X149316724Y-132356052D01*
X149316510Y-132879861D01*
X149792701Y-132880055D02*
X149792972Y-132213388D01*
X149792933Y-132308626D02*
X149840572Y-132261027D01*
X149935829Y-132213446D01*
X150078686Y-132213505D01*
X150173905Y-132261162D01*
X150221485Y-132356420D01*
X150221272Y-132880229D01*
X150221485Y-132356420D02*
X150269143Y-132261201D01*
X150364401Y-132213621D01*
X150507258Y-132213679D01*
X150602476Y-132261337D01*
X150650057Y-132356594D01*
X150649844Y-132880404D01*
X60069129Y-131091163D02*
X232089129Y-131161163D01*
X60077540Y-110420520D02*
X60068890Y-131677584D01*
X232097540Y-110490520D02*
X232088890Y-131747584D01*
X232089129Y-131161163D02*
X230962387Y-131747125D01*
X232089129Y-131161163D02*
X230962864Y-130574284D01*
X60069129Y-131091163D02*
X61195394Y-131678042D01*
X60069129Y-131091163D02*
X61195871Y-130505201D01*
X249139201Y-61121022D02*
X249139222Y-61311499D01*
X249186852Y-61406731D01*
X249234476Y-61454345D01*
X249377344Y-61549568D01*
X249567825Y-61597166D01*
X249948777Y-61597124D01*
X250044010Y-61549494D01*
X250091624Y-61501870D01*
X250139233Y-61406626D01*
X250139211Y-61216150D01*
X250091582Y-61120917D01*
X250043958Y-61073304D01*
X249948714Y-61025695D01*
X249710619Y-61025721D01*
X249615386Y-61073351D01*
X249567772Y-61120975D01*
X249520164Y-61216218D01*
X249520185Y-61406695D01*
X249567814Y-61501927D01*
X249615439Y-61549541D01*
X249710682Y-61597150D01*
X250139322Y-62216150D02*
X250139332Y-62311388D01*
X250091724Y-62406632D01*
X250044110Y-62454256D01*
X249948877Y-62501885D01*
X249758406Y-62549526D01*
X249520311Y-62549552D01*
X249329830Y-62501954D01*
X249234586Y-62454345D01*
X249186962Y-62406731D01*
X249139332Y-62311499D01*
X249139322Y-62216260D01*
X249186930Y-62121017D01*
X249234544Y-62073393D01*
X249329777Y-62025763D01*
X249520248Y-61978123D01*
X249758343Y-61978097D01*
X249948825Y-62025695D01*
X250044068Y-62073304D01*
X250091692Y-62120917D01*
X250139322Y-62216150D01*
X249187030Y-63025779D02*
X249139411Y-63025784D01*
X249044168Y-62978176D01*
X248996543Y-62930562D01*
X250139506Y-63882817D02*
X250139485Y-63692341D01*
X250091855Y-63597108D01*
X250044231Y-63549494D01*
X249901363Y-63454272D01*
X249710882Y-63406674D01*
X249329929Y-63406716D01*
X249234697Y-63454345D01*
X249187083Y-63501969D01*
X249139474Y-63597213D01*
X249139495Y-63787689D01*
X249187125Y-63882922D01*
X249234749Y-63930536D01*
X249329992Y-63978144D01*
X249568088Y-63978118D01*
X249663320Y-63930488D01*
X249710934Y-63882864D01*
X249758543Y-63787621D01*
X249758522Y-63597145D01*
X249710892Y-63501912D01*
X249663268Y-63454298D01*
X249568025Y-63406689D01*
X249806277Y-64835235D02*
X249139611Y-64835308D01*
X250187204Y-64597097D02*
X249472892Y-64359081D01*
X249472960Y-64978128D01*
X250139690Y-65549483D02*
X250139700Y-65644722D01*
X250092092Y-65739965D01*
X250044478Y-65787589D01*
X249949245Y-65835219D01*
X249758774Y-65882859D01*
X249520679Y-65882885D01*
X249330197Y-65835287D01*
X249234954Y-65787679D01*
X249187330Y-65740065D01*
X249139700Y-65644832D01*
X249139690Y-65549594D01*
X249187298Y-65454350D01*
X249234912Y-65406726D01*
X249330145Y-65359097D01*
X249520616Y-65311457D01*
X249758711Y-65311430D01*
X249949192Y-65359028D01*
X250044436Y-65406637D01*
X250092060Y-65454251D01*
X250139690Y-65549483D01*
X249139858Y-67073403D02*
X249806524Y-67073330D01*
X249711286Y-67073340D02*
X249758911Y-67120954D01*
X249806540Y-67216187D01*
X249806556Y-67359044D01*
X249758947Y-67454287D01*
X249663714Y-67501917D01*
X249139905Y-67501975D01*
X249663714Y-67501917D02*
X249758958Y-67549525D01*
X249806587Y-67644758D01*
X249806603Y-67787615D01*
X249758995Y-67882859D01*
X249663762Y-67930488D01*
X249139952Y-67930546D01*
X249140005Y-68406737D02*
X249806671Y-68406663D01*
X249711433Y-68406674D02*
X249759058Y-68454287D01*
X249806687Y-68549520D01*
X249806703Y-68692377D01*
X249759094Y-68787621D01*
X249663862Y-68835250D01*
X249140052Y-68835308D01*
X249663862Y-68835250D02*
X249759105Y-68882859D01*
X249806735Y-68978092D01*
X249806750Y-69120949D01*
X249759142Y-69216192D01*
X249663909Y-69263822D01*
X249140099Y-69263879D01*
X248297029Y-110488735D02*
X248287029Y-19848735D01*
X232117540Y-110490520D02*
X248883450Y-110488670D01*
X232107540Y-19850520D02*
X248873450Y-19848670D01*
X248287029Y-19848735D02*
X248873574Y-20975174D01*
X248287029Y-19848735D02*
X247700733Y-20975303D01*
X248297029Y-110488735D02*
X248883325Y-109362167D01*
X248297029Y-110488735D02*
X247710484Y-109362296D01*
D11*
X68428016Y-97510043D02*
X68713730Y-97605281D01*
X69189920Y-97605281D01*
X69380397Y-97510043D01*
X69475635Y-97414805D01*
X69570873Y-97224329D01*
X69570873Y-97033853D01*
X69475635Y-96843377D01*
X69380397Y-96748139D01*
X69189920Y-96652900D01*
X68808968Y-96557662D01*
X68618492Y-96462424D01*
X68523254Y-96367186D01*
X68428016Y-96176710D01*
X68428016Y-95986234D01*
X68523254Y-95795758D01*
X68618492Y-95700520D01*
X68808968Y-95605281D01*
X69285159Y-95605281D01*
X69570873Y-95700520D01*
X70142301Y-96271948D02*
X70904206Y-96271948D01*
X70428016Y-95605281D02*
X70428016Y-97319567D01*
X70523254Y-97510043D01*
X70713730Y-97605281D01*
X70904206Y-97605281D01*
X72428016Y-97605281D02*
X72428016Y-96557662D01*
X72332778Y-96367186D01*
X72142301Y-96271948D01*
X71761349Y-96271948D01*
X71570873Y-96367186D01*
X72428016Y-97510043D02*
X72237540Y-97605281D01*
X71761349Y-97605281D01*
X71570873Y-97510043D01*
X71475635Y-97319567D01*
X71475635Y-97129091D01*
X71570873Y-96938615D01*
X71761349Y-96843377D01*
X72237540Y-96843377D01*
X72428016Y-96748139D01*
X73380397Y-97605281D02*
X73380397Y-96271948D01*
X73380397Y-96652900D02*
X73475635Y-96462424D01*
X73570873Y-96367186D01*
X73761349Y-96271948D01*
X73951825Y-96271948D01*
X74332778Y-96271948D02*
X75094682Y-96271948D01*
X74618492Y-95605281D02*
X74618492Y-97319567D01*
X74713730Y-97510043D01*
X74904206Y-97605281D01*
X75094682Y-97605281D01*
X76999444Y-96271948D02*
X77761349Y-96271948D01*
X77285159Y-95605281D02*
X77285159Y-97319567D01*
X77380397Y-97510043D01*
X77570873Y-97605281D01*
X77761349Y-97605281D01*
X79189920Y-97510043D02*
X78999444Y-97605281D01*
X78618492Y-97605281D01*
X78428016Y-97510043D01*
X78332778Y-97319567D01*
X78332778Y-96557662D01*
X78428016Y-96367186D01*
X78618492Y-96271948D01*
X78999444Y-96271948D01*
X79189920Y-96367186D01*
X79285159Y-96557662D01*
X79285159Y-96748139D01*
X78332778Y-96938615D01*
X80047063Y-97510043D02*
X80237540Y-97605281D01*
X80618492Y-97605281D01*
X80808968Y-97510043D01*
X80904206Y-97319567D01*
X80904206Y-97224329D01*
X80808968Y-97033853D01*
X80618492Y-96938615D01*
X80332778Y-96938615D01*
X80142301Y-96843377D01*
X80047063Y-96652900D01*
X80047063Y-96557662D01*
X80142301Y-96367186D01*
X80332778Y-96271948D01*
X80618492Y-96271948D01*
X80808968Y-96367186D01*
X81475635Y-96271948D02*
X82237540Y-96271948D01*
X81761349Y-95605281D02*
X81761349Y-97319567D01*
X81856587Y-97510043D01*
X82047063Y-97605281D01*
X82237540Y-97605281D01*
X62940873Y-75045281D02*
X62940873Y-73045281D01*
X63417063Y-73045281D01*
X63702778Y-73140520D01*
X63893254Y-73330996D01*
X63988492Y-73521472D01*
X64083730Y-73902424D01*
X64083730Y-74188139D01*
X63988492Y-74569091D01*
X63893254Y-74759567D01*
X63702778Y-74950043D01*
X63417063Y-75045281D01*
X62940873Y-75045281D01*
X65702778Y-74950043D02*
X65512301Y-75045281D01*
X65131349Y-75045281D01*
X64940873Y-74950043D01*
X64845635Y-74759567D01*
X64845635Y-73997662D01*
X64940873Y-73807186D01*
X65131349Y-73711948D01*
X65512301Y-73711948D01*
X65702778Y-73807186D01*
X65798016Y-73997662D01*
X65798016Y-74188139D01*
X64845635Y-74378615D01*
X66655159Y-73711948D02*
X66655159Y-75711948D01*
X66655159Y-73807186D02*
X66845635Y-73711948D01*
X67226587Y-73711948D01*
X67417063Y-73807186D01*
X67512301Y-73902424D01*
X67607540Y-74092900D01*
X67607540Y-74664329D01*
X67512301Y-74854805D01*
X67417063Y-74950043D01*
X67226587Y-75045281D01*
X66845635Y-75045281D01*
X66655159Y-74950043D01*
X68750397Y-75045281D02*
X68559920Y-74950043D01*
X68464682Y-74759567D01*
X68464682Y-73045281D01*
X69798016Y-75045281D02*
X69607540Y-74950043D01*
X69512301Y-74854805D01*
X69417063Y-74664329D01*
X69417063Y-74092900D01*
X69512301Y-73902424D01*
X69607540Y-73807186D01*
X69798016Y-73711948D01*
X70083730Y-73711948D01*
X70274206Y-73807186D01*
X70369444Y-73902424D01*
X70464682Y-74092900D01*
X70464682Y-74664329D01*
X70369444Y-74854805D01*
X70274206Y-74950043D01*
X70083730Y-75045281D01*
X69798016Y-75045281D01*
X71131349Y-73711948D02*
X71607540Y-75045281D01*
X72083730Y-73711948D02*
X71607540Y-75045281D01*
X71417063Y-75521472D01*
X71321825Y-75616710D01*
X71131349Y-75711948D01*
X74083730Y-73711948D02*
X74845635Y-73711948D01*
X74369444Y-75045281D02*
X74369444Y-73330996D01*
X74464682Y-73140520D01*
X74655159Y-73045281D01*
X74845635Y-73045281D01*
X75512301Y-75045281D02*
X75512301Y-73711948D01*
X75512301Y-73045281D02*
X75417063Y-73140520D01*
X75512301Y-73235758D01*
X75607540Y-73140520D01*
X75512301Y-73045281D01*
X75512301Y-73235758D01*
X76464682Y-75045281D02*
X76464682Y-73711948D01*
X76464682Y-74092900D02*
X76559920Y-73902424D01*
X76655159Y-73807186D01*
X76845635Y-73711948D01*
X77036111Y-73711948D01*
X77702778Y-75045281D02*
X77702778Y-73711948D01*
X77702778Y-73902424D02*
X77798016Y-73807186D01*
X77988492Y-73711948D01*
X78274206Y-73711948D01*
X78464682Y-73807186D01*
X78559920Y-73997662D01*
X78559920Y-75045281D01*
X78559920Y-73997662D02*
X78655159Y-73807186D01*
X78845635Y-73711948D01*
X79131349Y-73711948D01*
X79321825Y-73807186D01*
X79417063Y-73997662D01*
X79417063Y-75045281D01*
X80178968Y-73711948D02*
X80559920Y-75045281D01*
X80940873Y-74092900D01*
X81321825Y-75045281D01*
X81702778Y-73711948D01*
X83321825Y-75045281D02*
X83321825Y-73997662D01*
X83226587Y-73807186D01*
X83036111Y-73711948D01*
X82655159Y-73711948D01*
X82464682Y-73807186D01*
X83321825Y-74950043D02*
X83131349Y-75045281D01*
X82655159Y-75045281D01*
X82464682Y-74950043D01*
X82369444Y-74759567D01*
X82369444Y-74569091D01*
X82464682Y-74378615D01*
X82655159Y-74283377D01*
X83131349Y-74283377D01*
X83321825Y-74188139D01*
X84274206Y-75045281D02*
X84274206Y-73711948D01*
X84274206Y-74092900D02*
X84369444Y-73902424D01*
X84464682Y-73807186D01*
X84655159Y-73711948D01*
X84845635Y-73711948D01*
X86274206Y-74950043D02*
X86083730Y-75045281D01*
X85702778Y-75045281D01*
X85512301Y-74950043D01*
X85417063Y-74759567D01*
X85417063Y-73997662D01*
X85512301Y-73807186D01*
X85702778Y-73711948D01*
X86083730Y-73711948D01*
X86274206Y-73807186D01*
X86369444Y-73997662D01*
X86369444Y-74188139D01*
X85417063Y-74378615D01*
X196291349Y-85090043D02*
X196577063Y-85185281D01*
X197053254Y-85185281D01*
X197243730Y-85090043D01*
X197338968Y-84994805D01*
X197434206Y-84804329D01*
X197434206Y-84613853D01*
X197338968Y-84423377D01*
X197243730Y-84328139D01*
X197053254Y-84232900D01*
X196672301Y-84137662D01*
X196481825Y-84042424D01*
X196386587Y-83947186D01*
X196291349Y-83756710D01*
X196291349Y-83566234D01*
X196386587Y-83375758D01*
X196481825Y-83280520D01*
X196672301Y-83185281D01*
X197148492Y-83185281D01*
X197434206Y-83280520D01*
X198100873Y-83851948D02*
X198577063Y-85185281D01*
X199053254Y-83851948D02*
X198577063Y-85185281D01*
X198386587Y-85661472D01*
X198291349Y-85756710D01*
X198100873Y-85851948D01*
X199719920Y-85090043D02*
X199910397Y-85185281D01*
X200291349Y-85185281D01*
X200481825Y-85090043D01*
X200577063Y-84899567D01*
X200577063Y-84804329D01*
X200481825Y-84613853D01*
X200291349Y-84518615D01*
X200005635Y-84518615D01*
X199815159Y-84423377D01*
X199719920Y-84232900D01*
X199719920Y-84137662D01*
X199815159Y-83947186D01*
X200005635Y-83851948D01*
X200291349Y-83851948D01*
X200481825Y-83947186D01*
X201148492Y-83851948D02*
X201910397Y-83851948D01*
X201434206Y-83185281D02*
X201434206Y-84899567D01*
X201529444Y-85090043D01*
X201719920Y-85185281D01*
X201910397Y-85185281D01*
X203338968Y-85090043D02*
X203148492Y-85185281D01*
X202767540Y-85185281D01*
X202577063Y-85090043D01*
X202481825Y-84899567D01*
X202481825Y-84137662D01*
X202577063Y-83947186D01*
X202767540Y-83851948D01*
X203148492Y-83851948D01*
X203338968Y-83947186D01*
X203434206Y-84137662D01*
X203434206Y-84328139D01*
X202481825Y-84518615D01*
X204291349Y-85185281D02*
X204291349Y-83851948D01*
X204291349Y-84042424D02*
X204386587Y-83947186D01*
X204577063Y-83851948D01*
X204862778Y-83851948D01*
X205053254Y-83947186D01*
X205148492Y-84137662D01*
X205148492Y-85185281D01*
X205148492Y-84137662D02*
X205243730Y-83947186D01*
X205434206Y-83851948D01*
X205719920Y-83851948D01*
X205910397Y-83947186D01*
X206005635Y-84137662D01*
X206005635Y-85185281D01*
X208481825Y-85185281D02*
X208481825Y-83851948D01*
X208481825Y-84232900D02*
X208577063Y-84042424D01*
X208672301Y-83947186D01*
X208862778Y-83851948D01*
X209053254Y-83851948D01*
X210481825Y-85090043D02*
X210291349Y-85185281D01*
X209910397Y-85185281D01*
X209719920Y-85090043D01*
X209624682Y-84899567D01*
X209624682Y-84137662D01*
X209719920Y-83947186D01*
X209910397Y-83851948D01*
X210291349Y-83851948D01*
X210481825Y-83947186D01*
X210577063Y-84137662D01*
X210577063Y-84328139D01*
X209624682Y-84518615D01*
X212291349Y-85185281D02*
X212291349Y-84137662D01*
X212196111Y-83947186D01*
X212005635Y-83851948D01*
X211624682Y-83851948D01*
X211434206Y-83947186D01*
X212291349Y-85090043D02*
X212100873Y-85185281D01*
X211624682Y-85185281D01*
X211434206Y-85090043D01*
X211338968Y-84899567D01*
X211338968Y-84709091D01*
X211434206Y-84518615D01*
X211624682Y-84423377D01*
X212100873Y-84423377D01*
X212291349Y-84328139D01*
X214100873Y-85185281D02*
X214100873Y-83185281D01*
X214100873Y-85090043D02*
X213910397Y-85185281D01*
X213529444Y-85185281D01*
X213338968Y-85090043D01*
X213243730Y-84994805D01*
X213148492Y-84804329D01*
X213148492Y-84232900D01*
X213243730Y-84042424D01*
X213338968Y-83947186D01*
X213529444Y-83851948D01*
X213910397Y-83851948D01*
X214100873Y-83947186D01*
X214862778Y-83851948D02*
X215338968Y-85185281D01*
X215815159Y-83851948D02*
X215338968Y-85185281D01*
X215148492Y-85661472D01*
X215053254Y-85756710D01*
X214862778Y-85851948D01*
D10*
G36*
X173967540Y-99285520D02*
G01*
X168392540Y-99285520D01*
X173967540Y-93710520D01*
X173967540Y-99285520D01*
G37*
X173967540Y-99285520D02*
X168392540Y-99285520D01*
X173967540Y-93710520D01*
X173967540Y-99285520D01*
D12*
X232107540Y-19850520D02*
X232097540Y-110490520D01*
X59947540Y-19880520D02*
X232097540Y-19810520D01*
X60077540Y-110410520D02*
X59957540Y-19860520D01*
X232117540Y-110490520D02*
X60077540Y-110420520D01*
D13*
X110637540Y-104575520D02*
X110572540Y-104575520D01*
X110572540Y-101045520D02*
X110572540Y-104575520D01*
X110637540Y-101045520D02*
X110572540Y-101045520D01*
X174192540Y-104575520D02*
X174127540Y-104575520D01*
X174192540Y-101045520D02*
X174127540Y-101045520D01*
X174127540Y-104575520D02*
X174127540Y-105900520D01*
X174192540Y-101045520D02*
X174192540Y-104575520D01*
X174179540Y-58066520D02*
X174179540Y-61596520D01*
X174114540Y-61596520D02*
X174114540Y-62921520D01*
X174179540Y-58066520D02*
X174114540Y-58066520D01*
X174179540Y-61596520D02*
X174114540Y-61596520D01*
X110624540Y-58066520D02*
X110559540Y-58066520D01*
X110559540Y-58066520D02*
X110559540Y-61596520D01*
X110624540Y-61596520D02*
X110559540Y-61596520D01*
D10*
X208294800Y-66616200D02*
X208294800Y-67316200D01*
X207094800Y-67316200D02*
X207094800Y-66616200D01*
X209402540Y-57299520D02*
X209402540Y-47301520D01*
X209262540Y-57295520D02*
X209262540Y-47305520D01*
X209122540Y-57287520D02*
X209122540Y-47313520D01*
X208982540Y-57275520D02*
X208982540Y-47325520D01*
X208842540Y-57260520D02*
X208842540Y-47340520D01*
X208702540Y-57240520D02*
X208702540Y-47360520D01*
X208562540Y-57216520D02*
X208562540Y-47384520D01*
X208422540Y-57187520D02*
X208422540Y-47413520D01*
X208282540Y-57155520D02*
X208282540Y-47445520D01*
X208142540Y-57118520D02*
X208142540Y-47482520D01*
X208002540Y-57077520D02*
X208002540Y-47523520D01*
X207862540Y-57032520D02*
X207862540Y-52766520D01*
X207862540Y-51834520D02*
X207862540Y-47568520D01*
X207722540Y-56982520D02*
X207722540Y-52967520D01*
X207722540Y-51633520D02*
X207722540Y-47618520D01*
X207582540Y-56927520D02*
X207582540Y-53096520D01*
X207582540Y-51504520D02*
X207582540Y-47673520D01*
X207442540Y-56867520D02*
X207442540Y-53185520D01*
X207442540Y-51415520D02*
X207442540Y-47733520D01*
X207302540Y-56802520D02*
X207302540Y-53246520D01*
X207302540Y-51354520D02*
X207302540Y-47798520D01*
X207162540Y-56732520D02*
X207162540Y-53283520D01*
X207162540Y-51317520D02*
X207162540Y-47868520D01*
X207022540Y-56656520D02*
X207022540Y-53299520D01*
X207022540Y-51301520D02*
X207022540Y-47944520D01*
X206882540Y-56574520D02*
X206882540Y-53295520D01*
X206882540Y-51305520D02*
X206882540Y-48026520D01*
X206742540Y-56486520D02*
X206742540Y-53272520D01*
X206742540Y-51328520D02*
X206742540Y-48114520D01*
X206602540Y-56391520D02*
X206602540Y-53227520D01*
X206602540Y-51373520D02*
X206602540Y-48209520D01*
X206462540Y-56289520D02*
X206462540Y-53157520D01*
X206462540Y-51443520D02*
X206462540Y-48311520D01*
X206322540Y-56179520D02*
X206322540Y-53056520D01*
X206322540Y-51544520D02*
X206322540Y-48421520D01*
X206182540Y-56061520D02*
X206182540Y-52907520D01*
X206182540Y-51693520D02*
X206182540Y-48539520D01*
X206042540Y-55933520D02*
X206042540Y-52655520D01*
X206042540Y-51945520D02*
X206042540Y-48667520D01*
X205902540Y-55796520D02*
X205902540Y-48804520D01*
X205762540Y-55646520D02*
X205762540Y-48954520D01*
X205622540Y-55484520D02*
X205622540Y-49116520D01*
X205482540Y-55307520D02*
X205482540Y-49293520D01*
X205342540Y-55111520D02*
X205342540Y-49489520D01*
X205202540Y-54893520D02*
X205202540Y-49707520D01*
X205062540Y-54647520D02*
X205062540Y-49953520D01*
X204922540Y-54362520D02*
X204922540Y-50238520D01*
X204782540Y-54020520D02*
X204782540Y-50580520D01*
X204642540Y-53574520D02*
X204642540Y-51026520D01*
X204502540Y-52799520D02*
X204502540Y-51801520D01*
X207977540Y-52300520D02*
G75*
G03X207977540Y-52300520I-1000000J0D01*
G01*
X214515040Y-52300520D02*
G75*
G03X214515040Y-52300520I-5037500J0D01*
G01*
X223560200Y-66565400D02*
X223560200Y-67265400D01*
X222360200Y-67265400D02*
X222360200Y-66565400D01*
X221382540Y-47141520D02*
X221382540Y-57139520D01*
X221522540Y-47145520D02*
X221522540Y-57135520D01*
X221662540Y-47153520D02*
X221662540Y-57127520D01*
X221802540Y-47165520D02*
X221802540Y-57115520D01*
X221942540Y-47180520D02*
X221942540Y-57100520D01*
X222082540Y-47200520D02*
X222082540Y-57080520D01*
X222222540Y-47224520D02*
X222222540Y-57056520D01*
X222362540Y-47253520D02*
X222362540Y-57027520D01*
X222502540Y-47285520D02*
X222502540Y-56995520D01*
X222642540Y-47322520D02*
X222642540Y-56958520D01*
X222782540Y-47363520D02*
X222782540Y-56917520D01*
X222922540Y-47408520D02*
X222922540Y-51674520D01*
X222922540Y-52606520D02*
X222922540Y-56872520D01*
X223062540Y-47458520D02*
X223062540Y-51473520D01*
X223062540Y-52807520D02*
X223062540Y-56822520D01*
X223202540Y-47513520D02*
X223202540Y-51344520D01*
X223202540Y-52936520D02*
X223202540Y-56767520D01*
X223342540Y-47573520D02*
X223342540Y-51255520D01*
X223342540Y-53025520D02*
X223342540Y-56707520D01*
X223482540Y-47638520D02*
X223482540Y-51194520D01*
X223482540Y-53086520D02*
X223482540Y-56642520D01*
X223622540Y-47708520D02*
X223622540Y-51157520D01*
X223622540Y-53123520D02*
X223622540Y-56572520D01*
X223762540Y-47784520D02*
X223762540Y-51141520D01*
X223762540Y-53139520D02*
X223762540Y-56496520D01*
X223902540Y-47866520D02*
X223902540Y-51145520D01*
X223902540Y-53135520D02*
X223902540Y-56414520D01*
X224042540Y-47954520D02*
X224042540Y-51168520D01*
X224042540Y-53112520D02*
X224042540Y-56326520D01*
X224182540Y-48049520D02*
X224182540Y-51213520D01*
X224182540Y-53067520D02*
X224182540Y-56231520D01*
X224322540Y-48151520D02*
X224322540Y-51283520D01*
X224322540Y-52997520D02*
X224322540Y-56129520D01*
X224462540Y-48261520D02*
X224462540Y-51384520D01*
X224462540Y-52896520D02*
X224462540Y-56019520D01*
X224602540Y-48379520D02*
X224602540Y-51533520D01*
X224602540Y-52747520D02*
X224602540Y-55901520D01*
X224742540Y-48507520D02*
X224742540Y-51785520D01*
X224742540Y-52495520D02*
X224742540Y-55773520D01*
X224882540Y-48644520D02*
X224882540Y-55636520D01*
X225022540Y-48794520D02*
X225022540Y-55486520D01*
X225162540Y-48956520D02*
X225162540Y-55324520D01*
X225302540Y-49133520D02*
X225302540Y-55147520D01*
X225442540Y-49329520D02*
X225442540Y-54951520D01*
X225582540Y-49547520D02*
X225582540Y-54733520D01*
X225722540Y-49793520D02*
X225722540Y-54487520D01*
X225862540Y-50078520D02*
X225862540Y-54202520D01*
X226002540Y-50420520D02*
X226002540Y-53860520D01*
X226142540Y-50866520D02*
X226142540Y-53414520D01*
X226282540Y-51641520D02*
X226282540Y-52639520D01*
X224807540Y-52140520D02*
G75*
G03X224807540Y-52140520I-1000000J0D01*
G01*
X226345040Y-52140520D02*
G75*
G03X226345040Y-52140520I-5037500J0D01*
G01*
X197851280Y-78261920D02*
X198551280Y-78261920D01*
X198551280Y-79461920D02*
X197851280Y-79461920D01*
X182893600Y-49182400D02*
X182893600Y-50182400D01*
X184593600Y-50182400D02*
X184593600Y-49182400D01*
X181213200Y-50388000D02*
X181213200Y-49688000D01*
X182413200Y-49688000D02*
X182413200Y-50388000D01*
X211617000Y-29382200D02*
X211617000Y-28682200D01*
X212817000Y-28682200D02*
X212817000Y-29382200D01*
X209804000Y-39319200D02*
X202692000Y-39319200D01*
X209804000Y-33223200D02*
X202692000Y-33223200D01*
X220316060Y-66204200D02*
G75*
G03X220316060Y-66204200I-5001260J0D01*
G01*
X209315320Y-66204200D02*
X209315320Y-61202940D01*
X209315320Y-61202940D02*
X210313540Y-60204720D01*
X210313540Y-60204720D02*
X220316060Y-60204720D01*
X220316060Y-60204720D02*
X221314280Y-61202940D01*
X221314280Y-61202940D02*
X221314280Y-71205460D01*
X221314280Y-71205460D02*
X220316060Y-72203680D01*
X220316060Y-72203680D02*
X210313540Y-72203680D01*
X210313540Y-72203680D02*
X209315320Y-71205460D01*
X209315320Y-71205460D02*
X209315320Y-66204200D01*
X177004600Y-66867400D02*
X176004600Y-66867400D01*
X176004600Y-65517400D02*
X177004600Y-65517400D01*
X83276440Y-22452840D02*
X90573440Y-22452840D01*
X90573440Y-22452840D02*
X90573440Y-25022840D01*
X84673440Y-26752840D02*
X89173440Y-26752840D01*
X83276440Y-22452840D02*
X83276440Y-25022840D01*
X202075660Y-24823880D02*
X202075660Y-16073880D01*
X202075660Y-30573880D02*
X202075660Y-28723880D01*
X202075660Y-30573880D02*
X204375660Y-30573880D01*
X211075660Y-30573880D02*
X208775660Y-30573880D01*
X211076540Y-19573240D02*
X202074780Y-19573240D01*
X211076540Y-16073120D02*
X202074780Y-16073120D01*
X211076540Y-30573980D02*
X211076540Y-16073120D01*
X79060720Y-53551020D02*
X79060720Y-52547820D01*
X83560720Y-53551020D02*
X83560720Y-52547820D01*
X83560720Y-53551020D02*
X79060720Y-53551020D01*
X92740720Y-52271820D02*
X93502720Y-51382820D01*
X93502720Y-51382820D02*
X91978720Y-51382820D01*
X91978720Y-51382820D02*
X92740720Y-52271820D01*
X64860720Y-52547820D02*
X64860720Y-61647820D01*
X97760720Y-61647820D02*
X64860720Y-61647820D01*
X97760720Y-52547820D02*
X64860720Y-52547820D01*
X97760720Y-52547820D02*
X97760720Y-61647820D01*
X154446600Y-66429000D02*
X154446600Y-67429000D01*
X153096600Y-67429000D02*
X153096600Y-66429000D01*
X151217000Y-67429000D02*
X151217000Y-66429000D01*
X152567000Y-66429000D02*
X152567000Y-67429000D01*
X201049000Y-79945600D02*
X202049000Y-79945600D01*
X202049000Y-78245600D02*
X201049000Y-78245600D01*
X198289800Y-79947400D02*
X197289800Y-79947400D01*
X197289800Y-81647400D02*
X198289800Y-81647400D01*
X85790400Y-50198400D02*
X85790400Y-51198400D01*
X84440400Y-51198400D02*
X84440400Y-50198400D01*
X83250400Y-50198400D02*
X83250400Y-51198400D01*
X81900400Y-51198400D02*
X81900400Y-50198400D01*
X195525000Y-75215400D02*
X204525000Y-75215400D01*
X195525000Y-74715400D02*
X195525000Y-75215400D01*
X204525000Y-74715400D02*
X195525000Y-74715400D01*
X204525000Y-75215400D02*
X204525000Y-74715400D01*
X202575000Y-69365400D02*
X203075000Y-68665400D01*
X203075000Y-68665400D02*
X202075000Y-68665400D01*
X202075000Y-68665400D02*
X202575000Y-69365400D01*
X205225000Y-77215400D02*
X205225000Y-69615400D01*
X194825000Y-77215400D02*
X205225000Y-77215400D01*
X194825000Y-77215400D02*
X194825000Y-69615400D01*
X194825000Y-69615400D02*
X205225000Y-69615400D01*
X204025000Y-70765400D02*
X196024844Y-70765400D01*
X204025000Y-74715412D02*
X204025000Y-70765400D01*
X196025000Y-74715412D02*
X196025000Y-70765400D01*
X198842000Y-57157400D02*
X198842000Y-56857400D01*
X196342000Y-57157400D02*
X198842000Y-57157400D01*
X196342000Y-56857400D02*
X196342000Y-57157400D01*
X201292000Y-62607400D02*
X193892000Y-62607400D01*
X193892000Y-57707400D02*
X193892000Y-62607400D01*
X201292000Y-57707400D02*
X201292000Y-62607400D01*
X196342000Y-56857400D02*
X193892000Y-56857400D01*
X201292000Y-56857400D02*
X198842000Y-56857400D01*
X177229400Y-49182400D02*
X177229400Y-50182400D01*
X178929400Y-50182400D02*
X178929400Y-49182400D01*
X179409800Y-50388000D02*
X179409800Y-49688000D01*
X180609800Y-49688000D02*
X180609800Y-50388000D01*
D13*
X208971640Y-45781320D02*
X210971640Y-45781320D01*
X210971640Y-45781320D02*
X210971640Y-41931320D01*
X208971640Y-45781320D02*
X208971640Y-41931320D01*
X203663040Y-45746220D02*
X203663040Y-41896220D01*
X205663040Y-45746220D02*
X205663040Y-41896220D01*
X203663040Y-45746220D02*
X205663040Y-45746220D01*
X161291462Y-33960520D02*
X161808618Y-33960520D01*
X161291462Y-35380520D02*
X161808618Y-35380520D01*
X158343618Y-35310520D02*
X157826462Y-35310520D01*
X158343618Y-36730520D02*
X157826462Y-36730520D01*
X161341462Y-36590520D02*
X161858618Y-36590520D01*
X161341462Y-38010520D02*
X161858618Y-38010520D01*
X89667540Y-81380520D02*
X92667540Y-81380520D01*
X88967540Y-78360520D02*
X92667540Y-78360520D01*
X87917540Y-91020520D02*
X91617540Y-91020520D01*
X88617540Y-94040520D02*
X91617540Y-94040520D01*
X208627540Y-91380520D02*
X204927540Y-91380520D01*
X207927540Y-88360520D02*
X204927540Y-88360520D01*
X154037540Y-26250520D02*
X154037540Y-30510520D01*
X154037540Y-30510520D02*
X166357540Y-30510520D01*
X166357540Y-30510520D02*
X166357540Y-26250520D01*
X154037540Y-22150520D02*
X154037540Y-13790520D01*
X154037540Y-13790520D02*
X166357540Y-13790520D01*
X166357540Y-13790520D02*
X166357540Y-22150520D01*
X158947540Y-30730520D02*
X158447540Y-31230520D01*
X158447540Y-31230520D02*
X159447540Y-31230520D01*
X159447540Y-31230520D02*
X158947540Y-30730520D01*
X96060319Y-77920520D02*
X95734761Y-77920520D01*
X96060319Y-78940520D02*
X95734761Y-78940520D01*
X96057819Y-80380520D02*
X95732261Y-80380520D01*
X96057819Y-79360520D02*
X95732261Y-79360520D01*
X96110319Y-80810520D02*
X95784761Y-80810520D01*
X96110319Y-81830520D02*
X95784761Y-81830520D01*
X94800319Y-90670520D02*
X94474761Y-90670520D01*
X94800319Y-91690520D02*
X94474761Y-91690520D01*
X94777819Y-93150520D02*
X94452261Y-93150520D01*
X94777819Y-92130520D02*
X94452261Y-92130520D01*
X94830319Y-94600520D02*
X94504761Y-94600520D01*
X94830319Y-93580520D02*
X94504761Y-93580520D01*
X201084761Y-91930520D02*
X201410319Y-91930520D01*
X201084761Y-90910520D02*
X201410319Y-90910520D01*
X201062261Y-90420520D02*
X201387819Y-90420520D01*
X201062261Y-89400520D02*
X201387819Y-89400520D01*
X200984761Y-87890520D02*
X201310319Y-87890520D01*
X200984761Y-88910520D02*
X201310319Y-88910520D01*
X66577540Y-81860241D02*
X66577540Y-82185799D01*
X65557540Y-81860241D02*
X65557540Y-82185799D01*
X65727540Y-89945799D02*
X65727540Y-89620241D01*
X66747540Y-89945799D02*
X66747540Y-89620241D01*
X72897540Y-77540520D02*
X77637540Y-77540520D01*
X72897540Y-77540520D02*
X72897540Y-77940520D01*
X77637540Y-77540520D02*
X77637540Y-77940520D01*
X72897540Y-82280520D02*
X72897540Y-81880520D01*
X72897540Y-82280520D02*
X77637540Y-82280520D01*
X77637540Y-82280520D02*
X77637540Y-81880520D01*
X77637540Y-80940520D02*
X77637540Y-78880520D01*
X72897540Y-80940520D02*
X72897540Y-78880520D01*
X73387540Y-93370520D02*
X73387540Y-91310520D01*
X78127540Y-93370520D02*
X78127540Y-91310520D01*
X78127540Y-94710520D02*
X78127540Y-94310520D01*
X73387540Y-94710520D02*
X78127540Y-94710520D01*
X73387540Y-94710520D02*
X73387540Y-94310520D01*
X78127540Y-89970520D02*
X78127540Y-90370520D01*
X73387540Y-89970520D02*
X73387540Y-90370520D01*
X73387540Y-89970520D02*
X78127540Y-89970520D01*
X167237540Y-33130520D02*
X169737540Y-33130520D01*
X167237540Y-36230520D02*
X171637540Y-36230520D01*
X147868618Y-27950520D02*
X147351462Y-27950520D01*
X147868618Y-26530520D02*
X147351462Y-26530520D01*
X161297261Y-32230520D02*
X161622819Y-32230520D01*
X161297261Y-33250520D02*
X161622819Y-33250520D01*
X159517540Y-33360241D02*
X159517540Y-33685799D01*
X158497540Y-33360241D02*
X158497540Y-33685799D01*
D12*
X211377540Y-51700520D02*
X211377540Y-52900520D01*
X212577540Y-52900520D01*
X212577540Y-51700520D01*
X211377540Y-51700520D01*
X207577540Y-52300520D02*
G75*
G03X207577540Y-52300520I-600000J0D01*
G01*
X218207540Y-51540520D02*
X218207540Y-52740520D01*
X219407540Y-52740520D01*
X219407540Y-51540520D01*
X218207540Y-51540520D01*
X224407540Y-52140520D02*
G75*
G03X224407540Y-52140520I-600000J0D01*
G01*
X91433440Y-26212840D02*
G75*
G03X91433440Y-26212840I-1000000J0D01*
G01*
X89998440Y-23722840D02*
G75*
G03X89998440Y-23722840I-825000J0D01*
G01*
X85498440Y-23722840D02*
G75*
G03X85498440Y-23722840I-825000J0D01*
G01*
X84423440Y-26212840D02*
G75*
G03X84423440Y-26212840I-1000000J0D01*
G01*
X204625660Y-27823880D02*
X204625660Y-31723880D01*
X208525660Y-31723880D01*
X208525660Y-27823880D01*
X204625660Y-27823880D01*
X204875660Y-22071340D02*
X204875660Y-25471340D01*
X208275660Y-25471340D01*
X208275660Y-22071340D01*
X204875660Y-22071340D01*
X200175660Y-25071340D02*
X200175660Y-28471340D01*
X203575660Y-28471340D01*
X203575660Y-25071340D01*
X200175660Y-25071340D01*
X91927120Y-55014220D02*
X91927120Y-56641420D01*
X93554320Y-56641420D01*
X93554320Y-55014220D01*
X91927120Y-55014220D01*
X92740720Y-57554220D02*
X92740720Y-57554220D01*
X92740720Y-59181420D02*
X92740720Y-59181420D01*
X92740720Y-57554220D02*
G75*
G03X92740720Y-59181420I0J-813600D01*
G01*
X92740720Y-59181420D02*
G75*
G03X92740720Y-57554220I0J813600D01*
G01*
X90200720Y-55014220D02*
X90200720Y-55014220D01*
X90200720Y-56641420D02*
X90200720Y-56641420D01*
X90200720Y-55014220D02*
G75*
G03X90200720Y-56641420I0J-813600D01*
G01*
X90200720Y-56641420D02*
G75*
G03X90200720Y-55014220I0J813600D01*
G01*
X90200720Y-57554220D02*
X90200720Y-57554220D01*
X90200720Y-59181420D02*
X90200720Y-59181420D01*
X90200720Y-57554220D02*
G75*
G03X90200720Y-59181420I0J-813600D01*
G01*
X90200720Y-59181420D02*
G75*
G03X90200720Y-57554220I0J813600D01*
G01*
X87660720Y-55014220D02*
X87660720Y-55014220D01*
X87660720Y-56641420D02*
X87660720Y-56641420D01*
X87660720Y-55014220D02*
G75*
G03X87660720Y-56641420I0J-813600D01*
G01*
X87660720Y-56641420D02*
G75*
G03X87660720Y-55014220I0J813600D01*
G01*
X87660720Y-57554220D02*
X87660720Y-57554220D01*
X87660720Y-59181420D02*
X87660720Y-59181420D01*
X87660720Y-57554220D02*
G75*
G03X87660720Y-59181420I0J-813600D01*
G01*
X87660720Y-59181420D02*
G75*
G03X87660720Y-57554220I0J813600D01*
G01*
X85120720Y-55014220D02*
X85120720Y-55014220D01*
X85120720Y-56641420D02*
X85120720Y-56641420D01*
X85120720Y-55014220D02*
G75*
G03X85120720Y-56641420I0J-813600D01*
G01*
X85120720Y-56641420D02*
G75*
G03X85120720Y-55014220I0J813600D01*
G01*
X85120720Y-57554220D02*
X85120720Y-57554220D01*
X85120720Y-59181420D02*
X85120720Y-59181420D01*
X85120720Y-57554220D02*
G75*
G03X85120720Y-59181420I0J-813600D01*
G01*
X85120720Y-59181420D02*
G75*
G03X85120720Y-57554220I0J813600D01*
G01*
X82580720Y-55014220D02*
X82580720Y-55014220D01*
X82580720Y-56641420D02*
X82580720Y-56641420D01*
X82580720Y-55014220D02*
G75*
G03X82580720Y-56641420I0J-813600D01*
G01*
X82580720Y-56641420D02*
G75*
G03X82580720Y-55014220I0J813600D01*
G01*
X82580720Y-57554220D02*
X82580720Y-57554220D01*
X82580720Y-59181420D02*
X82580720Y-59181420D01*
X82580720Y-57554220D02*
G75*
G03X82580720Y-59181420I0J-813600D01*
G01*
X82580720Y-59181420D02*
G75*
G03X82580720Y-57554220I0J813600D01*
G01*
X80040720Y-55014220D02*
X80040720Y-55014220D01*
X80040720Y-56641420D02*
X80040720Y-56641420D01*
X80040720Y-55014220D02*
G75*
G03X80040720Y-56641420I0J-813600D01*
G01*
X80040720Y-56641420D02*
G75*
G03X80040720Y-55014220I0J813600D01*
G01*
X80040720Y-57554220D02*
X80040720Y-57554220D01*
X80040720Y-59181420D02*
X80040720Y-59181420D01*
X80040720Y-57554220D02*
G75*
G03X80040720Y-59181420I0J-813600D01*
G01*
X80040720Y-59181420D02*
G75*
G03X80040720Y-57554220I0J813600D01*
G01*
X77500720Y-55014220D02*
X77500720Y-55014220D01*
X77500720Y-56641420D02*
X77500720Y-56641420D01*
X77500720Y-55014220D02*
G75*
G03X77500720Y-56641420I0J-813600D01*
G01*
X77500720Y-56641420D02*
G75*
G03X77500720Y-55014220I0J813600D01*
G01*
X77500720Y-57554220D02*
X77500720Y-57554220D01*
X77500720Y-59181420D02*
X77500720Y-59181420D01*
X77500720Y-57554220D02*
G75*
G03X77500720Y-59181420I0J-813600D01*
G01*
X77500720Y-59181420D02*
G75*
G03X77500720Y-57554220I0J813600D01*
G01*
X74960720Y-55014220D02*
X74960720Y-55014220D01*
X74960720Y-56641420D02*
X74960720Y-56641420D01*
X74960720Y-55014220D02*
G75*
G03X74960720Y-56641420I0J-813600D01*
G01*
X74960720Y-56641420D02*
G75*
G03X74960720Y-55014220I0J813600D01*
G01*
X74960720Y-57554220D02*
X74960720Y-57554220D01*
X74960720Y-59181420D02*
X74960720Y-59181420D01*
X74960720Y-57554220D02*
G75*
G03X74960720Y-59181420I0J-813600D01*
G01*
X74960720Y-59181420D02*
G75*
G03X74960720Y-57554220I0J813600D01*
G01*
X72420720Y-55014220D02*
X72420720Y-55014220D01*
X72420720Y-56641420D02*
X72420720Y-56641420D01*
X72420720Y-55014220D02*
G75*
G03X72420720Y-56641420I0J-813600D01*
G01*
X72420720Y-56641420D02*
G75*
G03X72420720Y-55014220I0J813600D01*
G01*
X72420720Y-57554220D02*
X72420720Y-57554220D01*
X72420720Y-59181420D02*
X72420720Y-59181420D01*
X72420720Y-57554220D02*
G75*
G03X72420720Y-59181420I0J-813600D01*
G01*
X72420720Y-59181420D02*
G75*
G03X72420720Y-57554220I0J813600D01*
G01*
X69880720Y-55014220D02*
X69880720Y-55014220D01*
X69880720Y-56641420D02*
X69880720Y-56641420D01*
X69880720Y-55014220D02*
G75*
G03X69880720Y-56641420I0J-813600D01*
G01*
X69880720Y-56641420D02*
G75*
G03X69880720Y-55014220I0J813600D01*
G01*
X69880720Y-57554220D02*
X69880720Y-57554220D01*
X69880720Y-59181420D02*
X69880720Y-59181420D01*
X69880720Y-57554220D02*
G75*
G03X69880720Y-59181420I0J-813600D01*
G01*
X69880720Y-59181420D02*
G75*
G03X69880720Y-57554220I0J813600D01*
G01*
X224747540Y-28500520D02*
G75*
G03X224747540Y-28500520I-2700000J0D01*
G01*
X199324430Y-71916290D02*
X199324430Y-72914510D01*
X200725570Y-71916290D02*
X200725570Y-72914510D01*
X199324430Y-72914510D02*
G75*
G03X200725570Y-72914510I700570J0D01*
G01*
X200725570Y-71916290D02*
G75*
G03X199324430Y-71916290I-700570J0D01*
G01*
X201864430Y-71916290D02*
X201864430Y-72914510D01*
X203265570Y-71916290D02*
X203265570Y-72914510D01*
X201864430Y-72914510D02*
G75*
G03X203265570Y-72914510I700570J0D01*
G01*
X203265570Y-71916290D02*
G75*
G03X201864430Y-71916290I-700570J0D01*
G01*
X196784430Y-71916290D02*
X196784430Y-72914510D01*
X198185570Y-71916290D02*
X198185570Y-72914510D01*
X196784430Y-72914510D02*
G75*
G03X198185570Y-72914510I700570J0D01*
G01*
X198185570Y-71916290D02*
G75*
G03X196784430Y-71916290I-700570J0D01*
G01*
X195492000Y-58357400D02*
X195492000Y-60057400D01*
X197192000Y-60057400D01*
X197192000Y-58357400D01*
X195492000Y-58357400D01*
X199692000Y-59207400D02*
G75*
G03X199692000Y-59207400I-850000J0D01*
G01*
D10*
X175634920Y-103143853D02*
X176349206Y-103143853D01*
X176492063Y-103191472D01*
X176587301Y-103286710D01*
X176634920Y-103429567D01*
X176634920Y-103524805D01*
X175634920Y-102762900D02*
X175634920Y-102096234D01*
X176634920Y-102524805D01*
X175621920Y-60164853D02*
X176336206Y-60164853D01*
X176479063Y-60212472D01*
X176574301Y-60307710D01*
X176621920Y-60450567D01*
X176621920Y-60545805D01*
X176050492Y-59545805D02*
X176002873Y-59641043D01*
X175955254Y-59688662D01*
X175860016Y-59736281D01*
X175812397Y-59736281D01*
X175717159Y-59688662D01*
X175669540Y-59641043D01*
X175621920Y-59545805D01*
X175621920Y-59355329D01*
X175669540Y-59260091D01*
X175717159Y-59212472D01*
X175812397Y-59164853D01*
X175860016Y-59164853D01*
X175955254Y-59212472D01*
X176002873Y-59260091D01*
X176050492Y-59355329D01*
X176050492Y-59545805D01*
X176098111Y-59641043D01*
X176145730Y-59688662D01*
X176240968Y-59736281D01*
X176431444Y-59736281D01*
X176526682Y-59688662D01*
X176574301Y-59641043D01*
X176621920Y-59545805D01*
X176621920Y-59355329D01*
X176574301Y-59260091D01*
X176526682Y-59212472D01*
X176431444Y-59164853D01*
X176240968Y-59164853D01*
X176145730Y-59212472D01*
X176098111Y-59260091D01*
X176050492Y-59355329D01*
D12*
X207578133Y-69172000D02*
X207544800Y-69205333D01*
X207444800Y-69238666D01*
X207378133Y-69238666D01*
X207278133Y-69205333D01*
X207211466Y-69138666D01*
X207178133Y-69072000D01*
X207144800Y-68938666D01*
X207144800Y-68838666D01*
X207178133Y-68705333D01*
X207211466Y-68638666D01*
X207278133Y-68572000D01*
X207378133Y-68538666D01*
X207444800Y-68538666D01*
X207544800Y-68572000D01*
X207578133Y-68605333D01*
X208244800Y-69238666D02*
X207844800Y-69238666D01*
X208044800Y-69238666D02*
X208044800Y-68538666D01*
X207978133Y-68638666D01*
X207911466Y-68705333D01*
X207844800Y-68738666D01*
X213022940Y-47510253D02*
X212989606Y-47476920D01*
X212956273Y-47376920D01*
X212956273Y-47310253D01*
X212989606Y-47210253D01*
X213056273Y-47143586D01*
X213122940Y-47110253D01*
X213256273Y-47076920D01*
X213356273Y-47076920D01*
X213489606Y-47110253D01*
X213556273Y-47143586D01*
X213622940Y-47210253D01*
X213656273Y-47310253D01*
X213656273Y-47376920D01*
X213622940Y-47476920D01*
X213589606Y-47510253D01*
X213589606Y-47776920D02*
X213622940Y-47810253D01*
X213656273Y-47876920D01*
X213656273Y-48043586D01*
X213622940Y-48110253D01*
X213589606Y-48143586D01*
X213522940Y-48176920D01*
X213456273Y-48176920D01*
X213356273Y-48143586D01*
X212956273Y-47743586D01*
X212956273Y-48176920D01*
X222843533Y-69121200D02*
X222810200Y-69154533D01*
X222710200Y-69187866D01*
X222643533Y-69187866D01*
X222543533Y-69154533D01*
X222476866Y-69087866D01*
X222443533Y-69021200D01*
X222410200Y-68887866D01*
X222410200Y-68787866D01*
X222443533Y-68654533D01*
X222476866Y-68587866D01*
X222543533Y-68521200D01*
X222643533Y-68487866D01*
X222710200Y-68487866D01*
X222810200Y-68521200D01*
X222843533Y-68554533D01*
X223443533Y-68721200D02*
X223443533Y-69187866D01*
X223276866Y-68454533D02*
X223110200Y-68954533D01*
X223543533Y-68954533D01*
X217312940Y-56697453D02*
X217279606Y-56664120D01*
X217246273Y-56564120D01*
X217246273Y-56497453D01*
X217279606Y-56397453D01*
X217346273Y-56330786D01*
X217412940Y-56297453D01*
X217546273Y-56264120D01*
X217646273Y-56264120D01*
X217779606Y-56297453D01*
X217846273Y-56330786D01*
X217912940Y-56397453D01*
X217946273Y-56497453D01*
X217946273Y-56564120D01*
X217912940Y-56664120D01*
X217879606Y-56697453D01*
X217946273Y-57297453D02*
X217946273Y-57164120D01*
X217912940Y-57097453D01*
X217879606Y-57064120D01*
X217779606Y-56997453D01*
X217646273Y-56964120D01*
X217379606Y-56964120D01*
X217312940Y-56997453D01*
X217279606Y-57030786D01*
X217246273Y-57097453D01*
X217246273Y-57230786D01*
X217279606Y-57297453D01*
X217312940Y-57330786D01*
X217379606Y-57364120D01*
X217546273Y-57364120D01*
X217612940Y-57330786D01*
X217646273Y-57297453D01*
X217679606Y-57230786D01*
X217679606Y-57097453D01*
X217646273Y-57030786D01*
X217612940Y-56997453D01*
X217546273Y-56964120D01*
X196571680Y-78978586D02*
X196605013Y-79011920D01*
X196638346Y-79111920D01*
X196638346Y-79178586D01*
X196605013Y-79278586D01*
X196538346Y-79345253D01*
X196471680Y-79378586D01*
X196338346Y-79411920D01*
X196238346Y-79411920D01*
X196105013Y-79378586D01*
X196038346Y-79345253D01*
X195971680Y-79278586D01*
X195938346Y-79178586D01*
X195938346Y-79111920D01*
X195971680Y-79011920D01*
X196005013Y-78978586D01*
X195938346Y-78345253D02*
X195938346Y-78678586D01*
X196271680Y-78711920D01*
X196238346Y-78678586D01*
X196205013Y-78611920D01*
X196205013Y-78445253D01*
X196238346Y-78378586D01*
X196271680Y-78345253D01*
X196338346Y-78311920D01*
X196505013Y-78311920D01*
X196571680Y-78345253D01*
X196605013Y-78378586D01*
X196638346Y-78445253D01*
X196638346Y-78611920D01*
X196605013Y-78678586D01*
X196571680Y-78711920D01*
X183293600Y-47621000D02*
X183260266Y-47654333D01*
X183160266Y-47687666D01*
X183093600Y-47687666D01*
X182993600Y-47654333D01*
X182926933Y-47587666D01*
X182893600Y-47521000D01*
X182860266Y-47387666D01*
X182860266Y-47287666D01*
X182893600Y-47154333D01*
X182926933Y-47087666D01*
X182993600Y-47021000D01*
X183093600Y-46987666D01*
X183160266Y-46987666D01*
X183260266Y-47021000D01*
X183293600Y-47054333D01*
X183526933Y-46987666D02*
X183960266Y-46987666D01*
X183726933Y-47254333D01*
X183826933Y-47254333D01*
X183893600Y-47287666D01*
X183926933Y-47321000D01*
X183960266Y-47387666D01*
X183960266Y-47554333D01*
X183926933Y-47621000D01*
X183893600Y-47654333D01*
X183826933Y-47687666D01*
X183626933Y-47687666D01*
X183560266Y-47654333D01*
X183526933Y-47621000D01*
X184393600Y-46987666D02*
X184460266Y-46987666D01*
X184526933Y-47021000D01*
X184560266Y-47054333D01*
X184593600Y-47121000D01*
X184626933Y-47254333D01*
X184626933Y-47421000D01*
X184593600Y-47554333D01*
X184560266Y-47621000D01*
X184526933Y-47654333D01*
X184460266Y-47687666D01*
X184393600Y-47687666D01*
X184326933Y-47654333D01*
X184293600Y-47621000D01*
X184260266Y-47554333D01*
X184226933Y-47421000D01*
X184226933Y-47254333D01*
X184260266Y-47121000D01*
X184293600Y-47054333D01*
X184326933Y-47021000D01*
X184393600Y-46987666D01*
X211767000Y-31212600D02*
X211733666Y-31245933D01*
X211633666Y-31279266D01*
X211567000Y-31279266D01*
X211467000Y-31245933D01*
X211400333Y-31179266D01*
X211367000Y-31112600D01*
X211333666Y-30979266D01*
X211333666Y-30879266D01*
X211367000Y-30745933D01*
X211400333Y-30679266D01*
X211467000Y-30612600D01*
X211567000Y-30579266D01*
X211633666Y-30579266D01*
X211733666Y-30612600D01*
X211767000Y-30645933D01*
X212400333Y-30579266D02*
X212067000Y-30579266D01*
X212033666Y-30912600D01*
X212067000Y-30879266D01*
X212133666Y-30845933D01*
X212300333Y-30845933D01*
X212367000Y-30879266D01*
X212400333Y-30912600D01*
X212433666Y-30979266D01*
X212433666Y-31145933D01*
X212400333Y-31212600D01*
X212367000Y-31245933D01*
X212300333Y-31279266D01*
X212133666Y-31279266D01*
X212067000Y-31245933D01*
X212033666Y-31212600D01*
X213067000Y-30579266D02*
X212733666Y-30579266D01*
X212700333Y-30912600D01*
X212733666Y-30879266D01*
X212800333Y-30845933D01*
X212967000Y-30845933D01*
X213033666Y-30879266D01*
X213067000Y-30912600D01*
X213100333Y-30979266D01*
X213100333Y-31145933D01*
X213067000Y-31212600D01*
X213033666Y-31245933D01*
X212967000Y-31279266D01*
X212800333Y-31279266D01*
X212733666Y-31245933D01*
X212700333Y-31212600D01*
X206014666Y-36221200D02*
X205781333Y-36221200D01*
X205781333Y-36587866D02*
X205781333Y-35887866D01*
X206114666Y-35887866D01*
X206748000Y-36587866D02*
X206348000Y-36587866D01*
X206548000Y-36587866D02*
X206548000Y-35887866D01*
X206481333Y-35987866D01*
X206414666Y-36054533D01*
X206348000Y-36087866D01*
X215252100Y-66800233D02*
X215252100Y-67033566D01*
X215618766Y-67033566D02*
X214918766Y-67033566D01*
X214918766Y-66700233D01*
X215252100Y-66200233D02*
X215285433Y-66100233D01*
X215318766Y-66066900D01*
X215385433Y-66033566D01*
X215485433Y-66033566D01*
X215552100Y-66066900D01*
X215585433Y-66100233D01*
X215618766Y-66166900D01*
X215618766Y-66433566D01*
X214918766Y-66433566D01*
X214918766Y-66200233D01*
X214952100Y-66133566D01*
X214985433Y-66100233D01*
X215052100Y-66066900D01*
X215118766Y-66066900D01*
X215185433Y-66100233D01*
X215218766Y-66133566D01*
X215252100Y-66200233D01*
X215252100Y-66433566D01*
X215618766Y-65366900D02*
X215618766Y-65766900D01*
X215618766Y-65566900D02*
X214918766Y-65566900D01*
X215018766Y-65633566D01*
X215085433Y-65700233D01*
X215118766Y-65766900D01*
D14*
D12*
X176054600Y-67855266D02*
X175821266Y-67521933D01*
X175654600Y-67855266D02*
X175654600Y-67155266D01*
X175921266Y-67155266D01*
X175987933Y-67188600D01*
X176021266Y-67221933D01*
X176054600Y-67288600D01*
X176054600Y-67388600D01*
X176021266Y-67455266D01*
X175987933Y-67488600D01*
X175921266Y-67521933D01*
X175654600Y-67521933D01*
X176721266Y-67855266D02*
X176321266Y-67855266D01*
X176521266Y-67855266D02*
X176521266Y-67155266D01*
X176454600Y-67255266D01*
X176387933Y-67321933D01*
X176321266Y-67355266D01*
X177321266Y-67388600D02*
X177321266Y-67855266D01*
X177154600Y-67121933D02*
X176987933Y-67621933D01*
X177421266Y-67621933D01*
X91497266Y-23838533D02*
X91597266Y-23871866D01*
X91763933Y-23871866D01*
X91830600Y-23838533D01*
X91863933Y-23805200D01*
X91897266Y-23738533D01*
X91897266Y-23671866D01*
X91863933Y-23605200D01*
X91830600Y-23571866D01*
X91763933Y-23538533D01*
X91630600Y-23505200D01*
X91563933Y-23471866D01*
X91530600Y-23438533D01*
X91497266Y-23371866D01*
X91497266Y-23305200D01*
X91530600Y-23238533D01*
X91563933Y-23205200D01*
X91630600Y-23171866D01*
X91797266Y-23171866D01*
X91897266Y-23205200D01*
X92130600Y-23171866D02*
X92297266Y-23871866D01*
X92430600Y-23371866D01*
X92563933Y-23871866D01*
X92730600Y-23171866D01*
X93363933Y-23871866D02*
X92963933Y-23871866D01*
X93163933Y-23871866D02*
X93163933Y-23171866D01*
X93097266Y-23271866D01*
X93030600Y-23338533D01*
X92963933Y-23371866D01*
X200239853Y-21599326D02*
X200239853Y-20899326D01*
X200506520Y-20899326D01*
X200573186Y-20932660D01*
X200606520Y-20965993D01*
X200639853Y-21032660D01*
X200639853Y-21132660D01*
X200606520Y-21199326D01*
X200573186Y-21232660D01*
X200506520Y-21265993D01*
X200239853Y-21265993D01*
X201273186Y-20899326D02*
X200939853Y-20899326D01*
X200906520Y-21232660D01*
X200939853Y-21199326D01*
X201006520Y-21165993D01*
X201173186Y-21165993D01*
X201239853Y-21199326D01*
X201273186Y-21232660D01*
X201306520Y-21299326D01*
X201306520Y-21465993D01*
X201273186Y-21532660D01*
X201239853Y-21565993D01*
X201173186Y-21599326D01*
X201006520Y-21599326D01*
X200939853Y-21565993D01*
X200906520Y-21532660D01*
X99051786Y-57614486D02*
X98351786Y-57614486D01*
X98351786Y-57347820D01*
X98385120Y-57281153D01*
X98418453Y-57247820D01*
X98485120Y-57214486D01*
X98585120Y-57214486D01*
X98651786Y-57247820D01*
X98685120Y-57281153D01*
X98718453Y-57347820D01*
X98718453Y-57614486D01*
X98651786Y-56814486D02*
X98618453Y-56881153D01*
X98585120Y-56914486D01*
X98518453Y-56947820D01*
X98485120Y-56947820D01*
X98418453Y-56914486D01*
X98385120Y-56881153D01*
X98351786Y-56814486D01*
X98351786Y-56681153D01*
X98385120Y-56614486D01*
X98418453Y-56581153D01*
X98485120Y-56547820D01*
X98518453Y-56547820D01*
X98585120Y-56581153D01*
X98618453Y-56614486D01*
X98651786Y-56681153D01*
X98651786Y-56814486D01*
X98685120Y-56881153D01*
X98718453Y-56914486D01*
X98785120Y-56947820D01*
X98918453Y-56947820D01*
X98985120Y-56914486D01*
X99018453Y-56881153D01*
X99051786Y-56814486D01*
X99051786Y-56681153D01*
X99018453Y-56614486D01*
X98985120Y-56581153D01*
X98918453Y-56547820D01*
X98785120Y-56547820D01*
X98718453Y-56581153D01*
X98685120Y-56614486D01*
X98651786Y-56681153D01*
X204085000Y-79212266D02*
X204118333Y-79245600D01*
X204151666Y-79345600D01*
X204151666Y-79412266D01*
X204118333Y-79512266D01*
X204051666Y-79578933D01*
X203985000Y-79612266D01*
X203851666Y-79645600D01*
X203751666Y-79645600D01*
X203618333Y-79612266D01*
X203551666Y-79578933D01*
X203485000Y-79512266D01*
X203451666Y-79412266D01*
X203451666Y-79345600D01*
X203485000Y-79245600D01*
X203518333Y-79212266D01*
X203451666Y-78978933D02*
X203451666Y-78545600D01*
X203718333Y-78778933D01*
X203718333Y-78678933D01*
X203751666Y-78612266D01*
X203785000Y-78578933D01*
X203851666Y-78545600D01*
X204018333Y-78545600D01*
X204085000Y-78578933D01*
X204118333Y-78612266D01*
X204151666Y-78678933D01*
X204151666Y-78878933D01*
X204118333Y-78945600D01*
X204085000Y-78978933D01*
X195804600Y-80914066D02*
X195837933Y-80947400D01*
X195871266Y-81047400D01*
X195871266Y-81114066D01*
X195837933Y-81214066D01*
X195771266Y-81280733D01*
X195704600Y-81314066D01*
X195571266Y-81347400D01*
X195471266Y-81347400D01*
X195337933Y-81314066D01*
X195271266Y-81280733D01*
X195204600Y-81214066D01*
X195171266Y-81114066D01*
X195171266Y-81047400D01*
X195204600Y-80947400D01*
X195237933Y-80914066D01*
X195171266Y-80680733D02*
X195171266Y-80214066D01*
X195871266Y-80514066D01*
X86727466Y-51148400D02*
X86394133Y-51381733D01*
X86727466Y-51548400D02*
X86027466Y-51548400D01*
X86027466Y-51281733D01*
X86060800Y-51215066D01*
X86094133Y-51181733D01*
X86160800Y-51148400D01*
X86260800Y-51148400D01*
X86327466Y-51181733D01*
X86360800Y-51215066D01*
X86394133Y-51281733D01*
X86394133Y-51548400D01*
X86027466Y-50915066D02*
X86027466Y-50448400D01*
X86727466Y-50748400D01*
X86094133Y-50215066D02*
X86060800Y-50181733D01*
X86027466Y-50115066D01*
X86027466Y-49948400D01*
X86060800Y-49881733D01*
X86094133Y-49848400D01*
X86160800Y-49815066D01*
X86227466Y-49815066D01*
X86327466Y-49848400D01*
X86727466Y-50248400D01*
X86727466Y-49815066D01*
X81622066Y-51148400D02*
X81288733Y-51381733D01*
X81622066Y-51548400D02*
X80922066Y-51548400D01*
X80922066Y-51281733D01*
X80955400Y-51215066D01*
X80988733Y-51181733D01*
X81055400Y-51148400D01*
X81155400Y-51148400D01*
X81222066Y-51181733D01*
X81255400Y-51215066D01*
X81288733Y-51281733D01*
X81288733Y-51548400D01*
X80922066Y-50915066D02*
X80922066Y-50448400D01*
X81622066Y-50748400D01*
X80922066Y-50248400D02*
X80922066Y-49815066D01*
X81188733Y-50048400D01*
X81188733Y-49948400D01*
X81222066Y-49881733D01*
X81255400Y-49848400D01*
X81322066Y-49815066D01*
X81488733Y-49815066D01*
X81555400Y-49848400D01*
X81588733Y-49881733D01*
X81622066Y-49948400D01*
X81622066Y-50148400D01*
X81588733Y-50215066D01*
X81555400Y-50248400D01*
X203657266Y-76019866D02*
X203657266Y-76586533D01*
X203690600Y-76653200D01*
X203723933Y-76686533D01*
X203790600Y-76719866D01*
X203923933Y-76719866D01*
X203990600Y-76686533D01*
X204023933Y-76653200D01*
X204057266Y-76586533D01*
X204057266Y-76019866D01*
X204757266Y-76719866D02*
X204357266Y-76719866D01*
X204557266Y-76719866D02*
X204557266Y-76019866D01*
X204490600Y-76119866D01*
X204423933Y-76186533D01*
X204357266Y-76219866D01*
X197075333Y-56274066D02*
X197075333Y-55574066D01*
X197342000Y-55574066D01*
X197408666Y-55607400D01*
X197442000Y-55640733D01*
X197475333Y-55707400D01*
X197475333Y-55807400D01*
X197442000Y-55874066D01*
X197408666Y-55907400D01*
X197342000Y-55940733D01*
X197075333Y-55940733D01*
X198075333Y-55574066D02*
X197942000Y-55574066D01*
X197875333Y-55607400D01*
X197842000Y-55640733D01*
X197775333Y-55740733D01*
X197742000Y-55874066D01*
X197742000Y-56140733D01*
X197775333Y-56207400D01*
X197808666Y-56240733D01*
X197875333Y-56274066D01*
X198008666Y-56274066D01*
X198075333Y-56240733D01*
X198108666Y-56207400D01*
X198142000Y-56140733D01*
X198142000Y-55974066D01*
X198108666Y-55907400D01*
X198075333Y-55874066D01*
X198008666Y-55840733D01*
X197875333Y-55840733D01*
X197808666Y-55874066D01*
X197775333Y-55907400D01*
X197742000Y-55974066D01*
X177629400Y-47646400D02*
X177596066Y-47679733D01*
X177496066Y-47713066D01*
X177429400Y-47713066D01*
X177329400Y-47679733D01*
X177262733Y-47613066D01*
X177229400Y-47546400D01*
X177196066Y-47413066D01*
X177196066Y-47313066D01*
X177229400Y-47179733D01*
X177262733Y-47113066D01*
X177329400Y-47046400D01*
X177429400Y-47013066D01*
X177496066Y-47013066D01*
X177596066Y-47046400D01*
X177629400Y-47079733D01*
X178262733Y-47013066D02*
X177929400Y-47013066D01*
X177896066Y-47346400D01*
X177929400Y-47313066D01*
X177996066Y-47279733D01*
X178162733Y-47279733D01*
X178229400Y-47313066D01*
X178262733Y-47346400D01*
X178296066Y-47413066D01*
X178296066Y-47579733D01*
X178262733Y-47646400D01*
X178229400Y-47679733D01*
X178162733Y-47713066D01*
X177996066Y-47713066D01*
X177929400Y-47679733D01*
X177896066Y-47646400D01*
X178696066Y-47313066D02*
X178629400Y-47279733D01*
X178596066Y-47246400D01*
X178562733Y-47179733D01*
X178562733Y-47146400D01*
X178596066Y-47079733D01*
X178629400Y-47046400D01*
X178696066Y-47013066D01*
X178829400Y-47013066D01*
X178896066Y-47046400D01*
X178929400Y-47079733D01*
X178962733Y-47146400D01*
X178962733Y-47179733D01*
X178929400Y-47246400D01*
X178896066Y-47279733D01*
X178829400Y-47313066D01*
X178696066Y-47313066D01*
X178629400Y-47346400D01*
X178596066Y-47379733D01*
X178562733Y-47446400D01*
X178562733Y-47579733D01*
X178596066Y-47646400D01*
X178629400Y-47679733D01*
X178696066Y-47713066D01*
X178829400Y-47713066D01*
X178896066Y-47679733D01*
X178929400Y-47646400D01*
X178962733Y-47579733D01*
X178962733Y-47446400D01*
X178929400Y-47379733D01*
X178896066Y-47346400D01*
X178829400Y-47313066D01*
D10*
X208519020Y-44446415D02*
X207519020Y-44446415D01*
X207519020Y-44208320D01*
X207566640Y-44065462D01*
X207661878Y-43970224D01*
X207757116Y-43922605D01*
X207947592Y-43874986D01*
X208090449Y-43874986D01*
X208280925Y-43922605D01*
X208376163Y-43970224D01*
X208471401Y-44065462D01*
X208519020Y-44208320D01*
X208519020Y-44446415D01*
X208519020Y-42922605D02*
X208519020Y-43494034D01*
X208519020Y-43208320D02*
X207519020Y-43208320D01*
X207661878Y-43303558D01*
X207757116Y-43398796D01*
X207804735Y-43494034D01*
X203210420Y-44411315D02*
X202210420Y-44411315D01*
X202210420Y-44173220D01*
X202258040Y-44030362D01*
X202353278Y-43935124D01*
X202448516Y-43887505D01*
X202638992Y-43839886D01*
X202781849Y-43839886D01*
X202972325Y-43887505D01*
X203067563Y-43935124D01*
X203162801Y-44030362D01*
X203210420Y-44173220D01*
X203210420Y-44411315D01*
X202305659Y-43458934D02*
X202258040Y-43411315D01*
X202210420Y-43316077D01*
X202210420Y-43077981D01*
X202258040Y-42982743D01*
X202305659Y-42935124D01*
X202400897Y-42887505D01*
X202496135Y-42887505D01*
X202638992Y-42935124D01*
X203210420Y-43506553D01*
X203210420Y-42887505D01*
X161383373Y-33377662D02*
X161335754Y-33425281D01*
X161192897Y-33472900D01*
X161097659Y-33472900D01*
X160954801Y-33425281D01*
X160859563Y-33330043D01*
X160811944Y-33234805D01*
X160764325Y-33044329D01*
X160764325Y-32901472D01*
X160811944Y-32710996D01*
X160859563Y-32615758D01*
X160954801Y-32520520D01*
X161097659Y-32472900D01*
X161192897Y-32472900D01*
X161335754Y-32520520D01*
X161383373Y-32568139D01*
X161954801Y-32901472D02*
X161859563Y-32853853D01*
X161811944Y-32806234D01*
X161764325Y-32710996D01*
X161764325Y-32663377D01*
X161811944Y-32568139D01*
X161859563Y-32520520D01*
X161954801Y-32472900D01*
X162145278Y-32472900D01*
X162240516Y-32520520D01*
X162288135Y-32568139D01*
X162335754Y-32663377D01*
X162335754Y-32710996D01*
X162288135Y-32806234D01*
X162240516Y-32853853D01*
X162145278Y-32901472D01*
X161954801Y-32901472D01*
X161859563Y-32949091D01*
X161811944Y-32996710D01*
X161764325Y-33091948D01*
X161764325Y-33282424D01*
X161811944Y-33377662D01*
X161859563Y-33425281D01*
X161954801Y-33472900D01*
X162145278Y-33472900D01*
X162240516Y-33425281D01*
X162288135Y-33377662D01*
X162335754Y-33282424D01*
X162335754Y-33091948D01*
X162288135Y-32996710D01*
X162240516Y-32949091D01*
X162145278Y-32901472D01*
X157918373Y-38027662D02*
X157870754Y-38075281D01*
X157727897Y-38122900D01*
X157632659Y-38122900D01*
X157489801Y-38075281D01*
X157394563Y-37980043D01*
X157346944Y-37884805D01*
X157299325Y-37694329D01*
X157299325Y-37551472D01*
X157346944Y-37360996D01*
X157394563Y-37265758D01*
X157489801Y-37170520D01*
X157632659Y-37122900D01*
X157727897Y-37122900D01*
X157870754Y-37170520D01*
X157918373Y-37218139D01*
X158394563Y-38122900D02*
X158585040Y-38122900D01*
X158680278Y-38075281D01*
X158727897Y-38027662D01*
X158823135Y-37884805D01*
X158870754Y-37694329D01*
X158870754Y-37313377D01*
X158823135Y-37218139D01*
X158775516Y-37170520D01*
X158680278Y-37122900D01*
X158489801Y-37122900D01*
X158394563Y-37170520D01*
X158346944Y-37218139D01*
X158299325Y-37313377D01*
X158299325Y-37551472D01*
X158346944Y-37646710D01*
X158394563Y-37694329D01*
X158489801Y-37741948D01*
X158680278Y-37741948D01*
X158775516Y-37694329D01*
X158823135Y-37646710D01*
X158870754Y-37551472D01*
X160957182Y-36007662D02*
X160909563Y-36055281D01*
X160766706Y-36102900D01*
X160671468Y-36102900D01*
X160528611Y-36055281D01*
X160433373Y-35960043D01*
X160385754Y-35864805D01*
X160338135Y-35674329D01*
X160338135Y-35531472D01*
X160385754Y-35340996D01*
X160433373Y-35245758D01*
X160528611Y-35150520D01*
X160671468Y-35102900D01*
X160766706Y-35102900D01*
X160909563Y-35150520D01*
X160957182Y-35198139D01*
X161909563Y-36102900D02*
X161338135Y-36102900D01*
X161623849Y-36102900D02*
X161623849Y-35102900D01*
X161528611Y-35245758D01*
X161433373Y-35340996D01*
X161338135Y-35388615D01*
X162528611Y-35102900D02*
X162623849Y-35102900D01*
X162719087Y-35150520D01*
X162766706Y-35198139D01*
X162814325Y-35293377D01*
X162861944Y-35483853D01*
X162861944Y-35721948D01*
X162814325Y-35912424D01*
X162766706Y-36007662D01*
X162719087Y-36055281D01*
X162623849Y-36102900D01*
X162528611Y-36102900D01*
X162433373Y-36055281D01*
X162385754Y-36007662D01*
X162338135Y-35912424D01*
X162290516Y-35721948D01*
X162290516Y-35483853D01*
X162338135Y-35293377D01*
X162385754Y-35198139D01*
X162433373Y-35150520D01*
X162528611Y-35102900D01*
X90429444Y-77822900D02*
X90429444Y-76822900D01*
X90667540Y-76822900D01*
X90810397Y-76870520D01*
X90905635Y-76965758D01*
X90953254Y-77060996D01*
X91000873Y-77251472D01*
X91000873Y-77394329D01*
X90953254Y-77584805D01*
X90905635Y-77680043D01*
X90810397Y-77775281D01*
X90667540Y-77822900D01*
X90429444Y-77822900D01*
X91858016Y-77156234D02*
X91858016Y-77822900D01*
X91619920Y-76775281D02*
X91381825Y-77489567D01*
X92000873Y-77489567D01*
X89379444Y-90482900D02*
X89379444Y-89482900D01*
X89617540Y-89482900D01*
X89760397Y-89530520D01*
X89855635Y-89625758D01*
X89903254Y-89720996D01*
X89950873Y-89911472D01*
X89950873Y-90054329D01*
X89903254Y-90244805D01*
X89855635Y-90340043D01*
X89760397Y-90435281D01*
X89617540Y-90482900D01*
X89379444Y-90482900D01*
X90855635Y-89482900D02*
X90379444Y-89482900D01*
X90331825Y-89959091D01*
X90379444Y-89911472D01*
X90474682Y-89863853D01*
X90712778Y-89863853D01*
X90808016Y-89911472D01*
X90855635Y-89959091D01*
X90903254Y-90054329D01*
X90903254Y-90292424D01*
X90855635Y-90387662D01*
X90808016Y-90435281D01*
X90712778Y-90482900D01*
X90474682Y-90482900D01*
X90379444Y-90435281D01*
X90331825Y-90387662D01*
X205689444Y-92822900D02*
X205689444Y-91822900D01*
X205927540Y-91822900D01*
X206070397Y-91870520D01*
X206165635Y-91965758D01*
X206213254Y-92060996D01*
X206260873Y-92251472D01*
X206260873Y-92394329D01*
X206213254Y-92584805D01*
X206165635Y-92680043D01*
X206070397Y-92775281D01*
X205927540Y-92822900D01*
X205689444Y-92822900D01*
X207118016Y-91822900D02*
X206927540Y-91822900D01*
X206832301Y-91870520D01*
X206784682Y-91918139D01*
X206689444Y-92060996D01*
X206641825Y-92251472D01*
X206641825Y-92632424D01*
X206689444Y-92727662D01*
X206737063Y-92775281D01*
X206832301Y-92822900D01*
X207022778Y-92822900D01*
X207118016Y-92775281D01*
X207165635Y-92727662D01*
X207213254Y-92632424D01*
X207213254Y-92394329D01*
X207165635Y-92299091D01*
X207118016Y-92251472D01*
X207022778Y-92203853D01*
X206832301Y-92203853D01*
X206737063Y-92251472D01*
X206689444Y-92299091D01*
X206641825Y-92394329D01*
X151629920Y-22888615D02*
X150629920Y-22888615D01*
X150629920Y-22507662D01*
X150677540Y-22412424D01*
X150725159Y-22364805D01*
X150820397Y-22317186D01*
X150963254Y-22317186D01*
X151058492Y-22364805D01*
X151106111Y-22412424D01*
X151153730Y-22507662D01*
X151153730Y-22888615D01*
X151629920Y-21364805D02*
X151629920Y-21936234D01*
X151629920Y-21650520D02*
X150629920Y-21650520D01*
X150772778Y-21745758D01*
X150868016Y-21840996D01*
X150915635Y-21936234D01*
X95700873Y-77462900D02*
X95367540Y-76986710D01*
X95129444Y-77462900D02*
X95129444Y-76462900D01*
X95510397Y-76462900D01*
X95605635Y-76510520D01*
X95653254Y-76558139D01*
X95700873Y-76653377D01*
X95700873Y-76796234D01*
X95653254Y-76891472D01*
X95605635Y-76939091D01*
X95510397Y-76986710D01*
X95129444Y-76986710D01*
X96034206Y-76462900D02*
X96653254Y-76462900D01*
X96319920Y-76843853D01*
X96462778Y-76843853D01*
X96558016Y-76891472D01*
X96605635Y-76939091D01*
X96653254Y-77034329D01*
X96653254Y-77272424D01*
X96605635Y-77367662D01*
X96558016Y-77415281D01*
X96462778Y-77462900D01*
X96177063Y-77462900D01*
X96081825Y-77415281D01*
X96034206Y-77367662D01*
X98510873Y-80382900D02*
X98177540Y-79906710D01*
X97939444Y-80382900D02*
X97939444Y-79382900D01*
X98320397Y-79382900D01*
X98415635Y-79430520D01*
X98463254Y-79478139D01*
X98510873Y-79573377D01*
X98510873Y-79716234D01*
X98463254Y-79811472D01*
X98415635Y-79859091D01*
X98320397Y-79906710D01*
X97939444Y-79906710D01*
X99368016Y-79716234D02*
X99368016Y-80382900D01*
X99129920Y-79335281D02*
X98891825Y-80049567D01*
X99510873Y-80049567D01*
X95780873Y-83202900D02*
X95447540Y-82726710D01*
X95209444Y-83202900D02*
X95209444Y-82202900D01*
X95590397Y-82202900D01*
X95685635Y-82250520D01*
X95733254Y-82298139D01*
X95780873Y-82393377D01*
X95780873Y-82536234D01*
X95733254Y-82631472D01*
X95685635Y-82679091D01*
X95590397Y-82726710D01*
X95209444Y-82726710D01*
X96685635Y-82202900D02*
X96209444Y-82202900D01*
X96161825Y-82679091D01*
X96209444Y-82631472D01*
X96304682Y-82583853D01*
X96542778Y-82583853D01*
X96638016Y-82631472D01*
X96685635Y-82679091D01*
X96733254Y-82774329D01*
X96733254Y-83012424D01*
X96685635Y-83107662D01*
X96638016Y-83155281D01*
X96542778Y-83202900D01*
X96304682Y-83202900D01*
X96209444Y-83155281D01*
X96161825Y-83107662D01*
X94410873Y-90072900D02*
X94077540Y-89596710D01*
X93839444Y-90072900D02*
X93839444Y-89072900D01*
X94220397Y-89072900D01*
X94315635Y-89120520D01*
X94363254Y-89168139D01*
X94410873Y-89263377D01*
X94410873Y-89406234D01*
X94363254Y-89501472D01*
X94315635Y-89549091D01*
X94220397Y-89596710D01*
X93839444Y-89596710D01*
X95268016Y-89072900D02*
X95077540Y-89072900D01*
X94982301Y-89120520D01*
X94934682Y-89168139D01*
X94839444Y-89310996D01*
X94791825Y-89501472D01*
X94791825Y-89882424D01*
X94839444Y-89977662D01*
X94887063Y-90025281D01*
X94982301Y-90072900D01*
X95172778Y-90072900D01*
X95268016Y-90025281D01*
X95315635Y-89977662D01*
X95363254Y-89882424D01*
X95363254Y-89644329D01*
X95315635Y-89549091D01*
X95268016Y-89501472D01*
X95172778Y-89453853D01*
X94982301Y-89453853D01*
X94887063Y-89501472D01*
X94839444Y-89549091D01*
X94791825Y-89644329D01*
X96920873Y-93152900D02*
X96587540Y-92676710D01*
X96349444Y-93152900D02*
X96349444Y-92152900D01*
X96730397Y-92152900D01*
X96825635Y-92200520D01*
X96873254Y-92248139D01*
X96920873Y-92343377D01*
X96920873Y-92486234D01*
X96873254Y-92581472D01*
X96825635Y-92629091D01*
X96730397Y-92676710D01*
X96349444Y-92676710D01*
X97254206Y-92152900D02*
X97920873Y-92152900D01*
X97492301Y-93152900D01*
X94510873Y-96002900D02*
X94177540Y-95526710D01*
X93939444Y-96002900D02*
X93939444Y-95002900D01*
X94320397Y-95002900D01*
X94415635Y-95050520D01*
X94463254Y-95098139D01*
X94510873Y-95193377D01*
X94510873Y-95336234D01*
X94463254Y-95431472D01*
X94415635Y-95479091D01*
X94320397Y-95526710D01*
X93939444Y-95526710D01*
X95082301Y-95431472D02*
X94987063Y-95383853D01*
X94939444Y-95336234D01*
X94891825Y-95240996D01*
X94891825Y-95193377D01*
X94939444Y-95098139D01*
X94987063Y-95050520D01*
X95082301Y-95002900D01*
X95272778Y-95002900D01*
X95368016Y-95050520D01*
X95415635Y-95098139D01*
X95463254Y-95193377D01*
X95463254Y-95240996D01*
X95415635Y-95336234D01*
X95368016Y-95383853D01*
X95272778Y-95431472D01*
X95082301Y-95431472D01*
X94987063Y-95479091D01*
X94939444Y-95526710D01*
X94891825Y-95621948D01*
X94891825Y-95812424D01*
X94939444Y-95907662D01*
X94987063Y-95955281D01*
X95082301Y-96002900D01*
X95272778Y-96002900D01*
X95368016Y-95955281D01*
X95415635Y-95907662D01*
X95463254Y-95812424D01*
X95463254Y-95621948D01*
X95415635Y-95526710D01*
X95368016Y-95479091D01*
X95272778Y-95431472D01*
X201170873Y-93672900D02*
X200837540Y-93196710D01*
X200599444Y-93672900D02*
X200599444Y-92672900D01*
X200980397Y-92672900D01*
X201075635Y-92720520D01*
X201123254Y-92768139D01*
X201170873Y-92863377D01*
X201170873Y-93006234D01*
X201123254Y-93101472D01*
X201075635Y-93149091D01*
X200980397Y-93196710D01*
X200599444Y-93196710D01*
X201647063Y-93672900D02*
X201837540Y-93672900D01*
X201932778Y-93625281D01*
X201980397Y-93577662D01*
X202075635Y-93434805D01*
X202123254Y-93244329D01*
X202123254Y-92863377D01*
X202075635Y-92768139D01*
X202028016Y-92720520D01*
X201932778Y-92672900D01*
X201742301Y-92672900D01*
X201647063Y-92720520D01*
X201599444Y-92768139D01*
X201551825Y-92863377D01*
X201551825Y-93101472D01*
X201599444Y-93196710D01*
X201647063Y-93244329D01*
X201742301Y-93291948D01*
X201932778Y-93291948D01*
X202028016Y-93244329D01*
X202075635Y-93196710D01*
X202123254Y-93101472D01*
X196874682Y-90512900D02*
X196541349Y-90036710D01*
X196303254Y-90512900D02*
X196303254Y-89512900D01*
X196684206Y-89512900D01*
X196779444Y-89560520D01*
X196827063Y-89608139D01*
X196874682Y-89703377D01*
X196874682Y-89846234D01*
X196827063Y-89941472D01*
X196779444Y-89989091D01*
X196684206Y-90036710D01*
X196303254Y-90036710D01*
X197827063Y-90512900D02*
X197255635Y-90512900D01*
X197541349Y-90512900D02*
X197541349Y-89512900D01*
X197446111Y-89655758D01*
X197350873Y-89750996D01*
X197255635Y-89798615D01*
X198446111Y-89512900D02*
X198541349Y-89512900D01*
X198636587Y-89560520D01*
X198684206Y-89608139D01*
X198731825Y-89703377D01*
X198779444Y-89893853D01*
X198779444Y-90131948D01*
X198731825Y-90322424D01*
X198684206Y-90417662D01*
X198636587Y-90465281D01*
X198541349Y-90512900D01*
X198446111Y-90512900D01*
X198350873Y-90465281D01*
X198303254Y-90417662D01*
X198255635Y-90322424D01*
X198208016Y-90131948D01*
X198208016Y-89893853D01*
X198255635Y-89703377D01*
X198303254Y-89608139D01*
X198350873Y-89560520D01*
X198446111Y-89512900D01*
X200504682Y-87422900D02*
X200171349Y-86946710D01*
X199933254Y-87422900D02*
X199933254Y-86422900D01*
X200314206Y-86422900D01*
X200409444Y-86470520D01*
X200457063Y-86518139D01*
X200504682Y-86613377D01*
X200504682Y-86756234D01*
X200457063Y-86851472D01*
X200409444Y-86899091D01*
X200314206Y-86946710D01*
X199933254Y-86946710D01*
X201457063Y-87422900D02*
X200885635Y-87422900D01*
X201171349Y-87422900D02*
X201171349Y-86422900D01*
X201076111Y-86565758D01*
X200980873Y-86660996D01*
X200885635Y-86708615D01*
X202409444Y-87422900D02*
X201838016Y-87422900D01*
X202123730Y-87422900D02*
X202123730Y-86422900D01*
X202028492Y-86565758D01*
X201933254Y-86660996D01*
X201838016Y-86708615D01*
X67949920Y-82665877D02*
X67473730Y-82999210D01*
X67949920Y-83237305D02*
X66949920Y-83237305D01*
X66949920Y-82856353D01*
X66997540Y-82761115D01*
X67045159Y-82713496D01*
X67140397Y-82665877D01*
X67283254Y-82665877D01*
X67378492Y-82713496D01*
X67426111Y-82761115D01*
X67473730Y-82856353D01*
X67473730Y-83237305D01*
X67949920Y-81713496D02*
X67949920Y-82284924D01*
X67949920Y-81999210D02*
X66949920Y-81999210D01*
X67092778Y-82094448D01*
X67188016Y-82189686D01*
X67235635Y-82284924D01*
X67045159Y-81332543D02*
X66997540Y-81284924D01*
X66949920Y-81189686D01*
X66949920Y-80951591D01*
X66997540Y-80856353D01*
X67045159Y-80808734D01*
X67140397Y-80761115D01*
X67235635Y-80761115D01*
X67378492Y-80808734D01*
X67949920Y-81380162D01*
X67949920Y-80761115D01*
X65259920Y-90425877D02*
X64783730Y-90759210D01*
X65259920Y-90997305D02*
X64259920Y-90997305D01*
X64259920Y-90616353D01*
X64307540Y-90521115D01*
X64355159Y-90473496D01*
X64450397Y-90425877D01*
X64593254Y-90425877D01*
X64688492Y-90473496D01*
X64736111Y-90521115D01*
X64783730Y-90616353D01*
X64783730Y-90997305D01*
X65259920Y-89473496D02*
X65259920Y-90044924D01*
X65259920Y-89759210D02*
X64259920Y-89759210D01*
X64402778Y-89854448D01*
X64498016Y-89949686D01*
X64545635Y-90044924D01*
X64259920Y-89140162D02*
X64259920Y-88521115D01*
X64640873Y-88854448D01*
X64640873Y-88711591D01*
X64688492Y-88616353D01*
X64736111Y-88568734D01*
X64831349Y-88521115D01*
X65069444Y-88521115D01*
X65164682Y-88568734D01*
X65212301Y-88616353D01*
X65259920Y-88711591D01*
X65259920Y-88997305D01*
X65212301Y-89092543D01*
X65164682Y-89140162D01*
X73934206Y-77115281D02*
X74077063Y-77162900D01*
X74315159Y-77162900D01*
X74410397Y-77115281D01*
X74458016Y-77067662D01*
X74505635Y-76972424D01*
X74505635Y-76877186D01*
X74458016Y-76781948D01*
X74410397Y-76734329D01*
X74315159Y-76686710D01*
X74124682Y-76639091D01*
X74029444Y-76591472D01*
X73981825Y-76543853D01*
X73934206Y-76448615D01*
X73934206Y-76353377D01*
X73981825Y-76258139D01*
X74029444Y-76210520D01*
X74124682Y-76162900D01*
X74362778Y-76162900D01*
X74505635Y-76210520D01*
X74838968Y-76162900D02*
X75077063Y-77162900D01*
X75267540Y-76448615D01*
X75458016Y-77162900D01*
X75696111Y-76162900D01*
X76029444Y-76258139D02*
X76077063Y-76210520D01*
X76172301Y-76162900D01*
X76410397Y-76162900D01*
X76505635Y-76210520D01*
X76553254Y-76258139D01*
X76600873Y-76353377D01*
X76600873Y-76448615D01*
X76553254Y-76591472D01*
X75981825Y-77162900D01*
X76600873Y-77162900D01*
X74424206Y-89545281D02*
X74567063Y-89592900D01*
X74805159Y-89592900D01*
X74900397Y-89545281D01*
X74948016Y-89497662D01*
X74995635Y-89402424D01*
X74995635Y-89307186D01*
X74948016Y-89211948D01*
X74900397Y-89164329D01*
X74805159Y-89116710D01*
X74614682Y-89069091D01*
X74519444Y-89021472D01*
X74471825Y-88973853D01*
X74424206Y-88878615D01*
X74424206Y-88783377D01*
X74471825Y-88688139D01*
X74519444Y-88640520D01*
X74614682Y-88592900D01*
X74852778Y-88592900D01*
X74995635Y-88640520D01*
X75328968Y-88592900D02*
X75567063Y-89592900D01*
X75757540Y-88878615D01*
X75948016Y-89592900D01*
X76186111Y-88592900D01*
X76471825Y-88592900D02*
X77090873Y-88592900D01*
X76757540Y-88973853D01*
X76900397Y-88973853D01*
X76995635Y-89021472D01*
X77043254Y-89069091D01*
X77090873Y-89164329D01*
X77090873Y-89402424D01*
X77043254Y-89497662D01*
X76995635Y-89545281D01*
X76900397Y-89592900D01*
X76614682Y-89592900D01*
X76519444Y-89545281D01*
X76471825Y-89497662D01*
X167769444Y-37512900D02*
X167769444Y-36512900D01*
X168007540Y-36512900D01*
X168150397Y-36560520D01*
X168245635Y-36655758D01*
X168293254Y-36750996D01*
X168340873Y-36941472D01*
X168340873Y-37084329D01*
X168293254Y-37274805D01*
X168245635Y-37370043D01*
X168150397Y-37465281D01*
X168007540Y-37512900D01*
X167769444Y-37512900D01*
X168674206Y-36512900D02*
X169293254Y-36512900D01*
X168959920Y-36893853D01*
X169102778Y-36893853D01*
X169198016Y-36941472D01*
X169245635Y-36989091D01*
X169293254Y-37084329D01*
X169293254Y-37322424D01*
X169245635Y-37417662D01*
X169198016Y-37465281D01*
X169102778Y-37512900D01*
X168817063Y-37512900D01*
X168721825Y-37465281D01*
X168674206Y-37417662D01*
X147443373Y-29342900D02*
X146967182Y-29342900D01*
X146967182Y-28342900D01*
X148300516Y-29342900D02*
X147729087Y-29342900D01*
X148014801Y-29342900D02*
X148014801Y-28342900D01*
X147919563Y-28485758D01*
X147824325Y-28580996D01*
X147729087Y-28628615D01*
X161293373Y-31762900D02*
X160960040Y-31286710D01*
X160721944Y-31762900D02*
X160721944Y-30762900D01*
X161102897Y-30762900D01*
X161198135Y-30810520D01*
X161245754Y-30858139D01*
X161293373Y-30953377D01*
X161293373Y-31096234D01*
X161245754Y-31191472D01*
X161198135Y-31239091D01*
X161102897Y-31286710D01*
X160721944Y-31286710D01*
X161674325Y-30858139D02*
X161721944Y-30810520D01*
X161817182Y-30762900D01*
X162055278Y-30762900D01*
X162150516Y-30810520D01*
X162198135Y-30858139D01*
X162245754Y-30953377D01*
X162245754Y-31048615D01*
X162198135Y-31191472D01*
X161626706Y-31762900D01*
X162245754Y-31762900D01*
X160889920Y-33689686D02*
X160413730Y-34023020D01*
X160889920Y-34261115D02*
X159889920Y-34261115D01*
X159889920Y-33880162D01*
X159937540Y-33784924D01*
X159985159Y-33737305D01*
X160080397Y-33689686D01*
X160223254Y-33689686D01*
X160318492Y-33737305D01*
X160366111Y-33784924D01*
X160413730Y-33880162D01*
X160413730Y-34261115D01*
X160889920Y-32737305D02*
X160889920Y-33308734D01*
X160889920Y-33023020D02*
X159889920Y-33023020D01*
X160032778Y-33118258D01*
X160128016Y-33213496D01*
X160175635Y-33308734D01*
M02*
