M48
;DRILL file {KiCad 5.0.2-bee76a0~70~ubuntu18.04.1} date Mon 15 Apr 2019 02:10:46 PM CEST
;FORMAT={-:-/ absolute / metric / decimal}
FMAT,2
METRIC,TZ
T1C0.300
T2C0.375
T3C0.450
T4C0.675
T5C0.800
T6C0.813
T7C0.889
T8C0.920
T9C0.990
T10C1.000
T11C1.001
T12C1.016
T13C1.300
T14C1.350
T15C1.500
T16C1.570
T17C2.301
T18C3.300
T19C3.500
%
G90
G05
T1
X65.43Y-111.303
X67.259Y-63.203
X67.259Y-129.718
X67.843Y-64.105
X67.843Y-109.55
X68.58Y-54.508
X69.875Y-50.267
X72.415Y-49.657
X74.955Y-51.435
X76.225Y-52.73
X78.765Y-53.34
X80.035Y-61.112
X82.575Y-64.529
X83.701Y-50.884
X84.358Y-111.951
X85.093Y-65.248
X86.388Y-50.844
X87.671Y-65.806
X87.798Y-135.031
X89.068Y-85.275
X89.129Y-126.346
X90.223Y-66.187
X91.877Y-92.248
X91.902Y-90.521
X92.268Y-48.624
X92.735Y-61.112
X93.443Y-48.477
X93.803Y-126.346
X95.128Y-92.273
X95.522Y-73.076
X95.636Y-90.521
X95.865Y-57.099
X95.951Y-48.699
X96.098Y-106.841
X96.495Y-85.268
X96.724Y-124.009
X96.988Y-134.591
X97.478Y-113.894
X100.051Y-85.268
X102.26Y-88.392
X102.26Y-94.336
X105.705Y-70.226
X106.358Y-71.725
X108.252Y-120.432
X109.248Y-52.73
X109.789Y-120.244
X110.975Y-51.976
X111.051Y-115.146
X111.393Y-53.336
X112.243Y-36.703
X114.722Y-53.34
X122.304Y-59.99
X122.773Y-69.756
X122.926Y-54.508
X123.942Y-60.002
X124.206Y-145.771
X125.199Y-63.597
X125.288Y-59.799
X126.291Y-51.112
X127.155Y-59.85
X127.206Y-55.1
X127.612Y-64.714
X127.892Y-54.135
X128.958Y-102.725
X129.921Y-73.96
X130.345Y-42.418
X130.825Y-51.892
X131.079Y-59.787
X131.232Y-64.308
X131.267Y-115.367
X131.267Y-131.369
X131.552Y-71.448
X132.387Y-47.518
X132.972Y-71.953
X133.67Y-48.084
X133.767Y-36.726
X133.767Y-40.566
X133.767Y-42.418
X134.102Y-65.742
X134.102Y-74.733
X134.14Y-59.888
X135.245Y-102.674
X135.486Y-66.137
X135.993Y-52.161
X136.762Y-73.579
X136.909Y-59.952
X138.102Y-59.825
X138.252Y-145.009
X138.369Y-64.143
X138.394Y-56.053
X139.243Y-130.658
X139.268Y-55.736
X139.563Y-73.014
X139.664Y-65.705
X140.741Y-131.369
X140.769Y-63.787
X141.227Y-59.863
X141.976Y-63.66
X142.179Y-70.188
X142.418Y-145.009
X142.649Y-53.703
X143.018Y-56.336
X143.132Y-59.774
X143.443Y-65.286
X146.152Y-119.456
X146.152Y-123.088
X146.152Y-130.658
X146.611Y-68.482
X146.853Y-59.787
X146.939Y-115.367
X147.16Y-69.743
X147.221Y-64.498
X148.237Y-59.761
X148.377Y-67.673
X148.961Y-63.863
X149.113Y-68.74
X150.183Y-74.814
X151.13Y-115.367
X151.13Y-118.745
X151.882Y-102.814
X151.892Y-66.929
X152.832Y-63.449
X152.832Y-70.231
X153.088Y-59.875
X153.168Y-50.161
X153.772Y-66.929
X154.358Y-59.863
X154.368Y-49.511
X154.368Y-55.861
X154.8Y-128.501
X155.59Y-59.787
X155.679Y-64.828
X156.591Y-41.275
X156.614Y-127.947
X156.943Y-107.361
X156.987Y-98.712
X157.013Y-102.84
X158.343Y-75.161
X158.714Y-49.957
X159.007Y-64.587
X159.309Y-74.814
X159.426Y-59.787
X160.746Y-59.901
X160.768Y-107.436
X160.797Y-102.751
X161.686Y-54.503
X162.154Y-40.589
X162.306Y-136.119
X163.375Y-59.787
X164.059Y-131.369
X164.618Y-107.361
X164.683Y-102.84
X165.075Y-66.929
X165.532Y-118.745
X165.608Y-55.22
X165.636Y-47.455
X165.865Y-67.927
X165.993Y-76.961
X166.343Y-65.086
X166.485Y-63.914
X166.743Y-130.611
X166.903Y-41.275
X166.98Y-66.929
X167.168Y-77.211
X168.082Y-124.894
X168.125Y-63.914
X168.418Y-107.286
X168.468Y-96.411
X169.062Y-66.929
X169.243Y-97.211
X169.37Y-111.755
X169.438Y-126.395
X169.493Y-127.936
X169.687Y-110.028
X169.779Y-41.499
X169.797Y-115.415
X169.824Y-55.22
X169.962Y-136.563
X170.251Y-130.383
X170.31Y-110.815
X170.398Y-112.453
X170.866Y-66.929
X170.945Y-68.384
X171.203Y-110.427
X171.232Y-136.563
X171.709Y-41.499
X171.752Y-128.615
X171.775Y-126.761
X171.864Y-112.425
X172.405Y-60.02
X172.979Y-113.287
X173.231Y-136.609
X173.468Y-108.651
X173.468Y-109.786
X173.573Y-114.511
X173.843Y-115.755
X174.244Y-131.851
X174.78Y-61.679
X176.413Y-66.937
X176.558Y-60.002
X177.19Y-128.778
X177.246Y-64.105
X177.282Y-106.548
X178.006Y-116.289
X178.196Y-68.961
X179.377Y-102.928
X179.504Y-130.961
X179.827Y-67.514
X180.01Y-52.146
X180.315Y-60.02
X180.431Y-66.848
X180.492Y-121.742
X180.518Y-128.778
X180.619Y-55.22
X180.774Y-68.105
X181.043Y-102.464
X181.264Y-67.229
X181.638Y-65.514
X181.813Y-48.006
X182.067Y-37.846
X182.677Y-37.186
X182.693Y-97.861
X182.702Y-26.695
X183.243Y-103.657
X183.393Y-98.511
X183.744Y-53.619
X183.873Y-57.513
X184.178Y-115.616
X184.582Y-36.5
X184.734Y-40.589
X185.118Y-104.267
X185.471Y-64.084
X186.08Y-44.856
X186.08Y-52.146
X186.08Y-64.897
X186.461Y-37.846
X186.487Y-35.789
X187.325Y-55.194
X187.935Y-36.5
X188.214Y-54.585
X188.671Y-37.795
X188.956Y-121.737
X189.103Y-52.146
X189.565Y-116.632
X189.565Y-120.594
X190.881Y-48.641
X191.16Y-37.795
X191.541Y-121.742
X191.734Y-106.523
X191.77Y-55.778
X192.659Y-56.363
X193.167Y-103.657
X193.624Y-47.879
X193.726Y-35.789
X194.081Y-53.619
X194.081Y-72.466
X194.107Y-103.657
X194.31Y-48.641
X194.945Y-104.267
X195.555Y-44.856
X196.113Y-149.911
X196.164Y-37.186
X196.164Y-47.879
X197.18Y-36.5
X198.374Y-103.048
X199.339Y-103.073
X200.177Y-102.464
X201.346Y-149.2
X201.6Y-120.65
X202.641Y-117.551
X206.477Y-58.42
X214.02Y-113.894
X214.02Y-133.579
X215.9Y-103.657
X215.9Y-149.2
X216.484Y-103.073
X216.484Y-149.911
X222.58Y-58.42
T2
X80.038Y-23.719
X86.896Y-29.51
X105.588Y-29.515
X114.833Y-29.515
X139.243Y-38.837
X150.089Y-38.837
X156.494Y-39.314
X158.984Y-39.314
X174.424Y-24.696
X176.454Y-30.912
X192.43Y-29.312
X200.558Y-97.612
T3
X69.327Y-77.272
X69.327Y-150.622
X95.634Y-77.274
X106.074Y-94.331
X106.508Y-88.4
X158.821Y-131.369
X158.821Y-150.622
X188.549Y-86.914
X188.549Y-91.156
X188.549Y-95.524
X191.877Y-91.156
X192.131Y-86.914
X192.131Y-95.529
X195.732Y-95.529
X195.732Y-97.612
X195.737Y-86.914
X217.221Y-150.622
X218.973Y-97.612
T4
X63.043Y-131.496
X66.614Y-153.068
X68.224Y-115.138
X68.24Y-135.331
X68.24Y-151.714
X131.257Y-151.714
X140.741Y-151.714
X145.166Y-153.071
X178.892Y-27.762
X181.229Y-42.647
X188.392Y-27.762
X197.968Y-151.714
X200.381Y-42.647
X202.093Y-86.512
X206.477Y-75.87
X218.313Y-117.577
X218.313Y-151.714
X219.964Y-86.512
X222.936Y-153.086
T5
X206.978Y-52.301
X211.978Y-52.301
X218.808Y-52.141
X223.808Y-52.141
T6
X156.461Y-29.007
X156.461Y-31.006
X159.001Y-29.007
X159.001Y-31.006
T7
X181.Y-30.632
X183.286Y-30.632
X184.302Y-24.028
X185.318Y-25.806
X186.334Y-24.028
X187.35Y-25.806
X188.366Y-24.028
X189.382Y-25.806
X190.398Y-24.028
X191.414Y-25.806
X192.43Y-30.632
X194.716Y-30.632
T8
X171.704Y-31.648
X171.704Y-33.648
X171.704Y-35.648
X171.704Y-37.648
T9
X84.673Y-23.723
X89.173Y-23.723
T10
X196.342Y-59.207
X198.842Y-59.207
T11
X197.485Y-72.415
X200.025Y-72.415
X202.565Y-72.415
T12
X69.881Y-55.828
X69.881Y-58.368
X72.421Y-55.828
X72.421Y-58.368
X74.961Y-55.828
X74.961Y-58.368
X77.501Y-55.828
X77.501Y-58.368
X80.041Y-55.828
X80.041Y-58.368
X82.581Y-55.828
X82.581Y-58.368
X85.121Y-55.828
X85.121Y-58.368
X87.661Y-55.828
X87.661Y-58.368
X90.201Y-55.828
X90.201Y-58.368
X92.741Y-55.828
X92.741Y-58.368
X80.035Y-45.441
X82.575Y-45.441
X85.115Y-45.441
T13
X98.078Y-31.57
X100.578Y-34.07
X103.078Y-21.57
X105.578Y-31.57
X108.078Y-21.57
X110.578Y-34.07
X113.078Y-31.57
X83.423Y-26.213
X90.433Y-26.213
X119.082Y-31.57
X121.582Y-34.07
X124.082Y-21.57
X126.582Y-31.57
X129.082Y-21.57
X131.582Y-34.07
X134.082Y-31.57
T14
X168.984Y-30.918
X168.984Y-37.918
X174.424Y-30.918
X174.424Y-37.918
T15
X65.425Y-79.452
X65.425Y-95.682
X71.775Y-79.452
X71.775Y-95.682
X78.125Y-79.452
X78.125Y-95.682
X65.425Y-127.849
X65.425Y-144.079
X71.775Y-127.849
X71.775Y-144.079
X78.125Y-127.849
X78.125Y-144.079
X214.02Y-107.645
X214.02Y-123.875
X220.37Y-107.645
X220.37Y-123.875
X226.72Y-107.645
X226.72Y-123.875
X214.02Y-127.851
X214.02Y-144.081
X220.37Y-127.851
X220.37Y-144.081
X226.72Y-127.851
X226.72Y-144.081
X65.425Y-107.651
X65.425Y-123.881
X71.775Y-107.651
X71.775Y-123.881
X78.125Y-107.651
X78.125Y-123.881
T16
X179.73Y-24.917
X195.986Y-24.917
T17
X151.732Y-26.307
X163.731Y-26.307
T18
X181.508Y-21.488
X194.208Y-21.488
T19
X63.569Y-156.558
X228.567Y-156.561
X146.068Y-23.058
X216.578Y-23.073
X75.568Y-23.058
X146.068Y-156.561
T10
X201.876Y-25.771G85X201.876Y-27.771
G05
X207.576Y-23.771G85X205.576Y-23.771
G05
X207.826Y-29.774G85X205.326Y-29.774
G05
T0
M30
