G04 #@! TF.GenerationSoftware,KiCad,Pcbnew,5.1.2-f72e74a~84~ubuntu18.04.1*
G04 #@! TF.CreationDate,2019-08-15T14:59:57+02:00*
G04 #@! TF.ProjectId,bottom-board,626f7474-6f6d-42d6-926f-6172642e6b69,rev?*
G04 #@! TF.SameCoordinates,Original*
G04 #@! TF.FileFunction,Soldermask,Bot*
G04 #@! TF.FilePolarity,Negative*
%FSLAX46Y46*%
G04 Gerber Fmt 4.6, Leading zero omitted, Abs format (unit mm)*
G04 Created by KiCad (PCBNEW 5.1.2-f72e74a~84~ubuntu18.04.1) date 2019-08-15 14:59:57*
%MOMM*%
%LPD*%
G04 APERTURE LIST*
%ADD10C,0.100000*%
G04 APERTURE END LIST*
D10*
X232107540Y-19850520D02*
X232097540Y-110490520D01*
X59947540Y-19880520D02*
X232097540Y-19810520D01*
X60077540Y-110410520D02*
X59957540Y-19860520D01*
X232117540Y-110490520D02*
X60077540Y-110420520D01*
G36*
X202721939Y-71127304D02*
G01*
X202872847Y-71173082D01*
X202872850Y-71173083D01*
X202997652Y-71239791D01*
X203011925Y-71247420D01*
X203043679Y-71273480D01*
X203133828Y-71347462D01*
X203207810Y-71437611D01*
X203233870Y-71469365D01*
X203233871Y-71469367D01*
X203308207Y-71608440D01*
X203308208Y-71608443D01*
X203353986Y-71759351D01*
X203365570Y-71876966D01*
X203365570Y-72953834D01*
X203353986Y-73071449D01*
X203308208Y-73222356D01*
X203308207Y-73222360D01*
X203241499Y-73347162D01*
X203233870Y-73361435D01*
X203194779Y-73409067D01*
X203133828Y-73483337D01*
X203065399Y-73539494D01*
X203011924Y-73583380D01*
X203011922Y-73583381D01*
X202872849Y-73657717D01*
X202872846Y-73657718D01*
X202721938Y-73703496D01*
X202565000Y-73718953D01*
X202408061Y-73703496D01*
X202257153Y-73657718D01*
X202257150Y-73657717D01*
X202118077Y-73583381D01*
X202118075Y-73583380D01*
X202070443Y-73544289D01*
X201996173Y-73483338D01*
X201896131Y-73361435D01*
X201896130Y-73361434D01*
X201821794Y-73222360D01*
X201821793Y-73222359D01*
X201821792Y-73222356D01*
X201776014Y-73071448D01*
X201764430Y-72953833D01*
X201764431Y-71876966D01*
X201776015Y-71759351D01*
X201821793Y-71608443D01*
X201821794Y-71608440D01*
X201896130Y-71469367D01*
X201896131Y-71469365D01*
X201922191Y-71437611D01*
X201996173Y-71347462D01*
X202086322Y-71273480D01*
X202118076Y-71247420D01*
X202132349Y-71239791D01*
X202257151Y-71173083D01*
X202257154Y-71173082D01*
X202408062Y-71127304D01*
X202565000Y-71111847D01*
X202721939Y-71127304D01*
X202721939Y-71127304D01*
G37*
G36*
X197641939Y-71127304D02*
G01*
X197792847Y-71173082D01*
X197792850Y-71173083D01*
X197917652Y-71239791D01*
X197931925Y-71247420D01*
X197963679Y-71273480D01*
X198053828Y-71347462D01*
X198127810Y-71437611D01*
X198153870Y-71469365D01*
X198153871Y-71469367D01*
X198228207Y-71608440D01*
X198228208Y-71608443D01*
X198273986Y-71759351D01*
X198285570Y-71876966D01*
X198285570Y-72953834D01*
X198273986Y-73071449D01*
X198228208Y-73222356D01*
X198228207Y-73222360D01*
X198161499Y-73347162D01*
X198153870Y-73361435D01*
X198114779Y-73409067D01*
X198053828Y-73483337D01*
X197985399Y-73539494D01*
X197931924Y-73583380D01*
X197931922Y-73583381D01*
X197792849Y-73657717D01*
X197792846Y-73657718D01*
X197641938Y-73703496D01*
X197485000Y-73718953D01*
X197328061Y-73703496D01*
X197177153Y-73657718D01*
X197177150Y-73657717D01*
X197038077Y-73583381D01*
X197038075Y-73583380D01*
X196990443Y-73544289D01*
X196916173Y-73483338D01*
X196816131Y-73361435D01*
X196816130Y-73361434D01*
X196741794Y-73222360D01*
X196741793Y-73222359D01*
X196741792Y-73222356D01*
X196696014Y-73071448D01*
X196684430Y-72953833D01*
X196684431Y-71876966D01*
X196696015Y-71759351D01*
X196741793Y-71608443D01*
X196741794Y-71608440D01*
X196816130Y-71469367D01*
X196816131Y-71469365D01*
X196842191Y-71437611D01*
X196916173Y-71347462D01*
X197006322Y-71273480D01*
X197038076Y-71247420D01*
X197052349Y-71239791D01*
X197177151Y-71173083D01*
X197177154Y-71173082D01*
X197328062Y-71127304D01*
X197485000Y-71111847D01*
X197641939Y-71127304D01*
X197641939Y-71127304D01*
G37*
G36*
X200181939Y-71127304D02*
G01*
X200332847Y-71173082D01*
X200332850Y-71173083D01*
X200457652Y-71239791D01*
X200471925Y-71247420D01*
X200503679Y-71273480D01*
X200593828Y-71347462D01*
X200667810Y-71437611D01*
X200693870Y-71469365D01*
X200693871Y-71469367D01*
X200768207Y-71608440D01*
X200768208Y-71608443D01*
X200813986Y-71759351D01*
X200825570Y-71876966D01*
X200825570Y-72953834D01*
X200813986Y-73071449D01*
X200768208Y-73222356D01*
X200768207Y-73222360D01*
X200701499Y-73347162D01*
X200693870Y-73361435D01*
X200654779Y-73409067D01*
X200593828Y-73483337D01*
X200525399Y-73539494D01*
X200471924Y-73583380D01*
X200471922Y-73583381D01*
X200332849Y-73657717D01*
X200332846Y-73657718D01*
X200181938Y-73703496D01*
X200025000Y-73718953D01*
X199868061Y-73703496D01*
X199717153Y-73657718D01*
X199717150Y-73657717D01*
X199578077Y-73583381D01*
X199578075Y-73583380D01*
X199530443Y-73544289D01*
X199456173Y-73483338D01*
X199356131Y-73361435D01*
X199356130Y-73361434D01*
X199281794Y-73222360D01*
X199281793Y-73222359D01*
X199281792Y-73222356D01*
X199236014Y-73071448D01*
X199224430Y-72953833D01*
X199224431Y-71876966D01*
X199236015Y-71759351D01*
X199281793Y-71608443D01*
X199281794Y-71608440D01*
X199356130Y-71469367D01*
X199356131Y-71469365D01*
X199382191Y-71437611D01*
X199456173Y-71347462D01*
X199546322Y-71273480D01*
X199578076Y-71247420D01*
X199592349Y-71239791D01*
X199717151Y-71173083D01*
X199717154Y-71173082D01*
X199868062Y-71127304D01*
X200025000Y-71111847D01*
X200181939Y-71127304D01*
X200181939Y-71127304D01*
G37*
G36*
X199027336Y-58275654D02*
G01*
X199119105Y-58293908D01*
X199291994Y-58365521D01*
X199447590Y-58469487D01*
X199579913Y-58601810D01*
X199683879Y-58757406D01*
X199755492Y-58930295D01*
X199792000Y-59113833D01*
X199792000Y-59300967D01*
X199755492Y-59484505D01*
X199683879Y-59657394D01*
X199579913Y-59812990D01*
X199447590Y-59945313D01*
X199291994Y-60049279D01*
X199119105Y-60120892D01*
X199027336Y-60139146D01*
X198935568Y-60157400D01*
X198748432Y-60157400D01*
X198656664Y-60139146D01*
X198564895Y-60120892D01*
X198392006Y-60049279D01*
X198236410Y-59945313D01*
X198104087Y-59812990D01*
X198000121Y-59657394D01*
X197928508Y-59484505D01*
X197892000Y-59300967D01*
X197892000Y-59113833D01*
X197928508Y-58930295D01*
X198000121Y-58757406D01*
X198104087Y-58601810D01*
X198236410Y-58469487D01*
X198392006Y-58365521D01*
X198564895Y-58293908D01*
X198656664Y-58275654D01*
X198748432Y-58257400D01*
X198935568Y-58257400D01*
X199027336Y-58275654D01*
X199027336Y-58275654D01*
G37*
G36*
X197292000Y-60157400D02*
G01*
X195392000Y-60157400D01*
X195392000Y-58257400D01*
X197292000Y-58257400D01*
X197292000Y-60157400D01*
X197292000Y-60157400D01*
G37*
G36*
X80152707Y-57460829D02*
G01*
X80219817Y-57467439D01*
X80392031Y-57519680D01*
X80392034Y-57519681D01*
X80534456Y-57595807D01*
X80550745Y-57604514D01*
X80586983Y-57634254D01*
X80689859Y-57718681D01*
X80774286Y-57821557D01*
X80804026Y-57857795D01*
X80804027Y-57857797D01*
X80888859Y-58016506D01*
X80888860Y-58016509D01*
X80941101Y-58188723D01*
X80958740Y-58367820D01*
X80941101Y-58546917D01*
X80924449Y-58601810D01*
X80888859Y-58719134D01*
X80868402Y-58757406D01*
X80804026Y-58877845D01*
X80774286Y-58914083D01*
X80689859Y-59016959D01*
X80586983Y-59101386D01*
X80550745Y-59131126D01*
X80550743Y-59131127D01*
X80392034Y-59215959D01*
X80392031Y-59215960D01*
X80219817Y-59268201D01*
X80152707Y-59274811D01*
X80085600Y-59281420D01*
X79995840Y-59281420D01*
X79928733Y-59274811D01*
X79861623Y-59268201D01*
X79689409Y-59215960D01*
X79689406Y-59215959D01*
X79530697Y-59131127D01*
X79530695Y-59131126D01*
X79494457Y-59101386D01*
X79391581Y-59016959D01*
X79307154Y-58914083D01*
X79277414Y-58877845D01*
X79213038Y-58757406D01*
X79192581Y-58719134D01*
X79156991Y-58601810D01*
X79140339Y-58546917D01*
X79122700Y-58367820D01*
X79140339Y-58188723D01*
X79192580Y-58016509D01*
X79192581Y-58016506D01*
X79277413Y-57857797D01*
X79277414Y-57857795D01*
X79307154Y-57821557D01*
X79391581Y-57718681D01*
X79494457Y-57634254D01*
X79530695Y-57604514D01*
X79546984Y-57595807D01*
X79689406Y-57519681D01*
X79689409Y-57519680D01*
X79861623Y-57467439D01*
X79928733Y-57460829D01*
X79995840Y-57454220D01*
X80085600Y-57454220D01*
X80152707Y-57460829D01*
X80152707Y-57460829D01*
G37*
G36*
X69992707Y-57460829D02*
G01*
X70059817Y-57467439D01*
X70232031Y-57519680D01*
X70232034Y-57519681D01*
X70374456Y-57595807D01*
X70390745Y-57604514D01*
X70426983Y-57634254D01*
X70529859Y-57718681D01*
X70614286Y-57821557D01*
X70644026Y-57857795D01*
X70644027Y-57857797D01*
X70728859Y-58016506D01*
X70728860Y-58016509D01*
X70781101Y-58188723D01*
X70798740Y-58367820D01*
X70781101Y-58546917D01*
X70764449Y-58601810D01*
X70728859Y-58719134D01*
X70708402Y-58757406D01*
X70644026Y-58877845D01*
X70614286Y-58914083D01*
X70529859Y-59016959D01*
X70426983Y-59101386D01*
X70390745Y-59131126D01*
X70390743Y-59131127D01*
X70232034Y-59215959D01*
X70232031Y-59215960D01*
X70059817Y-59268201D01*
X69992707Y-59274811D01*
X69925600Y-59281420D01*
X69835840Y-59281420D01*
X69768733Y-59274811D01*
X69701623Y-59268201D01*
X69529409Y-59215960D01*
X69529406Y-59215959D01*
X69370697Y-59131127D01*
X69370695Y-59131126D01*
X69334457Y-59101386D01*
X69231581Y-59016959D01*
X69147154Y-58914083D01*
X69117414Y-58877845D01*
X69053038Y-58757406D01*
X69032581Y-58719134D01*
X68996991Y-58601810D01*
X68980339Y-58546917D01*
X68962700Y-58367820D01*
X68980339Y-58188723D01*
X69032580Y-58016509D01*
X69032581Y-58016506D01*
X69117413Y-57857797D01*
X69117414Y-57857795D01*
X69147154Y-57821557D01*
X69231581Y-57718681D01*
X69334457Y-57634254D01*
X69370695Y-57604514D01*
X69386984Y-57595807D01*
X69529406Y-57519681D01*
X69529409Y-57519680D01*
X69701623Y-57467439D01*
X69768733Y-57460829D01*
X69835840Y-57454220D01*
X69925600Y-57454220D01*
X69992707Y-57460829D01*
X69992707Y-57460829D01*
G37*
G36*
X72532707Y-57460829D02*
G01*
X72599817Y-57467439D01*
X72772031Y-57519680D01*
X72772034Y-57519681D01*
X72914456Y-57595807D01*
X72930745Y-57604514D01*
X72966983Y-57634254D01*
X73069859Y-57718681D01*
X73154286Y-57821557D01*
X73184026Y-57857795D01*
X73184027Y-57857797D01*
X73268859Y-58016506D01*
X73268860Y-58016509D01*
X73321101Y-58188723D01*
X73338740Y-58367820D01*
X73321101Y-58546917D01*
X73304449Y-58601810D01*
X73268859Y-58719134D01*
X73248402Y-58757406D01*
X73184026Y-58877845D01*
X73154286Y-58914083D01*
X73069859Y-59016959D01*
X72966983Y-59101386D01*
X72930745Y-59131126D01*
X72930743Y-59131127D01*
X72772034Y-59215959D01*
X72772031Y-59215960D01*
X72599817Y-59268201D01*
X72532707Y-59274811D01*
X72465600Y-59281420D01*
X72375840Y-59281420D01*
X72308733Y-59274811D01*
X72241623Y-59268201D01*
X72069409Y-59215960D01*
X72069406Y-59215959D01*
X71910697Y-59131127D01*
X71910695Y-59131126D01*
X71874457Y-59101386D01*
X71771581Y-59016959D01*
X71687154Y-58914083D01*
X71657414Y-58877845D01*
X71593038Y-58757406D01*
X71572581Y-58719134D01*
X71536991Y-58601810D01*
X71520339Y-58546917D01*
X71502700Y-58367820D01*
X71520339Y-58188723D01*
X71572580Y-58016509D01*
X71572581Y-58016506D01*
X71657413Y-57857797D01*
X71657414Y-57857795D01*
X71687154Y-57821557D01*
X71771581Y-57718681D01*
X71874457Y-57634254D01*
X71910695Y-57604514D01*
X71926984Y-57595807D01*
X72069406Y-57519681D01*
X72069409Y-57519680D01*
X72241623Y-57467439D01*
X72308733Y-57460829D01*
X72375840Y-57454220D01*
X72465600Y-57454220D01*
X72532707Y-57460829D01*
X72532707Y-57460829D01*
G37*
G36*
X75072707Y-57460829D02*
G01*
X75139817Y-57467439D01*
X75312031Y-57519680D01*
X75312034Y-57519681D01*
X75454456Y-57595807D01*
X75470745Y-57604514D01*
X75506983Y-57634254D01*
X75609859Y-57718681D01*
X75694286Y-57821557D01*
X75724026Y-57857795D01*
X75724027Y-57857797D01*
X75808859Y-58016506D01*
X75808860Y-58016509D01*
X75861101Y-58188723D01*
X75878740Y-58367820D01*
X75861101Y-58546917D01*
X75844449Y-58601810D01*
X75808859Y-58719134D01*
X75788402Y-58757406D01*
X75724026Y-58877845D01*
X75694286Y-58914083D01*
X75609859Y-59016959D01*
X75506983Y-59101386D01*
X75470745Y-59131126D01*
X75470743Y-59131127D01*
X75312034Y-59215959D01*
X75312031Y-59215960D01*
X75139817Y-59268201D01*
X75072707Y-59274811D01*
X75005600Y-59281420D01*
X74915840Y-59281420D01*
X74848733Y-59274811D01*
X74781623Y-59268201D01*
X74609409Y-59215960D01*
X74609406Y-59215959D01*
X74450697Y-59131127D01*
X74450695Y-59131126D01*
X74414457Y-59101386D01*
X74311581Y-59016959D01*
X74227154Y-58914083D01*
X74197414Y-58877845D01*
X74133038Y-58757406D01*
X74112581Y-58719134D01*
X74076991Y-58601810D01*
X74060339Y-58546917D01*
X74042700Y-58367820D01*
X74060339Y-58188723D01*
X74112580Y-58016509D01*
X74112581Y-58016506D01*
X74197413Y-57857797D01*
X74197414Y-57857795D01*
X74227154Y-57821557D01*
X74311581Y-57718681D01*
X74414457Y-57634254D01*
X74450695Y-57604514D01*
X74466984Y-57595807D01*
X74609406Y-57519681D01*
X74609409Y-57519680D01*
X74781623Y-57467439D01*
X74848733Y-57460829D01*
X74915840Y-57454220D01*
X75005600Y-57454220D01*
X75072707Y-57460829D01*
X75072707Y-57460829D01*
G37*
G36*
X77612707Y-57460829D02*
G01*
X77679817Y-57467439D01*
X77852031Y-57519680D01*
X77852034Y-57519681D01*
X77994456Y-57595807D01*
X78010745Y-57604514D01*
X78046983Y-57634254D01*
X78149859Y-57718681D01*
X78234286Y-57821557D01*
X78264026Y-57857795D01*
X78264027Y-57857797D01*
X78348859Y-58016506D01*
X78348860Y-58016509D01*
X78401101Y-58188723D01*
X78418740Y-58367820D01*
X78401101Y-58546917D01*
X78384449Y-58601810D01*
X78348859Y-58719134D01*
X78328402Y-58757406D01*
X78264026Y-58877845D01*
X78234286Y-58914083D01*
X78149859Y-59016959D01*
X78046983Y-59101386D01*
X78010745Y-59131126D01*
X78010743Y-59131127D01*
X77852034Y-59215959D01*
X77852031Y-59215960D01*
X77679817Y-59268201D01*
X77612707Y-59274811D01*
X77545600Y-59281420D01*
X77455840Y-59281420D01*
X77388733Y-59274811D01*
X77321623Y-59268201D01*
X77149409Y-59215960D01*
X77149406Y-59215959D01*
X76990697Y-59131127D01*
X76990695Y-59131126D01*
X76954457Y-59101386D01*
X76851581Y-59016959D01*
X76767154Y-58914083D01*
X76737414Y-58877845D01*
X76673038Y-58757406D01*
X76652581Y-58719134D01*
X76616991Y-58601810D01*
X76600339Y-58546917D01*
X76582700Y-58367820D01*
X76600339Y-58188723D01*
X76652580Y-58016509D01*
X76652581Y-58016506D01*
X76737413Y-57857797D01*
X76737414Y-57857795D01*
X76767154Y-57821557D01*
X76851581Y-57718681D01*
X76954457Y-57634254D01*
X76990695Y-57604514D01*
X77006984Y-57595807D01*
X77149406Y-57519681D01*
X77149409Y-57519680D01*
X77321623Y-57467439D01*
X77388733Y-57460829D01*
X77455840Y-57454220D01*
X77545600Y-57454220D01*
X77612707Y-57460829D01*
X77612707Y-57460829D01*
G37*
G36*
X85232707Y-57460829D02*
G01*
X85299817Y-57467439D01*
X85472031Y-57519680D01*
X85472034Y-57519681D01*
X85614456Y-57595807D01*
X85630745Y-57604514D01*
X85666983Y-57634254D01*
X85769859Y-57718681D01*
X85854286Y-57821557D01*
X85884026Y-57857795D01*
X85884027Y-57857797D01*
X85968859Y-58016506D01*
X85968860Y-58016509D01*
X86021101Y-58188723D01*
X86038740Y-58367820D01*
X86021101Y-58546917D01*
X86004449Y-58601810D01*
X85968859Y-58719134D01*
X85948402Y-58757406D01*
X85884026Y-58877845D01*
X85854286Y-58914083D01*
X85769859Y-59016959D01*
X85666983Y-59101386D01*
X85630745Y-59131126D01*
X85630743Y-59131127D01*
X85472034Y-59215959D01*
X85472031Y-59215960D01*
X85299817Y-59268201D01*
X85232707Y-59274811D01*
X85165600Y-59281420D01*
X85075840Y-59281420D01*
X85008733Y-59274811D01*
X84941623Y-59268201D01*
X84769409Y-59215960D01*
X84769406Y-59215959D01*
X84610697Y-59131127D01*
X84610695Y-59131126D01*
X84574457Y-59101386D01*
X84471581Y-59016959D01*
X84387154Y-58914083D01*
X84357414Y-58877845D01*
X84293038Y-58757406D01*
X84272581Y-58719134D01*
X84236991Y-58601810D01*
X84220339Y-58546917D01*
X84202700Y-58367820D01*
X84220339Y-58188723D01*
X84272580Y-58016509D01*
X84272581Y-58016506D01*
X84357413Y-57857797D01*
X84357414Y-57857795D01*
X84387154Y-57821557D01*
X84471581Y-57718681D01*
X84574457Y-57634254D01*
X84610695Y-57604514D01*
X84626984Y-57595807D01*
X84769406Y-57519681D01*
X84769409Y-57519680D01*
X84941623Y-57467439D01*
X85008733Y-57460829D01*
X85075840Y-57454220D01*
X85165600Y-57454220D01*
X85232707Y-57460829D01*
X85232707Y-57460829D01*
G37*
G36*
X87772707Y-57460829D02*
G01*
X87839817Y-57467439D01*
X88012031Y-57519680D01*
X88012034Y-57519681D01*
X88154456Y-57595807D01*
X88170745Y-57604514D01*
X88206983Y-57634254D01*
X88309859Y-57718681D01*
X88394286Y-57821557D01*
X88424026Y-57857795D01*
X88424027Y-57857797D01*
X88508859Y-58016506D01*
X88508860Y-58016509D01*
X88561101Y-58188723D01*
X88578740Y-58367820D01*
X88561101Y-58546917D01*
X88544449Y-58601810D01*
X88508859Y-58719134D01*
X88488402Y-58757406D01*
X88424026Y-58877845D01*
X88394286Y-58914083D01*
X88309859Y-59016959D01*
X88206983Y-59101386D01*
X88170745Y-59131126D01*
X88170743Y-59131127D01*
X88012034Y-59215959D01*
X88012031Y-59215960D01*
X87839817Y-59268201D01*
X87772707Y-59274811D01*
X87705600Y-59281420D01*
X87615840Y-59281420D01*
X87548733Y-59274811D01*
X87481623Y-59268201D01*
X87309409Y-59215960D01*
X87309406Y-59215959D01*
X87150697Y-59131127D01*
X87150695Y-59131126D01*
X87114457Y-59101386D01*
X87011581Y-59016959D01*
X86927154Y-58914083D01*
X86897414Y-58877845D01*
X86833038Y-58757406D01*
X86812581Y-58719134D01*
X86776991Y-58601810D01*
X86760339Y-58546917D01*
X86742700Y-58367820D01*
X86760339Y-58188723D01*
X86812580Y-58016509D01*
X86812581Y-58016506D01*
X86897413Y-57857797D01*
X86897414Y-57857795D01*
X86927154Y-57821557D01*
X87011581Y-57718681D01*
X87114457Y-57634254D01*
X87150695Y-57604514D01*
X87166984Y-57595807D01*
X87309406Y-57519681D01*
X87309409Y-57519680D01*
X87481623Y-57467439D01*
X87548733Y-57460829D01*
X87615840Y-57454220D01*
X87705600Y-57454220D01*
X87772707Y-57460829D01*
X87772707Y-57460829D01*
G37*
G36*
X90312707Y-57460829D02*
G01*
X90379817Y-57467439D01*
X90552031Y-57519680D01*
X90552034Y-57519681D01*
X90694456Y-57595807D01*
X90710745Y-57604514D01*
X90746983Y-57634254D01*
X90849859Y-57718681D01*
X90934286Y-57821557D01*
X90964026Y-57857795D01*
X90964027Y-57857797D01*
X91048859Y-58016506D01*
X91048860Y-58016509D01*
X91101101Y-58188723D01*
X91118740Y-58367820D01*
X91101101Y-58546917D01*
X91084449Y-58601810D01*
X91048859Y-58719134D01*
X91028402Y-58757406D01*
X90964026Y-58877845D01*
X90934286Y-58914083D01*
X90849859Y-59016959D01*
X90746983Y-59101386D01*
X90710745Y-59131126D01*
X90710743Y-59131127D01*
X90552034Y-59215959D01*
X90552031Y-59215960D01*
X90379817Y-59268201D01*
X90312707Y-59274811D01*
X90245600Y-59281420D01*
X90155840Y-59281420D01*
X90088733Y-59274811D01*
X90021623Y-59268201D01*
X89849409Y-59215960D01*
X89849406Y-59215959D01*
X89690697Y-59131127D01*
X89690695Y-59131126D01*
X89654457Y-59101386D01*
X89551581Y-59016959D01*
X89467154Y-58914083D01*
X89437414Y-58877845D01*
X89373038Y-58757406D01*
X89352581Y-58719134D01*
X89316991Y-58601810D01*
X89300339Y-58546917D01*
X89282700Y-58367820D01*
X89300339Y-58188723D01*
X89352580Y-58016509D01*
X89352581Y-58016506D01*
X89437413Y-57857797D01*
X89437414Y-57857795D01*
X89467154Y-57821557D01*
X89551581Y-57718681D01*
X89654457Y-57634254D01*
X89690695Y-57604514D01*
X89706984Y-57595807D01*
X89849406Y-57519681D01*
X89849409Y-57519680D01*
X90021623Y-57467439D01*
X90088733Y-57460829D01*
X90155840Y-57454220D01*
X90245600Y-57454220D01*
X90312707Y-57460829D01*
X90312707Y-57460829D01*
G37*
G36*
X92852707Y-57460829D02*
G01*
X92919817Y-57467439D01*
X93092031Y-57519680D01*
X93092034Y-57519681D01*
X93234456Y-57595807D01*
X93250745Y-57604514D01*
X93286983Y-57634254D01*
X93389859Y-57718681D01*
X93474286Y-57821557D01*
X93504026Y-57857795D01*
X93504027Y-57857797D01*
X93588859Y-58016506D01*
X93588860Y-58016509D01*
X93641101Y-58188723D01*
X93658740Y-58367820D01*
X93641101Y-58546917D01*
X93624449Y-58601810D01*
X93588859Y-58719134D01*
X93568402Y-58757406D01*
X93504026Y-58877845D01*
X93474286Y-58914083D01*
X93389859Y-59016959D01*
X93286983Y-59101386D01*
X93250745Y-59131126D01*
X93250743Y-59131127D01*
X93092034Y-59215959D01*
X93092031Y-59215960D01*
X92919817Y-59268201D01*
X92852707Y-59274811D01*
X92785600Y-59281420D01*
X92695840Y-59281420D01*
X92628733Y-59274811D01*
X92561623Y-59268201D01*
X92389409Y-59215960D01*
X92389406Y-59215959D01*
X92230697Y-59131127D01*
X92230695Y-59131126D01*
X92194457Y-59101386D01*
X92091581Y-59016959D01*
X92007154Y-58914083D01*
X91977414Y-58877845D01*
X91913038Y-58757406D01*
X91892581Y-58719134D01*
X91856991Y-58601810D01*
X91840339Y-58546917D01*
X91822700Y-58367820D01*
X91840339Y-58188723D01*
X91892580Y-58016509D01*
X91892581Y-58016506D01*
X91977413Y-57857797D01*
X91977414Y-57857795D01*
X92007154Y-57821557D01*
X92091581Y-57718681D01*
X92194457Y-57634254D01*
X92230695Y-57604514D01*
X92246984Y-57595807D01*
X92389406Y-57519681D01*
X92389409Y-57519680D01*
X92561623Y-57467439D01*
X92628733Y-57460829D01*
X92695840Y-57454220D01*
X92785600Y-57454220D01*
X92852707Y-57460829D01*
X92852707Y-57460829D01*
G37*
G36*
X82692707Y-57460829D02*
G01*
X82759817Y-57467439D01*
X82932031Y-57519680D01*
X82932034Y-57519681D01*
X83074456Y-57595807D01*
X83090745Y-57604514D01*
X83126983Y-57634254D01*
X83229859Y-57718681D01*
X83314286Y-57821557D01*
X83344026Y-57857795D01*
X83344027Y-57857797D01*
X83428859Y-58016506D01*
X83428860Y-58016509D01*
X83481101Y-58188723D01*
X83498740Y-58367820D01*
X83481101Y-58546917D01*
X83464449Y-58601810D01*
X83428859Y-58719134D01*
X83408402Y-58757406D01*
X83344026Y-58877845D01*
X83314286Y-58914083D01*
X83229859Y-59016959D01*
X83126983Y-59101386D01*
X83090745Y-59131126D01*
X83090743Y-59131127D01*
X82932034Y-59215959D01*
X82932031Y-59215960D01*
X82759817Y-59268201D01*
X82692707Y-59274811D01*
X82625600Y-59281420D01*
X82535840Y-59281420D01*
X82468733Y-59274811D01*
X82401623Y-59268201D01*
X82229409Y-59215960D01*
X82229406Y-59215959D01*
X82070697Y-59131127D01*
X82070695Y-59131126D01*
X82034457Y-59101386D01*
X81931581Y-59016959D01*
X81847154Y-58914083D01*
X81817414Y-58877845D01*
X81753038Y-58757406D01*
X81732581Y-58719134D01*
X81696991Y-58601810D01*
X81680339Y-58546917D01*
X81662700Y-58367820D01*
X81680339Y-58188723D01*
X81732580Y-58016509D01*
X81732581Y-58016506D01*
X81817413Y-57857797D01*
X81817414Y-57857795D01*
X81847154Y-57821557D01*
X81931581Y-57718681D01*
X82034457Y-57634254D01*
X82070695Y-57604514D01*
X82086984Y-57595807D01*
X82229406Y-57519681D01*
X82229409Y-57519680D01*
X82401623Y-57467439D01*
X82468733Y-57460829D01*
X82535840Y-57454220D01*
X82625600Y-57454220D01*
X82692707Y-57460829D01*
X82692707Y-57460829D01*
G37*
G36*
X69992707Y-54920829D02*
G01*
X70059817Y-54927439D01*
X70232031Y-54979680D01*
X70232034Y-54979681D01*
X70374456Y-55055807D01*
X70390745Y-55064514D01*
X70426983Y-55094254D01*
X70529859Y-55178681D01*
X70614286Y-55281557D01*
X70644026Y-55317795D01*
X70644027Y-55317797D01*
X70728859Y-55476506D01*
X70728860Y-55476509D01*
X70781101Y-55648723D01*
X70798740Y-55827820D01*
X70781101Y-56006917D01*
X70728860Y-56179131D01*
X70728859Y-56179134D01*
X70652733Y-56321556D01*
X70644026Y-56337845D01*
X70614286Y-56374083D01*
X70529859Y-56476959D01*
X70426983Y-56561386D01*
X70390745Y-56591126D01*
X70390743Y-56591127D01*
X70232034Y-56675959D01*
X70232031Y-56675960D01*
X70059817Y-56728201D01*
X69992707Y-56734811D01*
X69925600Y-56741420D01*
X69835840Y-56741420D01*
X69768733Y-56734811D01*
X69701623Y-56728201D01*
X69529409Y-56675960D01*
X69529406Y-56675959D01*
X69370697Y-56591127D01*
X69370695Y-56591126D01*
X69334457Y-56561386D01*
X69231581Y-56476959D01*
X69147154Y-56374083D01*
X69117414Y-56337845D01*
X69108707Y-56321556D01*
X69032581Y-56179134D01*
X69032580Y-56179131D01*
X68980339Y-56006917D01*
X68962700Y-55827820D01*
X68980339Y-55648723D01*
X69032580Y-55476509D01*
X69032581Y-55476506D01*
X69117413Y-55317797D01*
X69117414Y-55317795D01*
X69147154Y-55281557D01*
X69231581Y-55178681D01*
X69334457Y-55094254D01*
X69370695Y-55064514D01*
X69386984Y-55055807D01*
X69529406Y-54979681D01*
X69529409Y-54979680D01*
X69701623Y-54927439D01*
X69768733Y-54920829D01*
X69835840Y-54914220D01*
X69925600Y-54914220D01*
X69992707Y-54920829D01*
X69992707Y-54920829D01*
G37*
G36*
X72532707Y-54920829D02*
G01*
X72599817Y-54927439D01*
X72772031Y-54979680D01*
X72772034Y-54979681D01*
X72914456Y-55055807D01*
X72930745Y-55064514D01*
X72966983Y-55094254D01*
X73069859Y-55178681D01*
X73154286Y-55281557D01*
X73184026Y-55317795D01*
X73184027Y-55317797D01*
X73268859Y-55476506D01*
X73268860Y-55476509D01*
X73321101Y-55648723D01*
X73338740Y-55827820D01*
X73321101Y-56006917D01*
X73268860Y-56179131D01*
X73268859Y-56179134D01*
X73192733Y-56321556D01*
X73184026Y-56337845D01*
X73154286Y-56374083D01*
X73069859Y-56476959D01*
X72966983Y-56561386D01*
X72930745Y-56591126D01*
X72930743Y-56591127D01*
X72772034Y-56675959D01*
X72772031Y-56675960D01*
X72599817Y-56728201D01*
X72532707Y-56734811D01*
X72465600Y-56741420D01*
X72375840Y-56741420D01*
X72308733Y-56734811D01*
X72241623Y-56728201D01*
X72069409Y-56675960D01*
X72069406Y-56675959D01*
X71910697Y-56591127D01*
X71910695Y-56591126D01*
X71874457Y-56561386D01*
X71771581Y-56476959D01*
X71687154Y-56374083D01*
X71657414Y-56337845D01*
X71648707Y-56321556D01*
X71572581Y-56179134D01*
X71572580Y-56179131D01*
X71520339Y-56006917D01*
X71502700Y-55827820D01*
X71520339Y-55648723D01*
X71572580Y-55476509D01*
X71572581Y-55476506D01*
X71657413Y-55317797D01*
X71657414Y-55317795D01*
X71687154Y-55281557D01*
X71771581Y-55178681D01*
X71874457Y-55094254D01*
X71910695Y-55064514D01*
X71926984Y-55055807D01*
X72069406Y-54979681D01*
X72069409Y-54979680D01*
X72241623Y-54927439D01*
X72308733Y-54920829D01*
X72375840Y-54914220D01*
X72465600Y-54914220D01*
X72532707Y-54920829D01*
X72532707Y-54920829D01*
G37*
G36*
X75072707Y-54920829D02*
G01*
X75139817Y-54927439D01*
X75312031Y-54979680D01*
X75312034Y-54979681D01*
X75454456Y-55055807D01*
X75470745Y-55064514D01*
X75506983Y-55094254D01*
X75609859Y-55178681D01*
X75694286Y-55281557D01*
X75724026Y-55317795D01*
X75724027Y-55317797D01*
X75808859Y-55476506D01*
X75808860Y-55476509D01*
X75861101Y-55648723D01*
X75878740Y-55827820D01*
X75861101Y-56006917D01*
X75808860Y-56179131D01*
X75808859Y-56179134D01*
X75732733Y-56321556D01*
X75724026Y-56337845D01*
X75694286Y-56374083D01*
X75609859Y-56476959D01*
X75506983Y-56561386D01*
X75470745Y-56591126D01*
X75470743Y-56591127D01*
X75312034Y-56675959D01*
X75312031Y-56675960D01*
X75139817Y-56728201D01*
X75072707Y-56734811D01*
X75005600Y-56741420D01*
X74915840Y-56741420D01*
X74848733Y-56734811D01*
X74781623Y-56728201D01*
X74609409Y-56675960D01*
X74609406Y-56675959D01*
X74450697Y-56591127D01*
X74450695Y-56591126D01*
X74414457Y-56561386D01*
X74311581Y-56476959D01*
X74227154Y-56374083D01*
X74197414Y-56337845D01*
X74188707Y-56321556D01*
X74112581Y-56179134D01*
X74112580Y-56179131D01*
X74060339Y-56006917D01*
X74042700Y-55827820D01*
X74060339Y-55648723D01*
X74112580Y-55476509D01*
X74112581Y-55476506D01*
X74197413Y-55317797D01*
X74197414Y-55317795D01*
X74227154Y-55281557D01*
X74311581Y-55178681D01*
X74414457Y-55094254D01*
X74450695Y-55064514D01*
X74466984Y-55055807D01*
X74609406Y-54979681D01*
X74609409Y-54979680D01*
X74781623Y-54927439D01*
X74848733Y-54920829D01*
X74915840Y-54914220D01*
X75005600Y-54914220D01*
X75072707Y-54920829D01*
X75072707Y-54920829D01*
G37*
G36*
X80152707Y-54920829D02*
G01*
X80219817Y-54927439D01*
X80392031Y-54979680D01*
X80392034Y-54979681D01*
X80534456Y-55055807D01*
X80550745Y-55064514D01*
X80586983Y-55094254D01*
X80689859Y-55178681D01*
X80774286Y-55281557D01*
X80804026Y-55317795D01*
X80804027Y-55317797D01*
X80888859Y-55476506D01*
X80888860Y-55476509D01*
X80941101Y-55648723D01*
X80958740Y-55827820D01*
X80941101Y-56006917D01*
X80888860Y-56179131D01*
X80888859Y-56179134D01*
X80812733Y-56321556D01*
X80804026Y-56337845D01*
X80774286Y-56374083D01*
X80689859Y-56476959D01*
X80586983Y-56561386D01*
X80550745Y-56591126D01*
X80550743Y-56591127D01*
X80392034Y-56675959D01*
X80392031Y-56675960D01*
X80219817Y-56728201D01*
X80152707Y-56734811D01*
X80085600Y-56741420D01*
X79995840Y-56741420D01*
X79928733Y-56734811D01*
X79861623Y-56728201D01*
X79689409Y-56675960D01*
X79689406Y-56675959D01*
X79530697Y-56591127D01*
X79530695Y-56591126D01*
X79494457Y-56561386D01*
X79391581Y-56476959D01*
X79307154Y-56374083D01*
X79277414Y-56337845D01*
X79268707Y-56321556D01*
X79192581Y-56179134D01*
X79192580Y-56179131D01*
X79140339Y-56006917D01*
X79122700Y-55827820D01*
X79140339Y-55648723D01*
X79192580Y-55476509D01*
X79192581Y-55476506D01*
X79277413Y-55317797D01*
X79277414Y-55317795D01*
X79307154Y-55281557D01*
X79391581Y-55178681D01*
X79494457Y-55094254D01*
X79530695Y-55064514D01*
X79546984Y-55055807D01*
X79689406Y-54979681D01*
X79689409Y-54979680D01*
X79861623Y-54927439D01*
X79928733Y-54920829D01*
X79995840Y-54914220D01*
X80085600Y-54914220D01*
X80152707Y-54920829D01*
X80152707Y-54920829D01*
G37*
G36*
X82692707Y-54920829D02*
G01*
X82759817Y-54927439D01*
X82932031Y-54979680D01*
X82932034Y-54979681D01*
X83074456Y-55055807D01*
X83090745Y-55064514D01*
X83126983Y-55094254D01*
X83229859Y-55178681D01*
X83314286Y-55281557D01*
X83344026Y-55317795D01*
X83344027Y-55317797D01*
X83428859Y-55476506D01*
X83428860Y-55476509D01*
X83481101Y-55648723D01*
X83498740Y-55827820D01*
X83481101Y-56006917D01*
X83428860Y-56179131D01*
X83428859Y-56179134D01*
X83352733Y-56321556D01*
X83344026Y-56337845D01*
X83314286Y-56374083D01*
X83229859Y-56476959D01*
X83126983Y-56561386D01*
X83090745Y-56591126D01*
X83090743Y-56591127D01*
X82932034Y-56675959D01*
X82932031Y-56675960D01*
X82759817Y-56728201D01*
X82692707Y-56734811D01*
X82625600Y-56741420D01*
X82535840Y-56741420D01*
X82468733Y-56734811D01*
X82401623Y-56728201D01*
X82229409Y-56675960D01*
X82229406Y-56675959D01*
X82070697Y-56591127D01*
X82070695Y-56591126D01*
X82034457Y-56561386D01*
X81931581Y-56476959D01*
X81847154Y-56374083D01*
X81817414Y-56337845D01*
X81808707Y-56321556D01*
X81732581Y-56179134D01*
X81732580Y-56179131D01*
X81680339Y-56006917D01*
X81662700Y-55827820D01*
X81680339Y-55648723D01*
X81732580Y-55476509D01*
X81732581Y-55476506D01*
X81817413Y-55317797D01*
X81817414Y-55317795D01*
X81847154Y-55281557D01*
X81931581Y-55178681D01*
X82034457Y-55094254D01*
X82070695Y-55064514D01*
X82086984Y-55055807D01*
X82229406Y-54979681D01*
X82229409Y-54979680D01*
X82401623Y-54927439D01*
X82468733Y-54920829D01*
X82535840Y-54914220D01*
X82625600Y-54914220D01*
X82692707Y-54920829D01*
X82692707Y-54920829D01*
G37*
G36*
X87772707Y-54920829D02*
G01*
X87839817Y-54927439D01*
X88012031Y-54979680D01*
X88012034Y-54979681D01*
X88154456Y-55055807D01*
X88170745Y-55064514D01*
X88206983Y-55094254D01*
X88309859Y-55178681D01*
X88394286Y-55281557D01*
X88424026Y-55317795D01*
X88424027Y-55317797D01*
X88508859Y-55476506D01*
X88508860Y-55476509D01*
X88561101Y-55648723D01*
X88578740Y-55827820D01*
X88561101Y-56006917D01*
X88508860Y-56179131D01*
X88508859Y-56179134D01*
X88432733Y-56321556D01*
X88424026Y-56337845D01*
X88394286Y-56374083D01*
X88309859Y-56476959D01*
X88206983Y-56561386D01*
X88170745Y-56591126D01*
X88170743Y-56591127D01*
X88012034Y-56675959D01*
X88012031Y-56675960D01*
X87839817Y-56728201D01*
X87772707Y-56734811D01*
X87705600Y-56741420D01*
X87615840Y-56741420D01*
X87548733Y-56734811D01*
X87481623Y-56728201D01*
X87309409Y-56675960D01*
X87309406Y-56675959D01*
X87150697Y-56591127D01*
X87150695Y-56591126D01*
X87114457Y-56561386D01*
X87011581Y-56476959D01*
X86927154Y-56374083D01*
X86897414Y-56337845D01*
X86888707Y-56321556D01*
X86812581Y-56179134D01*
X86812580Y-56179131D01*
X86760339Y-56006917D01*
X86742700Y-55827820D01*
X86760339Y-55648723D01*
X86812580Y-55476509D01*
X86812581Y-55476506D01*
X86897413Y-55317797D01*
X86897414Y-55317795D01*
X86927154Y-55281557D01*
X87011581Y-55178681D01*
X87114457Y-55094254D01*
X87150695Y-55064514D01*
X87166984Y-55055807D01*
X87309406Y-54979681D01*
X87309409Y-54979680D01*
X87481623Y-54927439D01*
X87548733Y-54920829D01*
X87615840Y-54914220D01*
X87705600Y-54914220D01*
X87772707Y-54920829D01*
X87772707Y-54920829D01*
G37*
G36*
X90312707Y-54920829D02*
G01*
X90379817Y-54927439D01*
X90552031Y-54979680D01*
X90552034Y-54979681D01*
X90694456Y-55055807D01*
X90710745Y-55064514D01*
X90746983Y-55094254D01*
X90849859Y-55178681D01*
X90934286Y-55281557D01*
X90964026Y-55317795D01*
X90964027Y-55317797D01*
X91048859Y-55476506D01*
X91048860Y-55476509D01*
X91101101Y-55648723D01*
X91118740Y-55827820D01*
X91101101Y-56006917D01*
X91048860Y-56179131D01*
X91048859Y-56179134D01*
X90972733Y-56321556D01*
X90964026Y-56337845D01*
X90934286Y-56374083D01*
X90849859Y-56476959D01*
X90746983Y-56561386D01*
X90710745Y-56591126D01*
X90710743Y-56591127D01*
X90552034Y-56675959D01*
X90552031Y-56675960D01*
X90379817Y-56728201D01*
X90312707Y-56734811D01*
X90245600Y-56741420D01*
X90155840Y-56741420D01*
X90088733Y-56734811D01*
X90021623Y-56728201D01*
X89849409Y-56675960D01*
X89849406Y-56675959D01*
X89690697Y-56591127D01*
X89690695Y-56591126D01*
X89654457Y-56561386D01*
X89551581Y-56476959D01*
X89467154Y-56374083D01*
X89437414Y-56337845D01*
X89428707Y-56321556D01*
X89352581Y-56179134D01*
X89352580Y-56179131D01*
X89300339Y-56006917D01*
X89282700Y-55827820D01*
X89300339Y-55648723D01*
X89352580Y-55476509D01*
X89352581Y-55476506D01*
X89437413Y-55317797D01*
X89437414Y-55317795D01*
X89467154Y-55281557D01*
X89551581Y-55178681D01*
X89654457Y-55094254D01*
X89690695Y-55064514D01*
X89706984Y-55055807D01*
X89849406Y-54979681D01*
X89849409Y-54979680D01*
X90021623Y-54927439D01*
X90088733Y-54920829D01*
X90155840Y-54914220D01*
X90245600Y-54914220D01*
X90312707Y-54920829D01*
X90312707Y-54920829D01*
G37*
G36*
X93654320Y-56741420D02*
G01*
X91827120Y-56741420D01*
X91827120Y-54914220D01*
X93654320Y-54914220D01*
X93654320Y-56741420D01*
X93654320Y-56741420D01*
G37*
G36*
X77612707Y-54920829D02*
G01*
X77679817Y-54927439D01*
X77852031Y-54979680D01*
X77852034Y-54979681D01*
X77994456Y-55055807D01*
X78010745Y-55064514D01*
X78046983Y-55094254D01*
X78149859Y-55178681D01*
X78234286Y-55281557D01*
X78264026Y-55317795D01*
X78264027Y-55317797D01*
X78348859Y-55476506D01*
X78348860Y-55476509D01*
X78401101Y-55648723D01*
X78418740Y-55827820D01*
X78401101Y-56006917D01*
X78348860Y-56179131D01*
X78348859Y-56179134D01*
X78272733Y-56321556D01*
X78264026Y-56337845D01*
X78234286Y-56374083D01*
X78149859Y-56476959D01*
X78046983Y-56561386D01*
X78010745Y-56591126D01*
X78010743Y-56591127D01*
X77852034Y-56675959D01*
X77852031Y-56675960D01*
X77679817Y-56728201D01*
X77612707Y-56734811D01*
X77545600Y-56741420D01*
X77455840Y-56741420D01*
X77388733Y-56734811D01*
X77321623Y-56728201D01*
X77149409Y-56675960D01*
X77149406Y-56675959D01*
X76990697Y-56591127D01*
X76990695Y-56591126D01*
X76954457Y-56561386D01*
X76851581Y-56476959D01*
X76767154Y-56374083D01*
X76737414Y-56337845D01*
X76728707Y-56321556D01*
X76652581Y-56179134D01*
X76652580Y-56179131D01*
X76600339Y-56006917D01*
X76582700Y-55827820D01*
X76600339Y-55648723D01*
X76652580Y-55476509D01*
X76652581Y-55476506D01*
X76737413Y-55317797D01*
X76737414Y-55317795D01*
X76767154Y-55281557D01*
X76851581Y-55178681D01*
X76954457Y-55094254D01*
X76990695Y-55064514D01*
X77006984Y-55055807D01*
X77149406Y-54979681D01*
X77149409Y-54979680D01*
X77321623Y-54927439D01*
X77388733Y-54920829D01*
X77455840Y-54914220D01*
X77545600Y-54914220D01*
X77612707Y-54920829D01*
X77612707Y-54920829D01*
G37*
G36*
X85232707Y-54920829D02*
G01*
X85299817Y-54927439D01*
X85472031Y-54979680D01*
X85472034Y-54979681D01*
X85614456Y-55055807D01*
X85630745Y-55064514D01*
X85666983Y-55094254D01*
X85769859Y-55178681D01*
X85854286Y-55281557D01*
X85884026Y-55317795D01*
X85884027Y-55317797D01*
X85968859Y-55476506D01*
X85968860Y-55476509D01*
X86021101Y-55648723D01*
X86038740Y-55827820D01*
X86021101Y-56006917D01*
X85968860Y-56179131D01*
X85968859Y-56179134D01*
X85892733Y-56321556D01*
X85884026Y-56337845D01*
X85854286Y-56374083D01*
X85769859Y-56476959D01*
X85666983Y-56561386D01*
X85630745Y-56591126D01*
X85630743Y-56591127D01*
X85472034Y-56675959D01*
X85472031Y-56675960D01*
X85299817Y-56728201D01*
X85232707Y-56734811D01*
X85165600Y-56741420D01*
X85075840Y-56741420D01*
X85008733Y-56734811D01*
X84941623Y-56728201D01*
X84769409Y-56675960D01*
X84769406Y-56675959D01*
X84610697Y-56591127D01*
X84610695Y-56591126D01*
X84574457Y-56561386D01*
X84471581Y-56476959D01*
X84387154Y-56374083D01*
X84357414Y-56337845D01*
X84348707Y-56321556D01*
X84272581Y-56179134D01*
X84272580Y-56179131D01*
X84220339Y-56006917D01*
X84202700Y-55827820D01*
X84220339Y-55648723D01*
X84272580Y-55476509D01*
X84272581Y-55476506D01*
X84357413Y-55317797D01*
X84357414Y-55317795D01*
X84387154Y-55281557D01*
X84471581Y-55178681D01*
X84574457Y-55094254D01*
X84610695Y-55064514D01*
X84626984Y-55055807D01*
X84769406Y-54979681D01*
X84769409Y-54979680D01*
X84941623Y-54927439D01*
X85008733Y-54920829D01*
X85075840Y-54914220D01*
X85165600Y-54914220D01*
X85232707Y-54920829D01*
X85232707Y-54920829D01*
G37*
G36*
X207181722Y-51627420D02*
G01*
X207309113Y-51680187D01*
X207366050Y-51718231D01*
X207423764Y-51756794D01*
X207521266Y-51854296D01*
X207521267Y-51854298D01*
X207597873Y-51968947D01*
X207650640Y-52096338D01*
X207677540Y-52231575D01*
X207677540Y-52369465D01*
X207650640Y-52504702D01*
X207597873Y-52632093D01*
X207597872Y-52632094D01*
X207521266Y-52746744D01*
X207423764Y-52844246D01*
X207366050Y-52882809D01*
X207309113Y-52920853D01*
X207181722Y-52973620D01*
X207046485Y-53000520D01*
X206908595Y-53000520D01*
X206773358Y-52973620D01*
X206645967Y-52920853D01*
X206589030Y-52882809D01*
X206531316Y-52844246D01*
X206433814Y-52746744D01*
X206357208Y-52632094D01*
X206357207Y-52632093D01*
X206304440Y-52504702D01*
X206277540Y-52369465D01*
X206277540Y-52231575D01*
X206304440Y-52096338D01*
X206357207Y-51968947D01*
X206433813Y-51854298D01*
X206433814Y-51854296D01*
X206531316Y-51756794D01*
X206589030Y-51718231D01*
X206645967Y-51680187D01*
X206773358Y-51627420D01*
X206908595Y-51600520D01*
X207046485Y-51600520D01*
X207181722Y-51627420D01*
X207181722Y-51627420D01*
G37*
G36*
X212677540Y-53000520D02*
G01*
X211277540Y-53000520D01*
X211277540Y-51600520D01*
X212677540Y-51600520D01*
X212677540Y-53000520D01*
X212677540Y-53000520D01*
G37*
G36*
X224011722Y-51467420D02*
G01*
X224139113Y-51520187D01*
X224139114Y-51520188D01*
X224253764Y-51596794D01*
X224351266Y-51694296D01*
X224351267Y-51694298D01*
X224427873Y-51808947D01*
X224480640Y-51936338D01*
X224507540Y-52071575D01*
X224507540Y-52209465D01*
X224480640Y-52344702D01*
X224427873Y-52472093D01*
X224427872Y-52472094D01*
X224351266Y-52586744D01*
X224253764Y-52684246D01*
X224196050Y-52722809D01*
X224139113Y-52760853D01*
X224011722Y-52813620D01*
X223876485Y-52840520D01*
X223738595Y-52840520D01*
X223603358Y-52813620D01*
X223475967Y-52760853D01*
X223419030Y-52722809D01*
X223361316Y-52684246D01*
X223263814Y-52586744D01*
X223187208Y-52472094D01*
X223187207Y-52472093D01*
X223134440Y-52344702D01*
X223107540Y-52209465D01*
X223107540Y-52071575D01*
X223134440Y-51936338D01*
X223187207Y-51808947D01*
X223263813Y-51694298D01*
X223263814Y-51694296D01*
X223361316Y-51596794D01*
X223475966Y-51520188D01*
X223475967Y-51520187D01*
X223603358Y-51467420D01*
X223738595Y-51440520D01*
X223876485Y-51440520D01*
X224011722Y-51467420D01*
X224011722Y-51467420D01*
G37*
G36*
X219507540Y-52840520D02*
G01*
X218107540Y-52840520D01*
X218107540Y-51440520D01*
X219507540Y-51440520D01*
X219507540Y-52840520D01*
X219507540Y-52840520D01*
G37*
G36*
X82754496Y-44387819D02*
G01*
X82881901Y-44426467D01*
X82926714Y-44440061D01*
X83085423Y-44524893D01*
X83224539Y-44639061D01*
X83308966Y-44741937D01*
X83338706Y-44778175D01*
X83338707Y-44778177D01*
X83423539Y-44936886D01*
X83423540Y-44936889D01*
X83475781Y-45109103D01*
X83489000Y-45243322D01*
X83489000Y-45637877D01*
X83475781Y-45772096D01*
X83423540Y-45944311D01*
X83423539Y-45944314D01*
X83347413Y-46086736D01*
X83338706Y-46103025D01*
X83308966Y-46139263D01*
X83224539Y-46242139D01*
X83121663Y-46326566D01*
X83085425Y-46356306D01*
X83085423Y-46356307D01*
X82926714Y-46441139D01*
X82926711Y-46441140D01*
X82754497Y-46493381D01*
X82575400Y-46511020D01*
X82396304Y-46493381D01*
X82224090Y-46441140D01*
X82224087Y-46441139D01*
X82065378Y-46356307D01*
X82065376Y-46356306D01*
X82004351Y-46306224D01*
X81926262Y-46242138D01*
X81856706Y-46157383D01*
X81812094Y-46103025D01*
X81803387Y-46086736D01*
X81727261Y-45944314D01*
X81727260Y-45944311D01*
X81675019Y-45772097D01*
X81661800Y-45637878D01*
X81661800Y-45243323D01*
X81675019Y-45109104D01*
X81727260Y-44936890D01*
X81727261Y-44936886D01*
X81812093Y-44778177D01*
X81926261Y-44639061D01*
X82029137Y-44554634D01*
X82065375Y-44524894D01*
X82081664Y-44516187D01*
X82224086Y-44440061D01*
X82224089Y-44440060D01*
X82396303Y-44387819D01*
X82575400Y-44370180D01*
X82754496Y-44387819D01*
X82754496Y-44387819D01*
G37*
G36*
X80214496Y-44387819D02*
G01*
X80341901Y-44426467D01*
X80386714Y-44440061D01*
X80545423Y-44524893D01*
X80684539Y-44639061D01*
X80768966Y-44741937D01*
X80798706Y-44778175D01*
X80798707Y-44778177D01*
X80883539Y-44936886D01*
X80883540Y-44936889D01*
X80935781Y-45109103D01*
X80949000Y-45243322D01*
X80949000Y-45637877D01*
X80935781Y-45772096D01*
X80883540Y-45944311D01*
X80883539Y-45944314D01*
X80807413Y-46086736D01*
X80798706Y-46103025D01*
X80768966Y-46139263D01*
X80684539Y-46242139D01*
X80581663Y-46326566D01*
X80545425Y-46356306D01*
X80545423Y-46356307D01*
X80386714Y-46441139D01*
X80386711Y-46441140D01*
X80214497Y-46493381D01*
X80035400Y-46511020D01*
X79856304Y-46493381D01*
X79684090Y-46441140D01*
X79684087Y-46441139D01*
X79525378Y-46356307D01*
X79525376Y-46356306D01*
X79464351Y-46306224D01*
X79386262Y-46242138D01*
X79316706Y-46157383D01*
X79272094Y-46103025D01*
X79263387Y-46086736D01*
X79187261Y-45944314D01*
X79187260Y-45944311D01*
X79135019Y-45772097D01*
X79121800Y-45637878D01*
X79121800Y-45243323D01*
X79135019Y-45109104D01*
X79187260Y-44936890D01*
X79187261Y-44936886D01*
X79272093Y-44778177D01*
X79386261Y-44639061D01*
X79489137Y-44554634D01*
X79525375Y-44524894D01*
X79541664Y-44516187D01*
X79684086Y-44440061D01*
X79684089Y-44440060D01*
X79856303Y-44387819D01*
X80035400Y-44370180D01*
X80214496Y-44387819D01*
X80214496Y-44387819D01*
G37*
G36*
X86029000Y-46506600D02*
G01*
X84201800Y-46506600D01*
X84201800Y-44374600D01*
X86029000Y-44374600D01*
X86029000Y-46506600D01*
X86029000Y-46506600D01*
G37*
G36*
X208625660Y-31823880D02*
G01*
X204525660Y-31823880D01*
X204525660Y-27723880D01*
X208625660Y-27723880D01*
X208625660Y-31823880D01*
X208625660Y-31823880D01*
G37*
G36*
X222593793Y-25754321D02*
G01*
X222864270Y-25808122D01*
X223066728Y-25891983D01*
X223373836Y-26019191D01*
X223501508Y-26104499D01*
X223832436Y-26325618D01*
X224222442Y-26715624D01*
X224355025Y-26914049D01*
X224528869Y-27174224D01*
X224596222Y-27336830D01*
X224739938Y-27683790D01*
X224759391Y-27781588D01*
X224844895Y-28211444D01*
X224847540Y-28224744D01*
X224847540Y-28776296D01*
X224739938Y-29317250D01*
X224652510Y-29528319D01*
X224528869Y-29826816D01*
X224528868Y-29826817D01*
X224222442Y-30285416D01*
X223832436Y-30675422D01*
X223526009Y-30880170D01*
X223373836Y-30981849D01*
X223075339Y-31105490D01*
X222864270Y-31192918D01*
X222593793Y-31246719D01*
X222323317Y-31300520D01*
X221771763Y-31300520D01*
X221501287Y-31246719D01*
X221230810Y-31192918D01*
X221019741Y-31105490D01*
X220721244Y-30981849D01*
X220569071Y-30880170D01*
X220262644Y-30675422D01*
X219872638Y-30285416D01*
X219566212Y-29826817D01*
X219566211Y-29826816D01*
X219442570Y-29528319D01*
X219355142Y-29317250D01*
X219247540Y-28776296D01*
X219247540Y-28224744D01*
X219250186Y-28211444D01*
X219335689Y-27781588D01*
X219355142Y-27683790D01*
X219498858Y-27336830D01*
X219566211Y-27174224D01*
X219740055Y-26914049D01*
X219872638Y-26715624D01*
X220262644Y-26325618D01*
X220593572Y-26104499D01*
X220721244Y-26019191D01*
X221028352Y-25891983D01*
X221230810Y-25808122D01*
X221501287Y-25754321D01*
X221771763Y-25700520D01*
X222323317Y-25700520D01*
X222593793Y-25754321D01*
X222593793Y-25754321D01*
G37*
G36*
X159210060Y-26045106D02*
G01*
X159353448Y-26104499D01*
X159373850Y-26112950D01*
X159521257Y-26211444D01*
X159646616Y-26336803D01*
X159745110Y-26484210D01*
X159745111Y-26484212D01*
X159812954Y-26648000D01*
X159847540Y-26821876D01*
X159847540Y-26999164D01*
X159812954Y-27173040D01*
X159745110Y-27336830D01*
X159646616Y-27484237D01*
X159521257Y-27609596D01*
X159422762Y-27675408D01*
X159373849Y-27708091D01*
X159335730Y-27723880D01*
X159224294Y-27770038D01*
X159202686Y-27781588D01*
X159183744Y-27797133D01*
X159168198Y-27816075D01*
X159156647Y-27837686D01*
X159149534Y-27861135D01*
X159147132Y-27885521D01*
X159149534Y-27909907D01*
X159156647Y-27933356D01*
X159168198Y-27954966D01*
X159183743Y-27973908D01*
X159202685Y-27989454D01*
X159224296Y-28001005D01*
X159247745Y-28008118D01*
X159272131Y-28010520D01*
X159847540Y-28010520D01*
X159847540Y-29810520D01*
X158047540Y-29810520D01*
X158047540Y-28010520D01*
X158622949Y-28010520D01*
X158647335Y-28008118D01*
X158670784Y-28001005D01*
X158692395Y-27989454D01*
X158711337Y-27973909D01*
X158726882Y-27954967D01*
X158738433Y-27933356D01*
X158745546Y-27909907D01*
X158747948Y-27885521D01*
X158745546Y-27861135D01*
X158738433Y-27837686D01*
X158726882Y-27816075D01*
X158711337Y-27797133D01*
X158692395Y-27781588D01*
X158670786Y-27770038D01*
X158559350Y-27723880D01*
X158521231Y-27708091D01*
X158472318Y-27675408D01*
X158373823Y-27609596D01*
X158248464Y-27484237D01*
X158149970Y-27336830D01*
X158082126Y-27173040D01*
X158047540Y-26999164D01*
X158047540Y-26821876D01*
X158082126Y-26648000D01*
X158149969Y-26484212D01*
X158149970Y-26484210D01*
X158248464Y-26336803D01*
X158373823Y-26211444D01*
X158521230Y-26112950D01*
X158541633Y-26104499D01*
X158685020Y-26045106D01*
X158858896Y-26010520D01*
X159036184Y-26010520D01*
X159210060Y-26045106D01*
X159210060Y-26045106D01*
G37*
G36*
X161710060Y-26045106D02*
G01*
X161853448Y-26104499D01*
X161873850Y-26112950D01*
X162021257Y-26211444D01*
X162146616Y-26336803D01*
X162245110Y-26484210D01*
X162245111Y-26484212D01*
X162312954Y-26648000D01*
X162347540Y-26821876D01*
X162347540Y-26999164D01*
X162312954Y-27173040D01*
X162245110Y-27336830D01*
X162146616Y-27484237D01*
X162021257Y-27609596D01*
X161873850Y-27708090D01*
X161710060Y-27775934D01*
X161681635Y-27781588D01*
X161649787Y-27787923D01*
X161626338Y-27795036D01*
X161604727Y-27806587D01*
X161585785Y-27822132D01*
X161570240Y-27841074D01*
X161558689Y-27862685D01*
X161551576Y-27886134D01*
X161549174Y-27910520D01*
X161551576Y-27934906D01*
X161558689Y-27958355D01*
X161570240Y-27979966D01*
X161585785Y-27998908D01*
X161604727Y-28014453D01*
X161626338Y-28026004D01*
X161649787Y-28033117D01*
X161672801Y-28037695D01*
X161710060Y-28045106D01*
X161873850Y-28112950D01*
X162021257Y-28211444D01*
X162146616Y-28336803D01*
X162245110Y-28484210D01*
X162245111Y-28484212D01*
X162312954Y-28648000D01*
X162338474Y-28776296D01*
X162347540Y-28821878D01*
X162347540Y-28999162D01*
X162312954Y-29173040D01*
X162245110Y-29336830D01*
X162146616Y-29484237D01*
X162021257Y-29609596D01*
X161873850Y-29708090D01*
X161873849Y-29708091D01*
X161873848Y-29708091D01*
X161710060Y-29775934D01*
X161536184Y-29810520D01*
X161358896Y-29810520D01*
X161185020Y-29775934D01*
X161021232Y-29708091D01*
X161021231Y-29708091D01*
X161021230Y-29708090D01*
X160873823Y-29609596D01*
X160748464Y-29484237D01*
X160649970Y-29336830D01*
X160582126Y-29173040D01*
X160547540Y-28999162D01*
X160547540Y-28821878D01*
X160556607Y-28776296D01*
X160582126Y-28648000D01*
X160649969Y-28484212D01*
X160649970Y-28484210D01*
X160748464Y-28336803D01*
X160873823Y-28211444D01*
X161021230Y-28112950D01*
X161185020Y-28045106D01*
X161222279Y-28037695D01*
X161245293Y-28033117D01*
X161268742Y-28026004D01*
X161290353Y-28014453D01*
X161309295Y-27998908D01*
X161324840Y-27979966D01*
X161336391Y-27958355D01*
X161343504Y-27934906D01*
X161345906Y-27910520D01*
X161343504Y-27886134D01*
X161336391Y-27862685D01*
X161324840Y-27841074D01*
X161309295Y-27822132D01*
X161290353Y-27806587D01*
X161268742Y-27795036D01*
X161245293Y-27787923D01*
X161213445Y-27781588D01*
X161185020Y-27775934D01*
X161021230Y-27708090D01*
X160873823Y-27609596D01*
X160748464Y-27484237D01*
X160649970Y-27336830D01*
X160582126Y-27173040D01*
X160547540Y-26999164D01*
X160547540Y-26821876D01*
X160582126Y-26648000D01*
X160649969Y-26484212D01*
X160649970Y-26484210D01*
X160748464Y-26336803D01*
X160873823Y-26211444D01*
X161021230Y-26112950D01*
X161041633Y-26104499D01*
X161185020Y-26045106D01*
X161358896Y-26010520D01*
X161536184Y-26010520D01*
X161710060Y-26045106D01*
X161710060Y-26045106D01*
G37*
G36*
X203675660Y-28571340D02*
G01*
X200075660Y-28571340D01*
X200075660Y-24971340D01*
X203675660Y-24971340D01*
X203675660Y-28571340D01*
X203675660Y-28571340D01*
G37*
G36*
X90754297Y-25155112D02*
G01*
X90954483Y-25238032D01*
X90954485Y-25238033D01*
X91045178Y-25298632D01*
X91134648Y-25358414D01*
X91287866Y-25511632D01*
X91408248Y-25691797D01*
X91491168Y-25891983D01*
X91533440Y-26104498D01*
X91533440Y-26321182D01*
X91491168Y-26533697D01*
X91443822Y-26648000D01*
X91408247Y-26733885D01*
X91287865Y-26914049D01*
X91134649Y-27067265D01*
X90954485Y-27187647D01*
X90954484Y-27187648D01*
X90954483Y-27187648D01*
X90754297Y-27270568D01*
X90541782Y-27312840D01*
X90325098Y-27312840D01*
X90112583Y-27270568D01*
X89912397Y-27187648D01*
X89912396Y-27187648D01*
X89912395Y-27187647D01*
X89732231Y-27067265D01*
X89579015Y-26914049D01*
X89458633Y-26733885D01*
X89423058Y-26648000D01*
X89375712Y-26533697D01*
X89333440Y-26321182D01*
X89333440Y-26104498D01*
X89375712Y-25891983D01*
X89458632Y-25691797D01*
X89579014Y-25511632D01*
X89732232Y-25358414D01*
X89821702Y-25298632D01*
X89912395Y-25238033D01*
X89912397Y-25238032D01*
X90112583Y-25155112D01*
X90325098Y-25112840D01*
X90541782Y-25112840D01*
X90754297Y-25155112D01*
X90754297Y-25155112D01*
G37*
G36*
X83744297Y-25155112D02*
G01*
X83944483Y-25238032D01*
X83944485Y-25238033D01*
X84035178Y-25298632D01*
X84124648Y-25358414D01*
X84277866Y-25511632D01*
X84398248Y-25691797D01*
X84481168Y-25891983D01*
X84523440Y-26104498D01*
X84523440Y-26321182D01*
X84481168Y-26533697D01*
X84433822Y-26648000D01*
X84398247Y-26733885D01*
X84277865Y-26914049D01*
X84124649Y-27067265D01*
X83944485Y-27187647D01*
X83944484Y-27187648D01*
X83944483Y-27187648D01*
X83744297Y-27270568D01*
X83531782Y-27312840D01*
X83315098Y-27312840D01*
X83102583Y-27270568D01*
X82902397Y-27187648D01*
X82902396Y-27187648D01*
X82902395Y-27187647D01*
X82722231Y-27067265D01*
X82569015Y-26914049D01*
X82448633Y-26733885D01*
X82413058Y-26648000D01*
X82365712Y-26533697D01*
X82323440Y-26321182D01*
X82323440Y-26104498D01*
X82365712Y-25891983D01*
X82448632Y-25691797D01*
X82569014Y-25511632D01*
X82722232Y-25358414D01*
X82811702Y-25298632D01*
X82902395Y-25238033D01*
X82902397Y-25238032D01*
X83102583Y-25155112D01*
X83315098Y-25112840D01*
X83531782Y-25112840D01*
X83744297Y-25155112D01*
X83744297Y-25155112D01*
G37*
G36*
X166568702Y-22435106D02*
G01*
X166742581Y-22469693D01*
X167070160Y-22605381D01*
X167364973Y-22802369D01*
X167615691Y-23053087D01*
X167812679Y-23347900D01*
X167948367Y-23675479D01*
X167975910Y-23813946D01*
X168011457Y-23992651D01*
X168017540Y-24023236D01*
X168017540Y-24377804D01*
X167948367Y-24725561D01*
X167812679Y-25053140D01*
X167615691Y-25347953D01*
X167364973Y-25598671D01*
X167070160Y-25795659D01*
X166742581Y-25931347D01*
X166568703Y-25965933D01*
X166394826Y-26000520D01*
X166040254Y-26000520D01*
X165866377Y-25965933D01*
X165692499Y-25931347D01*
X165364920Y-25795659D01*
X165070107Y-25598671D01*
X164819389Y-25347953D01*
X164622401Y-25053140D01*
X164486713Y-24725561D01*
X164417540Y-24377804D01*
X164417540Y-24023236D01*
X164423624Y-23992651D01*
X164459170Y-23813946D01*
X164486713Y-23675479D01*
X164622401Y-23347900D01*
X164819389Y-23053087D01*
X165070107Y-22802369D01*
X165364920Y-22605381D01*
X165692499Y-22469693D01*
X165866378Y-22435106D01*
X166040254Y-22400520D01*
X166394826Y-22400520D01*
X166568702Y-22435106D01*
X166568702Y-22435106D01*
G37*
G36*
X154528702Y-22435106D02*
G01*
X154702581Y-22469693D01*
X155030160Y-22605381D01*
X155324973Y-22802369D01*
X155575691Y-23053087D01*
X155772679Y-23347900D01*
X155908367Y-23675479D01*
X155935910Y-23813946D01*
X155971457Y-23992651D01*
X155977540Y-24023236D01*
X155977540Y-24377804D01*
X155908367Y-24725561D01*
X155772679Y-25053140D01*
X155575691Y-25347953D01*
X155324973Y-25598671D01*
X155030160Y-25795659D01*
X154702581Y-25931347D01*
X154528703Y-25965933D01*
X154354826Y-26000520D01*
X154000254Y-26000520D01*
X153826377Y-25965933D01*
X153652499Y-25931347D01*
X153324920Y-25795659D01*
X153030107Y-25598671D01*
X152779389Y-25347953D01*
X152582401Y-25053140D01*
X152446713Y-24725561D01*
X152377540Y-24377804D01*
X152377540Y-24023236D01*
X152383624Y-23992651D01*
X152419170Y-23813946D01*
X152446713Y-23675479D01*
X152582401Y-23347900D01*
X152779389Y-23053087D01*
X153030107Y-22802369D01*
X153324920Y-22605381D01*
X153652499Y-22469693D01*
X153826378Y-22435106D01*
X154000254Y-22400520D01*
X154354826Y-22400520D01*
X154528702Y-22435106D01*
X154528702Y-22435106D01*
G37*
G36*
X208375660Y-25571340D02*
G01*
X204775660Y-25571340D01*
X204775660Y-21971340D01*
X208375660Y-21971340D01*
X208375660Y-25571340D01*
X208375660Y-25571340D01*
G37*
G36*
X89324114Y-22809689D02*
G01*
X89443253Y-22833387D01*
X89611592Y-22903115D01*
X89763093Y-23004345D01*
X89891935Y-23133187D01*
X89993165Y-23284688D01*
X90062893Y-23453027D01*
X90098440Y-23631735D01*
X90098440Y-23813945D01*
X90062893Y-23992653D01*
X89993165Y-24160992D01*
X89891935Y-24312493D01*
X89763093Y-24441335D01*
X89611592Y-24542565D01*
X89443253Y-24612293D01*
X89324114Y-24635991D01*
X89264546Y-24647840D01*
X89082334Y-24647840D01*
X89022766Y-24635991D01*
X88903627Y-24612293D01*
X88735288Y-24542565D01*
X88583787Y-24441335D01*
X88454945Y-24312493D01*
X88353715Y-24160992D01*
X88283987Y-23992653D01*
X88248440Y-23813945D01*
X88248440Y-23631735D01*
X88283987Y-23453027D01*
X88353715Y-23284688D01*
X88454945Y-23133187D01*
X88583787Y-23004345D01*
X88735288Y-22903115D01*
X88903627Y-22833387D01*
X89022766Y-22809689D01*
X89082334Y-22797840D01*
X89264546Y-22797840D01*
X89324114Y-22809689D01*
X89324114Y-22809689D01*
G37*
G36*
X84824114Y-22809689D02*
G01*
X84943253Y-22833387D01*
X85111592Y-22903115D01*
X85263093Y-23004345D01*
X85391935Y-23133187D01*
X85493165Y-23284688D01*
X85562893Y-23453027D01*
X85598440Y-23631735D01*
X85598440Y-23813945D01*
X85562893Y-23992653D01*
X85493165Y-24160992D01*
X85391935Y-24312493D01*
X85263093Y-24441335D01*
X85111592Y-24542565D01*
X84943253Y-24612293D01*
X84824114Y-24635991D01*
X84764546Y-24647840D01*
X84582334Y-24647840D01*
X84522766Y-24635991D01*
X84403627Y-24612293D01*
X84235288Y-24542565D01*
X84083787Y-24441335D01*
X83954945Y-24312493D01*
X83853715Y-24160992D01*
X83783987Y-23992653D01*
X83748440Y-23813945D01*
X83748440Y-23631735D01*
X83783987Y-23453027D01*
X83853715Y-23284688D01*
X83954945Y-23133187D01*
X84083787Y-23004345D01*
X84235288Y-22903115D01*
X84403627Y-22833387D01*
X84522766Y-22809689D01*
X84582334Y-22797840D01*
X84764546Y-22797840D01*
X84824114Y-22809689D01*
X84824114Y-22809689D01*
G37*
M02*
