G04 #@! TF.GenerationSoftware,KiCad,Pcbnew,5.0.2-bee76a0~70~ubuntu18.04.1*
G04 #@! TF.CreationDate,2019-04-15T14:10:49+02:00*
G04 #@! TF.ProjectId,bottom-board,626f7474-6f6d-42d6-926f-6172642e6b69,rev?*
G04 #@! TF.SameCoordinates,Original*
G04 #@! TF.FileFunction,Soldermask,Bot*
G04 #@! TF.FilePolarity,Negative*
%FSLAX46Y46*%
G04 Gerber Fmt 4.6, Leading zero omitted, Abs format (unit mm)*
G04 Created by KiCad (PCBNEW 5.0.2-bee76a0~70~ubuntu18.04.1) date Mon 15 Apr 2019 02:10:49 PM CEST*
%MOMM*%
%LPD*%
G01*
G04 APERTURE LIST*
%ADD10C,0.100000*%
G04 APERTURE END LIST*
D10*
X228074346Y-32066366D02*
G75*
G02X232074346Y-36066366I0J-4000000D01*
G01*
X226074346Y-32066366D02*
G75*
G02X220074346Y-26066366I0J6000000D01*
G01*
X217574346Y-19566366D02*
G75*
G02X220074346Y-22066366I0J-2500000D01*
G01*
X72074346Y-22066366D02*
G75*
G02X74574346Y-19566366I2500000J0D01*
G01*
X72074346Y-26066366D02*
G75*
G02X66074346Y-32066366I-6000000J0D01*
G01*
X60074346Y-36066366D02*
G75*
G02X64074346Y-32066366I4000000J0D01*
G01*
X62574346Y-160066366D02*
G75*
G02X60074346Y-157566366I0J2500000D01*
G01*
X232074346Y-157566366D02*
G75*
G02X229574346Y-160066366I-2500000J0D01*
G01*
X232074350Y-36066368D02*
X232074350Y-157566368D01*
X226074345Y-32066363D02*
X228074349Y-32066363D01*
X220074348Y-22066365D02*
X220074348Y-26066366D01*
X74574344Y-19566368D02*
X217574343Y-19566368D01*
X72074346Y-26066366D02*
X72074346Y-22066365D01*
X64074345Y-32066363D02*
X66074349Y-32066363D01*
X60074344Y-157566368D02*
X60074344Y-36066368D01*
X229574345Y-160066369D02*
X62574349Y-160066369D01*
G36*
X226972881Y-142550755D02*
X227172518Y-142590465D01*
X227360573Y-142668360D01*
X227454601Y-142707308D01*
X227708471Y-142876938D01*
X227924362Y-143092829D01*
X228093992Y-143346699D01*
X228093992Y-143346700D01*
X228210835Y-143628782D01*
X228270400Y-143928238D01*
X228270400Y-144233562D01*
X228210835Y-144533018D01*
X228132940Y-144721073D01*
X228093992Y-144815101D01*
X227924362Y-145068971D01*
X227708471Y-145284862D01*
X227454601Y-145454492D01*
X227360573Y-145493440D01*
X227172518Y-145571335D01*
X226972881Y-145611045D01*
X226873063Y-145630900D01*
X226567737Y-145630900D01*
X226467919Y-145611045D01*
X226268282Y-145571335D01*
X226080227Y-145493440D01*
X225986199Y-145454492D01*
X225732329Y-145284862D01*
X225516438Y-145068971D01*
X225346808Y-144815101D01*
X225307860Y-144721073D01*
X225229965Y-144533018D01*
X225170400Y-144233562D01*
X225170400Y-143928238D01*
X225229965Y-143628782D01*
X225346808Y-143346700D01*
X225346808Y-143346699D01*
X225516438Y-143092829D01*
X225732329Y-142876938D01*
X225986199Y-142707308D01*
X226080227Y-142668360D01*
X226268282Y-142590465D01*
X226467919Y-142550755D01*
X226567737Y-142530900D01*
X226873063Y-142530900D01*
X226972881Y-142550755D01*
X226972881Y-142550755D01*
G37*
G36*
X220622881Y-142550755D02*
X220822518Y-142590465D01*
X221010573Y-142668360D01*
X221104601Y-142707308D01*
X221358471Y-142876938D01*
X221574362Y-143092829D01*
X221743992Y-143346699D01*
X221743992Y-143346700D01*
X221860835Y-143628782D01*
X221920400Y-143928238D01*
X221920400Y-144233562D01*
X221860835Y-144533018D01*
X221782940Y-144721073D01*
X221743992Y-144815101D01*
X221574362Y-145068971D01*
X221358471Y-145284862D01*
X221104601Y-145454492D01*
X221010573Y-145493440D01*
X220822518Y-145571335D01*
X220622881Y-145611045D01*
X220523063Y-145630900D01*
X220217737Y-145630900D01*
X220117919Y-145611045D01*
X219918282Y-145571335D01*
X219730227Y-145493440D01*
X219636199Y-145454492D01*
X219382329Y-145284862D01*
X219166438Y-145068971D01*
X218996808Y-144815101D01*
X218957860Y-144721073D01*
X218879965Y-144533018D01*
X218820400Y-144233562D01*
X218820400Y-143928238D01*
X218879965Y-143628782D01*
X218996808Y-143346700D01*
X218996808Y-143346699D01*
X219166438Y-143092829D01*
X219382329Y-142876938D01*
X219636199Y-142707308D01*
X219730227Y-142668360D01*
X219918282Y-142590465D01*
X220117919Y-142550755D01*
X220217737Y-142530900D01*
X220523063Y-142530900D01*
X220622881Y-142550755D01*
X220622881Y-142550755D01*
G37*
G36*
X214272881Y-142550755D02*
X214472518Y-142590465D01*
X214660573Y-142668360D01*
X214754601Y-142707308D01*
X215008471Y-142876938D01*
X215224362Y-143092829D01*
X215393992Y-143346699D01*
X215393992Y-143346700D01*
X215510835Y-143628782D01*
X215570400Y-143928238D01*
X215570400Y-144233562D01*
X215510835Y-144533018D01*
X215432940Y-144721073D01*
X215393992Y-144815101D01*
X215224362Y-145068971D01*
X215008471Y-145284862D01*
X214754601Y-145454492D01*
X214660573Y-145493440D01*
X214472518Y-145571335D01*
X214272881Y-145611045D01*
X214173063Y-145630900D01*
X213867737Y-145630900D01*
X213767919Y-145611045D01*
X213568282Y-145571335D01*
X213380227Y-145493440D01*
X213286199Y-145454492D01*
X213032329Y-145284862D01*
X212816438Y-145068971D01*
X212646808Y-144815101D01*
X212607860Y-144721073D01*
X212529965Y-144533018D01*
X212470400Y-144233562D01*
X212470400Y-143928238D01*
X212529965Y-143628782D01*
X212646808Y-143346700D01*
X212646808Y-143346699D01*
X212816438Y-143092829D01*
X213032329Y-142876938D01*
X213286199Y-142707308D01*
X213380227Y-142668360D01*
X213568282Y-142590465D01*
X213767919Y-142550755D01*
X213867737Y-142530900D01*
X214173063Y-142530900D01*
X214272881Y-142550755D01*
X214272881Y-142550755D01*
G37*
G36*
X65677801Y-142548815D02*
X65877438Y-142588525D01*
X66065493Y-142666420D01*
X66159521Y-142705368D01*
X66413391Y-142874998D01*
X66629282Y-143090889D01*
X66798912Y-143344759D01*
X66799716Y-143346700D01*
X66915755Y-143626842D01*
X66975320Y-143926298D01*
X66975320Y-144231622D01*
X66915755Y-144531078D01*
X66914951Y-144533018D01*
X66798912Y-144813161D01*
X66629282Y-145067031D01*
X66413391Y-145282922D01*
X66159521Y-145452552D01*
X66065493Y-145491500D01*
X65877438Y-145569395D01*
X65677801Y-145609105D01*
X65577983Y-145628960D01*
X65272657Y-145628960D01*
X65172839Y-145609105D01*
X64973202Y-145569395D01*
X64785147Y-145491500D01*
X64691119Y-145452552D01*
X64437249Y-145282922D01*
X64221358Y-145067031D01*
X64051728Y-144813161D01*
X63935689Y-144533018D01*
X63934885Y-144531078D01*
X63875320Y-144231622D01*
X63875320Y-143926298D01*
X63934885Y-143626842D01*
X64050924Y-143346700D01*
X64051728Y-143344759D01*
X64221358Y-143090889D01*
X64437249Y-142874998D01*
X64691119Y-142705368D01*
X64785147Y-142666420D01*
X64973202Y-142588525D01*
X65172839Y-142548815D01*
X65272657Y-142528960D01*
X65577983Y-142528960D01*
X65677801Y-142548815D01*
X65677801Y-142548815D01*
G37*
G36*
X72027801Y-142548815D02*
X72227438Y-142588525D01*
X72415493Y-142666420D01*
X72509521Y-142705368D01*
X72763391Y-142874998D01*
X72979282Y-143090889D01*
X73148912Y-143344759D01*
X73149716Y-143346700D01*
X73265755Y-143626842D01*
X73325320Y-143926298D01*
X73325320Y-144231622D01*
X73265755Y-144531078D01*
X73264951Y-144533018D01*
X73148912Y-144813161D01*
X72979282Y-145067031D01*
X72763391Y-145282922D01*
X72509521Y-145452552D01*
X72415493Y-145491500D01*
X72227438Y-145569395D01*
X72027801Y-145609105D01*
X71927983Y-145628960D01*
X71622657Y-145628960D01*
X71522839Y-145609105D01*
X71323202Y-145569395D01*
X71135147Y-145491500D01*
X71041119Y-145452552D01*
X70787249Y-145282922D01*
X70571358Y-145067031D01*
X70401728Y-144813161D01*
X70285689Y-144533018D01*
X70284885Y-144531078D01*
X70225320Y-144231622D01*
X70225320Y-143926298D01*
X70284885Y-143626842D01*
X70400924Y-143346700D01*
X70401728Y-143344759D01*
X70571358Y-143090889D01*
X70787249Y-142874998D01*
X71041119Y-142705368D01*
X71135147Y-142666420D01*
X71323202Y-142588525D01*
X71522839Y-142548815D01*
X71622657Y-142528960D01*
X71927983Y-142528960D01*
X72027801Y-142548815D01*
X72027801Y-142548815D01*
G37*
G36*
X78377801Y-142548815D02*
X78577438Y-142588525D01*
X78765493Y-142666420D01*
X78859521Y-142705368D01*
X79113391Y-142874998D01*
X79329282Y-143090889D01*
X79498912Y-143344759D01*
X79499716Y-143346700D01*
X79615755Y-143626842D01*
X79675320Y-143926298D01*
X79675320Y-144231622D01*
X79615755Y-144531078D01*
X79614951Y-144533018D01*
X79498912Y-144813161D01*
X79329282Y-145067031D01*
X79113391Y-145282922D01*
X78859521Y-145452552D01*
X78765493Y-145491500D01*
X78577438Y-145569395D01*
X78377801Y-145609105D01*
X78277983Y-145628960D01*
X77972657Y-145628960D01*
X77872839Y-145609105D01*
X77673202Y-145569395D01*
X77485147Y-145491500D01*
X77391119Y-145452552D01*
X77137249Y-145282922D01*
X76921358Y-145067031D01*
X76751728Y-144813161D01*
X76635689Y-144533018D01*
X76634885Y-144531078D01*
X76575320Y-144231622D01*
X76575320Y-143926298D01*
X76634885Y-143626842D01*
X76750924Y-143346700D01*
X76751728Y-143344759D01*
X76921358Y-143090889D01*
X77137249Y-142874998D01*
X77391119Y-142705368D01*
X77485147Y-142666420D01*
X77673202Y-142588525D01*
X77872839Y-142548815D01*
X77972657Y-142528960D01*
X78277983Y-142528960D01*
X78377801Y-142548815D01*
X78377801Y-142548815D01*
G37*
G36*
X226972881Y-126320755D02*
X227172518Y-126360465D01*
X227360573Y-126438360D01*
X227454601Y-126477308D01*
X227708471Y-126646938D01*
X227924362Y-126862829D01*
X228093992Y-127116699D01*
X228093992Y-127116700D01*
X228210835Y-127398782D01*
X228270400Y-127698238D01*
X228270400Y-128003562D01*
X228210835Y-128303018D01*
X228132940Y-128491073D01*
X228093992Y-128585101D01*
X227924362Y-128838971D01*
X227708471Y-129054862D01*
X227454601Y-129224492D01*
X227360573Y-129263440D01*
X227172518Y-129341335D01*
X226972881Y-129381045D01*
X226873063Y-129400900D01*
X226567737Y-129400900D01*
X226467919Y-129381045D01*
X226268282Y-129341335D01*
X226080227Y-129263440D01*
X225986199Y-129224492D01*
X225732329Y-129054862D01*
X225516438Y-128838971D01*
X225346808Y-128585101D01*
X225307860Y-128491073D01*
X225229965Y-128303018D01*
X225170400Y-128003562D01*
X225170400Y-127698238D01*
X225229965Y-127398782D01*
X225346808Y-127116700D01*
X225346808Y-127116699D01*
X225516438Y-126862829D01*
X225732329Y-126646938D01*
X225986199Y-126477308D01*
X226080227Y-126438360D01*
X226268282Y-126360465D01*
X226467919Y-126320755D01*
X226567737Y-126300900D01*
X226873063Y-126300900D01*
X226972881Y-126320755D01*
X226972881Y-126320755D01*
G37*
G36*
X214272881Y-126320755D02*
X214472518Y-126360465D01*
X214660573Y-126438360D01*
X214754601Y-126477308D01*
X215008471Y-126646938D01*
X215224362Y-126862829D01*
X215393992Y-127116699D01*
X215393992Y-127116700D01*
X215510835Y-127398782D01*
X215570400Y-127698238D01*
X215570400Y-128003562D01*
X215510835Y-128303018D01*
X215432940Y-128491073D01*
X215393992Y-128585101D01*
X215224362Y-128838971D01*
X215008471Y-129054862D01*
X214754601Y-129224492D01*
X214660573Y-129263440D01*
X214472518Y-129341335D01*
X214272881Y-129381045D01*
X214173063Y-129400900D01*
X213867737Y-129400900D01*
X213767919Y-129381045D01*
X213568282Y-129341335D01*
X213380227Y-129263440D01*
X213286199Y-129224492D01*
X213032329Y-129054862D01*
X212816438Y-128838971D01*
X212646808Y-128585101D01*
X212607860Y-128491073D01*
X212529965Y-128303018D01*
X212470400Y-128003562D01*
X212470400Y-127698238D01*
X212529965Y-127398782D01*
X212646808Y-127116700D01*
X212646808Y-127116699D01*
X212816438Y-126862829D01*
X213032329Y-126646938D01*
X213286199Y-126477308D01*
X213380227Y-126438360D01*
X213568282Y-126360465D01*
X213767919Y-126320755D01*
X213867737Y-126300900D01*
X214173063Y-126300900D01*
X214272881Y-126320755D01*
X214272881Y-126320755D01*
G37*
G36*
X220622881Y-126320755D02*
X220822518Y-126360465D01*
X221010573Y-126438360D01*
X221104601Y-126477308D01*
X221358471Y-126646938D01*
X221574362Y-126862829D01*
X221743992Y-127116699D01*
X221743992Y-127116700D01*
X221860835Y-127398782D01*
X221920400Y-127698238D01*
X221920400Y-128003562D01*
X221860835Y-128303018D01*
X221782940Y-128491073D01*
X221743992Y-128585101D01*
X221574362Y-128838971D01*
X221358471Y-129054862D01*
X221104601Y-129224492D01*
X221010573Y-129263440D01*
X220822518Y-129341335D01*
X220622881Y-129381045D01*
X220523063Y-129400900D01*
X220217737Y-129400900D01*
X220117919Y-129381045D01*
X219918282Y-129341335D01*
X219730227Y-129263440D01*
X219636199Y-129224492D01*
X219382329Y-129054862D01*
X219166438Y-128838971D01*
X218996808Y-128585101D01*
X218957860Y-128491073D01*
X218879965Y-128303018D01*
X218820400Y-128003562D01*
X218820400Y-127698238D01*
X218879965Y-127398782D01*
X218996808Y-127116700D01*
X218996808Y-127116699D01*
X219166438Y-126862829D01*
X219382329Y-126646938D01*
X219636199Y-126477308D01*
X219730227Y-126438360D01*
X219918282Y-126360465D01*
X220117919Y-126320755D01*
X220217737Y-126300900D01*
X220523063Y-126300900D01*
X220622881Y-126320755D01*
X220622881Y-126320755D01*
G37*
G36*
X78377801Y-126318815D02*
X78577438Y-126358525D01*
X78765493Y-126436420D01*
X78859521Y-126475368D01*
X79113391Y-126644998D01*
X79329282Y-126860889D01*
X79498912Y-127114759D01*
X79499716Y-127116700D01*
X79615755Y-127396842D01*
X79675320Y-127696298D01*
X79675320Y-128001622D01*
X79615755Y-128301078D01*
X79614951Y-128303018D01*
X79498912Y-128583161D01*
X79329282Y-128837031D01*
X79113391Y-129052922D01*
X78859521Y-129222552D01*
X78765493Y-129261500D01*
X78577438Y-129339395D01*
X78377801Y-129379105D01*
X78277983Y-129398960D01*
X77972657Y-129398960D01*
X77872839Y-129379105D01*
X77673202Y-129339395D01*
X77485147Y-129261500D01*
X77391119Y-129222552D01*
X77137249Y-129052922D01*
X76921358Y-128837031D01*
X76751728Y-128583161D01*
X76635689Y-128303018D01*
X76634885Y-128301078D01*
X76575320Y-128001622D01*
X76575320Y-127696298D01*
X76634885Y-127396842D01*
X76750924Y-127116700D01*
X76751728Y-127114759D01*
X76921358Y-126860889D01*
X77137249Y-126644998D01*
X77391119Y-126475368D01*
X77485147Y-126436420D01*
X77673202Y-126358525D01*
X77872839Y-126318815D01*
X77972657Y-126298960D01*
X78277983Y-126298960D01*
X78377801Y-126318815D01*
X78377801Y-126318815D01*
G37*
G36*
X65677801Y-126318815D02*
X65877438Y-126358525D01*
X66065493Y-126436420D01*
X66159521Y-126475368D01*
X66413391Y-126644998D01*
X66629282Y-126860889D01*
X66798912Y-127114759D01*
X66799716Y-127116700D01*
X66915755Y-127396842D01*
X66975320Y-127696298D01*
X66975320Y-128001622D01*
X66915755Y-128301078D01*
X66914951Y-128303018D01*
X66798912Y-128583161D01*
X66629282Y-128837031D01*
X66413391Y-129052922D01*
X66159521Y-129222552D01*
X66065493Y-129261500D01*
X65877438Y-129339395D01*
X65677801Y-129379105D01*
X65577983Y-129398960D01*
X65272657Y-129398960D01*
X65172839Y-129379105D01*
X64973202Y-129339395D01*
X64785147Y-129261500D01*
X64691119Y-129222552D01*
X64437249Y-129052922D01*
X64221358Y-128837031D01*
X64051728Y-128583161D01*
X63935689Y-128303018D01*
X63934885Y-128301078D01*
X63875320Y-128001622D01*
X63875320Y-127696298D01*
X63934885Y-127396842D01*
X64050924Y-127116700D01*
X64051728Y-127114759D01*
X64221358Y-126860889D01*
X64437249Y-126644998D01*
X64691119Y-126475368D01*
X64785147Y-126436420D01*
X64973202Y-126358525D01*
X65172839Y-126318815D01*
X65272657Y-126298960D01*
X65577983Y-126298960D01*
X65677801Y-126318815D01*
X65677801Y-126318815D01*
G37*
G36*
X72027801Y-126318815D02*
X72227438Y-126358525D01*
X72415493Y-126436420D01*
X72509521Y-126475368D01*
X72763391Y-126644998D01*
X72979282Y-126860889D01*
X73148912Y-127114759D01*
X73149716Y-127116700D01*
X73265755Y-127396842D01*
X73325320Y-127696298D01*
X73325320Y-128001622D01*
X73265755Y-128301078D01*
X73264951Y-128303018D01*
X73148912Y-128583161D01*
X72979282Y-128837031D01*
X72763391Y-129052922D01*
X72509521Y-129222552D01*
X72415493Y-129261500D01*
X72227438Y-129339395D01*
X72027801Y-129379105D01*
X71927983Y-129398960D01*
X71622657Y-129398960D01*
X71522839Y-129379105D01*
X71323202Y-129339395D01*
X71135147Y-129261500D01*
X71041119Y-129222552D01*
X70787249Y-129052922D01*
X70571358Y-128837031D01*
X70401728Y-128583161D01*
X70285689Y-128303018D01*
X70284885Y-128301078D01*
X70225320Y-128001622D01*
X70225320Y-127696298D01*
X70284885Y-127396842D01*
X70400924Y-127116700D01*
X70401728Y-127114759D01*
X70571358Y-126860889D01*
X70787249Y-126644998D01*
X71041119Y-126475368D01*
X71135147Y-126436420D01*
X71323202Y-126358525D01*
X71522839Y-126318815D01*
X71622657Y-126298960D01*
X71927983Y-126298960D01*
X72027801Y-126318815D01*
X72027801Y-126318815D01*
G37*
G36*
X78377801Y-122350735D02*
X78577438Y-122390445D01*
X78765493Y-122468340D01*
X78859521Y-122507288D01*
X79113391Y-122676918D01*
X79329282Y-122892809D01*
X79498912Y-123146679D01*
X79498912Y-123146680D01*
X79615755Y-123428762D01*
X79675320Y-123728218D01*
X79675320Y-124033542D01*
X79615755Y-124332998D01*
X79537860Y-124521053D01*
X79498912Y-124615081D01*
X79329282Y-124868951D01*
X79113391Y-125084842D01*
X78859521Y-125254472D01*
X78765493Y-125293420D01*
X78577438Y-125371315D01*
X78377801Y-125411025D01*
X78277983Y-125430880D01*
X77972657Y-125430880D01*
X77872839Y-125411025D01*
X77673202Y-125371315D01*
X77485147Y-125293420D01*
X77391119Y-125254472D01*
X77137249Y-125084842D01*
X76921358Y-124868951D01*
X76751728Y-124615081D01*
X76712780Y-124521053D01*
X76634885Y-124332998D01*
X76575320Y-124033542D01*
X76575320Y-123728218D01*
X76634885Y-123428762D01*
X76751728Y-123146680D01*
X76751728Y-123146679D01*
X76921358Y-122892809D01*
X77137249Y-122676918D01*
X77391119Y-122507288D01*
X77485147Y-122468340D01*
X77673202Y-122390445D01*
X77872839Y-122350735D01*
X77972657Y-122330880D01*
X78277983Y-122330880D01*
X78377801Y-122350735D01*
X78377801Y-122350735D01*
G37*
G36*
X72027801Y-122350735D02*
X72227438Y-122390445D01*
X72415493Y-122468340D01*
X72509521Y-122507288D01*
X72763391Y-122676918D01*
X72979282Y-122892809D01*
X73148912Y-123146679D01*
X73148912Y-123146680D01*
X73265755Y-123428762D01*
X73325320Y-123728218D01*
X73325320Y-124033542D01*
X73265755Y-124332998D01*
X73187860Y-124521053D01*
X73148912Y-124615081D01*
X72979282Y-124868951D01*
X72763391Y-125084842D01*
X72509521Y-125254472D01*
X72415493Y-125293420D01*
X72227438Y-125371315D01*
X72027801Y-125411025D01*
X71927983Y-125430880D01*
X71622657Y-125430880D01*
X71522839Y-125411025D01*
X71323202Y-125371315D01*
X71135147Y-125293420D01*
X71041119Y-125254472D01*
X70787249Y-125084842D01*
X70571358Y-124868951D01*
X70401728Y-124615081D01*
X70362780Y-124521053D01*
X70284885Y-124332998D01*
X70225320Y-124033542D01*
X70225320Y-123728218D01*
X70284885Y-123428762D01*
X70401728Y-123146680D01*
X70401728Y-123146679D01*
X70571358Y-122892809D01*
X70787249Y-122676918D01*
X71041119Y-122507288D01*
X71135147Y-122468340D01*
X71323202Y-122390445D01*
X71522839Y-122350735D01*
X71622657Y-122330880D01*
X71927983Y-122330880D01*
X72027801Y-122350735D01*
X72027801Y-122350735D01*
G37*
G36*
X65677801Y-122350735D02*
X65877438Y-122390445D01*
X66065493Y-122468340D01*
X66159521Y-122507288D01*
X66413391Y-122676918D01*
X66629282Y-122892809D01*
X66798912Y-123146679D01*
X66798912Y-123146680D01*
X66915755Y-123428762D01*
X66975320Y-123728218D01*
X66975320Y-124033542D01*
X66915755Y-124332998D01*
X66837860Y-124521053D01*
X66798912Y-124615081D01*
X66629282Y-124868951D01*
X66413391Y-125084842D01*
X66159521Y-125254472D01*
X66065493Y-125293420D01*
X65877438Y-125371315D01*
X65677801Y-125411025D01*
X65577983Y-125430880D01*
X65272657Y-125430880D01*
X65172839Y-125411025D01*
X64973202Y-125371315D01*
X64785147Y-125293420D01*
X64691119Y-125254472D01*
X64437249Y-125084842D01*
X64221358Y-124868951D01*
X64051728Y-124615081D01*
X64012780Y-124521053D01*
X63934885Y-124332998D01*
X63875320Y-124033542D01*
X63875320Y-123728218D01*
X63934885Y-123428762D01*
X64051728Y-123146680D01*
X64051728Y-123146679D01*
X64221358Y-122892809D01*
X64437249Y-122676918D01*
X64691119Y-122507288D01*
X64785147Y-122468340D01*
X64973202Y-122390445D01*
X65172839Y-122350735D01*
X65272657Y-122330880D01*
X65577983Y-122330880D01*
X65677801Y-122350735D01*
X65677801Y-122350735D01*
G37*
G36*
X220551618Y-122330880D02*
X220822518Y-122384765D01*
X221010573Y-122462660D01*
X221104601Y-122501608D01*
X221358471Y-122671238D01*
X221574362Y-122887129D01*
X221743992Y-123140999D01*
X221746345Y-123146680D01*
X221860835Y-123423082D01*
X221920400Y-123722538D01*
X221920400Y-124027862D01*
X221860835Y-124327318D01*
X221782940Y-124515373D01*
X221743992Y-124609401D01*
X221574362Y-124863271D01*
X221358471Y-125079162D01*
X221104601Y-125248792D01*
X221010573Y-125287740D01*
X220822518Y-125365635D01*
X220622881Y-125405345D01*
X220523063Y-125425200D01*
X220217737Y-125425200D01*
X220117919Y-125405345D01*
X219918282Y-125365635D01*
X219730227Y-125287740D01*
X219636199Y-125248792D01*
X219382329Y-125079162D01*
X219166438Y-124863271D01*
X218996808Y-124609401D01*
X218957860Y-124515373D01*
X218879965Y-124327318D01*
X218820400Y-124027862D01*
X218820400Y-123722538D01*
X218879965Y-123423082D01*
X218994455Y-123146680D01*
X218996808Y-123140999D01*
X219166438Y-122887129D01*
X219382329Y-122671238D01*
X219636199Y-122501608D01*
X219730227Y-122462660D01*
X219918282Y-122384765D01*
X220189182Y-122330880D01*
X220217737Y-122325200D01*
X220523063Y-122325200D01*
X220551618Y-122330880D01*
X220551618Y-122330880D01*
G37*
G36*
X226901618Y-122330880D02*
X227172518Y-122384765D01*
X227360573Y-122462660D01*
X227454601Y-122501608D01*
X227708471Y-122671238D01*
X227924362Y-122887129D01*
X228093992Y-123140999D01*
X228096345Y-123146680D01*
X228210835Y-123423082D01*
X228270400Y-123722538D01*
X228270400Y-124027862D01*
X228210835Y-124327318D01*
X228132940Y-124515373D01*
X228093992Y-124609401D01*
X227924362Y-124863271D01*
X227708471Y-125079162D01*
X227454601Y-125248792D01*
X227360573Y-125287740D01*
X227172518Y-125365635D01*
X226972881Y-125405345D01*
X226873063Y-125425200D01*
X226567737Y-125425200D01*
X226467919Y-125405345D01*
X226268282Y-125365635D01*
X226080227Y-125287740D01*
X225986199Y-125248792D01*
X225732329Y-125079162D01*
X225516438Y-124863271D01*
X225346808Y-124609401D01*
X225307860Y-124515373D01*
X225229965Y-124327318D01*
X225170400Y-124027862D01*
X225170400Y-123722538D01*
X225229965Y-123423082D01*
X225344455Y-123146680D01*
X225346808Y-123140999D01*
X225516438Y-122887129D01*
X225732329Y-122671238D01*
X225986199Y-122501608D01*
X226080227Y-122462660D01*
X226268282Y-122384765D01*
X226539182Y-122330880D01*
X226567737Y-122325200D01*
X226873063Y-122325200D01*
X226901618Y-122330880D01*
X226901618Y-122330880D01*
G37*
G36*
X214201618Y-122330880D02*
X214472518Y-122384765D01*
X214660573Y-122462660D01*
X214754601Y-122501608D01*
X215008471Y-122671238D01*
X215224362Y-122887129D01*
X215393992Y-123140999D01*
X215396345Y-123146680D01*
X215510835Y-123423082D01*
X215570400Y-123722538D01*
X215570400Y-124027862D01*
X215510835Y-124327318D01*
X215432940Y-124515373D01*
X215393992Y-124609401D01*
X215224362Y-124863271D01*
X215008471Y-125079162D01*
X214754601Y-125248792D01*
X214660573Y-125287740D01*
X214472518Y-125365635D01*
X214272881Y-125405345D01*
X214173063Y-125425200D01*
X213867737Y-125425200D01*
X213767919Y-125405345D01*
X213568282Y-125365635D01*
X213380227Y-125287740D01*
X213286199Y-125248792D01*
X213032329Y-125079162D01*
X212816438Y-124863271D01*
X212646808Y-124609401D01*
X212607860Y-124515373D01*
X212529965Y-124327318D01*
X212470400Y-124027862D01*
X212470400Y-123722538D01*
X212529965Y-123423082D01*
X212644455Y-123146680D01*
X212646808Y-123140999D01*
X212816438Y-122887129D01*
X213032329Y-122671238D01*
X213286199Y-122501608D01*
X213380227Y-122462660D01*
X213568282Y-122384765D01*
X213839182Y-122330880D01*
X213867737Y-122325200D01*
X214173063Y-122325200D01*
X214201618Y-122330880D01*
X214201618Y-122330880D01*
G37*
G36*
X65677801Y-106120735D02*
X65877438Y-106160445D01*
X66065493Y-106238340D01*
X66159521Y-106277288D01*
X66413391Y-106446918D01*
X66629282Y-106662809D01*
X66798912Y-106916679D01*
X66798912Y-106916680D01*
X66915755Y-107198762D01*
X66975320Y-107498218D01*
X66975320Y-107803542D01*
X66915755Y-108102998D01*
X66837860Y-108291053D01*
X66798912Y-108385081D01*
X66629282Y-108638951D01*
X66413391Y-108854842D01*
X66159521Y-109024472D01*
X66065493Y-109063420D01*
X65877438Y-109141315D01*
X65677801Y-109181025D01*
X65577983Y-109200880D01*
X65272657Y-109200880D01*
X65172839Y-109181025D01*
X64973202Y-109141315D01*
X64785147Y-109063420D01*
X64691119Y-109024472D01*
X64437249Y-108854842D01*
X64221358Y-108638951D01*
X64051728Y-108385081D01*
X64012780Y-108291053D01*
X63934885Y-108102998D01*
X63875320Y-107803542D01*
X63875320Y-107498218D01*
X63934885Y-107198762D01*
X64051728Y-106916680D01*
X64051728Y-106916679D01*
X64221358Y-106662809D01*
X64437249Y-106446918D01*
X64691119Y-106277288D01*
X64785147Y-106238340D01*
X64973202Y-106160445D01*
X65172839Y-106120735D01*
X65272657Y-106100880D01*
X65577983Y-106100880D01*
X65677801Y-106120735D01*
X65677801Y-106120735D01*
G37*
G36*
X78377801Y-106120735D02*
X78577438Y-106160445D01*
X78765493Y-106238340D01*
X78859521Y-106277288D01*
X79113391Y-106446918D01*
X79329282Y-106662809D01*
X79498912Y-106916679D01*
X79498912Y-106916680D01*
X79615755Y-107198762D01*
X79675320Y-107498218D01*
X79675320Y-107803542D01*
X79615755Y-108102998D01*
X79537860Y-108291053D01*
X79498912Y-108385081D01*
X79329282Y-108638951D01*
X79113391Y-108854842D01*
X78859521Y-109024472D01*
X78765493Y-109063420D01*
X78577438Y-109141315D01*
X78377801Y-109181025D01*
X78277983Y-109200880D01*
X77972657Y-109200880D01*
X77872839Y-109181025D01*
X77673202Y-109141315D01*
X77485147Y-109063420D01*
X77391119Y-109024472D01*
X77137249Y-108854842D01*
X76921358Y-108638951D01*
X76751728Y-108385081D01*
X76712780Y-108291053D01*
X76634885Y-108102998D01*
X76575320Y-107803542D01*
X76575320Y-107498218D01*
X76634885Y-107198762D01*
X76751728Y-106916680D01*
X76751728Y-106916679D01*
X76921358Y-106662809D01*
X77137249Y-106446918D01*
X77391119Y-106277288D01*
X77485147Y-106238340D01*
X77673202Y-106160445D01*
X77872839Y-106120735D01*
X77972657Y-106100880D01*
X78277983Y-106100880D01*
X78377801Y-106120735D01*
X78377801Y-106120735D01*
G37*
G36*
X72027801Y-106120735D02*
X72227438Y-106160445D01*
X72415493Y-106238340D01*
X72509521Y-106277288D01*
X72763391Y-106446918D01*
X72979282Y-106662809D01*
X73148912Y-106916679D01*
X73148912Y-106916680D01*
X73265755Y-107198762D01*
X73325320Y-107498218D01*
X73325320Y-107803542D01*
X73265755Y-108102998D01*
X73187860Y-108291053D01*
X73148912Y-108385081D01*
X72979282Y-108638951D01*
X72763391Y-108854842D01*
X72509521Y-109024472D01*
X72415493Y-109063420D01*
X72227438Y-109141315D01*
X72027801Y-109181025D01*
X71927983Y-109200880D01*
X71622657Y-109200880D01*
X71522839Y-109181025D01*
X71323202Y-109141315D01*
X71135147Y-109063420D01*
X71041119Y-109024472D01*
X70787249Y-108854842D01*
X70571358Y-108638951D01*
X70401728Y-108385081D01*
X70362780Y-108291053D01*
X70284885Y-108102998D01*
X70225320Y-107803542D01*
X70225320Y-107498218D01*
X70284885Y-107198762D01*
X70401728Y-106916680D01*
X70401728Y-106916679D01*
X70571358Y-106662809D01*
X70787249Y-106446918D01*
X71041119Y-106277288D01*
X71135147Y-106238340D01*
X71323202Y-106160445D01*
X71522839Y-106120735D01*
X71622657Y-106100880D01*
X71927983Y-106100880D01*
X72027801Y-106120735D01*
X72027801Y-106120735D01*
G37*
G36*
X226901618Y-106100880D02*
X227172518Y-106154765D01*
X227360573Y-106232660D01*
X227454601Y-106271608D01*
X227708471Y-106441238D01*
X227924362Y-106657129D01*
X228093992Y-106910999D01*
X228096345Y-106916680D01*
X228210835Y-107193082D01*
X228270400Y-107492538D01*
X228270400Y-107797862D01*
X228210835Y-108097318D01*
X228132940Y-108285373D01*
X228093992Y-108379401D01*
X227924362Y-108633271D01*
X227708471Y-108849162D01*
X227454601Y-109018792D01*
X227360573Y-109057740D01*
X227172518Y-109135635D01*
X226972881Y-109175345D01*
X226873063Y-109195200D01*
X226567737Y-109195200D01*
X226467919Y-109175345D01*
X226268282Y-109135635D01*
X226080227Y-109057740D01*
X225986199Y-109018792D01*
X225732329Y-108849162D01*
X225516438Y-108633271D01*
X225346808Y-108379401D01*
X225307860Y-108285373D01*
X225229965Y-108097318D01*
X225170400Y-107797862D01*
X225170400Y-107492538D01*
X225229965Y-107193082D01*
X225344455Y-106916680D01*
X225346808Y-106910999D01*
X225516438Y-106657129D01*
X225732329Y-106441238D01*
X225986199Y-106271608D01*
X226080227Y-106232660D01*
X226268282Y-106154765D01*
X226539182Y-106100880D01*
X226567737Y-106095200D01*
X226873063Y-106095200D01*
X226901618Y-106100880D01*
X226901618Y-106100880D01*
G37*
G36*
X214201618Y-106100880D02*
X214472518Y-106154765D01*
X214660573Y-106232660D01*
X214754601Y-106271608D01*
X215008471Y-106441238D01*
X215224362Y-106657129D01*
X215393992Y-106910999D01*
X215396345Y-106916680D01*
X215510835Y-107193082D01*
X215570400Y-107492538D01*
X215570400Y-107797862D01*
X215510835Y-108097318D01*
X215432940Y-108285373D01*
X215393992Y-108379401D01*
X215224362Y-108633271D01*
X215008471Y-108849162D01*
X214754601Y-109018792D01*
X214660573Y-109057740D01*
X214472518Y-109135635D01*
X214272881Y-109175345D01*
X214173063Y-109195200D01*
X213867737Y-109195200D01*
X213767919Y-109175345D01*
X213568282Y-109135635D01*
X213380227Y-109057740D01*
X213286199Y-109018792D01*
X213032329Y-108849162D01*
X212816438Y-108633271D01*
X212646808Y-108379401D01*
X212607860Y-108285373D01*
X212529965Y-108097318D01*
X212470400Y-107797862D01*
X212470400Y-107492538D01*
X212529965Y-107193082D01*
X212644455Y-106916680D01*
X212646808Y-106910999D01*
X212816438Y-106657129D01*
X213032329Y-106441238D01*
X213286199Y-106271608D01*
X213380227Y-106232660D01*
X213568282Y-106154765D01*
X213839182Y-106100880D01*
X213867737Y-106095200D01*
X214173063Y-106095200D01*
X214201618Y-106100880D01*
X214201618Y-106100880D01*
G37*
G36*
X220551618Y-106100880D02*
X220822518Y-106154765D01*
X221010573Y-106232660D01*
X221104601Y-106271608D01*
X221358471Y-106441238D01*
X221574362Y-106657129D01*
X221743992Y-106910999D01*
X221746345Y-106916680D01*
X221860835Y-107193082D01*
X221920400Y-107492538D01*
X221920400Y-107797862D01*
X221860835Y-108097318D01*
X221782940Y-108285373D01*
X221743992Y-108379401D01*
X221574362Y-108633271D01*
X221358471Y-108849162D01*
X221104601Y-109018792D01*
X221010573Y-109057740D01*
X220822518Y-109135635D01*
X220622881Y-109175345D01*
X220523063Y-109195200D01*
X220217737Y-109195200D01*
X220117919Y-109175345D01*
X219918282Y-109135635D01*
X219730227Y-109057740D01*
X219636199Y-109018792D01*
X219382329Y-108849162D01*
X219166438Y-108633271D01*
X218996808Y-108379401D01*
X218957860Y-108285373D01*
X218879965Y-108097318D01*
X218820400Y-107797862D01*
X218820400Y-107492538D01*
X218879965Y-107193082D01*
X218994455Y-106916680D01*
X218996808Y-106910999D01*
X219166438Y-106657129D01*
X219382329Y-106441238D01*
X219636199Y-106271608D01*
X219730227Y-106232660D01*
X219918282Y-106154765D01*
X220189182Y-106100880D01*
X220217737Y-106095200D01*
X220523063Y-106095200D01*
X220551618Y-106100880D01*
X220551618Y-106100880D01*
G37*
G36*
X65677801Y-94151655D02*
X65877438Y-94191365D01*
X66065493Y-94269260D01*
X66159521Y-94308208D01*
X66413391Y-94477838D01*
X66629282Y-94693729D01*
X66798912Y-94947599D01*
X66798912Y-94947600D01*
X66915755Y-95229682D01*
X66975320Y-95529138D01*
X66975320Y-95834462D01*
X66915755Y-96133918D01*
X66837860Y-96321973D01*
X66798912Y-96416001D01*
X66629282Y-96669871D01*
X66413391Y-96885762D01*
X66159521Y-97055392D01*
X66065493Y-97094340D01*
X65877438Y-97172235D01*
X65677801Y-97211945D01*
X65577983Y-97231800D01*
X65272657Y-97231800D01*
X65172839Y-97211945D01*
X64973202Y-97172235D01*
X64785147Y-97094340D01*
X64691119Y-97055392D01*
X64437249Y-96885762D01*
X64221358Y-96669871D01*
X64051728Y-96416001D01*
X64012780Y-96321973D01*
X63934885Y-96133918D01*
X63875320Y-95834462D01*
X63875320Y-95529138D01*
X63934885Y-95229682D01*
X64051728Y-94947600D01*
X64051728Y-94947599D01*
X64221358Y-94693729D01*
X64437249Y-94477838D01*
X64691119Y-94308208D01*
X64785147Y-94269260D01*
X64973202Y-94191365D01*
X65172839Y-94151655D01*
X65272657Y-94131800D01*
X65577983Y-94131800D01*
X65677801Y-94151655D01*
X65677801Y-94151655D01*
G37*
G36*
X78377801Y-94151655D02*
X78577438Y-94191365D01*
X78765493Y-94269260D01*
X78859521Y-94308208D01*
X79113391Y-94477838D01*
X79329282Y-94693729D01*
X79498912Y-94947599D01*
X79498912Y-94947600D01*
X79615755Y-95229682D01*
X79675320Y-95529138D01*
X79675320Y-95834462D01*
X79615755Y-96133918D01*
X79537860Y-96321973D01*
X79498912Y-96416001D01*
X79329282Y-96669871D01*
X79113391Y-96885762D01*
X78859521Y-97055392D01*
X78765493Y-97094340D01*
X78577438Y-97172235D01*
X78377801Y-97211945D01*
X78277983Y-97231800D01*
X77972657Y-97231800D01*
X77872839Y-97211945D01*
X77673202Y-97172235D01*
X77485147Y-97094340D01*
X77391119Y-97055392D01*
X77137249Y-96885762D01*
X76921358Y-96669871D01*
X76751728Y-96416001D01*
X76712780Y-96321973D01*
X76634885Y-96133918D01*
X76575320Y-95834462D01*
X76575320Y-95529138D01*
X76634885Y-95229682D01*
X76751728Y-94947600D01*
X76751728Y-94947599D01*
X76921358Y-94693729D01*
X77137249Y-94477838D01*
X77391119Y-94308208D01*
X77485147Y-94269260D01*
X77673202Y-94191365D01*
X77872839Y-94151655D01*
X77972657Y-94131800D01*
X78277983Y-94131800D01*
X78377801Y-94151655D01*
X78377801Y-94151655D01*
G37*
G36*
X72027801Y-94151655D02*
X72227438Y-94191365D01*
X72415493Y-94269260D01*
X72509521Y-94308208D01*
X72763391Y-94477838D01*
X72979282Y-94693729D01*
X73148912Y-94947599D01*
X73148912Y-94947600D01*
X73265755Y-95229682D01*
X73325320Y-95529138D01*
X73325320Y-95834462D01*
X73265755Y-96133918D01*
X73187860Y-96321973D01*
X73148912Y-96416001D01*
X72979282Y-96669871D01*
X72763391Y-96885762D01*
X72509521Y-97055392D01*
X72415493Y-97094340D01*
X72227438Y-97172235D01*
X72027801Y-97211945D01*
X71927983Y-97231800D01*
X71622657Y-97231800D01*
X71522839Y-97211945D01*
X71323202Y-97172235D01*
X71135147Y-97094340D01*
X71041119Y-97055392D01*
X70787249Y-96885762D01*
X70571358Y-96669871D01*
X70401728Y-96416001D01*
X70362780Y-96321973D01*
X70284885Y-96133918D01*
X70225320Y-95834462D01*
X70225320Y-95529138D01*
X70284885Y-95229682D01*
X70401728Y-94947600D01*
X70401728Y-94947599D01*
X70571358Y-94693729D01*
X70787249Y-94477838D01*
X71041119Y-94308208D01*
X71135147Y-94269260D01*
X71323202Y-94191365D01*
X71522839Y-94151655D01*
X71622657Y-94131800D01*
X71927983Y-94131800D01*
X72027801Y-94151655D01*
X72027801Y-94151655D01*
G37*
G36*
X65677801Y-77921655D02*
X65877438Y-77961365D01*
X66065493Y-78039260D01*
X66159521Y-78078208D01*
X66413391Y-78247838D01*
X66629282Y-78463729D01*
X66798912Y-78717599D01*
X66798912Y-78717600D01*
X66915755Y-78999682D01*
X66975320Y-79299138D01*
X66975320Y-79604462D01*
X66915755Y-79903918D01*
X66837860Y-80091973D01*
X66798912Y-80186001D01*
X66629282Y-80439871D01*
X66413391Y-80655762D01*
X66159521Y-80825392D01*
X66065493Y-80864340D01*
X65877438Y-80942235D01*
X65677801Y-80981945D01*
X65577983Y-81001800D01*
X65272657Y-81001800D01*
X65172839Y-80981945D01*
X64973202Y-80942235D01*
X64785147Y-80864340D01*
X64691119Y-80825392D01*
X64437249Y-80655762D01*
X64221358Y-80439871D01*
X64051728Y-80186001D01*
X64012780Y-80091973D01*
X63934885Y-79903918D01*
X63875320Y-79604462D01*
X63875320Y-79299138D01*
X63934885Y-78999682D01*
X64051728Y-78717600D01*
X64051728Y-78717599D01*
X64221358Y-78463729D01*
X64437249Y-78247838D01*
X64691119Y-78078208D01*
X64785147Y-78039260D01*
X64973202Y-77961365D01*
X65172839Y-77921655D01*
X65272657Y-77901800D01*
X65577983Y-77901800D01*
X65677801Y-77921655D01*
X65677801Y-77921655D01*
G37*
G36*
X78377801Y-77921655D02*
X78577438Y-77961365D01*
X78765493Y-78039260D01*
X78859521Y-78078208D01*
X79113391Y-78247838D01*
X79329282Y-78463729D01*
X79498912Y-78717599D01*
X79498912Y-78717600D01*
X79615755Y-78999682D01*
X79675320Y-79299138D01*
X79675320Y-79604462D01*
X79615755Y-79903918D01*
X79537860Y-80091973D01*
X79498912Y-80186001D01*
X79329282Y-80439871D01*
X79113391Y-80655762D01*
X78859521Y-80825392D01*
X78765493Y-80864340D01*
X78577438Y-80942235D01*
X78377801Y-80981945D01*
X78277983Y-81001800D01*
X77972657Y-81001800D01*
X77872839Y-80981945D01*
X77673202Y-80942235D01*
X77485147Y-80864340D01*
X77391119Y-80825392D01*
X77137249Y-80655762D01*
X76921358Y-80439871D01*
X76751728Y-80186001D01*
X76712780Y-80091973D01*
X76634885Y-79903918D01*
X76575320Y-79604462D01*
X76575320Y-79299138D01*
X76634885Y-78999682D01*
X76751728Y-78717600D01*
X76751728Y-78717599D01*
X76921358Y-78463729D01*
X77137249Y-78247838D01*
X77391119Y-78078208D01*
X77485147Y-78039260D01*
X77673202Y-77961365D01*
X77872839Y-77921655D01*
X77972657Y-77901800D01*
X78277983Y-77901800D01*
X78377801Y-77921655D01*
X78377801Y-77921655D01*
G37*
G36*
X72027801Y-77921655D02*
X72227438Y-77961365D01*
X72415493Y-78039260D01*
X72509521Y-78078208D01*
X72763391Y-78247838D01*
X72979282Y-78463729D01*
X73148912Y-78717599D01*
X73148912Y-78717600D01*
X73265755Y-78999682D01*
X73325320Y-79299138D01*
X73325320Y-79604462D01*
X73265755Y-79903918D01*
X73187860Y-80091973D01*
X73148912Y-80186001D01*
X72979282Y-80439871D01*
X72763391Y-80655762D01*
X72509521Y-80825392D01*
X72415493Y-80864340D01*
X72227438Y-80942235D01*
X72027801Y-80981945D01*
X71927983Y-81001800D01*
X71622657Y-81001800D01*
X71522839Y-80981945D01*
X71323202Y-80942235D01*
X71135147Y-80864340D01*
X71041119Y-80825392D01*
X70787249Y-80655762D01*
X70571358Y-80439871D01*
X70401728Y-80186001D01*
X70362780Y-80091973D01*
X70284885Y-79903918D01*
X70225320Y-79604462D01*
X70225320Y-79299138D01*
X70284885Y-78999682D01*
X70401728Y-78717600D01*
X70401728Y-78717599D01*
X70571358Y-78463729D01*
X70787249Y-78247838D01*
X71041119Y-78078208D01*
X71135147Y-78039260D01*
X71323202Y-77961365D01*
X71522839Y-77921655D01*
X71622657Y-77901800D01*
X71927983Y-77901800D01*
X72027801Y-77921655D01*
X72027801Y-77921655D01*
G37*
G36*
X200181939Y-71127304D02*
X200293581Y-71161171D01*
X200332851Y-71173083D01*
X200471925Y-71247419D01*
X200593827Y-71347463D01*
X200693871Y-71469365D01*
X200768207Y-71608439D01*
X200768208Y-71608443D01*
X200813986Y-71759351D01*
X200825570Y-71876966D01*
X200825570Y-72953834D01*
X200813986Y-73071449D01*
X200780119Y-73183091D01*
X200768207Y-73222361D01*
X200693871Y-73361435D01*
X200593827Y-73483337D01*
X200471924Y-73583381D01*
X200332850Y-73657717D01*
X200293580Y-73669629D01*
X200181938Y-73703496D01*
X200025000Y-73718953D01*
X199868061Y-73703496D01*
X199756419Y-73669629D01*
X199717149Y-73657717D01*
X199578075Y-73583381D01*
X199456173Y-73483337D01*
X199356129Y-73361434D01*
X199281793Y-73222360D01*
X199269881Y-73183090D01*
X199236014Y-73071448D01*
X199224430Y-72953833D01*
X199224431Y-71876966D01*
X199236015Y-71759351D01*
X199281793Y-71608443D01*
X199281794Y-71608439D01*
X199356130Y-71469365D01*
X199456174Y-71347463D01*
X199578076Y-71247419D01*
X199717150Y-71173083D01*
X199756420Y-71161171D01*
X199868062Y-71127304D01*
X200025000Y-71111847D01*
X200181939Y-71127304D01*
X200181939Y-71127304D01*
G37*
G36*
X197641939Y-71127304D02*
X197753581Y-71161171D01*
X197792851Y-71173083D01*
X197931925Y-71247419D01*
X198053827Y-71347463D01*
X198153871Y-71469365D01*
X198228207Y-71608439D01*
X198228208Y-71608443D01*
X198273986Y-71759351D01*
X198285570Y-71876966D01*
X198285570Y-72953834D01*
X198273986Y-73071449D01*
X198240119Y-73183091D01*
X198228207Y-73222361D01*
X198153871Y-73361435D01*
X198053827Y-73483337D01*
X197931924Y-73583381D01*
X197792850Y-73657717D01*
X197753580Y-73669629D01*
X197641938Y-73703496D01*
X197485000Y-73718953D01*
X197328061Y-73703496D01*
X197216419Y-73669629D01*
X197177149Y-73657717D01*
X197038075Y-73583381D01*
X196916173Y-73483337D01*
X196816129Y-73361434D01*
X196741793Y-73222360D01*
X196729881Y-73183090D01*
X196696014Y-73071448D01*
X196684430Y-72953833D01*
X196684431Y-71876966D01*
X196696015Y-71759351D01*
X196741793Y-71608443D01*
X196741794Y-71608439D01*
X196816130Y-71469365D01*
X196916174Y-71347463D01*
X197038076Y-71247419D01*
X197177150Y-71173083D01*
X197216420Y-71161171D01*
X197328062Y-71127304D01*
X197485000Y-71111847D01*
X197641939Y-71127304D01*
X197641939Y-71127304D01*
G37*
G36*
X202721939Y-71127304D02*
X202833581Y-71161171D01*
X202872851Y-71173083D01*
X203011925Y-71247419D01*
X203133827Y-71347463D01*
X203233871Y-71469365D01*
X203308207Y-71608439D01*
X203308208Y-71608443D01*
X203353986Y-71759351D01*
X203365570Y-71876966D01*
X203365570Y-72953834D01*
X203353986Y-73071449D01*
X203320119Y-73183091D01*
X203308207Y-73222361D01*
X203233871Y-73361435D01*
X203133827Y-73483337D01*
X203011924Y-73583381D01*
X202872850Y-73657717D01*
X202833580Y-73669629D01*
X202721938Y-73703496D01*
X202565000Y-73718953D01*
X202408061Y-73703496D01*
X202296419Y-73669629D01*
X202257149Y-73657717D01*
X202118075Y-73583381D01*
X201996173Y-73483337D01*
X201896129Y-73361434D01*
X201821793Y-73222360D01*
X201809881Y-73183090D01*
X201776014Y-73071448D01*
X201764430Y-72953833D01*
X201764431Y-71876966D01*
X201776015Y-71759351D01*
X201821793Y-71608443D01*
X201821794Y-71608439D01*
X201896130Y-71469365D01*
X201996174Y-71347463D01*
X202118076Y-71247419D01*
X202257150Y-71173083D01*
X202296420Y-71161171D01*
X202408062Y-71127304D01*
X202565000Y-71111847D01*
X202721939Y-71127304D01*
X202721939Y-71127304D01*
G37*
G36*
X197292000Y-60157400D02*
X195392000Y-60157400D01*
X195392000Y-58257400D01*
X197292000Y-58257400D01*
X197292000Y-60157400D01*
X197292000Y-60157400D01*
G37*
G36*
X198981451Y-58266527D02*
X199119105Y-58293908D01*
X199291994Y-58365521D01*
X199447590Y-58469487D01*
X199579913Y-58601810D01*
X199683879Y-58757406D01*
X199755492Y-58930295D01*
X199792000Y-59113833D01*
X199792000Y-59300967D01*
X199755492Y-59484505D01*
X199683879Y-59657394D01*
X199579913Y-59812990D01*
X199447590Y-59945313D01*
X199291994Y-60049279D01*
X199119105Y-60120892D01*
X198981452Y-60148273D01*
X198935568Y-60157400D01*
X198748432Y-60157400D01*
X198702548Y-60148273D01*
X198564895Y-60120892D01*
X198392006Y-60049279D01*
X198236410Y-59945313D01*
X198104087Y-59812990D01*
X198000121Y-59657394D01*
X197928508Y-59484505D01*
X197892000Y-59300967D01*
X197892000Y-59113833D01*
X197928508Y-58930295D01*
X198000121Y-58757406D01*
X198104087Y-58601810D01*
X198236410Y-58469487D01*
X198392006Y-58365521D01*
X198564895Y-58293908D01*
X198702549Y-58266527D01*
X198748432Y-58257400D01*
X198935568Y-58257400D01*
X198981451Y-58266527D01*
X198981451Y-58266527D01*
G37*
G36*
X69992707Y-57460829D02*
X70059817Y-57467439D01*
X70174626Y-57502266D01*
X70232032Y-57519680D01*
X70316866Y-57565025D01*
X70390745Y-57604514D01*
X70390747Y-57604515D01*
X70390746Y-57604515D01*
X70529858Y-57718682D01*
X70644025Y-57857794D01*
X70728860Y-58016508D01*
X70728860Y-58016509D01*
X70781101Y-58188723D01*
X70798740Y-58367820D01*
X70781101Y-58546917D01*
X70764450Y-58601808D01*
X70728860Y-58719132D01*
X70708402Y-58757406D01*
X70644026Y-58877845D01*
X70529858Y-59016958D01*
X70390745Y-59131126D01*
X70316866Y-59170615D01*
X70232032Y-59215960D01*
X70174626Y-59233374D01*
X70059817Y-59268201D01*
X69992707Y-59274811D01*
X69925600Y-59281420D01*
X69835840Y-59281420D01*
X69768733Y-59274811D01*
X69701623Y-59268201D01*
X69586814Y-59233374D01*
X69529408Y-59215960D01*
X69444574Y-59170615D01*
X69370695Y-59131126D01*
X69231582Y-59016958D01*
X69117414Y-58877845D01*
X69053038Y-58757406D01*
X69032580Y-58719132D01*
X68996990Y-58601808D01*
X68980339Y-58546917D01*
X68962700Y-58367820D01*
X68980339Y-58188723D01*
X69032580Y-58016509D01*
X69032580Y-58016508D01*
X69117415Y-57857794D01*
X69231582Y-57718682D01*
X69370694Y-57604515D01*
X69370693Y-57604515D01*
X69370695Y-57604514D01*
X69444574Y-57565025D01*
X69529408Y-57519680D01*
X69586814Y-57502266D01*
X69701623Y-57467439D01*
X69768733Y-57460829D01*
X69835840Y-57454220D01*
X69925600Y-57454220D01*
X69992707Y-57460829D01*
X69992707Y-57460829D01*
G37*
G36*
X87772707Y-57460829D02*
X87839817Y-57467439D01*
X87954626Y-57502266D01*
X88012032Y-57519680D01*
X88096866Y-57565025D01*
X88170745Y-57604514D01*
X88170747Y-57604515D01*
X88170746Y-57604515D01*
X88309858Y-57718682D01*
X88424025Y-57857794D01*
X88508860Y-58016508D01*
X88508860Y-58016509D01*
X88561101Y-58188723D01*
X88578740Y-58367820D01*
X88561101Y-58546917D01*
X88544450Y-58601808D01*
X88508860Y-58719132D01*
X88488402Y-58757406D01*
X88424026Y-58877845D01*
X88309858Y-59016958D01*
X88170745Y-59131126D01*
X88096866Y-59170615D01*
X88012032Y-59215960D01*
X87954626Y-59233374D01*
X87839817Y-59268201D01*
X87772707Y-59274811D01*
X87705600Y-59281420D01*
X87615840Y-59281420D01*
X87548733Y-59274811D01*
X87481623Y-59268201D01*
X87366814Y-59233374D01*
X87309408Y-59215960D01*
X87224574Y-59170615D01*
X87150695Y-59131126D01*
X87011582Y-59016958D01*
X86897414Y-58877845D01*
X86833038Y-58757406D01*
X86812580Y-58719132D01*
X86776990Y-58601808D01*
X86760339Y-58546917D01*
X86742700Y-58367820D01*
X86760339Y-58188723D01*
X86812580Y-58016509D01*
X86812580Y-58016508D01*
X86897415Y-57857794D01*
X87011582Y-57718682D01*
X87150694Y-57604515D01*
X87150693Y-57604515D01*
X87150695Y-57604514D01*
X87224574Y-57565025D01*
X87309408Y-57519680D01*
X87366814Y-57502266D01*
X87481623Y-57467439D01*
X87548733Y-57460829D01*
X87615840Y-57454220D01*
X87705600Y-57454220D01*
X87772707Y-57460829D01*
X87772707Y-57460829D01*
G37*
G36*
X90312707Y-57460829D02*
X90379817Y-57467439D01*
X90494626Y-57502266D01*
X90552032Y-57519680D01*
X90636866Y-57565025D01*
X90710745Y-57604514D01*
X90710747Y-57604515D01*
X90710746Y-57604515D01*
X90849858Y-57718682D01*
X90964025Y-57857794D01*
X91048860Y-58016508D01*
X91048860Y-58016509D01*
X91101101Y-58188723D01*
X91118740Y-58367820D01*
X91101101Y-58546917D01*
X91084450Y-58601808D01*
X91048860Y-58719132D01*
X91028402Y-58757406D01*
X90964026Y-58877845D01*
X90849858Y-59016958D01*
X90710745Y-59131126D01*
X90636866Y-59170615D01*
X90552032Y-59215960D01*
X90494626Y-59233374D01*
X90379817Y-59268201D01*
X90312707Y-59274811D01*
X90245600Y-59281420D01*
X90155840Y-59281420D01*
X90088733Y-59274811D01*
X90021623Y-59268201D01*
X89906814Y-59233374D01*
X89849408Y-59215960D01*
X89764574Y-59170615D01*
X89690695Y-59131126D01*
X89551582Y-59016958D01*
X89437414Y-58877845D01*
X89373038Y-58757406D01*
X89352580Y-58719132D01*
X89316990Y-58601808D01*
X89300339Y-58546917D01*
X89282700Y-58367820D01*
X89300339Y-58188723D01*
X89352580Y-58016509D01*
X89352580Y-58016508D01*
X89437415Y-57857794D01*
X89551582Y-57718682D01*
X89690694Y-57604515D01*
X89690693Y-57604515D01*
X89690695Y-57604514D01*
X89764574Y-57565025D01*
X89849408Y-57519680D01*
X89906814Y-57502266D01*
X90021623Y-57467439D01*
X90088733Y-57460829D01*
X90155840Y-57454220D01*
X90245600Y-57454220D01*
X90312707Y-57460829D01*
X90312707Y-57460829D01*
G37*
G36*
X92852707Y-57460829D02*
X92919817Y-57467439D01*
X93034626Y-57502266D01*
X93092032Y-57519680D01*
X93176866Y-57565025D01*
X93250745Y-57604514D01*
X93250747Y-57604515D01*
X93250746Y-57604515D01*
X93389858Y-57718682D01*
X93504025Y-57857794D01*
X93588860Y-58016508D01*
X93588860Y-58016509D01*
X93641101Y-58188723D01*
X93658740Y-58367820D01*
X93641101Y-58546917D01*
X93624450Y-58601808D01*
X93588860Y-58719132D01*
X93568402Y-58757406D01*
X93504026Y-58877845D01*
X93389858Y-59016958D01*
X93250745Y-59131126D01*
X93176866Y-59170615D01*
X93092032Y-59215960D01*
X93034626Y-59233374D01*
X92919817Y-59268201D01*
X92852707Y-59274811D01*
X92785600Y-59281420D01*
X92695840Y-59281420D01*
X92628733Y-59274811D01*
X92561623Y-59268201D01*
X92446814Y-59233374D01*
X92389408Y-59215960D01*
X92304574Y-59170615D01*
X92230695Y-59131126D01*
X92091582Y-59016958D01*
X91977414Y-58877845D01*
X91913038Y-58757406D01*
X91892580Y-58719132D01*
X91856990Y-58601808D01*
X91840339Y-58546917D01*
X91822700Y-58367820D01*
X91840339Y-58188723D01*
X91892580Y-58016509D01*
X91892580Y-58016508D01*
X91977415Y-57857794D01*
X92091582Y-57718682D01*
X92230694Y-57604515D01*
X92230693Y-57604515D01*
X92230695Y-57604514D01*
X92304574Y-57565025D01*
X92389408Y-57519680D01*
X92446814Y-57502266D01*
X92561623Y-57467439D01*
X92628733Y-57460829D01*
X92695840Y-57454220D01*
X92785600Y-57454220D01*
X92852707Y-57460829D01*
X92852707Y-57460829D01*
G37*
G36*
X85232707Y-57460829D02*
X85299817Y-57467439D01*
X85414626Y-57502266D01*
X85472032Y-57519680D01*
X85556866Y-57565025D01*
X85630745Y-57604514D01*
X85630747Y-57604515D01*
X85630746Y-57604515D01*
X85769858Y-57718682D01*
X85884025Y-57857794D01*
X85968860Y-58016508D01*
X85968860Y-58016509D01*
X86021101Y-58188723D01*
X86038740Y-58367820D01*
X86021101Y-58546917D01*
X86004450Y-58601808D01*
X85968860Y-58719132D01*
X85948402Y-58757406D01*
X85884026Y-58877845D01*
X85769858Y-59016958D01*
X85630745Y-59131126D01*
X85556866Y-59170615D01*
X85472032Y-59215960D01*
X85414626Y-59233374D01*
X85299817Y-59268201D01*
X85232707Y-59274811D01*
X85165600Y-59281420D01*
X85075840Y-59281420D01*
X85008733Y-59274811D01*
X84941623Y-59268201D01*
X84826814Y-59233374D01*
X84769408Y-59215960D01*
X84684574Y-59170615D01*
X84610695Y-59131126D01*
X84471582Y-59016958D01*
X84357414Y-58877845D01*
X84293038Y-58757406D01*
X84272580Y-58719132D01*
X84236990Y-58601808D01*
X84220339Y-58546917D01*
X84202700Y-58367820D01*
X84220339Y-58188723D01*
X84272580Y-58016509D01*
X84272580Y-58016508D01*
X84357415Y-57857794D01*
X84471582Y-57718682D01*
X84610694Y-57604515D01*
X84610693Y-57604515D01*
X84610695Y-57604514D01*
X84684574Y-57565025D01*
X84769408Y-57519680D01*
X84826814Y-57502266D01*
X84941623Y-57467439D01*
X85008733Y-57460829D01*
X85075840Y-57454220D01*
X85165600Y-57454220D01*
X85232707Y-57460829D01*
X85232707Y-57460829D01*
G37*
G36*
X82692707Y-57460829D02*
X82759817Y-57467439D01*
X82874626Y-57502266D01*
X82932032Y-57519680D01*
X83016866Y-57565025D01*
X83090745Y-57604514D01*
X83090747Y-57604515D01*
X83090746Y-57604515D01*
X83229858Y-57718682D01*
X83344025Y-57857794D01*
X83428860Y-58016508D01*
X83428860Y-58016509D01*
X83481101Y-58188723D01*
X83498740Y-58367820D01*
X83481101Y-58546917D01*
X83464450Y-58601808D01*
X83428860Y-58719132D01*
X83408402Y-58757406D01*
X83344026Y-58877845D01*
X83229858Y-59016958D01*
X83090745Y-59131126D01*
X83016866Y-59170615D01*
X82932032Y-59215960D01*
X82874626Y-59233374D01*
X82759817Y-59268201D01*
X82692707Y-59274811D01*
X82625600Y-59281420D01*
X82535840Y-59281420D01*
X82468733Y-59274811D01*
X82401623Y-59268201D01*
X82286814Y-59233374D01*
X82229408Y-59215960D01*
X82144574Y-59170615D01*
X82070695Y-59131126D01*
X81931582Y-59016958D01*
X81817414Y-58877845D01*
X81753038Y-58757406D01*
X81732580Y-58719132D01*
X81696990Y-58601808D01*
X81680339Y-58546917D01*
X81662700Y-58367820D01*
X81680339Y-58188723D01*
X81732580Y-58016509D01*
X81732580Y-58016508D01*
X81817415Y-57857794D01*
X81931582Y-57718682D01*
X82070694Y-57604515D01*
X82070693Y-57604515D01*
X82070695Y-57604514D01*
X82144574Y-57565025D01*
X82229408Y-57519680D01*
X82286814Y-57502266D01*
X82401623Y-57467439D01*
X82468733Y-57460829D01*
X82535840Y-57454220D01*
X82625600Y-57454220D01*
X82692707Y-57460829D01*
X82692707Y-57460829D01*
G37*
G36*
X80152707Y-57460829D02*
X80219817Y-57467439D01*
X80334626Y-57502266D01*
X80392032Y-57519680D01*
X80476866Y-57565025D01*
X80550745Y-57604514D01*
X80550747Y-57604515D01*
X80550746Y-57604515D01*
X80689858Y-57718682D01*
X80804025Y-57857794D01*
X80888860Y-58016508D01*
X80888860Y-58016509D01*
X80941101Y-58188723D01*
X80958740Y-58367820D01*
X80941101Y-58546917D01*
X80924450Y-58601808D01*
X80888860Y-58719132D01*
X80868402Y-58757406D01*
X80804026Y-58877845D01*
X80689858Y-59016958D01*
X80550745Y-59131126D01*
X80476866Y-59170615D01*
X80392032Y-59215960D01*
X80334626Y-59233374D01*
X80219817Y-59268201D01*
X80152707Y-59274811D01*
X80085600Y-59281420D01*
X79995840Y-59281420D01*
X79928733Y-59274811D01*
X79861623Y-59268201D01*
X79746814Y-59233374D01*
X79689408Y-59215960D01*
X79604574Y-59170615D01*
X79530695Y-59131126D01*
X79391582Y-59016958D01*
X79277414Y-58877845D01*
X79213038Y-58757406D01*
X79192580Y-58719132D01*
X79156990Y-58601808D01*
X79140339Y-58546917D01*
X79122700Y-58367820D01*
X79140339Y-58188723D01*
X79192580Y-58016509D01*
X79192580Y-58016508D01*
X79277415Y-57857794D01*
X79391582Y-57718682D01*
X79530694Y-57604515D01*
X79530693Y-57604515D01*
X79530695Y-57604514D01*
X79604574Y-57565025D01*
X79689408Y-57519680D01*
X79746814Y-57502266D01*
X79861623Y-57467439D01*
X79928733Y-57460829D01*
X79995840Y-57454220D01*
X80085600Y-57454220D01*
X80152707Y-57460829D01*
X80152707Y-57460829D01*
G37*
G36*
X77612707Y-57460829D02*
X77679817Y-57467439D01*
X77794626Y-57502266D01*
X77852032Y-57519680D01*
X77936866Y-57565025D01*
X78010745Y-57604514D01*
X78010747Y-57604515D01*
X78010746Y-57604515D01*
X78149858Y-57718682D01*
X78264025Y-57857794D01*
X78348860Y-58016508D01*
X78348860Y-58016509D01*
X78401101Y-58188723D01*
X78418740Y-58367820D01*
X78401101Y-58546917D01*
X78384450Y-58601808D01*
X78348860Y-58719132D01*
X78328402Y-58757406D01*
X78264026Y-58877845D01*
X78149858Y-59016958D01*
X78010745Y-59131126D01*
X77936866Y-59170615D01*
X77852032Y-59215960D01*
X77794626Y-59233374D01*
X77679817Y-59268201D01*
X77612707Y-59274811D01*
X77545600Y-59281420D01*
X77455840Y-59281420D01*
X77388733Y-59274811D01*
X77321623Y-59268201D01*
X77206814Y-59233374D01*
X77149408Y-59215960D01*
X77064574Y-59170615D01*
X76990695Y-59131126D01*
X76851582Y-59016958D01*
X76737414Y-58877845D01*
X76673038Y-58757406D01*
X76652580Y-58719132D01*
X76616990Y-58601808D01*
X76600339Y-58546917D01*
X76582700Y-58367820D01*
X76600339Y-58188723D01*
X76652580Y-58016509D01*
X76652580Y-58016508D01*
X76737415Y-57857794D01*
X76851582Y-57718682D01*
X76990694Y-57604515D01*
X76990693Y-57604515D01*
X76990695Y-57604514D01*
X77064574Y-57565025D01*
X77149408Y-57519680D01*
X77206814Y-57502266D01*
X77321623Y-57467439D01*
X77388733Y-57460829D01*
X77455840Y-57454220D01*
X77545600Y-57454220D01*
X77612707Y-57460829D01*
X77612707Y-57460829D01*
G37*
G36*
X75072707Y-57460829D02*
X75139817Y-57467439D01*
X75254626Y-57502266D01*
X75312032Y-57519680D01*
X75396866Y-57565025D01*
X75470745Y-57604514D01*
X75470747Y-57604515D01*
X75470746Y-57604515D01*
X75609858Y-57718682D01*
X75724025Y-57857794D01*
X75808860Y-58016508D01*
X75808860Y-58016509D01*
X75861101Y-58188723D01*
X75878740Y-58367820D01*
X75861101Y-58546917D01*
X75844450Y-58601808D01*
X75808860Y-58719132D01*
X75788402Y-58757406D01*
X75724026Y-58877845D01*
X75609858Y-59016958D01*
X75470745Y-59131126D01*
X75396866Y-59170615D01*
X75312032Y-59215960D01*
X75254626Y-59233374D01*
X75139817Y-59268201D01*
X75072707Y-59274811D01*
X75005600Y-59281420D01*
X74915840Y-59281420D01*
X74848733Y-59274811D01*
X74781623Y-59268201D01*
X74666814Y-59233374D01*
X74609408Y-59215960D01*
X74524574Y-59170615D01*
X74450695Y-59131126D01*
X74311582Y-59016958D01*
X74197414Y-58877845D01*
X74133038Y-58757406D01*
X74112580Y-58719132D01*
X74076990Y-58601808D01*
X74060339Y-58546917D01*
X74042700Y-58367820D01*
X74060339Y-58188723D01*
X74112580Y-58016509D01*
X74112580Y-58016508D01*
X74197415Y-57857794D01*
X74311582Y-57718682D01*
X74450694Y-57604515D01*
X74450693Y-57604515D01*
X74450695Y-57604514D01*
X74524574Y-57565025D01*
X74609408Y-57519680D01*
X74666814Y-57502266D01*
X74781623Y-57467439D01*
X74848733Y-57460829D01*
X74915840Y-57454220D01*
X75005600Y-57454220D01*
X75072707Y-57460829D01*
X75072707Y-57460829D01*
G37*
G36*
X72532707Y-57460829D02*
X72599817Y-57467439D01*
X72714626Y-57502266D01*
X72772032Y-57519680D01*
X72856866Y-57565025D01*
X72930745Y-57604514D01*
X72930747Y-57604515D01*
X72930746Y-57604515D01*
X73069858Y-57718682D01*
X73184025Y-57857794D01*
X73268860Y-58016508D01*
X73268860Y-58016509D01*
X73321101Y-58188723D01*
X73338740Y-58367820D01*
X73321101Y-58546917D01*
X73304450Y-58601808D01*
X73268860Y-58719132D01*
X73248402Y-58757406D01*
X73184026Y-58877845D01*
X73069858Y-59016958D01*
X72930745Y-59131126D01*
X72856866Y-59170615D01*
X72772032Y-59215960D01*
X72714626Y-59233374D01*
X72599817Y-59268201D01*
X72532707Y-59274811D01*
X72465600Y-59281420D01*
X72375840Y-59281420D01*
X72308733Y-59274811D01*
X72241623Y-59268201D01*
X72126814Y-59233374D01*
X72069408Y-59215960D01*
X71984574Y-59170615D01*
X71910695Y-59131126D01*
X71771582Y-59016958D01*
X71657414Y-58877845D01*
X71593038Y-58757406D01*
X71572580Y-58719132D01*
X71536990Y-58601808D01*
X71520339Y-58546917D01*
X71502700Y-58367820D01*
X71520339Y-58188723D01*
X71572580Y-58016509D01*
X71572580Y-58016508D01*
X71657415Y-57857794D01*
X71771582Y-57718682D01*
X71910694Y-57604515D01*
X71910693Y-57604515D01*
X71910695Y-57604514D01*
X71984574Y-57565025D01*
X72069408Y-57519680D01*
X72126814Y-57502266D01*
X72241623Y-57467439D01*
X72308733Y-57460829D01*
X72375840Y-57454220D01*
X72465600Y-57454220D01*
X72532707Y-57460829D01*
X72532707Y-57460829D01*
G37*
G36*
X90312707Y-54920829D02*
X90379817Y-54927439D01*
X90494626Y-54962266D01*
X90552032Y-54979680D01*
X90636866Y-55025025D01*
X90710745Y-55064514D01*
X90710747Y-55064515D01*
X90710746Y-55064515D01*
X90849858Y-55178682D01*
X90964025Y-55317794D01*
X91048860Y-55476508D01*
X91048860Y-55476509D01*
X91101101Y-55648723D01*
X91118740Y-55827820D01*
X91101101Y-56006917D01*
X91066274Y-56121726D01*
X91048860Y-56179132D01*
X91003515Y-56263966D01*
X90964026Y-56337845D01*
X90849858Y-56476958D01*
X90710745Y-56591126D01*
X90636866Y-56630615D01*
X90552032Y-56675960D01*
X90494626Y-56693374D01*
X90379817Y-56728201D01*
X90312707Y-56734811D01*
X90245600Y-56741420D01*
X90155840Y-56741420D01*
X90088733Y-56734811D01*
X90021623Y-56728201D01*
X89906814Y-56693374D01*
X89849408Y-56675960D01*
X89764574Y-56630615D01*
X89690695Y-56591126D01*
X89551582Y-56476958D01*
X89437414Y-56337845D01*
X89397925Y-56263966D01*
X89352580Y-56179132D01*
X89335166Y-56121726D01*
X89300339Y-56006917D01*
X89282700Y-55827820D01*
X89300339Y-55648723D01*
X89352580Y-55476509D01*
X89352580Y-55476508D01*
X89437415Y-55317794D01*
X89551582Y-55178682D01*
X89690694Y-55064515D01*
X89690693Y-55064515D01*
X89690695Y-55064514D01*
X89764574Y-55025025D01*
X89849408Y-54979680D01*
X89906814Y-54962266D01*
X90021623Y-54927439D01*
X90088733Y-54920829D01*
X90155840Y-54914220D01*
X90245600Y-54914220D01*
X90312707Y-54920829D01*
X90312707Y-54920829D01*
G37*
G36*
X80152707Y-54920829D02*
X80219817Y-54927439D01*
X80334626Y-54962266D01*
X80392032Y-54979680D01*
X80476866Y-55025025D01*
X80550745Y-55064514D01*
X80550747Y-55064515D01*
X80550746Y-55064515D01*
X80689858Y-55178682D01*
X80804025Y-55317794D01*
X80888860Y-55476508D01*
X80888860Y-55476509D01*
X80941101Y-55648723D01*
X80958740Y-55827820D01*
X80941101Y-56006917D01*
X80906274Y-56121726D01*
X80888860Y-56179132D01*
X80843515Y-56263966D01*
X80804026Y-56337845D01*
X80689858Y-56476958D01*
X80550745Y-56591126D01*
X80476866Y-56630615D01*
X80392032Y-56675960D01*
X80334626Y-56693374D01*
X80219817Y-56728201D01*
X80152707Y-56734811D01*
X80085600Y-56741420D01*
X79995840Y-56741420D01*
X79928733Y-56734811D01*
X79861623Y-56728201D01*
X79746814Y-56693374D01*
X79689408Y-56675960D01*
X79604574Y-56630615D01*
X79530695Y-56591126D01*
X79391582Y-56476958D01*
X79277414Y-56337845D01*
X79237925Y-56263966D01*
X79192580Y-56179132D01*
X79175166Y-56121726D01*
X79140339Y-56006917D01*
X79122700Y-55827820D01*
X79140339Y-55648723D01*
X79192580Y-55476509D01*
X79192580Y-55476508D01*
X79277415Y-55317794D01*
X79391582Y-55178682D01*
X79530694Y-55064515D01*
X79530693Y-55064515D01*
X79530695Y-55064514D01*
X79604574Y-55025025D01*
X79689408Y-54979680D01*
X79746814Y-54962266D01*
X79861623Y-54927439D01*
X79928733Y-54920829D01*
X79995840Y-54914220D01*
X80085600Y-54914220D01*
X80152707Y-54920829D01*
X80152707Y-54920829D01*
G37*
G36*
X77612707Y-54920829D02*
X77679817Y-54927439D01*
X77794626Y-54962266D01*
X77852032Y-54979680D01*
X77936866Y-55025025D01*
X78010745Y-55064514D01*
X78010747Y-55064515D01*
X78010746Y-55064515D01*
X78149858Y-55178682D01*
X78264025Y-55317794D01*
X78348860Y-55476508D01*
X78348860Y-55476509D01*
X78401101Y-55648723D01*
X78418740Y-55827820D01*
X78401101Y-56006917D01*
X78366274Y-56121726D01*
X78348860Y-56179132D01*
X78303515Y-56263966D01*
X78264026Y-56337845D01*
X78149858Y-56476958D01*
X78010745Y-56591126D01*
X77936866Y-56630615D01*
X77852032Y-56675960D01*
X77794626Y-56693374D01*
X77679817Y-56728201D01*
X77612707Y-56734811D01*
X77545600Y-56741420D01*
X77455840Y-56741420D01*
X77388733Y-56734811D01*
X77321623Y-56728201D01*
X77206814Y-56693374D01*
X77149408Y-56675960D01*
X77064574Y-56630615D01*
X76990695Y-56591126D01*
X76851582Y-56476958D01*
X76737414Y-56337845D01*
X76697925Y-56263966D01*
X76652580Y-56179132D01*
X76635166Y-56121726D01*
X76600339Y-56006917D01*
X76582700Y-55827820D01*
X76600339Y-55648723D01*
X76652580Y-55476509D01*
X76652580Y-55476508D01*
X76737415Y-55317794D01*
X76851582Y-55178682D01*
X76990694Y-55064515D01*
X76990693Y-55064515D01*
X76990695Y-55064514D01*
X77064574Y-55025025D01*
X77149408Y-54979680D01*
X77206814Y-54962266D01*
X77321623Y-54927439D01*
X77388733Y-54920829D01*
X77455840Y-54914220D01*
X77545600Y-54914220D01*
X77612707Y-54920829D01*
X77612707Y-54920829D01*
G37*
G36*
X82692707Y-54920829D02*
X82759817Y-54927439D01*
X82874626Y-54962266D01*
X82932032Y-54979680D01*
X83016866Y-55025025D01*
X83090745Y-55064514D01*
X83090747Y-55064515D01*
X83090746Y-55064515D01*
X83229858Y-55178682D01*
X83344025Y-55317794D01*
X83428860Y-55476508D01*
X83428860Y-55476509D01*
X83481101Y-55648723D01*
X83498740Y-55827820D01*
X83481101Y-56006917D01*
X83446274Y-56121726D01*
X83428860Y-56179132D01*
X83383515Y-56263966D01*
X83344026Y-56337845D01*
X83229858Y-56476958D01*
X83090745Y-56591126D01*
X83016866Y-56630615D01*
X82932032Y-56675960D01*
X82874626Y-56693374D01*
X82759817Y-56728201D01*
X82692707Y-56734811D01*
X82625600Y-56741420D01*
X82535840Y-56741420D01*
X82468733Y-56734811D01*
X82401623Y-56728201D01*
X82286814Y-56693374D01*
X82229408Y-56675960D01*
X82144574Y-56630615D01*
X82070695Y-56591126D01*
X81931582Y-56476958D01*
X81817414Y-56337845D01*
X81777925Y-56263966D01*
X81732580Y-56179132D01*
X81715166Y-56121726D01*
X81680339Y-56006917D01*
X81662700Y-55827820D01*
X81680339Y-55648723D01*
X81732580Y-55476509D01*
X81732580Y-55476508D01*
X81817415Y-55317794D01*
X81931582Y-55178682D01*
X82070694Y-55064515D01*
X82070693Y-55064515D01*
X82070695Y-55064514D01*
X82144574Y-55025025D01*
X82229408Y-54979680D01*
X82286814Y-54962266D01*
X82401623Y-54927439D01*
X82468733Y-54920829D01*
X82535840Y-54914220D01*
X82625600Y-54914220D01*
X82692707Y-54920829D01*
X82692707Y-54920829D01*
G37*
G36*
X85232707Y-54920829D02*
X85299817Y-54927439D01*
X85414626Y-54962266D01*
X85472032Y-54979680D01*
X85556866Y-55025025D01*
X85630745Y-55064514D01*
X85630747Y-55064515D01*
X85630746Y-55064515D01*
X85769858Y-55178682D01*
X85884025Y-55317794D01*
X85968860Y-55476508D01*
X85968860Y-55476509D01*
X86021101Y-55648723D01*
X86038740Y-55827820D01*
X86021101Y-56006917D01*
X85986274Y-56121726D01*
X85968860Y-56179132D01*
X85923515Y-56263966D01*
X85884026Y-56337845D01*
X85769858Y-56476958D01*
X85630745Y-56591126D01*
X85556866Y-56630615D01*
X85472032Y-56675960D01*
X85414626Y-56693374D01*
X85299817Y-56728201D01*
X85232707Y-56734811D01*
X85165600Y-56741420D01*
X85075840Y-56741420D01*
X85008733Y-56734811D01*
X84941623Y-56728201D01*
X84826814Y-56693374D01*
X84769408Y-56675960D01*
X84684574Y-56630615D01*
X84610695Y-56591126D01*
X84471582Y-56476958D01*
X84357414Y-56337845D01*
X84317925Y-56263966D01*
X84272580Y-56179132D01*
X84255166Y-56121726D01*
X84220339Y-56006917D01*
X84202700Y-55827820D01*
X84220339Y-55648723D01*
X84272580Y-55476509D01*
X84272580Y-55476508D01*
X84357415Y-55317794D01*
X84471582Y-55178682D01*
X84610694Y-55064515D01*
X84610693Y-55064515D01*
X84610695Y-55064514D01*
X84684574Y-55025025D01*
X84769408Y-54979680D01*
X84826814Y-54962266D01*
X84941623Y-54927439D01*
X85008733Y-54920829D01*
X85075840Y-54914220D01*
X85165600Y-54914220D01*
X85232707Y-54920829D01*
X85232707Y-54920829D01*
G37*
G36*
X75072707Y-54920829D02*
X75139817Y-54927439D01*
X75254626Y-54962266D01*
X75312032Y-54979680D01*
X75396866Y-55025025D01*
X75470745Y-55064514D01*
X75470747Y-55064515D01*
X75470746Y-55064515D01*
X75609858Y-55178682D01*
X75724025Y-55317794D01*
X75808860Y-55476508D01*
X75808860Y-55476509D01*
X75861101Y-55648723D01*
X75878740Y-55827820D01*
X75861101Y-56006917D01*
X75826274Y-56121726D01*
X75808860Y-56179132D01*
X75763515Y-56263966D01*
X75724026Y-56337845D01*
X75609858Y-56476958D01*
X75470745Y-56591126D01*
X75396866Y-56630615D01*
X75312032Y-56675960D01*
X75254626Y-56693374D01*
X75139817Y-56728201D01*
X75072707Y-56734811D01*
X75005600Y-56741420D01*
X74915840Y-56741420D01*
X74848733Y-56734811D01*
X74781623Y-56728201D01*
X74666814Y-56693374D01*
X74609408Y-56675960D01*
X74524574Y-56630615D01*
X74450695Y-56591126D01*
X74311582Y-56476958D01*
X74197414Y-56337845D01*
X74157925Y-56263966D01*
X74112580Y-56179132D01*
X74095166Y-56121726D01*
X74060339Y-56006917D01*
X74042700Y-55827820D01*
X74060339Y-55648723D01*
X74112580Y-55476509D01*
X74112580Y-55476508D01*
X74197415Y-55317794D01*
X74311582Y-55178682D01*
X74450694Y-55064515D01*
X74450693Y-55064515D01*
X74450695Y-55064514D01*
X74524574Y-55025025D01*
X74609408Y-54979680D01*
X74666814Y-54962266D01*
X74781623Y-54927439D01*
X74848733Y-54920829D01*
X74915840Y-54914220D01*
X75005600Y-54914220D01*
X75072707Y-54920829D01*
X75072707Y-54920829D01*
G37*
G36*
X87772707Y-54920829D02*
X87839817Y-54927439D01*
X87954626Y-54962266D01*
X88012032Y-54979680D01*
X88096866Y-55025025D01*
X88170745Y-55064514D01*
X88170747Y-55064515D01*
X88170746Y-55064515D01*
X88309858Y-55178682D01*
X88424025Y-55317794D01*
X88508860Y-55476508D01*
X88508860Y-55476509D01*
X88561101Y-55648723D01*
X88578740Y-55827820D01*
X88561101Y-56006917D01*
X88526274Y-56121726D01*
X88508860Y-56179132D01*
X88463515Y-56263966D01*
X88424026Y-56337845D01*
X88309858Y-56476958D01*
X88170745Y-56591126D01*
X88096866Y-56630615D01*
X88012032Y-56675960D01*
X87954626Y-56693374D01*
X87839817Y-56728201D01*
X87772707Y-56734811D01*
X87705600Y-56741420D01*
X87615840Y-56741420D01*
X87548733Y-56734811D01*
X87481623Y-56728201D01*
X87366814Y-56693374D01*
X87309408Y-56675960D01*
X87224574Y-56630615D01*
X87150695Y-56591126D01*
X87011582Y-56476958D01*
X86897414Y-56337845D01*
X86857925Y-56263966D01*
X86812580Y-56179132D01*
X86795166Y-56121726D01*
X86760339Y-56006917D01*
X86742700Y-55827820D01*
X86760339Y-55648723D01*
X86812580Y-55476509D01*
X86812580Y-55476508D01*
X86897415Y-55317794D01*
X87011582Y-55178682D01*
X87150694Y-55064515D01*
X87150693Y-55064515D01*
X87150695Y-55064514D01*
X87224574Y-55025025D01*
X87309408Y-54979680D01*
X87366814Y-54962266D01*
X87481623Y-54927439D01*
X87548733Y-54920829D01*
X87615840Y-54914220D01*
X87705600Y-54914220D01*
X87772707Y-54920829D01*
X87772707Y-54920829D01*
G37*
G36*
X72532707Y-54920829D02*
X72599817Y-54927439D01*
X72714626Y-54962266D01*
X72772032Y-54979680D01*
X72856866Y-55025025D01*
X72930745Y-55064514D01*
X72930747Y-55064515D01*
X72930746Y-55064515D01*
X73069858Y-55178682D01*
X73184025Y-55317794D01*
X73268860Y-55476508D01*
X73268860Y-55476509D01*
X73321101Y-55648723D01*
X73338740Y-55827820D01*
X73321101Y-56006917D01*
X73286274Y-56121726D01*
X73268860Y-56179132D01*
X73223515Y-56263966D01*
X73184026Y-56337845D01*
X73069858Y-56476958D01*
X72930745Y-56591126D01*
X72856866Y-56630615D01*
X72772032Y-56675960D01*
X72714626Y-56693374D01*
X72599817Y-56728201D01*
X72532707Y-56734811D01*
X72465600Y-56741420D01*
X72375840Y-56741420D01*
X72308733Y-56734811D01*
X72241623Y-56728201D01*
X72126814Y-56693374D01*
X72069408Y-56675960D01*
X71984574Y-56630615D01*
X71910695Y-56591126D01*
X71771582Y-56476958D01*
X71657414Y-56337845D01*
X71617925Y-56263966D01*
X71572580Y-56179132D01*
X71555166Y-56121726D01*
X71520339Y-56006917D01*
X71502700Y-55827820D01*
X71520339Y-55648723D01*
X71572580Y-55476509D01*
X71572580Y-55476508D01*
X71657415Y-55317794D01*
X71771582Y-55178682D01*
X71910694Y-55064515D01*
X71910693Y-55064515D01*
X71910695Y-55064514D01*
X71984574Y-55025025D01*
X72069408Y-54979680D01*
X72126814Y-54962266D01*
X72241623Y-54927439D01*
X72308733Y-54920829D01*
X72375840Y-54914220D01*
X72465600Y-54914220D01*
X72532707Y-54920829D01*
X72532707Y-54920829D01*
G37*
G36*
X69992707Y-54920829D02*
X70059817Y-54927439D01*
X70174626Y-54962266D01*
X70232032Y-54979680D01*
X70316866Y-55025025D01*
X70390745Y-55064514D01*
X70390747Y-55064515D01*
X70390746Y-55064515D01*
X70529858Y-55178682D01*
X70644025Y-55317794D01*
X70728860Y-55476508D01*
X70728860Y-55476509D01*
X70781101Y-55648723D01*
X70798740Y-55827820D01*
X70781101Y-56006917D01*
X70746274Y-56121726D01*
X70728860Y-56179132D01*
X70683515Y-56263966D01*
X70644026Y-56337845D01*
X70529858Y-56476958D01*
X70390745Y-56591126D01*
X70316866Y-56630615D01*
X70232032Y-56675960D01*
X70174626Y-56693374D01*
X70059817Y-56728201D01*
X69992707Y-56734811D01*
X69925600Y-56741420D01*
X69835840Y-56741420D01*
X69768733Y-56734811D01*
X69701623Y-56728201D01*
X69586814Y-56693374D01*
X69529408Y-56675960D01*
X69444574Y-56630615D01*
X69370695Y-56591126D01*
X69231582Y-56476958D01*
X69117414Y-56337845D01*
X69077925Y-56263966D01*
X69032580Y-56179132D01*
X69015166Y-56121726D01*
X68980339Y-56006917D01*
X68962700Y-55827820D01*
X68980339Y-55648723D01*
X69032580Y-55476509D01*
X69032580Y-55476508D01*
X69117415Y-55317794D01*
X69231582Y-55178682D01*
X69370694Y-55064515D01*
X69370693Y-55064515D01*
X69370695Y-55064514D01*
X69444574Y-55025025D01*
X69529408Y-54979680D01*
X69586814Y-54962266D01*
X69701623Y-54927439D01*
X69768733Y-54920829D01*
X69835840Y-54914220D01*
X69925600Y-54914220D01*
X69992707Y-54920829D01*
X69992707Y-54920829D01*
G37*
G36*
X93654320Y-56741420D02*
X91827120Y-56741420D01*
X91827120Y-54914220D01*
X93654320Y-54914220D01*
X93654320Y-56741420D01*
X93654320Y-56741420D01*
G37*
G36*
X212677540Y-53000520D02*
X211277540Y-53000520D01*
X211277540Y-51600520D01*
X212677540Y-51600520D01*
X212677540Y-53000520D01*
X212677540Y-53000520D01*
G37*
G36*
X207181723Y-51627420D02*
X207309114Y-51680188D01*
X207423764Y-51756794D01*
X207521266Y-51854296D01*
X207576084Y-51936338D01*
X207597872Y-51968946D01*
X207650640Y-52096337D01*
X207677540Y-52231575D01*
X207677540Y-52369465D01*
X207650640Y-52504703D01*
X207597872Y-52632094D01*
X207521265Y-52746745D01*
X207423765Y-52844245D01*
X207309114Y-52920852D01*
X207181723Y-52973620D01*
X207046485Y-53000520D01*
X206908595Y-53000520D01*
X206773357Y-52973620D01*
X206645966Y-52920852D01*
X206531315Y-52844245D01*
X206433815Y-52746745D01*
X206357208Y-52632094D01*
X206304440Y-52504703D01*
X206277540Y-52369465D01*
X206277540Y-52231575D01*
X206304440Y-52096337D01*
X206357208Y-51968946D01*
X206378996Y-51936338D01*
X206433814Y-51854296D01*
X206531316Y-51756794D01*
X206645966Y-51680188D01*
X206773357Y-51627420D01*
X206908595Y-51600520D01*
X207046485Y-51600520D01*
X207181723Y-51627420D01*
X207181723Y-51627420D01*
G37*
G36*
X219507540Y-52840520D02*
X218107540Y-52840520D01*
X218107540Y-51440520D01*
X219507540Y-51440520D01*
X219507540Y-52840520D01*
X219507540Y-52840520D01*
G37*
G36*
X224011723Y-51467420D02*
X224139114Y-51520188D01*
X224253765Y-51596795D01*
X224351265Y-51694295D01*
X224427872Y-51808946D01*
X224480640Y-51936337D01*
X224507540Y-52071575D01*
X224507540Y-52209465D01*
X224480640Y-52344703D01*
X224427872Y-52472094D01*
X224406084Y-52504703D01*
X224351265Y-52586745D01*
X224253765Y-52684245D01*
X224139114Y-52760852D01*
X224011723Y-52813620D01*
X223876485Y-52840520D01*
X223738595Y-52840520D01*
X223603357Y-52813620D01*
X223475966Y-52760852D01*
X223361315Y-52684245D01*
X223263815Y-52586745D01*
X223208997Y-52504703D01*
X223187208Y-52472094D01*
X223134440Y-52344703D01*
X223107540Y-52209465D01*
X223107540Y-52071575D01*
X223134440Y-51936337D01*
X223187208Y-51808946D01*
X223263815Y-51694295D01*
X223361315Y-51596795D01*
X223475966Y-51520188D01*
X223603357Y-51467420D01*
X223738595Y-51440520D01*
X223876485Y-51440520D01*
X224011723Y-51467420D01*
X224011723Y-51467420D01*
G37*
G36*
X82754496Y-44387819D02*
X82869305Y-44422646D01*
X82926711Y-44440060D01*
X82984599Y-44471002D01*
X83085424Y-44524894D01*
X83224538Y-44639062D01*
X83338706Y-44778175D01*
X83378195Y-44852054D01*
X83423540Y-44936888D01*
X83440954Y-44994294D01*
X83475781Y-45109103D01*
X83489000Y-45243322D01*
X83489000Y-45637877D01*
X83475781Y-45772096D01*
X83423540Y-45944311D01*
X83338706Y-46103025D01*
X83224538Y-46242138D01*
X83085425Y-46356306D01*
X83011546Y-46395795D01*
X82926712Y-46441140D01*
X82869306Y-46458554D01*
X82754497Y-46493381D01*
X82575400Y-46511020D01*
X82396304Y-46493381D01*
X82281495Y-46458554D01*
X82224089Y-46441140D01*
X82139255Y-46395795D01*
X82065376Y-46356306D01*
X81926263Y-46242138D01*
X81812094Y-46103025D01*
X81755538Y-45997216D01*
X81727260Y-45944312D01*
X81709846Y-45886906D01*
X81675019Y-45772097D01*
X81661800Y-45637878D01*
X81661800Y-45243323D01*
X81675019Y-45109104D01*
X81727260Y-44936890D01*
X81727260Y-44936889D01*
X81758202Y-44879001D01*
X81812094Y-44778176D01*
X81926262Y-44639062D01*
X82065375Y-44524894D01*
X82139254Y-44485405D01*
X82224088Y-44440060D01*
X82281494Y-44422646D01*
X82396303Y-44387819D01*
X82575400Y-44370180D01*
X82754496Y-44387819D01*
X82754496Y-44387819D01*
G37*
G36*
X80214496Y-44387819D02*
X80329305Y-44422646D01*
X80386711Y-44440060D01*
X80444599Y-44471002D01*
X80545424Y-44524894D01*
X80684538Y-44639062D01*
X80798706Y-44778175D01*
X80838195Y-44852054D01*
X80883540Y-44936888D01*
X80900954Y-44994294D01*
X80935781Y-45109103D01*
X80949000Y-45243322D01*
X80949000Y-45637877D01*
X80935781Y-45772096D01*
X80883540Y-45944311D01*
X80798706Y-46103025D01*
X80684538Y-46242138D01*
X80545425Y-46356306D01*
X80471546Y-46395795D01*
X80386712Y-46441140D01*
X80329306Y-46458554D01*
X80214497Y-46493381D01*
X80035400Y-46511020D01*
X79856304Y-46493381D01*
X79741495Y-46458554D01*
X79684089Y-46441140D01*
X79599255Y-46395795D01*
X79525376Y-46356306D01*
X79386263Y-46242138D01*
X79272094Y-46103025D01*
X79215538Y-45997216D01*
X79187260Y-45944312D01*
X79169846Y-45886906D01*
X79135019Y-45772097D01*
X79121800Y-45637878D01*
X79121800Y-45243323D01*
X79135019Y-45109104D01*
X79187260Y-44936890D01*
X79187260Y-44936889D01*
X79218202Y-44879001D01*
X79272094Y-44778176D01*
X79386262Y-44639062D01*
X79525375Y-44524894D01*
X79599254Y-44485405D01*
X79684088Y-44440060D01*
X79741494Y-44422646D01*
X79856303Y-44387819D01*
X80035400Y-44370180D01*
X80214496Y-44387819D01*
X80214496Y-44387819D01*
G37*
G36*
X86029000Y-46506600D02*
X84201800Y-46506600D01*
X84201800Y-44374600D01*
X86029000Y-44374600D01*
X86029000Y-46506600D01*
X86029000Y-46506600D01*
G37*
G36*
X174708397Y-36980868D02*
X174885836Y-37054366D01*
X175045527Y-37161068D01*
X175181332Y-37296873D01*
X175288034Y-37456564D01*
X175361532Y-37634003D01*
X175399000Y-37822371D01*
X175399000Y-38014429D01*
X175361532Y-38202797D01*
X175288034Y-38380236D01*
X175181332Y-38539927D01*
X175045527Y-38675732D01*
X174885836Y-38782434D01*
X174708397Y-38855932D01*
X174520029Y-38893400D01*
X174327971Y-38893400D01*
X174139603Y-38855932D01*
X173962164Y-38782434D01*
X173802473Y-38675732D01*
X173666668Y-38539927D01*
X173559966Y-38380236D01*
X173486468Y-38202797D01*
X173449000Y-38014429D01*
X173449000Y-37822371D01*
X173486468Y-37634003D01*
X173559966Y-37456564D01*
X173666668Y-37296873D01*
X173802473Y-37161068D01*
X173962164Y-37054366D01*
X174139603Y-36980868D01*
X174327971Y-36943400D01*
X174520029Y-36943400D01*
X174708397Y-36980868D01*
X174708397Y-36980868D01*
G37*
G36*
X169268397Y-36980868D02*
X169445836Y-37054366D01*
X169605527Y-37161068D01*
X169741332Y-37296873D01*
X169848034Y-37456564D01*
X169921532Y-37634003D01*
X169959000Y-37822371D01*
X169959000Y-38014429D01*
X169921532Y-38202797D01*
X169848034Y-38380236D01*
X169741332Y-38539927D01*
X169605527Y-38675732D01*
X169445836Y-38782434D01*
X169268397Y-38855932D01*
X169080029Y-38893400D01*
X168887971Y-38893400D01*
X168699603Y-38855932D01*
X168522164Y-38782434D01*
X168362473Y-38675732D01*
X168226668Y-38539927D01*
X168119966Y-38380236D01*
X168046468Y-38202797D01*
X168009000Y-38014429D01*
X168009000Y-37822371D01*
X168046468Y-37634003D01*
X168119966Y-37456564D01*
X168226668Y-37296873D01*
X168362473Y-37161068D01*
X168522164Y-37054366D01*
X168699603Y-36980868D01*
X168887971Y-36943400D01*
X169080029Y-36943400D01*
X169268397Y-36980868D01*
X169268397Y-36980868D01*
G37*
G36*
X171871778Y-36804924D02*
X171954853Y-36821449D01*
X172111363Y-36886278D01*
X172181790Y-36933336D01*
X172252220Y-36980396D01*
X172372004Y-37100180D01*
X172372005Y-37100182D01*
X172466122Y-37241037D01*
X172530951Y-37397547D01*
X172547475Y-37480622D01*
X172564000Y-37563696D01*
X172564000Y-37733104D01*
X172530951Y-37899252D01*
X172466123Y-38055761D01*
X172372004Y-38196620D01*
X172252220Y-38316404D01*
X172181791Y-38363463D01*
X172111363Y-38410522D01*
X171954853Y-38475351D01*
X171871778Y-38491876D01*
X171788704Y-38508400D01*
X171619296Y-38508400D01*
X171536222Y-38491876D01*
X171453147Y-38475351D01*
X171296637Y-38410522D01*
X171226209Y-38363463D01*
X171155780Y-38316404D01*
X171035996Y-38196620D01*
X170941877Y-38055761D01*
X170877049Y-37899252D01*
X170844000Y-37733104D01*
X170844000Y-37563696D01*
X170860525Y-37480622D01*
X170877049Y-37397547D01*
X170941878Y-37241037D01*
X171035995Y-37100182D01*
X171035996Y-37100180D01*
X171155780Y-36980396D01*
X171226210Y-36933336D01*
X171296637Y-36886278D01*
X171453147Y-36821449D01*
X171536222Y-36804924D01*
X171619296Y-36788400D01*
X171788704Y-36788400D01*
X171871778Y-36804924D01*
X171871778Y-36804924D01*
G37*
G36*
X171871778Y-34804924D02*
X171954853Y-34821449D01*
X172111363Y-34886278D01*
X172181790Y-34933336D01*
X172252220Y-34980396D01*
X172372004Y-35100180D01*
X172466123Y-35241039D01*
X172530951Y-35397548D01*
X172564000Y-35563696D01*
X172564000Y-35733104D01*
X172530951Y-35899252D01*
X172466123Y-36055761D01*
X172372004Y-36196620D01*
X172252220Y-36316404D01*
X172181790Y-36363464D01*
X172111363Y-36410522D01*
X171954853Y-36475351D01*
X171871778Y-36491875D01*
X171788704Y-36508400D01*
X171619296Y-36508400D01*
X171536222Y-36491875D01*
X171453147Y-36475351D01*
X171296637Y-36410522D01*
X171226209Y-36363463D01*
X171155780Y-36316404D01*
X171035996Y-36196620D01*
X170941877Y-36055761D01*
X170877049Y-35899252D01*
X170844000Y-35733104D01*
X170844000Y-35563696D01*
X170877049Y-35397548D01*
X170941877Y-35241039D01*
X171035996Y-35100180D01*
X171155780Y-34980396D01*
X171226210Y-34933336D01*
X171296637Y-34886278D01*
X171453147Y-34821449D01*
X171536222Y-34804925D01*
X171619296Y-34788400D01*
X171788704Y-34788400D01*
X171871778Y-34804924D01*
X171871778Y-34804924D01*
G37*
G36*
X121932306Y-32915775D02*
X122150692Y-33006233D01*
X122347238Y-33137561D01*
X122514379Y-33304702D01*
X122645707Y-33501248D01*
X122736165Y-33719634D01*
X122782280Y-33951469D01*
X122782280Y-34187851D01*
X122736165Y-34419686D01*
X122645707Y-34638072D01*
X122514379Y-34834618D01*
X122347238Y-35001759D01*
X122150692Y-35133087D01*
X121932306Y-35223545D01*
X121700471Y-35269660D01*
X121464089Y-35269660D01*
X121232254Y-35223545D01*
X121013868Y-35133087D01*
X120817322Y-35001759D01*
X120650181Y-34834618D01*
X120518853Y-34638072D01*
X120428395Y-34419686D01*
X120382280Y-34187851D01*
X120382280Y-33951469D01*
X120428395Y-33719634D01*
X120518853Y-33501248D01*
X120650181Y-33304702D01*
X120817322Y-33137561D01*
X121013868Y-33006233D01*
X121232254Y-32915775D01*
X121464089Y-32869660D01*
X121700471Y-32869660D01*
X121932306Y-32915775D01*
X121932306Y-32915775D01*
G37*
G36*
X131932306Y-32915775D02*
X132150692Y-33006233D01*
X132347238Y-33137561D01*
X132514379Y-33304702D01*
X132645707Y-33501248D01*
X132736165Y-33719634D01*
X132782280Y-33951469D01*
X132782280Y-34187851D01*
X132736165Y-34419686D01*
X132645707Y-34638072D01*
X132514379Y-34834618D01*
X132347238Y-35001759D01*
X132150692Y-35133087D01*
X131932306Y-35223545D01*
X131700471Y-35269660D01*
X131464089Y-35269660D01*
X131232254Y-35223545D01*
X131013868Y-35133087D01*
X130817322Y-35001759D01*
X130650181Y-34834618D01*
X130518853Y-34638072D01*
X130428395Y-34419686D01*
X130382280Y-34187851D01*
X130382280Y-33951469D01*
X130428395Y-33719634D01*
X130518853Y-33501248D01*
X130650181Y-33304702D01*
X130817322Y-33137561D01*
X131013868Y-33006233D01*
X131232254Y-32915775D01*
X131464089Y-32869660D01*
X131700471Y-32869660D01*
X131932306Y-32915775D01*
X131932306Y-32915775D01*
G37*
G36*
X100928286Y-32915775D02*
X101146672Y-33006233D01*
X101343218Y-33137561D01*
X101510359Y-33304702D01*
X101641687Y-33501248D01*
X101732145Y-33719634D01*
X101778260Y-33951469D01*
X101778260Y-34187851D01*
X101732145Y-34419686D01*
X101641687Y-34638072D01*
X101510359Y-34834618D01*
X101343218Y-35001759D01*
X101146672Y-35133087D01*
X100928286Y-35223545D01*
X100696451Y-35269660D01*
X100460069Y-35269660D01*
X100228234Y-35223545D01*
X100009848Y-35133087D01*
X99813302Y-35001759D01*
X99646161Y-34834618D01*
X99514833Y-34638072D01*
X99424375Y-34419686D01*
X99378260Y-34187851D01*
X99378260Y-33951469D01*
X99424375Y-33719634D01*
X99514833Y-33501248D01*
X99646161Y-33304702D01*
X99813302Y-33137561D01*
X100009848Y-33006233D01*
X100228234Y-32915775D01*
X100460069Y-32869660D01*
X100696451Y-32869660D01*
X100928286Y-32915775D01*
X100928286Y-32915775D01*
G37*
G36*
X110928286Y-32915775D02*
X111146672Y-33006233D01*
X111343218Y-33137561D01*
X111510359Y-33304702D01*
X111641687Y-33501248D01*
X111732145Y-33719634D01*
X111778260Y-33951469D01*
X111778260Y-34187851D01*
X111732145Y-34419686D01*
X111641687Y-34638072D01*
X111510359Y-34834618D01*
X111343218Y-35001759D01*
X111146672Y-35133087D01*
X110928286Y-35223545D01*
X110696451Y-35269660D01*
X110460069Y-35269660D01*
X110228234Y-35223545D01*
X110009848Y-35133087D01*
X109813302Y-35001759D01*
X109646161Y-34834618D01*
X109514833Y-34638072D01*
X109424375Y-34419686D01*
X109378260Y-34187851D01*
X109378260Y-33951469D01*
X109424375Y-33719634D01*
X109514833Y-33501248D01*
X109646161Y-33304702D01*
X109813302Y-33137561D01*
X110009848Y-33006233D01*
X110228234Y-32915775D01*
X110460069Y-32869660D01*
X110696451Y-32869660D01*
X110928286Y-32915775D01*
X110928286Y-32915775D01*
G37*
G36*
X171871778Y-32804925D02*
X171954853Y-32821449D01*
X172111363Y-32886278D01*
X172181791Y-32933337D01*
X172252220Y-32980396D01*
X172372004Y-33100180D01*
X172466123Y-33241039D01*
X172530951Y-33397548D01*
X172564000Y-33563696D01*
X172564000Y-33733104D01*
X172530951Y-33899252D01*
X172466123Y-34055761D01*
X172372004Y-34196620D01*
X172252220Y-34316404D01*
X172181790Y-34363464D01*
X172111363Y-34410522D01*
X172111362Y-34410523D01*
X172111361Y-34410523D01*
X172089237Y-34419687D01*
X171954853Y-34475351D01*
X171871778Y-34491875D01*
X171788704Y-34508400D01*
X171619296Y-34508400D01*
X171536222Y-34491876D01*
X171453147Y-34475351D01*
X171318763Y-34419687D01*
X171296639Y-34410523D01*
X171296638Y-34410523D01*
X171296637Y-34410522D01*
X171226209Y-34363463D01*
X171155780Y-34316404D01*
X171035996Y-34196620D01*
X170941877Y-34055761D01*
X170877049Y-33899252D01*
X170844000Y-33733104D01*
X170844000Y-33563696D01*
X170877049Y-33397548D01*
X170941877Y-33241039D01*
X171035996Y-33100180D01*
X171155780Y-32980396D01*
X171226209Y-32933337D01*
X171296637Y-32886278D01*
X171453147Y-32821449D01*
X171536222Y-32804925D01*
X171619296Y-32788400D01*
X171788704Y-32788400D01*
X171871778Y-32804925D01*
X171871778Y-32804925D01*
G37*
G36*
X119432306Y-30415775D02*
X119650692Y-30506233D01*
X119847238Y-30637561D01*
X120014379Y-30804702D01*
X120145707Y-31001248D01*
X120236165Y-31219634D01*
X120282280Y-31451469D01*
X120282280Y-31687851D01*
X120236165Y-31919686D01*
X120145707Y-32138072D01*
X120014379Y-32334618D01*
X119847238Y-32501759D01*
X119650692Y-32633087D01*
X119432306Y-32723545D01*
X119200471Y-32769660D01*
X118964089Y-32769660D01*
X118732254Y-32723545D01*
X118513868Y-32633087D01*
X118317322Y-32501759D01*
X118150181Y-32334618D01*
X118018853Y-32138072D01*
X117928395Y-31919686D01*
X117882280Y-31687851D01*
X117882280Y-31451469D01*
X117928395Y-31219634D01*
X118018853Y-31001248D01*
X118150181Y-30804702D01*
X118317322Y-30637561D01*
X118513868Y-30506233D01*
X118732254Y-30415775D01*
X118964089Y-30369660D01*
X119200471Y-30369660D01*
X119432306Y-30415775D01*
X119432306Y-30415775D01*
G37*
G36*
X134432306Y-30415775D02*
X134650692Y-30506233D01*
X134847238Y-30637561D01*
X135014379Y-30804702D01*
X135145707Y-31001248D01*
X135236165Y-31219634D01*
X135282280Y-31451469D01*
X135282280Y-31687851D01*
X135236165Y-31919686D01*
X135145707Y-32138072D01*
X135014379Y-32334618D01*
X134847238Y-32501759D01*
X134650692Y-32633087D01*
X134432306Y-32723545D01*
X134200471Y-32769660D01*
X133964089Y-32769660D01*
X133732254Y-32723545D01*
X133513868Y-32633087D01*
X133317322Y-32501759D01*
X133150181Y-32334618D01*
X133018853Y-32138072D01*
X132928395Y-31919686D01*
X132882280Y-31687851D01*
X132882280Y-31451469D01*
X132928395Y-31219634D01*
X133018853Y-31001248D01*
X133150181Y-30804702D01*
X133317322Y-30637561D01*
X133513868Y-30506233D01*
X133732254Y-30415775D01*
X133964089Y-30369660D01*
X134200471Y-30369660D01*
X134432306Y-30415775D01*
X134432306Y-30415775D01*
G37*
G36*
X126932306Y-30415775D02*
X127150692Y-30506233D01*
X127347238Y-30637561D01*
X127514379Y-30804702D01*
X127645707Y-31001248D01*
X127736165Y-31219634D01*
X127782280Y-31451469D01*
X127782280Y-31687851D01*
X127736165Y-31919686D01*
X127645707Y-32138072D01*
X127514379Y-32334618D01*
X127347238Y-32501759D01*
X127150692Y-32633087D01*
X126932306Y-32723545D01*
X126700471Y-32769660D01*
X126464089Y-32769660D01*
X126232254Y-32723545D01*
X126013868Y-32633087D01*
X125817322Y-32501759D01*
X125650181Y-32334618D01*
X125518853Y-32138072D01*
X125428395Y-31919686D01*
X125382280Y-31687851D01*
X125382280Y-31451469D01*
X125428395Y-31219634D01*
X125518853Y-31001248D01*
X125650181Y-30804702D01*
X125817322Y-30637561D01*
X126013868Y-30506233D01*
X126232254Y-30415775D01*
X126464089Y-30369660D01*
X126700471Y-30369660D01*
X126932306Y-30415775D01*
X126932306Y-30415775D01*
G37*
G36*
X105928286Y-30415775D02*
X106146672Y-30506233D01*
X106343218Y-30637561D01*
X106510359Y-30804702D01*
X106641687Y-31001248D01*
X106732145Y-31219634D01*
X106778260Y-31451469D01*
X106778260Y-31687851D01*
X106732145Y-31919686D01*
X106641687Y-32138072D01*
X106510359Y-32334618D01*
X106343218Y-32501759D01*
X106146672Y-32633087D01*
X105928286Y-32723545D01*
X105696451Y-32769660D01*
X105460069Y-32769660D01*
X105228234Y-32723545D01*
X105009848Y-32633087D01*
X104813302Y-32501759D01*
X104646161Y-32334618D01*
X104514833Y-32138072D01*
X104424375Y-31919686D01*
X104378260Y-31687851D01*
X104378260Y-31451469D01*
X104424375Y-31219634D01*
X104514833Y-31001248D01*
X104646161Y-30804702D01*
X104813302Y-30637561D01*
X105009848Y-30506233D01*
X105228234Y-30415775D01*
X105460069Y-30369660D01*
X105696451Y-30369660D01*
X105928286Y-30415775D01*
X105928286Y-30415775D01*
G37*
G36*
X98428286Y-30415775D02*
X98646672Y-30506233D01*
X98843218Y-30637561D01*
X99010359Y-30804702D01*
X99141687Y-31001248D01*
X99232145Y-31219634D01*
X99278260Y-31451469D01*
X99278260Y-31687851D01*
X99232145Y-31919686D01*
X99141687Y-32138072D01*
X99010359Y-32334618D01*
X98843218Y-32501759D01*
X98646672Y-32633087D01*
X98428286Y-32723545D01*
X98196451Y-32769660D01*
X97960069Y-32769660D01*
X97728234Y-32723545D01*
X97509848Y-32633087D01*
X97313302Y-32501759D01*
X97146161Y-32334618D01*
X97014833Y-32138072D01*
X96924375Y-31919686D01*
X96878260Y-31687851D01*
X96878260Y-31451469D01*
X96924375Y-31219634D01*
X97014833Y-31001248D01*
X97146161Y-30804702D01*
X97313302Y-30637561D01*
X97509848Y-30506233D01*
X97728234Y-30415775D01*
X97960069Y-30369660D01*
X98196451Y-30369660D01*
X98428286Y-30415775D01*
X98428286Y-30415775D01*
G37*
G36*
X113428286Y-30415775D02*
X113646672Y-30506233D01*
X113843218Y-30637561D01*
X114010359Y-30804702D01*
X114141687Y-31001248D01*
X114232145Y-31219634D01*
X114278260Y-31451469D01*
X114278260Y-31687851D01*
X114232145Y-31919686D01*
X114141687Y-32138072D01*
X114010359Y-32334618D01*
X113843218Y-32501759D01*
X113646672Y-32633087D01*
X113428286Y-32723545D01*
X113196451Y-32769660D01*
X112960069Y-32769660D01*
X112728234Y-32723545D01*
X112509848Y-32633087D01*
X112313302Y-32501759D01*
X112146161Y-32334618D01*
X112014833Y-32138072D01*
X111924375Y-31919686D01*
X111878260Y-31687851D01*
X111878260Y-31451469D01*
X111924375Y-31219634D01*
X112014833Y-31001248D01*
X112146161Y-30804702D01*
X112313302Y-30637561D01*
X112509848Y-30506233D01*
X112728234Y-30415775D01*
X112960069Y-30369660D01*
X113196451Y-30369660D01*
X113428286Y-30415775D01*
X113428286Y-30415775D01*
G37*
G36*
X171871778Y-30804924D02*
X171954853Y-30821449D01*
X172111363Y-30886278D01*
X172170517Y-30925804D01*
X172252220Y-30980396D01*
X172372004Y-31100180D01*
X172372005Y-31100182D01*
X172466122Y-31241037D01*
X172530951Y-31397547D01*
X172537997Y-31432970D01*
X172564000Y-31563696D01*
X172564000Y-31733104D01*
X172530951Y-31899252D01*
X172466123Y-32055761D01*
X172372004Y-32196620D01*
X172252220Y-32316404D01*
X172224965Y-32334615D01*
X172111363Y-32410522D01*
X171954853Y-32475351D01*
X171871778Y-32491875D01*
X171788704Y-32508400D01*
X171619296Y-32508400D01*
X171536222Y-32491875D01*
X171453147Y-32475351D01*
X171296637Y-32410522D01*
X171183035Y-32334615D01*
X171155780Y-32316404D01*
X171035996Y-32196620D01*
X170941877Y-32055761D01*
X170877049Y-31899252D01*
X170844000Y-31733104D01*
X170844000Y-31563696D01*
X170870003Y-31432970D01*
X170877049Y-31397547D01*
X170941878Y-31241037D01*
X171035995Y-31100182D01*
X171035996Y-31100180D01*
X171155780Y-30980396D01*
X171237483Y-30925804D01*
X171296637Y-30886278D01*
X171453147Y-30821449D01*
X171536222Y-30804924D01*
X171619296Y-30788400D01*
X171788704Y-30788400D01*
X171871778Y-30804924D01*
X171871778Y-30804924D01*
G37*
G36*
X169268397Y-29980868D02*
X169445836Y-30054366D01*
X169605527Y-30161068D01*
X169741332Y-30296873D01*
X169848034Y-30456564D01*
X169921532Y-30634003D01*
X169959000Y-30822371D01*
X169959000Y-31014429D01*
X169921532Y-31202797D01*
X169848034Y-31380236D01*
X169741332Y-31539927D01*
X169605527Y-31675732D01*
X169445836Y-31782434D01*
X169268397Y-31855932D01*
X169080029Y-31893400D01*
X168887971Y-31893400D01*
X168699603Y-31855932D01*
X168522164Y-31782434D01*
X168362473Y-31675732D01*
X168226668Y-31539927D01*
X168119966Y-31380236D01*
X168046468Y-31202797D01*
X168009000Y-31014429D01*
X168009000Y-30822371D01*
X168046468Y-30634003D01*
X168119966Y-30456564D01*
X168226668Y-30296873D01*
X168362473Y-30161068D01*
X168522164Y-30054366D01*
X168699603Y-29980868D01*
X168887971Y-29943400D01*
X169080029Y-29943400D01*
X169268397Y-29980868D01*
X169268397Y-29980868D01*
G37*
G36*
X174708397Y-29980868D02*
X174885836Y-30054366D01*
X175045527Y-30161068D01*
X175181332Y-30296873D01*
X175288034Y-30456564D01*
X175361532Y-30634003D01*
X175399000Y-30822371D01*
X175399000Y-31014429D01*
X175361532Y-31202797D01*
X175288034Y-31380236D01*
X175181332Y-31539927D01*
X175045527Y-31675732D01*
X174885836Y-31782434D01*
X174708397Y-31855932D01*
X174520029Y-31893400D01*
X174327971Y-31893400D01*
X174139603Y-31855932D01*
X173962164Y-31782434D01*
X173802473Y-31675732D01*
X173666668Y-31539927D01*
X173559966Y-31380236D01*
X173486468Y-31202797D01*
X173449000Y-31014429D01*
X173449000Y-30822371D01*
X173486468Y-30634003D01*
X173559966Y-30456564D01*
X173666668Y-30296873D01*
X173802473Y-30161068D01*
X173962164Y-30054366D01*
X174139603Y-29980868D01*
X174327971Y-29943400D01*
X174520029Y-29943400D01*
X174708397Y-29980868D01*
X174708397Y-29980868D01*
G37*
G36*
X208625660Y-31823880D02*
X204525660Y-31823880D01*
X204525660Y-27723880D01*
X208625660Y-27723880D01*
X208625660Y-31823880D01*
X208625660Y-31823880D01*
G37*
G36*
X156698312Y-30224984D02*
X156846085Y-30286194D01*
X156979083Y-30375060D01*
X157092180Y-30488157D01*
X157181046Y-30621155D01*
X157242256Y-30768928D01*
X157273460Y-30925804D01*
X157273460Y-31085756D01*
X157242256Y-31242632D01*
X157181046Y-31390405D01*
X157092180Y-31523403D01*
X156979083Y-31636500D01*
X156846085Y-31725366D01*
X156698312Y-31786576D01*
X156541436Y-31817780D01*
X156381484Y-31817780D01*
X156224608Y-31786576D01*
X156076835Y-31725366D01*
X155943837Y-31636500D01*
X155830740Y-31523403D01*
X155741874Y-31390405D01*
X155680664Y-31242632D01*
X155649460Y-31085756D01*
X155649460Y-30925804D01*
X155680664Y-30768928D01*
X155741874Y-30621155D01*
X155830740Y-30488157D01*
X155943837Y-30375060D01*
X156076835Y-30286194D01*
X156224608Y-30224984D01*
X156381484Y-30193780D01*
X156541436Y-30193780D01*
X156698312Y-30224984D01*
X156698312Y-30224984D01*
G37*
G36*
X159238312Y-30224984D02*
X159386085Y-30286194D01*
X159519083Y-30375060D01*
X159632180Y-30488157D01*
X159721046Y-30621155D01*
X159782256Y-30768928D01*
X159813460Y-30925804D01*
X159813460Y-31085756D01*
X159782256Y-31242632D01*
X159721046Y-31390405D01*
X159632180Y-31523403D01*
X159519083Y-31636500D01*
X159386085Y-31725366D01*
X159238312Y-31786576D01*
X159081436Y-31817780D01*
X158921484Y-31817780D01*
X158764608Y-31786576D01*
X158616835Y-31725366D01*
X158483837Y-31636500D01*
X158370740Y-31523403D01*
X158281874Y-31390405D01*
X158220664Y-31242632D01*
X158189460Y-31085756D01*
X158189460Y-30925804D01*
X158220664Y-30768928D01*
X158281874Y-30621155D01*
X158370740Y-30488157D01*
X158483837Y-30375060D01*
X158616835Y-30286194D01*
X158764608Y-30224984D01*
X158921484Y-30193780D01*
X159081436Y-30193780D01*
X159238312Y-30224984D01*
X159238312Y-30224984D01*
G37*
G36*
X192663918Y-29862595D02*
X192809612Y-29922944D01*
X192940734Y-30010556D01*
X193052244Y-30122066D01*
X193139856Y-30253188D01*
X193200205Y-30398882D01*
X193230970Y-30553551D01*
X193230970Y-30711249D01*
X193200205Y-30865918D01*
X193139856Y-31011612D01*
X193052244Y-31142734D01*
X192940734Y-31254244D01*
X192809612Y-31341856D01*
X192663918Y-31402205D01*
X192509249Y-31432970D01*
X192351551Y-31432970D01*
X192196882Y-31402205D01*
X192051188Y-31341856D01*
X191920066Y-31254244D01*
X191808556Y-31142734D01*
X191720944Y-31011612D01*
X191660595Y-30865918D01*
X191629830Y-30711249D01*
X191629830Y-30553551D01*
X191660595Y-30398882D01*
X191720944Y-30253188D01*
X191808556Y-30122066D01*
X191920066Y-30010556D01*
X192051188Y-29922944D01*
X192196882Y-29862595D01*
X192351551Y-29831830D01*
X192509249Y-29831830D01*
X192663918Y-29862595D01*
X192663918Y-29862595D01*
G37*
G36*
X183519918Y-29862595D02*
X183665612Y-29922944D01*
X183796734Y-30010556D01*
X183908244Y-30122066D01*
X183995856Y-30253188D01*
X184056205Y-30398882D01*
X184086970Y-30553551D01*
X184086970Y-30711249D01*
X184056205Y-30865918D01*
X183995856Y-31011612D01*
X183908244Y-31142734D01*
X183796734Y-31254244D01*
X183665612Y-31341856D01*
X183519918Y-31402205D01*
X183365249Y-31432970D01*
X183207551Y-31432970D01*
X183052882Y-31402205D01*
X182907188Y-31341856D01*
X182776066Y-31254244D01*
X182664556Y-31142734D01*
X182576944Y-31011612D01*
X182516595Y-30865918D01*
X182485830Y-30711249D01*
X182485830Y-30553551D01*
X182516595Y-30398882D01*
X182576944Y-30253188D01*
X182664556Y-30122066D01*
X182776066Y-30010556D01*
X182907188Y-29922944D01*
X183052882Y-29862595D01*
X183207551Y-29831830D01*
X183365249Y-29831830D01*
X183519918Y-29862595D01*
X183519918Y-29862595D01*
G37*
G36*
X194949918Y-29862595D02*
X195095612Y-29922944D01*
X195226734Y-30010556D01*
X195338244Y-30122066D01*
X195425856Y-30253188D01*
X195486205Y-30398882D01*
X195516970Y-30553551D01*
X195516970Y-30711249D01*
X195486205Y-30865918D01*
X195425856Y-31011612D01*
X195338244Y-31142734D01*
X195226734Y-31254244D01*
X195095612Y-31341856D01*
X194949918Y-31402205D01*
X194795249Y-31432970D01*
X194637551Y-31432970D01*
X194482882Y-31402205D01*
X194337188Y-31341856D01*
X194206066Y-31254244D01*
X194094556Y-31142734D01*
X194006944Y-31011612D01*
X193946595Y-30865918D01*
X193915830Y-30711249D01*
X193915830Y-30553551D01*
X193946595Y-30398882D01*
X194006944Y-30253188D01*
X194094556Y-30122066D01*
X194206066Y-30010556D01*
X194337188Y-29922944D01*
X194482882Y-29862595D01*
X194637551Y-29831830D01*
X194795249Y-29831830D01*
X194949918Y-29862595D01*
X194949918Y-29862595D01*
G37*
G36*
X181233918Y-29862595D02*
X181379612Y-29922944D01*
X181510734Y-30010556D01*
X181622244Y-30122066D01*
X181709856Y-30253188D01*
X181770205Y-30398882D01*
X181800970Y-30553551D01*
X181800970Y-30711249D01*
X181770205Y-30865918D01*
X181709856Y-31011612D01*
X181622244Y-31142734D01*
X181510734Y-31254244D01*
X181379612Y-31341856D01*
X181233918Y-31402205D01*
X181079249Y-31432970D01*
X180921551Y-31432970D01*
X180766882Y-31402205D01*
X180621188Y-31341856D01*
X180490066Y-31254244D01*
X180378556Y-31142734D01*
X180290944Y-31011612D01*
X180230595Y-30865918D01*
X180199830Y-30711249D01*
X180199830Y-30553551D01*
X180230595Y-30398882D01*
X180290944Y-30253188D01*
X180378556Y-30122066D01*
X180490066Y-30010556D01*
X180621188Y-29922944D01*
X180766882Y-29862595D01*
X180921551Y-29831830D01*
X181079249Y-29831830D01*
X181233918Y-29862595D01*
X181233918Y-29862595D01*
G37*
G36*
X159238312Y-28226004D02*
X159386085Y-28287214D01*
X159519083Y-28376080D01*
X159632180Y-28489177D01*
X159721046Y-28622175D01*
X159782256Y-28769948D01*
X159813460Y-28926824D01*
X159813460Y-29086776D01*
X159782256Y-29243652D01*
X159721046Y-29391425D01*
X159632180Y-29524423D01*
X159519083Y-29637520D01*
X159386085Y-29726386D01*
X159238312Y-29787596D01*
X159081436Y-29818800D01*
X158921484Y-29818800D01*
X158764608Y-29787596D01*
X158616835Y-29726386D01*
X158483837Y-29637520D01*
X158370740Y-29524423D01*
X158281874Y-29391425D01*
X158220664Y-29243652D01*
X158189460Y-29086776D01*
X158189460Y-28926824D01*
X158220664Y-28769948D01*
X158281874Y-28622175D01*
X158370740Y-28489177D01*
X158483837Y-28376080D01*
X158616835Y-28287214D01*
X158764608Y-28226004D01*
X158921484Y-28194800D01*
X159081436Y-28194800D01*
X159238312Y-28226004D01*
X159238312Y-28226004D01*
G37*
G36*
X156698312Y-28226004D02*
X156846085Y-28287214D01*
X156979083Y-28376080D01*
X157092180Y-28489177D01*
X157181046Y-28622175D01*
X157242256Y-28769948D01*
X157273460Y-28926824D01*
X157273460Y-29086776D01*
X157242256Y-29243652D01*
X157181046Y-29391425D01*
X157092180Y-29524423D01*
X156979083Y-29637520D01*
X156846085Y-29726386D01*
X156698312Y-29787596D01*
X156541436Y-29818800D01*
X156381484Y-29818800D01*
X156224608Y-29787596D01*
X156076835Y-29726386D01*
X155943837Y-29637520D01*
X155830740Y-29524423D01*
X155741874Y-29391425D01*
X155680664Y-29243652D01*
X155649460Y-29086776D01*
X155649460Y-28926824D01*
X155680664Y-28769948D01*
X155741874Y-28622175D01*
X155830740Y-28489177D01*
X155943837Y-28376080D01*
X156076835Y-28287214D01*
X156224608Y-28226004D01*
X156381484Y-28194800D01*
X156541436Y-28194800D01*
X156698312Y-28226004D01*
X156698312Y-28226004D01*
G37*
G36*
X203675660Y-28571340D02*
X200075660Y-28571340D01*
X200075660Y-24971340D01*
X203675660Y-24971340D01*
X203675660Y-28571340D01*
X203675660Y-28571340D01*
G37*
G36*
X164139305Y-24960571D02*
X164139307Y-24960572D01*
X164139308Y-24960572D01*
X164394093Y-25066107D01*
X164464034Y-25112840D01*
X164623397Y-25219323D01*
X164818397Y-25414323D01*
X164818399Y-25414326D01*
X164971613Y-25643627D01*
X165074485Y-25891983D01*
X165077149Y-25898415D01*
X165118142Y-26104499D01*
X165130950Y-26168891D01*
X165130950Y-26444669D01*
X165077148Y-26715148D01*
X164971613Y-26969933D01*
X164971612Y-26969934D01*
X164818397Y-27199237D01*
X164623397Y-27394237D01*
X164623394Y-27394239D01*
X164394093Y-27547453D01*
X164139308Y-27652988D01*
X164139307Y-27652988D01*
X164139305Y-27652989D01*
X163868830Y-27706790D01*
X163593050Y-27706790D01*
X163322575Y-27652989D01*
X163322573Y-27652988D01*
X163322572Y-27652988D01*
X163067787Y-27547453D01*
X162838486Y-27394239D01*
X162838483Y-27394237D01*
X162643483Y-27199237D01*
X162490268Y-26969934D01*
X162490267Y-26969933D01*
X162384732Y-26715148D01*
X162330930Y-26444669D01*
X162330930Y-26168891D01*
X162343738Y-26104499D01*
X162384731Y-25898415D01*
X162387395Y-25891983D01*
X162490267Y-25643627D01*
X162643481Y-25414326D01*
X162643483Y-25414323D01*
X162838483Y-25219323D01*
X162997846Y-25112840D01*
X163067787Y-25066107D01*
X163322572Y-24960572D01*
X163322573Y-24960572D01*
X163322575Y-24960571D01*
X163593050Y-24906770D01*
X163868830Y-24906770D01*
X164139305Y-24960571D01*
X164139305Y-24960571D01*
G37*
G36*
X152140345Y-24960571D02*
X152140347Y-24960572D01*
X152140348Y-24960572D01*
X152395133Y-25066107D01*
X152465074Y-25112840D01*
X152624437Y-25219323D01*
X152819437Y-25414323D01*
X152819439Y-25414326D01*
X152972653Y-25643627D01*
X153075525Y-25891983D01*
X153078189Y-25898415D01*
X153119182Y-26104499D01*
X153131990Y-26168891D01*
X153131990Y-26444669D01*
X153078188Y-26715148D01*
X152972653Y-26969933D01*
X152972652Y-26969934D01*
X152819437Y-27199237D01*
X152624437Y-27394237D01*
X152624434Y-27394239D01*
X152395133Y-27547453D01*
X152140348Y-27652988D01*
X152140347Y-27652988D01*
X152140345Y-27652989D01*
X151869870Y-27706790D01*
X151594090Y-27706790D01*
X151323615Y-27652989D01*
X151323613Y-27652988D01*
X151323612Y-27652988D01*
X151068827Y-27547453D01*
X150839526Y-27394239D01*
X150839523Y-27394237D01*
X150644523Y-27199237D01*
X150491308Y-26969934D01*
X150491307Y-26969933D01*
X150385772Y-26715148D01*
X150331970Y-26444669D01*
X150331970Y-26168891D01*
X150344778Y-26104499D01*
X150385771Y-25898415D01*
X150388435Y-25891983D01*
X150491307Y-25643627D01*
X150644521Y-25414326D01*
X150644523Y-25414323D01*
X150839523Y-25219323D01*
X150998886Y-25112840D01*
X151068827Y-25066107D01*
X151323612Y-24960572D01*
X151323613Y-24960572D01*
X151323615Y-24960571D01*
X151594090Y-24906770D01*
X151869870Y-24906770D01*
X152140345Y-24960571D01*
X152140345Y-24960571D01*
G37*
G36*
X83744297Y-25155112D02*
X83944482Y-25238031D01*
X84124653Y-25358418D01*
X84277862Y-25511627D01*
X84277864Y-25511630D01*
X84277865Y-25511631D01*
X84366061Y-25643626D01*
X84398249Y-25691798D01*
X84481168Y-25891983D01*
X84523440Y-26104498D01*
X84523440Y-26321182D01*
X84481168Y-26533697D01*
X84398249Y-26733882D01*
X84277862Y-26914053D01*
X84124653Y-27067262D01*
X83944482Y-27187649D01*
X83744297Y-27270568D01*
X83531782Y-27312840D01*
X83315098Y-27312840D01*
X83102583Y-27270568D01*
X82902398Y-27187649D01*
X82722227Y-27067262D01*
X82569018Y-26914053D01*
X82448631Y-26733882D01*
X82365712Y-26533697D01*
X82323440Y-26321182D01*
X82323440Y-26104498D01*
X82365712Y-25891983D01*
X82448631Y-25691798D01*
X82480819Y-25643626D01*
X82569015Y-25511631D01*
X82569016Y-25511630D01*
X82569018Y-25511627D01*
X82722227Y-25358418D01*
X82902398Y-25238031D01*
X83102583Y-25155112D01*
X83315098Y-25112840D01*
X83531782Y-25112840D01*
X83744297Y-25155112D01*
X83744297Y-25155112D01*
G37*
G36*
X90754297Y-25155112D02*
X90954482Y-25238031D01*
X91134653Y-25358418D01*
X91287862Y-25511627D01*
X91287864Y-25511630D01*
X91287865Y-25511631D01*
X91376061Y-25643626D01*
X91408249Y-25691798D01*
X91491168Y-25891983D01*
X91533440Y-26104498D01*
X91533440Y-26321182D01*
X91491168Y-26533697D01*
X91408249Y-26733882D01*
X91287862Y-26914053D01*
X91134653Y-27067262D01*
X90954482Y-27187649D01*
X90754297Y-27270568D01*
X90541782Y-27312840D01*
X90325098Y-27312840D01*
X90112583Y-27270568D01*
X89912398Y-27187649D01*
X89732227Y-27067262D01*
X89579018Y-26914053D01*
X89458631Y-26733882D01*
X89375712Y-26533697D01*
X89333440Y-26321182D01*
X89333440Y-26104498D01*
X89375712Y-25891983D01*
X89458631Y-25691798D01*
X89490819Y-25643626D01*
X89579015Y-25511631D01*
X89579016Y-25511630D01*
X89579018Y-25511627D01*
X89732227Y-25358418D01*
X89912398Y-25238031D01*
X90112583Y-25155112D01*
X90325098Y-25112840D01*
X90541782Y-25112840D01*
X90754297Y-25155112D01*
X90754297Y-25155112D01*
G37*
G36*
X185551918Y-25036595D02*
X185697612Y-25096944D01*
X185828734Y-25184556D01*
X185940244Y-25296066D01*
X186027856Y-25427188D01*
X186088205Y-25572882D01*
X186118970Y-25727551D01*
X186118970Y-25885249D01*
X186088205Y-26039918D01*
X186027856Y-26185612D01*
X185940244Y-26316734D01*
X185828734Y-26428244D01*
X185697612Y-26515856D01*
X185551918Y-26576205D01*
X185397249Y-26606970D01*
X185239551Y-26606970D01*
X185084882Y-26576205D01*
X184939188Y-26515856D01*
X184808066Y-26428244D01*
X184696556Y-26316734D01*
X184608944Y-26185612D01*
X184548595Y-26039918D01*
X184517830Y-25885249D01*
X184517830Y-25727551D01*
X184548595Y-25572882D01*
X184608944Y-25427188D01*
X184696556Y-25296066D01*
X184808066Y-25184556D01*
X184939188Y-25096944D01*
X185084882Y-25036595D01*
X185239551Y-25005830D01*
X185397249Y-25005830D01*
X185551918Y-25036595D01*
X185551918Y-25036595D01*
G37*
G36*
X187583918Y-25036595D02*
X187729612Y-25096944D01*
X187860734Y-25184556D01*
X187972244Y-25296066D01*
X188059856Y-25427188D01*
X188120205Y-25572882D01*
X188150970Y-25727551D01*
X188150970Y-25885249D01*
X188120205Y-26039918D01*
X188059856Y-26185612D01*
X187972244Y-26316734D01*
X187860734Y-26428244D01*
X187729612Y-26515856D01*
X187583918Y-26576205D01*
X187429249Y-26606970D01*
X187271551Y-26606970D01*
X187116882Y-26576205D01*
X186971188Y-26515856D01*
X186840066Y-26428244D01*
X186728556Y-26316734D01*
X186640944Y-26185612D01*
X186580595Y-26039918D01*
X186549830Y-25885249D01*
X186549830Y-25727551D01*
X186580595Y-25572882D01*
X186640944Y-25427188D01*
X186728556Y-25296066D01*
X186840066Y-25184556D01*
X186971188Y-25096944D01*
X187116882Y-25036595D01*
X187271551Y-25005830D01*
X187429249Y-25005830D01*
X187583918Y-25036595D01*
X187583918Y-25036595D01*
G37*
G36*
X189615918Y-25036595D02*
X189761612Y-25096944D01*
X189892734Y-25184556D01*
X190004244Y-25296066D01*
X190091856Y-25427188D01*
X190152205Y-25572882D01*
X190182970Y-25727551D01*
X190182970Y-25885249D01*
X190152205Y-26039918D01*
X190091856Y-26185612D01*
X190004244Y-26316734D01*
X189892734Y-26428244D01*
X189761612Y-26515856D01*
X189615918Y-26576205D01*
X189461249Y-26606970D01*
X189303551Y-26606970D01*
X189148882Y-26576205D01*
X189003188Y-26515856D01*
X188872066Y-26428244D01*
X188760556Y-26316734D01*
X188672944Y-26185612D01*
X188612595Y-26039918D01*
X188581830Y-25885249D01*
X188581830Y-25727551D01*
X188612595Y-25572882D01*
X188672944Y-25427188D01*
X188760556Y-25296066D01*
X188872066Y-25184556D01*
X189003188Y-25096944D01*
X189148882Y-25036595D01*
X189303551Y-25005830D01*
X189461249Y-25005830D01*
X189615918Y-25036595D01*
X189615918Y-25036595D01*
G37*
G36*
X191647918Y-25036595D02*
X191793612Y-25096944D01*
X191924734Y-25184556D01*
X192036244Y-25296066D01*
X192123856Y-25427188D01*
X192184205Y-25572882D01*
X192214970Y-25727551D01*
X192214970Y-25885249D01*
X192184205Y-26039918D01*
X192123856Y-26185612D01*
X192036244Y-26316734D01*
X191924734Y-26428244D01*
X191793612Y-26515856D01*
X191647918Y-26576205D01*
X191493249Y-26606970D01*
X191335551Y-26606970D01*
X191180882Y-26576205D01*
X191035188Y-26515856D01*
X190904066Y-26428244D01*
X190792556Y-26316734D01*
X190704944Y-26185612D01*
X190644595Y-26039918D01*
X190613830Y-25885249D01*
X190613830Y-25727551D01*
X190644595Y-25572882D01*
X190704944Y-25427188D01*
X190792556Y-25296066D01*
X190904066Y-25184556D01*
X191035188Y-25096944D01*
X191180882Y-25036595D01*
X191335551Y-25005830D01*
X191493249Y-25005830D01*
X191647918Y-25036595D01*
X191647918Y-25036595D01*
G37*
G36*
X179856288Y-23871870D02*
X180036674Y-23907750D01*
X180227762Y-23986902D01*
X180399736Y-24101811D01*
X180545989Y-24248064D01*
X180660898Y-24420038D01*
X180740050Y-24611126D01*
X180780400Y-24813984D01*
X180780400Y-25020816D01*
X180740050Y-25223674D01*
X180660898Y-25414762D01*
X180545989Y-25586736D01*
X180399736Y-25732989D01*
X180227762Y-25847898D01*
X180036674Y-25927050D01*
X179856288Y-25962930D01*
X179833817Y-25967400D01*
X179626983Y-25967400D01*
X179604512Y-25962930D01*
X179424126Y-25927050D01*
X179233038Y-25847898D01*
X179061064Y-25732989D01*
X178914811Y-25586736D01*
X178799902Y-25414762D01*
X178720750Y-25223674D01*
X178680400Y-25020816D01*
X178680400Y-24813984D01*
X178720750Y-24611126D01*
X178799902Y-24420038D01*
X178914811Y-24248064D01*
X179061064Y-24101811D01*
X179233038Y-23986902D01*
X179424126Y-23907750D01*
X179604512Y-23871870D01*
X179626983Y-23867400D01*
X179833817Y-23867400D01*
X179856288Y-23871870D01*
X179856288Y-23871870D01*
G37*
G36*
X196112288Y-23871870D02*
X196292674Y-23907750D01*
X196483762Y-23986902D01*
X196655736Y-24101811D01*
X196801989Y-24248064D01*
X196916898Y-24420038D01*
X196996050Y-24611126D01*
X197036400Y-24813984D01*
X197036400Y-25020816D01*
X196996050Y-25223674D01*
X196916898Y-25414762D01*
X196801989Y-25586736D01*
X196655736Y-25732989D01*
X196483762Y-25847898D01*
X196292674Y-25927050D01*
X196112288Y-25962930D01*
X196089817Y-25967400D01*
X195882983Y-25967400D01*
X195860512Y-25962930D01*
X195680126Y-25927050D01*
X195489038Y-25847898D01*
X195317064Y-25732989D01*
X195170811Y-25586736D01*
X195055902Y-25414762D01*
X194976750Y-25223674D01*
X194936400Y-25020816D01*
X194936400Y-24813984D01*
X194976750Y-24611126D01*
X195055902Y-24420038D01*
X195170811Y-24248064D01*
X195317064Y-24101811D01*
X195489038Y-23986902D01*
X195680126Y-23907750D01*
X195860512Y-23871870D01*
X195882983Y-23867400D01*
X196089817Y-23867400D01*
X196112288Y-23871870D01*
X196112288Y-23871870D01*
G37*
G36*
X217124433Y-20327161D02*
X217394910Y-20380962D01*
X217605979Y-20468390D01*
X217904476Y-20592031D01*
X218363079Y-20898460D01*
X218753080Y-21288461D01*
X219059509Y-21747064D01*
X219183150Y-22045561D01*
X219263274Y-22238996D01*
X219270578Y-22256631D01*
X219378180Y-22797583D01*
X219378180Y-23349137D01*
X219344578Y-23518064D01*
X219270578Y-23890090D01*
X219228096Y-23992651D01*
X219059509Y-24399656D01*
X218753080Y-24858259D01*
X218363079Y-25248260D01*
X217904476Y-25554689D01*
X217689760Y-25643627D01*
X217394910Y-25765758D01*
X217124433Y-25819559D01*
X216853957Y-25873360D01*
X216302403Y-25873360D01*
X216031927Y-25819559D01*
X215761450Y-25765758D01*
X215466600Y-25643627D01*
X215251884Y-25554689D01*
X214793281Y-25248260D01*
X214403280Y-24858259D01*
X214096851Y-24399656D01*
X213928264Y-23992651D01*
X213885782Y-23890090D01*
X213811782Y-23518064D01*
X213778180Y-23349137D01*
X213778180Y-22797583D01*
X213885782Y-22256631D01*
X213893087Y-22238996D01*
X213973210Y-22045561D01*
X214096851Y-21747064D01*
X214403280Y-21288461D01*
X214793281Y-20898460D01*
X215251884Y-20592031D01*
X215550381Y-20468390D01*
X215761450Y-20380962D01*
X216031927Y-20327161D01*
X216302403Y-20273360D01*
X216853957Y-20273360D01*
X217124433Y-20327161D01*
X217124433Y-20327161D01*
G37*
G36*
X208375660Y-25571340D02*
X204775660Y-25571340D01*
X204775660Y-21971340D01*
X208375660Y-21971340D01*
X208375660Y-25571340D01*
X208375660Y-25571340D01*
G37*
G36*
X184535918Y-23258595D02*
X184681612Y-23318944D01*
X184812734Y-23406556D01*
X184924244Y-23518066D01*
X185011856Y-23649188D01*
X185072205Y-23794882D01*
X185102970Y-23949551D01*
X185102970Y-24107249D01*
X185072205Y-24261918D01*
X185011856Y-24407612D01*
X184924244Y-24538734D01*
X184812734Y-24650244D01*
X184681612Y-24737856D01*
X184535918Y-24798205D01*
X184381249Y-24828970D01*
X184223551Y-24828970D01*
X184068882Y-24798205D01*
X183923188Y-24737856D01*
X183792066Y-24650244D01*
X183680556Y-24538734D01*
X183592944Y-24407612D01*
X183532595Y-24261918D01*
X183501830Y-24107249D01*
X183501830Y-23949551D01*
X183532595Y-23794882D01*
X183592944Y-23649188D01*
X183680556Y-23518066D01*
X183792066Y-23406556D01*
X183923188Y-23318944D01*
X184068882Y-23258595D01*
X184223551Y-23227830D01*
X184381249Y-23227830D01*
X184535918Y-23258595D01*
X184535918Y-23258595D01*
G37*
G36*
X186567918Y-23258595D02*
X186713612Y-23318944D01*
X186844734Y-23406556D01*
X186956244Y-23518066D01*
X187043856Y-23649188D01*
X187104205Y-23794882D01*
X187134970Y-23949551D01*
X187134970Y-24107249D01*
X187104205Y-24261918D01*
X187043856Y-24407612D01*
X186956244Y-24538734D01*
X186844734Y-24650244D01*
X186713612Y-24737856D01*
X186567918Y-24798205D01*
X186413249Y-24828970D01*
X186255551Y-24828970D01*
X186100882Y-24798205D01*
X185955188Y-24737856D01*
X185824066Y-24650244D01*
X185712556Y-24538734D01*
X185624944Y-24407612D01*
X185564595Y-24261918D01*
X185533830Y-24107249D01*
X185533830Y-23949551D01*
X185564595Y-23794882D01*
X185624944Y-23649188D01*
X185712556Y-23518066D01*
X185824066Y-23406556D01*
X185955188Y-23318944D01*
X186100882Y-23258595D01*
X186255551Y-23227830D01*
X186413249Y-23227830D01*
X186567918Y-23258595D01*
X186567918Y-23258595D01*
G37*
G36*
X188599918Y-23258595D02*
X188745612Y-23318944D01*
X188876734Y-23406556D01*
X188988244Y-23518066D01*
X189075856Y-23649188D01*
X189136205Y-23794882D01*
X189166970Y-23949551D01*
X189166970Y-24107249D01*
X189136205Y-24261918D01*
X189075856Y-24407612D01*
X188988244Y-24538734D01*
X188876734Y-24650244D01*
X188745612Y-24737856D01*
X188599918Y-24798205D01*
X188445249Y-24828970D01*
X188287551Y-24828970D01*
X188132882Y-24798205D01*
X187987188Y-24737856D01*
X187856066Y-24650244D01*
X187744556Y-24538734D01*
X187656944Y-24407612D01*
X187596595Y-24261918D01*
X187565830Y-24107249D01*
X187565830Y-23949551D01*
X187596595Y-23794882D01*
X187656944Y-23649188D01*
X187744556Y-23518066D01*
X187856066Y-23406556D01*
X187987188Y-23318944D01*
X188132882Y-23258595D01*
X188287551Y-23227830D01*
X188445249Y-23227830D01*
X188599918Y-23258595D01*
X188599918Y-23258595D01*
G37*
G36*
X190631918Y-23258595D02*
X190777612Y-23318944D01*
X190908734Y-23406556D01*
X191020244Y-23518066D01*
X191107856Y-23649188D01*
X191168205Y-23794882D01*
X191198970Y-23949551D01*
X191198970Y-24107249D01*
X191168205Y-24261918D01*
X191107856Y-24407612D01*
X191020244Y-24538734D01*
X190908734Y-24650244D01*
X190777612Y-24737856D01*
X190631918Y-24798205D01*
X190477249Y-24828970D01*
X190319551Y-24828970D01*
X190164882Y-24798205D01*
X190019188Y-24737856D01*
X189888066Y-24650244D01*
X189776556Y-24538734D01*
X189688944Y-24407612D01*
X189628595Y-24261918D01*
X189597830Y-24107249D01*
X189597830Y-23949551D01*
X189628595Y-23794882D01*
X189688944Y-23649188D01*
X189776556Y-23518066D01*
X189888066Y-23406556D01*
X190019188Y-23318944D01*
X190164882Y-23258595D01*
X190319551Y-23227830D01*
X190477249Y-23227830D01*
X190631918Y-23258595D01*
X190631918Y-23258595D01*
G37*
G36*
X84943251Y-22833386D02*
X84943254Y-22833387D01*
X84943253Y-22833387D01*
X85111592Y-22903115D01*
X85111593Y-22903116D01*
X85263096Y-23004347D01*
X85391933Y-23133184D01*
X85391935Y-23133187D01*
X85493165Y-23284688D01*
X85543644Y-23406556D01*
X85562894Y-23453029D01*
X85598440Y-23631734D01*
X85598440Y-23813946D01*
X85562894Y-23992651D01*
X85562893Y-23992653D01*
X85493165Y-24160992D01*
X85493164Y-24160993D01*
X85391933Y-24312496D01*
X85263096Y-24441333D01*
X85263093Y-24441335D01*
X85111592Y-24542565D01*
X84981388Y-24596497D01*
X84943251Y-24612294D01*
X84764546Y-24647840D01*
X84582334Y-24647840D01*
X84403629Y-24612294D01*
X84365492Y-24596497D01*
X84235288Y-24542565D01*
X84083787Y-24441335D01*
X84083784Y-24441333D01*
X83954947Y-24312496D01*
X83853716Y-24160993D01*
X83853715Y-24160992D01*
X83783987Y-23992653D01*
X83783986Y-23992651D01*
X83748440Y-23813946D01*
X83748440Y-23631734D01*
X83783986Y-23453029D01*
X83803236Y-23406556D01*
X83853715Y-23284688D01*
X83954945Y-23133187D01*
X83954947Y-23133184D01*
X84083784Y-23004347D01*
X84235287Y-22903116D01*
X84235288Y-22903115D01*
X84403627Y-22833387D01*
X84403626Y-22833387D01*
X84403629Y-22833386D01*
X84582334Y-22797840D01*
X84764546Y-22797840D01*
X84943251Y-22833386D01*
X84943251Y-22833386D01*
G37*
G36*
X89443251Y-22833386D02*
X89443254Y-22833387D01*
X89443253Y-22833387D01*
X89611592Y-22903115D01*
X89611593Y-22903116D01*
X89763096Y-23004347D01*
X89891933Y-23133184D01*
X89891935Y-23133187D01*
X89993165Y-23284688D01*
X90043644Y-23406556D01*
X90062894Y-23453029D01*
X90098440Y-23631734D01*
X90098440Y-23813946D01*
X90062894Y-23992651D01*
X90062893Y-23992653D01*
X89993165Y-24160992D01*
X89993164Y-24160993D01*
X89891933Y-24312496D01*
X89763096Y-24441333D01*
X89763093Y-24441335D01*
X89611592Y-24542565D01*
X89481388Y-24596497D01*
X89443251Y-24612294D01*
X89264546Y-24647840D01*
X89082334Y-24647840D01*
X88903629Y-24612294D01*
X88865492Y-24596497D01*
X88735288Y-24542565D01*
X88583787Y-24441335D01*
X88583784Y-24441333D01*
X88454947Y-24312496D01*
X88353716Y-24160993D01*
X88353715Y-24160992D01*
X88283987Y-23992653D01*
X88283986Y-23992651D01*
X88248440Y-23813946D01*
X88248440Y-23631734D01*
X88283986Y-23453029D01*
X88303236Y-23406556D01*
X88353715Y-23284688D01*
X88454945Y-23133187D01*
X88454947Y-23133184D01*
X88583784Y-23004347D01*
X88735287Y-22903116D01*
X88735288Y-22903115D01*
X88903627Y-22833387D01*
X88903626Y-22833387D01*
X88903629Y-22833386D01*
X89082334Y-22797840D01*
X89264546Y-22797840D01*
X89443251Y-22833386D01*
X89443251Y-22833386D01*
G37*
G36*
X181894793Y-19831953D02*
X182004272Y-19853730D01*
X182313652Y-19981879D01*
X182592087Y-20167923D01*
X182828877Y-20404713D01*
X183014921Y-20683148D01*
X183143070Y-20992528D01*
X183143070Y-20992529D01*
X183208400Y-21320963D01*
X183208400Y-21655837D01*
X183164847Y-21874793D01*
X183143070Y-21984272D01*
X183014921Y-22293652D01*
X182828877Y-22572087D01*
X182592087Y-22808877D01*
X182313652Y-22994921D01*
X182004272Y-23123070D01*
X181953425Y-23133184D01*
X181675837Y-23188400D01*
X181340963Y-23188400D01*
X181063375Y-23133184D01*
X181012528Y-23123070D01*
X180703148Y-22994921D01*
X180424713Y-22808877D01*
X180187923Y-22572087D01*
X180001879Y-22293652D01*
X179873730Y-21984272D01*
X179851953Y-21874793D01*
X179808400Y-21655837D01*
X179808400Y-21320963D01*
X179873730Y-20992529D01*
X179873730Y-20992528D01*
X180001879Y-20683148D01*
X180187923Y-20404713D01*
X180424713Y-20167923D01*
X180703148Y-19981879D01*
X181012528Y-19853730D01*
X181122007Y-19831953D01*
X181340963Y-19788400D01*
X181675837Y-19788400D01*
X181894793Y-19831953D01*
X181894793Y-19831953D01*
G37*
G36*
X194594793Y-19831953D02*
X194704272Y-19853730D01*
X195013652Y-19981879D01*
X195292087Y-20167923D01*
X195528877Y-20404713D01*
X195714921Y-20683148D01*
X195843070Y-20992528D01*
X195843070Y-20992529D01*
X195908400Y-21320963D01*
X195908400Y-21655837D01*
X195864847Y-21874793D01*
X195843070Y-21984272D01*
X195714921Y-22293652D01*
X195528877Y-22572087D01*
X195292087Y-22808877D01*
X195013652Y-22994921D01*
X194704272Y-23123070D01*
X194653425Y-23133184D01*
X194375837Y-23188400D01*
X194040963Y-23188400D01*
X193763375Y-23133184D01*
X193712528Y-23123070D01*
X193403148Y-22994921D01*
X193124713Y-22808877D01*
X192887923Y-22572087D01*
X192701879Y-22293652D01*
X192573730Y-21984272D01*
X192551953Y-21874793D01*
X192508400Y-21655837D01*
X192508400Y-21320963D01*
X192573730Y-20992529D01*
X192573730Y-20992528D01*
X192701879Y-20683148D01*
X192887923Y-20404713D01*
X193124713Y-20167923D01*
X193403148Y-19981879D01*
X193712528Y-19853730D01*
X193822007Y-19831953D01*
X194040963Y-19788400D01*
X194375837Y-19788400D01*
X194594793Y-19831953D01*
X194594793Y-19831953D01*
G37*
G36*
X103204148Y-20524130D02*
X103384534Y-20560010D01*
X103575622Y-20639162D01*
X103747596Y-20754071D01*
X103893849Y-20900324D01*
X104008758Y-21072298D01*
X104087910Y-21263386D01*
X104128260Y-21466244D01*
X104128260Y-21673076D01*
X104087910Y-21875934D01*
X104008758Y-22067022D01*
X103893849Y-22238996D01*
X103747596Y-22385249D01*
X103575622Y-22500158D01*
X103384534Y-22579310D01*
X103204148Y-22615190D01*
X103181677Y-22619660D01*
X102974843Y-22619660D01*
X102952372Y-22615190D01*
X102771986Y-22579310D01*
X102580898Y-22500158D01*
X102408924Y-22385249D01*
X102262671Y-22238996D01*
X102147762Y-22067022D01*
X102068610Y-21875934D01*
X102028260Y-21673076D01*
X102028260Y-21466244D01*
X102068610Y-21263386D01*
X102147762Y-21072298D01*
X102262671Y-20900324D01*
X102408924Y-20754071D01*
X102580898Y-20639162D01*
X102771986Y-20560010D01*
X102952372Y-20524130D01*
X102974843Y-20519660D01*
X103181677Y-20519660D01*
X103204148Y-20524130D01*
X103204148Y-20524130D01*
G37*
G36*
X129208168Y-20524130D02*
X129388554Y-20560010D01*
X129579642Y-20639162D01*
X129751616Y-20754071D01*
X129897869Y-20900324D01*
X130012778Y-21072298D01*
X130091930Y-21263386D01*
X130132280Y-21466244D01*
X130132280Y-21673076D01*
X130091930Y-21875934D01*
X130012778Y-22067022D01*
X129897869Y-22238996D01*
X129751616Y-22385249D01*
X129579642Y-22500158D01*
X129388554Y-22579310D01*
X129208168Y-22615190D01*
X129185697Y-22619660D01*
X128978863Y-22619660D01*
X128956392Y-22615190D01*
X128776006Y-22579310D01*
X128584918Y-22500158D01*
X128412944Y-22385249D01*
X128266691Y-22238996D01*
X128151782Y-22067022D01*
X128072630Y-21875934D01*
X128032280Y-21673076D01*
X128032280Y-21466244D01*
X128072630Y-21263386D01*
X128151782Y-21072298D01*
X128266691Y-20900324D01*
X128412944Y-20754071D01*
X128584918Y-20639162D01*
X128776006Y-20560010D01*
X128956392Y-20524130D01*
X128978863Y-20519660D01*
X129185697Y-20519660D01*
X129208168Y-20524130D01*
X129208168Y-20524130D01*
G37*
G36*
X108204148Y-20524130D02*
X108384534Y-20560010D01*
X108575622Y-20639162D01*
X108747596Y-20754071D01*
X108893849Y-20900324D01*
X109008758Y-21072298D01*
X109087910Y-21263386D01*
X109128260Y-21466244D01*
X109128260Y-21673076D01*
X109087910Y-21875934D01*
X109008758Y-22067022D01*
X108893849Y-22238996D01*
X108747596Y-22385249D01*
X108575622Y-22500158D01*
X108384534Y-22579310D01*
X108204148Y-22615190D01*
X108181677Y-22619660D01*
X107974843Y-22619660D01*
X107952372Y-22615190D01*
X107771986Y-22579310D01*
X107580898Y-22500158D01*
X107408924Y-22385249D01*
X107262671Y-22238996D01*
X107147762Y-22067022D01*
X107068610Y-21875934D01*
X107028260Y-21673076D01*
X107028260Y-21466244D01*
X107068610Y-21263386D01*
X107147762Y-21072298D01*
X107262671Y-20900324D01*
X107408924Y-20754071D01*
X107580898Y-20639162D01*
X107771986Y-20560010D01*
X107952372Y-20524130D01*
X107974843Y-20519660D01*
X108181677Y-20519660D01*
X108204148Y-20524130D01*
X108204148Y-20524130D01*
G37*
G36*
X124208168Y-20524130D02*
X124388554Y-20560010D01*
X124579642Y-20639162D01*
X124751616Y-20754071D01*
X124897869Y-20900324D01*
X125012778Y-21072298D01*
X125091930Y-21263386D01*
X125132280Y-21466244D01*
X125132280Y-21673076D01*
X125091930Y-21875934D01*
X125012778Y-22067022D01*
X124897869Y-22238996D01*
X124751616Y-22385249D01*
X124579642Y-22500158D01*
X124388554Y-22579310D01*
X124208168Y-22615190D01*
X124185697Y-22619660D01*
X123978863Y-22619660D01*
X123956392Y-22615190D01*
X123776006Y-22579310D01*
X123584918Y-22500158D01*
X123412944Y-22385249D01*
X123266691Y-22238996D01*
X123151782Y-22067022D01*
X123072630Y-21875934D01*
X123032280Y-21673076D01*
X123032280Y-21466244D01*
X123072630Y-21263386D01*
X123151782Y-21072298D01*
X123266691Y-20900324D01*
X123412944Y-20754071D01*
X123584918Y-20639162D01*
X123776006Y-20560010D01*
X123956392Y-20524130D01*
X123978863Y-20519660D01*
X124185697Y-20519660D01*
X124208168Y-20524130D01*
X124208168Y-20524130D01*
G37*
M02*
