M48
; DRILL file {KiCad 5.1.2-f72e74a~84~ubuntu18.04.1} date Mon 10 Jun 2019 01:27:18 PM CEST
; FORMAT={-:-/ absolute / inch / decimal}
; #@! TF.CreationDate,2019-06-10T13:27:18+02:00
; #@! TF.GenerationSoftware,Kicad,Pcbnew,5.1.2-f72e74a~84~ubuntu18.04.1
; #@! TF.FileFunction,Plated,1,2,PTH
FMAT,2
INCH
T1C0.0118
T2C0.0148
T3C0.0266
T4C0.0315
T5C0.0362
T6C0.0390
T7C0.0394
T8C0.0394
T9C0.0400
T10C0.0512
T11C0.0917
T12C0.1378
%
G90
G05
T1
X2.455Y-3.3721
X2.7Y-2.146
X2.751Y-1.979
X2.851Y-1.955
X2.9495Y-2.754
X2.951Y-2.025
X2.9771Y-3.4118
X3.001Y-2.076
X3.101Y-2.1
X3.151Y-2.406
X3.251Y-2.5405
X3.2953Y-2.0033
X3.3501Y-2.5688
X3.4011Y-2.0017
X3.4516Y-2.5908
X3.5521Y-2.6058
X3.6326Y-1.9143
X3.651Y-2.406
X3.6788Y-1.9085
X3.7742Y-2.248
X3.7776Y-1.9173
X4.3011Y-2.076
X4.3691Y-2.0463
X4.3826Y-4.2292
X4.3855Y-2.0998
X4.419Y-1.445
X4.5408Y-2.9414
X4.8097Y-3.4051
X4.8336Y-2.7463
X4.8396Y-2.146
X4.8796Y-2.3623
X4.9721Y-2.0123
X5.0081Y-2.1693
X5.0351Y-2.1313
X5.0771Y-4.0443
X5.1506Y-2.043
X5.1606Y-2.3538
X5.1666Y-2.5318
X5.2121Y-1.8708
X5.2626Y-1.8931
X5.2664Y-1.4459
X5.2664Y-1.5971
X5.3246Y-4.0423
X5.3341Y-2.6038
X5.354Y-2.0536
X5.4486Y-2.2068
X5.5896Y-2.5063
X5.5976Y-2.7633
X5.6161Y-2.1143
X5.618Y-3.4142
X5.6473Y-2.5703
X5.7721Y-2.6961
X5.7816Y-2.3538
X5.7937Y-2.7458
X5.7961Y-2.5393
X5.8361Y-2.3528
X5.8416Y-2.6643
X5.8646Y-2.5143
X5.8706Y-2.7063
X5.9796Y-4.0478
X5.98Y-2.635
X6.017Y-2.498
X6.017Y-2.765
X6.0271Y-2.3573
X6.0302Y-1.9748
X6.054Y-2.635
X6.0771Y-2.3568
X6.0775Y-1.9492
X6.0775Y-2.1992
X6.1788Y-4.2268
X6.1806Y-3.8863
X6.1816Y-4.0488
X6.2486Y-1.9668
X6.2601Y-2.5428
X6.3294Y-4.2297
X6.3306Y-4.0453
X6.3656Y-2.1458
X6.384Y-1.598
X6.4321Y-2.3538
X6.4558Y-1.415
X6.481Y-4.2268
X6.4836Y-4.0488
X6.499Y-2.635
X6.52Y-2.174
X6.5211Y-1.8683
X6.574Y-2.635
X6.5755Y-1.2544
X6.6306Y-4.2238
X6.6322Y-3.3536
X6.656Y-2.635
X6.727Y-2.635
X6.7664Y-2.587
X6.7876Y-2.363
X6.844Y-1.3311
X6.8558Y-2.6
X6.8811Y-2.4283
X6.9454Y-2.6353
X6.9511Y-2.3623
X6.9782Y-2.5238
X6.9796Y-4.1948
X7.0156Y-2.715
X7.087Y-2.053
X7.099Y-2.363
X7.111Y-2.174
X7.158Y-1.89
X7.168Y-1.49
X7.192Y-1.464
X7.193Y-1.051
X7.234Y-2.111
X7.2391Y-2.2643
X7.267Y-1.437
X7.302Y-2.523
X7.326Y-2.053
X7.326Y-2.555
X7.341Y-1.49
X7.399Y-1.437
X7.445Y-2.053
X7.515Y-1.915
X7.623Y-1.885
X7.641Y-2.111
X7.641Y-2.853
X7.65Y-1.915
X7.723Y-1.464
X7.723Y-1.885
X7.763Y-1.437
X8.129Y-2.3
X8.763Y-2.3
T2
X3.1511Y-0.9338
X3.4211Y-1.1618
X4.157Y-1.162
X4.521Y-1.162
X5.482Y-1.529
X5.909Y-1.529
X6.8671Y-0.9723
X6.947Y-1.217
X7.576Y-1.154
T3
X7.135Y-1.679
X7.889Y-1.679
X8.129Y-2.987
T4
X8.1487Y-2.0591
X8.3456Y-2.0591
X8.6145Y-2.0528
X8.8113Y-2.0528
T5
X6.2578Y-1.0595
X6.2578Y-1.1382
X6.3562Y-1.0595
X6.3562Y-1.1382
T6
X3.3336Y-0.934
X3.5108Y-0.934
T7
X7.73Y-2.331
X7.8284Y-2.331
T8
X7.775Y-2.851
X7.875Y-2.851
X7.975Y-2.851
T9
X2.7512Y-2.1979
X2.7512Y-2.2979
X2.8512Y-2.1979
X2.8512Y-2.2979
X2.9512Y-2.1979
X2.9512Y-2.2979
X3.0512Y-2.1979
X3.0512Y-2.2979
X3.1512Y-2.1979
X3.1512Y-2.2979
X3.2512Y-2.1979
X3.2512Y-2.2979
X3.3512Y-2.1979
X3.3512Y-2.2979
X3.4512Y-2.1979
X3.4512Y-2.2979
X3.5512Y-2.1979
X3.5512Y-2.2979
X3.6512Y-2.1979
X3.6512Y-2.2979
X3.151Y-1.789
X3.251Y-1.789
X3.351Y-1.789
T10
X3.2844Y-1.032
X3.5604Y-1.032
T11
X6.07Y-0.9528
X6.544Y-0.9528
T12
X2.7468Y-1.1973
X8.7097Y-3.9484
X2.8023Y-3.9681
X8.742Y-1.1221
T7
G00X7.9479Y-1.0146
M15
G01X7.9479Y-1.0934
M16
G05
G00X8.1723Y-0.9359
M15
G01X8.0935Y-0.9359
M16
G05
G00X8.1821Y-1.1722
M15
G01X8.0837Y-1.1722
M16
G05
T0
M30
