G04 #@! TF.GenerationSoftware,KiCad,Pcbnew,5.1.2-f72e74a~84~ubuntu18.04.1*
G04 #@! TF.CreationDate,2019-08-15T14:59:57+02:00*
G04 #@! TF.ProjectId,bottom-board,626f7474-6f6d-42d6-926f-6172642e6b69,rev?*
G04 #@! TF.SameCoordinates,Original*
G04 #@! TF.FileFunction,Soldermask,Top*
G04 #@! TF.FilePolarity,Negative*
%FSLAX46Y46*%
G04 Gerber Fmt 4.6, Leading zero omitted, Abs format (unit mm)*
G04 Created by KiCad (PCBNEW 5.1.2-f72e74a~84~ubuntu18.04.1) date 2019-08-15 14:59:57*
%MOMM*%
%LPD*%
G04 APERTURE LIST*
%ADD10C,0.100000*%
G04 APERTURE END LIST*
D10*
X232107540Y-19850520D02*
X232097540Y-110490520D01*
X59947540Y-19880520D02*
X232097540Y-19810520D01*
X60077540Y-110410520D02*
X59957540Y-19860520D01*
X232117540Y-110490520D02*
X60077540Y-110420520D01*
G36*
X159947540Y-106010520D02*
G01*
X159107540Y-106010520D01*
X159107540Y-103510520D01*
X159947540Y-103510520D01*
X159947540Y-106010520D01*
X159947540Y-106010520D01*
G37*
G36*
X158677540Y-106010520D02*
G01*
X157837540Y-106010520D01*
X157837540Y-103510520D01*
X158677540Y-103510520D01*
X158677540Y-106010520D01*
X158677540Y-106010520D01*
G37*
G36*
X173917540Y-106010520D02*
G01*
X173077540Y-106010520D01*
X173077540Y-103510520D01*
X173917540Y-103510520D01*
X173917540Y-106010520D01*
X173917540Y-106010520D01*
G37*
G36*
X172647540Y-106010520D02*
G01*
X171807540Y-106010520D01*
X171807540Y-103510520D01*
X172647540Y-103510520D01*
X172647540Y-106010520D01*
X172647540Y-106010520D01*
G37*
G36*
X171377540Y-106010520D02*
G01*
X170537540Y-106010520D01*
X170537540Y-103510520D01*
X171377540Y-103510520D01*
X171377540Y-106010520D01*
X171377540Y-106010520D01*
G37*
G36*
X170107540Y-106010520D02*
G01*
X169267540Y-106010520D01*
X169267540Y-103510520D01*
X170107540Y-103510520D01*
X170107540Y-106010520D01*
X170107540Y-106010520D01*
G37*
G36*
X168837540Y-106010520D02*
G01*
X167997540Y-106010520D01*
X167997540Y-103510520D01*
X168837540Y-103510520D01*
X168837540Y-106010520D01*
X168837540Y-106010520D01*
G37*
G36*
X167567540Y-106010520D02*
G01*
X166727540Y-106010520D01*
X166727540Y-103510520D01*
X167567540Y-103510520D01*
X167567540Y-106010520D01*
X167567540Y-106010520D01*
G37*
G36*
X166297540Y-106010520D02*
G01*
X165457540Y-106010520D01*
X165457540Y-103510520D01*
X166297540Y-103510520D01*
X166297540Y-106010520D01*
X166297540Y-106010520D01*
G37*
G36*
X165027540Y-106010520D02*
G01*
X164187540Y-106010520D01*
X164187540Y-103510520D01*
X165027540Y-103510520D01*
X165027540Y-106010520D01*
X165027540Y-106010520D01*
G37*
G36*
X163757540Y-106010520D02*
G01*
X162917540Y-106010520D01*
X162917540Y-103510520D01*
X163757540Y-103510520D01*
X163757540Y-106010520D01*
X163757540Y-106010520D01*
G37*
G36*
X162487540Y-106010520D02*
G01*
X161647540Y-106010520D01*
X161647540Y-103510520D01*
X162487540Y-103510520D01*
X162487540Y-106010520D01*
X162487540Y-106010520D01*
G37*
G36*
X161217540Y-106010520D02*
G01*
X160377540Y-106010520D01*
X160377540Y-103510520D01*
X161217540Y-103510520D01*
X161217540Y-106010520D01*
X161217540Y-106010520D01*
G37*
G36*
X142167540Y-106010520D02*
G01*
X141327540Y-106010520D01*
X141327540Y-103510520D01*
X142167540Y-103510520D01*
X142167540Y-106010520D01*
X142167540Y-106010520D01*
G37*
G36*
X157407540Y-106010520D02*
G01*
X156567540Y-106010520D01*
X156567540Y-103510520D01*
X157407540Y-103510520D01*
X157407540Y-106010520D01*
X157407540Y-106010520D01*
G37*
G36*
X156137540Y-106010520D02*
G01*
X155297540Y-106010520D01*
X155297540Y-103510520D01*
X156137540Y-103510520D01*
X156137540Y-106010520D01*
X156137540Y-106010520D01*
G37*
G36*
X154867540Y-106010520D02*
G01*
X154027540Y-106010520D01*
X154027540Y-103510520D01*
X154867540Y-103510520D01*
X154867540Y-106010520D01*
X154867540Y-106010520D01*
G37*
G36*
X153597540Y-106010520D02*
G01*
X152757540Y-106010520D01*
X152757540Y-103510520D01*
X153597540Y-103510520D01*
X153597540Y-106010520D01*
X153597540Y-106010520D01*
G37*
G36*
X152327540Y-106010520D02*
G01*
X151487540Y-106010520D01*
X151487540Y-103510520D01*
X152327540Y-103510520D01*
X152327540Y-106010520D01*
X152327540Y-106010520D01*
G37*
G36*
X151057540Y-106010520D02*
G01*
X150217540Y-106010520D01*
X150217540Y-103510520D01*
X151057540Y-103510520D01*
X151057540Y-106010520D01*
X151057540Y-106010520D01*
G37*
G36*
X149787540Y-106010520D02*
G01*
X148947540Y-106010520D01*
X148947540Y-103510520D01*
X149787540Y-103510520D01*
X149787540Y-106010520D01*
X149787540Y-106010520D01*
G37*
G36*
X148517540Y-106010520D02*
G01*
X147677540Y-106010520D01*
X147677540Y-103510520D01*
X148517540Y-103510520D01*
X148517540Y-106010520D01*
X148517540Y-106010520D01*
G37*
G36*
X147247540Y-106010520D02*
G01*
X146407540Y-106010520D01*
X146407540Y-103510520D01*
X147247540Y-103510520D01*
X147247540Y-106010520D01*
X147247540Y-106010520D01*
G37*
G36*
X145977540Y-106010520D02*
G01*
X145137540Y-106010520D01*
X145137540Y-103510520D01*
X145977540Y-103510520D01*
X145977540Y-106010520D01*
X145977540Y-106010520D01*
G37*
G36*
X144707540Y-106010520D02*
G01*
X143867540Y-106010520D01*
X143867540Y-103510520D01*
X144707540Y-103510520D01*
X144707540Y-106010520D01*
X144707540Y-106010520D01*
G37*
G36*
X126927540Y-106010520D02*
G01*
X126087540Y-106010520D01*
X126087540Y-103510520D01*
X126927540Y-103510520D01*
X126927540Y-106010520D01*
X126927540Y-106010520D01*
G37*
G36*
X112957540Y-106010520D02*
G01*
X112117540Y-106010520D01*
X112117540Y-103510520D01*
X112957540Y-103510520D01*
X112957540Y-106010520D01*
X112957540Y-106010520D01*
G37*
G36*
X115497540Y-106010520D02*
G01*
X114657540Y-106010520D01*
X114657540Y-103510520D01*
X115497540Y-103510520D01*
X115497540Y-106010520D01*
X115497540Y-106010520D01*
G37*
G36*
X140897540Y-106010520D02*
G01*
X140057540Y-106010520D01*
X140057540Y-103510520D01*
X140897540Y-103510520D01*
X140897540Y-106010520D01*
X140897540Y-106010520D01*
G37*
G36*
X139627540Y-106010520D02*
G01*
X138787540Y-106010520D01*
X138787540Y-103510520D01*
X139627540Y-103510520D01*
X139627540Y-106010520D01*
X139627540Y-106010520D01*
G37*
G36*
X138357540Y-106010520D02*
G01*
X137517540Y-106010520D01*
X137517540Y-103510520D01*
X138357540Y-103510520D01*
X138357540Y-106010520D01*
X138357540Y-106010520D01*
G37*
G36*
X137087540Y-106010520D02*
G01*
X136247540Y-106010520D01*
X136247540Y-103510520D01*
X137087540Y-103510520D01*
X137087540Y-106010520D01*
X137087540Y-106010520D01*
G37*
G36*
X135817540Y-106010520D02*
G01*
X134977540Y-106010520D01*
X134977540Y-103510520D01*
X135817540Y-103510520D01*
X135817540Y-106010520D01*
X135817540Y-106010520D01*
G37*
G36*
X134547540Y-106010520D02*
G01*
X133707540Y-106010520D01*
X133707540Y-103510520D01*
X134547540Y-103510520D01*
X134547540Y-106010520D01*
X134547540Y-106010520D01*
G37*
G36*
X133277540Y-106010520D02*
G01*
X132437540Y-106010520D01*
X132437540Y-103510520D01*
X133277540Y-103510520D01*
X133277540Y-106010520D01*
X133277540Y-106010520D01*
G37*
G36*
X132007540Y-106010520D02*
G01*
X131167540Y-106010520D01*
X131167540Y-103510520D01*
X132007540Y-103510520D01*
X132007540Y-106010520D01*
X132007540Y-106010520D01*
G37*
G36*
X130737540Y-106010520D02*
G01*
X129897540Y-106010520D01*
X129897540Y-103510520D01*
X130737540Y-103510520D01*
X130737540Y-106010520D01*
X130737540Y-106010520D01*
G37*
G36*
X129467540Y-106010520D02*
G01*
X128627540Y-106010520D01*
X128627540Y-103510520D01*
X129467540Y-103510520D01*
X129467540Y-106010520D01*
X129467540Y-106010520D01*
G37*
G36*
X128197540Y-106010520D02*
G01*
X127357540Y-106010520D01*
X127357540Y-103510520D01*
X128197540Y-103510520D01*
X128197540Y-106010520D01*
X128197540Y-106010520D01*
G37*
G36*
X125657540Y-106010520D02*
G01*
X124817540Y-106010520D01*
X124817540Y-103510520D01*
X125657540Y-103510520D01*
X125657540Y-106010520D01*
X125657540Y-106010520D01*
G37*
G36*
X143437540Y-106010520D02*
G01*
X142597540Y-106010520D01*
X142597540Y-103510520D01*
X143437540Y-103510520D01*
X143437540Y-106010520D01*
X143437540Y-106010520D01*
G37*
G36*
X116767540Y-106010520D02*
G01*
X115927540Y-106010520D01*
X115927540Y-103510520D01*
X116767540Y-103510520D01*
X116767540Y-106010520D01*
X116767540Y-106010520D01*
G37*
G36*
X111687540Y-106010520D02*
G01*
X110847540Y-106010520D01*
X110847540Y-103510520D01*
X111687540Y-103510520D01*
X111687540Y-106010520D01*
X111687540Y-106010520D01*
G37*
G36*
X114227540Y-106010520D02*
G01*
X113387540Y-106010520D01*
X113387540Y-103510520D01*
X114227540Y-103510520D01*
X114227540Y-106010520D01*
X114227540Y-106010520D01*
G37*
G36*
X118037540Y-106010520D02*
G01*
X117197540Y-106010520D01*
X117197540Y-103510520D01*
X118037540Y-103510520D01*
X118037540Y-106010520D01*
X118037540Y-106010520D01*
G37*
G36*
X121847540Y-106010520D02*
G01*
X121007540Y-106010520D01*
X121007540Y-103510520D01*
X121847540Y-103510520D01*
X121847540Y-106010520D01*
X121847540Y-106010520D01*
G37*
G36*
X123117540Y-106010520D02*
G01*
X122277540Y-106010520D01*
X122277540Y-103510520D01*
X123117540Y-103510520D01*
X123117540Y-106010520D01*
X123117540Y-106010520D01*
G37*
G36*
X119307540Y-106010520D02*
G01*
X118467540Y-106010520D01*
X118467540Y-103510520D01*
X119307540Y-103510520D01*
X119307540Y-106010520D01*
X119307540Y-106010520D01*
G37*
G36*
X120577540Y-106010520D02*
G01*
X119737540Y-106010520D01*
X119737540Y-103510520D01*
X120577540Y-103510520D01*
X120577540Y-106010520D01*
X120577540Y-106010520D01*
G37*
G36*
X124387540Y-106010520D02*
G01*
X123547540Y-106010520D01*
X123547540Y-103510520D01*
X124387540Y-103510520D01*
X124387540Y-106010520D01*
X124387540Y-106010520D01*
G37*
G36*
X135817540Y-102110520D02*
G01*
X134977540Y-102110520D01*
X134977540Y-99610520D01*
X135817540Y-99610520D01*
X135817540Y-102110520D01*
X135817540Y-102110520D01*
G37*
G36*
X134547540Y-102110520D02*
G01*
X133707540Y-102110520D01*
X133707540Y-99610520D01*
X134547540Y-99610520D01*
X134547540Y-102110520D01*
X134547540Y-102110520D01*
G37*
G36*
X133277540Y-102110520D02*
G01*
X132437540Y-102110520D01*
X132437540Y-99610520D01*
X133277540Y-99610520D01*
X133277540Y-102110520D01*
X133277540Y-102110520D01*
G37*
G36*
X143437540Y-102110520D02*
G01*
X142597540Y-102110520D01*
X142597540Y-99610520D01*
X143437540Y-99610520D01*
X143437540Y-102110520D01*
X143437540Y-102110520D01*
G37*
G36*
X172647540Y-102110520D02*
G01*
X171807540Y-102110520D01*
X171807540Y-99610520D01*
X172647540Y-99610520D01*
X172647540Y-102110520D01*
X172647540Y-102110520D01*
G37*
G36*
X170107540Y-102110520D02*
G01*
X169267540Y-102110520D01*
X169267540Y-99610520D01*
X170107540Y-99610520D01*
X170107540Y-102110520D01*
X170107540Y-102110520D01*
G37*
G36*
X168837540Y-102110520D02*
G01*
X167997540Y-102110520D01*
X167997540Y-99610520D01*
X168837540Y-99610520D01*
X168837540Y-102110520D01*
X168837540Y-102110520D01*
G37*
G36*
X167567540Y-102110520D02*
G01*
X166727540Y-102110520D01*
X166727540Y-99610520D01*
X167567540Y-99610520D01*
X167567540Y-102110520D01*
X167567540Y-102110520D01*
G37*
G36*
X166297540Y-102110520D02*
G01*
X165457540Y-102110520D01*
X165457540Y-99610520D01*
X166297540Y-99610520D01*
X166297540Y-102110520D01*
X166297540Y-102110520D01*
G37*
G36*
X153597540Y-102110520D02*
G01*
X152757540Y-102110520D01*
X152757540Y-99610520D01*
X153597540Y-99610520D01*
X153597540Y-102110520D01*
X153597540Y-102110520D01*
G37*
G36*
X163757540Y-102110520D02*
G01*
X162917540Y-102110520D01*
X162917540Y-99610520D01*
X163757540Y-99610520D01*
X163757540Y-102110520D01*
X163757540Y-102110520D01*
G37*
G36*
X162487540Y-102110520D02*
G01*
X161647540Y-102110520D01*
X161647540Y-99610520D01*
X162487540Y-99610520D01*
X162487540Y-102110520D01*
X162487540Y-102110520D01*
G37*
G36*
X137087540Y-102110520D02*
G01*
X136247540Y-102110520D01*
X136247540Y-99610520D01*
X137087540Y-99610520D01*
X137087540Y-102110520D01*
X137087540Y-102110520D01*
G37*
G36*
X138357540Y-102110520D02*
G01*
X137517540Y-102110520D01*
X137517540Y-99610520D01*
X138357540Y-99610520D01*
X138357540Y-102110520D01*
X138357540Y-102110520D01*
G37*
G36*
X139627540Y-102110520D02*
G01*
X138787540Y-102110520D01*
X138787540Y-99610520D01*
X139627540Y-99610520D01*
X139627540Y-102110520D01*
X139627540Y-102110520D01*
G37*
G36*
X140897540Y-102110520D02*
G01*
X140057540Y-102110520D01*
X140057540Y-99610520D01*
X140897540Y-99610520D01*
X140897540Y-102110520D01*
X140897540Y-102110520D01*
G37*
G36*
X142167540Y-102110520D02*
G01*
X141327540Y-102110520D01*
X141327540Y-99610520D01*
X142167540Y-99610520D01*
X142167540Y-102110520D01*
X142167540Y-102110520D01*
G37*
G36*
X132007540Y-102110520D02*
G01*
X131167540Y-102110520D01*
X131167540Y-99610520D01*
X132007540Y-99610520D01*
X132007540Y-102110520D01*
X132007540Y-102110520D01*
G37*
G36*
X144707540Y-102110520D02*
G01*
X143867540Y-102110520D01*
X143867540Y-99610520D01*
X144707540Y-99610520D01*
X144707540Y-102110520D01*
X144707540Y-102110520D01*
G37*
G36*
X145977540Y-102110520D02*
G01*
X145137540Y-102110520D01*
X145137540Y-99610520D01*
X145977540Y-99610520D01*
X145977540Y-102110520D01*
X145977540Y-102110520D01*
G37*
G36*
X147247540Y-102110520D02*
G01*
X146407540Y-102110520D01*
X146407540Y-99610520D01*
X147247540Y-99610520D01*
X147247540Y-102110520D01*
X147247540Y-102110520D01*
G37*
G36*
X148517540Y-102110520D02*
G01*
X147677540Y-102110520D01*
X147677540Y-99610520D01*
X148517540Y-99610520D01*
X148517540Y-102110520D01*
X148517540Y-102110520D01*
G37*
G36*
X151057540Y-102110520D02*
G01*
X150217540Y-102110520D01*
X150217540Y-99610520D01*
X151057540Y-99610520D01*
X151057540Y-102110520D01*
X151057540Y-102110520D01*
G37*
G36*
X152327540Y-102110520D02*
G01*
X151487540Y-102110520D01*
X151487540Y-99610520D01*
X152327540Y-99610520D01*
X152327540Y-102110520D01*
X152327540Y-102110520D01*
G37*
G36*
X149787540Y-102110520D02*
G01*
X148947540Y-102110520D01*
X148947540Y-99610520D01*
X149787540Y-99610520D01*
X149787540Y-102110520D01*
X149787540Y-102110520D01*
G37*
G36*
X159947540Y-102110520D02*
G01*
X159107540Y-102110520D01*
X159107540Y-99610520D01*
X159947540Y-99610520D01*
X159947540Y-102110520D01*
X159947540Y-102110520D01*
G37*
G36*
X161217540Y-102110520D02*
G01*
X160377540Y-102110520D01*
X160377540Y-99610520D01*
X161217540Y-99610520D01*
X161217540Y-102110520D01*
X161217540Y-102110520D01*
G37*
G36*
X128197540Y-102110520D02*
G01*
X127357540Y-102110520D01*
X127357540Y-99610520D01*
X128197540Y-99610520D01*
X128197540Y-102110520D01*
X128197540Y-102110520D01*
G37*
G36*
X129467540Y-102110520D02*
G01*
X128627540Y-102110520D01*
X128627540Y-99610520D01*
X129467540Y-99610520D01*
X129467540Y-102110520D01*
X129467540Y-102110520D01*
G37*
G36*
X130737540Y-102110520D02*
G01*
X129897540Y-102110520D01*
X129897540Y-99610520D01*
X130737540Y-99610520D01*
X130737540Y-102110520D01*
X130737540Y-102110520D01*
G37*
G36*
X121847540Y-102110520D02*
G01*
X121007540Y-102110520D01*
X121007540Y-99610520D01*
X121847540Y-99610520D01*
X121847540Y-102110520D01*
X121847540Y-102110520D01*
G37*
G36*
X126927540Y-102110520D02*
G01*
X126087540Y-102110520D01*
X126087540Y-99610520D01*
X126927540Y-99610520D01*
X126927540Y-102110520D01*
X126927540Y-102110520D01*
G37*
G36*
X125657540Y-102110520D02*
G01*
X124817540Y-102110520D01*
X124817540Y-99610520D01*
X125657540Y-99610520D01*
X125657540Y-102110520D01*
X125657540Y-102110520D01*
G37*
G36*
X124387540Y-102110520D02*
G01*
X123547540Y-102110520D01*
X123547540Y-99610520D01*
X124387540Y-99610520D01*
X124387540Y-102110520D01*
X124387540Y-102110520D01*
G37*
G36*
X120577540Y-102110520D02*
G01*
X119737540Y-102110520D01*
X119737540Y-99610520D01*
X120577540Y-99610520D01*
X120577540Y-102110520D01*
X120577540Y-102110520D01*
G37*
G36*
X119307540Y-102110520D02*
G01*
X118467540Y-102110520D01*
X118467540Y-99610520D01*
X119307540Y-99610520D01*
X119307540Y-102110520D01*
X119307540Y-102110520D01*
G37*
G36*
X123117540Y-102110520D02*
G01*
X122277540Y-102110520D01*
X122277540Y-99610520D01*
X123117540Y-99610520D01*
X123117540Y-102110520D01*
X123117540Y-102110520D01*
G37*
G36*
X173917540Y-102110520D02*
G01*
X173077540Y-102110520D01*
X173077540Y-99610520D01*
X173917540Y-99610520D01*
X173917540Y-102110520D01*
X173917540Y-102110520D01*
G37*
G36*
X158677540Y-102110520D02*
G01*
X157837540Y-102110520D01*
X157837540Y-99610520D01*
X158677540Y-99610520D01*
X158677540Y-102110520D01*
X158677540Y-102110520D01*
G37*
G36*
X118037540Y-102110520D02*
G01*
X117197540Y-102110520D01*
X117197540Y-99610520D01*
X118037540Y-99610520D01*
X118037540Y-102110520D01*
X118037540Y-102110520D01*
G37*
G36*
X157407540Y-102110520D02*
G01*
X156567540Y-102110520D01*
X156567540Y-99610520D01*
X157407540Y-99610520D01*
X157407540Y-102110520D01*
X157407540Y-102110520D01*
G37*
G36*
X156137540Y-102110520D02*
G01*
X155297540Y-102110520D01*
X155297540Y-99610520D01*
X156137540Y-99610520D01*
X156137540Y-102110520D01*
X156137540Y-102110520D01*
G37*
G36*
X154867540Y-102110520D02*
G01*
X154027540Y-102110520D01*
X154027540Y-99610520D01*
X154867540Y-99610520D01*
X154867540Y-102110520D01*
X154867540Y-102110520D01*
G37*
G36*
X165027540Y-102110520D02*
G01*
X164187540Y-102110520D01*
X164187540Y-99610520D01*
X165027540Y-99610520D01*
X165027540Y-102110520D01*
X165027540Y-102110520D01*
G37*
G36*
X115497540Y-102110520D02*
G01*
X114657540Y-102110520D01*
X114657540Y-99610520D01*
X115497540Y-99610520D01*
X115497540Y-102110520D01*
X115497540Y-102110520D01*
G37*
G36*
X114227540Y-102110520D02*
G01*
X113387540Y-102110520D01*
X113387540Y-99610520D01*
X114227540Y-99610520D01*
X114227540Y-102110520D01*
X114227540Y-102110520D01*
G37*
G36*
X111687540Y-102110520D02*
G01*
X110847540Y-102110520D01*
X110847540Y-99610520D01*
X111687540Y-99610520D01*
X111687540Y-102110520D01*
X111687540Y-102110520D01*
G37*
G36*
X116767540Y-102110520D02*
G01*
X115927540Y-102110520D01*
X115927540Y-99610520D01*
X116767540Y-99610520D01*
X116767540Y-102110520D01*
X116767540Y-102110520D01*
G37*
G36*
X112957540Y-102110520D02*
G01*
X112117540Y-102110520D01*
X112117540Y-99610520D01*
X112957540Y-99610520D01*
X112957540Y-102110520D01*
X112957540Y-102110520D01*
G37*
G36*
X171377540Y-102110520D02*
G01*
X170537540Y-102110520D01*
X170537540Y-99610520D01*
X171377540Y-99610520D01*
X171377540Y-102110520D01*
X171377540Y-102110520D01*
G37*
G36*
X95796531Y-93569595D02*
G01*
X95830419Y-93579875D01*
X95861652Y-93596570D01*
X95889026Y-93619034D01*
X95911490Y-93646408D01*
X95928185Y-93677641D01*
X95938465Y-93711529D01*
X95942540Y-93752908D01*
X95942540Y-94428132D01*
X95938465Y-94469511D01*
X95928185Y-94503399D01*
X95911490Y-94534632D01*
X95889026Y-94562006D01*
X95861652Y-94584470D01*
X95830419Y-94601165D01*
X95796531Y-94611445D01*
X95755152Y-94615520D01*
X95154928Y-94615520D01*
X95113549Y-94611445D01*
X95079661Y-94601165D01*
X95048428Y-94584470D01*
X95021054Y-94562006D01*
X94998590Y-94534632D01*
X94981895Y-94503399D01*
X94971615Y-94469511D01*
X94967540Y-94428132D01*
X94967540Y-93752908D01*
X94971615Y-93711529D01*
X94981895Y-93677641D01*
X94998590Y-93646408D01*
X95021054Y-93619034D01*
X95048428Y-93596570D01*
X95079661Y-93579875D01*
X95113549Y-93569595D01*
X95154928Y-93565520D01*
X95755152Y-93565520D01*
X95796531Y-93569595D01*
X95796531Y-93569595D01*
G37*
G36*
X94221531Y-93569595D02*
G01*
X94255419Y-93579875D01*
X94286652Y-93596570D01*
X94314026Y-93619034D01*
X94336490Y-93646408D01*
X94353185Y-93677641D01*
X94363465Y-93711529D01*
X94367540Y-93752908D01*
X94367540Y-94428132D01*
X94363465Y-94469511D01*
X94353185Y-94503399D01*
X94336490Y-94534632D01*
X94314026Y-94562006D01*
X94286652Y-94584470D01*
X94255419Y-94601165D01*
X94221531Y-94611445D01*
X94180152Y-94615520D01*
X93579928Y-94615520D01*
X93538549Y-94611445D01*
X93504661Y-94601165D01*
X93473428Y-94584470D01*
X93446054Y-94562006D01*
X93423590Y-94534632D01*
X93406895Y-94503399D01*
X93396615Y-94469511D01*
X93392540Y-94428132D01*
X93392540Y-93752908D01*
X93396615Y-93711529D01*
X93406895Y-93677641D01*
X93423590Y-93646408D01*
X93446054Y-93619034D01*
X93473428Y-93596570D01*
X93504661Y-93579875D01*
X93538549Y-93569595D01*
X93579928Y-93565520D01*
X94180152Y-93565520D01*
X94221531Y-93569595D01*
X94221531Y-93569595D01*
G37*
G36*
X80207540Y-94590520D02*
G01*
X78507540Y-94590520D01*
X78507540Y-93090520D01*
X80207540Y-93090520D01*
X80207540Y-94590520D01*
X80207540Y-94590520D01*
G37*
G36*
X73007540Y-94590520D02*
G01*
X71307540Y-94590520D01*
X71307540Y-93090520D01*
X73007540Y-93090520D01*
X73007540Y-94590520D01*
X73007540Y-94590520D01*
G37*
G36*
X92442540Y-93730520D02*
G01*
X90742540Y-93730520D01*
X90742540Y-93130520D01*
X92442540Y-93130520D01*
X92442540Y-93730520D01*
X92442540Y-93730520D01*
G37*
G36*
X89492540Y-93730520D02*
G01*
X87792540Y-93730520D01*
X87792540Y-93130520D01*
X89492540Y-93130520D01*
X89492540Y-93730520D01*
X89492540Y-93730520D01*
G37*
G36*
X94169031Y-92119595D02*
G01*
X94202919Y-92129875D01*
X94234152Y-92146570D01*
X94261526Y-92169034D01*
X94283990Y-92196408D01*
X94300685Y-92227641D01*
X94310965Y-92261529D01*
X94315040Y-92302908D01*
X94315040Y-92978132D01*
X94310965Y-93019511D01*
X94300685Y-93053399D01*
X94283990Y-93084632D01*
X94261526Y-93112006D01*
X94234152Y-93134470D01*
X94202919Y-93151165D01*
X94169031Y-93161445D01*
X94127652Y-93165520D01*
X93527428Y-93165520D01*
X93486049Y-93161445D01*
X93452161Y-93151165D01*
X93420928Y-93134470D01*
X93393554Y-93112006D01*
X93371090Y-93084632D01*
X93354395Y-93053399D01*
X93344115Y-93019511D01*
X93340040Y-92978132D01*
X93340040Y-92302908D01*
X93344115Y-92261529D01*
X93354395Y-92227641D01*
X93371090Y-92196408D01*
X93393554Y-92169034D01*
X93420928Y-92146570D01*
X93452161Y-92129875D01*
X93486049Y-92119595D01*
X93527428Y-92115520D01*
X94127652Y-92115520D01*
X94169031Y-92119595D01*
X94169031Y-92119595D01*
G37*
G36*
X95744031Y-92119595D02*
G01*
X95777919Y-92129875D01*
X95809152Y-92146570D01*
X95836526Y-92169034D01*
X95858990Y-92196408D01*
X95875685Y-92227641D01*
X95885965Y-92261529D01*
X95890040Y-92302908D01*
X95890040Y-92978132D01*
X95885965Y-93019511D01*
X95875685Y-93053399D01*
X95858990Y-93084632D01*
X95836526Y-93112006D01*
X95809152Y-93134470D01*
X95777919Y-93151165D01*
X95744031Y-93161445D01*
X95702652Y-93165520D01*
X95102428Y-93165520D01*
X95061049Y-93161445D01*
X95027161Y-93151165D01*
X94995928Y-93134470D01*
X94968554Y-93112006D01*
X94946090Y-93084632D01*
X94929395Y-93053399D01*
X94919115Y-93019511D01*
X94915040Y-92978132D01*
X94915040Y-92302908D01*
X94919115Y-92261529D01*
X94929395Y-92227641D01*
X94946090Y-92196408D01*
X94968554Y-92169034D01*
X94995928Y-92146570D01*
X95027161Y-92129875D01*
X95061049Y-92119595D01*
X95102428Y-92115520D01*
X95702652Y-92115520D01*
X95744031Y-92119595D01*
X95744031Y-92119595D01*
G37*
G36*
X92442540Y-92830520D02*
G01*
X90742540Y-92830520D01*
X90742540Y-92230520D01*
X92442540Y-92230520D01*
X92442540Y-92830520D01*
X92442540Y-92830520D01*
G37*
G36*
X89492540Y-92830520D02*
G01*
X87792540Y-92830520D01*
X87792540Y-92230520D01*
X89492540Y-92230520D01*
X89492540Y-92830520D01*
X89492540Y-92830520D01*
G37*
G36*
X200801531Y-90899595D02*
G01*
X200835419Y-90909875D01*
X200866652Y-90926570D01*
X200894026Y-90949034D01*
X200916490Y-90976408D01*
X200933185Y-91007641D01*
X200943465Y-91041529D01*
X200947540Y-91082908D01*
X200947540Y-91758132D01*
X200943465Y-91799511D01*
X200933185Y-91833399D01*
X200916490Y-91864632D01*
X200894026Y-91892006D01*
X200866652Y-91914470D01*
X200835419Y-91931165D01*
X200801531Y-91941445D01*
X200760152Y-91945520D01*
X200159928Y-91945520D01*
X200118549Y-91941445D01*
X200084661Y-91931165D01*
X200053428Y-91914470D01*
X200026054Y-91892006D01*
X200003590Y-91864632D01*
X199986895Y-91833399D01*
X199976615Y-91799511D01*
X199972540Y-91758132D01*
X199972540Y-91082908D01*
X199976615Y-91041529D01*
X199986895Y-91007641D01*
X200003590Y-90976408D01*
X200026054Y-90949034D01*
X200053428Y-90926570D01*
X200084661Y-90909875D01*
X200118549Y-90899595D01*
X200159928Y-90895520D01*
X200760152Y-90895520D01*
X200801531Y-90899595D01*
X200801531Y-90899595D01*
G37*
G36*
X202376531Y-90899595D02*
G01*
X202410419Y-90909875D01*
X202441652Y-90926570D01*
X202469026Y-90949034D01*
X202491490Y-90976408D01*
X202508185Y-91007641D01*
X202518465Y-91041529D01*
X202522540Y-91082908D01*
X202522540Y-91758132D01*
X202518465Y-91799511D01*
X202508185Y-91833399D01*
X202491490Y-91864632D01*
X202469026Y-91892006D01*
X202441652Y-91914470D01*
X202410419Y-91931165D01*
X202376531Y-91941445D01*
X202335152Y-91945520D01*
X201734928Y-91945520D01*
X201693549Y-91941445D01*
X201659661Y-91931165D01*
X201628428Y-91914470D01*
X201601054Y-91892006D01*
X201578590Y-91864632D01*
X201561895Y-91833399D01*
X201551615Y-91799511D01*
X201547540Y-91758132D01*
X201547540Y-91082908D01*
X201551615Y-91041529D01*
X201561895Y-91007641D01*
X201578590Y-90976408D01*
X201601054Y-90949034D01*
X201628428Y-90926570D01*
X201659661Y-90909875D01*
X201693549Y-90899595D01*
X201734928Y-90895520D01*
X202335152Y-90895520D01*
X202376531Y-90899595D01*
X202376531Y-90899595D01*
G37*
G36*
X92442540Y-91930520D02*
G01*
X90742540Y-91930520D01*
X90742540Y-91330520D01*
X92442540Y-91330520D01*
X92442540Y-91930520D01*
X92442540Y-91930520D01*
G37*
G36*
X89492540Y-91930520D02*
G01*
X87792540Y-91930520D01*
X87792540Y-91330520D01*
X89492540Y-91330520D01*
X89492540Y-91930520D01*
X89492540Y-91930520D01*
G37*
G36*
X94191531Y-90659595D02*
G01*
X94225419Y-90669875D01*
X94256652Y-90686570D01*
X94284026Y-90709034D01*
X94306490Y-90736408D01*
X94323185Y-90767641D01*
X94333465Y-90801529D01*
X94337540Y-90842908D01*
X94337540Y-91518132D01*
X94333465Y-91559511D01*
X94323185Y-91593399D01*
X94306490Y-91624632D01*
X94284026Y-91652006D01*
X94256652Y-91674470D01*
X94225419Y-91691165D01*
X94191531Y-91701445D01*
X94150152Y-91705520D01*
X93549928Y-91705520D01*
X93508549Y-91701445D01*
X93474661Y-91691165D01*
X93443428Y-91674470D01*
X93416054Y-91652006D01*
X93393590Y-91624632D01*
X93376895Y-91593399D01*
X93366615Y-91559511D01*
X93362540Y-91518132D01*
X93362540Y-90842908D01*
X93366615Y-90801529D01*
X93376895Y-90767641D01*
X93393590Y-90736408D01*
X93416054Y-90709034D01*
X93443428Y-90686570D01*
X93474661Y-90669875D01*
X93508549Y-90659595D01*
X93549928Y-90655520D01*
X94150152Y-90655520D01*
X94191531Y-90659595D01*
X94191531Y-90659595D01*
G37*
G36*
X95766531Y-90659595D02*
G01*
X95800419Y-90669875D01*
X95831652Y-90686570D01*
X95859026Y-90709034D01*
X95881490Y-90736408D01*
X95898185Y-90767641D01*
X95908465Y-90801529D01*
X95912540Y-90842908D01*
X95912540Y-91518132D01*
X95908465Y-91559511D01*
X95898185Y-91593399D01*
X95881490Y-91624632D01*
X95859026Y-91652006D01*
X95831652Y-91674470D01*
X95800419Y-91691165D01*
X95766531Y-91701445D01*
X95725152Y-91705520D01*
X95124928Y-91705520D01*
X95083549Y-91701445D01*
X95049661Y-91691165D01*
X95018428Y-91674470D01*
X94991054Y-91652006D01*
X94968590Y-91624632D01*
X94951895Y-91593399D01*
X94941615Y-91559511D01*
X94937540Y-91518132D01*
X94937540Y-90842908D01*
X94941615Y-90801529D01*
X94951895Y-90767641D01*
X94968590Y-90736408D01*
X94991054Y-90709034D01*
X95018428Y-90686570D01*
X95049661Y-90669875D01*
X95083549Y-90659595D01*
X95124928Y-90655520D01*
X95725152Y-90655520D01*
X95766531Y-90659595D01*
X95766531Y-90659595D01*
G37*
G36*
X73007540Y-91590520D02*
G01*
X71307540Y-91590520D01*
X71307540Y-90090520D01*
X73007540Y-90090520D01*
X73007540Y-91590520D01*
X73007540Y-91590520D01*
G37*
G36*
X80207540Y-91590520D02*
G01*
X78507540Y-91590520D01*
X78507540Y-90090520D01*
X80207540Y-90090520D01*
X80207540Y-91590520D01*
X80207540Y-91590520D01*
G37*
G36*
X205802540Y-91070520D02*
G01*
X204102540Y-91070520D01*
X204102540Y-90470520D01*
X205802540Y-90470520D01*
X205802540Y-91070520D01*
X205802540Y-91070520D01*
G37*
G36*
X208752540Y-91070520D02*
G01*
X207052540Y-91070520D01*
X207052540Y-90470520D01*
X208752540Y-90470520D01*
X208752540Y-91070520D01*
X208752540Y-91070520D01*
G37*
G36*
X66616531Y-90087095D02*
G01*
X66650419Y-90097375D01*
X66681652Y-90114070D01*
X66709026Y-90136534D01*
X66731490Y-90163908D01*
X66748185Y-90195141D01*
X66758465Y-90229029D01*
X66762540Y-90270408D01*
X66762540Y-90870632D01*
X66758465Y-90912011D01*
X66748185Y-90945899D01*
X66731490Y-90977132D01*
X66709026Y-91004506D01*
X66681652Y-91026970D01*
X66650419Y-91043665D01*
X66616531Y-91053945D01*
X66575152Y-91058020D01*
X65899928Y-91058020D01*
X65858549Y-91053945D01*
X65824661Y-91043665D01*
X65793428Y-91026970D01*
X65766054Y-91004506D01*
X65743590Y-90977132D01*
X65726895Y-90945899D01*
X65716615Y-90912011D01*
X65712540Y-90870632D01*
X65712540Y-90270408D01*
X65716615Y-90229029D01*
X65726895Y-90195141D01*
X65743590Y-90163908D01*
X65766054Y-90136534D01*
X65793428Y-90114070D01*
X65824661Y-90097375D01*
X65858549Y-90087095D01*
X65899928Y-90083020D01*
X66575152Y-90083020D01*
X66616531Y-90087095D01*
X66616531Y-90087095D01*
G37*
G36*
X202354031Y-89389595D02*
G01*
X202387919Y-89399875D01*
X202419152Y-89416570D01*
X202446526Y-89439034D01*
X202468990Y-89466408D01*
X202485685Y-89497641D01*
X202495965Y-89531529D01*
X202500040Y-89572908D01*
X202500040Y-90248132D01*
X202495965Y-90289511D01*
X202485685Y-90323399D01*
X202468990Y-90354632D01*
X202446526Y-90382006D01*
X202419152Y-90404470D01*
X202387919Y-90421165D01*
X202354031Y-90431445D01*
X202312652Y-90435520D01*
X201712428Y-90435520D01*
X201671049Y-90431445D01*
X201637161Y-90421165D01*
X201605928Y-90404470D01*
X201578554Y-90382006D01*
X201556090Y-90354632D01*
X201539395Y-90323399D01*
X201529115Y-90289511D01*
X201525040Y-90248132D01*
X201525040Y-89572908D01*
X201529115Y-89531529D01*
X201539395Y-89497641D01*
X201556090Y-89466408D01*
X201578554Y-89439034D01*
X201605928Y-89416570D01*
X201637161Y-89399875D01*
X201671049Y-89389595D01*
X201712428Y-89385520D01*
X202312652Y-89385520D01*
X202354031Y-89389595D01*
X202354031Y-89389595D01*
G37*
G36*
X200779031Y-89389595D02*
G01*
X200812919Y-89399875D01*
X200844152Y-89416570D01*
X200871526Y-89439034D01*
X200893990Y-89466408D01*
X200910685Y-89497641D01*
X200920965Y-89531529D01*
X200925040Y-89572908D01*
X200925040Y-90248132D01*
X200920965Y-90289511D01*
X200910685Y-90323399D01*
X200893990Y-90354632D01*
X200871526Y-90382006D01*
X200844152Y-90404470D01*
X200812919Y-90421165D01*
X200779031Y-90431445D01*
X200737652Y-90435520D01*
X200137428Y-90435520D01*
X200096049Y-90431445D01*
X200062161Y-90421165D01*
X200030928Y-90404470D01*
X200003554Y-90382006D01*
X199981090Y-90354632D01*
X199964395Y-90323399D01*
X199954115Y-90289511D01*
X199950040Y-90248132D01*
X199950040Y-89572908D01*
X199954115Y-89531529D01*
X199964395Y-89497641D01*
X199981090Y-89466408D01*
X200003554Y-89439034D01*
X200030928Y-89416570D01*
X200062161Y-89399875D01*
X200096049Y-89389595D01*
X200137428Y-89385520D01*
X200737652Y-89385520D01*
X200779031Y-89389595D01*
X200779031Y-89389595D01*
G37*
G36*
X208752540Y-90170520D02*
G01*
X207052540Y-90170520D01*
X207052540Y-89570520D01*
X208752540Y-89570520D01*
X208752540Y-90170520D01*
X208752540Y-90170520D01*
G37*
G36*
X205802540Y-90170520D02*
G01*
X204102540Y-90170520D01*
X204102540Y-89570520D01*
X205802540Y-89570520D01*
X205802540Y-90170520D01*
X205802540Y-90170520D01*
G37*
G36*
X66616531Y-88512095D02*
G01*
X66650419Y-88522375D01*
X66681652Y-88539070D01*
X66709026Y-88561534D01*
X66731490Y-88588908D01*
X66748185Y-88620141D01*
X66758465Y-88654029D01*
X66762540Y-88695408D01*
X66762540Y-89295632D01*
X66758465Y-89337011D01*
X66748185Y-89370899D01*
X66731490Y-89402132D01*
X66709026Y-89429506D01*
X66681652Y-89451970D01*
X66650419Y-89468665D01*
X66616531Y-89478945D01*
X66575152Y-89483020D01*
X65899928Y-89483020D01*
X65858549Y-89478945D01*
X65824661Y-89468665D01*
X65793428Y-89451970D01*
X65766054Y-89429506D01*
X65743590Y-89402132D01*
X65726895Y-89370899D01*
X65716615Y-89337011D01*
X65712540Y-89295632D01*
X65712540Y-88695408D01*
X65716615Y-88654029D01*
X65726895Y-88620141D01*
X65743590Y-88588908D01*
X65766054Y-88561534D01*
X65793428Y-88539070D01*
X65824661Y-88522375D01*
X65858549Y-88512095D01*
X65899928Y-88508020D01*
X66575152Y-88508020D01*
X66616531Y-88512095D01*
X66616531Y-88512095D01*
G37*
G36*
X208752540Y-89270520D02*
G01*
X207052540Y-89270520D01*
X207052540Y-88670520D01*
X208752540Y-88670520D01*
X208752540Y-89270520D01*
X208752540Y-89270520D01*
G37*
G36*
X205802540Y-89270520D02*
G01*
X204102540Y-89270520D01*
X204102540Y-88670520D01*
X205802540Y-88670520D01*
X205802540Y-89270520D01*
X205802540Y-89270520D01*
G37*
G36*
X200701531Y-87879595D02*
G01*
X200735419Y-87889875D01*
X200766652Y-87906570D01*
X200794026Y-87929034D01*
X200816490Y-87956408D01*
X200833185Y-87987641D01*
X200843465Y-88021529D01*
X200847540Y-88062908D01*
X200847540Y-88738132D01*
X200843465Y-88779511D01*
X200833185Y-88813399D01*
X200816490Y-88844632D01*
X200794026Y-88872006D01*
X200766652Y-88894470D01*
X200735419Y-88911165D01*
X200701531Y-88921445D01*
X200660152Y-88925520D01*
X200059928Y-88925520D01*
X200018549Y-88921445D01*
X199984661Y-88911165D01*
X199953428Y-88894470D01*
X199926054Y-88872006D01*
X199903590Y-88844632D01*
X199886895Y-88813399D01*
X199876615Y-88779511D01*
X199872540Y-88738132D01*
X199872540Y-88062908D01*
X199876615Y-88021529D01*
X199886895Y-87987641D01*
X199903590Y-87956408D01*
X199926054Y-87929034D01*
X199953428Y-87906570D01*
X199984661Y-87889875D01*
X200018549Y-87879595D01*
X200059928Y-87875520D01*
X200660152Y-87875520D01*
X200701531Y-87879595D01*
X200701531Y-87879595D01*
G37*
G36*
X202276531Y-87879595D02*
G01*
X202310419Y-87889875D01*
X202341652Y-87906570D01*
X202369026Y-87929034D01*
X202391490Y-87956408D01*
X202408185Y-87987641D01*
X202418465Y-88021529D01*
X202422540Y-88062908D01*
X202422540Y-88738132D01*
X202418465Y-88779511D01*
X202408185Y-88813399D01*
X202391490Y-88844632D01*
X202369026Y-88872006D01*
X202341652Y-88894470D01*
X202310419Y-88911165D01*
X202276531Y-88921445D01*
X202235152Y-88925520D01*
X201634928Y-88925520D01*
X201593549Y-88921445D01*
X201559661Y-88911165D01*
X201528428Y-88894470D01*
X201501054Y-88872006D01*
X201478590Y-88844632D01*
X201461895Y-88813399D01*
X201451615Y-88779511D01*
X201447540Y-88738132D01*
X201447540Y-88062908D01*
X201451615Y-88021529D01*
X201461895Y-87987641D01*
X201478590Y-87956408D01*
X201501054Y-87929034D01*
X201528428Y-87906570D01*
X201559661Y-87889875D01*
X201593549Y-87879595D01*
X201634928Y-87875520D01*
X202235152Y-87875520D01*
X202276531Y-87879595D01*
X202276531Y-87879595D01*
G37*
G36*
X66446531Y-82327095D02*
G01*
X66480419Y-82337375D01*
X66511652Y-82354070D01*
X66539026Y-82376534D01*
X66561490Y-82403908D01*
X66578185Y-82435141D01*
X66588465Y-82469029D01*
X66592540Y-82510408D01*
X66592540Y-83110632D01*
X66588465Y-83152011D01*
X66578185Y-83185899D01*
X66561490Y-83217132D01*
X66539026Y-83244506D01*
X66511652Y-83266970D01*
X66480419Y-83283665D01*
X66446531Y-83293945D01*
X66405152Y-83298020D01*
X65729928Y-83298020D01*
X65688549Y-83293945D01*
X65654661Y-83283665D01*
X65623428Y-83266970D01*
X65596054Y-83244506D01*
X65573590Y-83217132D01*
X65556895Y-83185899D01*
X65546615Y-83152011D01*
X65542540Y-83110632D01*
X65542540Y-82510408D01*
X65546615Y-82469029D01*
X65556895Y-82435141D01*
X65573590Y-82403908D01*
X65596054Y-82376534D01*
X65623428Y-82354070D01*
X65654661Y-82337375D01*
X65688549Y-82327095D01*
X65729928Y-82323020D01*
X66405152Y-82323020D01*
X66446531Y-82327095D01*
X66446531Y-82327095D01*
G37*
G36*
X79717540Y-82160520D02*
G01*
X78017540Y-82160520D01*
X78017540Y-80660520D01*
X79717540Y-80660520D01*
X79717540Y-82160520D01*
X79717540Y-82160520D01*
G37*
G36*
X72517540Y-82160520D02*
G01*
X70817540Y-82160520D01*
X70817540Y-80660520D01*
X72517540Y-80660520D01*
X72517540Y-82160520D01*
X72517540Y-82160520D01*
G37*
G36*
X95501531Y-80799595D02*
G01*
X95535419Y-80809875D01*
X95566652Y-80826570D01*
X95594026Y-80849034D01*
X95616490Y-80876408D01*
X95633185Y-80907641D01*
X95643465Y-80941529D01*
X95647540Y-80982908D01*
X95647540Y-81658132D01*
X95643465Y-81699511D01*
X95633185Y-81733399D01*
X95616490Y-81764632D01*
X95594026Y-81792006D01*
X95566652Y-81814470D01*
X95535419Y-81831165D01*
X95501531Y-81841445D01*
X95460152Y-81845520D01*
X94859928Y-81845520D01*
X94818549Y-81841445D01*
X94784661Y-81831165D01*
X94753428Y-81814470D01*
X94726054Y-81792006D01*
X94703590Y-81764632D01*
X94686895Y-81733399D01*
X94676615Y-81699511D01*
X94672540Y-81658132D01*
X94672540Y-80982908D01*
X94676615Y-80941529D01*
X94686895Y-80907641D01*
X94703590Y-80876408D01*
X94726054Y-80849034D01*
X94753428Y-80826570D01*
X94784661Y-80809875D01*
X94818549Y-80799595D01*
X94859928Y-80795520D01*
X95460152Y-80795520D01*
X95501531Y-80799595D01*
X95501531Y-80799595D01*
G37*
G36*
X97076531Y-80799595D02*
G01*
X97110419Y-80809875D01*
X97141652Y-80826570D01*
X97169026Y-80849034D01*
X97191490Y-80876408D01*
X97208185Y-80907641D01*
X97218465Y-80941529D01*
X97222540Y-80982908D01*
X97222540Y-81658132D01*
X97218465Y-81699511D01*
X97208185Y-81733399D01*
X97191490Y-81764632D01*
X97169026Y-81792006D01*
X97141652Y-81814470D01*
X97110419Y-81831165D01*
X97076531Y-81841445D01*
X97035152Y-81845520D01*
X96434928Y-81845520D01*
X96393549Y-81841445D01*
X96359661Y-81831165D01*
X96328428Y-81814470D01*
X96301054Y-81792006D01*
X96278590Y-81764632D01*
X96261895Y-81733399D01*
X96251615Y-81699511D01*
X96247540Y-81658132D01*
X96247540Y-80982908D01*
X96251615Y-80941529D01*
X96261895Y-80907641D01*
X96278590Y-80876408D01*
X96301054Y-80849034D01*
X96328428Y-80826570D01*
X96359661Y-80809875D01*
X96393549Y-80799595D01*
X96434928Y-80795520D01*
X97035152Y-80795520D01*
X97076531Y-80799595D01*
X97076531Y-80799595D01*
G37*
G36*
X66446531Y-80752095D02*
G01*
X66480419Y-80762375D01*
X66511652Y-80779070D01*
X66539026Y-80801534D01*
X66561490Y-80828908D01*
X66578185Y-80860141D01*
X66588465Y-80894029D01*
X66592540Y-80935408D01*
X66592540Y-81535632D01*
X66588465Y-81577011D01*
X66578185Y-81610899D01*
X66561490Y-81642132D01*
X66539026Y-81669506D01*
X66511652Y-81691970D01*
X66480419Y-81708665D01*
X66446531Y-81718945D01*
X66405152Y-81723020D01*
X65729928Y-81723020D01*
X65688549Y-81718945D01*
X65654661Y-81708665D01*
X65623428Y-81691970D01*
X65596054Y-81669506D01*
X65573590Y-81642132D01*
X65556895Y-81610899D01*
X65546615Y-81577011D01*
X65542540Y-81535632D01*
X65542540Y-80935408D01*
X65546615Y-80894029D01*
X65556895Y-80860141D01*
X65573590Y-80828908D01*
X65596054Y-80801534D01*
X65623428Y-80779070D01*
X65654661Y-80762375D01*
X65688549Y-80752095D01*
X65729928Y-80748020D01*
X66405152Y-80748020D01*
X66446531Y-80752095D01*
X66446531Y-80752095D01*
G37*
G36*
X197339800Y-81472400D02*
G01*
X196239800Y-81472400D01*
X196239800Y-80122400D01*
X197339800Y-80122400D01*
X197339800Y-81472400D01*
X197339800Y-81472400D01*
G37*
G36*
X199339800Y-81472400D02*
G01*
X198239800Y-81472400D01*
X198239800Y-80122400D01*
X199339800Y-80122400D01*
X199339800Y-81472400D01*
X199339800Y-81472400D01*
G37*
G36*
X90542540Y-81070520D02*
G01*
X88842540Y-81070520D01*
X88842540Y-80470520D01*
X90542540Y-80470520D01*
X90542540Y-81070520D01*
X90542540Y-81070520D01*
G37*
G36*
X93492540Y-81070520D02*
G01*
X91792540Y-81070520D01*
X91792540Y-80470520D01*
X93492540Y-80470520D01*
X93492540Y-81070520D01*
X93492540Y-81070520D01*
G37*
G36*
X95449031Y-79349595D02*
G01*
X95482919Y-79359875D01*
X95514152Y-79376570D01*
X95541526Y-79399034D01*
X95563990Y-79426408D01*
X95580685Y-79457641D01*
X95590965Y-79491529D01*
X95595040Y-79532908D01*
X95595040Y-80208132D01*
X95590965Y-80249511D01*
X95580685Y-80283399D01*
X95563990Y-80314632D01*
X95541526Y-80342006D01*
X95514152Y-80364470D01*
X95482919Y-80381165D01*
X95449031Y-80391445D01*
X95407652Y-80395520D01*
X94807428Y-80395520D01*
X94766049Y-80391445D01*
X94732161Y-80381165D01*
X94700928Y-80364470D01*
X94673554Y-80342006D01*
X94651090Y-80314632D01*
X94634395Y-80283399D01*
X94624115Y-80249511D01*
X94620040Y-80208132D01*
X94620040Y-79532908D01*
X94624115Y-79491529D01*
X94634395Y-79457641D01*
X94651090Y-79426408D01*
X94673554Y-79399034D01*
X94700928Y-79376570D01*
X94732161Y-79359875D01*
X94766049Y-79349595D01*
X94807428Y-79345520D01*
X95407652Y-79345520D01*
X95449031Y-79349595D01*
X95449031Y-79349595D01*
G37*
G36*
X97024031Y-79349595D02*
G01*
X97057919Y-79359875D01*
X97089152Y-79376570D01*
X97116526Y-79399034D01*
X97138990Y-79426408D01*
X97155685Y-79457641D01*
X97165965Y-79491529D01*
X97170040Y-79532908D01*
X97170040Y-80208132D01*
X97165965Y-80249511D01*
X97155685Y-80283399D01*
X97138990Y-80314632D01*
X97116526Y-80342006D01*
X97089152Y-80364470D01*
X97057919Y-80381165D01*
X97024031Y-80391445D01*
X96982652Y-80395520D01*
X96382428Y-80395520D01*
X96341049Y-80391445D01*
X96307161Y-80381165D01*
X96275928Y-80364470D01*
X96248554Y-80342006D01*
X96226090Y-80314632D01*
X96209395Y-80283399D01*
X96199115Y-80249511D01*
X96195040Y-80208132D01*
X96195040Y-79532908D01*
X96199115Y-79491529D01*
X96209395Y-79457641D01*
X96226090Y-79426408D01*
X96248554Y-79399034D01*
X96275928Y-79376570D01*
X96307161Y-79359875D01*
X96341049Y-79349595D01*
X96382428Y-79345520D01*
X96982652Y-79345520D01*
X97024031Y-79349595D01*
X97024031Y-79349595D01*
G37*
G36*
X93492540Y-80170520D02*
G01*
X91792540Y-80170520D01*
X91792540Y-79570520D01*
X93492540Y-79570520D01*
X93492540Y-80170520D01*
X93492540Y-80170520D01*
G37*
G36*
X90542540Y-80170520D02*
G01*
X88842540Y-80170520D01*
X88842540Y-79570520D01*
X90542540Y-79570520D01*
X90542540Y-80170520D01*
X90542540Y-80170520D01*
G37*
G36*
X201099000Y-79770600D02*
G01*
X199999000Y-79770600D01*
X199999000Y-78420600D01*
X201099000Y-78420600D01*
X201099000Y-79770600D01*
X201099000Y-79770600D01*
G37*
G36*
X203099000Y-79770600D02*
G01*
X201999000Y-79770600D01*
X201999000Y-78420600D01*
X203099000Y-78420600D01*
X203099000Y-79770600D01*
X203099000Y-79770600D01*
G37*
G36*
X199401280Y-79286920D02*
G01*
X198501280Y-79286920D01*
X198501280Y-78436920D01*
X199401280Y-78436920D01*
X199401280Y-79286920D01*
X199401280Y-79286920D01*
G37*
G36*
X197901280Y-79286920D02*
G01*
X197001280Y-79286920D01*
X197001280Y-78436920D01*
X197901280Y-78436920D01*
X197901280Y-79286920D01*
X197901280Y-79286920D01*
G37*
G36*
X93492540Y-79270520D02*
G01*
X91792540Y-79270520D01*
X91792540Y-78670520D01*
X93492540Y-78670520D01*
X93492540Y-79270520D01*
X93492540Y-79270520D01*
G37*
G36*
X90542540Y-79270520D02*
G01*
X88842540Y-79270520D01*
X88842540Y-78670520D01*
X90542540Y-78670520D01*
X90542540Y-79270520D01*
X90542540Y-79270520D01*
G37*
G36*
X72517540Y-79160520D02*
G01*
X70817540Y-79160520D01*
X70817540Y-77660520D01*
X72517540Y-77660520D01*
X72517540Y-79160520D01*
X72517540Y-79160520D01*
G37*
G36*
X79717540Y-79160520D02*
G01*
X78017540Y-79160520D01*
X78017540Y-77660520D01*
X79717540Y-77660520D01*
X79717540Y-79160520D01*
X79717540Y-79160520D01*
G37*
G36*
X95451531Y-77909595D02*
G01*
X95485419Y-77919875D01*
X95516652Y-77936570D01*
X95544026Y-77959034D01*
X95566490Y-77986408D01*
X95583185Y-78017641D01*
X95593465Y-78051529D01*
X95597540Y-78092908D01*
X95597540Y-78768132D01*
X95593465Y-78809511D01*
X95583185Y-78843399D01*
X95566490Y-78874632D01*
X95544026Y-78902006D01*
X95516652Y-78924470D01*
X95485419Y-78941165D01*
X95451531Y-78951445D01*
X95410152Y-78955520D01*
X94809928Y-78955520D01*
X94768549Y-78951445D01*
X94734661Y-78941165D01*
X94703428Y-78924470D01*
X94676054Y-78902006D01*
X94653590Y-78874632D01*
X94636895Y-78843399D01*
X94626615Y-78809511D01*
X94622540Y-78768132D01*
X94622540Y-78092908D01*
X94626615Y-78051529D01*
X94636895Y-78017641D01*
X94653590Y-77986408D01*
X94676054Y-77959034D01*
X94703428Y-77936570D01*
X94734661Y-77919875D01*
X94768549Y-77909595D01*
X94809928Y-77905520D01*
X95410152Y-77905520D01*
X95451531Y-77909595D01*
X95451531Y-77909595D01*
G37*
G36*
X97026531Y-77909595D02*
G01*
X97060419Y-77919875D01*
X97091652Y-77936570D01*
X97119026Y-77959034D01*
X97141490Y-77986408D01*
X97158185Y-78017641D01*
X97168465Y-78051529D01*
X97172540Y-78092908D01*
X97172540Y-78768132D01*
X97168465Y-78809511D01*
X97158185Y-78843399D01*
X97141490Y-78874632D01*
X97119026Y-78902006D01*
X97091652Y-78924470D01*
X97060419Y-78941165D01*
X97026531Y-78951445D01*
X96985152Y-78955520D01*
X96384928Y-78955520D01*
X96343549Y-78951445D01*
X96309661Y-78941165D01*
X96278428Y-78924470D01*
X96251054Y-78902006D01*
X96228590Y-78874632D01*
X96211895Y-78843399D01*
X96201615Y-78809511D01*
X96197540Y-78768132D01*
X96197540Y-78092908D01*
X96201615Y-78051529D01*
X96211895Y-78017641D01*
X96228590Y-77986408D01*
X96251054Y-77959034D01*
X96278428Y-77936570D01*
X96309661Y-77919875D01*
X96343549Y-77909595D01*
X96384928Y-77905520D01*
X96985152Y-77905520D01*
X97026531Y-77909595D01*
X97026531Y-77909595D01*
G37*
G36*
X202721939Y-71127304D02*
G01*
X202872847Y-71173082D01*
X202872850Y-71173083D01*
X202997652Y-71239791D01*
X203011925Y-71247420D01*
X203043679Y-71273480D01*
X203133828Y-71347462D01*
X203207810Y-71437611D01*
X203233870Y-71469365D01*
X203233871Y-71469367D01*
X203308207Y-71608440D01*
X203308208Y-71608443D01*
X203353986Y-71759351D01*
X203365570Y-71876966D01*
X203365570Y-72953834D01*
X203353986Y-73071449D01*
X203308208Y-73222356D01*
X203308207Y-73222360D01*
X203241499Y-73347162D01*
X203233870Y-73361435D01*
X203194779Y-73409067D01*
X203133828Y-73483337D01*
X203065399Y-73539494D01*
X203011924Y-73583380D01*
X203011922Y-73583381D01*
X202872849Y-73657717D01*
X202872846Y-73657718D01*
X202721938Y-73703496D01*
X202565000Y-73718953D01*
X202408061Y-73703496D01*
X202257153Y-73657718D01*
X202257150Y-73657717D01*
X202118077Y-73583381D01*
X202118075Y-73583380D01*
X202070443Y-73544289D01*
X201996173Y-73483338D01*
X201896131Y-73361435D01*
X201896130Y-73361434D01*
X201821794Y-73222360D01*
X201821793Y-73222359D01*
X201821792Y-73222356D01*
X201776014Y-73071448D01*
X201764430Y-72953833D01*
X201764431Y-71876966D01*
X201776015Y-71759351D01*
X201821793Y-71608443D01*
X201821794Y-71608440D01*
X201896130Y-71469367D01*
X201896131Y-71469365D01*
X201922191Y-71437611D01*
X201996173Y-71347462D01*
X202086322Y-71273480D01*
X202118076Y-71247420D01*
X202132349Y-71239791D01*
X202257151Y-71173083D01*
X202257154Y-71173082D01*
X202408062Y-71127304D01*
X202565000Y-71111847D01*
X202721939Y-71127304D01*
X202721939Y-71127304D01*
G37*
G36*
X200181939Y-71127304D02*
G01*
X200332847Y-71173082D01*
X200332850Y-71173083D01*
X200457652Y-71239791D01*
X200471925Y-71247420D01*
X200503679Y-71273480D01*
X200593828Y-71347462D01*
X200667810Y-71437611D01*
X200693870Y-71469365D01*
X200693871Y-71469367D01*
X200768207Y-71608440D01*
X200768208Y-71608443D01*
X200813986Y-71759351D01*
X200825570Y-71876966D01*
X200825570Y-72953834D01*
X200813986Y-73071449D01*
X200768208Y-73222356D01*
X200768207Y-73222360D01*
X200701499Y-73347162D01*
X200693870Y-73361435D01*
X200654779Y-73409067D01*
X200593828Y-73483337D01*
X200525399Y-73539494D01*
X200471924Y-73583380D01*
X200471922Y-73583381D01*
X200332849Y-73657717D01*
X200332846Y-73657718D01*
X200181938Y-73703496D01*
X200025000Y-73718953D01*
X199868061Y-73703496D01*
X199717153Y-73657718D01*
X199717150Y-73657717D01*
X199578077Y-73583381D01*
X199578075Y-73583380D01*
X199530443Y-73544289D01*
X199456173Y-73483338D01*
X199356131Y-73361435D01*
X199356130Y-73361434D01*
X199281794Y-73222360D01*
X199281793Y-73222359D01*
X199281792Y-73222356D01*
X199236014Y-73071448D01*
X199224430Y-72953833D01*
X199224431Y-71876966D01*
X199236015Y-71759351D01*
X199281793Y-71608443D01*
X199281794Y-71608440D01*
X199356130Y-71469367D01*
X199356131Y-71469365D01*
X199382191Y-71437611D01*
X199456173Y-71347462D01*
X199546322Y-71273480D01*
X199578076Y-71247420D01*
X199592349Y-71239791D01*
X199717151Y-71173083D01*
X199717154Y-71173082D01*
X199868062Y-71127304D01*
X200025000Y-71111847D01*
X200181939Y-71127304D01*
X200181939Y-71127304D01*
G37*
G36*
X197641939Y-71127304D02*
G01*
X197792847Y-71173082D01*
X197792850Y-71173083D01*
X197917652Y-71239791D01*
X197931925Y-71247420D01*
X197963679Y-71273480D01*
X198053828Y-71347462D01*
X198127810Y-71437611D01*
X198153870Y-71469365D01*
X198153871Y-71469367D01*
X198228207Y-71608440D01*
X198228208Y-71608443D01*
X198273986Y-71759351D01*
X198285570Y-71876966D01*
X198285570Y-72953834D01*
X198273986Y-73071449D01*
X198228208Y-73222356D01*
X198228207Y-73222360D01*
X198161499Y-73347162D01*
X198153870Y-73361435D01*
X198114779Y-73409067D01*
X198053828Y-73483337D01*
X197985399Y-73539494D01*
X197931924Y-73583380D01*
X197931922Y-73583381D01*
X197792849Y-73657717D01*
X197792846Y-73657718D01*
X197641938Y-73703496D01*
X197485000Y-73718953D01*
X197328061Y-73703496D01*
X197177153Y-73657718D01*
X197177150Y-73657717D01*
X197038077Y-73583381D01*
X197038075Y-73583380D01*
X196990443Y-73544289D01*
X196916173Y-73483338D01*
X196816131Y-73361435D01*
X196816130Y-73361434D01*
X196741794Y-73222360D01*
X196741793Y-73222359D01*
X196741792Y-73222356D01*
X196696014Y-73071448D01*
X196684430Y-72953833D01*
X196684431Y-71876966D01*
X196696015Y-71759351D01*
X196741793Y-71608443D01*
X196741794Y-71608440D01*
X196816130Y-71469367D01*
X196816131Y-71469365D01*
X196842191Y-71437611D01*
X196916173Y-71347462D01*
X197006322Y-71273480D01*
X197038076Y-71247420D01*
X197052349Y-71239791D01*
X197177151Y-71173083D01*
X197177154Y-71173082D01*
X197328062Y-71127304D01*
X197485000Y-71111847D01*
X197641939Y-71127304D01*
X197641939Y-71127304D01*
G37*
G36*
X221816400Y-68954220D02*
G01*
X218815720Y-68954220D01*
X218815720Y-63454180D01*
X221816400Y-63454180D01*
X221816400Y-68954220D01*
X221816400Y-68954220D01*
G37*
G36*
X211813880Y-68954220D02*
G01*
X208813200Y-68954220D01*
X208813200Y-63454180D01*
X211813880Y-63454180D01*
X211813880Y-68954220D01*
X211813880Y-68954220D01*
G37*
G36*
X208119800Y-68166200D02*
G01*
X207269800Y-68166200D01*
X207269800Y-67266200D01*
X208119800Y-67266200D01*
X208119800Y-68166200D01*
X208119800Y-68166200D01*
G37*
G36*
X223385200Y-68115400D02*
G01*
X222535200Y-68115400D01*
X222535200Y-67215400D01*
X223385200Y-67215400D01*
X223385200Y-68115400D01*
X223385200Y-68115400D01*
G37*
G36*
X152392000Y-67979000D02*
G01*
X151392000Y-67979000D01*
X151392000Y-67379000D01*
X152392000Y-67379000D01*
X152392000Y-67979000D01*
X152392000Y-67979000D01*
G37*
G36*
X154271600Y-67979000D02*
G01*
X153271600Y-67979000D01*
X153271600Y-67379000D01*
X154271600Y-67379000D01*
X154271600Y-67979000D01*
X154271600Y-67979000D01*
G37*
G36*
X176054600Y-66692400D02*
G01*
X175454600Y-66692400D01*
X175454600Y-65692400D01*
X176054600Y-65692400D01*
X176054600Y-66692400D01*
X176054600Y-66692400D01*
G37*
G36*
X177554600Y-66692400D02*
G01*
X176954600Y-66692400D01*
X176954600Y-65692400D01*
X177554600Y-65692400D01*
X177554600Y-66692400D01*
X177554600Y-66692400D01*
G37*
G36*
X208119800Y-66666200D02*
G01*
X207269800Y-66666200D01*
X207269800Y-65766200D01*
X208119800Y-65766200D01*
X208119800Y-66666200D01*
X208119800Y-66666200D01*
G37*
G36*
X223385200Y-66615400D02*
G01*
X222535200Y-66615400D01*
X222535200Y-65715400D01*
X223385200Y-65715400D01*
X223385200Y-66615400D01*
X223385200Y-66615400D01*
G37*
G36*
X154271600Y-66479000D02*
G01*
X153271600Y-66479000D01*
X153271600Y-65879000D01*
X154271600Y-65879000D01*
X154271600Y-66479000D01*
X154271600Y-66479000D01*
G37*
G36*
X152392000Y-66479000D02*
G01*
X151392000Y-66479000D01*
X151392000Y-65879000D01*
X152392000Y-65879000D01*
X152392000Y-66479000D01*
X152392000Y-66479000D01*
G37*
G36*
X163744540Y-63031520D02*
G01*
X162904540Y-63031520D01*
X162904540Y-60531520D01*
X163744540Y-60531520D01*
X163744540Y-63031520D01*
X163744540Y-63031520D01*
G37*
G36*
X153584540Y-63031520D02*
G01*
X152744540Y-63031520D01*
X152744540Y-60531520D01*
X153584540Y-60531520D01*
X153584540Y-63031520D01*
X153584540Y-63031520D01*
G37*
G36*
X162474540Y-63031520D02*
G01*
X161634540Y-63031520D01*
X161634540Y-60531520D01*
X162474540Y-60531520D01*
X162474540Y-63031520D01*
X162474540Y-63031520D01*
G37*
G36*
X139614540Y-63031520D02*
G01*
X138774540Y-63031520D01*
X138774540Y-60531520D01*
X139614540Y-60531520D01*
X139614540Y-63031520D01*
X139614540Y-63031520D01*
G37*
G36*
X159934540Y-63031520D02*
G01*
X159094540Y-63031520D01*
X159094540Y-60531520D01*
X159934540Y-60531520D01*
X159934540Y-63031520D01*
X159934540Y-63031520D01*
G37*
G36*
X140884540Y-63031520D02*
G01*
X140044540Y-63031520D01*
X140044540Y-60531520D01*
X140884540Y-60531520D01*
X140884540Y-63031520D01*
X140884540Y-63031520D01*
G37*
G36*
X158664540Y-63031520D02*
G01*
X157824540Y-63031520D01*
X157824540Y-60531520D01*
X158664540Y-60531520D01*
X158664540Y-63031520D01*
X158664540Y-63031520D01*
G37*
G36*
X157394540Y-63031520D02*
G01*
X156554540Y-63031520D01*
X156554540Y-60531520D01*
X157394540Y-60531520D01*
X157394540Y-63031520D01*
X157394540Y-63031520D01*
G37*
G36*
X142154540Y-63031520D02*
G01*
X141314540Y-63031520D01*
X141314540Y-60531520D01*
X142154540Y-60531520D01*
X142154540Y-63031520D01*
X142154540Y-63031520D01*
G37*
G36*
X156124540Y-63031520D02*
G01*
X155284540Y-63031520D01*
X155284540Y-60531520D01*
X156124540Y-60531520D01*
X156124540Y-63031520D01*
X156124540Y-63031520D01*
G37*
G36*
X154854540Y-63031520D02*
G01*
X154014540Y-63031520D01*
X154014540Y-60531520D01*
X154854540Y-60531520D01*
X154854540Y-63031520D01*
X154854540Y-63031520D01*
G37*
G36*
X143424540Y-63031520D02*
G01*
X142584540Y-63031520D01*
X142584540Y-60531520D01*
X143424540Y-60531520D01*
X143424540Y-63031520D01*
X143424540Y-63031520D01*
G37*
G36*
X165014540Y-63031520D02*
G01*
X164174540Y-63031520D01*
X164174540Y-60531520D01*
X165014540Y-60531520D01*
X165014540Y-63031520D01*
X165014540Y-63031520D01*
G37*
G36*
X138344540Y-63031520D02*
G01*
X137504540Y-63031520D01*
X137504540Y-60531520D01*
X138344540Y-60531520D01*
X138344540Y-63031520D01*
X138344540Y-63031520D01*
G37*
G36*
X166284540Y-63031520D02*
G01*
X165444540Y-63031520D01*
X165444540Y-60531520D01*
X166284540Y-60531520D01*
X166284540Y-63031520D01*
X166284540Y-63031520D01*
G37*
G36*
X167554540Y-63031520D02*
G01*
X166714540Y-63031520D01*
X166714540Y-60531520D01*
X167554540Y-60531520D01*
X167554540Y-63031520D01*
X167554540Y-63031520D01*
G37*
G36*
X137074540Y-63031520D02*
G01*
X136234540Y-63031520D01*
X136234540Y-60531520D01*
X137074540Y-60531520D01*
X137074540Y-63031520D01*
X137074540Y-63031520D01*
G37*
G36*
X168824540Y-63031520D02*
G01*
X167984540Y-63031520D01*
X167984540Y-60531520D01*
X168824540Y-60531520D01*
X168824540Y-63031520D01*
X168824540Y-63031520D01*
G37*
G36*
X170094540Y-63031520D02*
G01*
X169254540Y-63031520D01*
X169254540Y-60531520D01*
X170094540Y-60531520D01*
X170094540Y-63031520D01*
X170094540Y-63031520D01*
G37*
G36*
X135804540Y-63031520D02*
G01*
X134964540Y-63031520D01*
X134964540Y-60531520D01*
X135804540Y-60531520D01*
X135804540Y-63031520D01*
X135804540Y-63031520D01*
G37*
G36*
X116754540Y-63031520D02*
G01*
X115914540Y-63031520D01*
X115914540Y-60531520D01*
X116754540Y-60531520D01*
X116754540Y-63031520D01*
X116754540Y-63031520D01*
G37*
G36*
X171364540Y-63031520D02*
G01*
X170524540Y-63031520D01*
X170524540Y-60531520D01*
X171364540Y-60531520D01*
X171364540Y-63031520D01*
X171364540Y-63031520D01*
G37*
G36*
X172634540Y-63031520D02*
G01*
X171794540Y-63031520D01*
X171794540Y-60531520D01*
X172634540Y-60531520D01*
X172634540Y-63031520D01*
X172634540Y-63031520D01*
G37*
G36*
X134534540Y-63031520D02*
G01*
X133694540Y-63031520D01*
X133694540Y-60531520D01*
X134534540Y-60531520D01*
X134534540Y-63031520D01*
X134534540Y-63031520D01*
G37*
G36*
X173904540Y-63031520D02*
G01*
X173064540Y-63031520D01*
X173064540Y-60531520D01*
X173904540Y-60531520D01*
X173904540Y-63031520D01*
X173904540Y-63031520D01*
G37*
G36*
X144694540Y-63031520D02*
G01*
X143854540Y-63031520D01*
X143854540Y-60531520D01*
X144694540Y-60531520D01*
X144694540Y-63031520D01*
X144694540Y-63031520D01*
G37*
G36*
X152314540Y-63031520D02*
G01*
X151474540Y-63031520D01*
X151474540Y-60531520D01*
X152314540Y-60531520D01*
X152314540Y-63031520D01*
X152314540Y-63031520D01*
G37*
G36*
X124374540Y-63031520D02*
G01*
X123534540Y-63031520D01*
X123534540Y-60531520D01*
X124374540Y-60531520D01*
X124374540Y-63031520D01*
X124374540Y-63031520D01*
G37*
G36*
X119294540Y-63031520D02*
G01*
X118454540Y-63031520D01*
X118454540Y-60531520D01*
X119294540Y-60531520D01*
X119294540Y-63031520D01*
X119294540Y-63031520D01*
G37*
G36*
X118024540Y-63031520D02*
G01*
X117184540Y-63031520D01*
X117184540Y-60531520D01*
X118024540Y-60531520D01*
X118024540Y-63031520D01*
X118024540Y-63031520D01*
G37*
G36*
X115484540Y-63031520D02*
G01*
X114644540Y-63031520D01*
X114644540Y-60531520D01*
X115484540Y-60531520D01*
X115484540Y-63031520D01*
X115484540Y-63031520D01*
G37*
G36*
X123104540Y-63031520D02*
G01*
X122264540Y-63031520D01*
X122264540Y-60531520D01*
X123104540Y-60531520D01*
X123104540Y-63031520D01*
X123104540Y-63031520D01*
G37*
G36*
X121834540Y-63031520D02*
G01*
X120994540Y-63031520D01*
X120994540Y-60531520D01*
X121834540Y-60531520D01*
X121834540Y-63031520D01*
X121834540Y-63031520D01*
G37*
G36*
X120564540Y-63031520D02*
G01*
X119724540Y-63031520D01*
X119724540Y-60531520D01*
X120564540Y-60531520D01*
X120564540Y-63031520D01*
X120564540Y-63031520D01*
G37*
G36*
X114214540Y-63031520D02*
G01*
X113374540Y-63031520D01*
X113374540Y-60531520D01*
X114214540Y-60531520D01*
X114214540Y-63031520D01*
X114214540Y-63031520D01*
G37*
G36*
X112944540Y-63031520D02*
G01*
X112104540Y-63031520D01*
X112104540Y-60531520D01*
X112944540Y-60531520D01*
X112944540Y-63031520D01*
X112944540Y-63031520D01*
G37*
G36*
X111674540Y-63031520D02*
G01*
X110834540Y-63031520D01*
X110834540Y-60531520D01*
X111674540Y-60531520D01*
X111674540Y-63031520D01*
X111674540Y-63031520D01*
G37*
G36*
X133264540Y-63031520D02*
G01*
X132424540Y-63031520D01*
X132424540Y-60531520D01*
X133264540Y-60531520D01*
X133264540Y-63031520D01*
X133264540Y-63031520D01*
G37*
G36*
X130724540Y-63031520D02*
G01*
X129884540Y-63031520D01*
X129884540Y-60531520D01*
X130724540Y-60531520D01*
X130724540Y-63031520D01*
X130724540Y-63031520D01*
G37*
G36*
X151044540Y-63031520D02*
G01*
X150204540Y-63031520D01*
X150204540Y-60531520D01*
X151044540Y-60531520D01*
X151044540Y-63031520D01*
X151044540Y-63031520D01*
G37*
G36*
X149774540Y-63031520D02*
G01*
X148934540Y-63031520D01*
X148934540Y-60531520D01*
X149774540Y-60531520D01*
X149774540Y-63031520D01*
X149774540Y-63031520D01*
G37*
G36*
X145964540Y-63031520D02*
G01*
X145124540Y-63031520D01*
X145124540Y-60531520D01*
X145964540Y-60531520D01*
X145964540Y-63031520D01*
X145964540Y-63031520D01*
G37*
G36*
X148504540Y-63031520D02*
G01*
X147664540Y-63031520D01*
X147664540Y-60531520D01*
X148504540Y-60531520D01*
X148504540Y-63031520D01*
X148504540Y-63031520D01*
G37*
G36*
X161204540Y-63031520D02*
G01*
X160364540Y-63031520D01*
X160364540Y-60531520D01*
X161204540Y-60531520D01*
X161204540Y-63031520D01*
X161204540Y-63031520D01*
G37*
G36*
X147234540Y-63031520D02*
G01*
X146394540Y-63031520D01*
X146394540Y-60531520D01*
X147234540Y-60531520D01*
X147234540Y-63031520D01*
X147234540Y-63031520D01*
G37*
G36*
X125644540Y-63031520D02*
G01*
X124804540Y-63031520D01*
X124804540Y-60531520D01*
X125644540Y-60531520D01*
X125644540Y-63031520D01*
X125644540Y-63031520D01*
G37*
G36*
X126914540Y-63031520D02*
G01*
X126074540Y-63031520D01*
X126074540Y-60531520D01*
X126914540Y-60531520D01*
X126914540Y-63031520D01*
X126914540Y-63031520D01*
G37*
G36*
X128184540Y-63031520D02*
G01*
X127344540Y-63031520D01*
X127344540Y-60531520D01*
X128184540Y-60531520D01*
X128184540Y-63031520D01*
X128184540Y-63031520D01*
G37*
G36*
X129454540Y-63031520D02*
G01*
X128614540Y-63031520D01*
X128614540Y-60531520D01*
X129454540Y-60531520D01*
X129454540Y-63031520D01*
X129454540Y-63031520D01*
G37*
G36*
X131994540Y-63031520D02*
G01*
X131154540Y-63031520D01*
X131154540Y-60531520D01*
X131994540Y-60531520D01*
X131994540Y-63031520D01*
X131994540Y-63031520D01*
G37*
G36*
X199027336Y-58275654D02*
G01*
X199119105Y-58293908D01*
X199291994Y-58365521D01*
X199447590Y-58469487D01*
X199579913Y-58601810D01*
X199683879Y-58757406D01*
X199755492Y-58930295D01*
X199792000Y-59113833D01*
X199792000Y-59300967D01*
X199755492Y-59484505D01*
X199683879Y-59657394D01*
X199579913Y-59812990D01*
X199447590Y-59945313D01*
X199291994Y-60049279D01*
X199119105Y-60120892D01*
X199027336Y-60139146D01*
X198935568Y-60157400D01*
X198748432Y-60157400D01*
X198656664Y-60139146D01*
X198564895Y-60120892D01*
X198392006Y-60049279D01*
X198236410Y-59945313D01*
X198104087Y-59812990D01*
X198000121Y-59657394D01*
X197928508Y-59484505D01*
X197892000Y-59300967D01*
X197892000Y-59113833D01*
X197928508Y-58930295D01*
X198000121Y-58757406D01*
X198104087Y-58601810D01*
X198236410Y-58469487D01*
X198392006Y-58365521D01*
X198564895Y-58293908D01*
X198656664Y-58275654D01*
X198748432Y-58257400D01*
X198935568Y-58257400D01*
X199027336Y-58275654D01*
X199027336Y-58275654D01*
G37*
G36*
X197292000Y-60157400D02*
G01*
X195392000Y-60157400D01*
X195392000Y-58257400D01*
X197292000Y-58257400D01*
X197292000Y-60157400D01*
X197292000Y-60157400D01*
G37*
G36*
X77612707Y-57460829D02*
G01*
X77679817Y-57467439D01*
X77852031Y-57519680D01*
X77852034Y-57519681D01*
X77994456Y-57595807D01*
X78010745Y-57604514D01*
X78046983Y-57634254D01*
X78149859Y-57718681D01*
X78234286Y-57821557D01*
X78264026Y-57857795D01*
X78264027Y-57857797D01*
X78348859Y-58016506D01*
X78348860Y-58016509D01*
X78401101Y-58188723D01*
X78418740Y-58367820D01*
X78401101Y-58546917D01*
X78384449Y-58601810D01*
X78348859Y-58719134D01*
X78328402Y-58757406D01*
X78264026Y-58877845D01*
X78234286Y-58914083D01*
X78149859Y-59016959D01*
X78046983Y-59101386D01*
X78010745Y-59131126D01*
X78010743Y-59131127D01*
X77852034Y-59215959D01*
X77852031Y-59215960D01*
X77679817Y-59268201D01*
X77612707Y-59274811D01*
X77545600Y-59281420D01*
X77455840Y-59281420D01*
X77388733Y-59274811D01*
X77321623Y-59268201D01*
X77149409Y-59215960D01*
X77149406Y-59215959D01*
X76990697Y-59131127D01*
X76990695Y-59131126D01*
X76954457Y-59101386D01*
X76851581Y-59016959D01*
X76767154Y-58914083D01*
X76737414Y-58877845D01*
X76673038Y-58757406D01*
X76652581Y-58719134D01*
X76616991Y-58601810D01*
X76600339Y-58546917D01*
X76582700Y-58367820D01*
X76600339Y-58188723D01*
X76652580Y-58016509D01*
X76652581Y-58016506D01*
X76737413Y-57857797D01*
X76737414Y-57857795D01*
X76767154Y-57821557D01*
X76851581Y-57718681D01*
X76954457Y-57634254D01*
X76990695Y-57604514D01*
X77006984Y-57595807D01*
X77149406Y-57519681D01*
X77149409Y-57519680D01*
X77321623Y-57467439D01*
X77388733Y-57460829D01*
X77455840Y-57454220D01*
X77545600Y-57454220D01*
X77612707Y-57460829D01*
X77612707Y-57460829D01*
G37*
G36*
X90312707Y-57460829D02*
G01*
X90379817Y-57467439D01*
X90552031Y-57519680D01*
X90552034Y-57519681D01*
X90694456Y-57595807D01*
X90710745Y-57604514D01*
X90746983Y-57634254D01*
X90849859Y-57718681D01*
X90934286Y-57821557D01*
X90964026Y-57857795D01*
X90964027Y-57857797D01*
X91048859Y-58016506D01*
X91048860Y-58016509D01*
X91101101Y-58188723D01*
X91118740Y-58367820D01*
X91101101Y-58546917D01*
X91084449Y-58601810D01*
X91048859Y-58719134D01*
X91028402Y-58757406D01*
X90964026Y-58877845D01*
X90934286Y-58914083D01*
X90849859Y-59016959D01*
X90746983Y-59101386D01*
X90710745Y-59131126D01*
X90710743Y-59131127D01*
X90552034Y-59215959D01*
X90552031Y-59215960D01*
X90379817Y-59268201D01*
X90312707Y-59274811D01*
X90245600Y-59281420D01*
X90155840Y-59281420D01*
X90088733Y-59274811D01*
X90021623Y-59268201D01*
X89849409Y-59215960D01*
X89849406Y-59215959D01*
X89690697Y-59131127D01*
X89690695Y-59131126D01*
X89654457Y-59101386D01*
X89551581Y-59016959D01*
X89467154Y-58914083D01*
X89437414Y-58877845D01*
X89373038Y-58757406D01*
X89352581Y-58719134D01*
X89316991Y-58601810D01*
X89300339Y-58546917D01*
X89282700Y-58367820D01*
X89300339Y-58188723D01*
X89352580Y-58016509D01*
X89352581Y-58016506D01*
X89437413Y-57857797D01*
X89437414Y-57857795D01*
X89467154Y-57821557D01*
X89551581Y-57718681D01*
X89654457Y-57634254D01*
X89690695Y-57604514D01*
X89706984Y-57595807D01*
X89849406Y-57519681D01*
X89849409Y-57519680D01*
X90021623Y-57467439D01*
X90088733Y-57460829D01*
X90155840Y-57454220D01*
X90245600Y-57454220D01*
X90312707Y-57460829D01*
X90312707Y-57460829D01*
G37*
G36*
X87772707Y-57460829D02*
G01*
X87839817Y-57467439D01*
X88012031Y-57519680D01*
X88012034Y-57519681D01*
X88154456Y-57595807D01*
X88170745Y-57604514D01*
X88206983Y-57634254D01*
X88309859Y-57718681D01*
X88394286Y-57821557D01*
X88424026Y-57857795D01*
X88424027Y-57857797D01*
X88508859Y-58016506D01*
X88508860Y-58016509D01*
X88561101Y-58188723D01*
X88578740Y-58367820D01*
X88561101Y-58546917D01*
X88544449Y-58601810D01*
X88508859Y-58719134D01*
X88488402Y-58757406D01*
X88424026Y-58877845D01*
X88394286Y-58914083D01*
X88309859Y-59016959D01*
X88206983Y-59101386D01*
X88170745Y-59131126D01*
X88170743Y-59131127D01*
X88012034Y-59215959D01*
X88012031Y-59215960D01*
X87839817Y-59268201D01*
X87772707Y-59274811D01*
X87705600Y-59281420D01*
X87615840Y-59281420D01*
X87548733Y-59274811D01*
X87481623Y-59268201D01*
X87309409Y-59215960D01*
X87309406Y-59215959D01*
X87150697Y-59131127D01*
X87150695Y-59131126D01*
X87114457Y-59101386D01*
X87011581Y-59016959D01*
X86927154Y-58914083D01*
X86897414Y-58877845D01*
X86833038Y-58757406D01*
X86812581Y-58719134D01*
X86776991Y-58601810D01*
X86760339Y-58546917D01*
X86742700Y-58367820D01*
X86760339Y-58188723D01*
X86812580Y-58016509D01*
X86812581Y-58016506D01*
X86897413Y-57857797D01*
X86897414Y-57857795D01*
X86927154Y-57821557D01*
X87011581Y-57718681D01*
X87114457Y-57634254D01*
X87150695Y-57604514D01*
X87166984Y-57595807D01*
X87309406Y-57519681D01*
X87309409Y-57519680D01*
X87481623Y-57467439D01*
X87548733Y-57460829D01*
X87615840Y-57454220D01*
X87705600Y-57454220D01*
X87772707Y-57460829D01*
X87772707Y-57460829D01*
G37*
G36*
X85232707Y-57460829D02*
G01*
X85299817Y-57467439D01*
X85472031Y-57519680D01*
X85472034Y-57519681D01*
X85614456Y-57595807D01*
X85630745Y-57604514D01*
X85666983Y-57634254D01*
X85769859Y-57718681D01*
X85854286Y-57821557D01*
X85884026Y-57857795D01*
X85884027Y-57857797D01*
X85968859Y-58016506D01*
X85968860Y-58016509D01*
X86021101Y-58188723D01*
X86038740Y-58367820D01*
X86021101Y-58546917D01*
X86004449Y-58601810D01*
X85968859Y-58719134D01*
X85948402Y-58757406D01*
X85884026Y-58877845D01*
X85854286Y-58914083D01*
X85769859Y-59016959D01*
X85666983Y-59101386D01*
X85630745Y-59131126D01*
X85630743Y-59131127D01*
X85472034Y-59215959D01*
X85472031Y-59215960D01*
X85299817Y-59268201D01*
X85232707Y-59274811D01*
X85165600Y-59281420D01*
X85075840Y-59281420D01*
X85008733Y-59274811D01*
X84941623Y-59268201D01*
X84769409Y-59215960D01*
X84769406Y-59215959D01*
X84610697Y-59131127D01*
X84610695Y-59131126D01*
X84574457Y-59101386D01*
X84471581Y-59016959D01*
X84387154Y-58914083D01*
X84357414Y-58877845D01*
X84293038Y-58757406D01*
X84272581Y-58719134D01*
X84236991Y-58601810D01*
X84220339Y-58546917D01*
X84202700Y-58367820D01*
X84220339Y-58188723D01*
X84272580Y-58016509D01*
X84272581Y-58016506D01*
X84357413Y-57857797D01*
X84357414Y-57857795D01*
X84387154Y-57821557D01*
X84471581Y-57718681D01*
X84574457Y-57634254D01*
X84610695Y-57604514D01*
X84626984Y-57595807D01*
X84769406Y-57519681D01*
X84769409Y-57519680D01*
X84941623Y-57467439D01*
X85008733Y-57460829D01*
X85075840Y-57454220D01*
X85165600Y-57454220D01*
X85232707Y-57460829D01*
X85232707Y-57460829D01*
G37*
G36*
X80152707Y-57460829D02*
G01*
X80219817Y-57467439D01*
X80392031Y-57519680D01*
X80392034Y-57519681D01*
X80534456Y-57595807D01*
X80550745Y-57604514D01*
X80586983Y-57634254D01*
X80689859Y-57718681D01*
X80774286Y-57821557D01*
X80804026Y-57857795D01*
X80804027Y-57857797D01*
X80888859Y-58016506D01*
X80888860Y-58016509D01*
X80941101Y-58188723D01*
X80958740Y-58367820D01*
X80941101Y-58546917D01*
X80924449Y-58601810D01*
X80888859Y-58719134D01*
X80868402Y-58757406D01*
X80804026Y-58877845D01*
X80774286Y-58914083D01*
X80689859Y-59016959D01*
X80586983Y-59101386D01*
X80550745Y-59131126D01*
X80550743Y-59131127D01*
X80392034Y-59215959D01*
X80392031Y-59215960D01*
X80219817Y-59268201D01*
X80152707Y-59274811D01*
X80085600Y-59281420D01*
X79995840Y-59281420D01*
X79928733Y-59274811D01*
X79861623Y-59268201D01*
X79689409Y-59215960D01*
X79689406Y-59215959D01*
X79530697Y-59131127D01*
X79530695Y-59131126D01*
X79494457Y-59101386D01*
X79391581Y-59016959D01*
X79307154Y-58914083D01*
X79277414Y-58877845D01*
X79213038Y-58757406D01*
X79192581Y-58719134D01*
X79156991Y-58601810D01*
X79140339Y-58546917D01*
X79122700Y-58367820D01*
X79140339Y-58188723D01*
X79192580Y-58016509D01*
X79192581Y-58016506D01*
X79277413Y-57857797D01*
X79277414Y-57857795D01*
X79307154Y-57821557D01*
X79391581Y-57718681D01*
X79494457Y-57634254D01*
X79530695Y-57604514D01*
X79546984Y-57595807D01*
X79689406Y-57519681D01*
X79689409Y-57519680D01*
X79861623Y-57467439D01*
X79928733Y-57460829D01*
X79995840Y-57454220D01*
X80085600Y-57454220D01*
X80152707Y-57460829D01*
X80152707Y-57460829D01*
G37*
G36*
X82692707Y-57460829D02*
G01*
X82759817Y-57467439D01*
X82932031Y-57519680D01*
X82932034Y-57519681D01*
X83074456Y-57595807D01*
X83090745Y-57604514D01*
X83126983Y-57634254D01*
X83229859Y-57718681D01*
X83314286Y-57821557D01*
X83344026Y-57857795D01*
X83344027Y-57857797D01*
X83428859Y-58016506D01*
X83428860Y-58016509D01*
X83481101Y-58188723D01*
X83498740Y-58367820D01*
X83481101Y-58546917D01*
X83464449Y-58601810D01*
X83428859Y-58719134D01*
X83408402Y-58757406D01*
X83344026Y-58877845D01*
X83314286Y-58914083D01*
X83229859Y-59016959D01*
X83126983Y-59101386D01*
X83090745Y-59131126D01*
X83090743Y-59131127D01*
X82932034Y-59215959D01*
X82932031Y-59215960D01*
X82759817Y-59268201D01*
X82692707Y-59274811D01*
X82625600Y-59281420D01*
X82535840Y-59281420D01*
X82468733Y-59274811D01*
X82401623Y-59268201D01*
X82229409Y-59215960D01*
X82229406Y-59215959D01*
X82070697Y-59131127D01*
X82070695Y-59131126D01*
X82034457Y-59101386D01*
X81931581Y-59016959D01*
X81847154Y-58914083D01*
X81817414Y-58877845D01*
X81753038Y-58757406D01*
X81732581Y-58719134D01*
X81696991Y-58601810D01*
X81680339Y-58546917D01*
X81662700Y-58367820D01*
X81680339Y-58188723D01*
X81732580Y-58016509D01*
X81732581Y-58016506D01*
X81817413Y-57857797D01*
X81817414Y-57857795D01*
X81847154Y-57821557D01*
X81931581Y-57718681D01*
X82034457Y-57634254D01*
X82070695Y-57604514D01*
X82086984Y-57595807D01*
X82229406Y-57519681D01*
X82229409Y-57519680D01*
X82401623Y-57467439D01*
X82468733Y-57460829D01*
X82535840Y-57454220D01*
X82625600Y-57454220D01*
X82692707Y-57460829D01*
X82692707Y-57460829D01*
G37*
G36*
X75072707Y-57460829D02*
G01*
X75139817Y-57467439D01*
X75312031Y-57519680D01*
X75312034Y-57519681D01*
X75454456Y-57595807D01*
X75470745Y-57604514D01*
X75506983Y-57634254D01*
X75609859Y-57718681D01*
X75694286Y-57821557D01*
X75724026Y-57857795D01*
X75724027Y-57857797D01*
X75808859Y-58016506D01*
X75808860Y-58016509D01*
X75861101Y-58188723D01*
X75878740Y-58367820D01*
X75861101Y-58546917D01*
X75844449Y-58601810D01*
X75808859Y-58719134D01*
X75788402Y-58757406D01*
X75724026Y-58877845D01*
X75694286Y-58914083D01*
X75609859Y-59016959D01*
X75506983Y-59101386D01*
X75470745Y-59131126D01*
X75470743Y-59131127D01*
X75312034Y-59215959D01*
X75312031Y-59215960D01*
X75139817Y-59268201D01*
X75072707Y-59274811D01*
X75005600Y-59281420D01*
X74915840Y-59281420D01*
X74848733Y-59274811D01*
X74781623Y-59268201D01*
X74609409Y-59215960D01*
X74609406Y-59215959D01*
X74450697Y-59131127D01*
X74450695Y-59131126D01*
X74414457Y-59101386D01*
X74311581Y-59016959D01*
X74227154Y-58914083D01*
X74197414Y-58877845D01*
X74133038Y-58757406D01*
X74112581Y-58719134D01*
X74076991Y-58601810D01*
X74060339Y-58546917D01*
X74042700Y-58367820D01*
X74060339Y-58188723D01*
X74112580Y-58016509D01*
X74112581Y-58016506D01*
X74197413Y-57857797D01*
X74197414Y-57857795D01*
X74227154Y-57821557D01*
X74311581Y-57718681D01*
X74414457Y-57634254D01*
X74450695Y-57604514D01*
X74466984Y-57595807D01*
X74609406Y-57519681D01*
X74609409Y-57519680D01*
X74781623Y-57467439D01*
X74848733Y-57460829D01*
X74915840Y-57454220D01*
X75005600Y-57454220D01*
X75072707Y-57460829D01*
X75072707Y-57460829D01*
G37*
G36*
X72532707Y-57460829D02*
G01*
X72599817Y-57467439D01*
X72772031Y-57519680D01*
X72772034Y-57519681D01*
X72914456Y-57595807D01*
X72930745Y-57604514D01*
X72966983Y-57634254D01*
X73069859Y-57718681D01*
X73154286Y-57821557D01*
X73184026Y-57857795D01*
X73184027Y-57857797D01*
X73268859Y-58016506D01*
X73268860Y-58016509D01*
X73321101Y-58188723D01*
X73338740Y-58367820D01*
X73321101Y-58546917D01*
X73304449Y-58601810D01*
X73268859Y-58719134D01*
X73248402Y-58757406D01*
X73184026Y-58877845D01*
X73154286Y-58914083D01*
X73069859Y-59016959D01*
X72966983Y-59101386D01*
X72930745Y-59131126D01*
X72930743Y-59131127D01*
X72772034Y-59215959D01*
X72772031Y-59215960D01*
X72599817Y-59268201D01*
X72532707Y-59274811D01*
X72465600Y-59281420D01*
X72375840Y-59281420D01*
X72308733Y-59274811D01*
X72241623Y-59268201D01*
X72069409Y-59215960D01*
X72069406Y-59215959D01*
X71910697Y-59131127D01*
X71910695Y-59131126D01*
X71874457Y-59101386D01*
X71771581Y-59016959D01*
X71687154Y-58914083D01*
X71657414Y-58877845D01*
X71593038Y-58757406D01*
X71572581Y-58719134D01*
X71536991Y-58601810D01*
X71520339Y-58546917D01*
X71502700Y-58367820D01*
X71520339Y-58188723D01*
X71572580Y-58016509D01*
X71572581Y-58016506D01*
X71657413Y-57857797D01*
X71657414Y-57857795D01*
X71687154Y-57821557D01*
X71771581Y-57718681D01*
X71874457Y-57634254D01*
X71910695Y-57604514D01*
X71926984Y-57595807D01*
X72069406Y-57519681D01*
X72069409Y-57519680D01*
X72241623Y-57467439D01*
X72308733Y-57460829D01*
X72375840Y-57454220D01*
X72465600Y-57454220D01*
X72532707Y-57460829D01*
X72532707Y-57460829D01*
G37*
G36*
X69992707Y-57460829D02*
G01*
X70059817Y-57467439D01*
X70232031Y-57519680D01*
X70232034Y-57519681D01*
X70374456Y-57595807D01*
X70390745Y-57604514D01*
X70426983Y-57634254D01*
X70529859Y-57718681D01*
X70614286Y-57821557D01*
X70644026Y-57857795D01*
X70644027Y-57857797D01*
X70728859Y-58016506D01*
X70728860Y-58016509D01*
X70781101Y-58188723D01*
X70798740Y-58367820D01*
X70781101Y-58546917D01*
X70764449Y-58601810D01*
X70728859Y-58719134D01*
X70708402Y-58757406D01*
X70644026Y-58877845D01*
X70614286Y-58914083D01*
X70529859Y-59016959D01*
X70426983Y-59101386D01*
X70390745Y-59131126D01*
X70390743Y-59131127D01*
X70232034Y-59215959D01*
X70232031Y-59215960D01*
X70059817Y-59268201D01*
X69992707Y-59274811D01*
X69925600Y-59281420D01*
X69835840Y-59281420D01*
X69768733Y-59274811D01*
X69701623Y-59268201D01*
X69529409Y-59215960D01*
X69529406Y-59215959D01*
X69370697Y-59131127D01*
X69370695Y-59131126D01*
X69334457Y-59101386D01*
X69231581Y-59016959D01*
X69147154Y-58914083D01*
X69117414Y-58877845D01*
X69053038Y-58757406D01*
X69032581Y-58719134D01*
X68996991Y-58601810D01*
X68980339Y-58546917D01*
X68962700Y-58367820D01*
X68980339Y-58188723D01*
X69032580Y-58016509D01*
X69032581Y-58016506D01*
X69117413Y-57857797D01*
X69117414Y-57857795D01*
X69147154Y-57821557D01*
X69231581Y-57718681D01*
X69334457Y-57634254D01*
X69370695Y-57604514D01*
X69386984Y-57595807D01*
X69529406Y-57519681D01*
X69529409Y-57519680D01*
X69701623Y-57467439D01*
X69768733Y-57460829D01*
X69835840Y-57454220D01*
X69925600Y-57454220D01*
X69992707Y-57460829D01*
X69992707Y-57460829D01*
G37*
G36*
X92852707Y-57460829D02*
G01*
X92919817Y-57467439D01*
X93092031Y-57519680D01*
X93092034Y-57519681D01*
X93234456Y-57595807D01*
X93250745Y-57604514D01*
X93286983Y-57634254D01*
X93389859Y-57718681D01*
X93474286Y-57821557D01*
X93504026Y-57857795D01*
X93504027Y-57857797D01*
X93588859Y-58016506D01*
X93588860Y-58016509D01*
X93641101Y-58188723D01*
X93658740Y-58367820D01*
X93641101Y-58546917D01*
X93624449Y-58601810D01*
X93588859Y-58719134D01*
X93568402Y-58757406D01*
X93504026Y-58877845D01*
X93474286Y-58914083D01*
X93389859Y-59016959D01*
X93286983Y-59101386D01*
X93250745Y-59131126D01*
X93250743Y-59131127D01*
X93092034Y-59215959D01*
X93092031Y-59215960D01*
X92919817Y-59268201D01*
X92852707Y-59274811D01*
X92785600Y-59281420D01*
X92695840Y-59281420D01*
X92628733Y-59274811D01*
X92561623Y-59268201D01*
X92389409Y-59215960D01*
X92389406Y-59215959D01*
X92230697Y-59131127D01*
X92230695Y-59131126D01*
X92194457Y-59101386D01*
X92091581Y-59016959D01*
X92007154Y-58914083D01*
X91977414Y-58877845D01*
X91913038Y-58757406D01*
X91892581Y-58719134D01*
X91856991Y-58601810D01*
X91840339Y-58546917D01*
X91822700Y-58367820D01*
X91840339Y-58188723D01*
X91892580Y-58016509D01*
X91892581Y-58016506D01*
X91977413Y-57857797D01*
X91977414Y-57857795D01*
X92007154Y-57821557D01*
X92091581Y-57718681D01*
X92194457Y-57634254D01*
X92230695Y-57604514D01*
X92246984Y-57595807D01*
X92389406Y-57519681D01*
X92389409Y-57519680D01*
X92561623Y-57467439D01*
X92628733Y-57460829D01*
X92695840Y-57454220D01*
X92785600Y-57454220D01*
X92852707Y-57460829D01*
X92852707Y-57460829D01*
G37*
G36*
X170094540Y-59131520D02*
G01*
X169254540Y-59131520D01*
X169254540Y-56631520D01*
X170094540Y-56631520D01*
X170094540Y-59131520D01*
X170094540Y-59131520D01*
G37*
G36*
X134534540Y-59131520D02*
G01*
X133694540Y-59131520D01*
X133694540Y-56631520D01*
X134534540Y-56631520D01*
X134534540Y-59131520D01*
X134534540Y-59131520D01*
G37*
G36*
X159934540Y-59131520D02*
G01*
X159094540Y-59131520D01*
X159094540Y-56631520D01*
X159934540Y-56631520D01*
X159934540Y-59131520D01*
X159934540Y-59131520D01*
G37*
G36*
X153584540Y-59131520D02*
G01*
X152744540Y-59131520D01*
X152744540Y-56631520D01*
X153584540Y-56631520D01*
X153584540Y-59131520D01*
X153584540Y-59131520D01*
G37*
G36*
X152314540Y-59131520D02*
G01*
X151474540Y-59131520D01*
X151474540Y-56631520D01*
X152314540Y-56631520D01*
X152314540Y-59131520D01*
X152314540Y-59131520D01*
G37*
G36*
X151044540Y-59131520D02*
G01*
X150204540Y-59131520D01*
X150204540Y-56631520D01*
X151044540Y-56631520D01*
X151044540Y-59131520D01*
X151044540Y-59131520D01*
G37*
G36*
X149774540Y-59131520D02*
G01*
X148934540Y-59131520D01*
X148934540Y-56631520D01*
X149774540Y-56631520D01*
X149774540Y-59131520D01*
X149774540Y-59131520D01*
G37*
G36*
X148504540Y-59131520D02*
G01*
X147664540Y-59131520D01*
X147664540Y-56631520D01*
X148504540Y-56631520D01*
X148504540Y-59131520D01*
X148504540Y-59131520D01*
G37*
G36*
X147234540Y-59131520D02*
G01*
X146394540Y-59131520D01*
X146394540Y-56631520D01*
X147234540Y-56631520D01*
X147234540Y-59131520D01*
X147234540Y-59131520D01*
G37*
G36*
X138344540Y-59131520D02*
G01*
X137504540Y-59131520D01*
X137504540Y-56631520D01*
X138344540Y-56631520D01*
X138344540Y-59131520D01*
X138344540Y-59131520D01*
G37*
G36*
X137074540Y-59131520D02*
G01*
X136234540Y-59131520D01*
X136234540Y-56631520D01*
X137074540Y-56631520D01*
X137074540Y-59131520D01*
X137074540Y-59131520D01*
G37*
G36*
X135804540Y-59131520D02*
G01*
X134964540Y-59131520D01*
X134964540Y-56631520D01*
X135804540Y-56631520D01*
X135804540Y-59131520D01*
X135804540Y-59131520D01*
G37*
G36*
X168824540Y-59131520D02*
G01*
X167984540Y-59131520D01*
X167984540Y-56631520D01*
X168824540Y-56631520D01*
X168824540Y-59131520D01*
X168824540Y-59131520D01*
G37*
G36*
X167554540Y-59131520D02*
G01*
X166714540Y-59131520D01*
X166714540Y-56631520D01*
X167554540Y-56631520D01*
X167554540Y-59131520D01*
X167554540Y-59131520D01*
G37*
G36*
X166284540Y-59131520D02*
G01*
X165444540Y-59131520D01*
X165444540Y-56631520D01*
X166284540Y-56631520D01*
X166284540Y-59131520D01*
X166284540Y-59131520D01*
G37*
G36*
X165014540Y-59131520D02*
G01*
X164174540Y-59131520D01*
X164174540Y-56631520D01*
X165014540Y-56631520D01*
X165014540Y-59131520D01*
X165014540Y-59131520D01*
G37*
G36*
X162474540Y-59131520D02*
G01*
X161634540Y-59131520D01*
X161634540Y-56631520D01*
X162474540Y-56631520D01*
X162474540Y-59131520D01*
X162474540Y-59131520D01*
G37*
G36*
X161204540Y-59131520D02*
G01*
X160364540Y-59131520D01*
X160364540Y-56631520D01*
X161204540Y-56631520D01*
X161204540Y-59131520D01*
X161204540Y-59131520D01*
G37*
G36*
X156124540Y-59131520D02*
G01*
X155284540Y-59131520D01*
X155284540Y-56631520D01*
X156124540Y-56631520D01*
X156124540Y-59131520D01*
X156124540Y-59131520D01*
G37*
G36*
X158664540Y-59131520D02*
G01*
X157824540Y-59131520D01*
X157824540Y-56631520D01*
X158664540Y-56631520D01*
X158664540Y-59131520D01*
X158664540Y-59131520D01*
G37*
G36*
X157394540Y-59131520D02*
G01*
X156554540Y-59131520D01*
X156554540Y-56631520D01*
X157394540Y-56631520D01*
X157394540Y-59131520D01*
X157394540Y-59131520D01*
G37*
G36*
X171364540Y-59131520D02*
G01*
X170524540Y-59131520D01*
X170524540Y-56631520D01*
X171364540Y-56631520D01*
X171364540Y-59131520D01*
X171364540Y-59131520D01*
G37*
G36*
X172634540Y-59131520D02*
G01*
X171794540Y-59131520D01*
X171794540Y-56631520D01*
X172634540Y-56631520D01*
X172634540Y-59131520D01*
X172634540Y-59131520D01*
G37*
G36*
X173904540Y-59131520D02*
G01*
X173064540Y-59131520D01*
X173064540Y-56631520D01*
X173904540Y-56631520D01*
X173904540Y-59131520D01*
X173904540Y-59131520D01*
G37*
G36*
X154854540Y-59131520D02*
G01*
X154014540Y-59131520D01*
X154014540Y-56631520D01*
X154854540Y-56631520D01*
X154854540Y-59131520D01*
X154854540Y-59131520D01*
G37*
G36*
X140884540Y-59131520D02*
G01*
X140044540Y-59131520D01*
X140044540Y-56631520D01*
X140884540Y-56631520D01*
X140884540Y-59131520D01*
X140884540Y-59131520D01*
G37*
G36*
X133264540Y-59131520D02*
G01*
X132424540Y-59131520D01*
X132424540Y-56631520D01*
X133264540Y-56631520D01*
X133264540Y-59131520D01*
X133264540Y-59131520D01*
G37*
G36*
X163744540Y-59131520D02*
G01*
X162904540Y-59131520D01*
X162904540Y-56631520D01*
X163744540Y-56631520D01*
X163744540Y-59131520D01*
X163744540Y-59131520D01*
G37*
G36*
X142154540Y-59131520D02*
G01*
X141314540Y-59131520D01*
X141314540Y-56631520D01*
X142154540Y-56631520D01*
X142154540Y-59131520D01*
X142154540Y-59131520D01*
G37*
G36*
X143424540Y-59131520D02*
G01*
X142584540Y-59131520D01*
X142584540Y-56631520D01*
X143424540Y-56631520D01*
X143424540Y-59131520D01*
X143424540Y-59131520D01*
G37*
G36*
X144694540Y-59131520D02*
G01*
X143854540Y-59131520D01*
X143854540Y-56631520D01*
X144694540Y-56631520D01*
X144694540Y-59131520D01*
X144694540Y-59131520D01*
G37*
G36*
X145964540Y-59131520D02*
G01*
X145124540Y-59131520D01*
X145124540Y-56631520D01*
X145964540Y-56631520D01*
X145964540Y-59131520D01*
X145964540Y-59131520D01*
G37*
G36*
X116754540Y-59131520D02*
G01*
X115914540Y-59131520D01*
X115914540Y-56631520D01*
X116754540Y-56631520D01*
X116754540Y-59131520D01*
X116754540Y-59131520D01*
G37*
G36*
X125644540Y-59131520D02*
G01*
X124804540Y-59131520D01*
X124804540Y-56631520D01*
X125644540Y-56631520D01*
X125644540Y-59131520D01*
X125644540Y-59131520D01*
G37*
G36*
X111674540Y-59131520D02*
G01*
X110834540Y-59131520D01*
X110834540Y-56631520D01*
X111674540Y-56631520D01*
X111674540Y-59131520D01*
X111674540Y-59131520D01*
G37*
G36*
X114214540Y-59131520D02*
G01*
X113374540Y-59131520D01*
X113374540Y-56631520D01*
X114214540Y-56631520D01*
X114214540Y-59131520D01*
X114214540Y-59131520D01*
G37*
G36*
X112944540Y-59131520D02*
G01*
X112104540Y-59131520D01*
X112104540Y-56631520D01*
X112944540Y-56631520D01*
X112944540Y-59131520D01*
X112944540Y-59131520D01*
G37*
G36*
X115484540Y-59131520D02*
G01*
X114644540Y-59131520D01*
X114644540Y-56631520D01*
X115484540Y-56631520D01*
X115484540Y-59131520D01*
X115484540Y-59131520D01*
G37*
G36*
X121834540Y-59131520D02*
G01*
X120994540Y-59131520D01*
X120994540Y-56631520D01*
X121834540Y-56631520D01*
X121834540Y-59131520D01*
X121834540Y-59131520D01*
G37*
G36*
X131994540Y-59131520D02*
G01*
X131154540Y-59131520D01*
X131154540Y-56631520D01*
X131994540Y-56631520D01*
X131994540Y-59131520D01*
X131994540Y-59131520D01*
G37*
G36*
X130724540Y-59131520D02*
G01*
X129884540Y-59131520D01*
X129884540Y-56631520D01*
X130724540Y-56631520D01*
X130724540Y-59131520D01*
X130724540Y-59131520D01*
G37*
G36*
X129454540Y-59131520D02*
G01*
X128614540Y-59131520D01*
X128614540Y-56631520D01*
X129454540Y-56631520D01*
X129454540Y-59131520D01*
X129454540Y-59131520D01*
G37*
G36*
X128184540Y-59131520D02*
G01*
X127344540Y-59131520D01*
X127344540Y-56631520D01*
X128184540Y-56631520D01*
X128184540Y-59131520D01*
X128184540Y-59131520D01*
G37*
G36*
X126914540Y-59131520D02*
G01*
X126074540Y-59131520D01*
X126074540Y-56631520D01*
X126914540Y-56631520D01*
X126914540Y-59131520D01*
X126914540Y-59131520D01*
G37*
G36*
X124374540Y-59131520D02*
G01*
X123534540Y-59131520D01*
X123534540Y-56631520D01*
X124374540Y-56631520D01*
X124374540Y-59131520D01*
X124374540Y-59131520D01*
G37*
G36*
X118024540Y-59131520D02*
G01*
X117184540Y-59131520D01*
X117184540Y-56631520D01*
X118024540Y-56631520D01*
X118024540Y-59131520D01*
X118024540Y-59131520D01*
G37*
G36*
X123104540Y-59131520D02*
G01*
X122264540Y-59131520D01*
X122264540Y-56631520D01*
X123104540Y-56631520D01*
X123104540Y-59131520D01*
X123104540Y-59131520D01*
G37*
G36*
X139614540Y-59131520D02*
G01*
X138774540Y-59131520D01*
X138774540Y-56631520D01*
X139614540Y-56631520D01*
X139614540Y-59131520D01*
X139614540Y-59131520D01*
G37*
G36*
X120564540Y-59131520D02*
G01*
X119724540Y-59131520D01*
X119724540Y-56631520D01*
X120564540Y-56631520D01*
X120564540Y-59131520D01*
X120564540Y-59131520D01*
G37*
G36*
X119294540Y-59131520D02*
G01*
X118454540Y-59131520D01*
X118454540Y-56631520D01*
X119294540Y-56631520D01*
X119294540Y-59131520D01*
X119294540Y-59131520D01*
G37*
G36*
X72532707Y-54920829D02*
G01*
X72599817Y-54927439D01*
X72772031Y-54979680D01*
X72772034Y-54979681D01*
X72914456Y-55055807D01*
X72930745Y-55064514D01*
X72966983Y-55094254D01*
X73069859Y-55178681D01*
X73154286Y-55281557D01*
X73184026Y-55317795D01*
X73184027Y-55317797D01*
X73268859Y-55476506D01*
X73268860Y-55476509D01*
X73321101Y-55648723D01*
X73338740Y-55827820D01*
X73321101Y-56006917D01*
X73268860Y-56179131D01*
X73268859Y-56179134D01*
X73192733Y-56321556D01*
X73184026Y-56337845D01*
X73154286Y-56374083D01*
X73069859Y-56476959D01*
X72966983Y-56561386D01*
X72930745Y-56591126D01*
X72930743Y-56591127D01*
X72772034Y-56675959D01*
X72772031Y-56675960D01*
X72599817Y-56728201D01*
X72532707Y-56734811D01*
X72465600Y-56741420D01*
X72375840Y-56741420D01*
X72308733Y-56734811D01*
X72241623Y-56728201D01*
X72069409Y-56675960D01*
X72069406Y-56675959D01*
X71910697Y-56591127D01*
X71910695Y-56591126D01*
X71874457Y-56561386D01*
X71771581Y-56476959D01*
X71687154Y-56374083D01*
X71657414Y-56337845D01*
X71648707Y-56321556D01*
X71572581Y-56179134D01*
X71572580Y-56179131D01*
X71520339Y-56006917D01*
X71502700Y-55827820D01*
X71520339Y-55648723D01*
X71572580Y-55476509D01*
X71572581Y-55476506D01*
X71657413Y-55317797D01*
X71657414Y-55317795D01*
X71687154Y-55281557D01*
X71771581Y-55178681D01*
X71874457Y-55094254D01*
X71910695Y-55064514D01*
X71926984Y-55055807D01*
X72069406Y-54979681D01*
X72069409Y-54979680D01*
X72241623Y-54927439D01*
X72308733Y-54920829D01*
X72375840Y-54914220D01*
X72465600Y-54914220D01*
X72532707Y-54920829D01*
X72532707Y-54920829D01*
G37*
G36*
X85232707Y-54920829D02*
G01*
X85299817Y-54927439D01*
X85472031Y-54979680D01*
X85472034Y-54979681D01*
X85614456Y-55055807D01*
X85630745Y-55064514D01*
X85666983Y-55094254D01*
X85769859Y-55178681D01*
X85854286Y-55281557D01*
X85884026Y-55317795D01*
X85884027Y-55317797D01*
X85968859Y-55476506D01*
X85968860Y-55476509D01*
X86021101Y-55648723D01*
X86038740Y-55827820D01*
X86021101Y-56006917D01*
X85968860Y-56179131D01*
X85968859Y-56179134D01*
X85892733Y-56321556D01*
X85884026Y-56337845D01*
X85854286Y-56374083D01*
X85769859Y-56476959D01*
X85666983Y-56561386D01*
X85630745Y-56591126D01*
X85630743Y-56591127D01*
X85472034Y-56675959D01*
X85472031Y-56675960D01*
X85299817Y-56728201D01*
X85232707Y-56734811D01*
X85165600Y-56741420D01*
X85075840Y-56741420D01*
X85008733Y-56734811D01*
X84941623Y-56728201D01*
X84769409Y-56675960D01*
X84769406Y-56675959D01*
X84610697Y-56591127D01*
X84610695Y-56591126D01*
X84574457Y-56561386D01*
X84471581Y-56476959D01*
X84387154Y-56374083D01*
X84357414Y-56337845D01*
X84348707Y-56321556D01*
X84272581Y-56179134D01*
X84272580Y-56179131D01*
X84220339Y-56006917D01*
X84202700Y-55827820D01*
X84220339Y-55648723D01*
X84272580Y-55476509D01*
X84272581Y-55476506D01*
X84357413Y-55317797D01*
X84357414Y-55317795D01*
X84387154Y-55281557D01*
X84471581Y-55178681D01*
X84574457Y-55094254D01*
X84610695Y-55064514D01*
X84626984Y-55055807D01*
X84769406Y-54979681D01*
X84769409Y-54979680D01*
X84941623Y-54927439D01*
X85008733Y-54920829D01*
X85075840Y-54914220D01*
X85165600Y-54914220D01*
X85232707Y-54920829D01*
X85232707Y-54920829D01*
G37*
G36*
X75072707Y-54920829D02*
G01*
X75139817Y-54927439D01*
X75312031Y-54979680D01*
X75312034Y-54979681D01*
X75454456Y-55055807D01*
X75470745Y-55064514D01*
X75506983Y-55094254D01*
X75609859Y-55178681D01*
X75694286Y-55281557D01*
X75724026Y-55317795D01*
X75724027Y-55317797D01*
X75808859Y-55476506D01*
X75808860Y-55476509D01*
X75861101Y-55648723D01*
X75878740Y-55827820D01*
X75861101Y-56006917D01*
X75808860Y-56179131D01*
X75808859Y-56179134D01*
X75732733Y-56321556D01*
X75724026Y-56337845D01*
X75694286Y-56374083D01*
X75609859Y-56476959D01*
X75506983Y-56561386D01*
X75470745Y-56591126D01*
X75470743Y-56591127D01*
X75312034Y-56675959D01*
X75312031Y-56675960D01*
X75139817Y-56728201D01*
X75072707Y-56734811D01*
X75005600Y-56741420D01*
X74915840Y-56741420D01*
X74848733Y-56734811D01*
X74781623Y-56728201D01*
X74609409Y-56675960D01*
X74609406Y-56675959D01*
X74450697Y-56591127D01*
X74450695Y-56591126D01*
X74414457Y-56561386D01*
X74311581Y-56476959D01*
X74227154Y-56374083D01*
X74197414Y-56337845D01*
X74188707Y-56321556D01*
X74112581Y-56179134D01*
X74112580Y-56179131D01*
X74060339Y-56006917D01*
X74042700Y-55827820D01*
X74060339Y-55648723D01*
X74112580Y-55476509D01*
X74112581Y-55476506D01*
X74197413Y-55317797D01*
X74197414Y-55317795D01*
X74227154Y-55281557D01*
X74311581Y-55178681D01*
X74414457Y-55094254D01*
X74450695Y-55064514D01*
X74466984Y-55055807D01*
X74609406Y-54979681D01*
X74609409Y-54979680D01*
X74781623Y-54927439D01*
X74848733Y-54920829D01*
X74915840Y-54914220D01*
X75005600Y-54914220D01*
X75072707Y-54920829D01*
X75072707Y-54920829D01*
G37*
G36*
X87772707Y-54920829D02*
G01*
X87839817Y-54927439D01*
X88012031Y-54979680D01*
X88012034Y-54979681D01*
X88154456Y-55055807D01*
X88170745Y-55064514D01*
X88206983Y-55094254D01*
X88309859Y-55178681D01*
X88394286Y-55281557D01*
X88424026Y-55317795D01*
X88424027Y-55317797D01*
X88508859Y-55476506D01*
X88508860Y-55476509D01*
X88561101Y-55648723D01*
X88578740Y-55827820D01*
X88561101Y-56006917D01*
X88508860Y-56179131D01*
X88508859Y-56179134D01*
X88432733Y-56321556D01*
X88424026Y-56337845D01*
X88394286Y-56374083D01*
X88309859Y-56476959D01*
X88206983Y-56561386D01*
X88170745Y-56591126D01*
X88170743Y-56591127D01*
X88012034Y-56675959D01*
X88012031Y-56675960D01*
X87839817Y-56728201D01*
X87772707Y-56734811D01*
X87705600Y-56741420D01*
X87615840Y-56741420D01*
X87548733Y-56734811D01*
X87481623Y-56728201D01*
X87309409Y-56675960D01*
X87309406Y-56675959D01*
X87150697Y-56591127D01*
X87150695Y-56591126D01*
X87114457Y-56561386D01*
X87011581Y-56476959D01*
X86927154Y-56374083D01*
X86897414Y-56337845D01*
X86888707Y-56321556D01*
X86812581Y-56179134D01*
X86812580Y-56179131D01*
X86760339Y-56006917D01*
X86742700Y-55827820D01*
X86760339Y-55648723D01*
X86812580Y-55476509D01*
X86812581Y-55476506D01*
X86897413Y-55317797D01*
X86897414Y-55317795D01*
X86927154Y-55281557D01*
X87011581Y-55178681D01*
X87114457Y-55094254D01*
X87150695Y-55064514D01*
X87166984Y-55055807D01*
X87309406Y-54979681D01*
X87309409Y-54979680D01*
X87481623Y-54927439D01*
X87548733Y-54920829D01*
X87615840Y-54914220D01*
X87705600Y-54914220D01*
X87772707Y-54920829D01*
X87772707Y-54920829D01*
G37*
G36*
X69992707Y-54920829D02*
G01*
X70059817Y-54927439D01*
X70232031Y-54979680D01*
X70232034Y-54979681D01*
X70374456Y-55055807D01*
X70390745Y-55064514D01*
X70426983Y-55094254D01*
X70529859Y-55178681D01*
X70614286Y-55281557D01*
X70644026Y-55317795D01*
X70644027Y-55317797D01*
X70728859Y-55476506D01*
X70728860Y-55476509D01*
X70781101Y-55648723D01*
X70798740Y-55827820D01*
X70781101Y-56006917D01*
X70728860Y-56179131D01*
X70728859Y-56179134D01*
X70652733Y-56321556D01*
X70644026Y-56337845D01*
X70614286Y-56374083D01*
X70529859Y-56476959D01*
X70426983Y-56561386D01*
X70390745Y-56591126D01*
X70390743Y-56591127D01*
X70232034Y-56675959D01*
X70232031Y-56675960D01*
X70059817Y-56728201D01*
X69992707Y-56734811D01*
X69925600Y-56741420D01*
X69835840Y-56741420D01*
X69768733Y-56734811D01*
X69701623Y-56728201D01*
X69529409Y-56675960D01*
X69529406Y-56675959D01*
X69370697Y-56591127D01*
X69370695Y-56591126D01*
X69334457Y-56561386D01*
X69231581Y-56476959D01*
X69147154Y-56374083D01*
X69117414Y-56337845D01*
X69108707Y-56321556D01*
X69032581Y-56179134D01*
X69032580Y-56179131D01*
X68980339Y-56006917D01*
X68962700Y-55827820D01*
X68980339Y-55648723D01*
X69032580Y-55476509D01*
X69032581Y-55476506D01*
X69117413Y-55317797D01*
X69117414Y-55317795D01*
X69147154Y-55281557D01*
X69231581Y-55178681D01*
X69334457Y-55094254D01*
X69370695Y-55064514D01*
X69386984Y-55055807D01*
X69529406Y-54979681D01*
X69529409Y-54979680D01*
X69701623Y-54927439D01*
X69768733Y-54920829D01*
X69835840Y-54914220D01*
X69925600Y-54914220D01*
X69992707Y-54920829D01*
X69992707Y-54920829D01*
G37*
G36*
X90312707Y-54920829D02*
G01*
X90379817Y-54927439D01*
X90552031Y-54979680D01*
X90552034Y-54979681D01*
X90694456Y-55055807D01*
X90710745Y-55064514D01*
X90746983Y-55094254D01*
X90849859Y-55178681D01*
X90934286Y-55281557D01*
X90964026Y-55317795D01*
X90964027Y-55317797D01*
X91048859Y-55476506D01*
X91048860Y-55476509D01*
X91101101Y-55648723D01*
X91118740Y-55827820D01*
X91101101Y-56006917D01*
X91048860Y-56179131D01*
X91048859Y-56179134D01*
X90972733Y-56321556D01*
X90964026Y-56337845D01*
X90934286Y-56374083D01*
X90849859Y-56476959D01*
X90746983Y-56561386D01*
X90710745Y-56591126D01*
X90710743Y-56591127D01*
X90552034Y-56675959D01*
X90552031Y-56675960D01*
X90379817Y-56728201D01*
X90312707Y-56734811D01*
X90245600Y-56741420D01*
X90155840Y-56741420D01*
X90088733Y-56734811D01*
X90021623Y-56728201D01*
X89849409Y-56675960D01*
X89849406Y-56675959D01*
X89690697Y-56591127D01*
X89690695Y-56591126D01*
X89654457Y-56561386D01*
X89551581Y-56476959D01*
X89467154Y-56374083D01*
X89437414Y-56337845D01*
X89428707Y-56321556D01*
X89352581Y-56179134D01*
X89352580Y-56179131D01*
X89300339Y-56006917D01*
X89282700Y-55827820D01*
X89300339Y-55648723D01*
X89352580Y-55476509D01*
X89352581Y-55476506D01*
X89437413Y-55317797D01*
X89437414Y-55317795D01*
X89467154Y-55281557D01*
X89551581Y-55178681D01*
X89654457Y-55094254D01*
X89690695Y-55064514D01*
X89706984Y-55055807D01*
X89849406Y-54979681D01*
X89849409Y-54979680D01*
X90021623Y-54927439D01*
X90088733Y-54920829D01*
X90155840Y-54914220D01*
X90245600Y-54914220D01*
X90312707Y-54920829D01*
X90312707Y-54920829D01*
G37*
G36*
X93654320Y-56741420D02*
G01*
X91827120Y-56741420D01*
X91827120Y-54914220D01*
X93654320Y-54914220D01*
X93654320Y-56741420D01*
X93654320Y-56741420D01*
G37*
G36*
X82692707Y-54920829D02*
G01*
X82759817Y-54927439D01*
X82932031Y-54979680D01*
X82932034Y-54979681D01*
X83074456Y-55055807D01*
X83090745Y-55064514D01*
X83126983Y-55094254D01*
X83229859Y-55178681D01*
X83314286Y-55281557D01*
X83344026Y-55317795D01*
X83344027Y-55317797D01*
X83428859Y-55476506D01*
X83428860Y-55476509D01*
X83481101Y-55648723D01*
X83498740Y-55827820D01*
X83481101Y-56006917D01*
X83428860Y-56179131D01*
X83428859Y-56179134D01*
X83352733Y-56321556D01*
X83344026Y-56337845D01*
X83314286Y-56374083D01*
X83229859Y-56476959D01*
X83126983Y-56561386D01*
X83090745Y-56591126D01*
X83090743Y-56591127D01*
X82932034Y-56675959D01*
X82932031Y-56675960D01*
X82759817Y-56728201D01*
X82692707Y-56734811D01*
X82625600Y-56741420D01*
X82535840Y-56741420D01*
X82468733Y-56734811D01*
X82401623Y-56728201D01*
X82229409Y-56675960D01*
X82229406Y-56675959D01*
X82070697Y-56591127D01*
X82070695Y-56591126D01*
X82034457Y-56561386D01*
X81931581Y-56476959D01*
X81847154Y-56374083D01*
X81817414Y-56337845D01*
X81808707Y-56321556D01*
X81732581Y-56179134D01*
X81732580Y-56179131D01*
X81680339Y-56006917D01*
X81662700Y-55827820D01*
X81680339Y-55648723D01*
X81732580Y-55476509D01*
X81732581Y-55476506D01*
X81817413Y-55317797D01*
X81817414Y-55317795D01*
X81847154Y-55281557D01*
X81931581Y-55178681D01*
X82034457Y-55094254D01*
X82070695Y-55064514D01*
X82086984Y-55055807D01*
X82229406Y-54979681D01*
X82229409Y-54979680D01*
X82401623Y-54927439D01*
X82468733Y-54920829D01*
X82535840Y-54914220D01*
X82625600Y-54914220D01*
X82692707Y-54920829D01*
X82692707Y-54920829D01*
G37*
G36*
X77612707Y-54920829D02*
G01*
X77679817Y-54927439D01*
X77852031Y-54979680D01*
X77852034Y-54979681D01*
X77994456Y-55055807D01*
X78010745Y-55064514D01*
X78046983Y-55094254D01*
X78149859Y-55178681D01*
X78234286Y-55281557D01*
X78264026Y-55317795D01*
X78264027Y-55317797D01*
X78348859Y-55476506D01*
X78348860Y-55476509D01*
X78401101Y-55648723D01*
X78418740Y-55827820D01*
X78401101Y-56006917D01*
X78348860Y-56179131D01*
X78348859Y-56179134D01*
X78272733Y-56321556D01*
X78264026Y-56337845D01*
X78234286Y-56374083D01*
X78149859Y-56476959D01*
X78046983Y-56561386D01*
X78010745Y-56591126D01*
X78010743Y-56591127D01*
X77852034Y-56675959D01*
X77852031Y-56675960D01*
X77679817Y-56728201D01*
X77612707Y-56734811D01*
X77545600Y-56741420D01*
X77455840Y-56741420D01*
X77388733Y-56734811D01*
X77321623Y-56728201D01*
X77149409Y-56675960D01*
X77149406Y-56675959D01*
X76990697Y-56591127D01*
X76990695Y-56591126D01*
X76954457Y-56561386D01*
X76851581Y-56476959D01*
X76767154Y-56374083D01*
X76737414Y-56337845D01*
X76728707Y-56321556D01*
X76652581Y-56179134D01*
X76652580Y-56179131D01*
X76600339Y-56006917D01*
X76582700Y-55827820D01*
X76600339Y-55648723D01*
X76652580Y-55476509D01*
X76652581Y-55476506D01*
X76737413Y-55317797D01*
X76737414Y-55317795D01*
X76767154Y-55281557D01*
X76851581Y-55178681D01*
X76954457Y-55094254D01*
X76990695Y-55064514D01*
X77006984Y-55055807D01*
X77149406Y-54979681D01*
X77149409Y-54979680D01*
X77321623Y-54927439D01*
X77388733Y-54920829D01*
X77455840Y-54914220D01*
X77545600Y-54914220D01*
X77612707Y-54920829D01*
X77612707Y-54920829D01*
G37*
G36*
X80152707Y-54920829D02*
G01*
X80219817Y-54927439D01*
X80392031Y-54979680D01*
X80392034Y-54979681D01*
X80534456Y-55055807D01*
X80550745Y-55064514D01*
X80586983Y-55094254D01*
X80689859Y-55178681D01*
X80774286Y-55281557D01*
X80804026Y-55317795D01*
X80804027Y-55317797D01*
X80888859Y-55476506D01*
X80888860Y-55476509D01*
X80941101Y-55648723D01*
X80958740Y-55827820D01*
X80941101Y-56006917D01*
X80888860Y-56179131D01*
X80888859Y-56179134D01*
X80812733Y-56321556D01*
X80804026Y-56337845D01*
X80774286Y-56374083D01*
X80689859Y-56476959D01*
X80586983Y-56561386D01*
X80550745Y-56591126D01*
X80550743Y-56591127D01*
X80392034Y-56675959D01*
X80392031Y-56675960D01*
X80219817Y-56728201D01*
X80152707Y-56734811D01*
X80085600Y-56741420D01*
X79995840Y-56741420D01*
X79928733Y-56734811D01*
X79861623Y-56728201D01*
X79689409Y-56675960D01*
X79689406Y-56675959D01*
X79530697Y-56591127D01*
X79530695Y-56591126D01*
X79494457Y-56561386D01*
X79391581Y-56476959D01*
X79307154Y-56374083D01*
X79277414Y-56337845D01*
X79268707Y-56321556D01*
X79192581Y-56179134D01*
X79192580Y-56179131D01*
X79140339Y-56006917D01*
X79122700Y-55827820D01*
X79140339Y-55648723D01*
X79192580Y-55476509D01*
X79192581Y-55476506D01*
X79277413Y-55317797D01*
X79277414Y-55317795D01*
X79307154Y-55281557D01*
X79391581Y-55178681D01*
X79494457Y-55094254D01*
X79530695Y-55064514D01*
X79546984Y-55055807D01*
X79689406Y-54979681D01*
X79689409Y-54979680D01*
X79861623Y-54927439D01*
X79928733Y-54920829D01*
X79995840Y-54914220D01*
X80085600Y-54914220D01*
X80152707Y-54920829D01*
X80152707Y-54920829D01*
G37*
G36*
X207181722Y-51627420D02*
G01*
X207309113Y-51680187D01*
X207366050Y-51718231D01*
X207423764Y-51756794D01*
X207521266Y-51854296D01*
X207521267Y-51854298D01*
X207597873Y-51968947D01*
X207650640Y-52096338D01*
X207677540Y-52231575D01*
X207677540Y-52369465D01*
X207650640Y-52504702D01*
X207597873Y-52632093D01*
X207597872Y-52632094D01*
X207521266Y-52746744D01*
X207423764Y-52844246D01*
X207366050Y-52882809D01*
X207309113Y-52920853D01*
X207181722Y-52973620D01*
X207046485Y-53000520D01*
X206908595Y-53000520D01*
X206773358Y-52973620D01*
X206645967Y-52920853D01*
X206589030Y-52882809D01*
X206531316Y-52844246D01*
X206433814Y-52746744D01*
X206357208Y-52632094D01*
X206357207Y-52632093D01*
X206304440Y-52504702D01*
X206277540Y-52369465D01*
X206277540Y-52231575D01*
X206304440Y-52096338D01*
X206357207Y-51968947D01*
X206433813Y-51854298D01*
X206433814Y-51854296D01*
X206531316Y-51756794D01*
X206589030Y-51718231D01*
X206645967Y-51680187D01*
X206773358Y-51627420D01*
X206908595Y-51600520D01*
X207046485Y-51600520D01*
X207181722Y-51627420D01*
X207181722Y-51627420D01*
G37*
G36*
X212677540Y-53000520D02*
G01*
X211277540Y-53000520D01*
X211277540Y-51600520D01*
X212677540Y-51600520D01*
X212677540Y-53000520D01*
X212677540Y-53000520D01*
G37*
G36*
X219507540Y-52840520D02*
G01*
X218107540Y-52840520D01*
X218107540Y-51440520D01*
X219507540Y-51440520D01*
X219507540Y-52840520D01*
X219507540Y-52840520D01*
G37*
G36*
X224011722Y-51467420D02*
G01*
X224139113Y-51520187D01*
X224139114Y-51520188D01*
X224253764Y-51596794D01*
X224351266Y-51694296D01*
X224351267Y-51694298D01*
X224427873Y-51808947D01*
X224480640Y-51936338D01*
X224507540Y-52071575D01*
X224507540Y-52209465D01*
X224480640Y-52344702D01*
X224427873Y-52472093D01*
X224427872Y-52472094D01*
X224351266Y-52586744D01*
X224253764Y-52684246D01*
X224196050Y-52722809D01*
X224139113Y-52760853D01*
X224011722Y-52813620D01*
X223876485Y-52840520D01*
X223738595Y-52840520D01*
X223603358Y-52813620D01*
X223475967Y-52760853D01*
X223419030Y-52722809D01*
X223361316Y-52684246D01*
X223263814Y-52586744D01*
X223187208Y-52472094D01*
X223187207Y-52472093D01*
X223134440Y-52344702D01*
X223107540Y-52209465D01*
X223107540Y-52071575D01*
X223134440Y-51936338D01*
X223187207Y-51808947D01*
X223263813Y-51694298D01*
X223263814Y-51694296D01*
X223361316Y-51596794D01*
X223475966Y-51520188D01*
X223475967Y-51520187D01*
X223603358Y-51467420D01*
X223738595Y-51440520D01*
X223876485Y-51440520D01*
X224011722Y-51467420D01*
X224011722Y-51467420D01*
G37*
G36*
X83075400Y-51748400D02*
G01*
X82075400Y-51748400D01*
X82075400Y-51148400D01*
X83075400Y-51148400D01*
X83075400Y-51748400D01*
X83075400Y-51748400D01*
G37*
G36*
X85615400Y-51748400D02*
G01*
X84615400Y-51748400D01*
X84615400Y-51148400D01*
X85615400Y-51148400D01*
X85615400Y-51748400D01*
X85615400Y-51748400D01*
G37*
G36*
X180434800Y-51238000D02*
G01*
X179584800Y-51238000D01*
X179584800Y-50338000D01*
X180434800Y-50338000D01*
X180434800Y-51238000D01*
X180434800Y-51238000D01*
G37*
G36*
X182238200Y-51238000D02*
G01*
X181388200Y-51238000D01*
X181388200Y-50338000D01*
X182238200Y-50338000D01*
X182238200Y-51238000D01*
X182238200Y-51238000D01*
G37*
G36*
X178754400Y-51232400D02*
G01*
X177404400Y-51232400D01*
X177404400Y-50132400D01*
X178754400Y-50132400D01*
X178754400Y-51232400D01*
X178754400Y-51232400D01*
G37*
G36*
X184418600Y-51232400D02*
G01*
X183068600Y-51232400D01*
X183068600Y-50132400D01*
X184418600Y-50132400D01*
X184418600Y-51232400D01*
X184418600Y-51232400D01*
G37*
G36*
X85615400Y-50248400D02*
G01*
X84615400Y-50248400D01*
X84615400Y-49648400D01*
X85615400Y-49648400D01*
X85615400Y-50248400D01*
X85615400Y-50248400D01*
G37*
G36*
X83075400Y-50248400D02*
G01*
X82075400Y-50248400D01*
X82075400Y-49648400D01*
X83075400Y-49648400D01*
X83075400Y-50248400D01*
X83075400Y-50248400D01*
G37*
G36*
X182238200Y-49738000D02*
G01*
X181388200Y-49738000D01*
X181388200Y-48838000D01*
X182238200Y-48838000D01*
X182238200Y-49738000D01*
X182238200Y-49738000D01*
G37*
G36*
X180434800Y-49738000D02*
G01*
X179584800Y-49738000D01*
X179584800Y-48838000D01*
X180434800Y-48838000D01*
X180434800Y-49738000D01*
X180434800Y-49738000D01*
G37*
G36*
X178754400Y-49232400D02*
G01*
X177404400Y-49232400D01*
X177404400Y-48132400D01*
X178754400Y-48132400D01*
X178754400Y-49232400D01*
X178754400Y-49232400D01*
G37*
G36*
X184418600Y-49232400D02*
G01*
X183068600Y-49232400D01*
X183068600Y-48132400D01*
X184418600Y-48132400D01*
X184418600Y-49232400D01*
X184418600Y-49232400D01*
G37*
G36*
X82754496Y-44387819D02*
G01*
X82881901Y-44426467D01*
X82926714Y-44440061D01*
X83085423Y-44524893D01*
X83224539Y-44639061D01*
X83308966Y-44741937D01*
X83338706Y-44778175D01*
X83338707Y-44778177D01*
X83423539Y-44936886D01*
X83423540Y-44936889D01*
X83475781Y-45109103D01*
X83489000Y-45243322D01*
X83489000Y-45637877D01*
X83475781Y-45772096D01*
X83423540Y-45944311D01*
X83423539Y-45944314D01*
X83347413Y-46086736D01*
X83338706Y-46103025D01*
X83308966Y-46139263D01*
X83224539Y-46242139D01*
X83121663Y-46326566D01*
X83085425Y-46356306D01*
X83085423Y-46356307D01*
X82926714Y-46441139D01*
X82926711Y-46441140D01*
X82754497Y-46493381D01*
X82575400Y-46511020D01*
X82396304Y-46493381D01*
X82224090Y-46441140D01*
X82224087Y-46441139D01*
X82065378Y-46356307D01*
X82065376Y-46356306D01*
X82004351Y-46306224D01*
X81926262Y-46242138D01*
X81856706Y-46157383D01*
X81812094Y-46103025D01*
X81803387Y-46086736D01*
X81727261Y-45944314D01*
X81727260Y-45944311D01*
X81675019Y-45772097D01*
X81661800Y-45637878D01*
X81661800Y-45243323D01*
X81675019Y-45109104D01*
X81727260Y-44936890D01*
X81727261Y-44936886D01*
X81812093Y-44778177D01*
X81926261Y-44639061D01*
X82029137Y-44554634D01*
X82065375Y-44524894D01*
X82081664Y-44516187D01*
X82224086Y-44440061D01*
X82224089Y-44440060D01*
X82396303Y-44387819D01*
X82575400Y-44370180D01*
X82754496Y-44387819D01*
X82754496Y-44387819D01*
G37*
G36*
X80214496Y-44387819D02*
G01*
X80341901Y-44426467D01*
X80386714Y-44440061D01*
X80545423Y-44524893D01*
X80684539Y-44639061D01*
X80768966Y-44741937D01*
X80798706Y-44778175D01*
X80798707Y-44778177D01*
X80883539Y-44936886D01*
X80883540Y-44936889D01*
X80935781Y-45109103D01*
X80949000Y-45243322D01*
X80949000Y-45637877D01*
X80935781Y-45772096D01*
X80883540Y-45944311D01*
X80883539Y-45944314D01*
X80807413Y-46086736D01*
X80798706Y-46103025D01*
X80768966Y-46139263D01*
X80684539Y-46242139D01*
X80581663Y-46326566D01*
X80545425Y-46356306D01*
X80545423Y-46356307D01*
X80386714Y-46441139D01*
X80386711Y-46441140D01*
X80214497Y-46493381D01*
X80035400Y-46511020D01*
X79856304Y-46493381D01*
X79684090Y-46441140D01*
X79684087Y-46441139D01*
X79525378Y-46356307D01*
X79525376Y-46356306D01*
X79464351Y-46306224D01*
X79386262Y-46242138D01*
X79316706Y-46157383D01*
X79272094Y-46103025D01*
X79263387Y-46086736D01*
X79187261Y-45944314D01*
X79187260Y-45944311D01*
X79135019Y-45772097D01*
X79121800Y-45637878D01*
X79121800Y-45243323D01*
X79135019Y-45109104D01*
X79187260Y-44936890D01*
X79187261Y-44936886D01*
X79272093Y-44778177D01*
X79386261Y-44639061D01*
X79489137Y-44554634D01*
X79525375Y-44524894D01*
X79541664Y-44516187D01*
X79684086Y-44440061D01*
X79684089Y-44440060D01*
X79856303Y-44387819D01*
X80035400Y-44370180D01*
X80214496Y-44387819D01*
X80214496Y-44387819D01*
G37*
G36*
X86029000Y-46506600D02*
G01*
X84201800Y-46506600D01*
X84201800Y-44374600D01*
X86029000Y-44374600D01*
X86029000Y-46506600D01*
X86029000Y-46506600D01*
G37*
G36*
X210571640Y-45581320D02*
G01*
X209371640Y-45581320D01*
X209371640Y-44381320D01*
X210571640Y-44381320D01*
X210571640Y-45581320D01*
X210571640Y-45581320D01*
G37*
G36*
X205263040Y-45546220D02*
G01*
X204063040Y-45546220D01*
X204063040Y-44346220D01*
X205263040Y-44346220D01*
X205263040Y-45546220D01*
X205263040Y-45546220D01*
G37*
G36*
X210571640Y-42781320D02*
G01*
X209371640Y-42781320D01*
X209371640Y-41581320D01*
X210571640Y-41581320D01*
X210571640Y-42781320D01*
X210571640Y-42781320D01*
G37*
G36*
X205263040Y-42746220D02*
G01*
X204063040Y-42746220D01*
X204063040Y-41546220D01*
X205263040Y-41546220D01*
X205263040Y-42746220D01*
X205263040Y-42746220D01*
G37*
G36*
X203748000Y-39121200D02*
G01*
X201348000Y-39121200D01*
X201348000Y-33421200D01*
X203748000Y-33421200D01*
X203748000Y-39121200D01*
X203748000Y-39121200D01*
G37*
G36*
X211148000Y-39121200D02*
G01*
X208748000Y-39121200D01*
X208748000Y-33421200D01*
X211148000Y-33421200D01*
X211148000Y-39121200D01*
X211148000Y-39121200D01*
G37*
G36*
X161033907Y-36555076D02*
G01*
X161072488Y-36566779D01*
X161108041Y-36585783D01*
X161139203Y-36611357D01*
X161164777Y-36642519D01*
X161183781Y-36678072D01*
X161195484Y-36716653D01*
X161200040Y-36762910D01*
X161200040Y-37838130D01*
X161195484Y-37884387D01*
X161183781Y-37922968D01*
X161164777Y-37958521D01*
X161139203Y-37989683D01*
X161108041Y-38015257D01*
X161072488Y-38034261D01*
X161033907Y-38045964D01*
X160987650Y-38050520D01*
X160337430Y-38050520D01*
X160291173Y-38045964D01*
X160252592Y-38034261D01*
X160217039Y-38015257D01*
X160185877Y-37989683D01*
X160160303Y-37958521D01*
X160141299Y-37922968D01*
X160129596Y-37884387D01*
X160125040Y-37838130D01*
X160125040Y-36762910D01*
X160129596Y-36716653D01*
X160141299Y-36678072D01*
X160160303Y-36642519D01*
X160185877Y-36611357D01*
X160217039Y-36585783D01*
X160252592Y-36566779D01*
X160291173Y-36555076D01*
X160337430Y-36550520D01*
X160987650Y-36550520D01*
X161033907Y-36555076D01*
X161033907Y-36555076D01*
G37*
G36*
X162908907Y-36555076D02*
G01*
X162947488Y-36566779D01*
X162983041Y-36585783D01*
X163014203Y-36611357D01*
X163039777Y-36642519D01*
X163058781Y-36678072D01*
X163070484Y-36716653D01*
X163075040Y-36762910D01*
X163075040Y-37838130D01*
X163070484Y-37884387D01*
X163058781Y-37922968D01*
X163039777Y-37958521D01*
X163014203Y-37989683D01*
X162983041Y-38015257D01*
X162947488Y-38034261D01*
X162908907Y-38045964D01*
X162862650Y-38050520D01*
X162212430Y-38050520D01*
X162166173Y-38045964D01*
X162127592Y-38034261D01*
X162092039Y-38015257D01*
X162060877Y-37989683D01*
X162035303Y-37958521D01*
X162016299Y-37922968D01*
X162004596Y-37884387D01*
X162000040Y-37838130D01*
X162000040Y-36762910D01*
X162004596Y-36716653D01*
X162016299Y-36678072D01*
X162035303Y-36642519D01*
X162060877Y-36611357D01*
X162092039Y-36585783D01*
X162127592Y-36566779D01*
X162166173Y-36555076D01*
X162212430Y-36550520D01*
X162862650Y-36550520D01*
X162908907Y-36555076D01*
X162908907Y-36555076D01*
G37*
G36*
X159393907Y-35275076D02*
G01*
X159432488Y-35286779D01*
X159468041Y-35305783D01*
X159499203Y-35331357D01*
X159524777Y-35362519D01*
X159543781Y-35398072D01*
X159555484Y-35436653D01*
X159560040Y-35482910D01*
X159560040Y-36558130D01*
X159555484Y-36604387D01*
X159543781Y-36642968D01*
X159524777Y-36678521D01*
X159499203Y-36709683D01*
X159468041Y-36735257D01*
X159432488Y-36754261D01*
X159393907Y-36765964D01*
X159347650Y-36770520D01*
X158697430Y-36770520D01*
X158651173Y-36765964D01*
X158612592Y-36754261D01*
X158577039Y-36735257D01*
X158545877Y-36709683D01*
X158520303Y-36678521D01*
X158501299Y-36642968D01*
X158489596Y-36604387D01*
X158485040Y-36558130D01*
X158485040Y-35482910D01*
X158489596Y-35436653D01*
X158501299Y-35398072D01*
X158520303Y-35362519D01*
X158545877Y-35331357D01*
X158577039Y-35305783D01*
X158612592Y-35286779D01*
X158651173Y-35275076D01*
X158697430Y-35270520D01*
X159347650Y-35270520D01*
X159393907Y-35275076D01*
X159393907Y-35275076D01*
G37*
G36*
X157518907Y-35275076D02*
G01*
X157557488Y-35286779D01*
X157593041Y-35305783D01*
X157624203Y-35331357D01*
X157649777Y-35362519D01*
X157668781Y-35398072D01*
X157680484Y-35436653D01*
X157685040Y-35482910D01*
X157685040Y-36558130D01*
X157680484Y-36604387D01*
X157668781Y-36642968D01*
X157649777Y-36678521D01*
X157624203Y-36709683D01*
X157593041Y-36735257D01*
X157557488Y-36754261D01*
X157518907Y-36765964D01*
X157472650Y-36770520D01*
X156822430Y-36770520D01*
X156776173Y-36765964D01*
X156737592Y-36754261D01*
X156702039Y-36735257D01*
X156670877Y-36709683D01*
X156645303Y-36678521D01*
X156626299Y-36642968D01*
X156614596Y-36604387D01*
X156610040Y-36558130D01*
X156610040Y-35482910D01*
X156614596Y-35436653D01*
X156626299Y-35398072D01*
X156645303Y-35362519D01*
X156670877Y-35331357D01*
X156702039Y-35305783D01*
X156737592Y-35286779D01*
X156776173Y-35275076D01*
X156822430Y-35270520D01*
X157472650Y-35270520D01*
X157518907Y-35275076D01*
X157518907Y-35275076D01*
G37*
G36*
X168137540Y-36180520D02*
G01*
X165237540Y-36180520D01*
X165237540Y-35080520D01*
X168137540Y-35080520D01*
X168137540Y-36180520D01*
X168137540Y-36180520D01*
G37*
G36*
X171737540Y-36100520D02*
G01*
X168837540Y-36100520D01*
X168837540Y-34800520D01*
X171737540Y-34800520D01*
X171737540Y-36100520D01*
X171737540Y-36100520D01*
G37*
G36*
X160983907Y-33925076D02*
G01*
X161022488Y-33936779D01*
X161058041Y-33955783D01*
X161089203Y-33981357D01*
X161114777Y-34012519D01*
X161133781Y-34048072D01*
X161145484Y-34086653D01*
X161150040Y-34132910D01*
X161150040Y-35208130D01*
X161145484Y-35254387D01*
X161133781Y-35292968D01*
X161114777Y-35328521D01*
X161089203Y-35359683D01*
X161058041Y-35385257D01*
X161022488Y-35404261D01*
X160983907Y-35415964D01*
X160937650Y-35420520D01*
X160287430Y-35420520D01*
X160241173Y-35415964D01*
X160202592Y-35404261D01*
X160167039Y-35385257D01*
X160135877Y-35359683D01*
X160110303Y-35328521D01*
X160091299Y-35292968D01*
X160079596Y-35254387D01*
X160075040Y-35208130D01*
X160075040Y-34132910D01*
X160079596Y-34086653D01*
X160091299Y-34048072D01*
X160110303Y-34012519D01*
X160135877Y-33981357D01*
X160167039Y-33955783D01*
X160202592Y-33936779D01*
X160241173Y-33925076D01*
X160287430Y-33920520D01*
X160937650Y-33920520D01*
X160983907Y-33925076D01*
X160983907Y-33925076D01*
G37*
G36*
X162858907Y-33925076D02*
G01*
X162897488Y-33936779D01*
X162933041Y-33955783D01*
X162964203Y-33981357D01*
X162989777Y-34012519D01*
X163008781Y-34048072D01*
X163020484Y-34086653D01*
X163025040Y-34132910D01*
X163025040Y-35208130D01*
X163020484Y-35254387D01*
X163008781Y-35292968D01*
X162989777Y-35328521D01*
X162964203Y-35359683D01*
X162933041Y-35385257D01*
X162897488Y-35404261D01*
X162858907Y-35415964D01*
X162812650Y-35420520D01*
X162162430Y-35420520D01*
X162116173Y-35415964D01*
X162077592Y-35404261D01*
X162042039Y-35385257D01*
X162010877Y-35359683D01*
X161985303Y-35328521D01*
X161966299Y-35292968D01*
X161954596Y-35254387D01*
X161950040Y-35208130D01*
X161950040Y-34132910D01*
X161954596Y-34086653D01*
X161966299Y-34048072D01*
X161985303Y-34012519D01*
X162010877Y-33981357D01*
X162042039Y-33955783D01*
X162077592Y-33936779D01*
X162116173Y-33925076D01*
X162162430Y-33920520D01*
X162812650Y-33920520D01*
X162858907Y-33925076D01*
X162858907Y-33925076D01*
G37*
G36*
X159386531Y-33827095D02*
G01*
X159420419Y-33837375D01*
X159451652Y-33854070D01*
X159479026Y-33876534D01*
X159501490Y-33903908D01*
X159518185Y-33935141D01*
X159528465Y-33969029D01*
X159532540Y-34010408D01*
X159532540Y-34610632D01*
X159528465Y-34652011D01*
X159518185Y-34685899D01*
X159501490Y-34717132D01*
X159479026Y-34744506D01*
X159451652Y-34766970D01*
X159420419Y-34783665D01*
X159386531Y-34793945D01*
X159345152Y-34798020D01*
X158669928Y-34798020D01*
X158628549Y-34793945D01*
X158594661Y-34783665D01*
X158563428Y-34766970D01*
X158536054Y-34744506D01*
X158513590Y-34717132D01*
X158496895Y-34685899D01*
X158486615Y-34652011D01*
X158482540Y-34610632D01*
X158482540Y-34010408D01*
X158486615Y-33969029D01*
X158496895Y-33935141D01*
X158513590Y-33903908D01*
X158536054Y-33876534D01*
X158563428Y-33854070D01*
X158594661Y-33837375D01*
X158628549Y-33827095D01*
X158669928Y-33823020D01*
X159345152Y-33823020D01*
X159386531Y-33827095D01*
X159386531Y-33827095D01*
G37*
G36*
X168137540Y-34280520D02*
G01*
X165237540Y-34280520D01*
X165237540Y-33180520D01*
X168137540Y-33180520D01*
X168137540Y-34280520D01*
X168137540Y-34280520D01*
G37*
G36*
X171737540Y-34280520D02*
G01*
X168837540Y-34280520D01*
X168837540Y-33180520D01*
X171737540Y-33180520D01*
X171737540Y-34280520D01*
X171737540Y-34280520D01*
G37*
G36*
X162589031Y-32219595D02*
G01*
X162622919Y-32229875D01*
X162654152Y-32246570D01*
X162681526Y-32269034D01*
X162703990Y-32296408D01*
X162720685Y-32327641D01*
X162730965Y-32361529D01*
X162735040Y-32402908D01*
X162735040Y-33078132D01*
X162730965Y-33119511D01*
X162720685Y-33153399D01*
X162703990Y-33184632D01*
X162681526Y-33212006D01*
X162654152Y-33234470D01*
X162622919Y-33251165D01*
X162589031Y-33261445D01*
X162547652Y-33265520D01*
X161947428Y-33265520D01*
X161906049Y-33261445D01*
X161872161Y-33251165D01*
X161840928Y-33234470D01*
X161813554Y-33212006D01*
X161791090Y-33184632D01*
X161774395Y-33153399D01*
X161764115Y-33119511D01*
X161760040Y-33078132D01*
X161760040Y-32402908D01*
X161764115Y-32361529D01*
X161774395Y-32327641D01*
X161791090Y-32296408D01*
X161813554Y-32269034D01*
X161840928Y-32246570D01*
X161872161Y-32229875D01*
X161906049Y-32219595D01*
X161947428Y-32215520D01*
X162547652Y-32215520D01*
X162589031Y-32219595D01*
X162589031Y-32219595D01*
G37*
G36*
X161014031Y-32219595D02*
G01*
X161047919Y-32229875D01*
X161079152Y-32246570D01*
X161106526Y-32269034D01*
X161128990Y-32296408D01*
X161145685Y-32327641D01*
X161155965Y-32361529D01*
X161160040Y-32402908D01*
X161160040Y-33078132D01*
X161155965Y-33119511D01*
X161145685Y-33153399D01*
X161128990Y-33184632D01*
X161106526Y-33212006D01*
X161079152Y-33234470D01*
X161047919Y-33251165D01*
X161014031Y-33261445D01*
X160972652Y-33265520D01*
X160372428Y-33265520D01*
X160331049Y-33261445D01*
X160297161Y-33251165D01*
X160265928Y-33234470D01*
X160238554Y-33212006D01*
X160216090Y-33184632D01*
X160199395Y-33153399D01*
X160189115Y-33119511D01*
X160185040Y-33078132D01*
X160185040Y-32402908D01*
X160189115Y-32361529D01*
X160199395Y-32327641D01*
X160216090Y-32296408D01*
X160238554Y-32269034D01*
X160265928Y-32246570D01*
X160297161Y-32229875D01*
X160331049Y-32219595D01*
X160372428Y-32215520D01*
X160972652Y-32215520D01*
X161014031Y-32219595D01*
X161014031Y-32219595D01*
G37*
G36*
X159386531Y-32252095D02*
G01*
X159420419Y-32262375D01*
X159451652Y-32279070D01*
X159479026Y-32301534D01*
X159501490Y-32328908D01*
X159518185Y-32360141D01*
X159528465Y-32394029D01*
X159532540Y-32435408D01*
X159532540Y-33035632D01*
X159528465Y-33077011D01*
X159518185Y-33110899D01*
X159501490Y-33142132D01*
X159479026Y-33169506D01*
X159451652Y-33191970D01*
X159420419Y-33208665D01*
X159386531Y-33218945D01*
X159345152Y-33223020D01*
X158669928Y-33223020D01*
X158628549Y-33218945D01*
X158594661Y-33208665D01*
X158563428Y-33191970D01*
X158536054Y-33169506D01*
X158513590Y-33142132D01*
X158496895Y-33110899D01*
X158486615Y-33077011D01*
X158482540Y-33035632D01*
X158482540Y-32435408D01*
X158486615Y-32394029D01*
X158496895Y-32360141D01*
X158513590Y-32328908D01*
X158536054Y-32301534D01*
X158563428Y-32279070D01*
X158594661Y-32262375D01*
X158628549Y-32252095D01*
X158669928Y-32248020D01*
X159345152Y-32248020D01*
X159386531Y-32252095D01*
X159386531Y-32252095D01*
G37*
G36*
X208625660Y-31823880D02*
G01*
X204525660Y-31823880D01*
X204525660Y-27723880D01*
X208625660Y-27723880D01*
X208625660Y-31823880D01*
X208625660Y-31823880D01*
G37*
G36*
X222593793Y-25754321D02*
G01*
X222864270Y-25808122D01*
X223066728Y-25891983D01*
X223373836Y-26019191D01*
X223501508Y-26104499D01*
X223832436Y-26325618D01*
X224222442Y-26715624D01*
X224355025Y-26914049D01*
X224528869Y-27174224D01*
X224596222Y-27336830D01*
X224739938Y-27683790D01*
X224758703Y-27778130D01*
X224844895Y-28211444D01*
X224847540Y-28224744D01*
X224847540Y-28776296D01*
X224739938Y-29317250D01*
X224652510Y-29528319D01*
X224528869Y-29826816D01*
X224528868Y-29826817D01*
X224222442Y-30285416D01*
X223832436Y-30675422D01*
X223526009Y-30880170D01*
X223373836Y-30981849D01*
X223075339Y-31105490D01*
X222864270Y-31192918D01*
X222593793Y-31246719D01*
X222323317Y-31300520D01*
X221771763Y-31300520D01*
X221501287Y-31246719D01*
X221230810Y-31192918D01*
X221019741Y-31105490D01*
X220721244Y-30981849D01*
X220569071Y-30880170D01*
X220262644Y-30675422D01*
X219872638Y-30285416D01*
X219566212Y-29826817D01*
X219566211Y-29826816D01*
X219442570Y-29528319D01*
X219355142Y-29317250D01*
X219247540Y-28776296D01*
X219247540Y-28224744D01*
X219250186Y-28211444D01*
X219336377Y-27778130D01*
X219355142Y-27683790D01*
X219498858Y-27336830D01*
X219566211Y-27174224D01*
X219740055Y-26914049D01*
X219872638Y-26715624D01*
X220262644Y-26325618D01*
X220593572Y-26104499D01*
X220721244Y-26019191D01*
X221028352Y-25891983D01*
X221230810Y-25808122D01*
X221501287Y-25754321D01*
X221771763Y-25700520D01*
X222323317Y-25700520D01*
X222593793Y-25754321D01*
X222593793Y-25754321D01*
G37*
G36*
X212642000Y-30232200D02*
G01*
X211792000Y-30232200D01*
X211792000Y-29332200D01*
X212642000Y-29332200D01*
X212642000Y-30232200D01*
X212642000Y-30232200D01*
G37*
G36*
X161710060Y-26045106D02*
G01*
X161853448Y-26104499D01*
X161873850Y-26112950D01*
X162021257Y-26211444D01*
X162146616Y-26336803D01*
X162245110Y-26484210D01*
X162245111Y-26484212D01*
X162312954Y-26648000D01*
X162347540Y-26821876D01*
X162347540Y-26999164D01*
X162312954Y-27173040D01*
X162245110Y-27336830D01*
X162146616Y-27484237D01*
X162021257Y-27609596D01*
X161873850Y-27708090D01*
X161710060Y-27775934D01*
X161681635Y-27781588D01*
X161649787Y-27787923D01*
X161626338Y-27795036D01*
X161604727Y-27806587D01*
X161585785Y-27822132D01*
X161570240Y-27841074D01*
X161558689Y-27862685D01*
X161551576Y-27886134D01*
X161549174Y-27910520D01*
X161551576Y-27934906D01*
X161558689Y-27958355D01*
X161570240Y-27979966D01*
X161585785Y-27998908D01*
X161604727Y-28014453D01*
X161626338Y-28026004D01*
X161649787Y-28033117D01*
X161672801Y-28037695D01*
X161710060Y-28045106D01*
X161873850Y-28112950D01*
X162021257Y-28211444D01*
X162146616Y-28336803D01*
X162245110Y-28484210D01*
X162245111Y-28484212D01*
X162312954Y-28648000D01*
X162338474Y-28776296D01*
X162347540Y-28821878D01*
X162347540Y-28999162D01*
X162312954Y-29173040D01*
X162245110Y-29336830D01*
X162146616Y-29484237D01*
X162021257Y-29609596D01*
X161873850Y-29708090D01*
X161873849Y-29708091D01*
X161873848Y-29708091D01*
X161710060Y-29775934D01*
X161536184Y-29810520D01*
X161358896Y-29810520D01*
X161185020Y-29775934D01*
X161021232Y-29708091D01*
X161021231Y-29708091D01*
X161021230Y-29708090D01*
X160873823Y-29609596D01*
X160748464Y-29484237D01*
X160649970Y-29336830D01*
X160582126Y-29173040D01*
X160547540Y-28999162D01*
X160547540Y-28821878D01*
X160556607Y-28776296D01*
X160582126Y-28648000D01*
X160649969Y-28484212D01*
X160649970Y-28484210D01*
X160748464Y-28336803D01*
X160873823Y-28211444D01*
X161021230Y-28112950D01*
X161185020Y-28045106D01*
X161222279Y-28037695D01*
X161245293Y-28033117D01*
X161268742Y-28026004D01*
X161290353Y-28014453D01*
X161309295Y-27998908D01*
X161324840Y-27979966D01*
X161336391Y-27958355D01*
X161343504Y-27934906D01*
X161345906Y-27910520D01*
X161343504Y-27886134D01*
X161336391Y-27862685D01*
X161324840Y-27841074D01*
X161309295Y-27822132D01*
X161290353Y-27806587D01*
X161268742Y-27795036D01*
X161245293Y-27787923D01*
X161213445Y-27781588D01*
X161185020Y-27775934D01*
X161021230Y-27708090D01*
X160873823Y-27609596D01*
X160748464Y-27484237D01*
X160649970Y-27336830D01*
X160582126Y-27173040D01*
X160547540Y-26999164D01*
X160547540Y-26821876D01*
X160582126Y-26648000D01*
X160649969Y-26484212D01*
X160649970Y-26484210D01*
X160748464Y-26336803D01*
X160873823Y-26211444D01*
X161021230Y-26112950D01*
X161041633Y-26104499D01*
X161185020Y-26045106D01*
X161358896Y-26010520D01*
X161536184Y-26010520D01*
X161710060Y-26045106D01*
X161710060Y-26045106D01*
G37*
G36*
X159210060Y-26045106D02*
G01*
X159353448Y-26104499D01*
X159373850Y-26112950D01*
X159521257Y-26211444D01*
X159646616Y-26336803D01*
X159745110Y-26484210D01*
X159745111Y-26484212D01*
X159812954Y-26648000D01*
X159847540Y-26821876D01*
X159847540Y-26999164D01*
X159812954Y-27173040D01*
X159745110Y-27336830D01*
X159646616Y-27484237D01*
X159521257Y-27609596D01*
X159422762Y-27675408D01*
X159373849Y-27708091D01*
X159335730Y-27723880D01*
X159224294Y-27770038D01*
X159202686Y-27781588D01*
X159183744Y-27797133D01*
X159168198Y-27816075D01*
X159156647Y-27837686D01*
X159149534Y-27861135D01*
X159147132Y-27885521D01*
X159149534Y-27909907D01*
X159156647Y-27933356D01*
X159168198Y-27954966D01*
X159183743Y-27973908D01*
X159202685Y-27989454D01*
X159224296Y-28001005D01*
X159247745Y-28008118D01*
X159272131Y-28010520D01*
X159847540Y-28010520D01*
X159847540Y-29810520D01*
X158047540Y-29810520D01*
X158047540Y-28010520D01*
X158622949Y-28010520D01*
X158647335Y-28008118D01*
X158670784Y-28001005D01*
X158692395Y-27989454D01*
X158711337Y-27973909D01*
X158726882Y-27954967D01*
X158738433Y-27933356D01*
X158745546Y-27909907D01*
X158747948Y-27885521D01*
X158745546Y-27861135D01*
X158738433Y-27837686D01*
X158726882Y-27816075D01*
X158711337Y-27797133D01*
X158692395Y-27781588D01*
X158670786Y-27770038D01*
X158559350Y-27723880D01*
X158521231Y-27708091D01*
X158472318Y-27675408D01*
X158373823Y-27609596D01*
X158248464Y-27484237D01*
X158149970Y-27336830D01*
X158082126Y-27173040D01*
X158047540Y-26999164D01*
X158047540Y-26821876D01*
X158082126Y-26648000D01*
X158149969Y-26484212D01*
X158149970Y-26484210D01*
X158248464Y-26336803D01*
X158373823Y-26211444D01*
X158521230Y-26112950D01*
X158541633Y-26104499D01*
X158685020Y-26045106D01*
X158858896Y-26010520D01*
X159036184Y-26010520D01*
X159210060Y-26045106D01*
X159210060Y-26045106D01*
G37*
G36*
X218017540Y-29550520D02*
G01*
X215917540Y-29550520D01*
X215917540Y-27450520D01*
X218017540Y-27450520D01*
X218017540Y-29550520D01*
X218017540Y-29550520D01*
G37*
G36*
X212642000Y-28732200D02*
G01*
X211792000Y-28732200D01*
X211792000Y-27832200D01*
X212642000Y-27832200D01*
X212642000Y-28732200D01*
X212642000Y-28732200D01*
G37*
G36*
X203675660Y-28571340D02*
G01*
X200075660Y-28571340D01*
X200075660Y-24971340D01*
X203675660Y-24971340D01*
X203675660Y-28571340D01*
X203675660Y-28571340D01*
G37*
G36*
X147043907Y-26495076D02*
G01*
X147082488Y-26506779D01*
X147118041Y-26525783D01*
X147149203Y-26551357D01*
X147174777Y-26582519D01*
X147193781Y-26618072D01*
X147205484Y-26656653D01*
X147210040Y-26702910D01*
X147210040Y-27778130D01*
X147205484Y-27824387D01*
X147193781Y-27862968D01*
X147174777Y-27898521D01*
X147149203Y-27929683D01*
X147118041Y-27955257D01*
X147082488Y-27974261D01*
X147043907Y-27985964D01*
X146997650Y-27990520D01*
X146347430Y-27990520D01*
X146301173Y-27985964D01*
X146262592Y-27974261D01*
X146227039Y-27955257D01*
X146195877Y-27929683D01*
X146170303Y-27898521D01*
X146151299Y-27862968D01*
X146139596Y-27824387D01*
X146135040Y-27778130D01*
X146135040Y-26702910D01*
X146139596Y-26656653D01*
X146151299Y-26618072D01*
X146170303Y-26582519D01*
X146195877Y-26551357D01*
X146227039Y-26525783D01*
X146262592Y-26506779D01*
X146301173Y-26495076D01*
X146347430Y-26490520D01*
X146997650Y-26490520D01*
X147043907Y-26495076D01*
X147043907Y-26495076D01*
G37*
G36*
X148918907Y-26495076D02*
G01*
X148957488Y-26506779D01*
X148993041Y-26525783D01*
X149024203Y-26551357D01*
X149049777Y-26582519D01*
X149068781Y-26618072D01*
X149080484Y-26656653D01*
X149085040Y-26702910D01*
X149085040Y-27778130D01*
X149080484Y-27824387D01*
X149068781Y-27862968D01*
X149049777Y-27898521D01*
X149024203Y-27929683D01*
X148993041Y-27955257D01*
X148957488Y-27974261D01*
X148918907Y-27985964D01*
X148872650Y-27990520D01*
X148222430Y-27990520D01*
X148176173Y-27985964D01*
X148137592Y-27974261D01*
X148102039Y-27955257D01*
X148070877Y-27929683D01*
X148045303Y-27898521D01*
X148026299Y-27862968D01*
X148014596Y-27824387D01*
X148010040Y-27778130D01*
X148010040Y-26702910D01*
X148014596Y-26656653D01*
X148026299Y-26618072D01*
X148045303Y-26582519D01*
X148070877Y-26551357D01*
X148102039Y-26525783D01*
X148137592Y-26506779D01*
X148176173Y-26495076D01*
X148222430Y-26490520D01*
X148872650Y-26490520D01*
X148918907Y-26495076D01*
X148918907Y-26495076D01*
G37*
G36*
X83744297Y-25155112D02*
G01*
X83944483Y-25238032D01*
X83944485Y-25238033D01*
X84035178Y-25298632D01*
X84124648Y-25358414D01*
X84277866Y-25511632D01*
X84398248Y-25691797D01*
X84481168Y-25891983D01*
X84523440Y-26104498D01*
X84523440Y-26321182D01*
X84481168Y-26533697D01*
X84411077Y-26702910D01*
X84398247Y-26733885D01*
X84277865Y-26914049D01*
X84124649Y-27067265D01*
X83944485Y-27187647D01*
X83944484Y-27187648D01*
X83944483Y-27187648D01*
X83744297Y-27270568D01*
X83531782Y-27312840D01*
X83315098Y-27312840D01*
X83102583Y-27270568D01*
X82902397Y-27187648D01*
X82902396Y-27187648D01*
X82902395Y-27187647D01*
X82722231Y-27067265D01*
X82569015Y-26914049D01*
X82448633Y-26733885D01*
X82435803Y-26702910D01*
X82365712Y-26533697D01*
X82323440Y-26321182D01*
X82323440Y-26104498D01*
X82365712Y-25891983D01*
X82448632Y-25691797D01*
X82569014Y-25511632D01*
X82722232Y-25358414D01*
X82811702Y-25298632D01*
X82902395Y-25238033D01*
X82902397Y-25238032D01*
X83102583Y-25155112D01*
X83315098Y-25112840D01*
X83531782Y-25112840D01*
X83744297Y-25155112D01*
X83744297Y-25155112D01*
G37*
G36*
X90754297Y-25155112D02*
G01*
X90954483Y-25238032D01*
X90954485Y-25238033D01*
X91045178Y-25298632D01*
X91134648Y-25358414D01*
X91287866Y-25511632D01*
X91408248Y-25691797D01*
X91491168Y-25891983D01*
X91533440Y-26104498D01*
X91533440Y-26321182D01*
X91491168Y-26533697D01*
X91421077Y-26702910D01*
X91408247Y-26733885D01*
X91287865Y-26914049D01*
X91134649Y-27067265D01*
X90954485Y-27187647D01*
X90954484Y-27187648D01*
X90954483Y-27187648D01*
X90754297Y-27270568D01*
X90541782Y-27312840D01*
X90325098Y-27312840D01*
X90112583Y-27270568D01*
X89912397Y-27187648D01*
X89912396Y-27187648D01*
X89912395Y-27187647D01*
X89732231Y-27067265D01*
X89579015Y-26914049D01*
X89458633Y-26733885D01*
X89445803Y-26702910D01*
X89375712Y-26533697D01*
X89333440Y-26321182D01*
X89333440Y-26104498D01*
X89375712Y-25891983D01*
X89458632Y-25691797D01*
X89579014Y-25511632D01*
X89732232Y-25358414D01*
X89821702Y-25298632D01*
X89912395Y-25238033D01*
X89912397Y-25238032D01*
X90112583Y-25155112D01*
X90325098Y-25112840D01*
X90541782Y-25112840D01*
X90754297Y-25155112D01*
X90754297Y-25155112D01*
G37*
G36*
X166568702Y-22435106D02*
G01*
X166742581Y-22469693D01*
X167070160Y-22605381D01*
X167364973Y-22802369D01*
X167615691Y-23053087D01*
X167812679Y-23347900D01*
X167948367Y-23675479D01*
X167975910Y-23813946D01*
X168011457Y-23992651D01*
X168017540Y-24023236D01*
X168017540Y-24377804D01*
X167948367Y-24725561D01*
X167812679Y-25053140D01*
X167615691Y-25347953D01*
X167364973Y-25598671D01*
X167070160Y-25795659D01*
X166742581Y-25931347D01*
X166568703Y-25965933D01*
X166394826Y-26000520D01*
X166040254Y-26000520D01*
X165866377Y-25965933D01*
X165692499Y-25931347D01*
X165364920Y-25795659D01*
X165070107Y-25598671D01*
X164819389Y-25347953D01*
X164622401Y-25053140D01*
X164486713Y-24725561D01*
X164417540Y-24377804D01*
X164417540Y-24023236D01*
X164423624Y-23992651D01*
X164459170Y-23813946D01*
X164486713Y-23675479D01*
X164622401Y-23347900D01*
X164819389Y-23053087D01*
X165070107Y-22802369D01*
X165364920Y-22605381D01*
X165692499Y-22469693D01*
X165866378Y-22435106D01*
X166040254Y-22400520D01*
X166394826Y-22400520D01*
X166568702Y-22435106D01*
X166568702Y-22435106D01*
G37*
G36*
X154528702Y-22435106D02*
G01*
X154702581Y-22469693D01*
X155030160Y-22605381D01*
X155324973Y-22802369D01*
X155575691Y-23053087D01*
X155772679Y-23347900D01*
X155908367Y-23675479D01*
X155935910Y-23813946D01*
X155971457Y-23992651D01*
X155977540Y-24023236D01*
X155977540Y-24377804D01*
X155908367Y-24725561D01*
X155772679Y-25053140D01*
X155575691Y-25347953D01*
X155324973Y-25598671D01*
X155030160Y-25795659D01*
X154702581Y-25931347D01*
X154528703Y-25965933D01*
X154354826Y-26000520D01*
X154000254Y-26000520D01*
X153826377Y-25965933D01*
X153652499Y-25931347D01*
X153324920Y-25795659D01*
X153030107Y-25598671D01*
X152779389Y-25347953D01*
X152582401Y-25053140D01*
X152446713Y-24725561D01*
X152377540Y-24377804D01*
X152377540Y-24023236D01*
X152383624Y-23992651D01*
X152419170Y-23813946D01*
X152446713Y-23675479D01*
X152582401Y-23347900D01*
X152779389Y-23053087D01*
X153030107Y-22802369D01*
X153324920Y-22605381D01*
X153652499Y-22469693D01*
X153826378Y-22435106D01*
X154000254Y-22400520D01*
X154354826Y-22400520D01*
X154528702Y-22435106D01*
X154528702Y-22435106D01*
G37*
G36*
X208375660Y-25571340D02*
G01*
X204775660Y-25571340D01*
X204775660Y-21971340D01*
X208375660Y-21971340D01*
X208375660Y-25571340D01*
X208375660Y-25571340D01*
G37*
G36*
X89324114Y-22809689D02*
G01*
X89443253Y-22833387D01*
X89611592Y-22903115D01*
X89763093Y-23004345D01*
X89891935Y-23133187D01*
X89993165Y-23284688D01*
X90062893Y-23453027D01*
X90098440Y-23631735D01*
X90098440Y-23813945D01*
X90062893Y-23992653D01*
X89993165Y-24160992D01*
X89891935Y-24312493D01*
X89763093Y-24441335D01*
X89611592Y-24542565D01*
X89443253Y-24612293D01*
X89324114Y-24635991D01*
X89264546Y-24647840D01*
X89082334Y-24647840D01*
X89022766Y-24635991D01*
X88903627Y-24612293D01*
X88735288Y-24542565D01*
X88583787Y-24441335D01*
X88454945Y-24312493D01*
X88353715Y-24160992D01*
X88283987Y-23992653D01*
X88248440Y-23813945D01*
X88248440Y-23631735D01*
X88283987Y-23453027D01*
X88353715Y-23284688D01*
X88454945Y-23133187D01*
X88583787Y-23004345D01*
X88735288Y-22903115D01*
X88903627Y-22833387D01*
X89022766Y-22809689D01*
X89082334Y-22797840D01*
X89264546Y-22797840D01*
X89324114Y-22809689D01*
X89324114Y-22809689D01*
G37*
G36*
X84824114Y-22809689D02*
G01*
X84943253Y-22833387D01*
X85111592Y-22903115D01*
X85263093Y-23004345D01*
X85391935Y-23133187D01*
X85493165Y-23284688D01*
X85562893Y-23453027D01*
X85598440Y-23631735D01*
X85598440Y-23813945D01*
X85562893Y-23992653D01*
X85493165Y-24160992D01*
X85391935Y-24312493D01*
X85263093Y-24441335D01*
X85111592Y-24542565D01*
X84943253Y-24612293D01*
X84824114Y-24635991D01*
X84764546Y-24647840D01*
X84582334Y-24647840D01*
X84522766Y-24635991D01*
X84403627Y-24612293D01*
X84235288Y-24542565D01*
X84083787Y-24441335D01*
X83954945Y-24312493D01*
X83853715Y-24160992D01*
X83783987Y-23992653D01*
X83748440Y-23813945D01*
X83748440Y-23631735D01*
X83783987Y-23453027D01*
X83853715Y-23284688D01*
X83954945Y-23133187D01*
X84083787Y-23004345D01*
X84235288Y-22903115D01*
X84403627Y-22833387D01*
X84522766Y-22809689D01*
X84582334Y-22797840D01*
X84764546Y-22797840D01*
X84824114Y-22809689D01*
X84824114Y-22809689D01*
G37*
M02*
