G04 #@! TF.GenerationSoftware,KiCad,Pcbnew,5.0.2-bee76a0~70~ubuntu18.04.1*
G04 #@! TF.CreationDate,2019-04-15T14:10:49+02:00*
G04 #@! TF.ProjectId,bottom-board,626f7474-6f6d-42d6-926f-6172642e6b69,rev?*
G04 #@! TF.SameCoordinates,Original*
G04 #@! TF.FileFunction,Legend,Bot*
G04 #@! TF.FilePolarity,Positive*
%FSLAX46Y46*%
G04 Gerber Fmt 4.6, Leading zero omitted, Abs format (unit mm)*
G04 Created by KiCad (PCBNEW 5.0.2-bee76a0~70~ubuntu18.04.1) date Mon 15 Apr 2019 02:10:49 PM CEST*
%MOMM*%
%LPD*%
G01*
G04 APERTURE LIST*
%ADD10C,0.100000*%
%ADD11C,0.150000*%
%ADD12C,0.400000*%
G04 APERTURE END LIST*
D10*
X228074346Y-32066366D02*
G75*
G02X232074346Y-36066366I0J-4000000D01*
G01*
X226074346Y-32066366D02*
G75*
G02X220074346Y-26066366I0J6000000D01*
G01*
X217574346Y-19566366D02*
G75*
G02X220074346Y-22066366I0J-2500000D01*
G01*
X72074346Y-22066366D02*
G75*
G02X74574346Y-19566366I2500000J0D01*
G01*
X72074346Y-26066366D02*
G75*
G02X66074346Y-32066366I-6000000J0D01*
G01*
X60074346Y-36066366D02*
G75*
G02X64074346Y-32066366I4000000J0D01*
G01*
X62574346Y-160066366D02*
G75*
G02X60074346Y-157566366I0J2500000D01*
G01*
X232074346Y-157566366D02*
G75*
G02X229574346Y-160066366I-2500000J0D01*
G01*
X232074350Y-36066368D02*
X232074350Y-157566368D01*
X226074345Y-32066363D02*
X228074349Y-32066363D01*
X220074348Y-22066365D02*
X220074348Y-26066366D01*
X74574344Y-19566368D02*
X217574343Y-19566368D01*
X72074346Y-26066366D02*
X72074346Y-22066365D01*
X64074345Y-32066363D02*
X66074349Y-32066363D01*
X60074344Y-157566368D02*
X60074344Y-36066368D01*
X229574345Y-160066369D02*
X62574349Y-160066369D01*
D11*
X80535400Y-42701595D02*
X80583019Y-42796833D01*
X80583019Y-42939690D01*
X80535400Y-43082547D01*
X80440161Y-43177785D01*
X80344923Y-43225404D01*
X80154447Y-43273023D01*
X80011590Y-43273023D01*
X79821114Y-43225404D01*
X79725876Y-43177785D01*
X79630638Y-43082547D01*
X79583019Y-42939690D01*
X79583019Y-42844452D01*
X79630638Y-42701595D01*
X79678257Y-42653976D01*
X80011590Y-42653976D01*
X80011590Y-42844452D01*
X79583019Y-42225404D02*
X80583019Y-42225404D01*
X79583019Y-41653976D01*
X80583019Y-41653976D01*
X79583019Y-41177785D02*
X80583019Y-41177785D01*
X80583019Y-40939690D01*
X80535400Y-40796833D01*
X80440161Y-40701595D01*
X80344923Y-40653976D01*
X80154447Y-40606357D01*
X80011590Y-40606357D01*
X79821114Y-40653976D01*
X79725876Y-40701595D01*
X79630638Y-40796833D01*
X79583019Y-40939690D01*
X79583019Y-41177785D01*
X82148419Y-42653976D02*
X82624609Y-42987309D01*
X82148419Y-43225404D02*
X83148419Y-43225404D01*
X83148419Y-42844452D01*
X83100800Y-42749214D01*
X83053180Y-42701595D01*
X82957942Y-42653976D01*
X82815085Y-42653976D01*
X82719847Y-42701595D01*
X82672228Y-42749214D01*
X82624609Y-42844452D01*
X82624609Y-43225404D01*
X83148419Y-42320642D02*
X82148419Y-41653976D01*
X83148419Y-41653976D02*
X82148419Y-42320642D01*
X85663019Y-43368261D02*
X85663019Y-42796833D01*
X84663019Y-43082547D02*
X85663019Y-43082547D01*
X85663019Y-42558738D02*
X84663019Y-41892071D01*
X85663019Y-41892071D02*
X84663019Y-42558738D01*
D12*
X207978149Y-133953881D02*
X207978149Y-131953881D01*
X207311482Y-133382453D01*
X206644816Y-131953881D01*
X206644816Y-133953881D01*
X205311482Y-131953881D02*
X204930530Y-131953881D01*
X204740054Y-132049120D01*
X204549578Y-132239596D01*
X204454340Y-132620548D01*
X204454340Y-133287215D01*
X204549578Y-133668167D01*
X204740054Y-133858643D01*
X204930530Y-133953881D01*
X205311482Y-133953881D01*
X205501959Y-133858643D01*
X205692435Y-133668167D01*
X205787673Y-133287215D01*
X205787673Y-132620548D01*
X205692435Y-132239596D01*
X205501959Y-132049120D01*
X205311482Y-131953881D01*
X203597197Y-133953881D02*
X203597197Y-131953881D01*
X203121006Y-131953881D01*
X202835292Y-132049120D01*
X202644816Y-132239596D01*
X202549578Y-132430072D01*
X202454340Y-132811024D01*
X202454340Y-133096739D01*
X202549578Y-133477691D01*
X202644816Y-133668167D01*
X202835292Y-133858643D01*
X203121006Y-133953881D01*
X203597197Y-133953881D01*
X200073387Y-133953881D02*
X200073387Y-131953881D01*
X199597197Y-131953881D01*
X199311482Y-132049120D01*
X199121006Y-132239596D01*
X199025768Y-132430072D01*
X198930530Y-132811024D01*
X198930530Y-133096739D01*
X199025768Y-133477691D01*
X199121006Y-133668167D01*
X199311482Y-133858643D01*
X199597197Y-133953881D01*
X200073387Y-133953881D01*
X197311482Y-133858643D02*
X197501959Y-133953881D01*
X197882911Y-133953881D01*
X198073387Y-133858643D01*
X198168625Y-133668167D01*
X198168625Y-132906262D01*
X198073387Y-132715786D01*
X197882911Y-132620548D01*
X197501959Y-132620548D01*
X197311482Y-132715786D01*
X197216244Y-132906262D01*
X197216244Y-133096739D01*
X198168625Y-133287215D01*
X196549578Y-132620548D02*
X196073387Y-133953881D01*
X195597197Y-132620548D01*
X194835292Y-133953881D02*
X194835292Y-132620548D01*
X194835292Y-131953881D02*
X194930530Y-132049120D01*
X194835292Y-132144358D01*
X194740054Y-132049120D01*
X194835292Y-131953881D01*
X194835292Y-132144358D01*
X193025768Y-133858643D02*
X193216244Y-133953881D01*
X193597197Y-133953881D01*
X193787673Y-133858643D01*
X193882911Y-133763405D01*
X193978149Y-133572929D01*
X193978149Y-133001500D01*
X193882911Y-132811024D01*
X193787673Y-132715786D01*
X193597197Y-132620548D01*
X193216244Y-132620548D01*
X193025768Y-132715786D01*
X191406720Y-133858643D02*
X191597197Y-133953881D01*
X191978149Y-133953881D01*
X192168625Y-133858643D01*
X192263863Y-133668167D01*
X192263863Y-132906262D01*
X192168625Y-132715786D01*
X191978149Y-132620548D01*
X191597197Y-132620548D01*
X191406720Y-132715786D01*
X191311482Y-132906262D01*
X191311482Y-133096739D01*
X192263863Y-133287215D01*
X190549578Y-133858643D02*
X190359101Y-133953881D01*
X189978149Y-133953881D01*
X189787673Y-133858643D01*
X189692435Y-133668167D01*
X189692435Y-133572929D01*
X189787673Y-133382453D01*
X189978149Y-133287215D01*
X190263863Y-133287215D01*
X190454340Y-133191977D01*
X190549578Y-133001500D01*
X190549578Y-132906262D01*
X190454340Y-132715786D01*
X190263863Y-132620548D01*
X189978149Y-132620548D01*
X189787673Y-132715786D01*
X186263863Y-132049120D02*
X186454340Y-131953881D01*
X186740054Y-131953881D01*
X187025768Y-132049120D01*
X187216244Y-132239596D01*
X187311482Y-132430072D01*
X187406720Y-132811024D01*
X187406720Y-133096739D01*
X187311482Y-133477691D01*
X187216244Y-133668167D01*
X187025768Y-133858643D01*
X186740054Y-133953881D01*
X186549578Y-133953881D01*
X186263863Y-133858643D01*
X186168625Y-133763405D01*
X186168625Y-133096739D01*
X186549578Y-133096739D01*
X185311482Y-133953881D02*
X185311482Y-132620548D01*
X185311482Y-132811024D02*
X185216244Y-132715786D01*
X185025768Y-132620548D01*
X184740054Y-132620548D01*
X184549578Y-132715786D01*
X184454340Y-132906262D01*
X184454340Y-133953881D01*
X184454340Y-132906262D02*
X184359101Y-132715786D01*
X184168625Y-132620548D01*
X183882911Y-132620548D01*
X183692435Y-132715786D01*
X183597197Y-132906262D01*
X183597197Y-133953881D01*
X182644816Y-133953881D02*
X182644816Y-131953881D01*
X182644816Y-132715786D02*
X182454340Y-132620548D01*
X182073387Y-132620548D01*
X181882911Y-132715786D01*
X181787673Y-132811024D01*
X181692435Y-133001500D01*
X181692435Y-133572929D01*
X181787673Y-133763405D01*
X181882911Y-133858643D01*
X182073387Y-133953881D01*
X182454340Y-133953881D01*
X182644816Y-133858643D01*
X180835292Y-133953881D02*
X180835292Y-131953881D01*
X180835292Y-132906262D02*
X179692435Y-132906262D01*
X179692435Y-133953881D02*
X179692435Y-131953881D01*
X207978149Y-137353881D02*
X207978149Y-135353881D01*
X207121006Y-137353881D02*
X207121006Y-136306262D01*
X207216244Y-136115786D01*
X207406720Y-136020548D01*
X207692435Y-136020548D01*
X207882911Y-136115786D01*
X207978149Y-136211024D01*
X206454340Y-136020548D02*
X205692435Y-136020548D01*
X206168625Y-135353881D02*
X206168625Y-137068167D01*
X206073387Y-137258643D01*
X205882911Y-137353881D01*
X205692435Y-137353881D01*
X205311482Y-136020548D02*
X204549578Y-136020548D01*
X205025768Y-135353881D02*
X205025768Y-137068167D01*
X204930530Y-137258643D01*
X204740054Y-137353881D01*
X204549578Y-137353881D01*
X203882911Y-136020548D02*
X203882911Y-138020548D01*
X203882911Y-136115786D02*
X203692435Y-136020548D01*
X203311482Y-136020548D01*
X203121006Y-136115786D01*
X203025768Y-136211024D01*
X202930530Y-136401500D01*
X202930530Y-136972929D01*
X203025768Y-137163405D01*
X203121006Y-137258643D01*
X203311482Y-137353881D01*
X203692435Y-137353881D01*
X203882911Y-137258643D01*
X202073387Y-137163405D02*
X201978149Y-137258643D01*
X202073387Y-137353881D01*
X202168625Y-137258643D01*
X202073387Y-137163405D01*
X202073387Y-137353881D01*
X202073387Y-136115786D02*
X201978149Y-136211024D01*
X202073387Y-136306262D01*
X202168625Y-136211024D01*
X202073387Y-136115786D01*
X202073387Y-136306262D01*
X199692435Y-135258643D02*
X201406720Y-137830072D01*
X197597197Y-135258643D02*
X199311482Y-137830072D01*
X196930530Y-137353881D02*
X196930530Y-136020548D01*
X196930530Y-136211024D02*
X196835292Y-136115786D01*
X196644816Y-136020548D01*
X196359101Y-136020548D01*
X196168625Y-136115786D01*
X196073387Y-136306262D01*
X196073387Y-137353881D01*
X196073387Y-136306262D02*
X195978149Y-136115786D01*
X195787673Y-136020548D01*
X195501959Y-136020548D01*
X195311482Y-136115786D01*
X195216244Y-136306262D01*
X195216244Y-137353881D01*
X193978149Y-137353881D02*
X194168625Y-137258643D01*
X194263863Y-137163405D01*
X194359101Y-136972929D01*
X194359101Y-136401500D01*
X194263863Y-136211024D01*
X194168625Y-136115786D01*
X193978149Y-136020548D01*
X193692435Y-136020548D01*
X193501959Y-136115786D01*
X193406720Y-136211024D01*
X193311482Y-136401500D01*
X193311482Y-136972929D01*
X193406720Y-137163405D01*
X193501959Y-137258643D01*
X193692435Y-137353881D01*
X193978149Y-137353881D01*
X191597197Y-137353881D02*
X191597197Y-135353881D01*
X191597197Y-137258643D02*
X191787673Y-137353881D01*
X192168625Y-137353881D01*
X192359101Y-137258643D01*
X192454340Y-137163405D01*
X192549578Y-136972929D01*
X192549578Y-136401500D01*
X192454340Y-136211024D01*
X192359101Y-136115786D01*
X192168625Y-136020548D01*
X191787673Y-136020548D01*
X191597197Y-136115786D01*
X189787673Y-137353881D02*
X189787673Y-135353881D01*
X189787673Y-137258643D02*
X189978149Y-137353881D01*
X190359101Y-137353881D01*
X190549578Y-137258643D01*
X190644816Y-137163405D01*
X190740054Y-136972929D01*
X190740054Y-136401500D01*
X190644816Y-136211024D01*
X190549578Y-136115786D01*
X190359101Y-136020548D01*
X189978149Y-136020548D01*
X189787673Y-136115786D01*
X188073387Y-137258643D02*
X188263863Y-137353881D01*
X188644816Y-137353881D01*
X188835292Y-137258643D01*
X188930530Y-137068167D01*
X188930530Y-136306262D01*
X188835292Y-136115786D01*
X188644816Y-136020548D01*
X188263863Y-136020548D01*
X188073387Y-136115786D01*
X187978149Y-136306262D01*
X187978149Y-136496739D01*
X188930530Y-136687215D01*
X187311482Y-136020548D02*
X186835292Y-137353881D01*
X186359101Y-136020548D01*
X185597197Y-137353881D02*
X185597197Y-136020548D01*
X185597197Y-135353881D02*
X185692435Y-135449120D01*
X185597197Y-135544358D01*
X185501959Y-135449120D01*
X185597197Y-135353881D01*
X185597197Y-135544358D01*
X183787673Y-137258643D02*
X183978149Y-137353881D01*
X184359101Y-137353881D01*
X184549578Y-137258643D01*
X184644816Y-137163405D01*
X184740054Y-136972929D01*
X184740054Y-136401500D01*
X184644816Y-136211024D01*
X184549578Y-136115786D01*
X184359101Y-136020548D01*
X183978149Y-136020548D01*
X183787673Y-136115786D01*
X182168625Y-137258643D02*
X182359101Y-137353881D01*
X182740054Y-137353881D01*
X182930530Y-137258643D01*
X183025768Y-137068167D01*
X183025768Y-136306262D01*
X182930530Y-136115786D01*
X182740054Y-136020548D01*
X182359101Y-136020548D01*
X182168625Y-136115786D01*
X182073387Y-136306262D01*
X182073387Y-136496739D01*
X183025768Y-136687215D01*
X181311482Y-137258643D02*
X181121006Y-137353881D01*
X180740054Y-137353881D01*
X180549578Y-137258643D01*
X180454340Y-137068167D01*
X180454340Y-136972929D01*
X180549578Y-136782453D01*
X180740054Y-136687215D01*
X181025768Y-136687215D01*
X181216244Y-136591977D01*
X181311482Y-136401500D01*
X181311482Y-136306262D01*
X181216244Y-136115786D01*
X181025768Y-136020548D01*
X180740054Y-136020548D01*
X180549578Y-136115786D01*
X179597197Y-137163405D02*
X179501959Y-137258643D01*
X179597197Y-137353881D01*
X179692435Y-137258643D01*
X179597197Y-137163405D01*
X179597197Y-137353881D01*
X177787673Y-137258643D02*
X177978149Y-137353881D01*
X178359101Y-137353881D01*
X178549578Y-137258643D01*
X178644816Y-137163405D01*
X178740054Y-136972929D01*
X178740054Y-136401500D01*
X178644816Y-136211024D01*
X178549578Y-136115786D01*
X178359101Y-136020548D01*
X177978149Y-136020548D01*
X177787673Y-136115786D01*
X176644816Y-137353881D02*
X176835292Y-137258643D01*
X176930530Y-137163405D01*
X177025768Y-136972929D01*
X177025768Y-136401500D01*
X176930530Y-136211024D01*
X176835292Y-136115786D01*
X176644816Y-136020548D01*
X176359101Y-136020548D01*
X176168625Y-136115786D01*
X176073387Y-136211024D01*
X175978149Y-136401500D01*
X175978149Y-136972929D01*
X176073387Y-137163405D01*
X176168625Y-137258643D01*
X176359101Y-137353881D01*
X176644816Y-137353881D01*
X175121006Y-137353881D02*
X175121006Y-136020548D01*
X175121006Y-136211024D02*
X175025768Y-136115786D01*
X174835292Y-136020548D01*
X174549578Y-136020548D01*
X174359101Y-136115786D01*
X174263863Y-136306262D01*
X174263863Y-137353881D01*
X174263863Y-136306262D02*
X174168625Y-136115786D01*
X173978149Y-136020548D01*
X173692435Y-136020548D01*
X173501959Y-136115786D01*
X173406720Y-136306262D01*
X173406720Y-137353881D01*
X207406720Y-144820548D02*
X207882911Y-144820548D01*
X207882911Y-141963405D01*
X207406720Y-141963405D01*
X206644816Y-144153881D02*
X206644816Y-142153881D01*
X206168625Y-142153881D01*
X205882911Y-142249120D01*
X205692435Y-142439596D01*
X205597197Y-142630072D01*
X205501959Y-143011024D01*
X205501959Y-143296739D01*
X205597197Y-143677691D01*
X205692435Y-143868167D01*
X205882911Y-144058643D01*
X206168625Y-144153881D01*
X206644816Y-144153881D01*
X204644816Y-142153881D02*
X204644816Y-143772929D01*
X204549578Y-143963405D01*
X204454340Y-144058643D01*
X204263863Y-144153881D01*
X203882911Y-144153881D01*
X203692435Y-144058643D01*
X203597197Y-143963405D01*
X203501959Y-143772929D01*
X203501959Y-142153881D01*
X202549578Y-143391977D02*
X201025768Y-143391977D01*
X200073387Y-143106262D02*
X199406720Y-143106262D01*
X199121006Y-144153881D02*
X200073387Y-144153881D01*
X200073387Y-142153881D01*
X199121006Y-142153881D01*
X197311482Y-144153881D02*
X198263863Y-144153881D01*
X198263863Y-142153881D01*
X196644816Y-143106262D02*
X195978149Y-143106262D01*
X195692435Y-144153881D02*
X196644816Y-144153881D01*
X196644816Y-142153881D01*
X195692435Y-142153881D01*
X194835292Y-143391977D02*
X193311482Y-143391977D01*
X191978149Y-142153881D02*
X191787673Y-142153881D01*
X191597197Y-142249120D01*
X191501959Y-142344358D01*
X191406720Y-142534834D01*
X191311482Y-142915786D01*
X191311482Y-143391977D01*
X191406720Y-143772929D01*
X191501959Y-143963405D01*
X191597197Y-144058643D01*
X191787673Y-144153881D01*
X191978149Y-144153881D01*
X192168625Y-144058643D01*
X192263863Y-143963405D01*
X192359101Y-143772929D01*
X192454340Y-143391977D01*
X192454340Y-142915786D01*
X192359101Y-142534834D01*
X192263863Y-142344358D01*
X192168625Y-142249120D01*
X191978149Y-142153881D01*
X190073387Y-142153881D02*
X189882911Y-142153881D01*
X189692435Y-142249120D01*
X189597197Y-142344358D01*
X189501959Y-142534834D01*
X189406720Y-142915786D01*
X189406720Y-143391977D01*
X189501959Y-143772929D01*
X189597197Y-143963405D01*
X189692435Y-144058643D01*
X189882911Y-144153881D01*
X190073387Y-144153881D01*
X190263863Y-144058643D01*
X190359101Y-143963405D01*
X190454340Y-143772929D01*
X190549578Y-143391977D01*
X190549578Y-142915786D01*
X190454340Y-142534834D01*
X190359101Y-142344358D01*
X190263863Y-142249120D01*
X190073387Y-142153881D01*
X187501959Y-144153881D02*
X188644816Y-144153881D01*
X188073387Y-144153881D02*
X188073387Y-142153881D01*
X188263863Y-142439596D01*
X188454340Y-142630072D01*
X188644816Y-142725310D01*
X186835292Y-144820548D02*
X186359101Y-144820548D01*
X186359101Y-141963405D01*
X186835292Y-141963405D01*
X207978149Y-147553881D02*
X207978149Y-145553881D01*
X207311482Y-146982453D01*
X206644816Y-145553881D01*
X206644816Y-147553881D01*
X205311482Y-145553881D02*
X204930530Y-145553881D01*
X204740054Y-145649120D01*
X204549578Y-145839596D01*
X204454340Y-146220548D01*
X204454340Y-146887215D01*
X204549578Y-147268167D01*
X204740054Y-147458643D01*
X204930530Y-147553881D01*
X205311482Y-147553881D01*
X205501959Y-147458643D01*
X205692435Y-147268167D01*
X205787673Y-146887215D01*
X205787673Y-146220548D01*
X205692435Y-145839596D01*
X205501959Y-145649120D01*
X205311482Y-145553881D01*
X203597197Y-147553881D02*
X203597197Y-145553881D01*
X203121006Y-145553881D01*
X202835292Y-145649120D01*
X202644816Y-145839596D01*
X202549578Y-146030072D01*
X202454340Y-146411024D01*
X202454340Y-146696739D01*
X202549578Y-147077691D01*
X202644816Y-147268167D01*
X202835292Y-147458643D01*
X203121006Y-147553881D01*
X203597197Y-147553881D01*
X200073387Y-147553881D02*
X200073387Y-145553881D01*
X199597197Y-145553881D01*
X199311482Y-145649120D01*
X199121006Y-145839596D01*
X199025768Y-146030072D01*
X198930530Y-146411024D01*
X198930530Y-146696739D01*
X199025768Y-147077691D01*
X199121006Y-147268167D01*
X199311482Y-147458643D01*
X199597197Y-147553881D01*
X200073387Y-147553881D01*
X197216244Y-146220548D02*
X197216244Y-147553881D01*
X198073387Y-146220548D02*
X198073387Y-147268167D01*
X197978149Y-147458643D01*
X197787673Y-147553881D01*
X197501959Y-147553881D01*
X197311482Y-147458643D01*
X197216244Y-147363405D01*
X195978149Y-147553881D02*
X196168625Y-147458643D01*
X196263863Y-147363405D01*
X196359101Y-147172929D01*
X196359101Y-146601500D01*
X196263863Y-146411024D01*
X196168625Y-146315786D01*
X195978149Y-146220548D01*
X195692435Y-146220548D01*
X195501959Y-146315786D01*
X195406720Y-146411024D01*
X195311482Y-146601500D01*
X195311482Y-147172929D01*
X195406720Y-147363405D01*
X195501959Y-147458643D01*
X195692435Y-147553881D01*
X195978149Y-147553881D01*
X192930530Y-146791977D02*
X191406720Y-146791977D01*
X188263863Y-146506262D02*
X187978149Y-146601500D01*
X187882911Y-146696739D01*
X187787673Y-146887215D01*
X187787673Y-147172929D01*
X187882911Y-147363405D01*
X187978149Y-147458643D01*
X188168625Y-147553881D01*
X188930530Y-147553881D01*
X188930530Y-145553881D01*
X188263863Y-145553881D01*
X188073387Y-145649120D01*
X187978149Y-145744358D01*
X187882911Y-145934834D01*
X187882911Y-146125310D01*
X187978149Y-146315786D01*
X188073387Y-146411024D01*
X188263863Y-146506262D01*
X188930530Y-146506262D01*
X186644816Y-147553881D02*
X186835292Y-147458643D01*
X186930530Y-147363405D01*
X187025768Y-147172929D01*
X187025768Y-146601500D01*
X186930530Y-146411024D01*
X186835292Y-146315786D01*
X186644816Y-146220548D01*
X186359101Y-146220548D01*
X186168625Y-146315786D01*
X186073387Y-146411024D01*
X185978149Y-146601500D01*
X185978149Y-147172929D01*
X186073387Y-147363405D01*
X186168625Y-147458643D01*
X186359101Y-147553881D01*
X186644816Y-147553881D01*
X185406720Y-146220548D02*
X184644816Y-146220548D01*
X185121006Y-145553881D02*
X185121006Y-147268167D01*
X185025768Y-147458643D01*
X184835292Y-147553881D01*
X184644816Y-147553881D01*
X184263863Y-146220548D02*
X183501959Y-146220548D01*
X183978149Y-145553881D02*
X183978149Y-147268167D01*
X183882911Y-147458643D01*
X183692435Y-147553881D01*
X183501959Y-147553881D01*
X182549578Y-147553881D02*
X182740054Y-147458643D01*
X182835292Y-147363405D01*
X182930530Y-147172929D01*
X182930530Y-146601500D01*
X182835292Y-146411024D01*
X182740054Y-146315786D01*
X182549578Y-146220548D01*
X182263863Y-146220548D01*
X182073387Y-146315786D01*
X181978149Y-146411024D01*
X181882911Y-146601500D01*
X181882911Y-147172929D01*
X181978149Y-147363405D01*
X182073387Y-147458643D01*
X182263863Y-147553881D01*
X182549578Y-147553881D01*
X181025768Y-147553881D02*
X181025768Y-146220548D01*
X181025768Y-146411024D02*
X180930530Y-146315786D01*
X180740054Y-146220548D01*
X180454340Y-146220548D01*
X180263863Y-146315786D01*
X180168625Y-146506262D01*
X180168625Y-147553881D01*
X180168625Y-146506262D02*
X180073387Y-146315786D01*
X179882911Y-146220548D01*
X179597197Y-146220548D01*
X179406720Y-146315786D01*
X179311482Y-146506262D01*
X179311482Y-147553881D01*
X176168625Y-146506262D02*
X175882911Y-146601500D01*
X175787673Y-146696739D01*
X175692435Y-146887215D01*
X175692435Y-147172929D01*
X175787673Y-147363405D01*
X175882911Y-147458643D01*
X176073387Y-147553881D01*
X176835292Y-147553881D01*
X176835292Y-145553881D01*
X176168625Y-145553881D01*
X175978149Y-145649120D01*
X175882911Y-145744358D01*
X175787673Y-145934834D01*
X175787673Y-146125310D01*
X175882911Y-146315786D01*
X175978149Y-146411024D01*
X176168625Y-146506262D01*
X176835292Y-146506262D01*
X174549578Y-147553881D02*
X174740054Y-147458643D01*
X174835292Y-147363405D01*
X174930530Y-147172929D01*
X174930530Y-146601500D01*
X174835292Y-146411024D01*
X174740054Y-146315786D01*
X174549578Y-146220548D01*
X174263863Y-146220548D01*
X174073387Y-146315786D01*
X173978149Y-146411024D01*
X173882911Y-146601500D01*
X173882911Y-147172929D01*
X173978149Y-147363405D01*
X174073387Y-147458643D01*
X174263863Y-147553881D01*
X174549578Y-147553881D01*
X172168625Y-147553881D02*
X172168625Y-146506262D01*
X172263863Y-146315786D01*
X172454340Y-146220548D01*
X172835292Y-146220548D01*
X173025768Y-146315786D01*
X172168625Y-147458643D02*
X172359101Y-147553881D01*
X172835292Y-147553881D01*
X173025768Y-147458643D01*
X173121006Y-147268167D01*
X173121006Y-147077691D01*
X173025768Y-146887215D01*
X172835292Y-146791977D01*
X172359101Y-146791977D01*
X172168625Y-146696739D01*
X171216244Y-147553881D02*
X171216244Y-146220548D01*
X171216244Y-146601500D02*
X171121006Y-146411024D01*
X171025768Y-146315786D01*
X170835292Y-146220548D01*
X170644816Y-146220548D01*
X169121006Y-147553881D02*
X169121006Y-145553881D01*
X169121006Y-147458643D02*
X169311482Y-147553881D01*
X169692435Y-147553881D01*
X169882911Y-147458643D01*
X169978149Y-147363405D01*
X170073387Y-147172929D01*
X170073387Y-146601500D01*
X169978149Y-146411024D01*
X169882911Y-146315786D01*
X169692435Y-146220548D01*
X169311482Y-146220548D01*
X169121006Y-146315786D01*
X206835292Y-150953881D02*
X207501959Y-150001500D01*
X207978149Y-150953881D02*
X207978149Y-148953881D01*
X207216244Y-148953881D01*
X207025768Y-149049120D01*
X206930530Y-149144358D01*
X206835292Y-149334834D01*
X206835292Y-149620548D01*
X206930530Y-149811024D01*
X207025768Y-149906262D01*
X207216244Y-150001500D01*
X207978149Y-150001500D01*
X205216244Y-150858643D02*
X205406720Y-150953881D01*
X205787673Y-150953881D01*
X205978149Y-150858643D01*
X206073387Y-150668167D01*
X206073387Y-149906262D01*
X205978149Y-149715786D01*
X205787673Y-149620548D01*
X205406720Y-149620548D01*
X205216244Y-149715786D01*
X205121006Y-149906262D01*
X205121006Y-150096739D01*
X206073387Y-150287215D01*
X204454340Y-149620548D02*
X203978149Y-150953881D01*
X203501959Y-149620548D01*
X202740054Y-150763405D02*
X202644816Y-150858643D01*
X202740054Y-150953881D01*
X202835292Y-150858643D01*
X202740054Y-150763405D01*
X202740054Y-150953881D01*
X201787673Y-150763405D02*
X201692435Y-150858643D01*
X201787673Y-150953881D01*
X201882911Y-150858643D01*
X201787673Y-150763405D01*
X201787673Y-150953881D01*
X201787673Y-149715786D02*
X201692435Y-149811024D01*
X201787673Y-149906262D01*
X201882911Y-149811024D01*
X201787673Y-149715786D01*
X201787673Y-149906262D01*
X199406720Y-149144358D02*
X199311482Y-149049120D01*
X199121006Y-148953881D01*
X198644816Y-148953881D01*
X198454340Y-149049120D01*
X198359101Y-149144358D01*
X198263863Y-149334834D01*
X198263863Y-149525310D01*
X198359101Y-149811024D01*
X199501959Y-150953881D01*
X198263863Y-150953881D01*
X197025768Y-148953881D02*
X196835292Y-148953881D01*
X196644816Y-149049120D01*
X196549578Y-149144358D01*
X196454340Y-149334834D01*
X196359101Y-149715786D01*
X196359101Y-150191977D01*
X196454340Y-150572929D01*
X196549578Y-150763405D01*
X196644816Y-150858643D01*
X196835292Y-150953881D01*
X197025768Y-150953881D01*
X197216244Y-150858643D01*
X197311482Y-150763405D01*
X197406720Y-150572929D01*
X197501959Y-150191977D01*
X197501959Y-149715786D01*
X197406720Y-149334834D01*
X197311482Y-149144358D01*
X197216244Y-149049120D01*
X197025768Y-148953881D01*
X194454340Y-150953881D02*
X195597197Y-150953881D01*
X195025768Y-150953881D02*
X195025768Y-148953881D01*
X195216244Y-149239596D01*
X195406720Y-149430072D01*
X195597197Y-149525310D01*
X193501959Y-150953881D02*
X193121006Y-150953881D01*
X192930530Y-150858643D01*
X192835292Y-150763405D01*
X192644816Y-150477691D01*
X192549578Y-150096739D01*
X192549578Y-149334834D01*
X192644816Y-149144358D01*
X192740054Y-149049120D01*
X192930530Y-148953881D01*
X193311482Y-148953881D01*
X193501959Y-149049120D01*
X193597197Y-149144358D01*
X193692435Y-149334834D01*
X193692435Y-149811024D01*
X193597197Y-150001500D01*
X193501959Y-150096739D01*
X193311482Y-150191977D01*
X192930530Y-150191977D01*
X192740054Y-150096739D01*
X192644816Y-150001500D01*
X192549578Y-149811024D01*
X191692435Y-150763405D02*
X191597197Y-150858643D01*
X191692435Y-150953881D01*
X191787673Y-150858643D01*
X191692435Y-150763405D01*
X191692435Y-150953881D01*
X190359101Y-148953881D02*
X190168625Y-148953881D01*
X189978149Y-149049120D01*
X189882911Y-149144358D01*
X189787673Y-149334834D01*
X189692435Y-149715786D01*
X189692435Y-150191977D01*
X189787673Y-150572929D01*
X189882911Y-150763405D01*
X189978149Y-150858643D01*
X190168625Y-150953881D01*
X190359101Y-150953881D01*
X190549578Y-150858643D01*
X190644816Y-150763405D01*
X190740054Y-150572929D01*
X190835292Y-150191977D01*
X190835292Y-149715786D01*
X190740054Y-149334834D01*
X190644816Y-149144358D01*
X190549578Y-149049120D01*
X190359101Y-148953881D01*
X187978149Y-149620548D02*
X187978149Y-150953881D01*
X188454340Y-148858643D02*
X188930530Y-150287215D01*
X187692435Y-150287215D01*
X186930530Y-150763405D02*
X186835292Y-150858643D01*
X186930530Y-150953881D01*
X187025768Y-150858643D01*
X186930530Y-150763405D01*
X186930530Y-150953881D01*
X184930530Y-150953881D02*
X186073387Y-150953881D01*
X185501959Y-150953881D02*
X185501959Y-148953881D01*
X185692435Y-149239596D01*
X185882911Y-149430072D01*
X186073387Y-149525310D01*
X183121006Y-148953881D02*
X184073387Y-148953881D01*
X184168625Y-149906262D01*
X184073387Y-149811024D01*
X183882911Y-149715786D01*
X183406720Y-149715786D01*
X183216244Y-149811024D01*
X183121006Y-149906262D01*
X183025768Y-150096739D01*
X183025768Y-150572929D01*
X183121006Y-150763405D01*
X183216244Y-150858643D01*
X183406720Y-150953881D01*
X183882911Y-150953881D01*
X184073387Y-150858643D01*
X184168625Y-150763405D01*
D11*
G04 #@! TO.C,P9*
X83845400Y-46710600D02*
X78765400Y-46710600D01*
X78765400Y-46710600D02*
X78765400Y-44170600D01*
X78765400Y-44170600D02*
X83845400Y-44170600D01*
X86665400Y-43890600D02*
X85115400Y-43890600D01*
X83845400Y-44170600D02*
X83845400Y-46710600D01*
X85115400Y-46990600D02*
X86665400Y-46990600D01*
X86665400Y-46990600D02*
X86665400Y-43890600D01*
D10*
G04 #@! TO.C,G\002A\002A\002A*
G36*
X145769119Y-91236396D02*
X145769140Y-91453719D01*
X145769121Y-91764914D01*
X145769396Y-92029414D01*
X145770461Y-92251324D01*
X145772816Y-92434751D01*
X145776957Y-92583799D01*
X145783381Y-92702572D01*
X145792587Y-92795178D01*
X145805073Y-92865719D01*
X145821335Y-92918303D01*
X145841871Y-92957033D01*
X145867179Y-92986015D01*
X145897757Y-93009354D01*
X145934102Y-93031156D01*
X145962285Y-93047152D01*
X146008485Y-93070834D01*
X146056741Y-93086855D01*
X146118008Y-93096648D01*
X146203242Y-93101647D01*
X146323398Y-93103284D01*
X146391440Y-93103307D01*
X146570356Y-93099734D01*
X146702615Y-93089814D01*
X146786527Y-93073689D01*
X146799100Y-93068992D01*
X146890463Y-93008379D01*
X146968983Y-92919742D01*
X147019215Y-92821827D01*
X147026575Y-92792822D01*
X147029301Y-92752080D01*
X147031582Y-92665642D01*
X147033389Y-92538612D01*
X147034697Y-92376091D01*
X147035478Y-92183183D01*
X147035706Y-91964990D01*
X147035355Y-91726614D01*
X147034397Y-91473159D01*
X147033936Y-91385711D01*
X147032224Y-91092296D01*
X147030565Y-90845401D01*
X147028775Y-90640746D01*
X147026670Y-90474052D01*
X147024066Y-90341039D01*
X147020781Y-90237426D01*
X147016630Y-90158936D01*
X147011430Y-90101287D01*
X147004997Y-90060200D01*
X146997148Y-90031396D01*
X146987699Y-90010595D01*
X146976467Y-89993517D01*
X146974071Y-89990280D01*
X146922246Y-89925484D01*
X146872248Y-89878840D01*
X146814405Y-89847167D01*
X146739048Y-89827284D01*
X146636504Y-89816008D01*
X146497103Y-89810160D01*
X146421429Y-89808482D01*
X146277201Y-89806266D01*
X146173583Y-89806836D01*
X146100414Y-89811316D01*
X146047532Y-89820831D01*
X146004774Y-89836504D01*
X145962285Y-89859282D01*
X145921734Y-89882783D01*
X145887292Y-89904948D01*
X145858459Y-89929889D01*
X145834738Y-89961717D01*
X145815631Y-90004543D01*
X145800640Y-90062478D01*
X145789267Y-90139633D01*
X145781014Y-90240118D01*
X145775383Y-90368046D01*
X145771876Y-90527526D01*
X145769995Y-90722671D01*
X145769242Y-90957591D01*
X145769119Y-91236396D01*
X145769119Y-91236396D01*
G37*
X145769119Y-91236396D02*
X145769140Y-91453719D01*
X145769121Y-91764914D01*
X145769396Y-92029414D01*
X145770461Y-92251324D01*
X145772816Y-92434751D01*
X145776957Y-92583799D01*
X145783381Y-92702572D01*
X145792587Y-92795178D01*
X145805073Y-92865719D01*
X145821335Y-92918303D01*
X145841871Y-92957033D01*
X145867179Y-92986015D01*
X145897757Y-93009354D01*
X145934102Y-93031156D01*
X145962285Y-93047152D01*
X146008485Y-93070834D01*
X146056741Y-93086855D01*
X146118008Y-93096648D01*
X146203242Y-93101647D01*
X146323398Y-93103284D01*
X146391440Y-93103307D01*
X146570356Y-93099734D01*
X146702615Y-93089814D01*
X146786527Y-93073689D01*
X146799100Y-93068992D01*
X146890463Y-93008379D01*
X146968983Y-92919742D01*
X147019215Y-92821827D01*
X147026575Y-92792822D01*
X147029301Y-92752080D01*
X147031582Y-92665642D01*
X147033389Y-92538612D01*
X147034697Y-92376091D01*
X147035478Y-92183183D01*
X147035706Y-91964990D01*
X147035355Y-91726614D01*
X147034397Y-91473159D01*
X147033936Y-91385711D01*
X147032224Y-91092296D01*
X147030565Y-90845401D01*
X147028775Y-90640746D01*
X147026670Y-90474052D01*
X147024066Y-90341039D01*
X147020781Y-90237426D01*
X147016630Y-90158936D01*
X147011430Y-90101287D01*
X147004997Y-90060200D01*
X146997148Y-90031396D01*
X146987699Y-90010595D01*
X146976467Y-89993517D01*
X146974071Y-89990280D01*
X146922246Y-89925484D01*
X146872248Y-89878840D01*
X146814405Y-89847167D01*
X146739048Y-89827284D01*
X146636504Y-89816008D01*
X146497103Y-89810160D01*
X146421429Y-89808482D01*
X146277201Y-89806266D01*
X146173583Y-89806836D01*
X146100414Y-89811316D01*
X146047532Y-89820831D01*
X146004774Y-89836504D01*
X145962285Y-89859282D01*
X145921734Y-89882783D01*
X145887292Y-89904948D01*
X145858459Y-89929889D01*
X145834738Y-89961717D01*
X145815631Y-90004543D01*
X145800640Y-90062478D01*
X145789267Y-90139633D01*
X145781014Y-90240118D01*
X145775383Y-90368046D01*
X145771876Y-90527526D01*
X145769995Y-90722671D01*
X145769242Y-90957591D01*
X145769119Y-91236396D01*
G36*
X142572552Y-85099208D02*
X142573834Y-85454019D01*
X142574431Y-85560920D01*
X142576334Y-85878002D01*
X142578273Y-86148663D01*
X142580704Y-86377280D01*
X142584081Y-86568231D01*
X142588860Y-86725891D01*
X142595495Y-86854639D01*
X142604444Y-86958851D01*
X142616159Y-87042904D01*
X142631098Y-87111177D01*
X142649715Y-87168045D01*
X142672466Y-87217885D01*
X142699805Y-87265076D01*
X142732188Y-87313994D01*
X142761149Y-87356030D01*
X142893968Y-87505137D01*
X143069338Y-87630533D01*
X143153035Y-87669493D01*
X143153035Y-85633281D01*
X143171686Y-85555249D01*
X143218203Y-85470668D01*
X143278760Y-85402005D01*
X143307808Y-85381799D01*
X143394541Y-85357312D01*
X143499031Y-85357029D01*
X143595036Y-85379765D01*
X143627034Y-85396232D01*
X143702144Y-85473594D01*
X143743824Y-85576487D01*
X143746036Y-85687657D01*
X143739166Y-85716577D01*
X143684116Y-85824529D01*
X143599755Y-85899407D01*
X143496702Y-85936777D01*
X143385573Y-85932204D01*
X143303320Y-85898586D01*
X143229181Y-85830254D01*
X143174704Y-85734764D01*
X143153043Y-85635339D01*
X143153035Y-85633281D01*
X143153035Y-87669493D01*
X143284000Y-87730457D01*
X143534694Y-87803150D01*
X143621155Y-87820225D01*
X143679980Y-87825840D01*
X143788377Y-87830765D01*
X143945125Y-87834983D01*
X144149002Y-87838481D01*
X144398784Y-87841245D01*
X144693250Y-87843258D01*
X145031177Y-87844508D01*
X145411342Y-87844978D01*
X145691255Y-87844849D01*
X146064169Y-87844293D01*
X146389713Y-87843443D01*
X146671319Y-87842234D01*
X146912418Y-87840604D01*
X147116439Y-87838489D01*
X147286813Y-87835825D01*
X147426972Y-87832549D01*
X147540344Y-87828597D01*
X147630362Y-87823907D01*
X147700455Y-87818415D01*
X147754055Y-87812057D01*
X147788440Y-87806084D01*
X148021565Y-87738792D01*
X148230373Y-87640171D01*
X148408568Y-87514547D01*
X148549851Y-87366244D01*
X148637329Y-87223225D01*
X148658865Y-87175374D01*
X148677246Y-87127667D01*
X148692698Y-87075881D01*
X148705446Y-87015794D01*
X148715716Y-86943184D01*
X148723732Y-86853828D01*
X148729720Y-86743503D01*
X148733906Y-86607989D01*
X148736515Y-86443062D01*
X148737771Y-86244499D01*
X148737900Y-86008080D01*
X148737128Y-85729580D01*
X148735680Y-85404778D01*
X148735568Y-85382027D01*
X148734001Y-85070296D01*
X148732508Y-84805156D01*
X148730922Y-84582398D01*
X148729071Y-84397812D01*
X148726789Y-84247191D01*
X148723905Y-84126325D01*
X148720251Y-84031006D01*
X148715659Y-83957025D01*
X148709959Y-83900172D01*
X148702982Y-83856240D01*
X148694560Y-83821020D01*
X148684524Y-83790302D01*
X148672704Y-83759877D01*
X148670243Y-83753783D01*
X148568163Y-83568035D01*
X148423688Y-83408443D01*
X148239049Y-83276886D01*
X148016474Y-83175245D01*
X147962225Y-83156954D01*
X147824183Y-83122562D01*
X147647208Y-83093079D01*
X147443038Y-83069806D01*
X147223412Y-83054043D01*
X147000068Y-83047091D01*
X146969290Y-83046896D01*
X146785140Y-83046320D01*
X146785140Y-83770220D01*
X146785623Y-83990790D01*
X146787199Y-84164970D01*
X146790061Y-84297163D01*
X146794403Y-84391772D01*
X146800417Y-84453198D01*
X146808297Y-84485844D01*
X146816890Y-84494261D01*
X146934526Y-84516888D01*
X147056727Y-84577349D01*
X147169996Y-84665999D01*
X147260833Y-84773192D01*
X147296553Y-84837020D01*
X147310340Y-84871819D01*
X147321118Y-84912768D01*
X147329247Y-84966220D01*
X147335089Y-85038528D01*
X147339006Y-85136046D01*
X147341360Y-85265128D01*
X147342512Y-85432127D01*
X147342825Y-85643398D01*
X147342825Y-85649820D01*
X147342530Y-85862383D01*
X147341406Y-86030502D01*
X147339089Y-86160530D01*
X147335220Y-86258823D01*
X147329434Y-86331732D01*
X147321372Y-86385612D01*
X147310672Y-86426817D01*
X147296970Y-86461700D01*
X147296553Y-86462620D01*
X147230509Y-86566695D01*
X147136466Y-86664368D01*
X147030615Y-86741070D01*
X146945688Y-86778288D01*
X146880781Y-86788522D01*
X146776248Y-86796240D01*
X146643203Y-86801440D01*
X146492758Y-86804123D01*
X146336026Y-86804289D01*
X146184119Y-86801937D01*
X146048150Y-86797068D01*
X145939230Y-86789682D01*
X145868474Y-86779778D01*
X145862593Y-86778288D01*
X145759211Y-86729933D01*
X145654245Y-86648560D01*
X145563888Y-86548737D01*
X145511728Y-86462620D01*
X145497941Y-86427820D01*
X145487163Y-86386871D01*
X145479034Y-86333419D01*
X145473192Y-86261111D01*
X145469275Y-86163593D01*
X145466921Y-86034511D01*
X145465769Y-85867512D01*
X145465456Y-85656241D01*
X145465456Y-85649820D01*
X145465751Y-85437256D01*
X145466875Y-85269137D01*
X145469192Y-85139109D01*
X145473061Y-85040816D01*
X145478847Y-84967907D01*
X145486909Y-84914027D01*
X145497609Y-84872822D01*
X145511311Y-84837939D01*
X145511728Y-84837020D01*
X145584330Y-84723706D01*
X145686841Y-84623592D01*
X145805761Y-84546324D01*
X145927593Y-84501547D01*
X145991390Y-84494261D01*
X146001045Y-84483230D01*
X146008674Y-84447301D01*
X146014468Y-84382081D01*
X146018619Y-84283175D01*
X146021319Y-84146188D01*
X146022761Y-83966727D01*
X146023140Y-83767094D01*
X146023140Y-83040069D01*
X144861090Y-83053586D01*
X144562169Y-83057305D01*
X144308904Y-83061303D01*
X144096154Y-83066128D01*
X143918778Y-83072328D01*
X143771632Y-83080453D01*
X143649575Y-83091050D01*
X143547465Y-83104668D01*
X143460159Y-83121854D01*
X143382515Y-83143159D01*
X143309392Y-83169130D01*
X143235647Y-83200315D01*
X143161131Y-83234889D01*
X142963734Y-83352115D01*
X142808312Y-83497322D01*
X142693187Y-83672734D01*
X142616683Y-83880573D01*
X142594263Y-83986120D01*
X142587093Y-84054805D01*
X142581358Y-84169129D01*
X142577046Y-84329912D01*
X142574148Y-84537974D01*
X142572654Y-84794133D01*
X142572552Y-85099208D01*
X142572552Y-85099208D01*
G37*
X142572552Y-85099208D02*
X142573834Y-85454019D01*
X142574431Y-85560920D01*
X142576334Y-85878002D01*
X142578273Y-86148663D01*
X142580704Y-86377280D01*
X142584081Y-86568231D01*
X142588860Y-86725891D01*
X142595495Y-86854639D01*
X142604444Y-86958851D01*
X142616159Y-87042904D01*
X142631098Y-87111177D01*
X142649715Y-87168045D01*
X142672466Y-87217885D01*
X142699805Y-87265076D01*
X142732188Y-87313994D01*
X142761149Y-87356030D01*
X142893968Y-87505137D01*
X143069338Y-87630533D01*
X143153035Y-87669493D01*
X143153035Y-85633281D01*
X143171686Y-85555249D01*
X143218203Y-85470668D01*
X143278760Y-85402005D01*
X143307808Y-85381799D01*
X143394541Y-85357312D01*
X143499031Y-85357029D01*
X143595036Y-85379765D01*
X143627034Y-85396232D01*
X143702144Y-85473594D01*
X143743824Y-85576487D01*
X143746036Y-85687657D01*
X143739166Y-85716577D01*
X143684116Y-85824529D01*
X143599755Y-85899407D01*
X143496702Y-85936777D01*
X143385573Y-85932204D01*
X143303320Y-85898586D01*
X143229181Y-85830254D01*
X143174704Y-85734764D01*
X143153043Y-85635339D01*
X143153035Y-85633281D01*
X143153035Y-87669493D01*
X143284000Y-87730457D01*
X143534694Y-87803150D01*
X143621155Y-87820225D01*
X143679980Y-87825840D01*
X143788377Y-87830765D01*
X143945125Y-87834983D01*
X144149002Y-87838481D01*
X144398784Y-87841245D01*
X144693250Y-87843258D01*
X145031177Y-87844508D01*
X145411342Y-87844978D01*
X145691255Y-87844849D01*
X146064169Y-87844293D01*
X146389713Y-87843443D01*
X146671319Y-87842234D01*
X146912418Y-87840604D01*
X147116439Y-87838489D01*
X147286813Y-87835825D01*
X147426972Y-87832549D01*
X147540344Y-87828597D01*
X147630362Y-87823907D01*
X147700455Y-87818415D01*
X147754055Y-87812057D01*
X147788440Y-87806084D01*
X148021565Y-87738792D01*
X148230373Y-87640171D01*
X148408568Y-87514547D01*
X148549851Y-87366244D01*
X148637329Y-87223225D01*
X148658865Y-87175374D01*
X148677246Y-87127667D01*
X148692698Y-87075881D01*
X148705446Y-87015794D01*
X148715716Y-86943184D01*
X148723732Y-86853828D01*
X148729720Y-86743503D01*
X148733906Y-86607989D01*
X148736515Y-86443062D01*
X148737771Y-86244499D01*
X148737900Y-86008080D01*
X148737128Y-85729580D01*
X148735680Y-85404778D01*
X148735568Y-85382027D01*
X148734001Y-85070296D01*
X148732508Y-84805156D01*
X148730922Y-84582398D01*
X148729071Y-84397812D01*
X148726789Y-84247191D01*
X148723905Y-84126325D01*
X148720251Y-84031006D01*
X148715659Y-83957025D01*
X148709959Y-83900172D01*
X148702982Y-83856240D01*
X148694560Y-83821020D01*
X148684524Y-83790302D01*
X148672704Y-83759877D01*
X148670243Y-83753783D01*
X148568163Y-83568035D01*
X148423688Y-83408443D01*
X148239049Y-83276886D01*
X148016474Y-83175245D01*
X147962225Y-83156954D01*
X147824183Y-83122562D01*
X147647208Y-83093079D01*
X147443038Y-83069806D01*
X147223412Y-83054043D01*
X147000068Y-83047091D01*
X146969290Y-83046896D01*
X146785140Y-83046320D01*
X146785140Y-83770220D01*
X146785623Y-83990790D01*
X146787199Y-84164970D01*
X146790061Y-84297163D01*
X146794403Y-84391772D01*
X146800417Y-84453198D01*
X146808297Y-84485844D01*
X146816890Y-84494261D01*
X146934526Y-84516888D01*
X147056727Y-84577349D01*
X147169996Y-84665999D01*
X147260833Y-84773192D01*
X147296553Y-84837020D01*
X147310340Y-84871819D01*
X147321118Y-84912768D01*
X147329247Y-84966220D01*
X147335089Y-85038528D01*
X147339006Y-85136046D01*
X147341360Y-85265128D01*
X147342512Y-85432127D01*
X147342825Y-85643398D01*
X147342825Y-85649820D01*
X147342530Y-85862383D01*
X147341406Y-86030502D01*
X147339089Y-86160530D01*
X147335220Y-86258823D01*
X147329434Y-86331732D01*
X147321372Y-86385612D01*
X147310672Y-86426817D01*
X147296970Y-86461700D01*
X147296553Y-86462620D01*
X147230509Y-86566695D01*
X147136466Y-86664368D01*
X147030615Y-86741070D01*
X146945688Y-86778288D01*
X146880781Y-86788522D01*
X146776248Y-86796240D01*
X146643203Y-86801440D01*
X146492758Y-86804123D01*
X146336026Y-86804289D01*
X146184119Y-86801937D01*
X146048150Y-86797068D01*
X145939230Y-86789682D01*
X145868474Y-86779778D01*
X145862593Y-86778288D01*
X145759211Y-86729933D01*
X145654245Y-86648560D01*
X145563888Y-86548737D01*
X145511728Y-86462620D01*
X145497941Y-86427820D01*
X145487163Y-86386871D01*
X145479034Y-86333419D01*
X145473192Y-86261111D01*
X145469275Y-86163593D01*
X145466921Y-86034511D01*
X145465769Y-85867512D01*
X145465456Y-85656241D01*
X145465456Y-85649820D01*
X145465751Y-85437256D01*
X145466875Y-85269137D01*
X145469192Y-85139109D01*
X145473061Y-85040816D01*
X145478847Y-84967907D01*
X145486909Y-84914027D01*
X145497609Y-84872822D01*
X145511311Y-84837939D01*
X145511728Y-84837020D01*
X145584330Y-84723706D01*
X145686841Y-84623592D01*
X145805761Y-84546324D01*
X145927593Y-84501547D01*
X145991390Y-84494261D01*
X146001045Y-84483230D01*
X146008674Y-84447301D01*
X146014468Y-84382081D01*
X146018619Y-84283175D01*
X146021319Y-84146188D01*
X146022761Y-83966727D01*
X146023140Y-83767094D01*
X146023140Y-83040069D01*
X144861090Y-83053586D01*
X144562169Y-83057305D01*
X144308904Y-83061303D01*
X144096154Y-83066128D01*
X143918778Y-83072328D01*
X143771632Y-83080453D01*
X143649575Y-83091050D01*
X143547465Y-83104668D01*
X143460159Y-83121854D01*
X143382515Y-83143159D01*
X143309392Y-83169130D01*
X143235647Y-83200315D01*
X143161131Y-83234889D01*
X142963734Y-83352115D01*
X142808312Y-83497322D01*
X142693187Y-83672734D01*
X142616683Y-83880573D01*
X142594263Y-83986120D01*
X142587093Y-84054805D01*
X142581358Y-84169129D01*
X142577046Y-84329912D01*
X142574148Y-84537974D01*
X142572654Y-84794133D01*
X142572552Y-85099208D01*
G36*
X141708260Y-90583301D02*
X141708504Y-90870235D01*
X141709591Y-91200756D01*
X141711087Y-91535785D01*
X141712813Y-91882634D01*
X141714530Y-92182449D01*
X141716343Y-92438995D01*
X141718360Y-92656038D01*
X141720687Y-92837345D01*
X141723431Y-92986680D01*
X141726699Y-93107810D01*
X141730597Y-93204500D01*
X141735231Y-93280516D01*
X141740709Y-93339623D01*
X141747137Y-93385588D01*
X141754621Y-93422176D01*
X141763269Y-93453152D01*
X141765578Y-93460320D01*
X141866996Y-93700695D01*
X142002736Y-93907169D01*
X142174872Y-94081571D01*
X142385476Y-94225735D01*
X142636620Y-94341492D01*
X142835440Y-94405986D01*
X142876893Y-94417538D01*
X142876893Y-90710900D01*
X142877556Y-90407478D01*
X142879238Y-90153753D01*
X142881942Y-89949359D01*
X142885673Y-89793931D01*
X142890434Y-89687106D01*
X142896229Y-89628518D01*
X142897841Y-89621359D01*
X142935054Y-89545605D01*
X142997349Y-89465587D01*
X143025074Y-89438224D01*
X143055788Y-89410206D01*
X143084269Y-89385439D01*
X143113677Y-89363733D01*
X143147171Y-89344896D01*
X143187909Y-89328737D01*
X143239051Y-89315066D01*
X143303755Y-89303690D01*
X143385180Y-89294419D01*
X143486486Y-89287062D01*
X143610831Y-89281427D01*
X143761375Y-89277323D01*
X143941276Y-89274560D01*
X144153693Y-89272946D01*
X144401786Y-89272290D01*
X144688713Y-89272401D01*
X145017633Y-89273087D01*
X145391705Y-89274158D01*
X145720287Y-89275147D01*
X148042440Y-89282020D01*
X148181802Y-89358220D01*
X148288666Y-89429270D01*
X148362688Y-89512222D01*
X148385002Y-89548720D01*
X148448840Y-89663020D01*
X148456065Y-91337529D01*
X148457357Y-91726942D01*
X148457644Y-92066790D01*
X148456912Y-92358300D01*
X148455148Y-92602696D01*
X148452337Y-92801205D01*
X148448465Y-92955052D01*
X148443518Y-93065464D01*
X148437481Y-93133665D01*
X148435162Y-93147533D01*
X148386871Y-93289282D01*
X148305104Y-93399670D01*
X148185705Y-93482383D01*
X148024521Y-93541104D01*
X147978940Y-93552085D01*
X147929464Y-93557396D01*
X147833831Y-93562301D01*
X147696681Y-93566791D01*
X147522656Y-93570857D01*
X147316396Y-93574488D01*
X147082543Y-93577676D01*
X146825737Y-93580411D01*
X146550620Y-93582682D01*
X146261832Y-93584482D01*
X145964015Y-93585800D01*
X145661809Y-93586626D01*
X145359856Y-93586952D01*
X145062796Y-93586767D01*
X144775271Y-93586062D01*
X144501921Y-93584827D01*
X144247388Y-93583053D01*
X144016313Y-93580731D01*
X143813336Y-93577851D01*
X143643098Y-93574403D01*
X143510241Y-93570377D01*
X143419405Y-93565765D01*
X143379545Y-93561541D01*
X143195813Y-93509248D01*
X143053553Y-93430239D01*
X142954415Y-93325763D01*
X142886240Y-93222760D01*
X142878608Y-91468290D01*
X142877244Y-91064382D01*
X142876893Y-90710900D01*
X142876893Y-94417538D01*
X143038640Y-94462614D01*
X145565940Y-94466833D01*
X145923392Y-94467204D01*
X146268818Y-94467124D01*
X146598529Y-94466617D01*
X146908838Y-94465709D01*
X147196055Y-94464426D01*
X147456493Y-94462791D01*
X147686461Y-94460831D01*
X147882273Y-94458569D01*
X148040240Y-94456033D01*
X148156672Y-94453245D01*
X148227881Y-94450233D01*
X148245640Y-94448611D01*
X148527288Y-94388718D01*
X148784025Y-94297119D01*
X149011135Y-94176710D01*
X149203898Y-94030385D01*
X149357596Y-93861037D01*
X149449705Y-93710017D01*
X149477999Y-93651511D01*
X149502595Y-93596537D01*
X149523753Y-93541236D01*
X149541731Y-93481752D01*
X149556788Y-93414225D01*
X149569184Y-93334798D01*
X149579175Y-93239614D01*
X149587023Y-93124815D01*
X149592985Y-92986542D01*
X149597321Y-92820938D01*
X149600288Y-92624146D01*
X149602147Y-92392307D01*
X149603156Y-92121564D01*
X149603573Y-91808058D01*
X149603658Y-91447933D01*
X149603658Y-91415620D01*
X149603502Y-91059123D01*
X149602987Y-90749771D01*
X149602043Y-90483909D01*
X149600600Y-90257882D01*
X149598587Y-90068035D01*
X149595934Y-89910714D01*
X149592571Y-89782263D01*
X149588428Y-89679029D01*
X149583435Y-89597356D01*
X149577521Y-89533590D01*
X149570616Y-89484076D01*
X149566090Y-89460263D01*
X149491407Y-89218385D01*
X149375894Y-89005882D01*
X149219269Y-88822503D01*
X149021246Y-88668001D01*
X148781543Y-88542128D01*
X148499874Y-88444634D01*
X148367560Y-88411770D01*
X148331643Y-88404476D01*
X148291188Y-88398025D01*
X148243035Y-88392367D01*
X148184023Y-88387450D01*
X148110992Y-88383223D01*
X148020783Y-88379634D01*
X147910233Y-88376634D01*
X147776183Y-88374170D01*
X147615472Y-88372191D01*
X147424940Y-88370646D01*
X147201427Y-88369484D01*
X146941772Y-88368654D01*
X146642814Y-88368104D01*
X146301394Y-88367783D01*
X145914350Y-88367641D01*
X145642140Y-88367620D01*
X143114840Y-88367620D01*
X142877467Y-88427455D01*
X142599893Y-88516371D01*
X142356729Y-88633575D01*
X142151034Y-88776897D01*
X141985869Y-88944164D01*
X141864295Y-89133204D01*
X141854742Y-89153031D01*
X141826947Y-89214102D01*
X141802752Y-89273040D01*
X141781927Y-89333655D01*
X141764242Y-89399757D01*
X141749468Y-89475156D01*
X141737376Y-89563661D01*
X141727734Y-89669084D01*
X141720315Y-89795234D01*
X141714887Y-89945921D01*
X141711222Y-90124954D01*
X141709090Y-90336144D01*
X141708260Y-90583301D01*
X141708260Y-90583301D01*
G37*
X141708260Y-90583301D02*
X141708504Y-90870235D01*
X141709591Y-91200756D01*
X141711087Y-91535785D01*
X141712813Y-91882634D01*
X141714530Y-92182449D01*
X141716343Y-92438995D01*
X141718360Y-92656038D01*
X141720687Y-92837345D01*
X141723431Y-92986680D01*
X141726699Y-93107810D01*
X141730597Y-93204500D01*
X141735231Y-93280516D01*
X141740709Y-93339623D01*
X141747137Y-93385588D01*
X141754621Y-93422176D01*
X141763269Y-93453152D01*
X141765578Y-93460320D01*
X141866996Y-93700695D01*
X142002736Y-93907169D01*
X142174872Y-94081571D01*
X142385476Y-94225735D01*
X142636620Y-94341492D01*
X142835440Y-94405986D01*
X142876893Y-94417538D01*
X142876893Y-90710900D01*
X142877556Y-90407478D01*
X142879238Y-90153753D01*
X142881942Y-89949359D01*
X142885673Y-89793931D01*
X142890434Y-89687106D01*
X142896229Y-89628518D01*
X142897841Y-89621359D01*
X142935054Y-89545605D01*
X142997349Y-89465587D01*
X143025074Y-89438224D01*
X143055788Y-89410206D01*
X143084269Y-89385439D01*
X143113677Y-89363733D01*
X143147171Y-89344896D01*
X143187909Y-89328737D01*
X143239051Y-89315066D01*
X143303755Y-89303690D01*
X143385180Y-89294419D01*
X143486486Y-89287062D01*
X143610831Y-89281427D01*
X143761375Y-89277323D01*
X143941276Y-89274560D01*
X144153693Y-89272946D01*
X144401786Y-89272290D01*
X144688713Y-89272401D01*
X145017633Y-89273087D01*
X145391705Y-89274158D01*
X145720287Y-89275147D01*
X148042440Y-89282020D01*
X148181802Y-89358220D01*
X148288666Y-89429270D01*
X148362688Y-89512222D01*
X148385002Y-89548720D01*
X148448840Y-89663020D01*
X148456065Y-91337529D01*
X148457357Y-91726942D01*
X148457644Y-92066790D01*
X148456912Y-92358300D01*
X148455148Y-92602696D01*
X148452337Y-92801205D01*
X148448465Y-92955052D01*
X148443518Y-93065464D01*
X148437481Y-93133665D01*
X148435162Y-93147533D01*
X148386871Y-93289282D01*
X148305104Y-93399670D01*
X148185705Y-93482383D01*
X148024521Y-93541104D01*
X147978940Y-93552085D01*
X147929464Y-93557396D01*
X147833831Y-93562301D01*
X147696681Y-93566791D01*
X147522656Y-93570857D01*
X147316396Y-93574488D01*
X147082543Y-93577676D01*
X146825737Y-93580411D01*
X146550620Y-93582682D01*
X146261832Y-93584482D01*
X145964015Y-93585800D01*
X145661809Y-93586626D01*
X145359856Y-93586952D01*
X145062796Y-93586767D01*
X144775271Y-93586062D01*
X144501921Y-93584827D01*
X144247388Y-93583053D01*
X144016313Y-93580731D01*
X143813336Y-93577851D01*
X143643098Y-93574403D01*
X143510241Y-93570377D01*
X143419405Y-93565765D01*
X143379545Y-93561541D01*
X143195813Y-93509248D01*
X143053553Y-93430239D01*
X142954415Y-93325763D01*
X142886240Y-93222760D01*
X142878608Y-91468290D01*
X142877244Y-91064382D01*
X142876893Y-90710900D01*
X142876893Y-94417538D01*
X143038640Y-94462614D01*
X145565940Y-94466833D01*
X145923392Y-94467204D01*
X146268818Y-94467124D01*
X146598529Y-94466617D01*
X146908838Y-94465709D01*
X147196055Y-94464426D01*
X147456493Y-94462791D01*
X147686461Y-94460831D01*
X147882273Y-94458569D01*
X148040240Y-94456033D01*
X148156672Y-94453245D01*
X148227881Y-94450233D01*
X148245640Y-94448611D01*
X148527288Y-94388718D01*
X148784025Y-94297119D01*
X149011135Y-94176710D01*
X149203898Y-94030385D01*
X149357596Y-93861037D01*
X149449705Y-93710017D01*
X149477999Y-93651511D01*
X149502595Y-93596537D01*
X149523753Y-93541236D01*
X149541731Y-93481752D01*
X149556788Y-93414225D01*
X149569184Y-93334798D01*
X149579175Y-93239614D01*
X149587023Y-93124815D01*
X149592985Y-92986542D01*
X149597321Y-92820938D01*
X149600288Y-92624146D01*
X149602147Y-92392307D01*
X149603156Y-92121564D01*
X149603573Y-91808058D01*
X149603658Y-91447933D01*
X149603658Y-91415620D01*
X149603502Y-91059123D01*
X149602987Y-90749771D01*
X149602043Y-90483909D01*
X149600600Y-90257882D01*
X149598587Y-90068035D01*
X149595934Y-89910714D01*
X149592571Y-89782263D01*
X149588428Y-89679029D01*
X149583435Y-89597356D01*
X149577521Y-89533590D01*
X149570616Y-89484076D01*
X149566090Y-89460263D01*
X149491407Y-89218385D01*
X149375894Y-89005882D01*
X149219269Y-88822503D01*
X149021246Y-88668001D01*
X148781543Y-88542128D01*
X148499874Y-88444634D01*
X148367560Y-88411770D01*
X148331643Y-88404476D01*
X148291188Y-88398025D01*
X148243035Y-88392367D01*
X148184023Y-88387450D01*
X148110992Y-88383223D01*
X148020783Y-88379634D01*
X147910233Y-88376634D01*
X147776183Y-88374170D01*
X147615472Y-88372191D01*
X147424940Y-88370646D01*
X147201427Y-88369484D01*
X146941772Y-88368654D01*
X146642814Y-88368104D01*
X146301394Y-88367783D01*
X145914350Y-88367641D01*
X145642140Y-88367620D01*
X143114840Y-88367620D01*
X142877467Y-88427455D01*
X142599893Y-88516371D01*
X142356729Y-88633575D01*
X142151034Y-88776897D01*
X141985869Y-88944164D01*
X141864295Y-89133204D01*
X141854742Y-89153031D01*
X141826947Y-89214102D01*
X141802752Y-89273040D01*
X141781927Y-89333655D01*
X141764242Y-89399757D01*
X141749468Y-89475156D01*
X141737376Y-89563661D01*
X141727734Y-89669084D01*
X141720315Y-89795234D01*
X141714887Y-89945921D01*
X141711222Y-90124954D01*
X141709090Y-90336144D01*
X141708260Y-90583301D01*
G36*
X136698425Y-88926420D02*
X136709070Y-89416365D01*
X136741585Y-89875561D01*
X136797932Y-90319993D01*
X136880074Y-90765646D01*
X136972725Y-91161620D01*
X137160045Y-91795936D01*
X137392876Y-92410298D01*
X137669205Y-93002696D01*
X137987017Y-93571116D01*
X138030943Y-93637805D01*
X138030943Y-89180420D01*
X138033978Y-88562540D01*
X138085945Y-87953748D01*
X138185421Y-87356412D01*
X138330986Y-86772899D01*
X138521216Y-86205578D01*
X138754690Y-85656817D01*
X139029985Y-85128984D01*
X139345681Y-84624446D01*
X139700354Y-84145573D01*
X140092583Y-83694732D01*
X140520947Y-83274290D01*
X140984022Y-82886617D01*
X141480387Y-82534080D01*
X142008620Y-82219048D01*
X142302040Y-82067596D01*
X142801830Y-81841741D01*
X143294887Y-81658375D01*
X143793615Y-81513879D01*
X144310416Y-81404634D01*
X144829340Y-81330216D01*
X145059495Y-81310746D01*
X145325738Y-81299526D01*
X145614447Y-81296291D01*
X145911997Y-81300777D01*
X146204766Y-81312717D01*
X146479129Y-81331846D01*
X146721462Y-81357899D01*
X146795473Y-81368494D01*
X147385002Y-81483121D01*
X147958778Y-81642925D01*
X148522836Y-81849825D01*
X149033040Y-82080785D01*
X149574940Y-82375807D01*
X150085986Y-82709702D01*
X150564728Y-83080048D01*
X151009714Y-83484426D01*
X151419494Y-83920414D01*
X151792618Y-84385591D01*
X152127636Y-84877536D01*
X152423096Y-85393828D01*
X152677547Y-85932047D01*
X152889541Y-86489772D01*
X153057625Y-87064581D01*
X153180349Y-87654054D01*
X153256263Y-88255770D01*
X153283916Y-88867308D01*
X153279481Y-89167720D01*
X153235905Y-89783455D01*
X153147687Y-90377507D01*
X153013678Y-90954442D01*
X152832728Y-91518827D01*
X152603688Y-92075226D01*
X152485293Y-92322878D01*
X152230083Y-92796549D01*
X151952203Y-93236120D01*
X151644503Y-93651306D01*
X151299831Y-94051821D01*
X150946897Y-94412820D01*
X150480568Y-94829944D01*
X149987474Y-95204216D01*
X149468840Y-95534922D01*
X148925890Y-95821347D01*
X148359849Y-96062778D01*
X147792687Y-96252485D01*
X147549366Y-96319893D01*
X147315836Y-96376543D01*
X147080373Y-96424566D01*
X146831254Y-96466091D01*
X146556756Y-96503248D01*
X146245155Y-96538166D01*
X146188240Y-96543974D01*
X146096785Y-96549145D01*
X145964612Y-96551205D01*
X145801687Y-96550467D01*
X145617975Y-96547247D01*
X145423444Y-96541859D01*
X145228059Y-96534617D01*
X145041787Y-96525836D01*
X144874592Y-96515831D01*
X144736443Y-96504916D01*
X144651540Y-96495468D01*
X144030020Y-96385197D01*
X143427735Y-96228031D01*
X142845801Y-96024533D01*
X142285331Y-95775265D01*
X141747440Y-95480791D01*
X141233242Y-95141674D01*
X140743852Y-94758476D01*
X140280384Y-94331760D01*
X140192945Y-94243345D01*
X139855036Y-93877312D01*
X139557202Y-93511994D01*
X139290460Y-93134926D01*
X139045825Y-92733640D01*
X138871878Y-92410115D01*
X138615504Y-91862924D01*
X138407608Y-91317033D01*
X138246479Y-90765876D01*
X138130408Y-90202887D01*
X138057685Y-89621499D01*
X138030943Y-89180420D01*
X138030943Y-93637805D01*
X138344298Y-94113545D01*
X138739034Y-94627973D01*
X139169210Y-95112386D01*
X139632812Y-95564772D01*
X140127826Y-95983119D01*
X140652236Y-96365415D01*
X141204029Y-96709647D01*
X141781191Y-97013803D01*
X142381706Y-97275871D01*
X143003561Y-97493839D01*
X143432340Y-97614509D01*
X144014743Y-97740569D01*
X144618610Y-97829577D01*
X145229910Y-97880180D01*
X145834614Y-97891028D01*
X146175835Y-97878627D01*
X146698095Y-97831551D01*
X147234010Y-97751175D01*
X147763606Y-97641045D01*
X148245640Y-97511194D01*
X148878361Y-97293282D01*
X149487840Y-97031372D01*
X150072280Y-96727438D01*
X150629883Y-96383453D01*
X151158853Y-96001392D01*
X151657393Y-95583228D01*
X152123705Y-95130934D01*
X152555993Y-94646485D01*
X152952459Y-94131855D01*
X153311307Y-93589016D01*
X153630739Y-93019943D01*
X153908958Y-92426609D01*
X154144167Y-91810988D01*
X154334570Y-91175055D01*
X154443168Y-90704420D01*
X154547415Y-90064432D01*
X154604370Y-89411042D01*
X154614090Y-88749260D01*
X154576629Y-88084096D01*
X154492043Y-87420558D01*
X154401687Y-86945220D01*
X154351510Y-86737535D01*
X154285281Y-86498334D01*
X154207739Y-86242452D01*
X154123621Y-85984722D01*
X154037667Y-85739980D01*
X153954617Y-85523059D01*
X153922938Y-85446620D01*
X153635376Y-84834450D01*
X153308449Y-84252584D01*
X152944267Y-83702210D01*
X152544944Y-83184515D01*
X152112590Y-82700686D01*
X151649319Y-82251911D01*
X151157241Y-81839376D01*
X150638470Y-81464270D01*
X150095116Y-81127780D01*
X149529293Y-80831093D01*
X148943111Y-80575396D01*
X148338684Y-80361878D01*
X147718123Y-80191724D01*
X147083539Y-80066124D01*
X146437046Y-79986263D01*
X145780755Y-79953330D01*
X145116779Y-79968511D01*
X144447228Y-80032995D01*
X144324294Y-80050221D01*
X143673701Y-80170930D01*
X143040063Y-80338292D01*
X142425280Y-80550444D01*
X141831248Y-80805522D01*
X141259866Y-81101662D01*
X140713032Y-81437000D01*
X140192644Y-81809673D01*
X139700600Y-82217817D01*
X139238798Y-82659569D01*
X138809136Y-83133064D01*
X138413512Y-83636439D01*
X138053824Y-84167830D01*
X137731970Y-84725374D01*
X137449849Y-85307207D01*
X137209358Y-85911464D01*
X137012395Y-86536283D01*
X136860858Y-87179800D01*
X136816722Y-87422033D01*
X136774020Y-87694758D01*
X136742169Y-87945332D01*
X136719944Y-88189332D01*
X136706120Y-88442332D01*
X136699474Y-88719908D01*
X136698425Y-88926420D01*
X136698425Y-88926420D01*
G37*
X136698425Y-88926420D02*
X136709070Y-89416365D01*
X136741585Y-89875561D01*
X136797932Y-90319993D01*
X136880074Y-90765646D01*
X136972725Y-91161620D01*
X137160045Y-91795936D01*
X137392876Y-92410298D01*
X137669205Y-93002696D01*
X137987017Y-93571116D01*
X138030943Y-93637805D01*
X138030943Y-89180420D01*
X138033978Y-88562540D01*
X138085945Y-87953748D01*
X138185421Y-87356412D01*
X138330986Y-86772899D01*
X138521216Y-86205578D01*
X138754690Y-85656817D01*
X139029985Y-85128984D01*
X139345681Y-84624446D01*
X139700354Y-84145573D01*
X140092583Y-83694732D01*
X140520947Y-83274290D01*
X140984022Y-82886617D01*
X141480387Y-82534080D01*
X142008620Y-82219048D01*
X142302040Y-82067596D01*
X142801830Y-81841741D01*
X143294887Y-81658375D01*
X143793615Y-81513879D01*
X144310416Y-81404634D01*
X144829340Y-81330216D01*
X145059495Y-81310746D01*
X145325738Y-81299526D01*
X145614447Y-81296291D01*
X145911997Y-81300777D01*
X146204766Y-81312717D01*
X146479129Y-81331846D01*
X146721462Y-81357899D01*
X146795473Y-81368494D01*
X147385002Y-81483121D01*
X147958778Y-81642925D01*
X148522836Y-81849825D01*
X149033040Y-82080785D01*
X149574940Y-82375807D01*
X150085986Y-82709702D01*
X150564728Y-83080048D01*
X151009714Y-83484426D01*
X151419494Y-83920414D01*
X151792618Y-84385591D01*
X152127636Y-84877536D01*
X152423096Y-85393828D01*
X152677547Y-85932047D01*
X152889541Y-86489772D01*
X153057625Y-87064581D01*
X153180349Y-87654054D01*
X153256263Y-88255770D01*
X153283916Y-88867308D01*
X153279481Y-89167720D01*
X153235905Y-89783455D01*
X153147687Y-90377507D01*
X153013678Y-90954442D01*
X152832728Y-91518827D01*
X152603688Y-92075226D01*
X152485293Y-92322878D01*
X152230083Y-92796549D01*
X151952203Y-93236120D01*
X151644503Y-93651306D01*
X151299831Y-94051821D01*
X150946897Y-94412820D01*
X150480568Y-94829944D01*
X149987474Y-95204216D01*
X149468840Y-95534922D01*
X148925890Y-95821347D01*
X148359849Y-96062778D01*
X147792687Y-96252485D01*
X147549366Y-96319893D01*
X147315836Y-96376543D01*
X147080373Y-96424566D01*
X146831254Y-96466091D01*
X146556756Y-96503248D01*
X146245155Y-96538166D01*
X146188240Y-96543974D01*
X146096785Y-96549145D01*
X145964612Y-96551205D01*
X145801687Y-96550467D01*
X145617975Y-96547247D01*
X145423444Y-96541859D01*
X145228059Y-96534617D01*
X145041787Y-96525836D01*
X144874592Y-96515831D01*
X144736443Y-96504916D01*
X144651540Y-96495468D01*
X144030020Y-96385197D01*
X143427735Y-96228031D01*
X142845801Y-96024533D01*
X142285331Y-95775265D01*
X141747440Y-95480791D01*
X141233242Y-95141674D01*
X140743852Y-94758476D01*
X140280384Y-94331760D01*
X140192945Y-94243345D01*
X139855036Y-93877312D01*
X139557202Y-93511994D01*
X139290460Y-93134926D01*
X139045825Y-92733640D01*
X138871878Y-92410115D01*
X138615504Y-91862924D01*
X138407608Y-91317033D01*
X138246479Y-90765876D01*
X138130408Y-90202887D01*
X138057685Y-89621499D01*
X138030943Y-89180420D01*
X138030943Y-93637805D01*
X138344298Y-94113545D01*
X138739034Y-94627973D01*
X139169210Y-95112386D01*
X139632812Y-95564772D01*
X140127826Y-95983119D01*
X140652236Y-96365415D01*
X141204029Y-96709647D01*
X141781191Y-97013803D01*
X142381706Y-97275871D01*
X143003561Y-97493839D01*
X143432340Y-97614509D01*
X144014743Y-97740569D01*
X144618610Y-97829577D01*
X145229910Y-97880180D01*
X145834614Y-97891028D01*
X146175835Y-97878627D01*
X146698095Y-97831551D01*
X147234010Y-97751175D01*
X147763606Y-97641045D01*
X148245640Y-97511194D01*
X148878361Y-97293282D01*
X149487840Y-97031372D01*
X150072280Y-96727438D01*
X150629883Y-96383453D01*
X151158853Y-96001392D01*
X151657393Y-95583228D01*
X152123705Y-95130934D01*
X152555993Y-94646485D01*
X152952459Y-94131855D01*
X153311307Y-93589016D01*
X153630739Y-93019943D01*
X153908958Y-92426609D01*
X154144167Y-91810988D01*
X154334570Y-91175055D01*
X154443168Y-90704420D01*
X154547415Y-90064432D01*
X154604370Y-89411042D01*
X154614090Y-88749260D01*
X154576629Y-88084096D01*
X154492043Y-87420558D01*
X154401687Y-86945220D01*
X154351510Y-86737535D01*
X154285281Y-86498334D01*
X154207739Y-86242452D01*
X154123621Y-85984722D01*
X154037667Y-85739980D01*
X153954617Y-85523059D01*
X153922938Y-85446620D01*
X153635376Y-84834450D01*
X153308449Y-84252584D01*
X152944267Y-83702210D01*
X152544944Y-83184515D01*
X152112590Y-82700686D01*
X151649319Y-82251911D01*
X151157241Y-81839376D01*
X150638470Y-81464270D01*
X150095116Y-81127780D01*
X149529293Y-80831093D01*
X148943111Y-80575396D01*
X148338684Y-80361878D01*
X147718123Y-80191724D01*
X147083539Y-80066124D01*
X146437046Y-79986263D01*
X145780755Y-79953330D01*
X145116779Y-79968511D01*
X144447228Y-80032995D01*
X144324294Y-80050221D01*
X143673701Y-80170930D01*
X143040063Y-80338292D01*
X142425280Y-80550444D01*
X141831248Y-80805522D01*
X141259866Y-81101662D01*
X140713032Y-81437000D01*
X140192644Y-81809673D01*
X139700600Y-82217817D01*
X139238798Y-82659569D01*
X138809136Y-83133064D01*
X138413512Y-83636439D01*
X138053824Y-84167830D01*
X137731970Y-84725374D01*
X137449849Y-85307207D01*
X137209358Y-85911464D01*
X137012395Y-86536283D01*
X136860858Y-87179800D01*
X136816722Y-87422033D01*
X136774020Y-87694758D01*
X136742169Y-87945332D01*
X136719944Y-88189332D01*
X136706120Y-88442332D01*
X136699474Y-88719908D01*
X136698425Y-88926420D01*
G36*
X136028240Y-101651820D02*
X136028418Y-101951718D01*
X136029215Y-102205595D01*
X136031029Y-102418228D01*
X136034259Y-102594394D01*
X136039300Y-102738871D01*
X136046552Y-102856437D01*
X136056411Y-102951870D01*
X136069275Y-103029947D01*
X136085542Y-103095446D01*
X136105609Y-103153145D01*
X136129874Y-103207820D01*
X136158734Y-103264251D01*
X136163092Y-103272430D01*
X136273410Y-103427023D01*
X136426376Y-103557050D01*
X136622831Y-103663048D01*
X136841040Y-103737818D01*
X136841040Y-101664520D01*
X136841126Y-101391432D01*
X136841512Y-101164402D01*
X136842388Y-100978686D01*
X136843948Y-100829540D01*
X136846382Y-100712221D01*
X136849882Y-100621988D01*
X136854640Y-100554095D01*
X136860848Y-100503800D01*
X136868697Y-100466361D01*
X136878379Y-100437034D01*
X136890086Y-100411076D01*
X136891840Y-100407555D01*
X136974626Y-100296489D01*
X137094519Y-100210503D01*
X137206353Y-100166327D01*
X137251392Y-100161032D01*
X137345068Y-100156278D01*
X137485223Y-100152096D01*
X137669695Y-100148516D01*
X137896326Y-100145568D01*
X138162955Y-100143283D01*
X138467424Y-100141691D01*
X138807571Y-100140823D01*
X139031790Y-100140661D01*
X140765340Y-100140520D01*
X140765340Y-101665654D01*
X140765340Y-103190789D01*
X139006390Y-103183304D01*
X137247440Y-103175820D01*
X137096213Y-103099620D01*
X136998041Y-103042941D01*
X136933946Y-102985245D01*
X136893013Y-102921820D01*
X136880749Y-102896136D01*
X136870581Y-102868226D01*
X136862314Y-102833344D01*
X136855751Y-102786747D01*
X136850695Y-102723690D01*
X136846951Y-102639429D01*
X136844323Y-102529221D01*
X136842614Y-102388320D01*
X136841628Y-102211983D01*
X136841170Y-101995466D01*
X136841043Y-101734025D01*
X136841040Y-101664520D01*
X136841040Y-103737818D01*
X136863620Y-103745556D01*
X136930992Y-103762611D01*
X136967625Y-103770519D01*
X137009027Y-103777491D01*
X137058585Y-103783602D01*
X137119684Y-103788930D01*
X137195710Y-103793548D01*
X137290047Y-103797534D01*
X137406083Y-103800962D01*
X137547202Y-103803909D01*
X137716790Y-103806450D01*
X137918233Y-103808661D01*
X138154917Y-103810618D01*
X138430227Y-103812396D01*
X138747549Y-103814072D01*
X139110269Y-103815721D01*
X139349290Y-103816721D01*
X141578140Y-103825842D01*
X141578140Y-101650725D01*
X141578140Y-99475609D01*
X139374690Y-99487472D01*
X138978306Y-99489719D01*
X138629469Y-99491969D01*
X138324928Y-99494292D01*
X138061432Y-99496757D01*
X137835728Y-99499435D01*
X137644564Y-99502393D01*
X137484689Y-99505701D01*
X137352851Y-99509430D01*
X137245797Y-99513647D01*
X137160276Y-99518423D01*
X137093036Y-99523827D01*
X137040826Y-99529928D01*
X137000392Y-99536796D01*
X136993440Y-99538266D01*
X136742383Y-99607162D01*
X136535372Y-99695758D01*
X136368438Y-99807167D01*
X136237610Y-99944502D01*
X136138921Y-100110875D01*
X136085609Y-100250158D01*
X136072407Y-100293383D01*
X136061403Y-100334924D01*
X136052397Y-100379668D01*
X136045188Y-100432502D01*
X136039578Y-100498311D01*
X136035365Y-100581983D01*
X136032350Y-100688403D01*
X136030333Y-100822459D01*
X136029113Y-100989036D01*
X136028492Y-101193022D01*
X136028268Y-101439303D01*
X136028240Y-101651820D01*
X136028240Y-101651820D01*
G37*
X136028240Y-101651820D02*
X136028418Y-101951718D01*
X136029215Y-102205595D01*
X136031029Y-102418228D01*
X136034259Y-102594394D01*
X136039300Y-102738871D01*
X136046552Y-102856437D01*
X136056411Y-102951870D01*
X136069275Y-103029947D01*
X136085542Y-103095446D01*
X136105609Y-103153145D01*
X136129874Y-103207820D01*
X136158734Y-103264251D01*
X136163092Y-103272430D01*
X136273410Y-103427023D01*
X136426376Y-103557050D01*
X136622831Y-103663048D01*
X136841040Y-103737818D01*
X136841040Y-101664520D01*
X136841126Y-101391432D01*
X136841512Y-101164402D01*
X136842388Y-100978686D01*
X136843948Y-100829540D01*
X136846382Y-100712221D01*
X136849882Y-100621988D01*
X136854640Y-100554095D01*
X136860848Y-100503800D01*
X136868697Y-100466361D01*
X136878379Y-100437034D01*
X136890086Y-100411076D01*
X136891840Y-100407555D01*
X136974626Y-100296489D01*
X137094519Y-100210503D01*
X137206353Y-100166327D01*
X137251392Y-100161032D01*
X137345068Y-100156278D01*
X137485223Y-100152096D01*
X137669695Y-100148516D01*
X137896326Y-100145568D01*
X138162955Y-100143283D01*
X138467424Y-100141691D01*
X138807571Y-100140823D01*
X139031790Y-100140661D01*
X140765340Y-100140520D01*
X140765340Y-101665654D01*
X140765340Y-103190789D01*
X139006390Y-103183304D01*
X137247440Y-103175820D01*
X137096213Y-103099620D01*
X136998041Y-103042941D01*
X136933946Y-102985245D01*
X136893013Y-102921820D01*
X136880749Y-102896136D01*
X136870581Y-102868226D01*
X136862314Y-102833344D01*
X136855751Y-102786747D01*
X136850695Y-102723690D01*
X136846951Y-102639429D01*
X136844323Y-102529221D01*
X136842614Y-102388320D01*
X136841628Y-102211983D01*
X136841170Y-101995466D01*
X136841043Y-101734025D01*
X136841040Y-101664520D01*
X136841040Y-103737818D01*
X136863620Y-103745556D01*
X136930992Y-103762611D01*
X136967625Y-103770519D01*
X137009027Y-103777491D01*
X137058585Y-103783602D01*
X137119684Y-103788930D01*
X137195710Y-103793548D01*
X137290047Y-103797534D01*
X137406083Y-103800962D01*
X137547202Y-103803909D01*
X137716790Y-103806450D01*
X137918233Y-103808661D01*
X138154917Y-103810618D01*
X138430227Y-103812396D01*
X138747549Y-103814072D01*
X139110269Y-103815721D01*
X139349290Y-103816721D01*
X141578140Y-103825842D01*
X141578140Y-101650725D01*
X141578140Y-99475609D01*
X139374690Y-99487472D01*
X138978306Y-99489719D01*
X138629469Y-99491969D01*
X138324928Y-99494292D01*
X138061432Y-99496757D01*
X137835728Y-99499435D01*
X137644564Y-99502393D01*
X137484689Y-99505701D01*
X137352851Y-99509430D01*
X137245797Y-99513647D01*
X137160276Y-99518423D01*
X137093036Y-99523827D01*
X137040826Y-99529928D01*
X137000392Y-99536796D01*
X136993440Y-99538266D01*
X136742383Y-99607162D01*
X136535372Y-99695758D01*
X136368438Y-99807167D01*
X136237610Y-99944502D01*
X136138921Y-100110875D01*
X136085609Y-100250158D01*
X136072407Y-100293383D01*
X136061403Y-100334924D01*
X136052397Y-100379668D01*
X136045188Y-100432502D01*
X136039578Y-100498311D01*
X136035365Y-100581983D01*
X136032350Y-100688403D01*
X136030333Y-100822459D01*
X136029113Y-100989036D01*
X136028492Y-101193022D01*
X136028268Y-101439303D01*
X136028240Y-101651820D01*
G36*
X142378240Y-101663985D02*
X142378278Y-101970242D01*
X142378489Y-102229928D01*
X142379025Y-102447274D01*
X142380033Y-102626508D01*
X142381663Y-102771861D01*
X142384066Y-102887561D01*
X142387389Y-102977840D01*
X142391783Y-103046926D01*
X142397396Y-103099049D01*
X142404378Y-103138438D01*
X142412879Y-103169323D01*
X142423048Y-103195935D01*
X142433127Y-103218382D01*
X142541224Y-103392238D01*
X142692307Y-103540466D01*
X142884825Y-103661873D01*
X143117229Y-103755270D01*
X143141839Y-103762796D01*
X143174883Y-103771628D01*
X143181075Y-103772866D01*
X143181075Y-102246735D01*
X143181942Y-102005081D01*
X143183510Y-101718047D01*
X143184011Y-101628019D01*
X143191040Y-100347022D01*
X143262153Y-100272813D01*
X143336007Y-100214884D01*
X143421512Y-100172364D01*
X143430200Y-100169562D01*
X143471483Y-100162979D01*
X143549494Y-100157307D01*
X143666056Y-100152515D01*
X143822991Y-100148574D01*
X144022121Y-100145451D01*
X144265269Y-100143118D01*
X144554257Y-100141543D01*
X144890908Y-100140696D01*
X145163455Y-100140520D01*
X146799777Y-100140520D01*
X146913109Y-100197670D01*
X146957459Y-100220050D01*
X146994801Y-100241603D01*
X147025738Y-100266645D01*
X147050871Y-100299491D01*
X147070802Y-100344457D01*
X147086135Y-100405858D01*
X147097472Y-100488012D01*
X147105415Y-100595233D01*
X147110566Y-100731837D01*
X147113527Y-100902140D01*
X147114902Y-101110459D01*
X147115293Y-101361108D01*
X147115301Y-101646285D01*
X147115201Y-101938541D01*
X147114624Y-102184422D01*
X147113187Y-102388351D01*
X147110506Y-102554755D01*
X147106200Y-102688057D01*
X147099885Y-102792682D01*
X147091177Y-102873054D01*
X147079693Y-102933598D01*
X147065051Y-102978740D01*
X147046866Y-103012902D01*
X147024757Y-103040510D01*
X146998340Y-103065989D01*
X146991862Y-103071792D01*
X146965089Y-103093990D01*
X146935708Y-103113109D01*
X146899955Y-103129364D01*
X146854064Y-103142970D01*
X146794272Y-103154142D01*
X146716816Y-103163095D01*
X146617931Y-103170044D01*
X146493853Y-103175206D01*
X146340818Y-103178795D01*
X146155062Y-103181025D01*
X145932821Y-103182113D01*
X145670332Y-103182274D01*
X145363829Y-103181722D01*
X145083340Y-103180910D01*
X143470440Y-103175820D01*
X143363014Y-103118420D01*
X143322664Y-103097051D01*
X143288599Y-103076783D01*
X143260311Y-103053392D01*
X143237292Y-103022650D01*
X143219035Y-102980334D01*
X143205033Y-102922218D01*
X143194777Y-102844075D01*
X143187761Y-102741681D01*
X143183477Y-102610810D01*
X143181417Y-102447237D01*
X143181075Y-102246735D01*
X143181075Y-103772866D01*
X143213052Y-103779263D01*
X143260168Y-103785804D01*
X143320054Y-103791350D01*
X143396533Y-103796003D01*
X143493428Y-103799865D01*
X143614561Y-103803037D01*
X143763756Y-103805619D01*
X143944835Y-103807712D01*
X144161621Y-103809419D01*
X144417937Y-103810840D01*
X144717606Y-103812077D01*
X145045240Y-103813170D01*
X145343505Y-103813761D01*
X145630162Y-103813687D01*
X145900630Y-103812988D01*
X146150332Y-103811707D01*
X146374688Y-103809885D01*
X146569118Y-103807564D01*
X146729043Y-103804785D01*
X146849884Y-103801590D01*
X146927063Y-103798020D01*
X146949459Y-103795879D01*
X147210391Y-103738034D01*
X147431781Y-103648696D01*
X147613464Y-103527977D01*
X147755273Y-103375987D01*
X147857044Y-103192837D01*
X147858806Y-103188520D01*
X147871087Y-103157356D01*
X147881450Y-103126527D01*
X147890058Y-103091655D01*
X147897075Y-103048361D01*
X147902663Y-102992265D01*
X147906984Y-102918989D01*
X147910201Y-102824154D01*
X147912478Y-102703382D01*
X147913976Y-102552293D01*
X147914859Y-102366509D01*
X147915288Y-102141651D01*
X147915428Y-101873341D01*
X147915440Y-101664520D01*
X147915448Y-101346164D01*
X147915111Y-101074291D01*
X147913891Y-100844582D01*
X147911247Y-100652721D01*
X147906641Y-100494390D01*
X147899533Y-100365271D01*
X147889383Y-100261048D01*
X147875653Y-100177402D01*
X147857802Y-100110016D01*
X147835292Y-100054572D01*
X147807582Y-100006755D01*
X147774135Y-99962245D01*
X147734409Y-99916725D01*
X147691177Y-99869504D01*
X147554835Y-99745638D01*
X147393504Y-99648531D01*
X147197951Y-99573287D01*
X147065640Y-99537834D01*
X147024283Y-99528953D01*
X146978732Y-99521314D01*
X146925050Y-99514824D01*
X146859300Y-99509394D01*
X146777549Y-99504931D01*
X146675860Y-99501345D01*
X146550298Y-99498545D01*
X146396926Y-99496440D01*
X146211810Y-99494938D01*
X145991013Y-99493948D01*
X145730601Y-99493380D01*
X145426637Y-99493142D01*
X145134140Y-99493131D01*
X144788361Y-99493305D01*
X144489503Y-99493752D01*
X144233690Y-99494558D01*
X144017043Y-99495809D01*
X143835684Y-99497591D01*
X143685737Y-99499990D01*
X143563322Y-99503092D01*
X143464563Y-99506982D01*
X143385582Y-99511747D01*
X143322501Y-99517472D01*
X143271441Y-99524244D01*
X143228526Y-99532149D01*
X143212443Y-99535724D01*
X142976107Y-99607247D01*
X142782025Y-99703167D01*
X142626614Y-99825977D01*
X142506292Y-99978175D01*
X142461857Y-100058502D01*
X142378240Y-100228351D01*
X142378240Y-101663985D01*
X142378240Y-101663985D01*
G37*
X142378240Y-101663985D02*
X142378278Y-101970242D01*
X142378489Y-102229928D01*
X142379025Y-102447274D01*
X142380033Y-102626508D01*
X142381663Y-102771861D01*
X142384066Y-102887561D01*
X142387389Y-102977840D01*
X142391783Y-103046926D01*
X142397396Y-103099049D01*
X142404378Y-103138438D01*
X142412879Y-103169323D01*
X142423048Y-103195935D01*
X142433127Y-103218382D01*
X142541224Y-103392238D01*
X142692307Y-103540466D01*
X142884825Y-103661873D01*
X143117229Y-103755270D01*
X143141839Y-103762796D01*
X143174883Y-103771628D01*
X143181075Y-103772866D01*
X143181075Y-102246735D01*
X143181942Y-102005081D01*
X143183510Y-101718047D01*
X143184011Y-101628019D01*
X143191040Y-100347022D01*
X143262153Y-100272813D01*
X143336007Y-100214884D01*
X143421512Y-100172364D01*
X143430200Y-100169562D01*
X143471483Y-100162979D01*
X143549494Y-100157307D01*
X143666056Y-100152515D01*
X143822991Y-100148574D01*
X144022121Y-100145451D01*
X144265269Y-100143118D01*
X144554257Y-100141543D01*
X144890908Y-100140696D01*
X145163455Y-100140520D01*
X146799777Y-100140520D01*
X146913109Y-100197670D01*
X146957459Y-100220050D01*
X146994801Y-100241603D01*
X147025738Y-100266645D01*
X147050871Y-100299491D01*
X147070802Y-100344457D01*
X147086135Y-100405858D01*
X147097472Y-100488012D01*
X147105415Y-100595233D01*
X147110566Y-100731837D01*
X147113527Y-100902140D01*
X147114902Y-101110459D01*
X147115293Y-101361108D01*
X147115301Y-101646285D01*
X147115201Y-101938541D01*
X147114624Y-102184422D01*
X147113187Y-102388351D01*
X147110506Y-102554755D01*
X147106200Y-102688057D01*
X147099885Y-102792682D01*
X147091177Y-102873054D01*
X147079693Y-102933598D01*
X147065051Y-102978740D01*
X147046866Y-103012902D01*
X147024757Y-103040510D01*
X146998340Y-103065989D01*
X146991862Y-103071792D01*
X146965089Y-103093990D01*
X146935708Y-103113109D01*
X146899955Y-103129364D01*
X146854064Y-103142970D01*
X146794272Y-103154142D01*
X146716816Y-103163095D01*
X146617931Y-103170044D01*
X146493853Y-103175206D01*
X146340818Y-103178795D01*
X146155062Y-103181025D01*
X145932821Y-103182113D01*
X145670332Y-103182274D01*
X145363829Y-103181722D01*
X145083340Y-103180910D01*
X143470440Y-103175820D01*
X143363014Y-103118420D01*
X143322664Y-103097051D01*
X143288599Y-103076783D01*
X143260311Y-103053392D01*
X143237292Y-103022650D01*
X143219035Y-102980334D01*
X143205033Y-102922218D01*
X143194777Y-102844075D01*
X143187761Y-102741681D01*
X143183477Y-102610810D01*
X143181417Y-102447237D01*
X143181075Y-102246735D01*
X143181075Y-103772866D01*
X143213052Y-103779263D01*
X143260168Y-103785804D01*
X143320054Y-103791350D01*
X143396533Y-103796003D01*
X143493428Y-103799865D01*
X143614561Y-103803037D01*
X143763756Y-103805619D01*
X143944835Y-103807712D01*
X144161621Y-103809419D01*
X144417937Y-103810840D01*
X144717606Y-103812077D01*
X145045240Y-103813170D01*
X145343505Y-103813761D01*
X145630162Y-103813687D01*
X145900630Y-103812988D01*
X146150332Y-103811707D01*
X146374688Y-103809885D01*
X146569118Y-103807564D01*
X146729043Y-103804785D01*
X146849884Y-103801590D01*
X146927063Y-103798020D01*
X146949459Y-103795879D01*
X147210391Y-103738034D01*
X147431781Y-103648696D01*
X147613464Y-103527977D01*
X147755273Y-103375987D01*
X147857044Y-103192837D01*
X147858806Y-103188520D01*
X147871087Y-103157356D01*
X147881450Y-103126527D01*
X147890058Y-103091655D01*
X147897075Y-103048361D01*
X147902663Y-102992265D01*
X147906984Y-102918989D01*
X147910201Y-102824154D01*
X147912478Y-102703382D01*
X147913976Y-102552293D01*
X147914859Y-102366509D01*
X147915288Y-102141651D01*
X147915428Y-101873341D01*
X147915440Y-101664520D01*
X147915448Y-101346164D01*
X147915111Y-101074291D01*
X147913891Y-100844582D01*
X147911247Y-100652721D01*
X147906641Y-100494390D01*
X147899533Y-100365271D01*
X147889383Y-100261048D01*
X147875653Y-100177402D01*
X147857802Y-100110016D01*
X147835292Y-100054572D01*
X147807582Y-100006755D01*
X147774135Y-99962245D01*
X147734409Y-99916725D01*
X147691177Y-99869504D01*
X147554835Y-99745638D01*
X147393504Y-99648531D01*
X147197951Y-99573287D01*
X147065640Y-99537834D01*
X147024283Y-99528953D01*
X146978732Y-99521314D01*
X146925050Y-99514824D01*
X146859300Y-99509394D01*
X146777549Y-99504931D01*
X146675860Y-99501345D01*
X146550298Y-99498545D01*
X146396926Y-99496440D01*
X146211810Y-99494938D01*
X145991013Y-99493948D01*
X145730601Y-99493380D01*
X145426637Y-99493142D01*
X145134140Y-99493131D01*
X144788361Y-99493305D01*
X144489503Y-99493752D01*
X144233690Y-99494558D01*
X144017043Y-99495809D01*
X143835684Y-99497591D01*
X143685737Y-99499990D01*
X143563322Y-99503092D01*
X143464563Y-99506982D01*
X143385582Y-99511747D01*
X143322501Y-99517472D01*
X143271441Y-99524244D01*
X143228526Y-99532149D01*
X143212443Y-99535724D01*
X142976107Y-99607247D01*
X142782025Y-99703167D01*
X142626614Y-99825977D01*
X142506292Y-99978175D01*
X142461857Y-100058502D01*
X142378240Y-100228351D01*
X142378240Y-101663985D01*
G36*
X148689855Y-103823520D02*
X149070798Y-103823520D01*
X149451741Y-103823520D01*
X149458291Y-102310616D01*
X149464840Y-100797713D01*
X150391231Y-102075666D01*
X150560578Y-102309211D01*
X150725635Y-102536706D01*
X150883200Y-102753748D01*
X151030073Y-102955934D01*
X151163052Y-103138859D01*
X151278935Y-103298121D01*
X151374523Y-103429316D01*
X151446614Y-103528040D01*
X151491031Y-103588570D01*
X151664440Y-103823520D01*
X151999740Y-103822161D01*
X152335040Y-103820802D01*
X153427240Y-102318492D01*
X154519440Y-100816182D01*
X154525992Y-102319851D01*
X154532543Y-103823520D01*
X154913342Y-103823520D01*
X155294140Y-103823520D01*
X155294140Y-101651820D01*
X155294140Y-99480120D01*
X154917441Y-99480120D01*
X154540741Y-99480120D01*
X153260091Y-101244658D01*
X153067172Y-101510209D01*
X152882679Y-101763655D01*
X152708798Y-102002018D01*
X152547720Y-102222324D01*
X152401631Y-102421594D01*
X152272722Y-102596852D01*
X152163179Y-102745122D01*
X152075193Y-102863427D01*
X152010950Y-102948790D01*
X151972641Y-102998234D01*
X151962218Y-103009958D01*
X151954221Y-103002798D01*
X151935133Y-102979922D01*
X151903706Y-102939619D01*
X151858690Y-102880178D01*
X151798837Y-102799886D01*
X151722900Y-102697032D01*
X151629628Y-102569905D01*
X151517774Y-102416792D01*
X151386090Y-102235982D01*
X151233326Y-102025763D01*
X151058234Y-101784425D01*
X150859565Y-101510254D01*
X150636072Y-101201539D01*
X150386504Y-100856569D01*
X150109615Y-100473633D01*
X149836221Y-100095388D01*
X149390585Y-99478756D01*
X149046713Y-99485788D01*
X148702840Y-99492820D01*
X148696348Y-101658170D01*
X148689855Y-103823520D01*
X148689855Y-103823520D01*
G37*
X148689855Y-103823520D02*
X149070798Y-103823520D01*
X149451741Y-103823520D01*
X149458291Y-102310616D01*
X149464840Y-100797713D01*
X150391231Y-102075666D01*
X150560578Y-102309211D01*
X150725635Y-102536706D01*
X150883200Y-102753748D01*
X151030073Y-102955934D01*
X151163052Y-103138859D01*
X151278935Y-103298121D01*
X151374523Y-103429316D01*
X151446614Y-103528040D01*
X151491031Y-103588570D01*
X151664440Y-103823520D01*
X151999740Y-103822161D01*
X152335040Y-103820802D01*
X153427240Y-102318492D01*
X154519440Y-100816182D01*
X154525992Y-102319851D01*
X154532543Y-103823520D01*
X154913342Y-103823520D01*
X155294140Y-103823520D01*
X155294140Y-101651820D01*
X155294140Y-99480120D01*
X154917441Y-99480120D01*
X154540741Y-99480120D01*
X153260091Y-101244658D01*
X153067172Y-101510209D01*
X152882679Y-101763655D01*
X152708798Y-102002018D01*
X152547720Y-102222324D01*
X152401631Y-102421594D01*
X152272722Y-102596852D01*
X152163179Y-102745122D01*
X152075193Y-102863427D01*
X152010950Y-102948790D01*
X151972641Y-102998234D01*
X151962218Y-103009958D01*
X151954221Y-103002798D01*
X151935133Y-102979922D01*
X151903706Y-102939619D01*
X151858690Y-102880178D01*
X151798837Y-102799886D01*
X151722900Y-102697032D01*
X151629628Y-102569905D01*
X151517774Y-102416792D01*
X151386090Y-102235982D01*
X151233326Y-102025763D01*
X151058234Y-101784425D01*
X150859565Y-101510254D01*
X150636072Y-101201539D01*
X150386504Y-100856569D01*
X150109615Y-100473633D01*
X149836221Y-100095388D01*
X149390585Y-99478756D01*
X149046713Y-99485788D01*
X148702840Y-99492820D01*
X148696348Y-101658170D01*
X148689855Y-103823520D01*
G04 #@! TD*
G04 #@! TO.C,P9*
X84301800Y-44474600D02*
X84301800Y-46406600D01*
X85929000Y-46406600D01*
X85929000Y-44474600D01*
X84301800Y-44474600D01*
X83389000Y-45593000D02*
X83389000Y-45288200D01*
X81761800Y-45593000D02*
X81761800Y-45288200D01*
X83389000Y-45288200D02*
G75*
G03X81761800Y-45288200I-813600J0D01*
G01*
X81761800Y-45593000D02*
G75*
G03X83389000Y-45593000I813600J0D01*
G01*
X80849000Y-45593000D02*
X80849000Y-45288200D01*
X79221800Y-45593000D02*
X79221800Y-45288200D01*
X80849000Y-45288200D02*
G75*
G03X79221800Y-45288200I-813600J0D01*
G01*
X79221800Y-45593000D02*
G75*
G03X80849000Y-45593000I813600J0D01*
G01*
G04 #@! TD*
M02*
