G04 #@! TF.GenerationSoftware,KiCad,Pcbnew,5.1.2-f72e74a~84~ubuntu18.04.1*
G04 #@! TF.CreationDate,2019-08-15T14:59:57+02:00*
G04 #@! TF.ProjectId,bottom-board,626f7474-6f6d-42d6-926f-6172642e6b69,rev?*
G04 #@! TF.SameCoordinates,Original*
G04 #@! TF.FileFunction,Copper,L2,Bot*
G04 #@! TF.FilePolarity,Positive*
%FSLAX46Y46*%
G04 Gerber Fmt 4.6, Leading zero omitted, Abs format (unit mm)*
G04 Created by KiCad (PCBNEW 5.1.2-f72e74a~84~ubuntu18.04.1) date 2019-08-15 14:59:57*
%MOMM*%
%LPD*%
G04 APERTURE LIST*
%ADD10C,0.100000*%
%ADD11C,1.300000*%
%ADD12R,1.300000X1.300000*%
%ADD13R,1.727200X2.032000*%
%ADD14O,1.727200X2.032000*%
%ADD15C,2.100000*%
%ADD16C,1.750000*%
%ADD17R,4.000000X4.000000*%
%ADD18R,3.500000X3.500000*%
%ADD19C,3.500000*%
%ADD20R,1.727200X1.727200*%
%ADD21O,1.727200X1.727200*%
%ADD22C,5.500000*%
%ADD23O,1.501140X2.499360*%
%ADD24R,1.800000X1.800000*%
%ADD25C,1.800000*%
%ADD26R,1.700000X1.700000*%
%ADD27C,1.700000*%
%ADD28C,0.750000*%
%ADD29C,0.600000*%
%ADD30C,1.350000*%
%ADD31C,0.381000*%
%ADD32C,0.762000*%
%ADD33C,0.254000*%
%ADD34C,0.304800*%
%ADD35C,0.508000*%
%ADD36C,0.203200*%
G04 APERTURE END LIST*
D10*
X232107540Y-19850520D02*
X232097540Y-110490520D01*
X59947540Y-19880520D02*
X232097540Y-19810520D01*
X60077540Y-110410520D02*
X59957540Y-19860520D01*
X232117540Y-110490520D02*
X60077540Y-110420520D01*
D11*
X109782540Y-102810520D03*
X174982540Y-102810520D03*
X174969540Y-59831520D03*
X109769540Y-59831520D03*
D12*
X211977540Y-52300520D03*
D11*
X206977540Y-52300520D03*
D12*
X218807540Y-52140520D03*
D11*
X223807540Y-52140520D03*
D13*
X85115400Y-45440600D03*
D14*
X82575400Y-45440600D03*
X80035400Y-45440600D03*
D15*
X90433440Y-26212840D03*
D16*
X89173440Y-23722840D03*
X84673440Y-23722840D03*
D15*
X83423440Y-26212840D03*
D17*
X206575660Y-29773880D03*
D18*
X206575660Y-23771340D03*
X201875660Y-26771340D03*
D19*
X221227540Y-100290520D03*
X69767540Y-30410520D03*
D20*
X92740720Y-55827820D03*
D21*
X92740720Y-58367820D03*
X90200720Y-55827820D03*
X90200720Y-58367820D03*
X87660720Y-55827820D03*
X87660720Y-58367820D03*
X85120720Y-55827820D03*
X85120720Y-58367820D03*
X82580720Y-55827820D03*
X82580720Y-58367820D03*
X80040720Y-55827820D03*
X80040720Y-58367820D03*
X77500720Y-55827820D03*
X77500720Y-58367820D03*
X74960720Y-55827820D03*
X74960720Y-58367820D03*
X72420720Y-55827820D03*
X72420720Y-58367820D03*
X69880720Y-55827820D03*
X69880720Y-58367820D03*
D22*
X222047540Y-28500520D03*
D23*
X200025000Y-72415400D03*
X202565000Y-72415400D03*
X197485000Y-72415400D03*
D24*
X196342000Y-59207400D03*
D25*
X198842000Y-59207400D03*
D26*
X158947540Y-28910520D03*
D27*
X161447540Y-28910520D03*
X161447540Y-26910520D03*
X158947540Y-26910520D03*
D19*
X154177540Y-24200520D03*
X166217540Y-24200520D03*
X71177540Y-100790520D03*
D28*
X174424340Y-24696420D03*
X80037940Y-23718520D03*
X86895940Y-29509720D03*
D29*
X206476600Y-58420000D03*
X222580200Y-58420000D03*
D30*
X206476600Y-75869800D03*
D28*
X192430400Y-29311600D03*
D29*
X130825240Y-51892200D03*
X180314600Y-60020200D03*
X165608000Y-55219600D03*
X180619400Y-55219600D03*
X182067200Y-37846000D03*
X186461400Y-37846000D03*
X181813200Y-48006000D03*
D28*
X150088600Y-38836600D03*
X139242800Y-38836600D03*
X176453800Y-30911800D03*
X114833400Y-29514800D03*
X105587800Y-29514800D03*
D29*
X194310000Y-48641000D03*
X190881000Y-48641000D03*
X92735400Y-61112400D03*
X80035400Y-61112400D03*
X152831800Y-70231000D03*
X177281840Y-106547920D03*
X131079240Y-59786520D03*
X131231640Y-64307720D03*
X135486140Y-66136520D03*
X122773440Y-69756020D03*
X142648940Y-53703220D03*
X156987240Y-98712020D03*
X157012640Y-102839520D03*
X151881840Y-102814120D03*
X160797240Y-102750620D03*
X164683440Y-102839520D03*
X135244840Y-102674420D03*
X128958340Y-102725220D03*
X163375340Y-59786520D03*
X172405040Y-60020200D03*
X176557940Y-60002420D03*
X142179040Y-70187820D03*
X143442540Y-65285520D03*
X159006540Y-64587120D03*
X165635940Y-47454820D03*
X161686240Y-54503320D03*
X135992540Y-52160520D03*
X160767540Y-107435520D03*
X156942540Y-107360520D03*
X164617540Y-107360520D03*
X168417540Y-107285520D03*
X168457540Y-85180520D03*
X142697540Y-86720520D03*
X122167540Y-86490520D03*
X163977540Y-35940520D03*
X74917540Y-69950520D03*
X75617540Y-86660520D03*
X194081400Y-72466200D03*
X194081400Y-53619400D03*
X183743600Y-53619400D03*
X162153600Y-40589200D03*
X133766560Y-40566340D03*
X112242600Y-36703000D03*
X133766560Y-36725860D03*
X174779940Y-61678820D03*
X183873140Y-57513220D03*
X62357540Y-85650520D03*
X170865800Y-66929000D03*
X169062400Y-66929000D03*
X166979600Y-66929000D03*
X165074600Y-66929000D03*
X186080400Y-64897000D03*
X186080400Y-52146200D03*
X189103000Y-52146200D03*
X180009800Y-52146200D03*
X197180200Y-36499800D03*
X184581800Y-36499800D03*
X187934600Y-36499800D03*
X153771600Y-66929000D03*
X151892000Y-66929000D03*
X176413120Y-66936821D03*
X178196240Y-68961420D03*
X126291340Y-51112420D03*
X95864680Y-57099200D03*
X95951040Y-48699420D03*
X158714440Y-49956720D03*
X182702200Y-26695400D03*
X185470800Y-64084200D03*
X177246280Y-64104520D03*
X111317540Y-107420520D03*
X115337540Y-74710520D03*
X147220940Y-64498220D03*
X146852640Y-59786520D03*
X90223340Y-66187320D03*
X147160201Y-69742803D03*
X146611340Y-68481931D03*
X87670640Y-65806320D03*
X148960840Y-63863220D03*
X148236940Y-59761120D03*
X149113240Y-68740020D03*
X85092540Y-65247520D03*
X148376640Y-67673220D03*
X82575400Y-64529120D03*
X74955400Y-51435000D03*
X110975140Y-51976020D03*
X76225400Y-52730400D03*
X109247940Y-52730400D03*
X78765400Y-53340000D03*
X111392540Y-53335520D03*
X132387340Y-47518320D03*
X138394440Y-56052720D03*
X141975840Y-63660020D03*
X92267540Y-48623720D03*
X133670040Y-48084320D03*
X93442540Y-48477000D03*
X127891540Y-54135020D03*
X86387940Y-50843600D03*
X127205740Y-55100220D03*
X83700620Y-50883820D03*
X68580000Y-54508400D03*
X122925840Y-54508400D03*
X123941840Y-60002420D03*
D30*
X181229000Y-42646600D03*
X200380600Y-42646600D03*
D29*
X193624200Y-47879000D03*
X196164200Y-47879000D03*
X196164200Y-37185600D03*
X182676800Y-37185600D03*
X72415400Y-49657000D03*
X154358340Y-59862720D03*
X154367540Y-49510520D03*
X154367540Y-55860520D03*
X152831800Y-63449200D03*
X69875400Y-50266600D03*
X153088340Y-59875420D03*
X153167540Y-50160520D03*
X171867540Y-65710520D03*
X167017540Y-31860520D03*
X174137540Y-66040520D03*
X173837540Y-33810520D03*
D31*
X80042260Y-23722840D02*
X84673440Y-23722840D01*
X80037940Y-23718520D02*
X80042260Y-23722840D01*
X105587800Y-29514800D02*
X86901020Y-29514800D01*
X86901020Y-29514800D02*
X86895940Y-29509720D01*
X222580200Y-58420000D02*
X206476600Y-58420000D01*
D32*
X206476600Y-75869800D02*
X206480400Y-75866000D01*
D31*
X182321200Y-29311600D02*
X192430400Y-29311600D01*
D33*
X186461400Y-37846000D02*
X182067200Y-37846000D01*
D34*
X190881000Y-48641000D02*
X182448200Y-48641000D01*
X182448200Y-48641000D02*
X181813200Y-48006000D01*
D31*
X139242800Y-38836600D02*
X150088600Y-38836600D01*
X181000400Y-30632400D02*
X182321200Y-29311600D01*
X176453800Y-30911800D02*
X176453800Y-30918400D01*
X173031400Y-30918400D02*
X176453800Y-30918400D01*
X176453800Y-30918400D02*
X179165000Y-30918400D01*
X179451000Y-30632400D02*
X181000400Y-30632400D01*
X179165000Y-30918400D02*
X179451000Y-30632400D01*
X156461460Y-29006800D02*
X157706060Y-27762200D01*
X159486600Y-27762200D02*
X162642800Y-30918400D01*
X157706060Y-27762200D02*
X159486600Y-27762200D01*
X105587800Y-29514800D02*
X114833400Y-29514800D01*
X114833400Y-29514800D02*
X152958800Y-29514800D01*
X152958800Y-29514800D02*
X153466800Y-29006800D01*
X153466800Y-29006800D02*
X156461460Y-29006800D01*
X172389800Y-30276800D02*
X173031400Y-30918400D01*
X171018200Y-30276800D02*
X172389800Y-30276800D01*
X170376600Y-30918400D02*
X171018200Y-30276800D01*
D34*
X190881000Y-48641000D02*
X194310000Y-48641000D01*
D33*
X80035400Y-61112400D02*
X92735400Y-61112400D01*
D34*
X135277859Y-66344801D02*
X135486140Y-66136520D01*
X142572740Y-53703220D02*
X142648940Y-53703220D01*
D33*
X172405040Y-60020200D02*
X172516800Y-60020200D01*
X142814040Y-70251320D02*
X142834360Y-70231000D01*
X142750540Y-70187820D02*
X142814040Y-70251320D01*
X142179040Y-70187820D02*
X142750540Y-70187820D01*
X135486140Y-66136520D02*
X134813040Y-66809620D01*
X133733540Y-66809620D02*
X132958840Y-66034920D01*
X134813040Y-66809620D02*
X133733540Y-66809620D01*
D34*
X131231640Y-64307720D02*
X132958840Y-66034920D01*
X132958840Y-66034920D02*
X133268721Y-66344801D01*
X163977540Y-31206280D02*
X163689660Y-30918400D01*
X163977540Y-35940520D02*
X163977540Y-31206280D01*
D31*
X162642800Y-30918400D02*
X163689660Y-30918400D01*
X163689660Y-30918400D02*
X170376600Y-30918400D01*
X194081400Y-72466200D02*
X197434200Y-72466200D01*
X183743600Y-53619400D02*
X194081400Y-53619400D01*
X197434200Y-72466200D02*
X197485000Y-72415400D01*
D34*
X162153600Y-40589200D02*
X133791960Y-40591740D01*
X133791960Y-40591740D02*
X133766560Y-40566340D01*
X133766560Y-36725860D02*
X133766560Y-36700460D01*
X112242600Y-36703000D02*
X133766560Y-36700460D01*
D32*
X183873140Y-57937484D02*
X183873140Y-57513220D01*
X180959423Y-60851201D02*
X183873140Y-57937484D01*
D35*
X180131804Y-61678820D02*
X180959423Y-60851201D01*
X174779940Y-61678820D02*
X180131804Y-61678820D01*
D34*
X112242600Y-36703000D02*
X72545060Y-36703000D01*
X72545060Y-36703000D02*
X62357540Y-46890520D01*
X62357540Y-46890520D02*
X62357540Y-85650520D01*
D33*
X169062400Y-66929000D02*
X170865800Y-66929000D01*
X166979600Y-66929000D02*
X169062400Y-66929000D01*
X165074600Y-66929000D02*
X166979600Y-66929000D01*
D34*
X189103000Y-52146200D02*
X186080400Y-52146200D01*
X186080400Y-52146200D02*
X180009800Y-52146200D01*
D33*
X187934600Y-36499800D02*
X197180200Y-36499800D01*
X187934600Y-36499800D02*
X184581800Y-36499800D01*
X153771600Y-66929000D02*
X165074600Y-66929000D01*
X151892000Y-66929000D02*
X153771600Y-66929000D01*
X176405299Y-66929000D02*
X176413120Y-66936821D01*
X170865800Y-66929000D02*
X176405299Y-66929000D01*
X185780401Y-65196999D02*
X184266561Y-65196999D01*
X186080400Y-64897000D02*
X185780401Y-65196999D01*
X184266561Y-65196999D02*
X181739540Y-67724020D01*
X180771902Y-68961420D02*
X178196240Y-68961420D01*
X181739540Y-67993782D02*
X180771902Y-68961420D01*
X181739540Y-67724020D02*
X181739540Y-67993782D01*
X140034758Y-66929000D02*
X151892000Y-66929000D01*
X137200640Y-64094882D02*
X140034758Y-66929000D01*
X137200640Y-62021720D02*
X137200640Y-64094882D01*
X126291340Y-51112420D02*
X126875540Y-51696620D01*
D34*
X126617898Y-51438978D02*
X126875540Y-51696620D01*
X126875540Y-51696620D02*
X137200640Y-62021720D01*
D33*
X77500720Y-55827820D02*
X78772100Y-57099200D01*
X78772100Y-57099200D02*
X95864680Y-57099200D01*
D34*
X157444440Y-48686720D02*
X95963740Y-48686720D01*
X95963740Y-48686720D02*
X95951040Y-48699420D01*
D33*
X157444440Y-48686720D02*
X158714440Y-49956720D01*
X148981160Y-26492200D02*
X94470220Y-26492200D01*
X151495760Y-23977600D02*
X148981160Y-26492200D01*
X91700860Y-23722840D02*
X89173440Y-23722840D01*
X94470220Y-26492200D02*
X91700860Y-23722840D01*
X177246280Y-64104520D02*
X185450480Y-64104520D01*
X185450480Y-64104520D02*
X185470800Y-64084200D01*
D34*
X151495760Y-23977600D02*
X151495760Y-22412300D01*
X151495760Y-22412300D02*
X152957540Y-20950520D01*
X168957780Y-20950520D02*
X174702660Y-26695400D01*
X152957540Y-20950520D02*
X168957780Y-20950520D01*
D33*
X182702200Y-26695400D02*
X174702660Y-26695400D01*
D34*
X111317540Y-107420520D02*
X115337540Y-103400520D01*
X115337540Y-103400520D02*
X115337540Y-74710520D01*
X147220940Y-64498220D02*
X147220940Y-60154820D01*
X147220940Y-60154820D02*
X146852640Y-59786520D01*
D33*
X123002040Y-66187320D02*
X90223340Y-66187320D01*
X125875573Y-69060853D02*
X123002040Y-66187320D01*
X143317540Y-69060853D02*
X125875573Y-69060853D01*
X143699491Y-69442804D02*
X143317540Y-69060853D01*
X146860202Y-69442804D02*
X143699491Y-69442804D01*
X147160201Y-69742803D02*
X146860202Y-69442804D01*
X87937340Y-65539620D02*
X87670640Y-65806320D01*
X123116340Y-65539620D02*
X87937340Y-65539620D01*
X126060573Y-68483853D02*
X123116340Y-65539620D01*
X146609418Y-68483853D02*
X126060573Y-68483853D01*
X146611340Y-68481931D02*
X146609418Y-68483853D01*
D34*
X148960840Y-63863220D02*
X148236940Y-63139320D01*
X148236940Y-63139320D02*
X148236940Y-59761120D01*
D33*
X148427440Y-68740020D02*
X149113240Y-68740020D01*
X147592351Y-67904931D02*
X148427440Y-68740020D01*
X126053007Y-67904931D02*
X147592351Y-67904931D01*
X123154296Y-65006220D02*
X126053007Y-67904931D01*
X85333840Y-65006220D02*
X123154296Y-65006220D01*
X85092540Y-65247520D02*
X85333840Y-65006220D01*
X148135340Y-67431920D02*
X148376640Y-67673220D01*
X147830540Y-67431920D02*
X148135340Y-67431920D01*
X147970240Y-67431920D02*
X147830540Y-67431920D01*
X123566340Y-64529120D02*
X82575400Y-64529120D01*
X125529613Y-66492393D02*
X123566340Y-64529120D01*
X126469140Y-67431920D02*
X123566340Y-64529120D01*
X132336540Y-67431920D02*
X126469140Y-67431920D01*
X132336540Y-67431920D02*
X131415042Y-67431920D01*
X147830540Y-67431920D02*
X132336540Y-67431920D01*
D34*
X75496420Y-51976020D02*
X74955400Y-51435000D01*
X110975140Y-51976020D02*
X75496420Y-51976020D01*
D33*
X76225400Y-52730400D02*
X109247940Y-52730400D01*
X78765400Y-53340000D02*
X105792540Y-53317643D01*
X105805016Y-53330119D02*
X105792540Y-53317643D01*
X105792540Y-53317643D02*
X106217540Y-53317291D01*
X111387139Y-53330119D02*
X111392540Y-53335520D01*
X110017540Y-53330119D02*
X111387139Y-53330119D01*
X110017540Y-53330119D02*
X105805016Y-53330119D01*
X110738641Y-53330119D02*
X110017540Y-53330119D01*
D34*
X132350939Y-47481919D02*
X132387340Y-47518320D01*
X93409341Y-47481919D02*
X132350939Y-47481919D01*
X138394440Y-56052720D02*
X138394440Y-58615566D01*
D33*
X141975840Y-62240682D02*
X141975840Y-63660020D01*
X138394440Y-58659282D02*
X141975840Y-62240682D01*
X138394440Y-58615566D02*
X138394440Y-58659282D01*
D34*
X92267540Y-48623720D02*
X93409341Y-47481919D01*
X133633639Y-48120721D02*
X133670040Y-48084320D01*
X131496641Y-48120721D02*
X133633639Y-48120721D01*
X131460240Y-48084320D02*
X131496641Y-48120721D01*
X131460240Y-48084320D02*
X93835220Y-48084320D01*
X131638040Y-48084320D02*
X131460240Y-48084320D01*
X93835220Y-48084320D02*
X93442540Y-48477000D01*
X127891540Y-54135020D02*
X124576840Y-50820320D01*
X124576840Y-50782220D02*
X124490630Y-50696010D01*
X124576840Y-50820320D02*
X124576840Y-50782220D01*
X124490630Y-50696010D02*
X86535530Y-50696010D01*
X86535530Y-50696010D02*
X86387940Y-50843600D01*
X83813221Y-50771219D02*
X83700620Y-50883820D01*
X84262801Y-51446001D02*
X83700620Y-50883820D01*
D33*
X84363410Y-51546610D02*
X84262801Y-51446001D01*
X87185650Y-51546610D02*
X87185650Y-51508810D01*
X87185650Y-51546610D02*
X87035640Y-51546610D01*
X84363410Y-51546610D02*
X87035640Y-51546610D01*
X87183231Y-51399019D02*
X87035640Y-51546610D01*
X123504539Y-51399019D02*
X87183231Y-51399019D01*
X127205740Y-55100220D02*
X123504539Y-51399019D01*
X68580000Y-54508400D02*
X122925840Y-54508400D01*
X122925840Y-54508400D02*
X123037600Y-54508400D01*
D34*
X123214993Y-53905999D02*
X118989261Y-53905999D01*
X124241839Y-54932845D02*
X123214993Y-53905999D01*
X123941840Y-60002420D02*
X124241839Y-59702421D01*
X124241839Y-59702421D02*
X124241839Y-54932845D01*
X71254719Y-57201819D02*
X71557121Y-57504221D01*
X71557121Y-57504221D02*
X72420720Y-58367820D01*
X118989261Y-53905999D02*
X118952859Y-53942401D01*
X118952859Y-53942401D02*
X70170040Y-53942401D01*
D33*
X71254719Y-57201819D02*
X71242939Y-57201819D01*
X71242939Y-57201819D02*
X71135240Y-57094120D01*
X68879299Y-57094120D02*
X68002999Y-56217820D01*
X71135240Y-57094120D02*
X68879299Y-57094120D01*
X68366640Y-53512720D02*
X68823840Y-53512720D01*
X69253521Y-53942401D02*
X70170040Y-53942401D01*
X68823840Y-53512720D02*
X69253521Y-53942401D01*
D36*
X68366640Y-53512720D02*
X68036440Y-53512720D01*
X68036440Y-53512720D02*
X67630040Y-53919120D01*
X67630040Y-55844861D02*
X68879299Y-57094120D01*
X67630040Y-53919120D02*
X67630040Y-55844861D01*
D32*
X200380600Y-42646600D02*
X181229000Y-42646600D01*
D34*
X196164200Y-47879000D02*
X193624200Y-47879000D01*
X182676800Y-37185600D02*
X196164200Y-37185600D01*
D33*
X154358340Y-59862720D02*
X154358340Y-55869720D01*
X72415400Y-49657000D02*
X72446060Y-49657000D01*
X72446060Y-49657000D02*
X72717540Y-49385520D01*
X72717540Y-49385520D02*
X72842540Y-49510520D01*
X72842540Y-49510520D02*
X154367540Y-49510520D01*
X154358340Y-55869720D02*
X154367540Y-55860520D01*
D34*
X153088340Y-63192660D02*
X152831800Y-63449200D01*
X153088340Y-59875420D02*
X153088340Y-63192660D01*
D36*
X69875400Y-50266600D02*
X86627310Y-50266600D01*
X86721290Y-50172620D02*
X120563640Y-50172620D01*
X120563640Y-50172620D02*
X120576340Y-50159920D01*
X86627310Y-50266600D02*
X86721290Y-50172620D01*
X127317540Y-50159920D02*
X127642540Y-50159920D01*
X120576340Y-50159920D02*
X127317540Y-50159920D01*
D33*
X153166940Y-50159920D02*
X153167540Y-50160520D01*
X152442540Y-50159920D02*
X153166940Y-50159920D01*
X152442540Y-50159920D02*
X152741940Y-50159920D01*
X127317540Y-50159920D02*
X152442540Y-50159920D01*
D34*
X167017540Y-55524254D02*
X167017540Y-31860520D01*
X171867540Y-65710520D02*
X167017540Y-60860520D01*
X167017540Y-60860520D02*
X167017540Y-55524254D01*
X173837541Y-65740521D02*
X173837541Y-41930521D01*
X174137540Y-66040520D02*
X173837541Y-65740521D01*
X173837541Y-41930521D02*
X173837541Y-33810521D01*
X173837541Y-33810521D02*
X173837540Y-33810520D01*
D33*
G36*
X231412616Y-109805233D02*
G01*
X60761645Y-109735799D01*
X60758455Y-107328431D01*
X110382540Y-107328431D01*
X110382540Y-107512609D01*
X110418472Y-107693249D01*
X110488954Y-107863409D01*
X110591278Y-108016548D01*
X110721512Y-108146782D01*
X110874651Y-108249106D01*
X111044811Y-108319588D01*
X111225451Y-108355520D01*
X111409629Y-108355520D01*
X111590269Y-108319588D01*
X111760429Y-108249106D01*
X111913568Y-108146782D01*
X112043802Y-108016548D01*
X112146126Y-107863409D01*
X112216608Y-107693249D01*
X112231071Y-107620539D01*
X115866974Y-103984638D01*
X115897009Y-103959989D01*
X115921659Y-103929953D01*
X115921662Y-103929950D01*
X115995406Y-103840092D01*
X116068522Y-103703303D01*
X116113546Y-103554877D01*
X116113546Y-103554876D01*
X116124940Y-103439193D01*
X116124940Y-103439185D01*
X116128748Y-103400520D01*
X116124940Y-103361855D01*
X116124940Y-102683959D01*
X173697540Y-102683959D01*
X173697540Y-102937081D01*
X173746921Y-103185341D01*
X173843787Y-103419196D01*
X173984415Y-103629660D01*
X174163400Y-103808645D01*
X174373864Y-103949273D01*
X174607719Y-104046139D01*
X174855979Y-104095520D01*
X175109101Y-104095520D01*
X175357361Y-104046139D01*
X175591216Y-103949273D01*
X175801680Y-103808645D01*
X175980665Y-103629660D01*
X176121293Y-103419196D01*
X176218159Y-103185341D01*
X176267540Y-102937081D01*
X176267540Y-102683959D01*
X176218159Y-102435699D01*
X176121293Y-102201844D01*
X175980665Y-101991380D01*
X175801680Y-101812395D01*
X175591216Y-101671767D01*
X175357361Y-101574901D01*
X175109101Y-101525520D01*
X174855979Y-101525520D01*
X174607719Y-101574901D01*
X174373864Y-101671767D01*
X174163400Y-101812395D01*
X173984415Y-101991380D01*
X173843787Y-102201844D01*
X173746921Y-102435699D01*
X173697540Y-102683959D01*
X116124940Y-102683959D01*
X116124940Y-100055618D01*
X218842540Y-100055618D01*
X218842540Y-100525422D01*
X218934194Y-100986199D01*
X219113980Y-101420241D01*
X219374990Y-101810869D01*
X219707191Y-102143070D01*
X220097819Y-102404080D01*
X220531861Y-102583866D01*
X220992638Y-102675520D01*
X221462442Y-102675520D01*
X221923219Y-102583866D01*
X222357261Y-102404080D01*
X222747889Y-102143070D01*
X223080090Y-101810869D01*
X223341100Y-101420241D01*
X223520886Y-100986199D01*
X223612540Y-100525422D01*
X223612540Y-100055618D01*
X223520886Y-99594841D01*
X223341100Y-99160799D01*
X223080090Y-98770171D01*
X222747889Y-98437970D01*
X222357261Y-98176960D01*
X221923219Y-97997174D01*
X221462442Y-97905520D01*
X220992638Y-97905520D01*
X220531861Y-97997174D01*
X220097819Y-98176960D01*
X219707191Y-98437970D01*
X219374990Y-98770171D01*
X219113980Y-99160799D01*
X218934194Y-99594841D01*
X218842540Y-100055618D01*
X116124940Y-100055618D01*
X116124940Y-75215048D01*
X116166126Y-75153409D01*
X116236608Y-74983249D01*
X116272540Y-74802609D01*
X116272540Y-74618431D01*
X116236608Y-74437791D01*
X116166126Y-74267631D01*
X116063802Y-74114492D01*
X115933568Y-73984258D01*
X115780429Y-73881934D01*
X115610269Y-73811452D01*
X115429629Y-73775520D01*
X115245451Y-73775520D01*
X115064811Y-73811452D01*
X114894651Y-73881934D01*
X114741512Y-73984258D01*
X114611278Y-74114492D01*
X114508954Y-74267631D01*
X114438472Y-74437791D01*
X114402540Y-74618431D01*
X114402540Y-74802609D01*
X114438472Y-74983249D01*
X114508954Y-75153409D01*
X114550141Y-75215050D01*
X114550140Y-103074368D01*
X111117521Y-106506989D01*
X111044811Y-106521452D01*
X110874651Y-106591934D01*
X110721512Y-106694258D01*
X110591278Y-106824492D01*
X110488954Y-106977631D01*
X110418472Y-107147791D01*
X110382540Y-107328431D01*
X60758455Y-107328431D01*
X60749480Y-100555618D01*
X68792540Y-100555618D01*
X68792540Y-101025422D01*
X68884194Y-101486199D01*
X69063980Y-101920241D01*
X69324990Y-102310869D01*
X69657191Y-102643070D01*
X70047819Y-102904080D01*
X70481861Y-103083866D01*
X70942638Y-103175520D01*
X71412442Y-103175520D01*
X71873219Y-103083866D01*
X72307261Y-102904080D01*
X72636694Y-102683959D01*
X108497540Y-102683959D01*
X108497540Y-102937081D01*
X108546921Y-103185341D01*
X108643787Y-103419196D01*
X108784415Y-103629660D01*
X108963400Y-103808645D01*
X109173864Y-103949273D01*
X109407719Y-104046139D01*
X109655979Y-104095520D01*
X109909101Y-104095520D01*
X110157361Y-104046139D01*
X110391216Y-103949273D01*
X110601680Y-103808645D01*
X110780665Y-103629660D01*
X110921293Y-103419196D01*
X111018159Y-103185341D01*
X111067540Y-102937081D01*
X111067540Y-102683959D01*
X111018159Y-102435699D01*
X110921293Y-102201844D01*
X110780665Y-101991380D01*
X110601680Y-101812395D01*
X110391216Y-101671767D01*
X110157361Y-101574901D01*
X109909101Y-101525520D01*
X109655979Y-101525520D01*
X109407719Y-101574901D01*
X109173864Y-101671767D01*
X108963400Y-101812395D01*
X108784415Y-101991380D01*
X108643787Y-102201844D01*
X108546921Y-102435699D01*
X108497540Y-102683959D01*
X72636694Y-102683959D01*
X72697889Y-102643070D01*
X73030090Y-102310869D01*
X73291100Y-101920241D01*
X73470886Y-101486199D01*
X73562540Y-101025422D01*
X73562540Y-100555618D01*
X73470886Y-100094841D01*
X73291100Y-99660799D01*
X73030090Y-99270171D01*
X72697889Y-98937970D01*
X72307261Y-98676960D01*
X71873219Y-98497174D01*
X71412442Y-98405520D01*
X70942638Y-98405520D01*
X70481861Y-98497174D01*
X70047819Y-98676960D01*
X69657191Y-98937970D01*
X69324990Y-99270171D01*
X69063980Y-99660799D01*
X68884194Y-100094841D01*
X68792540Y-100555618D01*
X60749480Y-100555618D01*
X60729605Y-85558431D01*
X61422540Y-85558431D01*
X61422540Y-85742609D01*
X61458472Y-85923249D01*
X61528954Y-86093409D01*
X61631278Y-86246548D01*
X61761512Y-86376782D01*
X61914651Y-86479106D01*
X62084811Y-86549588D01*
X62265451Y-86585520D01*
X62449629Y-86585520D01*
X62630269Y-86549588D01*
X62800429Y-86479106D01*
X62953568Y-86376782D01*
X63083802Y-86246548D01*
X63186126Y-86093409D01*
X63256608Y-85923249D01*
X63292540Y-85742609D01*
X63292540Y-85558431D01*
X63256608Y-85377791D01*
X63186126Y-85207631D01*
X63144940Y-85145992D01*
X63144940Y-72374111D01*
X193146400Y-72374111D01*
X193146400Y-72558289D01*
X193182332Y-72738929D01*
X193252814Y-72909089D01*
X193355138Y-73062228D01*
X193485372Y-73192462D01*
X193638511Y-73294786D01*
X193808671Y-73365268D01*
X193989311Y-73401200D01*
X194173489Y-73401200D01*
X194354129Y-73365268D01*
X194524289Y-73294786D01*
X194528908Y-73291700D01*
X196151503Y-73291700D01*
X196198707Y-73447309D01*
X196327366Y-73688015D01*
X196500514Y-73898995D01*
X196711494Y-74072144D01*
X196952200Y-74200803D01*
X197213381Y-74280032D01*
X197485000Y-74306784D01*
X197756618Y-74280032D01*
X198017799Y-74200803D01*
X198258505Y-74072144D01*
X198469485Y-73898996D01*
X198642634Y-73688016D01*
X198757418Y-73473269D01*
X198793501Y-73562077D01*
X198943498Y-73789888D01*
X199135057Y-73984058D01*
X199360815Y-74137126D01*
X199612098Y-74243210D01*
X199683725Y-74257393D01*
X199898000Y-74134739D01*
X199898000Y-72542400D01*
X199878000Y-72542400D01*
X199878000Y-72288400D01*
X199898000Y-72288400D01*
X199898000Y-70696061D01*
X200152000Y-70696061D01*
X200152000Y-72288400D01*
X200172000Y-72288400D01*
X200172000Y-72542400D01*
X200152000Y-72542400D01*
X200152000Y-74134739D01*
X200366275Y-74257393D01*
X200437902Y-74243210D01*
X200689185Y-74137126D01*
X200914943Y-73984058D01*
X201106502Y-73789888D01*
X201256499Y-73562077D01*
X201292582Y-73473268D01*
X201407366Y-73688015D01*
X201580514Y-73898995D01*
X201791494Y-74072144D01*
X202032200Y-74200803D01*
X202293381Y-74280032D01*
X202565000Y-74306784D01*
X202836618Y-74280032D01*
X203097799Y-74200803D01*
X203338505Y-74072144D01*
X203549485Y-73898996D01*
X203722634Y-73688016D01*
X203851293Y-73447310D01*
X203930522Y-73186129D01*
X203950570Y-72982577D01*
X203950570Y-71848223D01*
X203930522Y-71644671D01*
X203851293Y-71383490D01*
X203722634Y-71142784D01*
X203549486Y-70931804D01*
X203338506Y-70758656D01*
X203097800Y-70629997D01*
X202836619Y-70550768D01*
X202565000Y-70524016D01*
X202293382Y-70550768D01*
X202032201Y-70629997D01*
X201791495Y-70758656D01*
X201580515Y-70931804D01*
X201407366Y-71142784D01*
X201292582Y-71357531D01*
X201256499Y-71268723D01*
X201106502Y-71040912D01*
X200914943Y-70846742D01*
X200689185Y-70693674D01*
X200437902Y-70587590D01*
X200366275Y-70573407D01*
X200152000Y-70696061D01*
X199898000Y-70696061D01*
X199683725Y-70573407D01*
X199612098Y-70587590D01*
X199360815Y-70693674D01*
X199135057Y-70846742D01*
X198943498Y-71040912D01*
X198793501Y-71268723D01*
X198757418Y-71357531D01*
X198642634Y-71142784D01*
X198469486Y-70931804D01*
X198258506Y-70758656D01*
X198017800Y-70629997D01*
X197756619Y-70550768D01*
X197485000Y-70524016D01*
X197213382Y-70550768D01*
X196952201Y-70629997D01*
X196711495Y-70758656D01*
X196500515Y-70931804D01*
X196327366Y-71142784D01*
X196198707Y-71383490D01*
X196120683Y-71640700D01*
X194528908Y-71640700D01*
X194524289Y-71637614D01*
X194354129Y-71567132D01*
X194173489Y-71531200D01*
X193989311Y-71531200D01*
X193808671Y-71567132D01*
X193638511Y-71637614D01*
X193485372Y-71739938D01*
X193355138Y-71870172D01*
X193252814Y-72023311D01*
X193182332Y-72193471D01*
X193146400Y-72374111D01*
X63144940Y-72374111D01*
X63144940Y-53919120D01*
X66889876Y-53919120D01*
X66893440Y-53955304D01*
X66893441Y-55808668D01*
X66889876Y-55844861D01*
X66900489Y-55952609D01*
X66904099Y-55989260D01*
X66913150Y-56019098D01*
X66946218Y-56128108D01*
X67014616Y-56256073D01*
X67071552Y-56325449D01*
X67106666Y-56368236D01*
X67134772Y-56391302D01*
X67343013Y-56599543D01*
X67366354Y-56643212D01*
X67437720Y-56730171D01*
X68314020Y-57606471D01*
X68337877Y-57635542D01*
X68453907Y-57730765D01*
X68506860Y-57759069D01*
X68489495Y-57791556D01*
X68403804Y-58074043D01*
X68374869Y-58367820D01*
X68403804Y-58661597D01*
X68489495Y-58944084D01*
X68628651Y-59204426D01*
X68815923Y-59432617D01*
X69044114Y-59619889D01*
X69304456Y-59759045D01*
X69586943Y-59844736D01*
X69807101Y-59866420D01*
X69954339Y-59866420D01*
X70174497Y-59844736D01*
X70456984Y-59759045D01*
X70717326Y-59619889D01*
X70945517Y-59432617D01*
X71132789Y-59204426D01*
X71150720Y-59170880D01*
X71168651Y-59204426D01*
X71355923Y-59432617D01*
X71584114Y-59619889D01*
X71844456Y-59759045D01*
X72126943Y-59844736D01*
X72347101Y-59866420D01*
X72494339Y-59866420D01*
X72714497Y-59844736D01*
X72996984Y-59759045D01*
X73257326Y-59619889D01*
X73485517Y-59432617D01*
X73672789Y-59204426D01*
X73690720Y-59170880D01*
X73708651Y-59204426D01*
X73895923Y-59432617D01*
X74124114Y-59619889D01*
X74384456Y-59759045D01*
X74666943Y-59844736D01*
X74887101Y-59866420D01*
X75034339Y-59866420D01*
X75254497Y-59844736D01*
X75536984Y-59759045D01*
X75797326Y-59619889D01*
X76025517Y-59432617D01*
X76212789Y-59204426D01*
X76230720Y-59170880D01*
X76248651Y-59204426D01*
X76435923Y-59432617D01*
X76664114Y-59619889D01*
X76924456Y-59759045D01*
X77206943Y-59844736D01*
X77427101Y-59866420D01*
X77574339Y-59866420D01*
X77794497Y-59844736D01*
X78076984Y-59759045D01*
X78337326Y-59619889D01*
X78565517Y-59432617D01*
X78752789Y-59204426D01*
X78776583Y-59159910D01*
X78833903Y-59256308D01*
X79030427Y-59474674D01*
X79265776Y-59650504D01*
X79530906Y-59777042D01*
X79681694Y-59822778D01*
X79913720Y-59701637D01*
X79913720Y-58494820D01*
X79893720Y-58494820D01*
X79893720Y-58240820D01*
X79913720Y-58240820D01*
X79913720Y-58220820D01*
X80167720Y-58220820D01*
X80167720Y-58240820D01*
X80187720Y-58240820D01*
X80187720Y-58494820D01*
X80167720Y-58494820D01*
X80167720Y-59701637D01*
X80399746Y-59822778D01*
X80550534Y-59777042D01*
X80815664Y-59650504D01*
X81051013Y-59474674D01*
X81247537Y-59256308D01*
X81304857Y-59159910D01*
X81328651Y-59204426D01*
X81515923Y-59432617D01*
X81744114Y-59619889D01*
X82004456Y-59759045D01*
X82286943Y-59844736D01*
X82507101Y-59866420D01*
X82654339Y-59866420D01*
X82874497Y-59844736D01*
X83156984Y-59759045D01*
X83417326Y-59619889D01*
X83645517Y-59432617D01*
X83832789Y-59204426D01*
X83850720Y-59170880D01*
X83868651Y-59204426D01*
X84055923Y-59432617D01*
X84284114Y-59619889D01*
X84544456Y-59759045D01*
X84826943Y-59844736D01*
X85047101Y-59866420D01*
X85194339Y-59866420D01*
X85414497Y-59844736D01*
X85696984Y-59759045D01*
X85957326Y-59619889D01*
X86185517Y-59432617D01*
X86372789Y-59204426D01*
X86390720Y-59170880D01*
X86408651Y-59204426D01*
X86595923Y-59432617D01*
X86824114Y-59619889D01*
X87084456Y-59759045D01*
X87366943Y-59844736D01*
X87587101Y-59866420D01*
X87734339Y-59866420D01*
X87954497Y-59844736D01*
X88236984Y-59759045D01*
X88497326Y-59619889D01*
X88725517Y-59432617D01*
X88912789Y-59204426D01*
X88930720Y-59170880D01*
X88948651Y-59204426D01*
X89135923Y-59432617D01*
X89364114Y-59619889D01*
X89624456Y-59759045D01*
X89906943Y-59844736D01*
X90127101Y-59866420D01*
X90274339Y-59866420D01*
X90494497Y-59844736D01*
X90776984Y-59759045D01*
X91037326Y-59619889D01*
X91265517Y-59432617D01*
X91452789Y-59204426D01*
X91476583Y-59159910D01*
X91533903Y-59256308D01*
X91730427Y-59474674D01*
X91965776Y-59650504D01*
X92230906Y-59777042D01*
X92381694Y-59822778D01*
X92613720Y-59701637D01*
X92613720Y-58494820D01*
X92867720Y-58494820D01*
X92867720Y-59701637D01*
X93099746Y-59822778D01*
X93250534Y-59777042D01*
X93401566Y-59704959D01*
X108484540Y-59704959D01*
X108484540Y-59958081D01*
X108533921Y-60206341D01*
X108630787Y-60440196D01*
X108771415Y-60650660D01*
X108950400Y-60829645D01*
X109160864Y-60970273D01*
X109394719Y-61067139D01*
X109642979Y-61116520D01*
X109896101Y-61116520D01*
X110144361Y-61067139D01*
X110378216Y-60970273D01*
X110588680Y-60829645D01*
X110767665Y-60650660D01*
X110908293Y-60440196D01*
X111005159Y-60206341D01*
X111054540Y-59958081D01*
X111054540Y-59704959D01*
X111005159Y-59456699D01*
X110908293Y-59222844D01*
X110767665Y-59012380D01*
X110588680Y-58833395D01*
X110378216Y-58692767D01*
X110144361Y-58595901D01*
X109896101Y-58546520D01*
X109642979Y-58546520D01*
X109394719Y-58595901D01*
X109160864Y-58692767D01*
X108950400Y-58833395D01*
X108771415Y-59012380D01*
X108630787Y-59222844D01*
X108533921Y-59456699D01*
X108484540Y-59704959D01*
X93401566Y-59704959D01*
X93515664Y-59650504D01*
X93751013Y-59474674D01*
X93947537Y-59256308D01*
X94097684Y-59003798D01*
X94195683Y-58726847D01*
X94075184Y-58494820D01*
X92867720Y-58494820D01*
X92613720Y-58494820D01*
X92593720Y-58494820D01*
X92593720Y-58240820D01*
X92613720Y-58240820D01*
X92613720Y-58220820D01*
X92867720Y-58220820D01*
X92867720Y-58240820D01*
X94075184Y-58240820D01*
X94195683Y-58008793D01*
X94143457Y-57861200D01*
X95322138Y-57861200D01*
X95421791Y-57927786D01*
X95591951Y-57998268D01*
X95772591Y-58034200D01*
X95956769Y-58034200D01*
X96137409Y-57998268D01*
X96307569Y-57927786D01*
X96460708Y-57825462D01*
X96590942Y-57695228D01*
X96693266Y-57542089D01*
X96763748Y-57371929D01*
X96799680Y-57191289D01*
X96799680Y-57007111D01*
X96763748Y-56826471D01*
X96693266Y-56656311D01*
X96590942Y-56503172D01*
X96460708Y-56372938D01*
X96307569Y-56270614D01*
X96137409Y-56200132D01*
X95956769Y-56164200D01*
X95772591Y-56164200D01*
X95591951Y-56200132D01*
X95421791Y-56270614D01*
X95322138Y-56337200D01*
X94242392Y-56337200D01*
X94242392Y-55270400D01*
X122383298Y-55270400D01*
X122482951Y-55336986D01*
X122653111Y-55407468D01*
X122833751Y-55443400D01*
X123017929Y-55443400D01*
X123198569Y-55407468D01*
X123368729Y-55336986D01*
X123454440Y-55279716D01*
X123454439Y-59203576D01*
X123345812Y-59276158D01*
X123215578Y-59406392D01*
X123113254Y-59559531D01*
X123042772Y-59729691D01*
X123006840Y-59910331D01*
X123006840Y-60094509D01*
X123042772Y-60275149D01*
X123113254Y-60445309D01*
X123215578Y-60598448D01*
X123345812Y-60728682D01*
X123498951Y-60831006D01*
X123669111Y-60901488D01*
X123849751Y-60937420D01*
X124033929Y-60937420D01*
X124214569Y-60901488D01*
X124384729Y-60831006D01*
X124537868Y-60728682D01*
X124668102Y-60598448D01*
X124770426Y-60445309D01*
X124840908Y-60275149D01*
X124857058Y-60193958D01*
X124899705Y-60141993D01*
X124972821Y-60005204D01*
X125017845Y-59856778D01*
X125029239Y-59741094D01*
X125029239Y-59741086D01*
X125033047Y-59702421D01*
X125029239Y-59663756D01*
X125029239Y-54971510D01*
X125033047Y-54932845D01*
X125029239Y-54894180D01*
X125029239Y-54894172D01*
X125017845Y-54778488D01*
X124972821Y-54630062D01*
X124899705Y-54493273D01*
X124862539Y-54447986D01*
X124825961Y-54403415D01*
X124825958Y-54403412D01*
X124801308Y-54373376D01*
X124771272Y-54348726D01*
X123799120Y-53376576D01*
X123774462Y-53346530D01*
X123654565Y-53248133D01*
X123517776Y-53175017D01*
X123369350Y-53129993D01*
X123253666Y-53118599D01*
X123253656Y-53118599D01*
X123214993Y-53114791D01*
X123176330Y-53118599D01*
X119027923Y-53118599D01*
X118989260Y-53114791D01*
X118950597Y-53118599D01*
X118950588Y-53118599D01*
X118834904Y-53129993D01*
X118752463Y-53155001D01*
X112309950Y-53155001D01*
X112291608Y-53062791D01*
X112221126Y-52892631D01*
X112118802Y-52739492D01*
X111988568Y-52609258D01*
X111835429Y-52506934D01*
X111764532Y-52477568D01*
X111803726Y-52418909D01*
X111874208Y-52248749D01*
X111891659Y-52161019D01*
X123188909Y-52161019D01*
X126283290Y-55255400D01*
X126306672Y-55372949D01*
X126377154Y-55543109D01*
X126479478Y-55696248D01*
X126609712Y-55826482D01*
X126762851Y-55928806D01*
X126933011Y-55999288D01*
X127113651Y-56035220D01*
X127297829Y-56035220D01*
X127478469Y-55999288D01*
X127648629Y-55928806D01*
X127801768Y-55826482D01*
X127932002Y-55696248D01*
X128034326Y-55543109D01*
X128104808Y-55372949D01*
X128140740Y-55192309D01*
X128140740Y-55038768D01*
X128164269Y-55034088D01*
X128334429Y-54963606D01*
X128487568Y-54861282D01*
X128617802Y-54731048D01*
X128689345Y-54623976D01*
X136438640Y-62373272D01*
X136438641Y-64057449D01*
X136434954Y-64094882D01*
X136449667Y-64244260D01*
X136493239Y-64387897D01*
X136563995Y-64520274D01*
X136632695Y-64603984D01*
X136659219Y-64636304D01*
X136688289Y-64660161D01*
X138698047Y-66669920D01*
X126784771Y-66669920D01*
X125552642Y-65437791D01*
X124131624Y-64016774D01*
X124107762Y-63987698D01*
X123991732Y-63892475D01*
X123859355Y-63821718D01*
X123715718Y-63778146D01*
X123603766Y-63767120D01*
X123603763Y-63767120D01*
X123566340Y-63763434D01*
X123528917Y-63767120D01*
X83117942Y-63767120D01*
X83018289Y-63700534D01*
X82848129Y-63630052D01*
X82667489Y-63594120D01*
X82483311Y-63594120D01*
X82302671Y-63630052D01*
X82132511Y-63700534D01*
X81979372Y-63802858D01*
X81849138Y-63933092D01*
X81746814Y-64086231D01*
X81676332Y-64256391D01*
X81640400Y-64437031D01*
X81640400Y-64621209D01*
X81676332Y-64801849D01*
X81746814Y-64972009D01*
X81849138Y-65125148D01*
X81979372Y-65255382D01*
X82132511Y-65357706D01*
X82302671Y-65428188D01*
X82483311Y-65464120D01*
X82667489Y-65464120D01*
X82848129Y-65428188D01*
X83018289Y-65357706D01*
X83117942Y-65291120D01*
X84157540Y-65291120D01*
X84157540Y-65339609D01*
X84193472Y-65520249D01*
X84263954Y-65690409D01*
X84366278Y-65843548D01*
X84496512Y-65973782D01*
X84649651Y-66076106D01*
X84819811Y-66146588D01*
X85000451Y-66182520D01*
X85184629Y-66182520D01*
X85365269Y-66146588D01*
X85535429Y-66076106D01*
X85688568Y-65973782D01*
X85818802Y-65843548D01*
X85869134Y-65768220D01*
X86735640Y-65768220D01*
X86735640Y-65898409D01*
X86771572Y-66079049D01*
X86842054Y-66249209D01*
X86944378Y-66402348D01*
X87074612Y-66532582D01*
X87227751Y-66634906D01*
X87397911Y-66705388D01*
X87578551Y-66741320D01*
X87762729Y-66741320D01*
X87943369Y-66705388D01*
X88113529Y-66634906D01*
X88266668Y-66532582D01*
X88396902Y-66402348D01*
X88464206Y-66301620D01*
X89292758Y-66301620D01*
X89324272Y-66460049D01*
X89394754Y-66630209D01*
X89497078Y-66783348D01*
X89627312Y-66913582D01*
X89780451Y-67015906D01*
X89950611Y-67086388D01*
X90131251Y-67122320D01*
X90315429Y-67122320D01*
X90496069Y-67086388D01*
X90666229Y-67015906D01*
X90765882Y-66949320D01*
X122686410Y-66949320D01*
X125310293Y-69573204D01*
X125334151Y-69602275D01*
X125450181Y-69697498D01*
X125582558Y-69768255D01*
X125726195Y-69811827D01*
X125838147Y-69822853D01*
X125838149Y-69822853D01*
X125875572Y-69826539D01*
X125912995Y-69822853D01*
X143001910Y-69822853D01*
X143134207Y-69955150D01*
X143158069Y-69984226D01*
X143274099Y-70079449D01*
X143406476Y-70150206D01*
X143550113Y-70193778D01*
X143662065Y-70204804D01*
X143662067Y-70204804D01*
X143699490Y-70208490D01*
X143736913Y-70204804D01*
X146344385Y-70204804D01*
X146433939Y-70338831D01*
X146564173Y-70469065D01*
X146717312Y-70571389D01*
X146887472Y-70641871D01*
X147068112Y-70677803D01*
X147252290Y-70677803D01*
X147432930Y-70641871D01*
X147603090Y-70571389D01*
X147756229Y-70469065D01*
X147886463Y-70338831D01*
X147988787Y-70185692D01*
X148059269Y-70015532D01*
X148095201Y-69834892D01*
X148095201Y-69650714D01*
X148059269Y-69470074D01*
X148025847Y-69389386D01*
X148134425Y-69447422D01*
X148278062Y-69490994D01*
X148390014Y-69502020D01*
X148390016Y-69502020D01*
X148427439Y-69505706D01*
X148464862Y-69502020D01*
X148570698Y-69502020D01*
X148670351Y-69568606D01*
X148840511Y-69639088D01*
X149021151Y-69675020D01*
X149205329Y-69675020D01*
X149385969Y-69639088D01*
X149556129Y-69568606D01*
X149709268Y-69466282D01*
X149839502Y-69336048D01*
X149941826Y-69182909D01*
X150012308Y-69012749D01*
X150048240Y-68832109D01*
X150048240Y-68647931D01*
X150012308Y-68467291D01*
X149941826Y-68297131D01*
X149839502Y-68143992D01*
X149709268Y-68013758D01*
X149556129Y-67911434D01*
X149385969Y-67840952D01*
X149299995Y-67823851D01*
X149311640Y-67765309D01*
X149311640Y-67691000D01*
X151349458Y-67691000D01*
X151449111Y-67757586D01*
X151619271Y-67828068D01*
X151799911Y-67864000D01*
X151984089Y-67864000D01*
X152164729Y-67828068D01*
X152334889Y-67757586D01*
X152434542Y-67691000D01*
X153229058Y-67691000D01*
X153328711Y-67757586D01*
X153498871Y-67828068D01*
X153679511Y-67864000D01*
X153863689Y-67864000D01*
X154044329Y-67828068D01*
X154214489Y-67757586D01*
X154314142Y-67691000D01*
X164532058Y-67691000D01*
X164631711Y-67757586D01*
X164801871Y-67828068D01*
X164982511Y-67864000D01*
X165166689Y-67864000D01*
X165347329Y-67828068D01*
X165517489Y-67757586D01*
X165617142Y-67691000D01*
X166437058Y-67691000D01*
X166536711Y-67757586D01*
X166706871Y-67828068D01*
X166887511Y-67864000D01*
X167071689Y-67864000D01*
X167252329Y-67828068D01*
X167422489Y-67757586D01*
X167522142Y-67691000D01*
X168519858Y-67691000D01*
X168619511Y-67757586D01*
X168789671Y-67828068D01*
X168970311Y-67864000D01*
X169154489Y-67864000D01*
X169335129Y-67828068D01*
X169505289Y-67757586D01*
X169604942Y-67691000D01*
X170323258Y-67691000D01*
X170422911Y-67757586D01*
X170593071Y-67828068D01*
X170773711Y-67864000D01*
X170957889Y-67864000D01*
X171138529Y-67828068D01*
X171308689Y-67757586D01*
X171408342Y-67691000D01*
X175858873Y-67691000D01*
X175970231Y-67765407D01*
X176140391Y-67835889D01*
X176321031Y-67871821D01*
X176505209Y-67871821D01*
X176685849Y-67835889D01*
X176856009Y-67765407D01*
X177009148Y-67663083D01*
X177139382Y-67532849D01*
X177241706Y-67379710D01*
X177312188Y-67209550D01*
X177348120Y-67028910D01*
X177348120Y-66844732D01*
X177312188Y-66664092D01*
X177241706Y-66493932D01*
X177139382Y-66340793D01*
X177009148Y-66210559D01*
X176856009Y-66108235D01*
X176685849Y-66037753D01*
X176505209Y-66001821D01*
X176321031Y-66001821D01*
X176140391Y-66037753D01*
X175970231Y-66108235D01*
X175882283Y-66167000D01*
X175065699Y-66167000D01*
X175072540Y-66132609D01*
X175072540Y-65948431D01*
X175036608Y-65767791D01*
X174966126Y-65597631D01*
X174863802Y-65444492D01*
X174733568Y-65314258D01*
X174624941Y-65241676D01*
X174624941Y-64012431D01*
X176311280Y-64012431D01*
X176311280Y-64196609D01*
X176347212Y-64377249D01*
X176417694Y-64547409D01*
X176520018Y-64700548D01*
X176650252Y-64830782D01*
X176803391Y-64933106D01*
X176973551Y-65003588D01*
X177154191Y-65039520D01*
X177338369Y-65039520D01*
X177519009Y-65003588D01*
X177689169Y-64933106D01*
X177788822Y-64866520D01*
X183519409Y-64866520D01*
X181227194Y-67158736D01*
X181198118Y-67182598D01*
X181158945Y-67230331D01*
X181102895Y-67298628D01*
X181080968Y-67339652D01*
X181032138Y-67431006D01*
X180988566Y-67574643D01*
X180978462Y-67677229D01*
X180456272Y-68199420D01*
X178738782Y-68199420D01*
X178639129Y-68132834D01*
X178468969Y-68062352D01*
X178288329Y-68026420D01*
X178104151Y-68026420D01*
X177923511Y-68062352D01*
X177753351Y-68132834D01*
X177600212Y-68235158D01*
X177469978Y-68365392D01*
X177367654Y-68518531D01*
X177297172Y-68688691D01*
X177261240Y-68869331D01*
X177261240Y-69053509D01*
X177297172Y-69234149D01*
X177367654Y-69404309D01*
X177469978Y-69557448D01*
X177600212Y-69687682D01*
X177753351Y-69790006D01*
X177923511Y-69860488D01*
X178104151Y-69896420D01*
X178288329Y-69896420D01*
X178468969Y-69860488D01*
X178639129Y-69790006D01*
X178738782Y-69723420D01*
X180734479Y-69723420D01*
X180771902Y-69727106D01*
X180809325Y-69723420D01*
X180809328Y-69723420D01*
X180921280Y-69712394D01*
X181064917Y-69668822D01*
X181197294Y-69598065D01*
X181313324Y-69502842D01*
X181337186Y-69473766D01*
X182251891Y-68559061D01*
X182280962Y-68535204D01*
X182323105Y-68483853D01*
X182376185Y-68419175D01*
X182414005Y-68348418D01*
X182446942Y-68286797D01*
X182490514Y-68143159D01*
X182500618Y-68040572D01*
X184582192Y-65958999D01*
X185742978Y-65958999D01*
X185780401Y-65962685D01*
X185817824Y-65958999D01*
X185817827Y-65958999D01*
X185929779Y-65947973D01*
X186073416Y-65904401D01*
X186205793Y-65833644D01*
X186219092Y-65822730D01*
X186353129Y-65796068D01*
X186523289Y-65725586D01*
X186676428Y-65623262D01*
X186806662Y-65493028D01*
X186908986Y-65339889D01*
X186979468Y-65169729D01*
X187015400Y-64989089D01*
X187015400Y-64804911D01*
X186979468Y-64624271D01*
X186908986Y-64454111D01*
X186806662Y-64300972D01*
X186676428Y-64170738D01*
X186523289Y-64068414D01*
X186405800Y-64019749D01*
X186405800Y-63992111D01*
X186369868Y-63811471D01*
X186299386Y-63641311D01*
X186197062Y-63488172D01*
X186066828Y-63357938D01*
X185913689Y-63255614D01*
X185743529Y-63185132D01*
X185562889Y-63149200D01*
X185378711Y-63149200D01*
X185198071Y-63185132D01*
X185027911Y-63255614D01*
X184897847Y-63342520D01*
X177788822Y-63342520D01*
X177689169Y-63275934D01*
X177519009Y-63205452D01*
X177338369Y-63169520D01*
X177154191Y-63169520D01*
X176973551Y-63205452D01*
X176803391Y-63275934D01*
X176650252Y-63378258D01*
X176520018Y-63508492D01*
X176417694Y-63661631D01*
X176347212Y-63831791D01*
X176311280Y-64012431D01*
X174624941Y-64012431D01*
X174624941Y-62601306D01*
X174687851Y-62613820D01*
X174872029Y-62613820D01*
X175052669Y-62577888D01*
X175076976Y-62567820D01*
X180088144Y-62567820D01*
X180131804Y-62572120D01*
X180175464Y-62567820D01*
X180175471Y-62567820D01*
X180306078Y-62554956D01*
X180473655Y-62504123D01*
X180628095Y-62421573D01*
X180763463Y-62310479D01*
X180791303Y-62276557D01*
X181240080Y-61827780D01*
X181350110Y-61794402D01*
X181526612Y-61700060D01*
X181642557Y-61604907D01*
X183140064Y-60107400D01*
X194803928Y-60107400D01*
X194816188Y-60231882D01*
X194852498Y-60351580D01*
X194911463Y-60461894D01*
X194990815Y-60558585D01*
X195087506Y-60637937D01*
X195197820Y-60696902D01*
X195317518Y-60733212D01*
X195442000Y-60745472D01*
X196056250Y-60742400D01*
X196215000Y-60583650D01*
X196215000Y-59334400D01*
X194965750Y-59334400D01*
X194807000Y-59493150D01*
X194803928Y-60107400D01*
X183140064Y-60107400D01*
X184556273Y-58691192D01*
X184595036Y-58659380D01*
X184722000Y-58504674D01*
X184816342Y-58328171D01*
X184822642Y-58307400D01*
X194803928Y-58307400D01*
X194807000Y-58921650D01*
X194965750Y-59080400D01*
X196215000Y-59080400D01*
X196215000Y-57831150D01*
X196469000Y-57831150D01*
X196469000Y-59080400D01*
X196489000Y-59080400D01*
X196489000Y-59334400D01*
X196469000Y-59334400D01*
X196469000Y-60583650D01*
X196627750Y-60742400D01*
X197242000Y-60745472D01*
X197366482Y-60733212D01*
X197486180Y-60696902D01*
X197596494Y-60637937D01*
X197693185Y-60558585D01*
X197772537Y-60461894D01*
X197825880Y-60362097D01*
X197863495Y-60399712D01*
X198114905Y-60567699D01*
X198394257Y-60683411D01*
X198690816Y-60742400D01*
X198993184Y-60742400D01*
X199289743Y-60683411D01*
X199569095Y-60567699D01*
X199820505Y-60399712D01*
X200034312Y-60185905D01*
X200202299Y-59934495D01*
X200318011Y-59655143D01*
X200377000Y-59358584D01*
X200377000Y-59056216D01*
X200318011Y-58759657D01*
X200202299Y-58480305D01*
X200034312Y-58228895D01*
X199820505Y-58015088D01*
X199569095Y-57847101D01*
X199289743Y-57731389D01*
X198993184Y-57672400D01*
X198690816Y-57672400D01*
X198394257Y-57731389D01*
X198114905Y-57847101D01*
X197863495Y-58015088D01*
X197825880Y-58052703D01*
X197772537Y-57952906D01*
X197693185Y-57856215D01*
X197596494Y-57776863D01*
X197486180Y-57717898D01*
X197366482Y-57681588D01*
X197242000Y-57669328D01*
X196627750Y-57672400D01*
X196469000Y-57831150D01*
X196215000Y-57831150D01*
X196056250Y-57672400D01*
X195442000Y-57669328D01*
X195317518Y-57681588D01*
X195197820Y-57717898D01*
X195087506Y-57776863D01*
X194990815Y-57856215D01*
X194911463Y-57952906D01*
X194852498Y-58063220D01*
X194816188Y-58182918D01*
X194803928Y-58307400D01*
X184822642Y-58307400D01*
X184874438Y-58136655D01*
X184889140Y-57987386D01*
X184889140Y-57987385D01*
X184894055Y-57937485D01*
X184889140Y-57887583D01*
X184889140Y-57463319D01*
X184874438Y-57314050D01*
X184816342Y-57122533D01*
X184722000Y-56946030D01*
X184595036Y-56791324D01*
X184440330Y-56664360D01*
X184263827Y-56570018D01*
X184072311Y-56511922D01*
X183873140Y-56492305D01*
X183673970Y-56511922D01*
X183482454Y-56570018D01*
X183305951Y-56664360D01*
X183151245Y-56791324D01*
X183024281Y-56946030D01*
X182929938Y-57122533D01*
X182871842Y-57314049D01*
X182857140Y-57463318D01*
X182857140Y-57516643D01*
X180205717Y-60168067D01*
X180110564Y-60284012D01*
X180016222Y-60460514D01*
X179982844Y-60570544D01*
X179763569Y-60789820D01*
X175828505Y-60789820D01*
X175967665Y-60650660D01*
X176108293Y-60440196D01*
X176205159Y-60206341D01*
X176254540Y-59958081D01*
X176254540Y-59704959D01*
X176205159Y-59456699D01*
X176108293Y-59222844D01*
X175967665Y-59012380D01*
X175788680Y-58833395D01*
X175578216Y-58692767D01*
X175344361Y-58595901D01*
X175096101Y-58546520D01*
X174842979Y-58546520D01*
X174624941Y-58589890D01*
X174624941Y-52054111D01*
X179074800Y-52054111D01*
X179074800Y-52238289D01*
X179110732Y-52418929D01*
X179181214Y-52589089D01*
X179283538Y-52742228D01*
X179413772Y-52872462D01*
X179566911Y-52974786D01*
X179737071Y-53045268D01*
X179917711Y-53081200D01*
X180101889Y-53081200D01*
X180282529Y-53045268D01*
X180452689Y-52974786D01*
X180514328Y-52933600D01*
X183107110Y-52933600D01*
X183017338Y-53023372D01*
X182915014Y-53176511D01*
X182844532Y-53346671D01*
X182808600Y-53527311D01*
X182808600Y-53711489D01*
X182844532Y-53892129D01*
X182915014Y-54062289D01*
X183017338Y-54215428D01*
X183147572Y-54345662D01*
X183300711Y-54447986D01*
X183470871Y-54518468D01*
X183651511Y-54554400D01*
X183835689Y-54554400D01*
X184016329Y-54518468D01*
X184186489Y-54447986D01*
X184191108Y-54444900D01*
X193633892Y-54444900D01*
X193638511Y-54447986D01*
X193808671Y-54518468D01*
X193989311Y-54554400D01*
X194173489Y-54554400D01*
X194354129Y-54518468D01*
X194524289Y-54447986D01*
X194677428Y-54345662D01*
X194807662Y-54215428D01*
X194909986Y-54062289D01*
X194980468Y-53892129D01*
X195016400Y-53711489D01*
X195016400Y-53527311D01*
X194980468Y-53346671D01*
X194913936Y-53186047D01*
X206271618Y-53186047D01*
X206325006Y-53414721D01*
X206554914Y-53520615D01*
X206801064Y-53579622D01*
X207053995Y-53589472D01*
X207303989Y-53549790D01*
X207541436Y-53462098D01*
X207630074Y-53414721D01*
X207683462Y-53186047D01*
X206977540Y-52480125D01*
X206271618Y-53186047D01*
X194913936Y-53186047D01*
X194909986Y-53176511D01*
X194807662Y-53023372D01*
X194677428Y-52893138D01*
X194524289Y-52790814D01*
X194354129Y-52720332D01*
X194173489Y-52684400D01*
X193989311Y-52684400D01*
X193808671Y-52720332D01*
X193638511Y-52790814D01*
X193633892Y-52793900D01*
X189777590Y-52793900D01*
X189829262Y-52742228D01*
X189931586Y-52589089D01*
X190002068Y-52418929D01*
X190010413Y-52376975D01*
X205688588Y-52376975D01*
X205728270Y-52626969D01*
X205815962Y-52864416D01*
X205863339Y-52953054D01*
X206092013Y-53006442D01*
X206797935Y-52300520D01*
X207157145Y-52300520D01*
X207863067Y-53006442D01*
X208091741Y-52953054D01*
X208197635Y-52723146D01*
X208256642Y-52476996D01*
X208266492Y-52224065D01*
X208226810Y-51974071D01*
X208139118Y-51736624D01*
X208093096Y-51650520D01*
X210689468Y-51650520D01*
X210689468Y-52950520D01*
X210701728Y-53075002D01*
X210738038Y-53194700D01*
X210797003Y-53305014D01*
X210876355Y-53401705D01*
X210973046Y-53481057D01*
X211083360Y-53540022D01*
X211203058Y-53576332D01*
X211327540Y-53588592D01*
X212627540Y-53588592D01*
X212752022Y-53576332D01*
X212871720Y-53540022D01*
X212982034Y-53481057D01*
X213078725Y-53401705D01*
X213158077Y-53305014D01*
X213217042Y-53194700D01*
X213253352Y-53075002D01*
X213265612Y-52950520D01*
X213265612Y-51650520D01*
X213253352Y-51526038D01*
X213242578Y-51490520D01*
X217519468Y-51490520D01*
X217519468Y-52790520D01*
X217531728Y-52915002D01*
X217568038Y-53034700D01*
X217627003Y-53145014D01*
X217706355Y-53241705D01*
X217803046Y-53321057D01*
X217913360Y-53380022D01*
X218033058Y-53416332D01*
X218157540Y-53428592D01*
X219457540Y-53428592D01*
X219582022Y-53416332D01*
X219701720Y-53380022D01*
X219812034Y-53321057D01*
X219908725Y-53241705D01*
X219988077Y-53145014D01*
X220047042Y-53034700D01*
X220049666Y-53026047D01*
X223101618Y-53026047D01*
X223155006Y-53254721D01*
X223384914Y-53360615D01*
X223631064Y-53419622D01*
X223883995Y-53429472D01*
X224133989Y-53389790D01*
X224371436Y-53302098D01*
X224460074Y-53254721D01*
X224513462Y-53026047D01*
X223807540Y-52320125D01*
X223101618Y-53026047D01*
X220049666Y-53026047D01*
X220083352Y-52915002D01*
X220095612Y-52790520D01*
X220095612Y-52216975D01*
X222518588Y-52216975D01*
X222558270Y-52466969D01*
X222645962Y-52704416D01*
X222693339Y-52793054D01*
X222922013Y-52846442D01*
X223627935Y-52140520D01*
X223987145Y-52140520D01*
X224693067Y-52846442D01*
X224921741Y-52793054D01*
X225027635Y-52563146D01*
X225086642Y-52316996D01*
X225096492Y-52064065D01*
X225056810Y-51814071D01*
X224969118Y-51576624D01*
X224921741Y-51487986D01*
X224693067Y-51434598D01*
X223987145Y-52140520D01*
X223627935Y-52140520D01*
X222922013Y-51434598D01*
X222693339Y-51487986D01*
X222587445Y-51717894D01*
X222528438Y-51964044D01*
X222518588Y-52216975D01*
X220095612Y-52216975D01*
X220095612Y-51490520D01*
X220083352Y-51366038D01*
X220049667Y-51254993D01*
X223101618Y-51254993D01*
X223807540Y-51960915D01*
X224513462Y-51254993D01*
X224460074Y-51026319D01*
X224230166Y-50920425D01*
X223984016Y-50861418D01*
X223731085Y-50851568D01*
X223481091Y-50891250D01*
X223243644Y-50978942D01*
X223155006Y-51026319D01*
X223101618Y-51254993D01*
X220049667Y-51254993D01*
X220047042Y-51246340D01*
X219988077Y-51136026D01*
X219908725Y-51039335D01*
X219812034Y-50959983D01*
X219701720Y-50901018D01*
X219582022Y-50864708D01*
X219457540Y-50852448D01*
X218157540Y-50852448D01*
X218033058Y-50864708D01*
X217913360Y-50901018D01*
X217803046Y-50959983D01*
X217706355Y-51039335D01*
X217627003Y-51136026D01*
X217568038Y-51246340D01*
X217531728Y-51366038D01*
X217519468Y-51490520D01*
X213242578Y-51490520D01*
X213217042Y-51406340D01*
X213158077Y-51296026D01*
X213078725Y-51199335D01*
X212982034Y-51119983D01*
X212871720Y-51061018D01*
X212752022Y-51024708D01*
X212627540Y-51012448D01*
X211327540Y-51012448D01*
X211203058Y-51024708D01*
X211083360Y-51061018D01*
X210973046Y-51119983D01*
X210876355Y-51199335D01*
X210797003Y-51296026D01*
X210738038Y-51406340D01*
X210701728Y-51526038D01*
X210689468Y-51650520D01*
X208093096Y-51650520D01*
X208091741Y-51647986D01*
X207863067Y-51594598D01*
X207157145Y-52300520D01*
X206797935Y-52300520D01*
X206092013Y-51594598D01*
X205863339Y-51647986D01*
X205757445Y-51877894D01*
X205698438Y-52124044D01*
X205688588Y-52376975D01*
X190010413Y-52376975D01*
X190038000Y-52238289D01*
X190038000Y-52054111D01*
X190002068Y-51873471D01*
X189931586Y-51703311D01*
X189829262Y-51550172D01*
X189699028Y-51419938D01*
X189691628Y-51414993D01*
X206271618Y-51414993D01*
X206977540Y-52120915D01*
X207683462Y-51414993D01*
X207630074Y-51186319D01*
X207400166Y-51080425D01*
X207154016Y-51021418D01*
X206901085Y-51011568D01*
X206651091Y-51051250D01*
X206413644Y-51138942D01*
X206325006Y-51186319D01*
X206271618Y-51414993D01*
X189691628Y-51414993D01*
X189545889Y-51317614D01*
X189375729Y-51247132D01*
X189195089Y-51211200D01*
X189010911Y-51211200D01*
X188830271Y-51247132D01*
X188660111Y-51317614D01*
X188598472Y-51358800D01*
X186584928Y-51358800D01*
X186523289Y-51317614D01*
X186353129Y-51247132D01*
X186172489Y-51211200D01*
X185988311Y-51211200D01*
X185807671Y-51247132D01*
X185637511Y-51317614D01*
X185575872Y-51358800D01*
X180514328Y-51358800D01*
X180452689Y-51317614D01*
X180282529Y-51247132D01*
X180101889Y-51211200D01*
X179917711Y-51211200D01*
X179737071Y-51247132D01*
X179566911Y-51317614D01*
X179413772Y-51419938D01*
X179283538Y-51550172D01*
X179181214Y-51703311D01*
X179110732Y-51873471D01*
X179074800Y-52054111D01*
X174624941Y-52054111D01*
X174624941Y-47786911D01*
X192689200Y-47786911D01*
X192689200Y-47971089D01*
X192725132Y-48151729D01*
X192795614Y-48321889D01*
X192897938Y-48475028D01*
X193028172Y-48605262D01*
X193181311Y-48707586D01*
X193351471Y-48778068D01*
X193532111Y-48814000D01*
X193716289Y-48814000D01*
X193896929Y-48778068D01*
X194067089Y-48707586D01*
X194128728Y-48666400D01*
X195659672Y-48666400D01*
X195721311Y-48707586D01*
X195891471Y-48778068D01*
X196072111Y-48814000D01*
X196256289Y-48814000D01*
X196436929Y-48778068D01*
X196607089Y-48707586D01*
X196760228Y-48605262D01*
X196890462Y-48475028D01*
X196992786Y-48321889D01*
X197063268Y-48151729D01*
X197099200Y-47971089D01*
X197099200Y-47786911D01*
X197063268Y-47606271D01*
X196992786Y-47436111D01*
X196890462Y-47282972D01*
X196760228Y-47152738D01*
X196607089Y-47050414D01*
X196436929Y-46979932D01*
X196256289Y-46944000D01*
X196072111Y-46944000D01*
X195891471Y-46979932D01*
X195721311Y-47050414D01*
X195659672Y-47091600D01*
X194128728Y-47091600D01*
X194067089Y-47050414D01*
X193896929Y-46979932D01*
X193716289Y-46944000D01*
X193532111Y-46944000D01*
X193351471Y-46979932D01*
X193181311Y-47050414D01*
X193028172Y-47152738D01*
X192897938Y-47282972D01*
X192795614Y-47436111D01*
X192725132Y-47606271D01*
X192689200Y-47786911D01*
X174624941Y-47786911D01*
X174624941Y-42517576D01*
X179919000Y-42517576D01*
X179919000Y-42775624D01*
X179969342Y-43028713D01*
X180068093Y-43267118D01*
X180211456Y-43481677D01*
X180393923Y-43664144D01*
X180608482Y-43807507D01*
X180846887Y-43906258D01*
X181099976Y-43956600D01*
X181358024Y-43956600D01*
X181611113Y-43906258D01*
X181849518Y-43807507D01*
X182064077Y-43664144D01*
X182065621Y-43662600D01*
X199543979Y-43662600D01*
X199545523Y-43664144D01*
X199760082Y-43807507D01*
X199998487Y-43906258D01*
X200251576Y-43956600D01*
X200509624Y-43956600D01*
X200762713Y-43906258D01*
X201001118Y-43807507D01*
X201215677Y-43664144D01*
X201398144Y-43481677D01*
X201541507Y-43267118D01*
X201640258Y-43028713D01*
X201690600Y-42775624D01*
X201690600Y-42517576D01*
X201640258Y-42264487D01*
X201541507Y-42026082D01*
X201398144Y-41811523D01*
X201215677Y-41629056D01*
X201001118Y-41485693D01*
X200762713Y-41386942D01*
X200509624Y-41336600D01*
X200251576Y-41336600D01*
X199998487Y-41386942D01*
X199760082Y-41485693D01*
X199545523Y-41629056D01*
X199543979Y-41630600D01*
X182065621Y-41630600D01*
X182064077Y-41629056D01*
X181849518Y-41485693D01*
X181611113Y-41386942D01*
X181358024Y-41336600D01*
X181099976Y-41336600D01*
X180846887Y-41386942D01*
X180608482Y-41485693D01*
X180393923Y-41629056D01*
X180211456Y-41811523D01*
X180068093Y-42026082D01*
X179969342Y-42264487D01*
X179919000Y-42517576D01*
X174624941Y-42517576D01*
X174624941Y-37093511D01*
X181741800Y-37093511D01*
X181741800Y-37277689D01*
X181777732Y-37458329D01*
X181848214Y-37628489D01*
X181950538Y-37781628D01*
X182080772Y-37911862D01*
X182233911Y-38014186D01*
X182404071Y-38084668D01*
X182584711Y-38120600D01*
X182768889Y-38120600D01*
X182949529Y-38084668D01*
X183119689Y-38014186D01*
X183181328Y-37973000D01*
X195659672Y-37973000D01*
X195721311Y-38014186D01*
X195891471Y-38084668D01*
X196072111Y-38120600D01*
X196256289Y-38120600D01*
X196436929Y-38084668D01*
X196607089Y-38014186D01*
X196760228Y-37911862D01*
X196890462Y-37781628D01*
X196992786Y-37628489D01*
X197063268Y-37458329D01*
X197068716Y-37430942D01*
X197088111Y-37434800D01*
X197272289Y-37434800D01*
X197452929Y-37398868D01*
X197623089Y-37328386D01*
X197776228Y-37226062D01*
X197906462Y-37095828D01*
X198008786Y-36942689D01*
X198079268Y-36772529D01*
X198115200Y-36591889D01*
X198115200Y-36407711D01*
X198079268Y-36227071D01*
X198008786Y-36056911D01*
X197906462Y-35903772D01*
X197776228Y-35773538D01*
X197623089Y-35671214D01*
X197452929Y-35600732D01*
X197272289Y-35564800D01*
X197088111Y-35564800D01*
X196907471Y-35600732D01*
X196737311Y-35671214D01*
X196637658Y-35737800D01*
X188477142Y-35737800D01*
X188377489Y-35671214D01*
X188207329Y-35600732D01*
X188026689Y-35564800D01*
X187842511Y-35564800D01*
X187661871Y-35600732D01*
X187491711Y-35671214D01*
X187392058Y-35737800D01*
X185124342Y-35737800D01*
X185024689Y-35671214D01*
X184854529Y-35600732D01*
X184673889Y-35564800D01*
X184489711Y-35564800D01*
X184309071Y-35600732D01*
X184138911Y-35671214D01*
X183985772Y-35773538D01*
X183855538Y-35903772D01*
X183753214Y-36056911D01*
X183682732Y-36227071D01*
X183648692Y-36398200D01*
X183181328Y-36398200D01*
X183119689Y-36357014D01*
X182949529Y-36286532D01*
X182768889Y-36250600D01*
X182584711Y-36250600D01*
X182404071Y-36286532D01*
X182233911Y-36357014D01*
X182080772Y-36459338D01*
X181950538Y-36589572D01*
X181848214Y-36742711D01*
X181777732Y-36912871D01*
X181741800Y-37093511D01*
X174624941Y-37093511D01*
X174624941Y-34315047D01*
X174666126Y-34253409D01*
X174736608Y-34083249D01*
X174772540Y-33902609D01*
X174772540Y-33718431D01*
X174736608Y-33537791D01*
X174666126Y-33367631D01*
X174563802Y-33214492D01*
X174433568Y-33084258D01*
X174280429Y-32981934D01*
X174110269Y-32911452D01*
X173929629Y-32875520D01*
X173745451Y-32875520D01*
X173564811Y-32911452D01*
X173394651Y-32981934D01*
X173241512Y-33084258D01*
X173111278Y-33214492D01*
X173008954Y-33367631D01*
X172938472Y-33537791D01*
X172902540Y-33718431D01*
X172902540Y-33902609D01*
X172938472Y-34083249D01*
X173008954Y-34253409D01*
X173050142Y-34315051D01*
X173050141Y-41969193D01*
X173050142Y-41969203D01*
X173050141Y-65701858D01*
X173046333Y-65740521D01*
X173050141Y-65779184D01*
X173050141Y-65779193D01*
X173061535Y-65894877D01*
X173106559Y-66043303D01*
X173172677Y-66167000D01*
X172687045Y-66167000D01*
X172696126Y-66153409D01*
X172766608Y-65983249D01*
X172802540Y-65802609D01*
X172802540Y-65618431D01*
X172766608Y-65437791D01*
X172696126Y-65267631D01*
X172593802Y-65114492D01*
X172463568Y-64984258D01*
X172310429Y-64881934D01*
X172140269Y-64811452D01*
X172067560Y-64796989D01*
X167804940Y-60534370D01*
X167804940Y-32365048D01*
X167846126Y-32303409D01*
X167916608Y-32133249D01*
X167952540Y-31952609D01*
X167952540Y-31768431D01*
X167916608Y-31587791D01*
X167846126Y-31417631D01*
X167743802Y-31264492D01*
X167613568Y-31134258D01*
X167460429Y-31031934D01*
X167290269Y-30961452D01*
X167109629Y-30925520D01*
X166925451Y-30925520D01*
X166744811Y-30961452D01*
X166574651Y-31031934D01*
X166421512Y-31134258D01*
X166291278Y-31264492D01*
X166188954Y-31417631D01*
X166118472Y-31587791D01*
X166082540Y-31768431D01*
X166082540Y-31952609D01*
X166118472Y-32133249D01*
X166188954Y-32303409D01*
X166230141Y-32365050D01*
X166230140Y-55562926D01*
X166230141Y-55562936D01*
X166230140Y-60821857D01*
X166226332Y-60860520D01*
X166230140Y-60899183D01*
X166230140Y-60899192D01*
X166241534Y-61014876D01*
X166286558Y-61163302D01*
X166359674Y-61300091D01*
X166458071Y-61419989D01*
X166488118Y-61444648D01*
X170954009Y-65910540D01*
X170968472Y-65983249D01*
X170974275Y-65997259D01*
X170957889Y-65994000D01*
X170773711Y-65994000D01*
X170593071Y-66029932D01*
X170422911Y-66100414D01*
X170323258Y-66167000D01*
X169604942Y-66167000D01*
X169505289Y-66100414D01*
X169335129Y-66029932D01*
X169154489Y-65994000D01*
X168970311Y-65994000D01*
X168789671Y-66029932D01*
X168619511Y-66100414D01*
X168519858Y-66167000D01*
X167522142Y-66167000D01*
X167422489Y-66100414D01*
X167252329Y-66029932D01*
X167071689Y-65994000D01*
X166887511Y-65994000D01*
X166706871Y-66029932D01*
X166536711Y-66100414D01*
X166437058Y-66167000D01*
X165617142Y-66167000D01*
X165517489Y-66100414D01*
X165347329Y-66029932D01*
X165166689Y-65994000D01*
X164982511Y-65994000D01*
X164801871Y-66029932D01*
X164631711Y-66100414D01*
X164532058Y-66167000D01*
X154314142Y-66167000D01*
X154214489Y-66100414D01*
X154044329Y-66029932D01*
X153863689Y-65994000D01*
X153679511Y-65994000D01*
X153498871Y-66029932D01*
X153328711Y-66100414D01*
X153229058Y-66167000D01*
X152434542Y-66167000D01*
X152334889Y-66100414D01*
X152164729Y-66029932D01*
X151984089Y-65994000D01*
X151799911Y-65994000D01*
X151619271Y-66029932D01*
X151449111Y-66100414D01*
X151349458Y-66167000D01*
X140350389Y-66167000D01*
X137962640Y-63779252D01*
X137962640Y-62222245D01*
X137976645Y-62176076D01*
X137991848Y-62021719D01*
X137976645Y-61867362D01*
X137931621Y-61718937D01*
X137858505Y-61582147D01*
X137784761Y-61492289D01*
X132253102Y-55960631D01*
X137459440Y-55960631D01*
X137459440Y-56144809D01*
X137495372Y-56325449D01*
X137565854Y-56495609D01*
X137607040Y-56557249D01*
X137607041Y-58654239D01*
X137618435Y-58769923D01*
X137663459Y-58918349D01*
X137736575Y-59055138D01*
X137752155Y-59074122D01*
X137757795Y-59084674D01*
X137853018Y-59200704D01*
X137882093Y-59224565D01*
X141213840Y-62556313D01*
X141213841Y-63117477D01*
X141147254Y-63217131D01*
X141076772Y-63387291D01*
X141040840Y-63567931D01*
X141040840Y-63752109D01*
X141076772Y-63932749D01*
X141147254Y-64102909D01*
X141249578Y-64256048D01*
X141379812Y-64386282D01*
X141532951Y-64488606D01*
X141703111Y-64559088D01*
X141883751Y-64595020D01*
X142067929Y-64595020D01*
X142248569Y-64559088D01*
X142418729Y-64488606D01*
X142571868Y-64386282D01*
X142702102Y-64256048D01*
X142804426Y-64102909D01*
X142874908Y-63932749D01*
X142910840Y-63752109D01*
X142910840Y-63567931D01*
X142874908Y-63387291D01*
X142804426Y-63217131D01*
X142737840Y-63117478D01*
X142737840Y-62278104D01*
X142741526Y-62240681D01*
X142735068Y-62175111D01*
X142726814Y-62091304D01*
X142683242Y-61947667D01*
X142612485Y-61815290D01*
X142517262Y-61699260D01*
X142488193Y-61675404D01*
X140507220Y-59694431D01*
X145917640Y-59694431D01*
X145917640Y-59878609D01*
X145953572Y-60059249D01*
X146024054Y-60229409D01*
X146126378Y-60382548D01*
X146256612Y-60512782D01*
X146409751Y-60615106D01*
X146433541Y-60624960D01*
X146433540Y-63993691D01*
X146392354Y-64055331D01*
X146321872Y-64225491D01*
X146285940Y-64406131D01*
X146285940Y-64590309D01*
X146321872Y-64770949D01*
X146392354Y-64941109D01*
X146494678Y-65094248D01*
X146624912Y-65224482D01*
X146778051Y-65326806D01*
X146948211Y-65397288D01*
X147128851Y-65433220D01*
X147313029Y-65433220D01*
X147493669Y-65397288D01*
X147663829Y-65326806D01*
X147816968Y-65224482D01*
X147947202Y-65094248D01*
X148049526Y-64941109D01*
X148120008Y-64770949D01*
X148155940Y-64590309D01*
X148155940Y-64406131D01*
X148137651Y-64314186D01*
X148234578Y-64459248D01*
X148364812Y-64589482D01*
X148517951Y-64691806D01*
X148688111Y-64762288D01*
X148868751Y-64798220D01*
X149052929Y-64798220D01*
X149233569Y-64762288D01*
X149403729Y-64691806D01*
X149556868Y-64589482D01*
X149687102Y-64459248D01*
X149789426Y-64306109D01*
X149859908Y-64135949D01*
X149895840Y-63955309D01*
X149895840Y-63771131D01*
X149859908Y-63590491D01*
X149789426Y-63420331D01*
X149747184Y-63357111D01*
X151896800Y-63357111D01*
X151896800Y-63541289D01*
X151932732Y-63721929D01*
X152003214Y-63892089D01*
X152105538Y-64045228D01*
X152235772Y-64175462D01*
X152388911Y-64277786D01*
X152559071Y-64348268D01*
X152739711Y-64384200D01*
X152923889Y-64384200D01*
X153104529Y-64348268D01*
X153274689Y-64277786D01*
X153427828Y-64175462D01*
X153558062Y-64045228D01*
X153660386Y-63892089D01*
X153730868Y-63721929D01*
X153750194Y-63624771D01*
X153819322Y-63495443D01*
X153864346Y-63347017D01*
X153875740Y-63231333D01*
X153875740Y-63231324D01*
X153879548Y-63192661D01*
X153875740Y-63153998D01*
X153875740Y-60664772D01*
X153915451Y-60691306D01*
X154085611Y-60761788D01*
X154266251Y-60797720D01*
X154450429Y-60797720D01*
X154631069Y-60761788D01*
X154801229Y-60691306D01*
X154954368Y-60588982D01*
X155084602Y-60458748D01*
X155186926Y-60305609D01*
X155257408Y-60135449D01*
X155293340Y-59954809D01*
X155293340Y-59770631D01*
X155257408Y-59589991D01*
X155186926Y-59419831D01*
X155120340Y-59320178D01*
X155120340Y-56416831D01*
X155196126Y-56303409D01*
X155266608Y-56133249D01*
X155302540Y-55952609D01*
X155302540Y-55768431D01*
X155266608Y-55587791D01*
X155196126Y-55417631D01*
X155093802Y-55264492D01*
X154963568Y-55134258D01*
X154810429Y-55031934D01*
X154640269Y-54961452D01*
X154459629Y-54925520D01*
X154275451Y-54925520D01*
X154094811Y-54961452D01*
X153924651Y-55031934D01*
X153771512Y-55134258D01*
X153641278Y-55264492D01*
X153538954Y-55417631D01*
X153468472Y-55587791D01*
X153432540Y-55768431D01*
X153432540Y-55952609D01*
X153468472Y-56133249D01*
X153538954Y-56303409D01*
X153596341Y-56389295D01*
X153596340Y-59090340D01*
X153531229Y-59046834D01*
X153361069Y-58976352D01*
X153180429Y-58940420D01*
X152996251Y-58940420D01*
X152815611Y-58976352D01*
X152645451Y-59046834D01*
X152492312Y-59149158D01*
X152362078Y-59279392D01*
X152259754Y-59432531D01*
X152189272Y-59602691D01*
X152153340Y-59783331D01*
X152153340Y-59967509D01*
X152189272Y-60148149D01*
X152259754Y-60318309D01*
X152300940Y-60379949D01*
X152300941Y-62679394D01*
X152235772Y-62722938D01*
X152105538Y-62853172D01*
X152003214Y-63006311D01*
X151932732Y-63176471D01*
X151896800Y-63357111D01*
X149747184Y-63357111D01*
X149687102Y-63267192D01*
X149556868Y-63136958D01*
X149403729Y-63034634D01*
X149233569Y-62964152D01*
X149160860Y-62949689D01*
X149024340Y-62813169D01*
X149024340Y-60265648D01*
X149065526Y-60204009D01*
X149136008Y-60033849D01*
X149171940Y-59853209D01*
X149171940Y-59669031D01*
X149136008Y-59488391D01*
X149065526Y-59318231D01*
X148963202Y-59165092D01*
X148832968Y-59034858D01*
X148679829Y-58932534D01*
X148509669Y-58862052D01*
X148329029Y-58826120D01*
X148144851Y-58826120D01*
X147964211Y-58862052D01*
X147794051Y-58932534D01*
X147640912Y-59034858D01*
X147532090Y-59143680D01*
X147448668Y-59060258D01*
X147295529Y-58957934D01*
X147125369Y-58887452D01*
X146944729Y-58851520D01*
X146760551Y-58851520D01*
X146579911Y-58887452D01*
X146409751Y-58957934D01*
X146256612Y-59060258D01*
X146126378Y-59190492D01*
X146024054Y-59343631D01*
X145953572Y-59513791D01*
X145917640Y-59694431D01*
X140507220Y-59694431D01*
X139181840Y-58369052D01*
X139181840Y-56557248D01*
X139223026Y-56495609D01*
X139293508Y-56325449D01*
X139329440Y-56144809D01*
X139329440Y-55960631D01*
X139293508Y-55779991D01*
X139223026Y-55609831D01*
X139120702Y-55456692D01*
X138990468Y-55326458D01*
X138837329Y-55224134D01*
X138667169Y-55153652D01*
X138486529Y-55117720D01*
X138302351Y-55117720D01*
X138121711Y-55153652D01*
X137951551Y-55224134D01*
X137798412Y-55326458D01*
X137668178Y-55456692D01*
X137565854Y-55609831D01*
X137495372Y-55779991D01*
X137459440Y-55960631D01*
X132253102Y-55960631D01*
X127404969Y-51112499D01*
X127207210Y-50914740D01*
X127280114Y-50921920D01*
X152624100Y-50921920D01*
X152724651Y-50989106D01*
X152894811Y-51059588D01*
X153075451Y-51095520D01*
X153259629Y-51095520D01*
X153440269Y-51059588D01*
X153610429Y-50989106D01*
X153763568Y-50886782D01*
X153893802Y-50756548D01*
X153996126Y-50603409D01*
X154066608Y-50433249D01*
X154073103Y-50400596D01*
X154094811Y-50409588D01*
X154275451Y-50445520D01*
X154459629Y-50445520D01*
X154640269Y-50409588D01*
X154810429Y-50339106D01*
X154963568Y-50236782D01*
X155093802Y-50106548D01*
X155196126Y-49953409D01*
X155266608Y-49783249D01*
X155302540Y-49602609D01*
X155302540Y-49474120D01*
X157154210Y-49474120D01*
X157791990Y-50111901D01*
X157815372Y-50229449D01*
X157885854Y-50399609D01*
X157988178Y-50552748D01*
X158118412Y-50682982D01*
X158271551Y-50785306D01*
X158441711Y-50855788D01*
X158622351Y-50891720D01*
X158806529Y-50891720D01*
X158987169Y-50855788D01*
X159157329Y-50785306D01*
X159310468Y-50682982D01*
X159440702Y-50552748D01*
X159543026Y-50399609D01*
X159613508Y-50229449D01*
X159649440Y-50048809D01*
X159649440Y-49864631D01*
X159613508Y-49683991D01*
X159543026Y-49513831D01*
X159440702Y-49360692D01*
X159310468Y-49230458D01*
X159157329Y-49128134D01*
X158987169Y-49057652D01*
X158869621Y-49034270D01*
X158125051Y-48289701D01*
X158102306Y-48247148D01*
X158003909Y-48127251D01*
X157884012Y-48028854D01*
X157747223Y-47955738D01*
X157598797Y-47910714D01*
X157483113Y-47899320D01*
X134586559Y-47899320D01*
X134569108Y-47811591D01*
X134498626Y-47641431D01*
X134396302Y-47488292D01*
X134266068Y-47358058D01*
X134112929Y-47255734D01*
X133942769Y-47185252D01*
X133762129Y-47149320D01*
X133577951Y-47149320D01*
X133397311Y-47185252D01*
X133281316Y-47233298D01*
X133215926Y-47075431D01*
X133113602Y-46922292D01*
X132983368Y-46792058D01*
X132830229Y-46689734D01*
X132660069Y-46619252D01*
X132479429Y-46583320D01*
X132295251Y-46583320D01*
X132114611Y-46619252D01*
X131944451Y-46689734D01*
X131937290Y-46694519D01*
X93448003Y-46694519D01*
X93409340Y-46690711D01*
X93370677Y-46694519D01*
X93370668Y-46694519D01*
X93254984Y-46705913D01*
X93106558Y-46750937D01*
X92969769Y-46824053D01*
X92969767Y-46824054D01*
X92969768Y-46824054D01*
X92879910Y-46897798D01*
X92879908Y-46897800D01*
X92849872Y-46922450D01*
X92825222Y-46952486D01*
X92067520Y-47710189D01*
X91994811Y-47724652D01*
X91824651Y-47795134D01*
X91671512Y-47897458D01*
X91541278Y-48027692D01*
X91438954Y-48180831D01*
X91368472Y-48350991D01*
X91332540Y-48531631D01*
X91332540Y-48715809D01*
X91339047Y-48748520D01*
X73142268Y-48748520D01*
X73065685Y-48707586D01*
X73010556Y-48678119D01*
X72866918Y-48634547D01*
X72717540Y-48619834D01*
X72568161Y-48634547D01*
X72463157Y-48666400D01*
X72424525Y-48678119D01*
X72342428Y-48722000D01*
X72323311Y-48722000D01*
X72142671Y-48757932D01*
X71972511Y-48828414D01*
X71819372Y-48930738D01*
X71689138Y-49060972D01*
X71586814Y-49214111D01*
X71516332Y-49384271D01*
X71487344Y-49530000D01*
X70455956Y-49530000D01*
X70318289Y-49438014D01*
X70148129Y-49367532D01*
X69967489Y-49331600D01*
X69783311Y-49331600D01*
X69602671Y-49367532D01*
X69432511Y-49438014D01*
X69279372Y-49540338D01*
X69149138Y-49670572D01*
X69046814Y-49823711D01*
X68976332Y-49993871D01*
X68940400Y-50174511D01*
X68940400Y-50358689D01*
X68976332Y-50539329D01*
X69046814Y-50709489D01*
X69149138Y-50862628D01*
X69279372Y-50992862D01*
X69432511Y-51095186D01*
X69602671Y-51165668D01*
X69783311Y-51201600D01*
X69967489Y-51201600D01*
X70148129Y-51165668D01*
X70318289Y-51095186D01*
X70455956Y-51003200D01*
X74122221Y-51003200D01*
X74056332Y-51162271D01*
X74020400Y-51342911D01*
X74020400Y-51527089D01*
X74056332Y-51707729D01*
X74126814Y-51877889D01*
X74229138Y-52031028D01*
X74359372Y-52161262D01*
X74512511Y-52263586D01*
X74682671Y-52334068D01*
X74755380Y-52348531D01*
X74912296Y-52505447D01*
X74936951Y-52535489D01*
X74974365Y-52566194D01*
X75056847Y-52633886D01*
X75151352Y-52684400D01*
X75193637Y-52707002D01*
X75290400Y-52736354D01*
X75290400Y-52822489D01*
X75326332Y-53003129D01*
X75389239Y-53155001D01*
X70131367Y-53155001D01*
X70015683Y-53166395D01*
X69969511Y-53180401D01*
X69569151Y-53180401D01*
X69389124Y-53000374D01*
X69365262Y-52971298D01*
X69249232Y-52876075D01*
X69116855Y-52805318D01*
X68973218Y-52761746D01*
X68861266Y-52750720D01*
X68861263Y-52750720D01*
X68823840Y-52747034D01*
X68786417Y-52750720D01*
X68329214Y-52750720D01*
X68217262Y-52761746D01*
X68169877Y-52776120D01*
X68072615Y-52776120D01*
X68036439Y-52772557D01*
X68000263Y-52776120D01*
X68000254Y-52776120D01*
X67892041Y-52786778D01*
X67753191Y-52828898D01*
X67625227Y-52897296D01*
X67513065Y-52989345D01*
X67489990Y-53017462D01*
X67134773Y-53372678D01*
X67106665Y-53395746D01*
X67083599Y-53423852D01*
X67083598Y-53423853D01*
X67048659Y-53466427D01*
X67014616Y-53507908D01*
X66946218Y-53635872D01*
X66904098Y-53774722D01*
X66893545Y-53881869D01*
X66889876Y-53919120D01*
X63144940Y-53919120D01*
X63144940Y-47216670D01*
X64559096Y-45802514D01*
X78550215Y-45802514D01*
X78619627Y-46088233D01*
X78743446Y-46354921D01*
X78916914Y-46592329D01*
X79133365Y-46791333D01*
X79384481Y-46944286D01*
X79660611Y-47045309D01*
X79676374Y-47047958D01*
X79908400Y-46926817D01*
X79908400Y-45567600D01*
X78694475Y-45567600D01*
X78550215Y-45802514D01*
X64559096Y-45802514D01*
X65282924Y-45078686D01*
X78550215Y-45078686D01*
X78694475Y-45313600D01*
X79908400Y-45313600D01*
X79908400Y-43954383D01*
X80162400Y-43954383D01*
X80162400Y-45313600D01*
X80182400Y-45313600D01*
X80182400Y-45567600D01*
X80162400Y-45567600D01*
X80162400Y-46926817D01*
X80394426Y-47047958D01*
X80410189Y-47045309D01*
X80686319Y-46944286D01*
X80937435Y-46791333D01*
X81153886Y-46592329D01*
X81301976Y-46389653D01*
X81323331Y-46429606D01*
X81510603Y-46657797D01*
X81738795Y-46845069D01*
X81999137Y-46984225D01*
X82281624Y-47069916D01*
X82575400Y-47098851D01*
X82869177Y-47069916D01*
X83151664Y-46984225D01*
X83412006Y-46845069D01*
X83640197Y-46657797D01*
X83646814Y-46649735D01*
X83662298Y-46700780D01*
X83721263Y-46811094D01*
X83800615Y-46907785D01*
X83897306Y-46987137D01*
X84007620Y-47046102D01*
X84127318Y-47082412D01*
X84251800Y-47094672D01*
X85979000Y-47094672D01*
X86103482Y-47082412D01*
X86223180Y-47046102D01*
X86333494Y-46987137D01*
X86430185Y-46907785D01*
X86509537Y-46811094D01*
X86568502Y-46700780D01*
X86604812Y-46581082D01*
X86617072Y-46456600D01*
X86617072Y-44424600D01*
X86604812Y-44300118D01*
X86568502Y-44180420D01*
X86509537Y-44070106D01*
X86430185Y-43973415D01*
X86333494Y-43894063D01*
X86223180Y-43835098D01*
X86103482Y-43798788D01*
X85979000Y-43786528D01*
X84251800Y-43786528D01*
X84127318Y-43798788D01*
X84007620Y-43835098D01*
X83897306Y-43894063D01*
X83800615Y-43973415D01*
X83721263Y-44070106D01*
X83662298Y-44180420D01*
X83646814Y-44231465D01*
X83640197Y-44223403D01*
X83412005Y-44036131D01*
X83151663Y-43896975D01*
X82869176Y-43811284D01*
X82575400Y-43782349D01*
X82281623Y-43811284D01*
X81999136Y-43896975D01*
X81738794Y-44036131D01*
X81510603Y-44223403D01*
X81323331Y-44451595D01*
X81301976Y-44491547D01*
X81153886Y-44288871D01*
X80937435Y-44089867D01*
X80686319Y-43936914D01*
X80410189Y-43835891D01*
X80394426Y-43833242D01*
X80162400Y-43954383D01*
X79908400Y-43954383D01*
X79676374Y-43833242D01*
X79660611Y-43835891D01*
X79384481Y-43936914D01*
X79133365Y-44089867D01*
X78916914Y-44288871D01*
X78743446Y-44526279D01*
X78619627Y-44792967D01*
X78550215Y-45078686D01*
X65282924Y-45078686D01*
X69887359Y-40474251D01*
X132831560Y-40474251D01*
X132831560Y-40658429D01*
X132867492Y-40839069D01*
X132937974Y-41009229D01*
X133040298Y-41162368D01*
X133170532Y-41292602D01*
X133323671Y-41394926D01*
X133493831Y-41465408D01*
X133674471Y-41501340D01*
X133858649Y-41501340D01*
X134039289Y-41465408D01*
X134209449Y-41394926D01*
X134233134Y-41379100D01*
X161649138Y-41376645D01*
X161710711Y-41417786D01*
X161880871Y-41488268D01*
X162061511Y-41524200D01*
X162245689Y-41524200D01*
X162426329Y-41488268D01*
X162596489Y-41417786D01*
X162749628Y-41315462D01*
X162879862Y-41185228D01*
X162982186Y-41032089D01*
X163052668Y-40861929D01*
X163088600Y-40681289D01*
X163088600Y-40497111D01*
X163052668Y-40316471D01*
X162982186Y-40146311D01*
X162879862Y-39993172D01*
X162749628Y-39862938D01*
X162596489Y-39760614D01*
X162426329Y-39690132D01*
X162245689Y-39654200D01*
X162061511Y-39654200D01*
X161880871Y-39690132D01*
X161710711Y-39760614D01*
X161649003Y-39801846D01*
X134309034Y-39804294D01*
X134209449Y-39737754D01*
X134039289Y-39667272D01*
X133858649Y-39631340D01*
X133674471Y-39631340D01*
X133493831Y-39667272D01*
X133323671Y-39737754D01*
X133170532Y-39840078D01*
X133040298Y-39970312D01*
X132937974Y-40123451D01*
X132867492Y-40293611D01*
X132831560Y-40474251D01*
X69887359Y-40474251D01*
X72871211Y-37490400D01*
X111738072Y-37490400D01*
X111799711Y-37531586D01*
X111969871Y-37602068D01*
X112150511Y-37638000D01*
X112334689Y-37638000D01*
X112515329Y-37602068D01*
X112685489Y-37531586D01*
X112747218Y-37490340D01*
X133224113Y-37487924D01*
X133323671Y-37554446D01*
X133493831Y-37624928D01*
X133674471Y-37660860D01*
X133858649Y-37660860D01*
X134039289Y-37624928D01*
X134209449Y-37554446D01*
X134362588Y-37452122D01*
X134492822Y-37321888D01*
X134595146Y-37168749D01*
X134665628Y-36998589D01*
X134701560Y-36817949D01*
X134701560Y-36633771D01*
X134665628Y-36453131D01*
X134595146Y-36282971D01*
X134492822Y-36129832D01*
X134362588Y-35999598D01*
X134209449Y-35897274D01*
X134039289Y-35826792D01*
X133858649Y-35790860D01*
X133674471Y-35790860D01*
X133493831Y-35826792D01*
X133323671Y-35897274D01*
X133299962Y-35913116D01*
X112747040Y-35915541D01*
X112685489Y-35874414D01*
X112515329Y-35803932D01*
X112334689Y-35768000D01*
X112150511Y-35768000D01*
X111969871Y-35803932D01*
X111799711Y-35874414D01*
X111738072Y-35915600D01*
X72583723Y-35915600D01*
X72545060Y-35911792D01*
X72506397Y-35915600D01*
X72506387Y-35915600D01*
X72390703Y-35926994D01*
X72287243Y-35958378D01*
X72242277Y-35972018D01*
X72105487Y-36045134D01*
X72044525Y-36095165D01*
X71985591Y-36143531D01*
X71960937Y-36173572D01*
X61828118Y-46306392D01*
X61798071Y-46331051D01*
X61699674Y-46450949D01*
X61626558Y-46587738D01*
X61581534Y-46736164D01*
X61570140Y-46851848D01*
X61570140Y-46851857D01*
X61566332Y-46890520D01*
X61570140Y-46929183D01*
X61570141Y-85145990D01*
X61528954Y-85207631D01*
X61458472Y-85377791D01*
X61422540Y-85558431D01*
X60729605Y-85558431D01*
X60656210Y-30175618D01*
X67382540Y-30175618D01*
X67382540Y-30645422D01*
X67474194Y-31106199D01*
X67653980Y-31540241D01*
X67914990Y-31930869D01*
X68247191Y-32263070D01*
X68637819Y-32524080D01*
X69071861Y-32703866D01*
X69532638Y-32795520D01*
X70002442Y-32795520D01*
X70463219Y-32703866D01*
X70897261Y-32524080D01*
X71287889Y-32263070D01*
X71620090Y-31930869D01*
X71881100Y-31540241D01*
X72060886Y-31106199D01*
X72152540Y-30645422D01*
X72152540Y-30175618D01*
X72060886Y-29714841D01*
X71881100Y-29280799D01*
X71620090Y-28890171D01*
X71287889Y-28557970D01*
X70897261Y-28296960D01*
X70463219Y-28117174D01*
X70002442Y-28025520D01*
X69532638Y-28025520D01*
X69071861Y-28117174D01*
X68637819Y-28296960D01*
X68247191Y-28557970D01*
X67914990Y-28890171D01*
X67653980Y-29280799D01*
X67474194Y-29714841D01*
X67382540Y-30175618D01*
X60656210Y-30175618D01*
X60643474Y-20565236D01*
X72367140Y-20560469D01*
X72367140Y-26131520D01*
X72369580Y-26156296D01*
X72376807Y-26180121D01*
X72388543Y-26202077D01*
X72404337Y-26221323D01*
X72423583Y-26237117D01*
X72445539Y-26248853D01*
X72469364Y-26256080D01*
X72494140Y-26258520D01*
X78653640Y-26258520D01*
X78678416Y-26256080D01*
X78702241Y-26248853D01*
X78724197Y-26237117D01*
X78743443Y-26221323D01*
X78759237Y-26202077D01*
X78770973Y-26180121D01*
X78778200Y-26156296D01*
X78780640Y-26131520D01*
X78780640Y-26046882D01*
X81738440Y-26046882D01*
X81738440Y-26378798D01*
X81803194Y-26704336D01*
X81930212Y-27010987D01*
X82114615Y-27286965D01*
X82349315Y-27521665D01*
X82625293Y-27706068D01*
X82931944Y-27833086D01*
X83257482Y-27897840D01*
X83589398Y-27897840D01*
X83914936Y-27833086D01*
X84221587Y-27706068D01*
X84497565Y-27521665D01*
X84732265Y-27286965D01*
X84916668Y-27010987D01*
X85043686Y-26704336D01*
X85108440Y-26378798D01*
X85108440Y-26046882D01*
X85043686Y-25721344D01*
X84916668Y-25414693D01*
X84793950Y-25231034D01*
X85035403Y-25196341D01*
X85315914Y-25097412D01*
X85459415Y-25020708D01*
X85540075Y-24769080D01*
X84673440Y-23902445D01*
X84659298Y-23916588D01*
X84479693Y-23736983D01*
X84493835Y-23722840D01*
X84853045Y-23722840D01*
X85719680Y-24589475D01*
X85971308Y-24508815D01*
X86099707Y-24240511D01*
X86173295Y-23952314D01*
X86189244Y-23655297D01*
X86146941Y-23360877D01*
X86048012Y-23080366D01*
X85971308Y-22936865D01*
X85719680Y-22856205D01*
X84853045Y-23722840D01*
X84493835Y-23722840D01*
X83627200Y-22856205D01*
X83375572Y-22936865D01*
X83247173Y-23205169D01*
X83173585Y-23493366D01*
X83157636Y-23790383D01*
X83199939Y-24084803D01*
X83298868Y-24365314D01*
X83375572Y-24508815D01*
X83434923Y-24527840D01*
X83257482Y-24527840D01*
X82931944Y-24592594D01*
X82625293Y-24719612D01*
X82349315Y-24904015D01*
X82114615Y-25138715D01*
X81930212Y-25414693D01*
X81803194Y-25721344D01*
X81738440Y-26046882D01*
X78780640Y-26046882D01*
X78780640Y-22676600D01*
X83806805Y-22676600D01*
X84673440Y-23543235D01*
X85540075Y-22676600D01*
X85459415Y-22424972D01*
X85191111Y-22296573D01*
X84902914Y-22222985D01*
X84605897Y-22207036D01*
X84311477Y-22249339D01*
X84030966Y-22348268D01*
X83887465Y-22424972D01*
X83806805Y-22676600D01*
X78780640Y-22676600D01*
X78780640Y-20557862D01*
X142864840Y-20531804D01*
X142864840Y-25730200D01*
X94785851Y-25730200D01*
X92266144Y-23210494D01*
X92242282Y-23181418D01*
X92126252Y-23086195D01*
X91993875Y-23015438D01*
X91850238Y-22971866D01*
X91738286Y-22960840D01*
X91738283Y-22960840D01*
X91700860Y-22957154D01*
X91663437Y-22960840D01*
X90480349Y-22960840D01*
X90346333Y-22760271D01*
X90136009Y-22549947D01*
X89888693Y-22384696D01*
X89613891Y-22270869D01*
X89322162Y-22212840D01*
X89024718Y-22212840D01*
X88732989Y-22270869D01*
X88458187Y-22384696D01*
X88210871Y-22549947D01*
X88000547Y-22760271D01*
X87835296Y-23007587D01*
X87721469Y-23282389D01*
X87663440Y-23574118D01*
X87663440Y-23871562D01*
X87721469Y-24163291D01*
X87835296Y-24438093D01*
X88000547Y-24685409D01*
X88210871Y-24895733D01*
X88458187Y-25060984D01*
X88732989Y-25174811D01*
X89024718Y-25232840D01*
X89061723Y-25232840D01*
X88940212Y-25414693D01*
X88813194Y-25721344D01*
X88748440Y-26046882D01*
X88748440Y-26378798D01*
X88813194Y-26704336D01*
X88940212Y-27010987D01*
X89124615Y-27286965D01*
X89359315Y-27521665D01*
X89635293Y-27706068D01*
X89941944Y-27833086D01*
X90267482Y-27897840D01*
X90599398Y-27897840D01*
X90924936Y-27833086D01*
X91231587Y-27706068D01*
X91507565Y-27521665D01*
X91742265Y-27286965D01*
X91926668Y-27010987D01*
X92053686Y-26704336D01*
X92118440Y-26378798D01*
X92118440Y-26046882D01*
X92053686Y-25721344D01*
X91926668Y-25414693D01*
X91742265Y-25138715D01*
X91507565Y-24904015D01*
X91231587Y-24719612D01*
X90924936Y-24592594D01*
X90599398Y-24527840D01*
X90451617Y-24527840D01*
X90480349Y-24484840D01*
X91385230Y-24484840D01*
X93904941Y-27004552D01*
X93928798Y-27033622D01*
X94044828Y-27128845D01*
X94177205Y-27199602D01*
X94320842Y-27243174D01*
X94432794Y-27254200D01*
X94432796Y-27254200D01*
X94470219Y-27257886D01*
X94507642Y-27254200D01*
X148943737Y-27254200D01*
X148981160Y-27257886D01*
X149018583Y-27254200D01*
X149018586Y-27254200D01*
X149130538Y-27243174D01*
X149274175Y-27199602D01*
X149406552Y-27128845D01*
X149522582Y-27033622D01*
X149546444Y-27004546D01*
X149571939Y-26979051D01*
X157456929Y-26979051D01*
X157498941Y-27268539D01*
X157596621Y-27544267D01*
X157637299Y-27620370D01*
X157567003Y-27706026D01*
X157508038Y-27816340D01*
X157471728Y-27936038D01*
X157459468Y-28060520D01*
X157459468Y-29760520D01*
X157471728Y-29885002D01*
X157508038Y-30004700D01*
X157567003Y-30115014D01*
X157646355Y-30211705D01*
X157743046Y-30291057D01*
X157853360Y-30350022D01*
X157973058Y-30386332D01*
X158097540Y-30398592D01*
X159797540Y-30398592D01*
X159922022Y-30386332D01*
X160041720Y-30350022D01*
X160152034Y-30291057D01*
X160248725Y-30211705D01*
X160328077Y-30115014D01*
X160387042Y-30004700D01*
X160399743Y-29962830D01*
X160500908Y-30063995D01*
X160744129Y-30226510D01*
X161014382Y-30338452D01*
X161301280Y-30395520D01*
X161593800Y-30395520D01*
X161880698Y-30338452D01*
X162150951Y-30226510D01*
X162394172Y-30063995D01*
X162601015Y-29857152D01*
X162763530Y-29613931D01*
X162875472Y-29343678D01*
X162932540Y-29056780D01*
X162932540Y-28764260D01*
X162884220Y-28521340D01*
X199487588Y-28521340D01*
X199499848Y-28645822D01*
X199536158Y-28765520D01*
X199595123Y-28875834D01*
X199674475Y-28972525D01*
X199771166Y-29051877D01*
X199881480Y-29110842D01*
X200001178Y-29147152D01*
X200125660Y-29159412D01*
X201589910Y-29156340D01*
X201748660Y-28997590D01*
X201748660Y-26898340D01*
X202002660Y-26898340D01*
X202002660Y-28997590D01*
X202161410Y-29156340D01*
X203625660Y-29159412D01*
X203750142Y-29147152D01*
X203869840Y-29110842D01*
X203937588Y-29074629D01*
X203937588Y-31773880D01*
X203949848Y-31898362D01*
X203986158Y-32018060D01*
X204045123Y-32128374D01*
X204124475Y-32225065D01*
X204221166Y-32304417D01*
X204331480Y-32363382D01*
X204451178Y-32399692D01*
X204575660Y-32411952D01*
X208575660Y-32411952D01*
X208700142Y-32399692D01*
X208819840Y-32363382D01*
X208930154Y-32304417D01*
X209026845Y-32225065D01*
X209106197Y-32128374D01*
X209165162Y-32018060D01*
X209201472Y-31898362D01*
X209213732Y-31773880D01*
X209213732Y-30881448D01*
X219846217Y-30881448D01*
X220152399Y-31325023D01*
X220739846Y-31640474D01*
X221377548Y-31835260D01*
X222040997Y-31901892D01*
X222704698Y-31837812D01*
X223343145Y-31645482D01*
X223931802Y-31332292D01*
X223942681Y-31325023D01*
X224248863Y-30881448D01*
X222047540Y-28680125D01*
X219846217Y-30881448D01*
X209213732Y-30881448D01*
X209213732Y-28493977D01*
X218646168Y-28493977D01*
X218710248Y-29157678D01*
X218902578Y-29796125D01*
X219215768Y-30384782D01*
X219223037Y-30395661D01*
X219666612Y-30701843D01*
X221867935Y-28500520D01*
X222227145Y-28500520D01*
X224428468Y-30701843D01*
X224872043Y-30395661D01*
X225187494Y-29808214D01*
X225382280Y-29170512D01*
X225448912Y-28507063D01*
X225384832Y-27843362D01*
X225192502Y-27204915D01*
X224879312Y-26616258D01*
X224872043Y-26605379D01*
X224428468Y-26299197D01*
X222227145Y-28500520D01*
X221867935Y-28500520D01*
X219666612Y-26299197D01*
X219223037Y-26605379D01*
X218907586Y-27192826D01*
X218712800Y-27830528D01*
X218646168Y-28493977D01*
X209213732Y-28493977D01*
X209213732Y-27773880D01*
X209201472Y-27649398D01*
X209165162Y-27529700D01*
X209106197Y-27419386D01*
X209026845Y-27322695D01*
X208930154Y-27243343D01*
X208819840Y-27184378D01*
X208700142Y-27148068D01*
X208575660Y-27135808D01*
X204575660Y-27135808D01*
X204451178Y-27148068D01*
X204331480Y-27184378D01*
X204261006Y-27222048D01*
X204260660Y-27057090D01*
X204101910Y-26898340D01*
X202002660Y-26898340D01*
X201748660Y-26898340D01*
X199649410Y-26898340D01*
X199490660Y-27057090D01*
X199487588Y-28521340D01*
X162884220Y-28521340D01*
X162875472Y-28477362D01*
X162763530Y-28207109D01*
X162601015Y-27963888D01*
X162547647Y-27910520D01*
X162601015Y-27857152D01*
X162763530Y-27613931D01*
X162875472Y-27343678D01*
X162932540Y-27056780D01*
X162932540Y-26764260D01*
X162875472Y-26477362D01*
X162763530Y-26207109D01*
X162601015Y-25963888D01*
X162394172Y-25757045D01*
X162150951Y-25594530D01*
X161880698Y-25482588D01*
X161593800Y-25425520D01*
X161301280Y-25425520D01*
X161014382Y-25482588D01*
X160744129Y-25594530D01*
X160500908Y-25757045D01*
X160294065Y-25963888D01*
X160185124Y-26126930D01*
X159975937Y-26061728D01*
X159127145Y-26910520D01*
X159141288Y-26924663D01*
X158961683Y-27104268D01*
X158947540Y-27090125D01*
X158933398Y-27104268D01*
X158753793Y-26924663D01*
X158767935Y-26910520D01*
X157919143Y-26061728D01*
X157670068Y-26139363D01*
X157544169Y-26403403D01*
X157472201Y-26686931D01*
X157456929Y-26979051D01*
X149571939Y-26979051D01*
X151846134Y-24704857D01*
X151884194Y-24896199D01*
X152063980Y-25330241D01*
X152324990Y-25720869D01*
X152657191Y-26053070D01*
X153047819Y-26314080D01*
X153481861Y-26493866D01*
X153942638Y-26585520D01*
X154412442Y-26585520D01*
X154873219Y-26493866D01*
X155307261Y-26314080D01*
X155697889Y-26053070D01*
X155868836Y-25882123D01*
X158098748Y-25882123D01*
X158947540Y-26730915D01*
X159796332Y-25882123D01*
X159718697Y-25633048D01*
X159454657Y-25507149D01*
X159171129Y-25435181D01*
X158879009Y-25419909D01*
X158589521Y-25461921D01*
X158313793Y-25559601D01*
X158176383Y-25633048D01*
X158098748Y-25882123D01*
X155868836Y-25882123D01*
X156030090Y-25720869D01*
X156291100Y-25330241D01*
X156470886Y-24896199D01*
X156562540Y-24435422D01*
X156562540Y-23965618D01*
X163832540Y-23965618D01*
X163832540Y-24435422D01*
X163924194Y-24896199D01*
X164103980Y-25330241D01*
X164364990Y-25720869D01*
X164697191Y-26053070D01*
X165087819Y-26314080D01*
X165521861Y-26493866D01*
X165982638Y-26585520D01*
X166452442Y-26585520D01*
X166913219Y-26493866D01*
X167347261Y-26314080D01*
X167737889Y-26053070D01*
X168070090Y-25720869D01*
X168331100Y-25330241D01*
X168510886Y-24896199D01*
X168602540Y-24435422D01*
X168602540Y-23965618D01*
X168510886Y-23504841D01*
X168331100Y-23070799D01*
X168070090Y-22680171D01*
X167737889Y-22347970D01*
X167347261Y-22086960D01*
X166913219Y-21907174D01*
X166452442Y-21815520D01*
X165982638Y-21815520D01*
X165521861Y-21907174D01*
X165087819Y-22086960D01*
X164697191Y-22347970D01*
X164364990Y-22680171D01*
X164103980Y-23070799D01*
X163924194Y-23504841D01*
X163832540Y-23965618D01*
X156562540Y-23965618D01*
X156470886Y-23504841D01*
X156291100Y-23070799D01*
X156030090Y-22680171D01*
X155697889Y-22347970D01*
X155307261Y-22086960D01*
X154873219Y-21907174D01*
X154412442Y-21815520D01*
X153942638Y-21815520D01*
X153481861Y-21907174D01*
X153047819Y-22086960D01*
X152706766Y-22314845D01*
X153283692Y-21737920D01*
X168631630Y-21737920D01*
X174173229Y-27279521D01*
X174263087Y-27353265D01*
X174399877Y-27426382D01*
X174548302Y-27471405D01*
X174702659Y-27486608D01*
X174857017Y-27471405D01*
X174903187Y-27457400D01*
X182159658Y-27457400D01*
X182259311Y-27523986D01*
X182429471Y-27594468D01*
X182610111Y-27630400D01*
X182794289Y-27630400D01*
X182974929Y-27594468D01*
X183145089Y-27523986D01*
X183298228Y-27421662D01*
X183428462Y-27291428D01*
X183530786Y-27138289D01*
X183601268Y-26968129D01*
X183637200Y-26787489D01*
X183637200Y-26603311D01*
X183601268Y-26422671D01*
X183530786Y-26252511D01*
X183428462Y-26099372D01*
X183298228Y-25969138D01*
X183145089Y-25866814D01*
X182974929Y-25796332D01*
X182794289Y-25760400D01*
X182610111Y-25760400D01*
X182429471Y-25796332D01*
X182259311Y-25866814D01*
X182159658Y-25933400D01*
X175054212Y-25933400D01*
X174142152Y-25021340D01*
X199487588Y-25021340D01*
X199490660Y-26485590D01*
X199649410Y-26644340D01*
X201748660Y-26644340D01*
X201748660Y-24545090D01*
X202002660Y-24545090D01*
X202002660Y-26644340D01*
X204101910Y-26644340D01*
X204260660Y-26485590D01*
X204262069Y-25813995D01*
X204295123Y-25875834D01*
X204374475Y-25972525D01*
X204471166Y-26051877D01*
X204581480Y-26110842D01*
X204701178Y-26147152D01*
X204825660Y-26159412D01*
X206289910Y-26156340D01*
X206448660Y-25997590D01*
X206448660Y-23898340D01*
X206702660Y-23898340D01*
X206702660Y-25997590D01*
X206861410Y-26156340D01*
X208325660Y-26159412D01*
X208450142Y-26147152D01*
X208569840Y-26110842D01*
X208680154Y-26051877D01*
X208776845Y-25972525D01*
X208856197Y-25875834D01*
X208915162Y-25765520D01*
X208951472Y-25645822D01*
X208963732Y-25521340D01*
X208960660Y-24057090D01*
X208801910Y-23898340D01*
X206702660Y-23898340D01*
X206448660Y-23898340D01*
X204349410Y-23898340D01*
X204190660Y-24057090D01*
X204189251Y-24728685D01*
X204156197Y-24666846D01*
X204076845Y-24570155D01*
X203980154Y-24490803D01*
X203869840Y-24431838D01*
X203750142Y-24395528D01*
X203625660Y-24383268D01*
X202161410Y-24386340D01*
X202002660Y-24545090D01*
X201748660Y-24545090D01*
X201589910Y-24386340D01*
X200125660Y-24383268D01*
X200001178Y-24395528D01*
X199881480Y-24431838D01*
X199771166Y-24490803D01*
X199674475Y-24570155D01*
X199595123Y-24666846D01*
X199536158Y-24777160D01*
X199499848Y-24896858D01*
X199487588Y-25021340D01*
X174142152Y-25021340D01*
X171142151Y-22021340D01*
X204187588Y-22021340D01*
X204190660Y-23485590D01*
X204349410Y-23644340D01*
X206448660Y-23644340D01*
X206448660Y-21545090D01*
X206702660Y-21545090D01*
X206702660Y-23644340D01*
X208801910Y-23644340D01*
X208960660Y-23485590D01*
X208963732Y-22021340D01*
X208951472Y-21896858D01*
X208915162Y-21777160D01*
X208856197Y-21666846D01*
X208776845Y-21570155D01*
X208680154Y-21490803D01*
X208569840Y-21431838D01*
X208450142Y-21395528D01*
X208325660Y-21383268D01*
X206861410Y-21386340D01*
X206702660Y-21545090D01*
X206448660Y-21545090D01*
X206289910Y-21386340D01*
X204825660Y-21383268D01*
X204701178Y-21395528D01*
X204581480Y-21431838D01*
X204471166Y-21490803D01*
X204374475Y-21570155D01*
X204295123Y-21666846D01*
X204236158Y-21777160D01*
X204199848Y-21896858D01*
X204187588Y-22021340D01*
X171142151Y-22021340D01*
X169641726Y-20520916D01*
X214489126Y-20502680D01*
X213345039Y-21753193D01*
X213333143Y-21768363D01*
X213321407Y-21790319D01*
X213314180Y-21814144D01*
X213311740Y-21838920D01*
X213311740Y-24556720D01*
X213313106Y-24575300D01*
X213319145Y-24599453D01*
X213329780Y-24621963D01*
X213344602Y-24641967D01*
X213363041Y-24658694D01*
X215433141Y-26195394D01*
X215460239Y-26210753D01*
X215484064Y-26217980D01*
X215508840Y-26220420D01*
X217642440Y-26220420D01*
X217670012Y-26217391D01*
X217693668Y-26209630D01*
X217715355Y-26197403D01*
X217826320Y-26119592D01*
X219846217Y-26119592D01*
X222047540Y-28320915D01*
X224248863Y-26119592D01*
X223942681Y-25676017D01*
X223355234Y-25360566D01*
X222717532Y-25165780D01*
X222054083Y-25099148D01*
X221390382Y-25163228D01*
X220751935Y-25355558D01*
X220163278Y-25668748D01*
X220152399Y-25676017D01*
X219846217Y-26119592D01*
X217826320Y-26119592D01*
X219798155Y-24736903D01*
X219815043Y-24722723D01*
X219830837Y-24703477D01*
X219842573Y-24681521D01*
X219849800Y-24657696D01*
X219852240Y-24632920D01*
X219852240Y-21838920D01*
X219850777Y-21819698D01*
X219844615Y-21795577D01*
X219833865Y-21773121D01*
X219818941Y-21753193D01*
X218673298Y-20500978D01*
X231422469Y-20495794D01*
X231412616Y-109805233D01*
X231412616Y-109805233D01*
G37*
X231412616Y-109805233D02*
X60761645Y-109735799D01*
X60758455Y-107328431D01*
X110382540Y-107328431D01*
X110382540Y-107512609D01*
X110418472Y-107693249D01*
X110488954Y-107863409D01*
X110591278Y-108016548D01*
X110721512Y-108146782D01*
X110874651Y-108249106D01*
X111044811Y-108319588D01*
X111225451Y-108355520D01*
X111409629Y-108355520D01*
X111590269Y-108319588D01*
X111760429Y-108249106D01*
X111913568Y-108146782D01*
X112043802Y-108016548D01*
X112146126Y-107863409D01*
X112216608Y-107693249D01*
X112231071Y-107620539D01*
X115866974Y-103984638D01*
X115897009Y-103959989D01*
X115921659Y-103929953D01*
X115921662Y-103929950D01*
X115995406Y-103840092D01*
X116068522Y-103703303D01*
X116113546Y-103554877D01*
X116113546Y-103554876D01*
X116124940Y-103439193D01*
X116124940Y-103439185D01*
X116128748Y-103400520D01*
X116124940Y-103361855D01*
X116124940Y-102683959D01*
X173697540Y-102683959D01*
X173697540Y-102937081D01*
X173746921Y-103185341D01*
X173843787Y-103419196D01*
X173984415Y-103629660D01*
X174163400Y-103808645D01*
X174373864Y-103949273D01*
X174607719Y-104046139D01*
X174855979Y-104095520D01*
X175109101Y-104095520D01*
X175357361Y-104046139D01*
X175591216Y-103949273D01*
X175801680Y-103808645D01*
X175980665Y-103629660D01*
X176121293Y-103419196D01*
X176218159Y-103185341D01*
X176267540Y-102937081D01*
X176267540Y-102683959D01*
X176218159Y-102435699D01*
X176121293Y-102201844D01*
X175980665Y-101991380D01*
X175801680Y-101812395D01*
X175591216Y-101671767D01*
X175357361Y-101574901D01*
X175109101Y-101525520D01*
X174855979Y-101525520D01*
X174607719Y-101574901D01*
X174373864Y-101671767D01*
X174163400Y-101812395D01*
X173984415Y-101991380D01*
X173843787Y-102201844D01*
X173746921Y-102435699D01*
X173697540Y-102683959D01*
X116124940Y-102683959D01*
X116124940Y-100055618D01*
X218842540Y-100055618D01*
X218842540Y-100525422D01*
X218934194Y-100986199D01*
X219113980Y-101420241D01*
X219374990Y-101810869D01*
X219707191Y-102143070D01*
X220097819Y-102404080D01*
X220531861Y-102583866D01*
X220992638Y-102675520D01*
X221462442Y-102675520D01*
X221923219Y-102583866D01*
X222357261Y-102404080D01*
X222747889Y-102143070D01*
X223080090Y-101810869D01*
X223341100Y-101420241D01*
X223520886Y-100986199D01*
X223612540Y-100525422D01*
X223612540Y-100055618D01*
X223520886Y-99594841D01*
X223341100Y-99160799D01*
X223080090Y-98770171D01*
X222747889Y-98437970D01*
X222357261Y-98176960D01*
X221923219Y-97997174D01*
X221462442Y-97905520D01*
X220992638Y-97905520D01*
X220531861Y-97997174D01*
X220097819Y-98176960D01*
X219707191Y-98437970D01*
X219374990Y-98770171D01*
X219113980Y-99160799D01*
X218934194Y-99594841D01*
X218842540Y-100055618D01*
X116124940Y-100055618D01*
X116124940Y-75215048D01*
X116166126Y-75153409D01*
X116236608Y-74983249D01*
X116272540Y-74802609D01*
X116272540Y-74618431D01*
X116236608Y-74437791D01*
X116166126Y-74267631D01*
X116063802Y-74114492D01*
X115933568Y-73984258D01*
X115780429Y-73881934D01*
X115610269Y-73811452D01*
X115429629Y-73775520D01*
X115245451Y-73775520D01*
X115064811Y-73811452D01*
X114894651Y-73881934D01*
X114741512Y-73984258D01*
X114611278Y-74114492D01*
X114508954Y-74267631D01*
X114438472Y-74437791D01*
X114402540Y-74618431D01*
X114402540Y-74802609D01*
X114438472Y-74983249D01*
X114508954Y-75153409D01*
X114550141Y-75215050D01*
X114550140Y-103074368D01*
X111117521Y-106506989D01*
X111044811Y-106521452D01*
X110874651Y-106591934D01*
X110721512Y-106694258D01*
X110591278Y-106824492D01*
X110488954Y-106977631D01*
X110418472Y-107147791D01*
X110382540Y-107328431D01*
X60758455Y-107328431D01*
X60749480Y-100555618D01*
X68792540Y-100555618D01*
X68792540Y-101025422D01*
X68884194Y-101486199D01*
X69063980Y-101920241D01*
X69324990Y-102310869D01*
X69657191Y-102643070D01*
X70047819Y-102904080D01*
X70481861Y-103083866D01*
X70942638Y-103175520D01*
X71412442Y-103175520D01*
X71873219Y-103083866D01*
X72307261Y-102904080D01*
X72636694Y-102683959D01*
X108497540Y-102683959D01*
X108497540Y-102937081D01*
X108546921Y-103185341D01*
X108643787Y-103419196D01*
X108784415Y-103629660D01*
X108963400Y-103808645D01*
X109173864Y-103949273D01*
X109407719Y-104046139D01*
X109655979Y-104095520D01*
X109909101Y-104095520D01*
X110157361Y-104046139D01*
X110391216Y-103949273D01*
X110601680Y-103808645D01*
X110780665Y-103629660D01*
X110921293Y-103419196D01*
X111018159Y-103185341D01*
X111067540Y-102937081D01*
X111067540Y-102683959D01*
X111018159Y-102435699D01*
X110921293Y-102201844D01*
X110780665Y-101991380D01*
X110601680Y-101812395D01*
X110391216Y-101671767D01*
X110157361Y-101574901D01*
X109909101Y-101525520D01*
X109655979Y-101525520D01*
X109407719Y-101574901D01*
X109173864Y-101671767D01*
X108963400Y-101812395D01*
X108784415Y-101991380D01*
X108643787Y-102201844D01*
X108546921Y-102435699D01*
X108497540Y-102683959D01*
X72636694Y-102683959D01*
X72697889Y-102643070D01*
X73030090Y-102310869D01*
X73291100Y-101920241D01*
X73470886Y-101486199D01*
X73562540Y-101025422D01*
X73562540Y-100555618D01*
X73470886Y-100094841D01*
X73291100Y-99660799D01*
X73030090Y-99270171D01*
X72697889Y-98937970D01*
X72307261Y-98676960D01*
X71873219Y-98497174D01*
X71412442Y-98405520D01*
X70942638Y-98405520D01*
X70481861Y-98497174D01*
X70047819Y-98676960D01*
X69657191Y-98937970D01*
X69324990Y-99270171D01*
X69063980Y-99660799D01*
X68884194Y-100094841D01*
X68792540Y-100555618D01*
X60749480Y-100555618D01*
X60729605Y-85558431D01*
X61422540Y-85558431D01*
X61422540Y-85742609D01*
X61458472Y-85923249D01*
X61528954Y-86093409D01*
X61631278Y-86246548D01*
X61761512Y-86376782D01*
X61914651Y-86479106D01*
X62084811Y-86549588D01*
X62265451Y-86585520D01*
X62449629Y-86585520D01*
X62630269Y-86549588D01*
X62800429Y-86479106D01*
X62953568Y-86376782D01*
X63083802Y-86246548D01*
X63186126Y-86093409D01*
X63256608Y-85923249D01*
X63292540Y-85742609D01*
X63292540Y-85558431D01*
X63256608Y-85377791D01*
X63186126Y-85207631D01*
X63144940Y-85145992D01*
X63144940Y-72374111D01*
X193146400Y-72374111D01*
X193146400Y-72558289D01*
X193182332Y-72738929D01*
X193252814Y-72909089D01*
X193355138Y-73062228D01*
X193485372Y-73192462D01*
X193638511Y-73294786D01*
X193808671Y-73365268D01*
X193989311Y-73401200D01*
X194173489Y-73401200D01*
X194354129Y-73365268D01*
X194524289Y-73294786D01*
X194528908Y-73291700D01*
X196151503Y-73291700D01*
X196198707Y-73447309D01*
X196327366Y-73688015D01*
X196500514Y-73898995D01*
X196711494Y-74072144D01*
X196952200Y-74200803D01*
X197213381Y-74280032D01*
X197485000Y-74306784D01*
X197756618Y-74280032D01*
X198017799Y-74200803D01*
X198258505Y-74072144D01*
X198469485Y-73898996D01*
X198642634Y-73688016D01*
X198757418Y-73473269D01*
X198793501Y-73562077D01*
X198943498Y-73789888D01*
X199135057Y-73984058D01*
X199360815Y-74137126D01*
X199612098Y-74243210D01*
X199683725Y-74257393D01*
X199898000Y-74134739D01*
X199898000Y-72542400D01*
X199878000Y-72542400D01*
X199878000Y-72288400D01*
X199898000Y-72288400D01*
X199898000Y-70696061D01*
X200152000Y-70696061D01*
X200152000Y-72288400D01*
X200172000Y-72288400D01*
X200172000Y-72542400D01*
X200152000Y-72542400D01*
X200152000Y-74134739D01*
X200366275Y-74257393D01*
X200437902Y-74243210D01*
X200689185Y-74137126D01*
X200914943Y-73984058D01*
X201106502Y-73789888D01*
X201256499Y-73562077D01*
X201292582Y-73473268D01*
X201407366Y-73688015D01*
X201580514Y-73898995D01*
X201791494Y-74072144D01*
X202032200Y-74200803D01*
X202293381Y-74280032D01*
X202565000Y-74306784D01*
X202836618Y-74280032D01*
X203097799Y-74200803D01*
X203338505Y-74072144D01*
X203549485Y-73898996D01*
X203722634Y-73688016D01*
X203851293Y-73447310D01*
X203930522Y-73186129D01*
X203950570Y-72982577D01*
X203950570Y-71848223D01*
X203930522Y-71644671D01*
X203851293Y-71383490D01*
X203722634Y-71142784D01*
X203549486Y-70931804D01*
X203338506Y-70758656D01*
X203097800Y-70629997D01*
X202836619Y-70550768D01*
X202565000Y-70524016D01*
X202293382Y-70550768D01*
X202032201Y-70629997D01*
X201791495Y-70758656D01*
X201580515Y-70931804D01*
X201407366Y-71142784D01*
X201292582Y-71357531D01*
X201256499Y-71268723D01*
X201106502Y-71040912D01*
X200914943Y-70846742D01*
X200689185Y-70693674D01*
X200437902Y-70587590D01*
X200366275Y-70573407D01*
X200152000Y-70696061D01*
X199898000Y-70696061D01*
X199683725Y-70573407D01*
X199612098Y-70587590D01*
X199360815Y-70693674D01*
X199135057Y-70846742D01*
X198943498Y-71040912D01*
X198793501Y-71268723D01*
X198757418Y-71357531D01*
X198642634Y-71142784D01*
X198469486Y-70931804D01*
X198258506Y-70758656D01*
X198017800Y-70629997D01*
X197756619Y-70550768D01*
X197485000Y-70524016D01*
X197213382Y-70550768D01*
X196952201Y-70629997D01*
X196711495Y-70758656D01*
X196500515Y-70931804D01*
X196327366Y-71142784D01*
X196198707Y-71383490D01*
X196120683Y-71640700D01*
X194528908Y-71640700D01*
X194524289Y-71637614D01*
X194354129Y-71567132D01*
X194173489Y-71531200D01*
X193989311Y-71531200D01*
X193808671Y-71567132D01*
X193638511Y-71637614D01*
X193485372Y-71739938D01*
X193355138Y-71870172D01*
X193252814Y-72023311D01*
X193182332Y-72193471D01*
X193146400Y-72374111D01*
X63144940Y-72374111D01*
X63144940Y-53919120D01*
X66889876Y-53919120D01*
X66893440Y-53955304D01*
X66893441Y-55808668D01*
X66889876Y-55844861D01*
X66900489Y-55952609D01*
X66904099Y-55989260D01*
X66913150Y-56019098D01*
X66946218Y-56128108D01*
X67014616Y-56256073D01*
X67071552Y-56325449D01*
X67106666Y-56368236D01*
X67134772Y-56391302D01*
X67343013Y-56599543D01*
X67366354Y-56643212D01*
X67437720Y-56730171D01*
X68314020Y-57606471D01*
X68337877Y-57635542D01*
X68453907Y-57730765D01*
X68506860Y-57759069D01*
X68489495Y-57791556D01*
X68403804Y-58074043D01*
X68374869Y-58367820D01*
X68403804Y-58661597D01*
X68489495Y-58944084D01*
X68628651Y-59204426D01*
X68815923Y-59432617D01*
X69044114Y-59619889D01*
X69304456Y-59759045D01*
X69586943Y-59844736D01*
X69807101Y-59866420D01*
X69954339Y-59866420D01*
X70174497Y-59844736D01*
X70456984Y-59759045D01*
X70717326Y-59619889D01*
X70945517Y-59432617D01*
X71132789Y-59204426D01*
X71150720Y-59170880D01*
X71168651Y-59204426D01*
X71355923Y-59432617D01*
X71584114Y-59619889D01*
X71844456Y-59759045D01*
X72126943Y-59844736D01*
X72347101Y-59866420D01*
X72494339Y-59866420D01*
X72714497Y-59844736D01*
X72996984Y-59759045D01*
X73257326Y-59619889D01*
X73485517Y-59432617D01*
X73672789Y-59204426D01*
X73690720Y-59170880D01*
X73708651Y-59204426D01*
X73895923Y-59432617D01*
X74124114Y-59619889D01*
X74384456Y-59759045D01*
X74666943Y-59844736D01*
X74887101Y-59866420D01*
X75034339Y-59866420D01*
X75254497Y-59844736D01*
X75536984Y-59759045D01*
X75797326Y-59619889D01*
X76025517Y-59432617D01*
X76212789Y-59204426D01*
X76230720Y-59170880D01*
X76248651Y-59204426D01*
X76435923Y-59432617D01*
X76664114Y-59619889D01*
X76924456Y-59759045D01*
X77206943Y-59844736D01*
X77427101Y-59866420D01*
X77574339Y-59866420D01*
X77794497Y-59844736D01*
X78076984Y-59759045D01*
X78337326Y-59619889D01*
X78565517Y-59432617D01*
X78752789Y-59204426D01*
X78776583Y-59159910D01*
X78833903Y-59256308D01*
X79030427Y-59474674D01*
X79265776Y-59650504D01*
X79530906Y-59777042D01*
X79681694Y-59822778D01*
X79913720Y-59701637D01*
X79913720Y-58494820D01*
X79893720Y-58494820D01*
X79893720Y-58240820D01*
X79913720Y-58240820D01*
X79913720Y-58220820D01*
X80167720Y-58220820D01*
X80167720Y-58240820D01*
X80187720Y-58240820D01*
X80187720Y-58494820D01*
X80167720Y-58494820D01*
X80167720Y-59701637D01*
X80399746Y-59822778D01*
X80550534Y-59777042D01*
X80815664Y-59650504D01*
X81051013Y-59474674D01*
X81247537Y-59256308D01*
X81304857Y-59159910D01*
X81328651Y-59204426D01*
X81515923Y-59432617D01*
X81744114Y-59619889D01*
X82004456Y-59759045D01*
X82286943Y-59844736D01*
X82507101Y-59866420D01*
X82654339Y-59866420D01*
X82874497Y-59844736D01*
X83156984Y-59759045D01*
X83417326Y-59619889D01*
X83645517Y-59432617D01*
X83832789Y-59204426D01*
X83850720Y-59170880D01*
X83868651Y-59204426D01*
X84055923Y-59432617D01*
X84284114Y-59619889D01*
X84544456Y-59759045D01*
X84826943Y-59844736D01*
X85047101Y-59866420D01*
X85194339Y-59866420D01*
X85414497Y-59844736D01*
X85696984Y-59759045D01*
X85957326Y-59619889D01*
X86185517Y-59432617D01*
X86372789Y-59204426D01*
X86390720Y-59170880D01*
X86408651Y-59204426D01*
X86595923Y-59432617D01*
X86824114Y-59619889D01*
X87084456Y-59759045D01*
X87366943Y-59844736D01*
X87587101Y-59866420D01*
X87734339Y-59866420D01*
X87954497Y-59844736D01*
X88236984Y-59759045D01*
X88497326Y-59619889D01*
X88725517Y-59432617D01*
X88912789Y-59204426D01*
X88930720Y-59170880D01*
X88948651Y-59204426D01*
X89135923Y-59432617D01*
X89364114Y-59619889D01*
X89624456Y-59759045D01*
X89906943Y-59844736D01*
X90127101Y-59866420D01*
X90274339Y-59866420D01*
X90494497Y-59844736D01*
X90776984Y-59759045D01*
X91037326Y-59619889D01*
X91265517Y-59432617D01*
X91452789Y-59204426D01*
X91476583Y-59159910D01*
X91533903Y-59256308D01*
X91730427Y-59474674D01*
X91965776Y-59650504D01*
X92230906Y-59777042D01*
X92381694Y-59822778D01*
X92613720Y-59701637D01*
X92613720Y-58494820D01*
X92867720Y-58494820D01*
X92867720Y-59701637D01*
X93099746Y-59822778D01*
X93250534Y-59777042D01*
X93401566Y-59704959D01*
X108484540Y-59704959D01*
X108484540Y-59958081D01*
X108533921Y-60206341D01*
X108630787Y-60440196D01*
X108771415Y-60650660D01*
X108950400Y-60829645D01*
X109160864Y-60970273D01*
X109394719Y-61067139D01*
X109642979Y-61116520D01*
X109896101Y-61116520D01*
X110144361Y-61067139D01*
X110378216Y-60970273D01*
X110588680Y-60829645D01*
X110767665Y-60650660D01*
X110908293Y-60440196D01*
X111005159Y-60206341D01*
X111054540Y-59958081D01*
X111054540Y-59704959D01*
X111005159Y-59456699D01*
X110908293Y-59222844D01*
X110767665Y-59012380D01*
X110588680Y-58833395D01*
X110378216Y-58692767D01*
X110144361Y-58595901D01*
X109896101Y-58546520D01*
X109642979Y-58546520D01*
X109394719Y-58595901D01*
X109160864Y-58692767D01*
X108950400Y-58833395D01*
X108771415Y-59012380D01*
X108630787Y-59222844D01*
X108533921Y-59456699D01*
X108484540Y-59704959D01*
X93401566Y-59704959D01*
X93515664Y-59650504D01*
X93751013Y-59474674D01*
X93947537Y-59256308D01*
X94097684Y-59003798D01*
X94195683Y-58726847D01*
X94075184Y-58494820D01*
X92867720Y-58494820D01*
X92613720Y-58494820D01*
X92593720Y-58494820D01*
X92593720Y-58240820D01*
X92613720Y-58240820D01*
X92613720Y-58220820D01*
X92867720Y-58220820D01*
X92867720Y-58240820D01*
X94075184Y-58240820D01*
X94195683Y-58008793D01*
X94143457Y-57861200D01*
X95322138Y-57861200D01*
X95421791Y-57927786D01*
X95591951Y-57998268D01*
X95772591Y-58034200D01*
X95956769Y-58034200D01*
X96137409Y-57998268D01*
X96307569Y-57927786D01*
X96460708Y-57825462D01*
X96590942Y-57695228D01*
X96693266Y-57542089D01*
X96763748Y-57371929D01*
X96799680Y-57191289D01*
X96799680Y-57007111D01*
X96763748Y-56826471D01*
X96693266Y-56656311D01*
X96590942Y-56503172D01*
X96460708Y-56372938D01*
X96307569Y-56270614D01*
X96137409Y-56200132D01*
X95956769Y-56164200D01*
X95772591Y-56164200D01*
X95591951Y-56200132D01*
X95421791Y-56270614D01*
X95322138Y-56337200D01*
X94242392Y-56337200D01*
X94242392Y-55270400D01*
X122383298Y-55270400D01*
X122482951Y-55336986D01*
X122653111Y-55407468D01*
X122833751Y-55443400D01*
X123017929Y-55443400D01*
X123198569Y-55407468D01*
X123368729Y-55336986D01*
X123454440Y-55279716D01*
X123454439Y-59203576D01*
X123345812Y-59276158D01*
X123215578Y-59406392D01*
X123113254Y-59559531D01*
X123042772Y-59729691D01*
X123006840Y-59910331D01*
X123006840Y-60094509D01*
X123042772Y-60275149D01*
X123113254Y-60445309D01*
X123215578Y-60598448D01*
X123345812Y-60728682D01*
X123498951Y-60831006D01*
X123669111Y-60901488D01*
X123849751Y-60937420D01*
X124033929Y-60937420D01*
X124214569Y-60901488D01*
X124384729Y-60831006D01*
X124537868Y-60728682D01*
X124668102Y-60598448D01*
X124770426Y-60445309D01*
X124840908Y-60275149D01*
X124857058Y-60193958D01*
X124899705Y-60141993D01*
X124972821Y-60005204D01*
X125017845Y-59856778D01*
X125029239Y-59741094D01*
X125029239Y-59741086D01*
X125033047Y-59702421D01*
X125029239Y-59663756D01*
X125029239Y-54971510D01*
X125033047Y-54932845D01*
X125029239Y-54894180D01*
X125029239Y-54894172D01*
X125017845Y-54778488D01*
X124972821Y-54630062D01*
X124899705Y-54493273D01*
X124862539Y-54447986D01*
X124825961Y-54403415D01*
X124825958Y-54403412D01*
X124801308Y-54373376D01*
X124771272Y-54348726D01*
X123799120Y-53376576D01*
X123774462Y-53346530D01*
X123654565Y-53248133D01*
X123517776Y-53175017D01*
X123369350Y-53129993D01*
X123253666Y-53118599D01*
X123253656Y-53118599D01*
X123214993Y-53114791D01*
X123176330Y-53118599D01*
X119027923Y-53118599D01*
X118989260Y-53114791D01*
X118950597Y-53118599D01*
X118950588Y-53118599D01*
X118834904Y-53129993D01*
X118752463Y-53155001D01*
X112309950Y-53155001D01*
X112291608Y-53062791D01*
X112221126Y-52892631D01*
X112118802Y-52739492D01*
X111988568Y-52609258D01*
X111835429Y-52506934D01*
X111764532Y-52477568D01*
X111803726Y-52418909D01*
X111874208Y-52248749D01*
X111891659Y-52161019D01*
X123188909Y-52161019D01*
X126283290Y-55255400D01*
X126306672Y-55372949D01*
X126377154Y-55543109D01*
X126479478Y-55696248D01*
X126609712Y-55826482D01*
X126762851Y-55928806D01*
X126933011Y-55999288D01*
X127113651Y-56035220D01*
X127297829Y-56035220D01*
X127478469Y-55999288D01*
X127648629Y-55928806D01*
X127801768Y-55826482D01*
X127932002Y-55696248D01*
X128034326Y-55543109D01*
X128104808Y-55372949D01*
X128140740Y-55192309D01*
X128140740Y-55038768D01*
X128164269Y-55034088D01*
X128334429Y-54963606D01*
X128487568Y-54861282D01*
X128617802Y-54731048D01*
X128689345Y-54623976D01*
X136438640Y-62373272D01*
X136438641Y-64057449D01*
X136434954Y-64094882D01*
X136449667Y-64244260D01*
X136493239Y-64387897D01*
X136563995Y-64520274D01*
X136632695Y-64603984D01*
X136659219Y-64636304D01*
X136688289Y-64660161D01*
X138698047Y-66669920D01*
X126784771Y-66669920D01*
X125552642Y-65437791D01*
X124131624Y-64016774D01*
X124107762Y-63987698D01*
X123991732Y-63892475D01*
X123859355Y-63821718D01*
X123715718Y-63778146D01*
X123603766Y-63767120D01*
X123603763Y-63767120D01*
X123566340Y-63763434D01*
X123528917Y-63767120D01*
X83117942Y-63767120D01*
X83018289Y-63700534D01*
X82848129Y-63630052D01*
X82667489Y-63594120D01*
X82483311Y-63594120D01*
X82302671Y-63630052D01*
X82132511Y-63700534D01*
X81979372Y-63802858D01*
X81849138Y-63933092D01*
X81746814Y-64086231D01*
X81676332Y-64256391D01*
X81640400Y-64437031D01*
X81640400Y-64621209D01*
X81676332Y-64801849D01*
X81746814Y-64972009D01*
X81849138Y-65125148D01*
X81979372Y-65255382D01*
X82132511Y-65357706D01*
X82302671Y-65428188D01*
X82483311Y-65464120D01*
X82667489Y-65464120D01*
X82848129Y-65428188D01*
X83018289Y-65357706D01*
X83117942Y-65291120D01*
X84157540Y-65291120D01*
X84157540Y-65339609D01*
X84193472Y-65520249D01*
X84263954Y-65690409D01*
X84366278Y-65843548D01*
X84496512Y-65973782D01*
X84649651Y-66076106D01*
X84819811Y-66146588D01*
X85000451Y-66182520D01*
X85184629Y-66182520D01*
X85365269Y-66146588D01*
X85535429Y-66076106D01*
X85688568Y-65973782D01*
X85818802Y-65843548D01*
X85869134Y-65768220D01*
X86735640Y-65768220D01*
X86735640Y-65898409D01*
X86771572Y-66079049D01*
X86842054Y-66249209D01*
X86944378Y-66402348D01*
X87074612Y-66532582D01*
X87227751Y-66634906D01*
X87397911Y-66705388D01*
X87578551Y-66741320D01*
X87762729Y-66741320D01*
X87943369Y-66705388D01*
X88113529Y-66634906D01*
X88266668Y-66532582D01*
X88396902Y-66402348D01*
X88464206Y-66301620D01*
X89292758Y-66301620D01*
X89324272Y-66460049D01*
X89394754Y-66630209D01*
X89497078Y-66783348D01*
X89627312Y-66913582D01*
X89780451Y-67015906D01*
X89950611Y-67086388D01*
X90131251Y-67122320D01*
X90315429Y-67122320D01*
X90496069Y-67086388D01*
X90666229Y-67015906D01*
X90765882Y-66949320D01*
X122686410Y-66949320D01*
X125310293Y-69573204D01*
X125334151Y-69602275D01*
X125450181Y-69697498D01*
X125582558Y-69768255D01*
X125726195Y-69811827D01*
X125838147Y-69822853D01*
X125838149Y-69822853D01*
X125875572Y-69826539D01*
X125912995Y-69822853D01*
X143001910Y-69822853D01*
X143134207Y-69955150D01*
X143158069Y-69984226D01*
X143274099Y-70079449D01*
X143406476Y-70150206D01*
X143550113Y-70193778D01*
X143662065Y-70204804D01*
X143662067Y-70204804D01*
X143699490Y-70208490D01*
X143736913Y-70204804D01*
X146344385Y-70204804D01*
X146433939Y-70338831D01*
X146564173Y-70469065D01*
X146717312Y-70571389D01*
X146887472Y-70641871D01*
X147068112Y-70677803D01*
X147252290Y-70677803D01*
X147432930Y-70641871D01*
X147603090Y-70571389D01*
X147756229Y-70469065D01*
X147886463Y-70338831D01*
X147988787Y-70185692D01*
X148059269Y-70015532D01*
X148095201Y-69834892D01*
X148095201Y-69650714D01*
X148059269Y-69470074D01*
X148025847Y-69389386D01*
X148134425Y-69447422D01*
X148278062Y-69490994D01*
X148390014Y-69502020D01*
X148390016Y-69502020D01*
X148427439Y-69505706D01*
X148464862Y-69502020D01*
X148570698Y-69502020D01*
X148670351Y-69568606D01*
X148840511Y-69639088D01*
X149021151Y-69675020D01*
X149205329Y-69675020D01*
X149385969Y-69639088D01*
X149556129Y-69568606D01*
X149709268Y-69466282D01*
X149839502Y-69336048D01*
X149941826Y-69182909D01*
X150012308Y-69012749D01*
X150048240Y-68832109D01*
X150048240Y-68647931D01*
X150012308Y-68467291D01*
X149941826Y-68297131D01*
X149839502Y-68143992D01*
X149709268Y-68013758D01*
X149556129Y-67911434D01*
X149385969Y-67840952D01*
X149299995Y-67823851D01*
X149311640Y-67765309D01*
X149311640Y-67691000D01*
X151349458Y-67691000D01*
X151449111Y-67757586D01*
X151619271Y-67828068D01*
X151799911Y-67864000D01*
X151984089Y-67864000D01*
X152164729Y-67828068D01*
X152334889Y-67757586D01*
X152434542Y-67691000D01*
X153229058Y-67691000D01*
X153328711Y-67757586D01*
X153498871Y-67828068D01*
X153679511Y-67864000D01*
X153863689Y-67864000D01*
X154044329Y-67828068D01*
X154214489Y-67757586D01*
X154314142Y-67691000D01*
X164532058Y-67691000D01*
X164631711Y-67757586D01*
X164801871Y-67828068D01*
X164982511Y-67864000D01*
X165166689Y-67864000D01*
X165347329Y-67828068D01*
X165517489Y-67757586D01*
X165617142Y-67691000D01*
X166437058Y-67691000D01*
X166536711Y-67757586D01*
X166706871Y-67828068D01*
X166887511Y-67864000D01*
X167071689Y-67864000D01*
X167252329Y-67828068D01*
X167422489Y-67757586D01*
X167522142Y-67691000D01*
X168519858Y-67691000D01*
X168619511Y-67757586D01*
X168789671Y-67828068D01*
X168970311Y-67864000D01*
X169154489Y-67864000D01*
X169335129Y-67828068D01*
X169505289Y-67757586D01*
X169604942Y-67691000D01*
X170323258Y-67691000D01*
X170422911Y-67757586D01*
X170593071Y-67828068D01*
X170773711Y-67864000D01*
X170957889Y-67864000D01*
X171138529Y-67828068D01*
X171308689Y-67757586D01*
X171408342Y-67691000D01*
X175858873Y-67691000D01*
X175970231Y-67765407D01*
X176140391Y-67835889D01*
X176321031Y-67871821D01*
X176505209Y-67871821D01*
X176685849Y-67835889D01*
X176856009Y-67765407D01*
X177009148Y-67663083D01*
X177139382Y-67532849D01*
X177241706Y-67379710D01*
X177312188Y-67209550D01*
X177348120Y-67028910D01*
X177348120Y-66844732D01*
X177312188Y-66664092D01*
X177241706Y-66493932D01*
X177139382Y-66340793D01*
X177009148Y-66210559D01*
X176856009Y-66108235D01*
X176685849Y-66037753D01*
X176505209Y-66001821D01*
X176321031Y-66001821D01*
X176140391Y-66037753D01*
X175970231Y-66108235D01*
X175882283Y-66167000D01*
X175065699Y-66167000D01*
X175072540Y-66132609D01*
X175072540Y-65948431D01*
X175036608Y-65767791D01*
X174966126Y-65597631D01*
X174863802Y-65444492D01*
X174733568Y-65314258D01*
X174624941Y-65241676D01*
X174624941Y-64012431D01*
X176311280Y-64012431D01*
X176311280Y-64196609D01*
X176347212Y-64377249D01*
X176417694Y-64547409D01*
X176520018Y-64700548D01*
X176650252Y-64830782D01*
X176803391Y-64933106D01*
X176973551Y-65003588D01*
X177154191Y-65039520D01*
X177338369Y-65039520D01*
X177519009Y-65003588D01*
X177689169Y-64933106D01*
X177788822Y-64866520D01*
X183519409Y-64866520D01*
X181227194Y-67158736D01*
X181198118Y-67182598D01*
X181158945Y-67230331D01*
X181102895Y-67298628D01*
X181080968Y-67339652D01*
X181032138Y-67431006D01*
X180988566Y-67574643D01*
X180978462Y-67677229D01*
X180456272Y-68199420D01*
X178738782Y-68199420D01*
X178639129Y-68132834D01*
X178468969Y-68062352D01*
X178288329Y-68026420D01*
X178104151Y-68026420D01*
X177923511Y-68062352D01*
X177753351Y-68132834D01*
X177600212Y-68235158D01*
X177469978Y-68365392D01*
X177367654Y-68518531D01*
X177297172Y-68688691D01*
X177261240Y-68869331D01*
X177261240Y-69053509D01*
X177297172Y-69234149D01*
X177367654Y-69404309D01*
X177469978Y-69557448D01*
X177600212Y-69687682D01*
X177753351Y-69790006D01*
X177923511Y-69860488D01*
X178104151Y-69896420D01*
X178288329Y-69896420D01*
X178468969Y-69860488D01*
X178639129Y-69790006D01*
X178738782Y-69723420D01*
X180734479Y-69723420D01*
X180771902Y-69727106D01*
X180809325Y-69723420D01*
X180809328Y-69723420D01*
X180921280Y-69712394D01*
X181064917Y-69668822D01*
X181197294Y-69598065D01*
X181313324Y-69502842D01*
X181337186Y-69473766D01*
X182251891Y-68559061D01*
X182280962Y-68535204D01*
X182323105Y-68483853D01*
X182376185Y-68419175D01*
X182414005Y-68348418D01*
X182446942Y-68286797D01*
X182490514Y-68143159D01*
X182500618Y-68040572D01*
X184582192Y-65958999D01*
X185742978Y-65958999D01*
X185780401Y-65962685D01*
X185817824Y-65958999D01*
X185817827Y-65958999D01*
X185929779Y-65947973D01*
X186073416Y-65904401D01*
X186205793Y-65833644D01*
X186219092Y-65822730D01*
X186353129Y-65796068D01*
X186523289Y-65725586D01*
X186676428Y-65623262D01*
X186806662Y-65493028D01*
X186908986Y-65339889D01*
X186979468Y-65169729D01*
X187015400Y-64989089D01*
X187015400Y-64804911D01*
X186979468Y-64624271D01*
X186908986Y-64454111D01*
X186806662Y-64300972D01*
X186676428Y-64170738D01*
X186523289Y-64068414D01*
X186405800Y-64019749D01*
X186405800Y-63992111D01*
X186369868Y-63811471D01*
X186299386Y-63641311D01*
X186197062Y-63488172D01*
X186066828Y-63357938D01*
X185913689Y-63255614D01*
X185743529Y-63185132D01*
X185562889Y-63149200D01*
X185378711Y-63149200D01*
X185198071Y-63185132D01*
X185027911Y-63255614D01*
X184897847Y-63342520D01*
X177788822Y-63342520D01*
X177689169Y-63275934D01*
X177519009Y-63205452D01*
X177338369Y-63169520D01*
X177154191Y-63169520D01*
X176973551Y-63205452D01*
X176803391Y-63275934D01*
X176650252Y-63378258D01*
X176520018Y-63508492D01*
X176417694Y-63661631D01*
X176347212Y-63831791D01*
X176311280Y-64012431D01*
X174624941Y-64012431D01*
X174624941Y-62601306D01*
X174687851Y-62613820D01*
X174872029Y-62613820D01*
X175052669Y-62577888D01*
X175076976Y-62567820D01*
X180088144Y-62567820D01*
X180131804Y-62572120D01*
X180175464Y-62567820D01*
X180175471Y-62567820D01*
X180306078Y-62554956D01*
X180473655Y-62504123D01*
X180628095Y-62421573D01*
X180763463Y-62310479D01*
X180791303Y-62276557D01*
X181240080Y-61827780D01*
X181350110Y-61794402D01*
X181526612Y-61700060D01*
X181642557Y-61604907D01*
X183140064Y-60107400D01*
X194803928Y-60107400D01*
X194816188Y-60231882D01*
X194852498Y-60351580D01*
X194911463Y-60461894D01*
X194990815Y-60558585D01*
X195087506Y-60637937D01*
X195197820Y-60696902D01*
X195317518Y-60733212D01*
X195442000Y-60745472D01*
X196056250Y-60742400D01*
X196215000Y-60583650D01*
X196215000Y-59334400D01*
X194965750Y-59334400D01*
X194807000Y-59493150D01*
X194803928Y-60107400D01*
X183140064Y-60107400D01*
X184556273Y-58691192D01*
X184595036Y-58659380D01*
X184722000Y-58504674D01*
X184816342Y-58328171D01*
X184822642Y-58307400D01*
X194803928Y-58307400D01*
X194807000Y-58921650D01*
X194965750Y-59080400D01*
X196215000Y-59080400D01*
X196215000Y-57831150D01*
X196469000Y-57831150D01*
X196469000Y-59080400D01*
X196489000Y-59080400D01*
X196489000Y-59334400D01*
X196469000Y-59334400D01*
X196469000Y-60583650D01*
X196627750Y-60742400D01*
X197242000Y-60745472D01*
X197366482Y-60733212D01*
X197486180Y-60696902D01*
X197596494Y-60637937D01*
X197693185Y-60558585D01*
X197772537Y-60461894D01*
X197825880Y-60362097D01*
X197863495Y-60399712D01*
X198114905Y-60567699D01*
X198394257Y-60683411D01*
X198690816Y-60742400D01*
X198993184Y-60742400D01*
X199289743Y-60683411D01*
X199569095Y-60567699D01*
X199820505Y-60399712D01*
X200034312Y-60185905D01*
X200202299Y-59934495D01*
X200318011Y-59655143D01*
X200377000Y-59358584D01*
X200377000Y-59056216D01*
X200318011Y-58759657D01*
X200202299Y-58480305D01*
X200034312Y-58228895D01*
X199820505Y-58015088D01*
X199569095Y-57847101D01*
X199289743Y-57731389D01*
X198993184Y-57672400D01*
X198690816Y-57672400D01*
X198394257Y-57731389D01*
X198114905Y-57847101D01*
X197863495Y-58015088D01*
X197825880Y-58052703D01*
X197772537Y-57952906D01*
X197693185Y-57856215D01*
X197596494Y-57776863D01*
X197486180Y-57717898D01*
X197366482Y-57681588D01*
X197242000Y-57669328D01*
X196627750Y-57672400D01*
X196469000Y-57831150D01*
X196215000Y-57831150D01*
X196056250Y-57672400D01*
X195442000Y-57669328D01*
X195317518Y-57681588D01*
X195197820Y-57717898D01*
X195087506Y-57776863D01*
X194990815Y-57856215D01*
X194911463Y-57952906D01*
X194852498Y-58063220D01*
X194816188Y-58182918D01*
X194803928Y-58307400D01*
X184822642Y-58307400D01*
X184874438Y-58136655D01*
X184889140Y-57987386D01*
X184889140Y-57987385D01*
X184894055Y-57937485D01*
X184889140Y-57887583D01*
X184889140Y-57463319D01*
X184874438Y-57314050D01*
X184816342Y-57122533D01*
X184722000Y-56946030D01*
X184595036Y-56791324D01*
X184440330Y-56664360D01*
X184263827Y-56570018D01*
X184072311Y-56511922D01*
X183873140Y-56492305D01*
X183673970Y-56511922D01*
X183482454Y-56570018D01*
X183305951Y-56664360D01*
X183151245Y-56791324D01*
X183024281Y-56946030D01*
X182929938Y-57122533D01*
X182871842Y-57314049D01*
X182857140Y-57463318D01*
X182857140Y-57516643D01*
X180205717Y-60168067D01*
X180110564Y-60284012D01*
X180016222Y-60460514D01*
X179982844Y-60570544D01*
X179763569Y-60789820D01*
X175828505Y-60789820D01*
X175967665Y-60650660D01*
X176108293Y-60440196D01*
X176205159Y-60206341D01*
X176254540Y-59958081D01*
X176254540Y-59704959D01*
X176205159Y-59456699D01*
X176108293Y-59222844D01*
X175967665Y-59012380D01*
X175788680Y-58833395D01*
X175578216Y-58692767D01*
X175344361Y-58595901D01*
X175096101Y-58546520D01*
X174842979Y-58546520D01*
X174624941Y-58589890D01*
X174624941Y-52054111D01*
X179074800Y-52054111D01*
X179074800Y-52238289D01*
X179110732Y-52418929D01*
X179181214Y-52589089D01*
X179283538Y-52742228D01*
X179413772Y-52872462D01*
X179566911Y-52974786D01*
X179737071Y-53045268D01*
X179917711Y-53081200D01*
X180101889Y-53081200D01*
X180282529Y-53045268D01*
X180452689Y-52974786D01*
X180514328Y-52933600D01*
X183107110Y-52933600D01*
X183017338Y-53023372D01*
X182915014Y-53176511D01*
X182844532Y-53346671D01*
X182808600Y-53527311D01*
X182808600Y-53711489D01*
X182844532Y-53892129D01*
X182915014Y-54062289D01*
X183017338Y-54215428D01*
X183147572Y-54345662D01*
X183300711Y-54447986D01*
X183470871Y-54518468D01*
X183651511Y-54554400D01*
X183835689Y-54554400D01*
X184016329Y-54518468D01*
X184186489Y-54447986D01*
X184191108Y-54444900D01*
X193633892Y-54444900D01*
X193638511Y-54447986D01*
X193808671Y-54518468D01*
X193989311Y-54554400D01*
X194173489Y-54554400D01*
X194354129Y-54518468D01*
X194524289Y-54447986D01*
X194677428Y-54345662D01*
X194807662Y-54215428D01*
X194909986Y-54062289D01*
X194980468Y-53892129D01*
X195016400Y-53711489D01*
X195016400Y-53527311D01*
X194980468Y-53346671D01*
X194913936Y-53186047D01*
X206271618Y-53186047D01*
X206325006Y-53414721D01*
X206554914Y-53520615D01*
X206801064Y-53579622D01*
X207053995Y-53589472D01*
X207303989Y-53549790D01*
X207541436Y-53462098D01*
X207630074Y-53414721D01*
X207683462Y-53186047D01*
X206977540Y-52480125D01*
X206271618Y-53186047D01*
X194913936Y-53186047D01*
X194909986Y-53176511D01*
X194807662Y-53023372D01*
X194677428Y-52893138D01*
X194524289Y-52790814D01*
X194354129Y-52720332D01*
X194173489Y-52684400D01*
X193989311Y-52684400D01*
X193808671Y-52720332D01*
X193638511Y-52790814D01*
X193633892Y-52793900D01*
X189777590Y-52793900D01*
X189829262Y-52742228D01*
X189931586Y-52589089D01*
X190002068Y-52418929D01*
X190010413Y-52376975D01*
X205688588Y-52376975D01*
X205728270Y-52626969D01*
X205815962Y-52864416D01*
X205863339Y-52953054D01*
X206092013Y-53006442D01*
X206797935Y-52300520D01*
X207157145Y-52300520D01*
X207863067Y-53006442D01*
X208091741Y-52953054D01*
X208197635Y-52723146D01*
X208256642Y-52476996D01*
X208266492Y-52224065D01*
X208226810Y-51974071D01*
X208139118Y-51736624D01*
X208093096Y-51650520D01*
X210689468Y-51650520D01*
X210689468Y-52950520D01*
X210701728Y-53075002D01*
X210738038Y-53194700D01*
X210797003Y-53305014D01*
X210876355Y-53401705D01*
X210973046Y-53481057D01*
X211083360Y-53540022D01*
X211203058Y-53576332D01*
X211327540Y-53588592D01*
X212627540Y-53588592D01*
X212752022Y-53576332D01*
X212871720Y-53540022D01*
X212982034Y-53481057D01*
X213078725Y-53401705D01*
X213158077Y-53305014D01*
X213217042Y-53194700D01*
X213253352Y-53075002D01*
X213265612Y-52950520D01*
X213265612Y-51650520D01*
X213253352Y-51526038D01*
X213242578Y-51490520D01*
X217519468Y-51490520D01*
X217519468Y-52790520D01*
X217531728Y-52915002D01*
X217568038Y-53034700D01*
X217627003Y-53145014D01*
X217706355Y-53241705D01*
X217803046Y-53321057D01*
X217913360Y-53380022D01*
X218033058Y-53416332D01*
X218157540Y-53428592D01*
X219457540Y-53428592D01*
X219582022Y-53416332D01*
X219701720Y-53380022D01*
X219812034Y-53321057D01*
X219908725Y-53241705D01*
X219988077Y-53145014D01*
X220047042Y-53034700D01*
X220049666Y-53026047D01*
X223101618Y-53026047D01*
X223155006Y-53254721D01*
X223384914Y-53360615D01*
X223631064Y-53419622D01*
X223883995Y-53429472D01*
X224133989Y-53389790D01*
X224371436Y-53302098D01*
X224460074Y-53254721D01*
X224513462Y-53026047D01*
X223807540Y-52320125D01*
X223101618Y-53026047D01*
X220049666Y-53026047D01*
X220083352Y-52915002D01*
X220095612Y-52790520D01*
X220095612Y-52216975D01*
X222518588Y-52216975D01*
X222558270Y-52466969D01*
X222645962Y-52704416D01*
X222693339Y-52793054D01*
X222922013Y-52846442D01*
X223627935Y-52140520D01*
X223987145Y-52140520D01*
X224693067Y-52846442D01*
X224921741Y-52793054D01*
X225027635Y-52563146D01*
X225086642Y-52316996D01*
X225096492Y-52064065D01*
X225056810Y-51814071D01*
X224969118Y-51576624D01*
X224921741Y-51487986D01*
X224693067Y-51434598D01*
X223987145Y-52140520D01*
X223627935Y-52140520D01*
X222922013Y-51434598D01*
X222693339Y-51487986D01*
X222587445Y-51717894D01*
X222528438Y-51964044D01*
X222518588Y-52216975D01*
X220095612Y-52216975D01*
X220095612Y-51490520D01*
X220083352Y-51366038D01*
X220049667Y-51254993D01*
X223101618Y-51254993D01*
X223807540Y-51960915D01*
X224513462Y-51254993D01*
X224460074Y-51026319D01*
X224230166Y-50920425D01*
X223984016Y-50861418D01*
X223731085Y-50851568D01*
X223481091Y-50891250D01*
X223243644Y-50978942D01*
X223155006Y-51026319D01*
X223101618Y-51254993D01*
X220049667Y-51254993D01*
X220047042Y-51246340D01*
X219988077Y-51136026D01*
X219908725Y-51039335D01*
X219812034Y-50959983D01*
X219701720Y-50901018D01*
X219582022Y-50864708D01*
X219457540Y-50852448D01*
X218157540Y-50852448D01*
X218033058Y-50864708D01*
X217913360Y-50901018D01*
X217803046Y-50959983D01*
X217706355Y-51039335D01*
X217627003Y-51136026D01*
X217568038Y-51246340D01*
X217531728Y-51366038D01*
X217519468Y-51490520D01*
X213242578Y-51490520D01*
X213217042Y-51406340D01*
X213158077Y-51296026D01*
X213078725Y-51199335D01*
X212982034Y-51119983D01*
X212871720Y-51061018D01*
X212752022Y-51024708D01*
X212627540Y-51012448D01*
X211327540Y-51012448D01*
X211203058Y-51024708D01*
X211083360Y-51061018D01*
X210973046Y-51119983D01*
X210876355Y-51199335D01*
X210797003Y-51296026D01*
X210738038Y-51406340D01*
X210701728Y-51526038D01*
X210689468Y-51650520D01*
X208093096Y-51650520D01*
X208091741Y-51647986D01*
X207863067Y-51594598D01*
X207157145Y-52300520D01*
X206797935Y-52300520D01*
X206092013Y-51594598D01*
X205863339Y-51647986D01*
X205757445Y-51877894D01*
X205698438Y-52124044D01*
X205688588Y-52376975D01*
X190010413Y-52376975D01*
X190038000Y-52238289D01*
X190038000Y-52054111D01*
X190002068Y-51873471D01*
X189931586Y-51703311D01*
X189829262Y-51550172D01*
X189699028Y-51419938D01*
X189691628Y-51414993D01*
X206271618Y-51414993D01*
X206977540Y-52120915D01*
X207683462Y-51414993D01*
X207630074Y-51186319D01*
X207400166Y-51080425D01*
X207154016Y-51021418D01*
X206901085Y-51011568D01*
X206651091Y-51051250D01*
X206413644Y-51138942D01*
X206325006Y-51186319D01*
X206271618Y-51414993D01*
X189691628Y-51414993D01*
X189545889Y-51317614D01*
X189375729Y-51247132D01*
X189195089Y-51211200D01*
X189010911Y-51211200D01*
X188830271Y-51247132D01*
X188660111Y-51317614D01*
X188598472Y-51358800D01*
X186584928Y-51358800D01*
X186523289Y-51317614D01*
X186353129Y-51247132D01*
X186172489Y-51211200D01*
X185988311Y-51211200D01*
X185807671Y-51247132D01*
X185637511Y-51317614D01*
X185575872Y-51358800D01*
X180514328Y-51358800D01*
X180452689Y-51317614D01*
X180282529Y-51247132D01*
X180101889Y-51211200D01*
X179917711Y-51211200D01*
X179737071Y-51247132D01*
X179566911Y-51317614D01*
X179413772Y-51419938D01*
X179283538Y-51550172D01*
X179181214Y-51703311D01*
X179110732Y-51873471D01*
X179074800Y-52054111D01*
X174624941Y-52054111D01*
X174624941Y-47786911D01*
X192689200Y-47786911D01*
X192689200Y-47971089D01*
X192725132Y-48151729D01*
X192795614Y-48321889D01*
X192897938Y-48475028D01*
X193028172Y-48605262D01*
X193181311Y-48707586D01*
X193351471Y-48778068D01*
X193532111Y-48814000D01*
X193716289Y-48814000D01*
X193896929Y-48778068D01*
X194067089Y-48707586D01*
X194128728Y-48666400D01*
X195659672Y-48666400D01*
X195721311Y-48707586D01*
X195891471Y-48778068D01*
X196072111Y-48814000D01*
X196256289Y-48814000D01*
X196436929Y-48778068D01*
X196607089Y-48707586D01*
X196760228Y-48605262D01*
X196890462Y-48475028D01*
X196992786Y-48321889D01*
X197063268Y-48151729D01*
X197099200Y-47971089D01*
X197099200Y-47786911D01*
X197063268Y-47606271D01*
X196992786Y-47436111D01*
X196890462Y-47282972D01*
X196760228Y-47152738D01*
X196607089Y-47050414D01*
X196436929Y-46979932D01*
X196256289Y-46944000D01*
X196072111Y-46944000D01*
X195891471Y-46979932D01*
X195721311Y-47050414D01*
X195659672Y-47091600D01*
X194128728Y-47091600D01*
X194067089Y-47050414D01*
X193896929Y-46979932D01*
X193716289Y-46944000D01*
X193532111Y-46944000D01*
X193351471Y-46979932D01*
X193181311Y-47050414D01*
X193028172Y-47152738D01*
X192897938Y-47282972D01*
X192795614Y-47436111D01*
X192725132Y-47606271D01*
X192689200Y-47786911D01*
X174624941Y-47786911D01*
X174624941Y-42517576D01*
X179919000Y-42517576D01*
X179919000Y-42775624D01*
X179969342Y-43028713D01*
X180068093Y-43267118D01*
X180211456Y-43481677D01*
X180393923Y-43664144D01*
X180608482Y-43807507D01*
X180846887Y-43906258D01*
X181099976Y-43956600D01*
X181358024Y-43956600D01*
X181611113Y-43906258D01*
X181849518Y-43807507D01*
X182064077Y-43664144D01*
X182065621Y-43662600D01*
X199543979Y-43662600D01*
X199545523Y-43664144D01*
X199760082Y-43807507D01*
X199998487Y-43906258D01*
X200251576Y-43956600D01*
X200509624Y-43956600D01*
X200762713Y-43906258D01*
X201001118Y-43807507D01*
X201215677Y-43664144D01*
X201398144Y-43481677D01*
X201541507Y-43267118D01*
X201640258Y-43028713D01*
X201690600Y-42775624D01*
X201690600Y-42517576D01*
X201640258Y-42264487D01*
X201541507Y-42026082D01*
X201398144Y-41811523D01*
X201215677Y-41629056D01*
X201001118Y-41485693D01*
X200762713Y-41386942D01*
X200509624Y-41336600D01*
X200251576Y-41336600D01*
X199998487Y-41386942D01*
X199760082Y-41485693D01*
X199545523Y-41629056D01*
X199543979Y-41630600D01*
X182065621Y-41630600D01*
X182064077Y-41629056D01*
X181849518Y-41485693D01*
X181611113Y-41386942D01*
X181358024Y-41336600D01*
X181099976Y-41336600D01*
X180846887Y-41386942D01*
X180608482Y-41485693D01*
X180393923Y-41629056D01*
X180211456Y-41811523D01*
X180068093Y-42026082D01*
X179969342Y-42264487D01*
X179919000Y-42517576D01*
X174624941Y-42517576D01*
X174624941Y-37093511D01*
X181741800Y-37093511D01*
X181741800Y-37277689D01*
X181777732Y-37458329D01*
X181848214Y-37628489D01*
X181950538Y-37781628D01*
X182080772Y-37911862D01*
X182233911Y-38014186D01*
X182404071Y-38084668D01*
X182584711Y-38120600D01*
X182768889Y-38120600D01*
X182949529Y-38084668D01*
X183119689Y-38014186D01*
X183181328Y-37973000D01*
X195659672Y-37973000D01*
X195721311Y-38014186D01*
X195891471Y-38084668D01*
X196072111Y-38120600D01*
X196256289Y-38120600D01*
X196436929Y-38084668D01*
X196607089Y-38014186D01*
X196760228Y-37911862D01*
X196890462Y-37781628D01*
X196992786Y-37628489D01*
X197063268Y-37458329D01*
X197068716Y-37430942D01*
X197088111Y-37434800D01*
X197272289Y-37434800D01*
X197452929Y-37398868D01*
X197623089Y-37328386D01*
X197776228Y-37226062D01*
X197906462Y-37095828D01*
X198008786Y-36942689D01*
X198079268Y-36772529D01*
X198115200Y-36591889D01*
X198115200Y-36407711D01*
X198079268Y-36227071D01*
X198008786Y-36056911D01*
X197906462Y-35903772D01*
X197776228Y-35773538D01*
X197623089Y-35671214D01*
X197452929Y-35600732D01*
X197272289Y-35564800D01*
X197088111Y-35564800D01*
X196907471Y-35600732D01*
X196737311Y-35671214D01*
X196637658Y-35737800D01*
X188477142Y-35737800D01*
X188377489Y-35671214D01*
X188207329Y-35600732D01*
X188026689Y-35564800D01*
X187842511Y-35564800D01*
X187661871Y-35600732D01*
X187491711Y-35671214D01*
X187392058Y-35737800D01*
X185124342Y-35737800D01*
X185024689Y-35671214D01*
X184854529Y-35600732D01*
X184673889Y-35564800D01*
X184489711Y-35564800D01*
X184309071Y-35600732D01*
X184138911Y-35671214D01*
X183985772Y-35773538D01*
X183855538Y-35903772D01*
X183753214Y-36056911D01*
X183682732Y-36227071D01*
X183648692Y-36398200D01*
X183181328Y-36398200D01*
X183119689Y-36357014D01*
X182949529Y-36286532D01*
X182768889Y-36250600D01*
X182584711Y-36250600D01*
X182404071Y-36286532D01*
X182233911Y-36357014D01*
X182080772Y-36459338D01*
X181950538Y-36589572D01*
X181848214Y-36742711D01*
X181777732Y-36912871D01*
X181741800Y-37093511D01*
X174624941Y-37093511D01*
X174624941Y-34315047D01*
X174666126Y-34253409D01*
X174736608Y-34083249D01*
X174772540Y-33902609D01*
X174772540Y-33718431D01*
X174736608Y-33537791D01*
X174666126Y-33367631D01*
X174563802Y-33214492D01*
X174433568Y-33084258D01*
X174280429Y-32981934D01*
X174110269Y-32911452D01*
X173929629Y-32875520D01*
X173745451Y-32875520D01*
X173564811Y-32911452D01*
X173394651Y-32981934D01*
X173241512Y-33084258D01*
X173111278Y-33214492D01*
X173008954Y-33367631D01*
X172938472Y-33537791D01*
X172902540Y-33718431D01*
X172902540Y-33902609D01*
X172938472Y-34083249D01*
X173008954Y-34253409D01*
X173050142Y-34315051D01*
X173050141Y-41969193D01*
X173050142Y-41969203D01*
X173050141Y-65701858D01*
X173046333Y-65740521D01*
X173050141Y-65779184D01*
X173050141Y-65779193D01*
X173061535Y-65894877D01*
X173106559Y-66043303D01*
X173172677Y-66167000D01*
X172687045Y-66167000D01*
X172696126Y-66153409D01*
X172766608Y-65983249D01*
X172802540Y-65802609D01*
X172802540Y-65618431D01*
X172766608Y-65437791D01*
X172696126Y-65267631D01*
X172593802Y-65114492D01*
X172463568Y-64984258D01*
X172310429Y-64881934D01*
X172140269Y-64811452D01*
X172067560Y-64796989D01*
X167804940Y-60534370D01*
X167804940Y-32365048D01*
X167846126Y-32303409D01*
X167916608Y-32133249D01*
X167952540Y-31952609D01*
X167952540Y-31768431D01*
X167916608Y-31587791D01*
X167846126Y-31417631D01*
X167743802Y-31264492D01*
X167613568Y-31134258D01*
X167460429Y-31031934D01*
X167290269Y-30961452D01*
X167109629Y-30925520D01*
X166925451Y-30925520D01*
X166744811Y-30961452D01*
X166574651Y-31031934D01*
X166421512Y-31134258D01*
X166291278Y-31264492D01*
X166188954Y-31417631D01*
X166118472Y-31587791D01*
X166082540Y-31768431D01*
X166082540Y-31952609D01*
X166118472Y-32133249D01*
X166188954Y-32303409D01*
X166230141Y-32365050D01*
X166230140Y-55562926D01*
X166230141Y-55562936D01*
X166230140Y-60821857D01*
X166226332Y-60860520D01*
X166230140Y-60899183D01*
X166230140Y-60899192D01*
X166241534Y-61014876D01*
X166286558Y-61163302D01*
X166359674Y-61300091D01*
X166458071Y-61419989D01*
X166488118Y-61444648D01*
X170954009Y-65910540D01*
X170968472Y-65983249D01*
X170974275Y-65997259D01*
X170957889Y-65994000D01*
X170773711Y-65994000D01*
X170593071Y-66029932D01*
X170422911Y-66100414D01*
X170323258Y-66167000D01*
X169604942Y-66167000D01*
X169505289Y-66100414D01*
X169335129Y-66029932D01*
X169154489Y-65994000D01*
X168970311Y-65994000D01*
X168789671Y-66029932D01*
X168619511Y-66100414D01*
X168519858Y-66167000D01*
X167522142Y-66167000D01*
X167422489Y-66100414D01*
X167252329Y-66029932D01*
X167071689Y-65994000D01*
X166887511Y-65994000D01*
X166706871Y-66029932D01*
X166536711Y-66100414D01*
X166437058Y-66167000D01*
X165617142Y-66167000D01*
X165517489Y-66100414D01*
X165347329Y-66029932D01*
X165166689Y-65994000D01*
X164982511Y-65994000D01*
X164801871Y-66029932D01*
X164631711Y-66100414D01*
X164532058Y-66167000D01*
X154314142Y-66167000D01*
X154214489Y-66100414D01*
X154044329Y-66029932D01*
X153863689Y-65994000D01*
X153679511Y-65994000D01*
X153498871Y-66029932D01*
X153328711Y-66100414D01*
X153229058Y-66167000D01*
X152434542Y-66167000D01*
X152334889Y-66100414D01*
X152164729Y-66029932D01*
X151984089Y-65994000D01*
X151799911Y-65994000D01*
X151619271Y-66029932D01*
X151449111Y-66100414D01*
X151349458Y-66167000D01*
X140350389Y-66167000D01*
X137962640Y-63779252D01*
X137962640Y-62222245D01*
X137976645Y-62176076D01*
X137991848Y-62021719D01*
X137976645Y-61867362D01*
X137931621Y-61718937D01*
X137858505Y-61582147D01*
X137784761Y-61492289D01*
X132253102Y-55960631D01*
X137459440Y-55960631D01*
X137459440Y-56144809D01*
X137495372Y-56325449D01*
X137565854Y-56495609D01*
X137607040Y-56557249D01*
X137607041Y-58654239D01*
X137618435Y-58769923D01*
X137663459Y-58918349D01*
X137736575Y-59055138D01*
X137752155Y-59074122D01*
X137757795Y-59084674D01*
X137853018Y-59200704D01*
X137882093Y-59224565D01*
X141213840Y-62556313D01*
X141213841Y-63117477D01*
X141147254Y-63217131D01*
X141076772Y-63387291D01*
X141040840Y-63567931D01*
X141040840Y-63752109D01*
X141076772Y-63932749D01*
X141147254Y-64102909D01*
X141249578Y-64256048D01*
X141379812Y-64386282D01*
X141532951Y-64488606D01*
X141703111Y-64559088D01*
X141883751Y-64595020D01*
X142067929Y-64595020D01*
X142248569Y-64559088D01*
X142418729Y-64488606D01*
X142571868Y-64386282D01*
X142702102Y-64256048D01*
X142804426Y-64102909D01*
X142874908Y-63932749D01*
X142910840Y-63752109D01*
X142910840Y-63567931D01*
X142874908Y-63387291D01*
X142804426Y-63217131D01*
X142737840Y-63117478D01*
X142737840Y-62278104D01*
X142741526Y-62240681D01*
X142735068Y-62175111D01*
X142726814Y-62091304D01*
X142683242Y-61947667D01*
X142612485Y-61815290D01*
X142517262Y-61699260D01*
X142488193Y-61675404D01*
X140507220Y-59694431D01*
X145917640Y-59694431D01*
X145917640Y-59878609D01*
X145953572Y-60059249D01*
X146024054Y-60229409D01*
X146126378Y-60382548D01*
X146256612Y-60512782D01*
X146409751Y-60615106D01*
X146433541Y-60624960D01*
X146433540Y-63993691D01*
X146392354Y-64055331D01*
X146321872Y-64225491D01*
X146285940Y-64406131D01*
X146285940Y-64590309D01*
X146321872Y-64770949D01*
X146392354Y-64941109D01*
X146494678Y-65094248D01*
X146624912Y-65224482D01*
X146778051Y-65326806D01*
X146948211Y-65397288D01*
X147128851Y-65433220D01*
X147313029Y-65433220D01*
X147493669Y-65397288D01*
X147663829Y-65326806D01*
X147816968Y-65224482D01*
X147947202Y-65094248D01*
X148049526Y-64941109D01*
X148120008Y-64770949D01*
X148155940Y-64590309D01*
X148155940Y-64406131D01*
X148137651Y-64314186D01*
X148234578Y-64459248D01*
X148364812Y-64589482D01*
X148517951Y-64691806D01*
X148688111Y-64762288D01*
X148868751Y-64798220D01*
X149052929Y-64798220D01*
X149233569Y-64762288D01*
X149403729Y-64691806D01*
X149556868Y-64589482D01*
X149687102Y-64459248D01*
X149789426Y-64306109D01*
X149859908Y-64135949D01*
X149895840Y-63955309D01*
X149895840Y-63771131D01*
X149859908Y-63590491D01*
X149789426Y-63420331D01*
X149747184Y-63357111D01*
X151896800Y-63357111D01*
X151896800Y-63541289D01*
X151932732Y-63721929D01*
X152003214Y-63892089D01*
X152105538Y-64045228D01*
X152235772Y-64175462D01*
X152388911Y-64277786D01*
X152559071Y-64348268D01*
X152739711Y-64384200D01*
X152923889Y-64384200D01*
X153104529Y-64348268D01*
X153274689Y-64277786D01*
X153427828Y-64175462D01*
X153558062Y-64045228D01*
X153660386Y-63892089D01*
X153730868Y-63721929D01*
X153750194Y-63624771D01*
X153819322Y-63495443D01*
X153864346Y-63347017D01*
X153875740Y-63231333D01*
X153875740Y-63231324D01*
X153879548Y-63192661D01*
X153875740Y-63153998D01*
X153875740Y-60664772D01*
X153915451Y-60691306D01*
X154085611Y-60761788D01*
X154266251Y-60797720D01*
X154450429Y-60797720D01*
X154631069Y-60761788D01*
X154801229Y-60691306D01*
X154954368Y-60588982D01*
X155084602Y-60458748D01*
X155186926Y-60305609D01*
X155257408Y-60135449D01*
X155293340Y-59954809D01*
X155293340Y-59770631D01*
X155257408Y-59589991D01*
X155186926Y-59419831D01*
X155120340Y-59320178D01*
X155120340Y-56416831D01*
X155196126Y-56303409D01*
X155266608Y-56133249D01*
X155302540Y-55952609D01*
X155302540Y-55768431D01*
X155266608Y-55587791D01*
X155196126Y-55417631D01*
X155093802Y-55264492D01*
X154963568Y-55134258D01*
X154810429Y-55031934D01*
X154640269Y-54961452D01*
X154459629Y-54925520D01*
X154275451Y-54925520D01*
X154094811Y-54961452D01*
X153924651Y-55031934D01*
X153771512Y-55134258D01*
X153641278Y-55264492D01*
X153538954Y-55417631D01*
X153468472Y-55587791D01*
X153432540Y-55768431D01*
X153432540Y-55952609D01*
X153468472Y-56133249D01*
X153538954Y-56303409D01*
X153596341Y-56389295D01*
X153596340Y-59090340D01*
X153531229Y-59046834D01*
X153361069Y-58976352D01*
X153180429Y-58940420D01*
X152996251Y-58940420D01*
X152815611Y-58976352D01*
X152645451Y-59046834D01*
X152492312Y-59149158D01*
X152362078Y-59279392D01*
X152259754Y-59432531D01*
X152189272Y-59602691D01*
X152153340Y-59783331D01*
X152153340Y-59967509D01*
X152189272Y-60148149D01*
X152259754Y-60318309D01*
X152300940Y-60379949D01*
X152300941Y-62679394D01*
X152235772Y-62722938D01*
X152105538Y-62853172D01*
X152003214Y-63006311D01*
X151932732Y-63176471D01*
X151896800Y-63357111D01*
X149747184Y-63357111D01*
X149687102Y-63267192D01*
X149556868Y-63136958D01*
X149403729Y-63034634D01*
X149233569Y-62964152D01*
X149160860Y-62949689D01*
X149024340Y-62813169D01*
X149024340Y-60265648D01*
X149065526Y-60204009D01*
X149136008Y-60033849D01*
X149171940Y-59853209D01*
X149171940Y-59669031D01*
X149136008Y-59488391D01*
X149065526Y-59318231D01*
X148963202Y-59165092D01*
X148832968Y-59034858D01*
X148679829Y-58932534D01*
X148509669Y-58862052D01*
X148329029Y-58826120D01*
X148144851Y-58826120D01*
X147964211Y-58862052D01*
X147794051Y-58932534D01*
X147640912Y-59034858D01*
X147532090Y-59143680D01*
X147448668Y-59060258D01*
X147295529Y-58957934D01*
X147125369Y-58887452D01*
X146944729Y-58851520D01*
X146760551Y-58851520D01*
X146579911Y-58887452D01*
X146409751Y-58957934D01*
X146256612Y-59060258D01*
X146126378Y-59190492D01*
X146024054Y-59343631D01*
X145953572Y-59513791D01*
X145917640Y-59694431D01*
X140507220Y-59694431D01*
X139181840Y-58369052D01*
X139181840Y-56557248D01*
X139223026Y-56495609D01*
X139293508Y-56325449D01*
X139329440Y-56144809D01*
X139329440Y-55960631D01*
X139293508Y-55779991D01*
X139223026Y-55609831D01*
X139120702Y-55456692D01*
X138990468Y-55326458D01*
X138837329Y-55224134D01*
X138667169Y-55153652D01*
X138486529Y-55117720D01*
X138302351Y-55117720D01*
X138121711Y-55153652D01*
X137951551Y-55224134D01*
X137798412Y-55326458D01*
X137668178Y-55456692D01*
X137565854Y-55609831D01*
X137495372Y-55779991D01*
X137459440Y-55960631D01*
X132253102Y-55960631D01*
X127404969Y-51112499D01*
X127207210Y-50914740D01*
X127280114Y-50921920D01*
X152624100Y-50921920D01*
X152724651Y-50989106D01*
X152894811Y-51059588D01*
X153075451Y-51095520D01*
X153259629Y-51095520D01*
X153440269Y-51059588D01*
X153610429Y-50989106D01*
X153763568Y-50886782D01*
X153893802Y-50756548D01*
X153996126Y-50603409D01*
X154066608Y-50433249D01*
X154073103Y-50400596D01*
X154094811Y-50409588D01*
X154275451Y-50445520D01*
X154459629Y-50445520D01*
X154640269Y-50409588D01*
X154810429Y-50339106D01*
X154963568Y-50236782D01*
X155093802Y-50106548D01*
X155196126Y-49953409D01*
X155266608Y-49783249D01*
X155302540Y-49602609D01*
X155302540Y-49474120D01*
X157154210Y-49474120D01*
X157791990Y-50111901D01*
X157815372Y-50229449D01*
X157885854Y-50399609D01*
X157988178Y-50552748D01*
X158118412Y-50682982D01*
X158271551Y-50785306D01*
X158441711Y-50855788D01*
X158622351Y-50891720D01*
X158806529Y-50891720D01*
X158987169Y-50855788D01*
X159157329Y-50785306D01*
X159310468Y-50682982D01*
X159440702Y-50552748D01*
X159543026Y-50399609D01*
X159613508Y-50229449D01*
X159649440Y-50048809D01*
X159649440Y-49864631D01*
X159613508Y-49683991D01*
X159543026Y-49513831D01*
X159440702Y-49360692D01*
X159310468Y-49230458D01*
X159157329Y-49128134D01*
X158987169Y-49057652D01*
X158869621Y-49034270D01*
X158125051Y-48289701D01*
X158102306Y-48247148D01*
X158003909Y-48127251D01*
X157884012Y-48028854D01*
X157747223Y-47955738D01*
X157598797Y-47910714D01*
X157483113Y-47899320D01*
X134586559Y-47899320D01*
X134569108Y-47811591D01*
X134498626Y-47641431D01*
X134396302Y-47488292D01*
X134266068Y-47358058D01*
X134112929Y-47255734D01*
X133942769Y-47185252D01*
X133762129Y-47149320D01*
X133577951Y-47149320D01*
X133397311Y-47185252D01*
X133281316Y-47233298D01*
X133215926Y-47075431D01*
X133113602Y-46922292D01*
X132983368Y-46792058D01*
X132830229Y-46689734D01*
X132660069Y-46619252D01*
X132479429Y-46583320D01*
X132295251Y-46583320D01*
X132114611Y-46619252D01*
X131944451Y-46689734D01*
X131937290Y-46694519D01*
X93448003Y-46694519D01*
X93409340Y-46690711D01*
X93370677Y-46694519D01*
X93370668Y-46694519D01*
X93254984Y-46705913D01*
X93106558Y-46750937D01*
X92969769Y-46824053D01*
X92969767Y-46824054D01*
X92969768Y-46824054D01*
X92879910Y-46897798D01*
X92879908Y-46897800D01*
X92849872Y-46922450D01*
X92825222Y-46952486D01*
X92067520Y-47710189D01*
X91994811Y-47724652D01*
X91824651Y-47795134D01*
X91671512Y-47897458D01*
X91541278Y-48027692D01*
X91438954Y-48180831D01*
X91368472Y-48350991D01*
X91332540Y-48531631D01*
X91332540Y-48715809D01*
X91339047Y-48748520D01*
X73142268Y-48748520D01*
X73065685Y-48707586D01*
X73010556Y-48678119D01*
X72866918Y-48634547D01*
X72717540Y-48619834D01*
X72568161Y-48634547D01*
X72463157Y-48666400D01*
X72424525Y-48678119D01*
X72342428Y-48722000D01*
X72323311Y-48722000D01*
X72142671Y-48757932D01*
X71972511Y-48828414D01*
X71819372Y-48930738D01*
X71689138Y-49060972D01*
X71586814Y-49214111D01*
X71516332Y-49384271D01*
X71487344Y-49530000D01*
X70455956Y-49530000D01*
X70318289Y-49438014D01*
X70148129Y-49367532D01*
X69967489Y-49331600D01*
X69783311Y-49331600D01*
X69602671Y-49367532D01*
X69432511Y-49438014D01*
X69279372Y-49540338D01*
X69149138Y-49670572D01*
X69046814Y-49823711D01*
X68976332Y-49993871D01*
X68940400Y-50174511D01*
X68940400Y-50358689D01*
X68976332Y-50539329D01*
X69046814Y-50709489D01*
X69149138Y-50862628D01*
X69279372Y-50992862D01*
X69432511Y-51095186D01*
X69602671Y-51165668D01*
X69783311Y-51201600D01*
X69967489Y-51201600D01*
X70148129Y-51165668D01*
X70318289Y-51095186D01*
X70455956Y-51003200D01*
X74122221Y-51003200D01*
X74056332Y-51162271D01*
X74020400Y-51342911D01*
X74020400Y-51527089D01*
X74056332Y-51707729D01*
X74126814Y-51877889D01*
X74229138Y-52031028D01*
X74359372Y-52161262D01*
X74512511Y-52263586D01*
X74682671Y-52334068D01*
X74755380Y-52348531D01*
X74912296Y-52505447D01*
X74936951Y-52535489D01*
X74974365Y-52566194D01*
X75056847Y-52633886D01*
X75151352Y-52684400D01*
X75193637Y-52707002D01*
X75290400Y-52736354D01*
X75290400Y-52822489D01*
X75326332Y-53003129D01*
X75389239Y-53155001D01*
X70131367Y-53155001D01*
X70015683Y-53166395D01*
X69969511Y-53180401D01*
X69569151Y-53180401D01*
X69389124Y-53000374D01*
X69365262Y-52971298D01*
X69249232Y-52876075D01*
X69116855Y-52805318D01*
X68973218Y-52761746D01*
X68861266Y-52750720D01*
X68861263Y-52750720D01*
X68823840Y-52747034D01*
X68786417Y-52750720D01*
X68329214Y-52750720D01*
X68217262Y-52761746D01*
X68169877Y-52776120D01*
X68072615Y-52776120D01*
X68036439Y-52772557D01*
X68000263Y-52776120D01*
X68000254Y-52776120D01*
X67892041Y-52786778D01*
X67753191Y-52828898D01*
X67625227Y-52897296D01*
X67513065Y-52989345D01*
X67489990Y-53017462D01*
X67134773Y-53372678D01*
X67106665Y-53395746D01*
X67083599Y-53423852D01*
X67083598Y-53423853D01*
X67048659Y-53466427D01*
X67014616Y-53507908D01*
X66946218Y-53635872D01*
X66904098Y-53774722D01*
X66893545Y-53881869D01*
X66889876Y-53919120D01*
X63144940Y-53919120D01*
X63144940Y-47216670D01*
X64559096Y-45802514D01*
X78550215Y-45802514D01*
X78619627Y-46088233D01*
X78743446Y-46354921D01*
X78916914Y-46592329D01*
X79133365Y-46791333D01*
X79384481Y-46944286D01*
X79660611Y-47045309D01*
X79676374Y-47047958D01*
X79908400Y-46926817D01*
X79908400Y-45567600D01*
X78694475Y-45567600D01*
X78550215Y-45802514D01*
X64559096Y-45802514D01*
X65282924Y-45078686D01*
X78550215Y-45078686D01*
X78694475Y-45313600D01*
X79908400Y-45313600D01*
X79908400Y-43954383D01*
X80162400Y-43954383D01*
X80162400Y-45313600D01*
X80182400Y-45313600D01*
X80182400Y-45567600D01*
X80162400Y-45567600D01*
X80162400Y-46926817D01*
X80394426Y-47047958D01*
X80410189Y-47045309D01*
X80686319Y-46944286D01*
X80937435Y-46791333D01*
X81153886Y-46592329D01*
X81301976Y-46389653D01*
X81323331Y-46429606D01*
X81510603Y-46657797D01*
X81738795Y-46845069D01*
X81999137Y-46984225D01*
X82281624Y-47069916D01*
X82575400Y-47098851D01*
X82869177Y-47069916D01*
X83151664Y-46984225D01*
X83412006Y-46845069D01*
X83640197Y-46657797D01*
X83646814Y-46649735D01*
X83662298Y-46700780D01*
X83721263Y-46811094D01*
X83800615Y-46907785D01*
X83897306Y-46987137D01*
X84007620Y-47046102D01*
X84127318Y-47082412D01*
X84251800Y-47094672D01*
X85979000Y-47094672D01*
X86103482Y-47082412D01*
X86223180Y-47046102D01*
X86333494Y-46987137D01*
X86430185Y-46907785D01*
X86509537Y-46811094D01*
X86568502Y-46700780D01*
X86604812Y-46581082D01*
X86617072Y-46456600D01*
X86617072Y-44424600D01*
X86604812Y-44300118D01*
X86568502Y-44180420D01*
X86509537Y-44070106D01*
X86430185Y-43973415D01*
X86333494Y-43894063D01*
X86223180Y-43835098D01*
X86103482Y-43798788D01*
X85979000Y-43786528D01*
X84251800Y-43786528D01*
X84127318Y-43798788D01*
X84007620Y-43835098D01*
X83897306Y-43894063D01*
X83800615Y-43973415D01*
X83721263Y-44070106D01*
X83662298Y-44180420D01*
X83646814Y-44231465D01*
X83640197Y-44223403D01*
X83412005Y-44036131D01*
X83151663Y-43896975D01*
X82869176Y-43811284D01*
X82575400Y-43782349D01*
X82281623Y-43811284D01*
X81999136Y-43896975D01*
X81738794Y-44036131D01*
X81510603Y-44223403D01*
X81323331Y-44451595D01*
X81301976Y-44491547D01*
X81153886Y-44288871D01*
X80937435Y-44089867D01*
X80686319Y-43936914D01*
X80410189Y-43835891D01*
X80394426Y-43833242D01*
X80162400Y-43954383D01*
X79908400Y-43954383D01*
X79676374Y-43833242D01*
X79660611Y-43835891D01*
X79384481Y-43936914D01*
X79133365Y-44089867D01*
X78916914Y-44288871D01*
X78743446Y-44526279D01*
X78619627Y-44792967D01*
X78550215Y-45078686D01*
X65282924Y-45078686D01*
X69887359Y-40474251D01*
X132831560Y-40474251D01*
X132831560Y-40658429D01*
X132867492Y-40839069D01*
X132937974Y-41009229D01*
X133040298Y-41162368D01*
X133170532Y-41292602D01*
X133323671Y-41394926D01*
X133493831Y-41465408D01*
X133674471Y-41501340D01*
X133858649Y-41501340D01*
X134039289Y-41465408D01*
X134209449Y-41394926D01*
X134233134Y-41379100D01*
X161649138Y-41376645D01*
X161710711Y-41417786D01*
X161880871Y-41488268D01*
X162061511Y-41524200D01*
X162245689Y-41524200D01*
X162426329Y-41488268D01*
X162596489Y-41417786D01*
X162749628Y-41315462D01*
X162879862Y-41185228D01*
X162982186Y-41032089D01*
X163052668Y-40861929D01*
X163088600Y-40681289D01*
X163088600Y-40497111D01*
X163052668Y-40316471D01*
X162982186Y-40146311D01*
X162879862Y-39993172D01*
X162749628Y-39862938D01*
X162596489Y-39760614D01*
X162426329Y-39690132D01*
X162245689Y-39654200D01*
X162061511Y-39654200D01*
X161880871Y-39690132D01*
X161710711Y-39760614D01*
X161649003Y-39801846D01*
X134309034Y-39804294D01*
X134209449Y-39737754D01*
X134039289Y-39667272D01*
X133858649Y-39631340D01*
X133674471Y-39631340D01*
X133493831Y-39667272D01*
X133323671Y-39737754D01*
X133170532Y-39840078D01*
X133040298Y-39970312D01*
X132937974Y-40123451D01*
X132867492Y-40293611D01*
X132831560Y-40474251D01*
X69887359Y-40474251D01*
X72871211Y-37490400D01*
X111738072Y-37490400D01*
X111799711Y-37531586D01*
X111969871Y-37602068D01*
X112150511Y-37638000D01*
X112334689Y-37638000D01*
X112515329Y-37602068D01*
X112685489Y-37531586D01*
X112747218Y-37490340D01*
X133224113Y-37487924D01*
X133323671Y-37554446D01*
X133493831Y-37624928D01*
X133674471Y-37660860D01*
X133858649Y-37660860D01*
X134039289Y-37624928D01*
X134209449Y-37554446D01*
X134362588Y-37452122D01*
X134492822Y-37321888D01*
X134595146Y-37168749D01*
X134665628Y-36998589D01*
X134701560Y-36817949D01*
X134701560Y-36633771D01*
X134665628Y-36453131D01*
X134595146Y-36282971D01*
X134492822Y-36129832D01*
X134362588Y-35999598D01*
X134209449Y-35897274D01*
X134039289Y-35826792D01*
X133858649Y-35790860D01*
X133674471Y-35790860D01*
X133493831Y-35826792D01*
X133323671Y-35897274D01*
X133299962Y-35913116D01*
X112747040Y-35915541D01*
X112685489Y-35874414D01*
X112515329Y-35803932D01*
X112334689Y-35768000D01*
X112150511Y-35768000D01*
X111969871Y-35803932D01*
X111799711Y-35874414D01*
X111738072Y-35915600D01*
X72583723Y-35915600D01*
X72545060Y-35911792D01*
X72506397Y-35915600D01*
X72506387Y-35915600D01*
X72390703Y-35926994D01*
X72287243Y-35958378D01*
X72242277Y-35972018D01*
X72105487Y-36045134D01*
X72044525Y-36095165D01*
X71985591Y-36143531D01*
X71960937Y-36173572D01*
X61828118Y-46306392D01*
X61798071Y-46331051D01*
X61699674Y-46450949D01*
X61626558Y-46587738D01*
X61581534Y-46736164D01*
X61570140Y-46851848D01*
X61570140Y-46851857D01*
X61566332Y-46890520D01*
X61570140Y-46929183D01*
X61570141Y-85145990D01*
X61528954Y-85207631D01*
X61458472Y-85377791D01*
X61422540Y-85558431D01*
X60729605Y-85558431D01*
X60656210Y-30175618D01*
X67382540Y-30175618D01*
X67382540Y-30645422D01*
X67474194Y-31106199D01*
X67653980Y-31540241D01*
X67914990Y-31930869D01*
X68247191Y-32263070D01*
X68637819Y-32524080D01*
X69071861Y-32703866D01*
X69532638Y-32795520D01*
X70002442Y-32795520D01*
X70463219Y-32703866D01*
X70897261Y-32524080D01*
X71287889Y-32263070D01*
X71620090Y-31930869D01*
X71881100Y-31540241D01*
X72060886Y-31106199D01*
X72152540Y-30645422D01*
X72152540Y-30175618D01*
X72060886Y-29714841D01*
X71881100Y-29280799D01*
X71620090Y-28890171D01*
X71287889Y-28557970D01*
X70897261Y-28296960D01*
X70463219Y-28117174D01*
X70002442Y-28025520D01*
X69532638Y-28025520D01*
X69071861Y-28117174D01*
X68637819Y-28296960D01*
X68247191Y-28557970D01*
X67914990Y-28890171D01*
X67653980Y-29280799D01*
X67474194Y-29714841D01*
X67382540Y-30175618D01*
X60656210Y-30175618D01*
X60643474Y-20565236D01*
X72367140Y-20560469D01*
X72367140Y-26131520D01*
X72369580Y-26156296D01*
X72376807Y-26180121D01*
X72388543Y-26202077D01*
X72404337Y-26221323D01*
X72423583Y-26237117D01*
X72445539Y-26248853D01*
X72469364Y-26256080D01*
X72494140Y-26258520D01*
X78653640Y-26258520D01*
X78678416Y-26256080D01*
X78702241Y-26248853D01*
X78724197Y-26237117D01*
X78743443Y-26221323D01*
X78759237Y-26202077D01*
X78770973Y-26180121D01*
X78778200Y-26156296D01*
X78780640Y-26131520D01*
X78780640Y-26046882D01*
X81738440Y-26046882D01*
X81738440Y-26378798D01*
X81803194Y-26704336D01*
X81930212Y-27010987D01*
X82114615Y-27286965D01*
X82349315Y-27521665D01*
X82625293Y-27706068D01*
X82931944Y-27833086D01*
X83257482Y-27897840D01*
X83589398Y-27897840D01*
X83914936Y-27833086D01*
X84221587Y-27706068D01*
X84497565Y-27521665D01*
X84732265Y-27286965D01*
X84916668Y-27010987D01*
X85043686Y-26704336D01*
X85108440Y-26378798D01*
X85108440Y-26046882D01*
X85043686Y-25721344D01*
X84916668Y-25414693D01*
X84793950Y-25231034D01*
X85035403Y-25196341D01*
X85315914Y-25097412D01*
X85459415Y-25020708D01*
X85540075Y-24769080D01*
X84673440Y-23902445D01*
X84659298Y-23916588D01*
X84479693Y-23736983D01*
X84493835Y-23722840D01*
X84853045Y-23722840D01*
X85719680Y-24589475D01*
X85971308Y-24508815D01*
X86099707Y-24240511D01*
X86173295Y-23952314D01*
X86189244Y-23655297D01*
X86146941Y-23360877D01*
X86048012Y-23080366D01*
X85971308Y-22936865D01*
X85719680Y-22856205D01*
X84853045Y-23722840D01*
X84493835Y-23722840D01*
X83627200Y-22856205D01*
X83375572Y-22936865D01*
X83247173Y-23205169D01*
X83173585Y-23493366D01*
X83157636Y-23790383D01*
X83199939Y-24084803D01*
X83298868Y-24365314D01*
X83375572Y-24508815D01*
X83434923Y-24527840D01*
X83257482Y-24527840D01*
X82931944Y-24592594D01*
X82625293Y-24719612D01*
X82349315Y-24904015D01*
X82114615Y-25138715D01*
X81930212Y-25414693D01*
X81803194Y-25721344D01*
X81738440Y-26046882D01*
X78780640Y-26046882D01*
X78780640Y-22676600D01*
X83806805Y-22676600D01*
X84673440Y-23543235D01*
X85540075Y-22676600D01*
X85459415Y-22424972D01*
X85191111Y-22296573D01*
X84902914Y-22222985D01*
X84605897Y-22207036D01*
X84311477Y-22249339D01*
X84030966Y-22348268D01*
X83887465Y-22424972D01*
X83806805Y-22676600D01*
X78780640Y-22676600D01*
X78780640Y-20557862D01*
X142864840Y-20531804D01*
X142864840Y-25730200D01*
X94785851Y-25730200D01*
X92266144Y-23210494D01*
X92242282Y-23181418D01*
X92126252Y-23086195D01*
X91993875Y-23015438D01*
X91850238Y-22971866D01*
X91738286Y-22960840D01*
X91738283Y-22960840D01*
X91700860Y-22957154D01*
X91663437Y-22960840D01*
X90480349Y-22960840D01*
X90346333Y-22760271D01*
X90136009Y-22549947D01*
X89888693Y-22384696D01*
X89613891Y-22270869D01*
X89322162Y-22212840D01*
X89024718Y-22212840D01*
X88732989Y-22270869D01*
X88458187Y-22384696D01*
X88210871Y-22549947D01*
X88000547Y-22760271D01*
X87835296Y-23007587D01*
X87721469Y-23282389D01*
X87663440Y-23574118D01*
X87663440Y-23871562D01*
X87721469Y-24163291D01*
X87835296Y-24438093D01*
X88000547Y-24685409D01*
X88210871Y-24895733D01*
X88458187Y-25060984D01*
X88732989Y-25174811D01*
X89024718Y-25232840D01*
X89061723Y-25232840D01*
X88940212Y-25414693D01*
X88813194Y-25721344D01*
X88748440Y-26046882D01*
X88748440Y-26378798D01*
X88813194Y-26704336D01*
X88940212Y-27010987D01*
X89124615Y-27286965D01*
X89359315Y-27521665D01*
X89635293Y-27706068D01*
X89941944Y-27833086D01*
X90267482Y-27897840D01*
X90599398Y-27897840D01*
X90924936Y-27833086D01*
X91231587Y-27706068D01*
X91507565Y-27521665D01*
X91742265Y-27286965D01*
X91926668Y-27010987D01*
X92053686Y-26704336D01*
X92118440Y-26378798D01*
X92118440Y-26046882D01*
X92053686Y-25721344D01*
X91926668Y-25414693D01*
X91742265Y-25138715D01*
X91507565Y-24904015D01*
X91231587Y-24719612D01*
X90924936Y-24592594D01*
X90599398Y-24527840D01*
X90451617Y-24527840D01*
X90480349Y-24484840D01*
X91385230Y-24484840D01*
X93904941Y-27004552D01*
X93928798Y-27033622D01*
X94044828Y-27128845D01*
X94177205Y-27199602D01*
X94320842Y-27243174D01*
X94432794Y-27254200D01*
X94432796Y-27254200D01*
X94470219Y-27257886D01*
X94507642Y-27254200D01*
X148943737Y-27254200D01*
X148981160Y-27257886D01*
X149018583Y-27254200D01*
X149018586Y-27254200D01*
X149130538Y-27243174D01*
X149274175Y-27199602D01*
X149406552Y-27128845D01*
X149522582Y-27033622D01*
X149546444Y-27004546D01*
X149571939Y-26979051D01*
X157456929Y-26979051D01*
X157498941Y-27268539D01*
X157596621Y-27544267D01*
X157637299Y-27620370D01*
X157567003Y-27706026D01*
X157508038Y-27816340D01*
X157471728Y-27936038D01*
X157459468Y-28060520D01*
X157459468Y-29760520D01*
X157471728Y-29885002D01*
X157508038Y-30004700D01*
X157567003Y-30115014D01*
X157646355Y-30211705D01*
X157743046Y-30291057D01*
X157853360Y-30350022D01*
X157973058Y-30386332D01*
X158097540Y-30398592D01*
X159797540Y-30398592D01*
X159922022Y-30386332D01*
X160041720Y-30350022D01*
X160152034Y-30291057D01*
X160248725Y-30211705D01*
X160328077Y-30115014D01*
X160387042Y-30004700D01*
X160399743Y-29962830D01*
X160500908Y-30063995D01*
X160744129Y-30226510D01*
X161014382Y-30338452D01*
X161301280Y-30395520D01*
X161593800Y-30395520D01*
X161880698Y-30338452D01*
X162150951Y-30226510D01*
X162394172Y-30063995D01*
X162601015Y-29857152D01*
X162763530Y-29613931D01*
X162875472Y-29343678D01*
X162932540Y-29056780D01*
X162932540Y-28764260D01*
X162884220Y-28521340D01*
X199487588Y-28521340D01*
X199499848Y-28645822D01*
X199536158Y-28765520D01*
X199595123Y-28875834D01*
X199674475Y-28972525D01*
X199771166Y-29051877D01*
X199881480Y-29110842D01*
X200001178Y-29147152D01*
X200125660Y-29159412D01*
X201589910Y-29156340D01*
X201748660Y-28997590D01*
X201748660Y-26898340D01*
X202002660Y-26898340D01*
X202002660Y-28997590D01*
X202161410Y-29156340D01*
X203625660Y-29159412D01*
X203750142Y-29147152D01*
X203869840Y-29110842D01*
X203937588Y-29074629D01*
X203937588Y-31773880D01*
X203949848Y-31898362D01*
X203986158Y-32018060D01*
X204045123Y-32128374D01*
X204124475Y-32225065D01*
X204221166Y-32304417D01*
X204331480Y-32363382D01*
X204451178Y-32399692D01*
X204575660Y-32411952D01*
X208575660Y-32411952D01*
X208700142Y-32399692D01*
X208819840Y-32363382D01*
X208930154Y-32304417D01*
X209026845Y-32225065D01*
X209106197Y-32128374D01*
X209165162Y-32018060D01*
X209201472Y-31898362D01*
X209213732Y-31773880D01*
X209213732Y-30881448D01*
X219846217Y-30881448D01*
X220152399Y-31325023D01*
X220739846Y-31640474D01*
X221377548Y-31835260D01*
X222040997Y-31901892D01*
X222704698Y-31837812D01*
X223343145Y-31645482D01*
X223931802Y-31332292D01*
X223942681Y-31325023D01*
X224248863Y-30881448D01*
X222047540Y-28680125D01*
X219846217Y-30881448D01*
X209213732Y-30881448D01*
X209213732Y-28493977D01*
X218646168Y-28493977D01*
X218710248Y-29157678D01*
X218902578Y-29796125D01*
X219215768Y-30384782D01*
X219223037Y-30395661D01*
X219666612Y-30701843D01*
X221867935Y-28500520D01*
X222227145Y-28500520D01*
X224428468Y-30701843D01*
X224872043Y-30395661D01*
X225187494Y-29808214D01*
X225382280Y-29170512D01*
X225448912Y-28507063D01*
X225384832Y-27843362D01*
X225192502Y-27204915D01*
X224879312Y-26616258D01*
X224872043Y-26605379D01*
X224428468Y-26299197D01*
X222227145Y-28500520D01*
X221867935Y-28500520D01*
X219666612Y-26299197D01*
X219223037Y-26605379D01*
X218907586Y-27192826D01*
X218712800Y-27830528D01*
X218646168Y-28493977D01*
X209213732Y-28493977D01*
X209213732Y-27773880D01*
X209201472Y-27649398D01*
X209165162Y-27529700D01*
X209106197Y-27419386D01*
X209026845Y-27322695D01*
X208930154Y-27243343D01*
X208819840Y-27184378D01*
X208700142Y-27148068D01*
X208575660Y-27135808D01*
X204575660Y-27135808D01*
X204451178Y-27148068D01*
X204331480Y-27184378D01*
X204261006Y-27222048D01*
X204260660Y-27057090D01*
X204101910Y-26898340D01*
X202002660Y-26898340D01*
X201748660Y-26898340D01*
X199649410Y-26898340D01*
X199490660Y-27057090D01*
X199487588Y-28521340D01*
X162884220Y-28521340D01*
X162875472Y-28477362D01*
X162763530Y-28207109D01*
X162601015Y-27963888D01*
X162547647Y-27910520D01*
X162601015Y-27857152D01*
X162763530Y-27613931D01*
X162875472Y-27343678D01*
X162932540Y-27056780D01*
X162932540Y-26764260D01*
X162875472Y-26477362D01*
X162763530Y-26207109D01*
X162601015Y-25963888D01*
X162394172Y-25757045D01*
X162150951Y-25594530D01*
X161880698Y-25482588D01*
X161593800Y-25425520D01*
X161301280Y-25425520D01*
X161014382Y-25482588D01*
X160744129Y-25594530D01*
X160500908Y-25757045D01*
X160294065Y-25963888D01*
X160185124Y-26126930D01*
X159975937Y-26061728D01*
X159127145Y-26910520D01*
X159141288Y-26924663D01*
X158961683Y-27104268D01*
X158947540Y-27090125D01*
X158933398Y-27104268D01*
X158753793Y-26924663D01*
X158767935Y-26910520D01*
X157919143Y-26061728D01*
X157670068Y-26139363D01*
X157544169Y-26403403D01*
X157472201Y-26686931D01*
X157456929Y-26979051D01*
X149571939Y-26979051D01*
X151846134Y-24704857D01*
X151884194Y-24896199D01*
X152063980Y-25330241D01*
X152324990Y-25720869D01*
X152657191Y-26053070D01*
X153047819Y-26314080D01*
X153481861Y-26493866D01*
X153942638Y-26585520D01*
X154412442Y-26585520D01*
X154873219Y-26493866D01*
X155307261Y-26314080D01*
X155697889Y-26053070D01*
X155868836Y-25882123D01*
X158098748Y-25882123D01*
X158947540Y-26730915D01*
X159796332Y-25882123D01*
X159718697Y-25633048D01*
X159454657Y-25507149D01*
X159171129Y-25435181D01*
X158879009Y-25419909D01*
X158589521Y-25461921D01*
X158313793Y-25559601D01*
X158176383Y-25633048D01*
X158098748Y-25882123D01*
X155868836Y-25882123D01*
X156030090Y-25720869D01*
X156291100Y-25330241D01*
X156470886Y-24896199D01*
X156562540Y-24435422D01*
X156562540Y-23965618D01*
X163832540Y-23965618D01*
X163832540Y-24435422D01*
X163924194Y-24896199D01*
X164103980Y-25330241D01*
X164364990Y-25720869D01*
X164697191Y-26053070D01*
X165087819Y-26314080D01*
X165521861Y-26493866D01*
X165982638Y-26585520D01*
X166452442Y-26585520D01*
X166913219Y-26493866D01*
X167347261Y-26314080D01*
X167737889Y-26053070D01*
X168070090Y-25720869D01*
X168331100Y-25330241D01*
X168510886Y-24896199D01*
X168602540Y-24435422D01*
X168602540Y-23965618D01*
X168510886Y-23504841D01*
X168331100Y-23070799D01*
X168070090Y-22680171D01*
X167737889Y-22347970D01*
X167347261Y-22086960D01*
X166913219Y-21907174D01*
X166452442Y-21815520D01*
X165982638Y-21815520D01*
X165521861Y-21907174D01*
X165087819Y-22086960D01*
X164697191Y-22347970D01*
X164364990Y-22680171D01*
X164103980Y-23070799D01*
X163924194Y-23504841D01*
X163832540Y-23965618D01*
X156562540Y-23965618D01*
X156470886Y-23504841D01*
X156291100Y-23070799D01*
X156030090Y-22680171D01*
X155697889Y-22347970D01*
X155307261Y-22086960D01*
X154873219Y-21907174D01*
X154412442Y-21815520D01*
X153942638Y-21815520D01*
X153481861Y-21907174D01*
X153047819Y-22086960D01*
X152706766Y-22314845D01*
X153283692Y-21737920D01*
X168631630Y-21737920D01*
X174173229Y-27279521D01*
X174263087Y-27353265D01*
X174399877Y-27426382D01*
X174548302Y-27471405D01*
X174702659Y-27486608D01*
X174857017Y-27471405D01*
X174903187Y-27457400D01*
X182159658Y-27457400D01*
X182259311Y-27523986D01*
X182429471Y-27594468D01*
X182610111Y-27630400D01*
X182794289Y-27630400D01*
X182974929Y-27594468D01*
X183145089Y-27523986D01*
X183298228Y-27421662D01*
X183428462Y-27291428D01*
X183530786Y-27138289D01*
X183601268Y-26968129D01*
X183637200Y-26787489D01*
X183637200Y-26603311D01*
X183601268Y-26422671D01*
X183530786Y-26252511D01*
X183428462Y-26099372D01*
X183298228Y-25969138D01*
X183145089Y-25866814D01*
X182974929Y-25796332D01*
X182794289Y-25760400D01*
X182610111Y-25760400D01*
X182429471Y-25796332D01*
X182259311Y-25866814D01*
X182159658Y-25933400D01*
X175054212Y-25933400D01*
X174142152Y-25021340D01*
X199487588Y-25021340D01*
X199490660Y-26485590D01*
X199649410Y-26644340D01*
X201748660Y-26644340D01*
X201748660Y-24545090D01*
X202002660Y-24545090D01*
X202002660Y-26644340D01*
X204101910Y-26644340D01*
X204260660Y-26485590D01*
X204262069Y-25813995D01*
X204295123Y-25875834D01*
X204374475Y-25972525D01*
X204471166Y-26051877D01*
X204581480Y-26110842D01*
X204701178Y-26147152D01*
X204825660Y-26159412D01*
X206289910Y-26156340D01*
X206448660Y-25997590D01*
X206448660Y-23898340D01*
X206702660Y-23898340D01*
X206702660Y-25997590D01*
X206861410Y-26156340D01*
X208325660Y-26159412D01*
X208450142Y-26147152D01*
X208569840Y-26110842D01*
X208680154Y-26051877D01*
X208776845Y-25972525D01*
X208856197Y-25875834D01*
X208915162Y-25765520D01*
X208951472Y-25645822D01*
X208963732Y-25521340D01*
X208960660Y-24057090D01*
X208801910Y-23898340D01*
X206702660Y-23898340D01*
X206448660Y-23898340D01*
X204349410Y-23898340D01*
X204190660Y-24057090D01*
X204189251Y-24728685D01*
X204156197Y-24666846D01*
X204076845Y-24570155D01*
X203980154Y-24490803D01*
X203869840Y-24431838D01*
X203750142Y-24395528D01*
X203625660Y-24383268D01*
X202161410Y-24386340D01*
X202002660Y-24545090D01*
X201748660Y-24545090D01*
X201589910Y-24386340D01*
X200125660Y-24383268D01*
X200001178Y-24395528D01*
X199881480Y-24431838D01*
X199771166Y-24490803D01*
X199674475Y-24570155D01*
X199595123Y-24666846D01*
X199536158Y-24777160D01*
X199499848Y-24896858D01*
X199487588Y-25021340D01*
X174142152Y-25021340D01*
X171142151Y-22021340D01*
X204187588Y-22021340D01*
X204190660Y-23485590D01*
X204349410Y-23644340D01*
X206448660Y-23644340D01*
X206448660Y-21545090D01*
X206702660Y-21545090D01*
X206702660Y-23644340D01*
X208801910Y-23644340D01*
X208960660Y-23485590D01*
X208963732Y-22021340D01*
X208951472Y-21896858D01*
X208915162Y-21777160D01*
X208856197Y-21666846D01*
X208776845Y-21570155D01*
X208680154Y-21490803D01*
X208569840Y-21431838D01*
X208450142Y-21395528D01*
X208325660Y-21383268D01*
X206861410Y-21386340D01*
X206702660Y-21545090D01*
X206448660Y-21545090D01*
X206289910Y-21386340D01*
X204825660Y-21383268D01*
X204701178Y-21395528D01*
X204581480Y-21431838D01*
X204471166Y-21490803D01*
X204374475Y-21570155D01*
X204295123Y-21666846D01*
X204236158Y-21777160D01*
X204199848Y-21896858D01*
X204187588Y-22021340D01*
X171142151Y-22021340D01*
X169641726Y-20520916D01*
X214489126Y-20502680D01*
X213345039Y-21753193D01*
X213333143Y-21768363D01*
X213321407Y-21790319D01*
X213314180Y-21814144D01*
X213311740Y-21838920D01*
X213311740Y-24556720D01*
X213313106Y-24575300D01*
X213319145Y-24599453D01*
X213329780Y-24621963D01*
X213344602Y-24641967D01*
X213363041Y-24658694D01*
X215433141Y-26195394D01*
X215460239Y-26210753D01*
X215484064Y-26217980D01*
X215508840Y-26220420D01*
X217642440Y-26220420D01*
X217670012Y-26217391D01*
X217693668Y-26209630D01*
X217715355Y-26197403D01*
X217826320Y-26119592D01*
X219846217Y-26119592D01*
X222047540Y-28320915D01*
X224248863Y-26119592D01*
X223942681Y-25676017D01*
X223355234Y-25360566D01*
X222717532Y-25165780D01*
X222054083Y-25099148D01*
X221390382Y-25163228D01*
X220751935Y-25355558D01*
X220163278Y-25668748D01*
X220152399Y-25676017D01*
X219846217Y-26119592D01*
X217826320Y-26119592D01*
X219798155Y-24736903D01*
X219815043Y-24722723D01*
X219830837Y-24703477D01*
X219842573Y-24681521D01*
X219849800Y-24657696D01*
X219852240Y-24632920D01*
X219852240Y-21838920D01*
X219850777Y-21819698D01*
X219844615Y-21795577D01*
X219833865Y-21773121D01*
X219818941Y-21753193D01*
X218673298Y-20500978D01*
X231422469Y-20495794D01*
X231412616Y-109805233D01*
G36*
X80167720Y-55700820D02*
G01*
X80187720Y-55700820D01*
X80187720Y-55954820D01*
X80167720Y-55954820D01*
X80167720Y-55974820D01*
X79913720Y-55974820D01*
X79913720Y-55954820D01*
X79893720Y-55954820D01*
X79893720Y-55700820D01*
X79913720Y-55700820D01*
X79913720Y-55680820D01*
X80167720Y-55680820D01*
X80167720Y-55700820D01*
X80167720Y-55700820D01*
G37*
X80167720Y-55700820D02*
X80187720Y-55700820D01*
X80187720Y-55954820D01*
X80167720Y-55954820D01*
X80167720Y-55974820D01*
X79913720Y-55974820D01*
X79913720Y-55954820D01*
X79893720Y-55954820D01*
X79893720Y-55700820D01*
X79913720Y-55700820D01*
X79913720Y-55680820D01*
X80167720Y-55680820D01*
X80167720Y-55700820D01*
G36*
X87787720Y-55700820D02*
G01*
X87807720Y-55700820D01*
X87807720Y-55954820D01*
X87787720Y-55954820D01*
X87787720Y-55974820D01*
X87533720Y-55974820D01*
X87533720Y-55954820D01*
X87513720Y-55954820D01*
X87513720Y-55700820D01*
X87533720Y-55700820D01*
X87533720Y-55680820D01*
X87787720Y-55680820D01*
X87787720Y-55700820D01*
X87787720Y-55700820D01*
G37*
X87787720Y-55700820D02*
X87807720Y-55700820D01*
X87807720Y-55954820D01*
X87787720Y-55954820D01*
X87787720Y-55974820D01*
X87533720Y-55974820D01*
X87533720Y-55954820D01*
X87513720Y-55954820D01*
X87513720Y-55700820D01*
X87533720Y-55700820D01*
X87533720Y-55680820D01*
X87787720Y-55680820D01*
X87787720Y-55700820D01*
M02*
